<svg xmlns="http://www.w3.org/2000/svg" viewBox="0 0 640 448">
  <defs>
    <style>
      .cls-1 {
        fill: #fff;
      }
    </style>
  </defs>
  <path id="cloud-download-alt" class="cls-1" d="M537.6,226.6A96.114,96.114,0,0,0,448,96a95.51,95.51,0,0,0-53.3,16.2A160.013,160.013,0,0,0,96,192c0,2.7.1,5.4.2,8.1A144.038,144.038,0,0,0,144,480H512a127.992,127.992,0,0,0,25.6-253.4ZM404.7,315.3,299.3,420.7a16.055,16.055,0,0,1-22.6,0L171.3,315.3c-10.1-10.1-2.9-27.3,11.3-27.3H248V176a16.047,16.047,0,0,1,16-16h48a16.047,16.047,0,0,1,16,16V288h65.4C407.6,288,414.8,305.2,404.7,315.3Z" transform="translate(0 -32)"/>
</svg>
