<svg xmlns="http://www.w3.org/2000/svg" xmlns:xlink="http://www.w3.org/1999/xlink" viewBox="0 0 68 68">
  <defs>
    <style>
      .cls-1 {
        fill: #fe703f;
        stroke: #707070;
        stroke-width: 3px;
      }

      .cls-2 {
        fill: #fff;
      }

      .cls-3 {
        stroke: none;
      }

      .cls-4 {
        fill: none;
      }

      .cls-5 {
        filter: url(#Ellipse_291);
      }
    </style>
    <filter id="Ellipse_291" x="0" y="0" width="68" height="68" filterUnits="userSpaceOnUse">
      <feOffset dy="3" input="SourceAlpha"/>
      <feGaussianBlur stdDeviation="3" result="blur"/>
      <feFlood flood-opacity="0.161"/>
      <feComposite operator="in" in2="blur"/>
      <feComposite in="SourceGraphic"/>
    </filter>
  </defs>
  <g id="Group_9162" data-name="Group 9162" transform="translate(-3031 -1554)">
    <g class="cls-5" transform="matrix(1, 0, 0, 1, 3031, 1554)">
      <g id="Ellipse_291-2" data-name="Ellipse 291" class="cls-1" transform="translate(9 6)">
        <circle class="cls-3" cx="25" cy="25" r="25"/>
        <circle class="cls-4" cx="25" cy="25" r="23.5"/>
      </g>
    </g>
    <path id="aviso" class="cls-2" d="M12.7,29.047a3.628,3.628,0,0,0,3.627-3.629H9.073A3.628,3.628,0,0,0,12.7,29.047Zm12.212-8.488c-1.1-1.177-3.145-2.948-3.145-8.748a8.953,8.953,0,0,0-7.254-8.8V1.833a1.813,1.813,0,1,0-3.626,0V3.015a8.953,8.953,0,0,0-7.254,8.8c0,5.8-2.05,7.571-3.145,8.748A1.771,1.771,0,0,0,0,21.79,1.816,1.816,0,0,0,1.819,23.6h21.76A1.816,1.816,0,0,0,25.4,21.79a1.77,1.77,0,0,0-.488-1.231Z" transform="translate(3052 1569.98)"/>
  </g>
</svg>
