<svg xmlns="http://www.w3.org/2000/svg" xmlns:xlink="http://www.w3.org/1999/xlink" viewBox="0 0 68 68">
  <defs>
    <style>
      .cls-1 {
        fill: #fe703f;
        stroke: #707070;
        stroke-width: 3px;
      }

      .cls-2 {
        fill: #fff;
      }

      .cls-3 {
        stroke: none;
      }

      .cls-4 {
        fill: none;
      }

      .cls-5 {
        filter: url(#Ellipse_291);
      }
    </style>
    <filter id="Ellipse_291" x="0" y="0" width="68" height="68" filterUnits="userSpaceOnUse">
      <feOffset dy="3" input="SourceAlpha"/>
      <feGaussianBlur stdDeviation="3" result="blur"/>
      <feFlood flood-opacity="0.161"/>
      <feComposite operator="in" in2="blur"/>
      <feComposite in="SourceGraphic"/>
    </filter>
  </defs>
  <g id="Group_9169" data-name="Group 9169" transform="translate(-3092 -1398)">
    <g class="cls-5" transform="matrix(1, 0, 0, 1, 3092, 1398)">
      <g id="Ellipse_291-2" data-name="Ellipse 291" class="cls-1" transform="translate(9 6)">
        <circle class="cls-3" cx="25" cy="25" r="25"/>
        <circle class="cls-4" cx="25" cy="25" r="23.5"/>
      </g>
    </g>
    <g id="Group_9168" data-name="Group 9168" transform="translate(-1 -8.932)">
      <g id="Group_9167" data-name="Group 9167" transform="translate(3112 1424.932)">
        <path id="Path_17762" data-name="Path 17762" class="cls-2" d="M152.8,0H139V10.263h13.8Zm-7.735,8.772-2.711-2.711,1.251-1.251,1.46,1.46L148.2,3.142l1.251,1.251Z" transform="translate(-130.801)"/>
        <path id="Path_17763" data-name="Path 17763" class="cls-2" d="M27,95H23.771v6.429H6.429V95H3.2L0,104.349v.088H30.2v-.088Z" transform="translate(0 -89.396)"/>
        <rect id="Rectangle_132" data-name="Rectangle 132" class="cls-2" width="30.2" height="8.258" transform="translate(0 16.811)"/>
      </g>
    </g>
  </g>
</svg>
