<svg xmlns="http://www.w3.org/2000/svg" xmlns:xlink="http://www.w3.org/1999/xlink" viewBox="0 0 1373.493 312.188">
  <defs>
    <style>
      .cls-1 {
        fill: url(#linear-gradient);
      }

      .cls-2, .cls-37, .cls-38 {
        fill: none;
      }

      .cls-2 {
        stroke: #d4d4d5;
        stroke-miterlimit: 10;
      }

      .cls-3 {
        fill: #d4d4d5;
      }

      .cls-4 {
        opacity: 0.4;
      }

      .cls-5 {
        fill: #9e9e9e;
      }

      .cls-6 {
        fill: #236ab7;
      }

      .cls-7 {
        fill: #30537f;
      }

      .cls-8 {
        fill: #fff;
      }

      .cls-9 {
        clip-path: url(#clip-path);
      }

      .cls-10 {
        fill: #131323;
      }

      .cls-11 {
        fill: #141424;
      }

      .cls-12 {
        fill: #141425;
      }

      .cls-13 {
        clip-path: url(#clip-path-2);
      }

      .cls-14 {
        fill: #151526;
      }

      .cls-15 {
        fill: #131322;
      }

      .cls-16 {
        fill: #121220;
      }

      .cls-17 {
        fill: #11111f;
      }

      .cls-18 {
        fill: #11111e;
      }

      .cls-19 {
        fill: #10101d;
      }

      .cls-20 {
        clip-path: url(#clip-path-3);
      }

      .cls-21 {
        fill: #28283b;
      }

      .cls-22 {
        fill: #272739;
      }

      .cls-23 {
        fill: #262637;
      }

      .cls-24 {
        clip-path: url(#clip-path-4);
      }

      .cls-25 {
        fill: #20202e;
      }

      .cls-26 {
        fill: #212130;
      }

      .cls-27 {
        fill: #222232;
      }

      .cls-28 {
        fill: #232334;
      }

      .cls-29 {
        fill: #252535;
      }

      .cls-30 {
        fill: #29293d;
      }

      .cls-31 {
        fill: #242433;
      }

      .cls-32 {
        fill: #161628;
      }

      .cls-33 {
        fill: #a88c13;
      }

      .cls-34 {
        fill: #34bcc4;
      }

      .cls-35 {
        fill: #393951;
      }

      .cls-36 {
        fill: #1b1b31;
      }

      .cls-37, .cls-38 {
        stroke: #fff;
      }

      .cls-38 {
        stroke-linecap: round;
        stroke-linejoin: round;
        stroke-width: 10px;
      }
    </style>
    <linearGradient id="linear-gradient" x1="1" y1="0.574" x2="0" y2="0.565" gradientUnits="objectBoundingBox">
      <stop offset="0" stop-color="#33a2bd"/>
      <stop offset="1" stop-color="#34bcc4"/>
    </linearGradient>
    <clipPath id="clip-path">
      <path id="Path_18707" data-name="Path 18707" d="M128.39,390.29a3.72,3.72,0,0,0,2.09.169l5.365,2.1a3.72,3.72,0,0,1-2.09-.169C132.145,391.764,130,390.923,128.39,390.29Z" transform="translate(-128.39 -390.29)"/>
    </clipPath>
    <clipPath id="clip-path-2">
      <path id="Path_18718" data-name="Path 18718" d="M137.088,374.577a4.628,4.628,0,0,0-2.62-4.617l5.365,2.1a4.643,4.643,0,0,1,2.62,4.617c-.044,3.149-2.221,6.135-4.868,6.648l-5.365-2.1C134.867,380.712,137.045,377.727,137.088,374.577Z" transform="translate(-132.22 -369.96)"/>
    </clipPath>
    <clipPath id="clip-path-3">
      <path id="Path_18722" data-name="Path 18722" d="M134.6,369.756l5.365,2.1a3.72,3.72,0,0,0-2.09-.169l-5.365-2.1A3.721,3.721,0,0,1,134.6,369.756Z" transform="translate(-132.51 -369.51)"/>
    </clipPath>
    <clipPath id="clip-path-4">
      <path id="Path_18733" data-name="Path 18733" d="M131.574,383.016l-5.365-2.1a4.637,4.637,0,0,1-2.62-4.617c.044-3.16,2.221-6.135,4.868-6.648l5.365,2.1c-2.647.513-4.825,3.488-4.868,6.648A4.627,4.627,0,0,0,131.574,383.016Z" transform="translate(-123.589 -369.65)"/>
    </clipPath>
  </defs>
  <g id="Group_9717" data-name="Group 9717" transform="translate(-19349 -10832)">
    <rect id="Rectangle_5995" data-name="Rectangle 5995" class="cls-1" width="1373.493" height="312.189" transform="translate(19349 10832)"/>
    <path id="Path_18748" data-name="Path 18748" class="cls-2" d="M341.664,89.61c56.191,40.665,33.647,94.08-47.954,120.483-80.992,26.177-193.96,17.2-254.822-21.122-63.141-39.74-47.1-96.066,38.589-124.635C163.861,35.518,283.329,47.411,341.664,89.61Z" transform="translate(19840.502 10884.133)"/>
    <path id="Path_18776" data-name="Path 18776" class="cls-2" d="M401.733,96.841c66.084,47.825,39.571,110.645-56.4,141.7C250.083,269.324,117.225,258.761,45.646,213.7-28.612,166.96-9.742,100.716,91.03,67.117,192.625,33.225,333.127,47.212,401.733,96.841Z" transform="translate(19807.502 10870.133)"/>
    <path id="Path_18749" data-name="Path 18749" class="cls-3" d="M325.292,89.482c52.625,38.092,31.526,88.145-44.908,112.855C204.516,226.867,98.7,218.45,41.675,182.569c-59.147-37.235-44.118-90,36.152-116.759C158.751,38.82,270.658,49.945,325.292,89.482Z" transform="translate(19847.057 10887.24)"/>
    <g id="Group_9709" data-name="Group 9709" class="cls-4" transform="translate(19852.799 10939.894)">
      <g id="Group_9708" data-name="Group 9708" transform="translate(31.08 1.556)">
        <path id="Path_18750" data-name="Path 18750" class="cls-5" d="M77.551,70.532c-.226,0-.068-.09-.542.023-.474.135-.135.045-.474.135-.339.068-.722.2-.948.068a.535.535,0,0,1-.248-.316,1.242,1.242,0,0,1,.79-.361c.406.023.068-.045.406.023a4.024,4.024,0,0,0,1.219-.068A4.409,4.409,0,0,0,79,69.629c.2-.226.745-.361.858-.474.135-.113,1.016-.654.09-.587a9.712,9.712,0,0,1-1.309.068s-.5.158-.519-.045c-.023-.226-.181-.158,0-.406.158-.248-.068-.451.361-.609.451-.135.429-.654.519-.948s.767-.542.835-.632.023-.384.023-.384l-.654-.451-.858.023-1.061-.135s-.384-.023.2-.2a5.836,5.836,0,0,0,1.083-.519.417.417,0,0,0-.158-.2,5.7,5.7,0,0,0-.632-.226H76.762s.045-.113-.5.068-.158.045-.542.181a7.427,7.427,0,0,1-.993.226s-.338-.181-.181-.271.271-.158.384-.226a.9.9,0,0,0,.226-.293s-.293-.09-.135-.293l.158-.2s0-.7-.812-.542a13.929,13.929,0,0,0-1.715.384,5.153,5.153,0,0,0-.925.271c-.271.181.023.068-.451.293s-.97.429-1.219.519-.113-.068-.587.2a6.277,6.277,0,0,1-1.038.451s-.587.293-.338-.068c.248-.384.271-.474.384-.542a2.044,2.044,0,0,1,.7-.338,6.1,6.1,0,0,0,.79-.271,6.763,6.763,0,0,0,.812-.339c.271-.158.564-.361.2-.406a4.781,4.781,0,0,0-1.309.068c-.2.068-.339.068-.745.2s-.293.068-.564.271a5.6,5.6,0,0,0-.7.429c-.181.181-.248.135-.609.384a1.922,1.922,0,0,1-.812.451,11.2,11.2,0,0,1-1.58.339,7.663,7.663,0,0,0-1.354.045c-.474.09.135-.158-1.106.248s-2.166.654-2.166.654a16.52,16.52,0,0,0-2.1.293c-.5.158-1.286.293-1.286.429,0,.158-.429.361-.654.564a8.658,8.658,0,0,1-.79.406c-.271.181-1.038.609-1.038.609-.519.248-2.821,1.264-3.7,1.6a14.424,14.424,0,0,1-1.512.5s.158-.293-.609-.135l-.767.158.045.248-.226.316s-.2.271-.406.135l-.2-.135a1.33,1.33,0,0,0-.925.113c-.316.248-.429.248-.745.5s-.519.316-.835.564a10.567,10.567,0,0,1-1.693.722,11.576,11.576,0,0,1-3.588,1.444c-1.467.135-1.67.2-1.692.519-.023.293-.248.429-.293.587a2.048,2.048,0,0,1-1.038.7,3.2,3.2,0,0,1-1.173.339c-1.2.248-.7.135-1.2.248s-.609.045-.88.384c-.293.339-.09.474-.09.654,0,.2-.587.406-.654.609-.068.226.429.158-.09.519a5.446,5.446,0,0,1-1.2.587s-2.347,1.467-3.34,2.031c-.993.587-1.264.654-1.286.925-.023.248-.135.226-.519.564a5.377,5.377,0,0,0-1.173.97c-.316.451.248-.023-.316.451s-1.286.722-1.331.88a6.314,6.314,0,0,1-.677.858,2.7,2.7,0,0,0,1.015-.045c.384-.135.5-.293.835-.226a3.061,3.061,0,0,0,1.083.113c.293-.068.722-.181,1.015-.271s.248-.09.5-.316.135-.316.451-.451a12.066,12.066,0,0,1,1.173-.542,13.692,13.692,0,0,1,1.557-.293l.248.023s.519-.248.835-.384.226-.181.519-.293c.293-.09.519-.2.993-.361a10.772,10.772,0,0,1,2.437-.542,3.5,3.5,0,0,0,1.331.045c.429-.068-.293-.2.429-.068s.519.339,1.106.293.226-.181.587-.045a2.392,2.392,0,0,1,.654.338,3.772,3.772,0,0,0,.745.181h1.015a1.1,1.1,0,0,0,.248-.09.509.509,0,0,1,.158-.045h0a1.622,1.622,0,0,1,.181-.068c.406-.135.654-.248.88-.293s1.128-.384,1.309-.226.181.316-.068.384c-.248.09-.542.181-.948.316a2.831,2.831,0,0,0-.767.339c-.113.113,0,.135-.045.316-.045.158.338-.068-.045.158-.384.248-.654-.135-.384.248.293.384.271.564.587.542.316-.045.925-.181.925-.181s.519-.09.632-.226c.135-.113.045-.158.316-.271.248-.135.316-.293.474-.384s.542-.293.542-.293a2.854,2.854,0,0,1,.5-.2c.293-.09.79-.271.948-.158.158.09.113.181.045.316-.09.135-.316.135-.5.338-.2.2-.767.519-.9.632a2.81,2.81,0,0,0-.361.5c-.09.135-.474-.068-.5.361-.045.406-.271.745-.135.835a1.032,1.032,0,0,1,.293.339s.045.135.474.361c.406.226,1.015.023,1.489.2s.248.316.7.451c.429.158.609.023,1.083.226s2.482.429,2.6.5a4.258,4.258,0,0,0,1.512.361c.609.023.767-.181,1.467-.045a1.874,1.874,0,0,0,1.2,0c.339-.113.113-.226.835-.226a27.991,27.991,0,0,0,3.656-.812,13.231,13.231,0,0,1,1.331-.293,7.634,7.634,0,0,1,1.173-.361c.654-.113.858-.023,1.083-.248.248-.226.5-.564.293-.88-.2-.339-.7-.181-.7-.564s-.248-.338-.339-.745-.248-.361-.068-.587c.158-.226.068-.451.248-.677a1.188,1.188,0,0,0,.361-.451c.135-.248.609-.135,0-.542-.632-.406-.7-.564-.429-.722s.474-.271.474-.271,1.489-.632,1.76-.812c.271-.158,2.979-1.9,3.159-2.144.158-.248.113-.474.429-.9s-.045-.677.451-.88.745-.429.745-.542c-.023-.113-.451-.158.09-.429.542-.293,1.106-.564,1.106-.564s.7-.09,1.128-.181a6.532,6.532,0,0,0,1.85-.7,33.009,33.009,0,0,0,3.114-1.828,1.42,1.42,0,0,1,.745-.542c.384-.135.79-.361.835-.542C77.709,70.689,77.754,70.532,77.551,70.532Z" transform="translate(-16.283 -39.749)"/>
        <path id="Path_18751" data-name="Path 18751" class="cls-5" d="M62.345,66.175a7.549,7.549,0,0,1,1.061-.542c.677-.339-.226-.09-.745-.181-.5-.09,0,0-.271,0a2.341,2.341,0,0,1-.97,0c-.226-.113-.564.068-1.489.09-.948.023,0,0-.226-.158a1.12,1.12,0,0,0-.812.045c-.2.068-1.67.632-1.783.7s.135.248.135.248l-.451.451s-.925.271-1.467.451-.316.135-.429.248a10.463,10.463,0,0,1-1.377.451,6.365,6.365,0,0,1-1.625.248c-.271.023-.812.2-.993.226a10.03,10.03,0,0,0-1.241-.045c-.339.068-.609.451-1.061.677a2.586,2.586,0,0,0-.542.474,3.659,3.659,0,0,0,1.241-.113,6.622,6.622,0,0,1,1.2-.293c.79-.158,0,0,.564,0,.587,0,.339.068.271.271s0,0-.542.181-.384.2-.542.339c-.181.135.226.113.745.158s0,0,1.015-.113.406.113.406.113,1.309-.068,1.625-.113a9.186,9.186,0,0,0,1.444-.361c.722-.2.948-.2,1.918-.5a4.949,4.949,0,0,0,1.489-.542,1.426,1.426,0,0,0,.5-.474c.181-.158,1.061-.79,1.67-1.219C61.69,66.536,61.848,66.491,62.345,66.175Z" transform="translate(16.39 -36.228)"/>
        <path id="Path_18752" data-name="Path 18752" class="cls-5" d="M20.515,79.833l-.316.181a.964.964,0,0,1-.316.474,1.376,1.376,0,0,0-.384.519l.361.248a3.2,3.2,0,0,0,.5-.338,2.243,2.243,0,0,1,.542-.361c.271-.158.406-.158.474-.271.068-.09.338-.226.271-.316s-.293-.09-.293-.09l-.226-.158Z" transform="translate(-19.5 -18.134)"/>
        <path id="Path_18753" data-name="Path 18753" class="cls-5" d="M35.1,81.607c.384-.135.429-.248.519-.429s-.564-.135-.564-.135-1.377.361-1.535.406a5.911,5.911,0,0,1-.9.181c-.474.09,0,0-.677.226a2.987,2.987,0,0,0-.767.316c-.406.2,0,0,.181.158.158.158,1.038.023,1.038.023l.519.045c-.226.181,1.4-.384,1.783-.677C35.1,81.472,34.72,81.742,35.1,81.607Z" transform="translate(-5.045 -16.478)"/>
        <path id="Path_18754" data-name="Path 18754" class="cls-5" d="M23.469,83.077a3.3,3.3,0,0,0,1.106-.587c.406-.361,0,0-.384-.045-.384-.068-.609.135-.9.226a2.941,2.941,0,0,0-.519.226,2.557,2.557,0,0,1-.5.2,2.92,2.92,0,0,1-.542.068c-.248.045-.767.226-1.309.406s1.061,0,1.061,0,.745,0,.925-.023a3.284,3.284,0,0,0,.88-.429C23.469,82.919,23.288,83.145,23.469,83.077Z" transform="translate(-18.482 -14.857)"/>
        <path id="Path_18755" data-name="Path 18755" class="cls-5" d="M36.849,80.007c-.271-.271,0,0,.023-.226s-.158-.339-.542-.406c-.384-.045-.293.09-.406.2-.135.113-.384.384-.384.384a1.018,1.018,0,0,0-.181.7c0,.542-.045.451-.2.632-.135.181.113.316-.045.835a1.791,1.791,0,0,0-.135.587s-.339.5-.068.632l.767.226a6.808,6.808,0,0,0,1.128-.361,11.866,11.866,0,0,1,1.331-.587,4.972,4.972,0,0,1,.925-.135c.181-.023,1.106-.045,1.309-.113a5.756,5.756,0,0,0,.858-.654c.181-.135-.181-.406-.226-.654-.068-.226.542-.316.835-.564s.226-.181-.023-.5-.609.135-.948.068-.316-.248-.654-.293-.451.135-.745.248a3.1,3.1,0,0,1-.97.181c-.384-.023,0,0-.384-.158s-.384.135-.97.181C36.533,80.345,37.12,80.3,36.849,80.007Z" transform="translate(-0.269 -18.579)"/>
        <path id="Path_18756" data-name="Path 18756" class="cls-5" d="M40.2,80.76c.135-.158.248-.113.339-.226.068-.09-.158-.158-.5-.384-.316-.226,0,0-.293-.158s-.361.045-.632.068-.316.045-.542.068c-.226.045-.181.135-.248.361-.068.248,0,0,.068.09s-.068.339.045.406,1.083.316,1.083.316.564-.158.587-.451C40.063,80.625,40.063,80.918,40.2,80.76Z" transform="translate(4.122 -17.866)"/>
        <path id="Path_18757" data-name="Path 18757" class="cls-5" d="M47.334,96.927c.339-.226.677-.474.632-.745s-.654-.135-.654-.135L45.844,96s-.993.113-1.467.135-.9-.023-1.377-.045a8.393,8.393,0,0,1-2.212-.248c-1.241-.293-.7.068-1.016.045-.293,0-3.859.429-4.22.339A4.131,4.131,0,0,0,34.4,96.3c-.429,0-.474.406-.654.451-.2.068-.226.429-.293.519s.135.226.045.451a2.009,2.009,0,0,1-.451.609c-.248.226.948.181.948.181l.2-.384.474-.293.135-.429s1.828-.045,2.031,0,.79-.045,1.354-.045c.564-.023,1.219-.2,1.6-.248a.97.97,0,0,1,.7.248,2.2,2.2,0,0,0,1.151.09c.677-.09.632.226.632.226a6.6,6.6,0,0,1,1.016.474c.293.181.587-.09,1.083-.248.474-.158,1.128-.293,1.512-.429A7.341,7.341,0,0,0,47.334,96.927Z" transform="translate(-2.516 1.983)"/>
        <path id="Path_18758" data-name="Path 18758" class="cls-5" d="M46.568,96.819c.248-.09,1.083-.293,1.467-.429s.384-.271.587-.609-.5-.226-.5-.226l-1.083-.045S46.3,95.443,46,95.375a5.44,5.44,0,0,0-2.257.135c-1.422.271-.677.271-.97.361a2.834,2.834,0,0,1-.767.068s-.993.271-1.444.451-.023.316.135.406a4.8,4.8,0,0,0,1.038.113,2.418,2.418,0,0,1,.767.271c.135.135-.338.293-.745.451s-.248.068-.858,0c-.632-.068-.429.09-.812.226s-.023.226-.135.338.88.339.993.406l1.331.113a4.815,4.815,0,0,0,.993-.384c.135-.158.316-.181.677-.361a5.616,5.616,0,0,1,1.106-.226,6.128,6.128,0,0,0,.88-.474c.429-.248,0,0-.09-.248C45.8,96.774,46.32,96.887,46.568,96.819Z" transform="translate(6.148 1.46)"/>
        <path id="Path_18759" data-name="Path 18759" class="cls-5" d="M39,97.245c-.7.2-.451.09-.7.2s-.271-.113-.248.113c0,.248.023.451.271.5a2.984,2.984,0,0,0,.677.068,1.615,1.615,0,0,0,.7-.068,5.237,5.237,0,0,0,1.377-.654c.09-.113-.519-.248-.767-.2l-1.015.2S39.7,97.041,39,97.245Z" transform="translate(3.807 3.81)"/>
        <path id="Path_18760" data-name="Path 18760" class="cls-5" d="M45.192,95.914a8.344,8.344,0,0,0,1.083-.158c.135-.045.384-.135.88-.293.474-.158.158-.135-.181-.406s-.429,0-.7.023a1.6,1.6,0,0,1-.654,0,3.21,3.21,0,0,0-.835.068,1.3,1.3,0,0,0-.406.158l.5.226v.135C44.876,95.846,45.192,95.914,45.192,95.914Z" transform="translate(11.766 0.988)"/>
        <path id="Path_18761" data-name="Path 18761" class="cls-5" d="M66,60.781a5.3,5.3,0,0,0,1.151-.293c.925-.316,1.128-.384,1.173-.677s-.113-.406.2-.609a4.023,4.023,0,0,1,1.241-.519,1.533,1.533,0,0,1,.79.09,1.33,1.33,0,0,0,.835.023c.271-.09,1.038-.293,1.038-.293a5.032,5.032,0,0,0,1.219-.271c.339-.158.632-.316.564-.429s.181-.361-.7-.2c-.88.135-1.918.248-1.918.248l-.2-.158s-.068-.181.339-.293c.406-.135.429-.248.767-.361s1.241-.519,1.241-.519c.384-.068,1.151-.293,1.151-.293l.181-.2s1.173-.7-.181-.384c-1.331.293-2.347.632-2.347.632s-1.557.226-1.941.293c-.384.09.248-.226-.948.181s-1.264.429-1.873.609c-.587.2-.925.316-1.535.519a7.308,7.308,0,0,0-.97.271c-.158.113-.158.451-.158.451a7.186,7.186,0,0,0-1.241.564c-.113.135.722,1.038.722,1.038s.339.226.519.361A1.109,1.109,0,0,0,66,60.781Zm.406-2.437c.406-.135.745-.248,1.331-.451a10.244,10.244,0,0,1,.993-.339c.248-.023,1.106-.316,1.083-.068s-.2.271-.361.361a10.329,10.329,0,0,1-1.151.429c-.474.158-1.128.384-1.128.384S65.862,58.5,66.4,58.344Z" transform="translate(36.252 -48.503)"/>
        <path id="Path_18762" data-name="Path 18762" class="cls-5" d="M143.313,82.263c-.361-.361-1.377-.181-1.9.068s.858.812.858.812a1.744,1.744,0,0,1,.293.722c.045.316.609.632.609.632l.158,1.106a1.263,1.263,0,0,1-.97.925c-.88.293-.9.361-1.151.587-.271.226-.09.654-.113.925-.023.293.338.835.406,1.286s.519.564.858.812a17.992,17.992,0,0,1,2.3,1.828c.451.519-.045.361-.181.677s.677,1.467.677,1.467a3.336,3.336,0,0,1,.564,1.106c.068.451.384.293.609.542a5.5,5.5,0,0,0,.993.7,2.719,2.719,0,0,0,1.106.384,11.9,11.9,0,0,0,1.873-.271c.587-.181.068-.361.338-1.061.293-.7.451-.271.519-.632.068-.339.564-.587.429-.88a9.175,9.175,0,0,0-1.512-1.467c-.858-.812-.181-.632-.474-.925a27.92,27.92,0,0,1-1.467-2.843,3.872,3.872,0,0,1-.2-1.151,3.306,3.306,0,0,0-1.083-1.286,1.609,1.609,0,0,1-.5-1.061l.406-.406s-.587-.632-1.016-1.038-1.219-.338-1.805-.767C143.358,82.579,143.674,82.624,143.313,82.263Z" transform="translate(133.264 -15.194)"/>
        <path id="Path_18763" data-name="Path 18763" class="cls-5" d="M103.52,65.35Z" transform="translate(86.085 -36.193)"/>
        <path id="Path_18764" data-name="Path 18764" class="cls-5" d="M103.52,65.363c.023,0,.045-.023.068-.023C103.588,65.363,103.565,65.363,103.52,65.363Z" transform="translate(86.085 -36.205)"/>
        <path id="Path_18765" data-name="Path 18765" class="cls-5" d="M102.9,66.617a2.488,2.488,0,0,0,1.264,0c.7-.181.406-.181.474-.338a.81.81,0,0,1,.429-.384c.226-.113.339-.113.406-.316s0,0-.609-.226,0,0-.519.135l-1.106.316Z" transform="translate(85.306 -36.309)"/>
        <path id="Path_18766" data-name="Path 18766" class="cls-5" d="M103.583,65.35a.978.978,0,0,0-.113.023A.3.3,0,0,0,103.583,65.35Z" transform="translate(86.022 -36.193)"/>
        <path id="Path_18767" data-name="Path 18767" class="cls-5" d="M84.063,67.731c-.474-.135,0,0-.384.068s-.609-.226-1.128-.248c0,0-.226.181-.339.293-.113.135.113.158-.135.248-.271.09.181.181.316.293l.474.316,1.038.181a1.956,1.956,0,0,0,.632-.429c.361-.361,0,0,.113-.338A.979.979,0,0,0,84.063,67.731Z" transform="translate(59.032 -33.428)"/>
        <path id="Path_18768" data-name="Path 18768" class="cls-5" d="M83.986,69.408l.722.09.09.406a1.756,1.756,0,0,1,.406.5c.09.2.361.113.361.113s.587-.2.858-.293.9-.767.722-.9-.09-.248-.09-.406c0-.135-.181-.316-.7-.474s0,0-.293,0a1.58,1.58,0,0,1-.812-.158,1.046,1.046,0,0,0-.654-.113s-.745.293-.948.361-.451.429-.451.429l-.113.181C82.993,69.318,83.986,69.408,83.986,69.408Z" transform="translate(60.395 -32.668)"/>
        <path id="Path_18769" data-name="Path 18769" class="cls-5" d="M63.351,69.97s.542-.023,1.241-.023,0,0-.068.158c-.045.158-.271.293-.384.474s.135.158.722.677,1.061-.2,1.061-.2a8.642,8.642,0,0,1,.835-.226,2.084,2.084,0,0,0,.9-.406,1.414,1.414,0,0,0,.5-.451c.113-.181.271-.293.248-.429,0-.135.677-.271,1.241-.564s.406-.181.361-.406-.113-.2-.293-.338c-.2-.135-.654-.181-.88-.339a2.238,2.238,0,0,1-.564-.384c-.181-.181.338-.293.338-.293a3.386,3.386,0,0,0-.587-.338,5.73,5.73,0,0,0-1.219.113,7.188,7.188,0,0,0-1.2.068c-.564.09-.384.135-.654.226s-.79.271-1.128.384a.6.6,0,0,0-.406.316s.361.316.339.564-.068.2-.361.361a5.569,5.569,0,0,1-.654.226c-.339.113-.339.158-.339.158l-.2.451.767.181Z" transform="translate(34.16 -34.291)"/>
        <path id="Path_18770" data-name="Path 18770" class="cls-5" d="M64.314,68.526a9.417,9.417,0,0,0,1.173,0c.429-.045.542.158.542.158a4.817,4.817,0,0,0,.542-.226,1.8,1.8,0,0,0,.316-.248s.226.2.406.339a5.981,5.981,0,0,0,.632.361l.339-.113,1.331-.5,1.128.113.858.113a5.521,5.521,0,0,1,.97.248c.181.135.068.181-.113.338a.739.739,0,0,1-.406.181s-.181.2-.519.519,0,0,.948.158c.948.181-.181.339-.181.339l-.293.338c-.293.339.2.271.429.429.248.158.587-.181.858-.293.271-.09.79-.271.79-.271a5.847,5.847,0,0,1,1.241-.023c.564.045-.316.248-.316.248a9.392,9.392,0,0,0-1.128.7c-.609.451,0,0-.339.158s-.339.293-.5.451.745.429.745.429,1.264-.474,1.625-.632c.339-.158.271-.135.406-.339.113-.181.745-.293.722-.429s.474-.339.474-.339l.812-.316s1.219-.5,1.489-.587,1.106-.316,1.377-.406.451-.158,1.128-.429.858-.474.745-.632c-.135-.158-.361.023-.632-.045-.271-.045-.767-.135-.767-.135l-.09-.406a.462.462,0,0,1,.293-.542l-1.083-.271c-1.083-.271-.858.293-1.128.361a4.571,4.571,0,0,1-1.219.113c-.835.045,0,0-.406,0a10.512,10.512,0,0,1-1.692-.2c-.384-.135-.587,0-1.038-.045a24.556,24.556,0,0,1-2.663-.293,10.969,10.969,0,0,0-1.557-.113,2.566,2.566,0,0,1-1.015-.293,2.467,2.467,0,0,1-.654-.316c-.248-.158.226-.316-.271-.587s0,0-.248.023c-.248.045-.293.2-.5.271a4.833,4.833,0,0,1-1.083.248c-.564.09-.451-.045-.587-.135s.068-.406.068-.406l-.113-.542c-.113-.542-.474.023-.474.023l-.587.339s-.587.2-1.377.406-.316.248-.429.384.271.587.226.745a2.04,2.04,0,0,1-.474.677l.519.406C64.066,68.549,64.314,68.526,64.314,68.526Z" transform="translate(35.228 -36.864)"/>
        <path id="Path_18771" data-name="Path 18771" class="cls-5" d="M66.97,67.224c.293-.2.474-.339.474-.339l-.226-.226c-.226-.226-.722.045-.722.045s-.293.135-.7.338c-.406.181.113.339.113.339A2.721,2.721,0,0,0,66.97,67.224Z" transform="translate(38.484 -34.659)"/>
        <path id="Path_18772" data-name="Path 18772" class="cls-5" d="M86.595,55.406a4.927,4.927,0,0,0,1.106-.135l.97-.271a.741.741,0,0,0-.79-.271c-.474.158-.609.248-.835.181-.2-.068-.316-.293-.632-.181-.339.113-.948.158-.79.271.135.09.113.158.339.226C86.166,55.294,86.008,55.406,86.595,55.406Z" transform="translate(63.564 -49.583)"/>
        <path id="Path_18773" data-name="Path 18773" class="cls-5" d="M86.908,56.606a3.12,3.12,0,0,1,1.377-.068,5.056,5.056,0,0,0,1.489.135c.406,0,1.038-.09,1.58-.135a2.071,2.071,0,0,0,.812-.113c.406-.135,1.444-.587,1.444-.587-.181-.135.158-.451-.519-.361a6.011,6.011,0,0,1-1.557.068c-.677-.068-.925-.045-1.331-.113-.384-.068-1.241-.181-1.241-.316,0-.158-.068-.316,0-.474.068-.181-.677-.068.135-.384s.812-.316,1.354-.5c.519-.181.609-.248.948-.361a3.718,3.718,0,0,1,.722-.181,7.28,7.28,0,0,0,.97-.271l.2-.068L93,52.544a.828.828,0,0,0-.7-.068c-.406.135-1.6.519-1.6.519s-.587.135-1.173.339-1.015.181-1.6.384a10.165,10.165,0,0,0-1.061.339,12.88,12.88,0,0,0-1.354.5c-.316.181-.654.226-.339.451.339.226.406.361.632.519.248.158.2.271.2.429,0,.135-.113-.361,0,.135C86.141,56.628,86.434,56.628,86.908,56.606Z" transform="translate(62.867 -52.429)"/>
      </g>
      <path id="Path_18774" data-name="Path 18774" class="cls-5" d="M177.262,131.02c-.519-.339-.5-.271-.9-.564a3.726,3.726,0,0,0-1.467-.5c-.226,0-1.241-.113-1.241-.113a1.192,1.192,0,0,0-1.083-.09c-.677.226-.654.181-1.151.384a3.493,3.493,0,0,1-1.083.384,19.847,19.847,0,0,1-2.324-.068c-.316-.068-2.866.023-4.22-.135-1.354-.135-1.738-.248-2.279-.045a8.442,8.442,0,0,1-1.422.519,11.008,11.008,0,0,1-1.828.113,3.7,3.7,0,0,0-1.264.113c-.2.113-.293.339-.429.474s-.542.068-.519.384c.023.293.384.384-.158.429a2.509,2.509,0,0,1-1.331-.113,5.552,5.552,0,0,0-.609-.451l-2.054.023a2.195,2.195,0,0,1-1.467.271,8.269,8.269,0,0,0-2.257-.023c-.339.113-.812.023-.722.248.09.2.722-.09.09.2-.609.316-1.219.722-1.354.474a3.354,3.354,0,0,0-.767-.609,6.053,6.053,0,0,1-1.106.09c-.474-.023-1.083.181-1.4-.023s-1.241-.384-1.4-.542a7.117,7.117,0,0,0-.677-.5c-.113-.068-1.422-.451-1.422-.451a14.345,14.345,0,0,1-2.527-.632,16.486,16.486,0,0,1-2.347-.79,7.27,7.27,0,0,0-2.166-.429c-.722-.045-2.37.068-2.482-.023a3.537,3.537,0,0,0-1.85.023c-.722.248-.97.068-1.309.429a3.571,3.571,0,0,1-.9.632s-1.083.181-1.535.226-3.295.248-3.295.248a8.865,8.865,0,0,1-1.557-.745c-.564-.361-.316-.587-1.151-.519a12.238,12.238,0,0,1-2.324.181c-.384-.113-1.67-.429-1.67-.429a3.211,3.211,0,0,0-1.4-.2c-.745.068-1.331.226-1.625.226s-1.061-.023-1.467,0a9.762,9.762,0,0,0-1.963.09c-.474.158-.97.181-.858.5a1.007,1.007,0,0,1,.068.7,1.5,1.5,0,0,1-.79.226c-.293,0-1.038-.248-1.377-.248a7.643,7.643,0,0,0-.97.181s-.97-.339-.948.135.316.587-.271.587c-.609-.023-1.9-.113-1.9-.113a1.808,1.808,0,0,0-1.422-.677,5.383,5.383,0,0,1-1.76.158,3.148,3.148,0,0,1-.812-.293c-.2-.135-.609-.542-1.083-.384s-1.151.113-1.557.451-.858.293-.542.587c.339.293.158.158.451.722s.542.181.293.564c-.248.406-.023.316-.745.564-.722.226-.406-.226-.722.226a2.76,2.76,0,0,0-.406.722c-.135.293-.361.293-.2.474.158.2.677.677.79.858.113.158.925,1.106.812,1.467-.113.339-.88.158-1.061.226s-.406.045-1.422-.181c-1.015-.2-1.738-.5-2.054-.2s-1.061.113-.97.5a.843.843,0,0,1-.361.9,8.5,8.5,0,0,1-1.016.474,5.828,5.828,0,0,1-1.061-.248c-.88-.271-1.557-.135-2.189-.542a16.352,16.352,0,0,1-2.054-1.264c-.2-.248-1.083-.745-1.444-1.061-.361-.293-1.309-.9-1.309-.9a4.7,4.7,0,0,0-2.911-.993c-1.67.045-2.076.023-2.46.339a7.6,7.6,0,0,1-1.738.767,1.727,1.727,0,0,1-1.67-.023c-.677-.429-1.286-.7-1.286-.812-.023-.135.474.158-.023-.5a4.58,4.58,0,0,0-1.151-1.106l-.429-.474-.767-.5s-.429-.271-.226-.406c.2-.113-.068-.542-.068-.542l-.677-.564.135-.293s-1.467-.135-1.422.339c.023.451-.7.97-.925,1.331s-.654.271-.361.587c.316.316.361.361.609.632a3.059,3.059,0,0,1,.519.767c.181.361.181.5.023.632a1.14,1.14,0,0,1-.812.5c-.609.135-.812.2-.79.339s-.023.181-.361.316-.745.361-.993.2a1.61,1.61,0,0,0-.88-.338,2.61,2.61,0,0,1-.88-.045c-.181-.09-.654-.113-.767-.293-.113-.2-.2-.316-.677-.339a8.7,8.7,0,0,1-2.076-.632c-.248-.158-1.286-.5-1.264-.654.023-.135-.745-.406-.948-.79a3.534,3.534,0,0,0-.429-.677c-.068-.068-.2-.158-.519-.429a8.765,8.765,0,0,0-.812-.587l-.158-.226s-.181-.451-.293-.745a1.008,1.008,0,0,0-.5-.654,12.349,12.349,0,0,0-1.286-.7s-.993-.474-.993-.7c-.023-.226-.023-.293.135-.406a1.409,1.409,0,0,0,.339-.429c.068-.135-.045-.474-.045-.474s-.113-.113.181-.2a1.333,1.333,0,0,0,.406-.181l-.09-.542s-.271-.181-.068-.339.113-.2.316-.293.542-.316.722-.384.158-.158.316-.2a5.423,5.423,0,0,1,.722-.113,6.475,6.475,0,0,1,.7-.113c.271-.023.677-.068,1.038-.068.338.023.7.045.79-.09.068-.135,0-.339.158-.406a1.741,1.741,0,0,0,.542-.248c.045-.068.271-.226-.023-.271a5.068,5.068,0,0,0-.767-.045.9.9,0,0,1-.451-.045,3.917,3.917,0,0,0-.587-.271s-.361-.113-.2-.181a5.025,5.025,0,0,1,1.016-.361,4.078,4.078,0,0,0,.993-.226c.135-.045.135-.068.654-.226.519-.181.609-.2.88-.293a1.75,1.75,0,0,1,.79-.226,2.516,2.516,0,0,1,.451.158,2.9,2.9,0,0,0,.677.068s-.135.158.384.135c.542-.023.835-.09.858-.158a2.232,2.232,0,0,0,.023-.338l.09-.226s.925-.226,1.038-.023-.045.316.384.339.406-.023.609.113a4.351,4.351,0,0,1,.745.632c.09.113.09.271.316.406a4.047,4.047,0,0,0,.722.429c.226.09.519.293.745.384s.135-.045.745.135.474.09.609.181a4.732,4.732,0,0,0,.745.135,1.574,1.574,0,0,1,.384.135c.135.09.158.248.519.271s.384.09.564.045.654-.023.654-.2a.723.723,0,0,0-.226-.451c-.135-.135-.293-.09-.248-.339s.158-.316-.135-.587a5.569,5.569,0,0,0-.654-.542c-.384-.271-.79-.542-.9-.609-.113-.09-.993-.339-1.309-.474a10.744,10.744,0,0,1-1.354-.722,9.117,9.117,0,0,0-.9-.609c-.09-.068-.79-.429-.97-.542-.158-.113-.474-.316-.474-.316s-.293-1.219-.339-1.4a.514.514,0,0,1,.113-.564A2.164,2.164,0,0,0,61.27,115c.045-.2-.248-.429-.045-.609a3.67,3.67,0,0,0,.609-.587,4.5,4.5,0,0,0,.451-1.512.824.824,0,0,1,.316-.632.338.338,0,0,0,.068-.474,3.537,3.537,0,0,0-.79-.564c-.429-.293-.88-.361-.97-.632a4.445,4.445,0,0,0-.587-.835c-.09-.113-.384-.181-.271-.248a.584.584,0,0,1,.609.09c.293.181.2.248.542.339.316.09.564.113.564,0-.023-.113-.271-.339-.271-.451a2.057,2.057,0,0,0-.068-.361s.158-.135-.181-.361c-.338-.248-.858-.654-.858-.654s-.023-.2.068-.271a1.124,1.124,0,0,0,.519-.722,5.478,5.478,0,0,0,.023-.835c0-.248-.135-.316.135-.519s.474-.361.406-.654c-.045-.293-.384-.406-.248-.542a4.847,4.847,0,0,1,1.015-.474,1.446,1.446,0,0,0,.654-.361c.09-.068-.068-.451-.271-.587-.226-.135-.248-.045-.451-.248-.2-.226-.316-.5-.226-.654.09-.181.181-1.083.406-1.331a10.147,10.147,0,0,1,.858-.79c.316-.271.113-.293.361-.519s.587-.654.812-.812.2-.429.5-.542c.293-.135.023-.406.587-.316.587.09.745.068.767.2.045.158-.2.722-.023.858.181.113.271.271.361.316.09.068.09.181.429.135.339-.068,1.038-1.015,1.106-1.264.045-.271-.474-.384.181-.609a5.307,5.307,0,0,0,1.286-.722,5.516,5.516,0,0,1,.677-.474c.361-.248.429-.451.587-.564a.5.5,0,0,0,.271-.5c-.023-.226-.09-.384-.045-.429.045-.068-.023-.226-.068-.339-.068-.09-.248-.384-.429-.429-.158-.045-.271-.271-.338-.09-.09.181-.181.09-.181.361,0,.293-.135.361-.2.564s-.293.361-.429.542a1.476,1.476,0,0,1-.384.384c-.316.248-.564.226-.858.474-.271.226-.248.339-.519.271a2.969,2.969,0,0,0-.858-.226,6.154,6.154,0,0,1-.722-.045c-.271-.045-.609-.023-.745-.226s-.113-.113-.406-.451c-.293-.361-.474-.384-.406-.5s.045-.158.045-.339a1.093,1.093,0,0,1,0-.384c.045-.135.226-.226-.068-.339a1.258,1.258,0,0,0-.858-.158c-.316.09-.7-.09-1.2.181-.5.248-.609.113-.88.519s-.384.384-.654.677c-.271.271-.97.812-1.083.948-.113.158-.158.248-.361.519s-.519.429-.632.632c-.135.2.045.587-.361.5s-.767-.068-.451-.293c.316-.248.474-.248.654-.609.158-.339.045-.406.293-.7A6.037,6.037,0,0,0,59.487,95a3.274,3.274,0,0,1,.474-.587,3.763,3.763,0,0,0,.5-.677c.2-.248-.158-.2.135-.542a2.312,2.312,0,0,1,.88-.587,4.8,4.8,0,0,0,.812-.339c.181-.113-.293-.09.474-.316.767-.2,2.008-.542,2.008-.542a7.036,7.036,0,0,1,1.467-.767,3.554,3.554,0,0,0,1.241-.384,3.871,3.871,0,0,0,.835-.609A1.868,1.868,0,0,0,68.9,89c.226-.338.948-1.219,1.106-1.512.181-.271.113-.271.587-.5a2.8,2.8,0,0,0,.722-.406c.293-.2.542-.406.384-.542s-.812-.429-.654-.519.09-.429-.339-.429a12.316,12.316,0,0,0-1.354.023,5.52,5.52,0,0,1-.88,0s-.542-.361-.79-.316a10.25,10.25,0,0,0-1.2.158c-.564.135-1.512.2-1.805.271a9.29,9.29,0,0,1-1.061.023,10.091,10.091,0,0,1-1.377-.587c-.293-.181-.316-.5-.97-.542s-.812.045-1.2-.113-1.377-.271-1.58-.384a2.385,2.385,0,0,0-1.106-.316c-.609-.045-.519-.339-.97-.068-.474.271-.745.135-.79.587s.158.068-.023.79a2.587,2.587,0,0,1-.519,1.219c-.2.293,0,.406-.767.406a4.716,4.716,0,0,1-2.008-.158,4.029,4.029,0,0,1-.767-.745,2.855,2.855,0,0,0-.632-.158,3.753,3.753,0,0,0-1.331.113c-.293.2.068.542-.925.361-1.016-.158-.812-.293-1.4-.2a7.559,7.559,0,0,0-1.4.226,5.852,5.852,0,0,0-1.106.406c-.2.158.293.023-.406.248-.677.226-.632.045-.835.248-.2.226-.113.406-.316.542-.181.135-.045.09-.474.226s-.158-.135-.429.135c-.248.293.248,1.038.338,1.106s.248.045.451.293a1.32,1.32,0,0,1,.271.677c-.023.113-.654-.2-.406.271s.023.5.068.654a.469.469,0,0,0,.248.361,2.126,2.126,0,0,0,.9.226c.316.023.316-.158.654.068s.339.09.587.406a3.034,3.034,0,0,1,.474.632c.135.248.316.429.158.632a5.834,5.834,0,0,1-1.151.564,1.909,1.909,0,0,1-.045.767c-.113.271-.474.451-.384.587.09.113-.97-.2-.361.248.587.451,1.173.293.429.542a12.564,12.564,0,0,1-2.054.587c-.632.09-1.828.338-1.963.293-.135-.068-.7.023-.9-.113s-.812-.023-1.331-.158a4.087,4.087,0,0,0-1.354-.338c-.722-.023-1.377-.068-2.212-.09-.812-.023-1.489,0-1.647-.045a1.808,1.808,0,0,0-1.061,0c-.451.158-.338.451-.722.181-.384-.248-1.219-.429-1.083-.858s-.135-.564,0-.948c.113-.406-.2-.542-.09-.9.113-.384,0-.677.271-.9.271-.2-.135-.2.677-.7A4.341,4.341,0,0,0,32.317,90.4c.09-.09.384-.5.587-.767A1.456,1.456,0,0,0,33.174,89c.09-.339-.2-.519.023-.587s.293-.384.542-.293c.226.09.338.181.338.316.023.135-.226.271-.2.406s.045.451.135.5c.09.068.135.135.722.113h.587s.474-.09.564-.293c.09-.226-.068-.339.113-.5.2-.158.068-.316.429-.429s.384-.181.632-.135.406-.068.587-.068a4.3,4.3,0,0,0,.632-.158,1.723,1.723,0,0,0,.361-.181c.113-.068.135-.2.271-.271a1.106,1.106,0,0,0,.293-.316s-.948.023-1.151,0-.023-.09-.384-.113a4.614,4.614,0,0,0-.722.023s-.654.113-.406-.135a6.683,6.683,0,0,1,1.647-.7,9.716,9.716,0,0,0,.993-.384c.564-.226.361-.406.993-.384s.451-.068.632.023.023.158.271.158c.271-.023.181.023.429-.068.271-.09.677-.316.835-.361s1.489-.542,1.805-.677c.316-.158.632-.406.858-.519a2.393,2.393,0,0,1,.948-.339,5.059,5.059,0,0,1,.745.135,3.89,3.89,0,0,0,.9.158c.384.023,1.106-.023,1.331-.023a9.987,9.987,0,0,0,1.377-.2,3.592,3.592,0,0,1,.745-.2c.293,0,.654,0,.88-.023a9.525,9.525,0,0,0,1.2-.226,3.563,3.563,0,0,0,.316-.361v-.519a3.964,3.964,0,0,0-.609,0c-.451,0-1.173.068-1.173.068a2.892,2.892,0,0,1-.677-.158c-.045-.045-.451-.09,0-.158.429-.068.429-.113.654-.09s.79-.135.993-.135,1.106-.135,1.106-.135.248-.023.361-.045a7.7,7.7,0,0,0,1.061-.767c.5-.384.361-.316.564-.654.181-.339.158-.474.429-.632.271-.135.722-.316.97-.474s.722-.5.745-.677-.226-.226.023-.474.181-.361.474-.677a1.738,1.738,0,0,0,.406-.609c.068-.113.248-.293-.023-.474s-.88-.5-.88-.5-.948-.158-.745-.677.429-.609.361-.722c-.045-.135,0-.158-.2-.226s-.248-.2-.587-.113a3.06,3.06,0,0,1-.97.113c-.271-.045-.5.045-.587-.2-.113-.226-.248-.361-.181-.406.068-.068.226-.113.135-.339s-.135-.316-.135-.316l-.361-.248a4.253,4.253,0,0,0-.925.158,2.338,2.338,0,0,1-.654.248,9.587,9.587,0,0,1-1.173.09c-.158.023-.226-.135-.632.068-.429.226-.564.384-.609.474s.135.045-.7.384a14.214,14.214,0,0,0-1.489.542c-.542.293-.7.361-1.083.587s-.632.068-.609.339c.023.293.248.316,0,.406a5.333,5.333,0,0,1-.722.2,1.2,1.2,0,0,0-.722.158,3.888,3.888,0,0,0-.767.451c-.09.135-.181.181-.406.293a21.116,21.116,0,0,1-2.437.677c-.858.181-1.286.293-1.286.293s-1.015.361-.88.158c.158-.2.113-.293-.023-.293a.935.935,0,0,0-.7.09,4.34,4.34,0,0,0-.925.361c-.474.271-.745.316-1.2.542a4.493,4.493,0,0,0-.654.316,7.346,7.346,0,0,1-1.422.429,1.874,1.874,0,0,0-.564.474c-.158.2-.181.045-.339.339s-.068.339-.271.564c-.181.226-.406.361-.474.293-.068-.045-.5-.2-.5-.2s-.158-.068-.519.181a4.822,4.822,0,0,1-.858.474c-.271.135-.316.158-.519.248a4.337,4.337,0,0,1-1.354.361c-.113-.09-.7-.226-.316-.451.406-.226.384-.361.316-.5-.045-.135-.293-.293-.248-.361s-.293-.226-.293-.226-.519-.135-.722.023a1.056,1.056,0,0,0-.293.361s.135-.068-.338.339-.519.338-.722.542a3.407,3.407,0,0,1-.835.384l-.677.09s-.451.429-.835.835.293.226-.993.677-1.219.406-1.738.587l-1.106.384s-.451.158-.858.271c-.384.135-.451.158-1.015.339a6.038,6.038,0,0,1-1.015.181c-.542.09-.745.135-.9.316-.135.181-.474.068-.654.474s-.316.2-.316.654c.023.451.406.361-.023.654a5.537,5.537,0,0,0-.609.5c-.158.158-.248.113-.654.226-.429.113-.519.09-.722.338s-.316.293-.429.519a4.522,4.522,0,0,0-.226.587c-.068.226-.7.5-.812.654s-.2.316-.2.316-.5,2.573-.587,2.843c-.09.248-.5.068-.406.451s-.316.564-.677.812c-.361.226-.564.2-.542.519a3.717,3.717,0,0,1-.406,1.873c-.316.384-.88.677-.858,1.016s-.158.226-.158.632-.767.925-.767.925-.609.587-.677.023c-.023-.113-.338-.181-.835-.226a39.357,39.357,0,0,0-.023,9.5,2.565,2.565,0,0,1,.858-.271c.812-.045.7-.587,1.557-.226s.564-.113,1.738.361,1.241.519,1.038.948a4.955,4.955,0,0,0-.339.812,1.115,1.115,0,0,0,.519.632c.451.293.338.023.519,0,.181-.045-.023-.226.316-.181s.384.023.519.226.045.158.045.406c.023.248-.135.271.068.474a4.611,4.611,0,0,0,.654.542c.338.248.542.406.7.542.135.113.226.316.361.429s-.248.271-.316.339c-.045.068-.045.158.068.293a.736.736,0,0,0,.271.248,2.164,2.164,0,0,0,.632.339c.226.045.542.023.677.068.135.068-.068.271.406.2.5-.068.722.023.7-.113a.539.539,0,0,0-.158-.293c-.09-.09-.451-.135-.293-.271s.023-.384.429-.293a2.469,2.469,0,0,1,.609.226,1.656,1.656,0,0,0,.293.226c.135.09.384.158.361.361s.09,0-.023.2a1.422,1.422,0,0,1-.858.429c-.2,0-.564-.158-.632.068a4.755,4.755,0,0,0-.113.5s1.6,2.054,1.9,2.369.632.316.745.9c.113.609.023.519.338.9a6.478,6.478,0,0,1,.609,1.061c.135.181.564,1.354.948,1.6s4.039,2.731,4.671,3.159a5.675,5.675,0,0,0,2.121,1.083c.293-.045.09-.316.609-.135a6.227,6.227,0,0,0,.7.226c.181.068,2.3,1.4,2.911,1.805s.9.858,1.309,1.038a3.238,3.238,0,0,0,.993.2s.858.2,1.015.451.045.2.339.429c.293.2.474.181.429.316s-.564-.045-.045.271a2.742,2.742,0,0,0,.812.429,1.741,1.741,0,0,1,.632.135,6.045,6.045,0,0,1,.767.293c.338.181.564.361.858.519a2.612,2.612,0,0,0,.79.248,7.44,7.44,0,0,0,.88.045s.384-.023.384-.09-.045-.09-.406-.316-.722-.158-.993-.451a1.254,1.254,0,0,1-.316-.451c-.113-.2-.361-.361-1.128-.745a9.035,9.035,0,0,0-1.2-.542,9.2,9.2,0,0,0-.948-.474,4.351,4.351,0,0,1-.745-.429,7.271,7.271,0,0,1-1.038-.474c-.181-.181-.338-.406-.451-.519-.113-.135-.338-.316-.474-.5-.113-.158-.429-.316-.271-.339a2.951,2.951,0,0,1,1.038.271,5.637,5.637,0,0,1,.745.384c.158.135.023.09.384.339s1.67.812,1.941.948.248.316.79.474.79.045,1.083.158a4.14,4.14,0,0,1,.812.339c.293.181,1.805.97,2.212,1.151a3.449,3.449,0,0,0,1.151.474c.474.09.542-.068.835.113.293.158.338.293.7.384.361.068.858.023.97.068a4.085,4.085,0,0,1,1.264.474c.429.271.429.384.812.632s.2.158.632.406a14.933,14.933,0,0,1,1.6,1.173,3.942,3.942,0,0,0,1.106.7,11.937,11.937,0,0,1,1.828.226,6.991,6.991,0,0,0,1.038.339,6.624,6.624,0,0,0,1.061.113c.2.023.271-.045.609-.023s.858,0,.858,0,2.347.2,2.843.2a4.462,4.462,0,0,1,1.219-.023,4.42,4.42,0,0,0,1.083.023s1.106-.023,1.264-.068,1.151.09.835-.2l-.316-.293a.526.526,0,0,1,.293-.293c.226-.068.181-.023.113-.271s.135-.429.451-.361c.316.09.677.158.79.2a6.884,6.884,0,0,0,.858.2,5.605,5.605,0,0,1,.745.09,17.655,17.655,0,0,1,2.008.384,3.581,3.581,0,0,0,.88.293c.248,0,.677-.068.9-.045s.835-.361,1.331-.271a4.664,4.664,0,0,0,1.106.023,4.758,4.758,0,0,0,.474-.068,1.48,1.48,0,0,0,.519-.113c.2-.068.451-.158.632-.2a2.482,2.482,0,0,1,.97-.068c.068.068.767.316,1.128.5a3.2,3.2,0,0,0,.858.361c.271.068.654.09.858.158a4.618,4.618,0,0,0,.7.113s.9.474,1.2.654a6.205,6.205,0,0,0,1.309.361l.519-.068s-.068-.135.248-.09.9.2,1.467.338a3.841,3.841,0,0,0,.97.158,5.265,5.265,0,0,1,.858,0,7.061,7.061,0,0,0,1.354.09,1.129,1.129,0,0,1,.587-.135c.226.045.226.023.406.068.181.068.835-.113.97-.068s.677.158.677.158a2.5,2.5,0,0,1,.654-.045.505.505,0,0,0,.406-.023c.135-.068.384-.181.068-.271a3.91,3.91,0,0,1-.767-.2c-.113-.068-.293-.271-.384-.338s-.384.045-.361-.135-.135-.271-.068-.316.045-.045.135-.181c.09-.158.045-.248.045-.384-.023-.135-.158-.226-.023-.226s.722.181.858.2-.113-.135.542.023a1.776,1.776,0,0,1,.858.384,6.179,6.179,0,0,1,.654.293,5.365,5.365,0,0,0,1.151.271,7.838,7.838,0,0,1,1.038.113,3.08,3.08,0,0,1,.835.226,6.82,6.82,0,0,0,.722.361s3.611,1.625,3.362,1.986c-.248.384.113.609.542.9a.528.528,0,0,1,.2.677,11.034,11.034,0,0,0,.474,1.354c.113.135.113.135.248.293.158.158-.226.361-.113.542s.023.135.158.271a8.151,8.151,0,0,0,1.2,1.2c.609.429,1.422.97,1.67,1.151a.915.915,0,0,0,.7.2c.293-.023.609,0,.677.09a.7.7,0,0,0,.519.226c.2-.023.271-.068.451.045.158.113.271.181.271.316-.023.135-.135.226-.158.316-.045.113-.09-.113-.045.113a1.942,1.942,0,0,0,.158.564c.09.2.068.2.135.293a1.882,1.882,0,0,0,.474.361,4.255,4.255,0,0,0,.429.226,5.7,5.7,0,0,1,1.4.293c.316.181.2.226.632.384a2.953,2.953,0,0,0,.88.158c.158.045,1.422.113,1.693.181a7.246,7.246,0,0,1,.745.271,8.245,8.245,0,0,0,1.083.135,3.689,3.689,0,0,1,.835.2,4.613,4.613,0,0,0,.722.316s4.92,1.354,5.551,1.6a2.686,2.686,0,0,0,1.377.384l.858.068s1.016.339,1.354.429.248,0,.654.09a3.567,3.567,0,0,1,.654.135,4.054,4.054,0,0,1,.406.226c.158.113.429.113.5.181a16.243,16.243,0,0,0,2.866.677c.993.09,1.873.045,2.054.09a25.579,25.579,0,0,1,2.64-.023c.248.135.5.045.812.09l.316.068s1.309.113,1.76.181a3.787,3.787,0,0,0,1.015.09c.451-.023,1.016-.113,1.016-.113a1.3,1.3,0,0,1,.587.135,1.965,1.965,0,0,0,.654.135,2.509,2.509,0,0,1,.677-.023,7.9,7.9,0,0,1,1.625.564c.045.09-.135-.023.248.226s.474.158.7.316a3.631,3.631,0,0,0,.677.474c.271.113.654.135.858.248.226.113.361.181.587.316s.722.338.925.474a4.267,4.267,0,0,0,.632.384,10.036,10.036,0,0,1,1.422.587,13.925,13.925,0,0,0,1.557.925c.2.045,2.279.767,2.482.9a5.019,5.019,0,0,0,.587.429c.361.226.5.316.632.406a22.724,22.724,0,0,1,2.324,1.2.659.659,0,0,0,.587.384c.338.023-.045-.113.338.023.361.158.5.181.609.316s-.09-.271.113.135a1.218,1.218,0,0,0,.564.587c.135.045.316.068.722.158a14.486,14.486,0,0,1,1.941.767,6.888,6.888,0,0,0,1.151.542,1.468,1.468,0,0,1,.722.226,8.007,8.007,0,0,1,.948.654c.158.09.474.316.542.339.068.045,1.422.948,1.67,1.128.248.158-.451.2-.248.384a1.309,1.309,0,0,0,.654.451c.361.113.97.023,1.2.09a2.825,2.825,0,0,1,.519.248c.09.068,3.024,1.083,3.5,1.354a9.65,9.65,0,0,1,.97.609,2.437,2.437,0,0,0,.745.406,9.563,9.563,0,0,1,1.918.564,3.386,3.386,0,0,0,1.106.384c.361.135.5.135.654.271a1.489,1.489,0,0,1,.248.271s-.429-.113-.023.135c.406.271.181.18.542.316a1.163,1.163,0,0,0,.9.135l.361-.09s.158-.2.654.045-.023.181.248.406c.248.226.158.271.519.474.384.181.654.339.812.406.135.068,3.25.609,3.678.7a2.633,2.633,0,0,0,1.106.226,6.9,6.9,0,0,0,1.241-.023,8.287,8.287,0,0,1,1.264-.158,2.724,2.724,0,0,0,.654.045.743.743,0,0,1,.7-.135c.338.158-.023.293-.023.293s-.339,0-.09.113a2,2,0,0,0,.79.09,20.375,20.375,0,0,1,2.1-.068,10.4,10.4,0,0,0,1.151.023,6.282,6.282,0,0,0,.925-.045l1.106-.135a8.773,8.773,0,0,0,2.1-.293,9.487,9.487,0,0,1,1.241-.5s.88.023.835-.135-.045-.339.587-.361c.609-.023,1.038,0,.925-.135s.045-.271-.271-.316a4.309,4.309,0,0,0-.925-.045c-.293.045-1.151-.023-1.444-.023-.271,0-.564,0-1.173.023s-.564.316-1.557.023a11.832,11.832,0,0,0-1.4-.429,21.069,21.069,0,0,1-2.257-.181,9.876,9.876,0,0,0-1.512-.293l.406-.226a2.722,2.722,0,0,0-.632-.722s-.045-.158.181-.316.858-.361.181-.5a11.1,11.1,0,0,0-1.151-.2c-1.354-.2-.835-.429-1.354-.2a8.038,8.038,0,0,1-1.015.316,3.16,3.16,0,0,1-1.422-.068c-.429-.226-.812-.406-.812-.406l.451-.451s.429.023.5-.113c.045-.158-.226.023.045-.158.293-.18.745-.2.745-.384a.5.5,0,0,0-.406-.564c-.406-.135-1.219-.293-1.467-.406a2.722,2.722,0,0,0-.948-.429c-.858-.248-1.58-.248-1.76-.339-.181-.113-.9-.293-.587-.384a3.576,3.576,0,0,1,1.016-.068,5.432,5.432,0,0,0,.767-.181c.248-.09.5.09.812-.045.293-.135.248.226.293-.135l.045-.339s-.226-.519-.609-.587a4.266,4.266,0,0,1-.812-.2c-.406-.135-.79-.135-.88-.248-.09-.09-.181-.293.339-.384a7.908,7.908,0,0,0,1.309-.248,4.308,4.308,0,0,1,1.038-.338c.564-.09.835,0,.993-.181a2.1,2.1,0,0,1,.677-.5c.226-.068.384-.248.316-.384-.068-.158-.226-.2-.158-.293a.407.407,0,0,0-.023-.519c-.181-.2-.045-.587-.88-.677a11.318,11.318,0,0,1-1.309-.181c-.474-.068-1.918-.248-2.234-.339-.293-.09-1.331-.226-1.331-.226s-1.038-.5-.542-.451,1.173.226,1.625.271a6.216,6.216,0,0,0,1.128,0,14.6,14.6,0,0,1,1.489.135,2.082,2.082,0,0,0,1.128,0c.293-.135.384-.451.5-.654s-.023-.293.451-.451.451-.88.429-1.038a.585.585,0,0,0-.316-.632c-.406-.271-.677-.474-.677-.474a2.781,2.781,0,0,0-.271-.835c-.2-.361-.158-.384-.429-.564s-.722-.293-.632-.429-.158-.181.226-.271a5.657,5.657,0,0,1,1.106-.068,1.471,1.471,0,0,0,.7-.09c.226-.135.226-.271-.248-.587s-.948-.113-.79-.587a3.332,3.332,0,0,0,.135-.745c.045-.113.09-.271-.2-.474-.316-.2-1.061-.7-1.58-.993a10.814,10.814,0,0,1-1.489-.88c-.2-.226-.158-.587-.293-.835-.113-.271-.564-.316-.474-.542s-.406-.271.361-.519.271-.429.858-.835a6.5,6.5,0,0,1,1.512-.79c.564-.248.271-.271.429-.474a3.5,3.5,0,0,1,1.264-.632,7.226,7.226,0,0,0,.88-.226.6.6,0,0,0,.361-.654c0-.226.068-.519.181-.587s.226-.181.158-.316-.97-.722-1.038-.835c-.09-.113-.045-.361-.09-.722a2.3,2.3,0,0,0-.248-.722c-.045-.113.248-.09-.2-.384s-.993-.654-.993-.654-.812-.542-.79-.722-.113-.406-.542-.745-1.715-1.331-2.234-1.647a5.721,5.721,0,0,0-1.038-.542,3.793,3.793,0,0,1-1.106-.451,4.138,4.138,0,0,1-.632-.609.363.363,0,0,1,.135-.474c.113-.113-.023-.293-.045-.5,0-.2-.316-.406-.158-.542.181-.113.271-.293.2-.361a2.716,2.716,0,0,1-.271-.519c-.068-.181-.361-.519-.406-.654s-.113-.293.023-.406c.113-.113.023-.181.181-.5s-.068-.9.045-1.061-.2-.609-.2-.609a.42.42,0,0,0,.045-.632c-.293-.339-.023-.293-.79-.767A11.92,11.92,0,0,1,177.262,131.02Z" transform="translate(-5.727 -25.476)"/>
      <path id="Path_18775" data-name="Path 18775" class="cls-5" d="M132.4,51.74c-.023.045-.045.068-.068.113-.113.226.09.271.09.271a1.794,1.794,0,0,0-.181.654c0,.226,0,0-.812.158s.023.293.023.293.5.09,1.038.2.406.226.406.226a3.672,3.672,0,0,1-.858.181,1.612,1.612,0,0,1-.7-.181c-.316-.113-.406.135-.654.248a4.1,4.1,0,0,1-.451.158,4.747,4.747,0,0,0-.79.316c-.316.135.316.113.316.113l.79.248s.722-.045,1.625-.135.812.158.812.158.88.113.925.248-.248.181-.587.316a4.918,4.918,0,0,1-1.061.248,1.557,1.557,0,0,1-.9-.068,22.819,22.819,0,0,0-2.415-.519,23.463,23.463,0,0,1-2.8-.2c-.226-.113-.88-.158-1.535-.316a2.047,2.047,0,0,0-1.264.09,7.019,7.019,0,0,0-.7.338s1.083.339,1.354.429,1.038.293,1.151.361-.2.113-.5.158c-.293.068-.767.023-.9.09-.158.045-1.264.248-1.647.293a3.885,3.885,0,0,1-.745-.045,1.469,1.469,0,0,1-.632-.181,3.868,3.868,0,0,0-1.038-.158.881.881,0,0,0-.835.384c-.135.158.361.2.429.293a10.39,10.39,0,0,0,1.422.384s-2.008.587-2.5.722a9.029,9.029,0,0,0-1.083.429,1.319,1.319,0,0,1-.835-.113,3.123,3.123,0,0,0-.925.158,3.19,3.19,0,0,1-.925.384,5.964,5.964,0,0,0-1.128.293,7.187,7.187,0,0,0-1.354.858c-.293.2,0,0-.2.068s-.339.068-.542.135a1.4,1.4,0,0,1-.835-.135c-.226-.113,0,0-.925-.135s-.609.384-.79.519.5.248.587.316a6.03,6.03,0,0,0,.812.2,11.419,11.419,0,0,1-1.286.632c-.293.09-.5.158-.745.248s-.181.135-.519.248c-.361.113-.068.2-.113.339s-.361.316-.361.316l.5.248c.226.113-.023.2-.09.293a3.094,3.094,0,0,1-.812.271l-.316.045c-.316.023-.361.045-.587.045a4.1,4.1,0,0,0-.97.248c-.248.09.2.181.2.181a8.934,8.934,0,0,1,1.67.135c.812.158-.068.316-.361.406a10.276,10.276,0,0,1-1.512.181c-.361,0-.858.023-1.241,0s-.835-.023-1.264-.068a8.232,8.232,0,0,1-1.061-.226,8.474,8.474,0,0,1-1.557-.474c-.429-.2-.429.068-.429.068l-.88.113c-.181.023-1.873.068-2.234.068s-.226-.248-.226-.248.812-.158,1.173-.2a9.7,9.7,0,0,0,1.715-.248c1.331-.248,1.061-.135,1.377-.113a13.2,13.2,0,0,0,1.4-.248,20.508,20.508,0,0,0,2.369-.5c1.061-.293.248-.09.5-.271.248-.2.632-.293.632-.429,0-.158-.068-.2-.2-.339s-.5.023-.858.023a2.873,2.873,0,0,1-.564-.045s-.97.09-1.309.113a.791.791,0,0,0-.542.181s-2.008.045-2.347.045c-.361,0-.609.09-1.061.135s-.519.113-.519.113a8.3,8.3,0,0,1-1.535.2,8.978,8.978,0,0,0-1.557.158c-.293.068-3.972.722-4.152.767-.181.023-.835.226-1.264.293a6.931,6.931,0,0,1-1.2.135c-.451,0-.181-.135-.384-.429s-.361,0-.654.113-2.64.519-2.64.519l-.158.045c-.158.045-.384.2-.519.248-.158.045-.722.271-1.106.406-.406.135-.451.158-.7.226-.248.09-.88-.045-1.377.181-.519.2-.226.248-.068.361a20.084,20.084,0,0,1-2.979,1.106,5.72,5.72,0,0,0-.97.361c-.2.068-.7.226-1.6.564s-.181.135-.181.248-.835.745-.835.745a5.127,5.127,0,0,0-.858.226c-.451.158-.226.135-.519.339l.767-.023.406-.023a.794.794,0,0,1-.384.339c-.271.135-.2.316-.632.564s-.023.338-.226.564.068.2.09.677.271.519.135.79-.7,1.038-.7,1.038a1.155,1.155,0,0,1-.248.587,5.07,5.07,0,0,1-1.151.519c-.406.181-.474.384-.925.677s-.519.451-1.038.745c-.542.293-.451.406-.79.677-.361.248.2.339.406.88.226.542.7.316.835.406a7.428,7.428,0,0,0,1.489.135,2.989,2.989,0,0,1,1.038.316,6.744,6.744,0,0,1,.564.406,2.4,2.4,0,0,0,.632.068l1.128.271s.587-.158,2.663-.745.677-.79.677-.79l.113-.181c.09-.181.226-.406.226-.406a5.579,5.579,0,0,1,.9-.587,2.69,2.69,0,0,1,1.038-.09s1.58.135,1.873.181a2.4,2.4,0,0,1,.632.226s.677-.045,1.083-.068a2.044,2.044,0,0,1,1.173.338c.451.248.97.158,1.2.384.226.2,0,0,.068.2s-.158.2-.451.406,0,0-.113.181.023.2.135.384,0,0,.158.181a4.091,4.091,0,0,0,1.083.339s.451-.181.519-.5,0,0-.135-.113c-.135-.09.068-.2-.09-.519s0,0,.113-.068a1.7,1.7,0,0,1,.858-.068,1.374,1.374,0,0,0,.767-.181c.248-.09.316-.135.339-.361.045-.226.271-.158.2-.316s.722-.316.745-.5.2-.113.316-.181c.113-.09,1.106-.519,1.128-.7s-.316-.113-.474-.181-.609-.135-1.038-.316a1.218,1.218,0,0,1-.722-.993c.045-.271,0,0,.113-.181s.519-.338.654-.406c.158-.045,0-.248-.113-.338-.113-.068-.925-.384-.925-.384l-.451.045L86.9,72c-1.128-.023-.406.135-.7.226a5.359,5.359,0,0,1-1.377.068c-.429-.045-.677-.474-1.083-.835-.406-.384-.113-.429-.181-.632s.316-.135.5-.406c.181-.293.068-.316.135-.519s.654-.2.97-.384.248-.248.158-.451c-.113-.226-.09-.271-.339-.429-.248-.181-.2-.339-.384-.564s0,0,.767-.451a4.636,4.636,0,0,1,1.309-.474c.339-.113.361,0,.361,0s1.038-.09,1.241-.113c.181-.023,1.128.068,1.128.068l-.2.2c-.2.226,0,0,.09.226.113.226,0,0-.068.2a3.415,3.415,0,0,1-.451.654,2.114,2.114,0,0,1-.406.429c-.158.09-.226.293-.361.406s.158.2.248.316a2.261,2.261,0,0,0,.564.293s.812.113,1.331.226c.542.113.474.316.722.5s.361-.045,1.128-.09a8.634,8.634,0,0,1,1.6.045,2.722,2.722,0,0,0,1.354-.226,1.824,1.824,0,0,0,.79-.361,5.324,5.324,0,0,1,1.061-.5,12.8,12.8,0,0,1,1.489-.5,2.659,2.659,0,0,0,.948-.429,3.683,3.683,0,0,1,.925-.226,1.406,1.406,0,0,1,.722.09s.316-.023,1.2-.181.248.181.248.181a5.406,5.406,0,0,0-.9.564c-.429.316,0,0-.158.09a4.431,4.431,0,0,1-.654.226c-.2.068-.474.09-.925.181-.474.09-.2.113-.361.158-.135.045-1.444.316-1.828.451-.406.135,0,0-.451.158a1.843,1.843,0,0,0-.564.271c-.248.135.271.339.271.339s.451.2.812.316,0,0,.722-.045c.722-.068.429.045.429.045a7.1,7.1,0,0,1,1.422.226c.09.113-.068.429-.068.429a1.085,1.085,0,0,1-.519.361.785.785,0,0,1-.451,0,5.746,5.746,0,0,1-.925.023A4.611,4.611,0,0,1,97.238,72c-.474-.181-.7.09-.88.135-.2.068.248.835.248.835s.451.474.632.632c.158.158.7-.023.97-.045a4.134,4.134,0,0,1,1.286.5c.135.09-.316.135-.948.316s-.5.271-.609.339,0,.361-.135.406a7.4,7.4,0,0,1-.722.2,1.772,1.772,0,0,1-.97,0,4.177,4.177,0,0,0-1.309.09c-.316.023-.361.271-.564.361-.226.113-.632.429-.609.745s-1.512.97-1.715.993c-.181.023-.474.09-.474.09a10.808,10.808,0,0,1-1.444-.023,2.7,2.7,0,0,0-.858.068c-.316.023-.113.181-.181.271s.023.361-.113.474a4.206,4.206,0,0,1-1.015.406,4.013,4.013,0,0,1-1.061.181c-.609.09-.384.2-.564.271a3.139,3.139,0,0,1-1.286.135c-.542-.068-.609-.113-.79-.248s-.5-.09-.609-.158a5.556,5.556,0,0,0-.587-.316s.361,0,.7-.023a2.626,2.626,0,0,0,.858-.023c.248-.09.339-.113.271-.271s-.564-.181-.654-.248a3.991,3.991,0,0,0-.993-.068l-.429-.135.2-.2c.2-.226-.316-.226-.316-.226a5.052,5.052,0,0,1-1.106-.248,1.705,1.705,0,0,0-.7-.226,1.854,1.854,0,0,0-.835.271.33.33,0,0,1-.2.361.33.33,0,0,0-.2.361l-.248.5a5.954,5.954,0,0,0,.722.587,14.686,14.686,0,0,0,2.166.384,7.628,7.628,0,0,1,1.061.519c.587.338-.248.09-.361.158a1.961,1.961,0,0,1-1.151.677,5.033,5.033,0,0,0-1.354.339c-.406.135.045.519.09.632a6.985,6.985,0,0,0,.948.451,1,1,0,0,1-.135.519,2.054,2.054,0,0,1-.812.338,2.888,2.888,0,0,0-.406.181,2.837,2.837,0,0,1-.7.993c-.338.226-.587.564-.925.767-.339.226,0,.406-.023.7s-.045.271-.406.542c-.339.248-.474.384-.542.587s-1.083.609-1.241.654a1.765,1.765,0,0,1-.745.023c-.429-.045,0,0-.519-.045s-.271.068-.474.226c0,0,.564.429.7.519s.09.248-.158.5c-.248.226,0,0-.2.068a4.452,4.452,0,0,1-1.173.2,3.9,3.9,0,0,0-1.015.271,1.656,1.656,0,0,1-.745.09,2.523,2.523,0,0,0-1.106.406c-.2.113.542.474.542.474s.519,0,1.444.045c.925.023.79.135.79.135s.88-.158,1.377-.316a8.559,8.559,0,0,1,.9-.181A6.007,6.007,0,0,1,77,89.968s1.038.158,1.738.181,1.331.068,1.331.068l.812.564s.812.812.88.9.722.745.722.745.135.384-.158.5c-.293.09-1.151.271-1.647.429s-.5.2-1.038.339c-.519.135-.993.316-1.6.5-.632.181-1.264.384-1.918.542a7.719,7.719,0,0,1-1.083.248,2.913,2.913,0,0,1-.9-.023,4.955,4.955,0,0,0-1.286.2c-.248.09-.135.271-.339.474s-.226.429-.542.564-.226.181-.339.361.271.384.429.542.745.158.745.158l.7.023a6.377,6.377,0,0,1,1.173.5,6.477,6.477,0,0,1,.79.542c.2.181.722.542.767.97.023.429.023.316-.068.5-.113.181.2.293.293.406a2.057,2.057,0,0,0,.429.293s.993.135,1.422.181.474.158.564.248a5.4,5.4,0,0,1,.812.564c.406.339.767.068,1.083.045a4.9,4.9,0,0,0,.993-.248c.384-.135.677-.226,1.038-.338a5.233,5.233,0,0,1,1.128-.068,3.681,3.681,0,0,1,.812.158,1.774,1.774,0,0,1,.5.2c.226.113.587-.2.587-.2a11.167,11.167,0,0,0,1.264-.474.9.9,0,0,0,.406-.564c.045-.158.361-.271.519-.5s.745-.248.745-.248,1.557-.429,1.963-.609a5.337,5.337,0,0,0,1.038-.451,4.35,4.35,0,0,0,.451-.542c.181-.271.339-.248.429-.384s.045-.361.068-.587a4.652,4.652,0,0,0,.068-.587c0-.248-.226-.361-.361-.451a7.257,7.257,0,0,0-.88-.248c-.429-.135,0,0-.406-.361a2.8,2.8,0,0,1-.632-.722,1.434,1.434,0,0,1,.135-.5c.113-.338.293-.248.5-.451a.347.347,0,0,0,.045-.519c-.113-.181.654-.5.745-.632s.654-.248.79-.519c.135-.248,0,0-.135-.135a1.551,1.551,0,0,0-.451-.316c-.271-.135-.384-.158-.632-.293-.271-.135-.226-.2-.226-.361a1.392,1.392,0,0,1,.158-.451l.587-.2c.587-.2.632-.158.632-.158s.542-.068,1.647-.226.948-.316.948-.316.361-.158.361-.271a.947.947,0,0,0-.045-.474c-.09-.271.632-.226.835-.384.181-.181.429-.474.406-.677s.745-.271,1.151-.406a8.294,8.294,0,0,1,1.512-.068c.451-.045,2.008-.023,2.008-.023a16.317,16.317,0,0,1,1.76.248,7.174,7.174,0,0,0,1.647.135c.248.023,1.331.068,1.625.068s1.715.068,1.715.068,2.257-.2,3.2-.316a5.846,5.846,0,0,1,1.173,0,13.609,13.609,0,0,1,1.85.068,12.689,12.689,0,0,1,1.693.293c.226.113.519.406.519.5a.493.493,0,0,1-.113.316,1.2,1.2,0,0,1-.609.5,3.916,3.916,0,0,1-.812.293,1.663,1.663,0,0,1-.609.135,5.212,5.212,0,0,0-1.128.226c-.5.158-.045.361-.045.361s.812.406.925.474a4.388,4.388,0,0,0,1.219,0c.226-.045.677-.045,1.4-.135.722-.113.474.271.587.339s1.286-.316,1.377-.654c.068-.338-.113-.181-.113-.181a6.72,6.72,0,0,1-.722-.564c-.226-.226,0,0,.045-.226s.384-.2.587-.316a.751.751,0,0,0,.293-.316s-.451-.564-.384-.654c.09-.09.135-.158-.068-.293s-.384-.271-.564-.384a3.631,3.631,0,0,0-.88-.2,1.775,1.775,0,0,1-.835-.339c-.316-.226.293-.09.519-.135s.722-.045,1.173-.135c.474-.09.587-.293.587-.293l.113-.226c.113-.226-.632-.181-.948-.271a7.806,7.806,0,0,1-2.843.293,7.711,7.711,0,0,0-3.137.248l-.745.09a10.5,10.5,0,0,1-2.64-.429c-1.151-.2,0,0-1.106-.068a21.159,21.159,0,0,1-2.64-.226,5.421,5.421,0,0,1-2.166-.587c-.7-.271.181-.5.181-.5l.722-.09s1.264-.135,1.941-.293c.654-.135.587-.2.587-.2l.9-.09s1.76.2,2.753.384a5.966,5.966,0,0,0,2.144-.135,17.4,17.4,0,0,0,2.054-.406,13.764,13.764,0,0,1,3.2.316c.474.135.564.384.925.632a14.65,14.65,0,0,0,2.64.429c.406.09,1.015.293,1.512.429a22.693,22.693,0,0,0,2.708.248,9.729,9.729,0,0,1,2.257.564c.609.226.564.384,1.106.767A2,2,0,0,0,130,86.448c.654-.361,0,0-.5-.542-.5-.564,0,0,.045-.384s-.5-.339-.7-.5.361-.271-.5-.542a10.18,10.18,0,0,1-1.625-.113,1.726,1.726,0,0,1-1.377-1.061c-.226-.361,0,0,.7-.519s0,0,.226-.158a9,9,0,0,1,1.444-.406,15.223,15.223,0,0,1,2.076.023l1.377.542,1.692.158s.564.384.835.587.767.023,1.2.023a7.469,7.469,0,0,1,1.873.384,14.136,14.136,0,0,0,2.55-.045,7.163,7.163,0,0,0,1.9-.406,2.856,2.856,0,0,0,.993-.609c.361-.271,1.219.023,1.219.023l2.076.023a8.254,8.254,0,0,0,1.738-.7c.767-.474,0,0,.248-.451.248-.429.677-.429,1.286-.632.587-.2.632.429.632.429s1.828.474,2.573.587.767.542,1.106.993a7.659,7.659,0,0,0,1.467,1.219c.474.339,1.422,1.106,1.331,1.331-.09.248-.519.451-1.038.7a6.079,6.079,0,0,1-1.444.406,2.694,2.694,0,0,1-1.467-.023c-.9-.113-.587.2-.812.339a5.247,5.247,0,0,0-.7.722,8.7,8.7,0,0,1-2.731.632s-2.956.474-4.107.564a6.275,6.275,0,0,0-1.625.384,4.19,4.19,0,0,1-1.625.181,15.782,15.782,0,0,1-2.64-.135c-.97-.181-1.625.384-2.3.609a2.443,2.443,0,0,0-1.377.97c-.339.474.632.429.632.429a10.706,10.706,0,0,1,1.489.429c.2.135.429.293.406.587s-.677.429-.451.79c.226.339-.745.587-.745.587l-2.279-.181s-3.024.429-4.152.429a5.356,5.356,0,0,1-1.038,0,7.374,7.374,0,0,1-1.489-.226,3.47,3.47,0,0,0-.97-.181l-2.979.338c-.993.113-1.512.361-2.6.429-1.061.068,0,0-.316-.113a16.433,16.433,0,0,0-2.482.09,4.014,4.014,0,0,1-1.647-.745c-.361-.451,0,0,.09-.248.09-.226-.632-.429-.835-.564-.2-.158-1.015-.09-1.354-.339-.361-.248-.519-.248-.812-.451a8.71,8.71,0,0,0-1.828-.248c-.587-.09-.948.451-1.557.745a4.226,4.226,0,0,1-1.557.226l-1.963.654-.248.429c-.226.429-.542.316-.88.5a4.354,4.354,0,0,1-1.512.361c-.632.068,0,0-.925-.135-.9-.135,0,0-.812.338s-.2.564-.2.564-.993.316-1.963.654c-.993.339-.97.542-.767.677s-3.723,2.437-3.723,2.437-.993.609-1.422.812-1.015.406-1.738.722a2.081,2.081,0,0,1-1.805-.045c-.519-.248-1.264.135-1.85.339-.587.181-.2.361-.2.564.023.2.429.293.9.925s0,0,.045.406c.023.406-1.828,1.241-2.031,1.873-.226.632.09.745.339,1.038.248.271.835.564,1.85,1.444.993.88-.045,2.144-.045,2.144s-.135.406-.925.948-.429.5-.677.722.09.474.045.9a1.986,1.986,0,0,1-.226.925,4.089,4.089,0,0,0-.271,1.286c-.09.519,1.286,1.061,1.58,1.941s-.632,2.031-.632,2.031,1.264,1.128,1.173,1.58c-.068.451,1.151.384,1.783.609a9.069,9.069,0,0,1,1.805.745c.429.293.542.654,1.106,1.038s1.58.181,2.46.88a10.065,10.065,0,0,1,1.986,2.415c.338.519.564.564.654.835a1.047,1.047,0,0,0,.361.429,9.309,9.309,0,0,1,1.58.677c.406.293.429.5.429.5a3.37,3.37,0,0,1,.745,1.286c.181.7,2.144,0,3.317.09s2.821.045,4.491.181a6.62,6.62,0,0,1,2.821.745,36.8,36.8,0,0,0,6.161,1.444c1.083.068,2.212.023,3.362.135a14.285,14.285,0,0,1,2.166.181,21.8,21.8,0,0,0,4.581-.113,5.937,5.937,0,0,0,1.85-.609c.474-.158.632-.542,1.128-1.2s1.535-.429,2.392-.722c.88-.293,1.467-.474,2.324-.767.88-.293,1.647-.045,2.234-.248.587-.181.677-.226.948-.722a3.566,3.566,0,0,0,.632-1.241c.158-.677,1.061-.339,1.467-.745s2.234-.948,3.024-1.489a5.061,5.061,0,0,1,3.092-.745c.7.181,2.685.361,2.685.361a13.141,13.141,0,0,0,1.557-.316,9.712,9.712,0,0,1,2.55.474,1.454,1.454,0,0,0,1.219-.542,12.26,12.26,0,0,1,1.061-.767c.338-.248,2.911.226,2.911.226l1.9.632a5.842,5.842,0,0,1,1.489,1.512c.474.812.745,1.219.654,1.444s.135.293.2,1.038,3.069.925,3.069.925a24.875,24.875,0,0,0,2.843.587c1.85.293,2.753.406,3.52.564.79.158,3.723,1.377,3.723,1.377a13.518,13.518,0,0,1,2.1.745c.406.293,1.106.677,2.054,1.331a6.551,6.551,0,0,0,2.392.858l1.173.925c1.173.9.948.858,1.151,1.2s.068.925.248,1.557a4.068,4.068,0,0,0,1.128,1.67,20.868,20.868,0,0,1,1.58,2.257c.113.181.812.948.812.948a22.011,22.011,0,0,0,3.678.97c2.6.519,1.647.745,2.189,1.106a7.868,7.868,0,0,0,2.234.564c1.083.248.925.451,1.377.767a12.138,12.138,0,0,1,1.535,1.444,17.643,17.643,0,0,0,2.144,1.58c.271.181,1.128.79,1.85,1.286s1.647.271,2.64.339a4.6,4.6,0,0,1,2.076.654c.7.384,1.76.632,1.963.767a6.975,6.975,0,0,1,.948,1.625,1.052,1.052,0,0,0,1.4.5l2.3.722a8.9,8.9,0,0,0,1.76-.835c.293-.293.925-.632,1.241-.993s1.286-.293,1.783-.722.722-.361,1.106-.7c.384-.316,1.444-.474,1.6-.654s1.173-.654,1.715-1.173a4.809,4.809,0,0,0,1.422-1.67c.271-.7-.045-.722-.135-1.557-.068-.858.226-.542.677-1.9s.135-.993-.113-1.85a8.634,8.634,0,0,1-.406-1.286c-.226-.925-.338-.429-1.083-1.061-.767-.632,1.083-1.015,1.264-1.286a10.031,10.031,0,0,0,1.489-1.2c.2-.316-.474-.429-.7-.79s.09-.542-.181-.925a16.379,16.379,0,0,0-2.8-1.422,4.349,4.349,0,0,0-.474-.293,2.811,2.811,0,0,1-.9-.79c-.338-.429.226-.384.068-.609-.181-.226.88-1.377.654-1.58s.384-.339.361-.5.158-.2.406-1.151c.248-.97.5-.293.632-.451s.609-.271,1.467-.925-.5-2.392-.5-2.392-1.444-1.173-2.076-1.67c-.654-.5-1.4-1.625-1.67-1.783a6.241,6.241,0,0,1-.835-.542c-.406-.271-.429-.181-.925-.338s-.451-.135-1.061-.293c-.609-.181-.609-.384-.9-.745a18.368,18.368,0,0,0-2.437-1.805,3.523,3.523,0,0,0-.993-.293c-.316-.068-.812-.181-1.377-.271s-.519-.519-.79-1.106c-.271-.609-.023-.361-.158-.7s.226-.248.271-.609c.068-.384-.339-.745-.519-1.489s0,0,.023-.293.045-.226.361-.7-.677-3.295-.677-3.295l-.361-.361c-.361-.361.226-.587.135-.9a.866.866,0,0,1,.158-.745c.135-.248,1.625-2.415,1.625-2.415a4.894,4.894,0,0,0-.519-.429c-.338-.226-.338-.226-.767-.542s-.113-.271.045-.993c.135-.7-.068-.474-.587-1.241s-2.889-3.791-2.889-3.791a5.178,5.178,0,0,1-.632-.5,4.481,4.481,0,0,1-.654-.767,5.066,5.066,0,0,0-.79-.767,3.066,3.066,0,0,0-.429-.316,2.33,2.33,0,0,0-.609-.316c-.293-.113-.564.248-.564.248a.4.4,0,0,1-.09.338c-.158.158.181.293.135.564-.068.271-.181.226-.722.406a6.673,6.673,0,0,1-1.015.293c-.429.09-.09.226-.068.609s-.812.2-1.173.248a.785.785,0,0,0-.654.451c-.068.2-.654.564-.767.677a1.818,1.818,0,0,1-1.061.181c-.451-.068-1.58-.023-2.257-.181a3.8,3.8,0,0,1-1.309-.474c-.406-.293-.632-.406-1.038-.654a26.958,26.958,0,0,0-3.972-.812c-.451-.068-.835-.135-1.489-.293a14.242,14.242,0,0,0-1.489-.135,9.31,9.31,0,0,1-1.693-.384c-.858-.2-1.58-.361-1.783-.429-.181-.09-.993-.293-1.715-.609-.7-.293-.632-.384-1.4-.745-.79-.339-.9-.135-1.309-.2A7.3,7.3,0,0,1,179.448,95a2.6,2.6,0,0,1-1.128-.587c-.339-.248-3.927-1.625-3.927-1.625s-1.444-.271-2.279-.384a6.1,6.1,0,0,1-1.128-.226c-.361-.09-.384-.226-2.415-.948a22.1,22.1,0,0,0-3.656-.88,13.454,13.454,0,0,1-2.279-.745,10.752,10.752,0,0,0-1.467-.474c-.587-.158-1.331-.271-1.692-.361a6.148,6.148,0,0,0-1.128-.135,1.494,1.494,0,0,1-.993-.384c-.271-.181-.023-.271.113-.316a2.364,2.364,0,0,1,.948.113,6.711,6.711,0,0,0,1.489.068c.384.023.361.09.767.135s.316-.135.248-.226a2.813,2.813,0,0,0-.609-.474c-.271-.2.135-.248.135-.248l.338-.113c.339-.113,0,0,.316.226a1.409,1.409,0,0,0,.654.248,7.919,7.919,0,0,1,.835.293,6.261,6.261,0,0,0,.97.271s1.489.181,2.46.406c.948.2,1.015.248,1.58.384s2.663.609,2.821.7c.135.09.858.135,1.286.248s.677.135.948.226.79.2,1.354.338a20.065,20.065,0,0,1,2.257.519,4.675,4.675,0,0,1,1.715,1.061c.9.677,1.016.158,1.444.2.406.045,6.815,1.67,7.041,1.76a15.548,15.548,0,0,0,1.76.429c.429.113,1.286.361,1.6.451a17.475,17.475,0,0,1,2.144,1.061c.88.519.88.271,1.489.654.587.361.293.248.722.677.451.406,1.467.068,2.189.226a2.47,2.47,0,0,0,1.309-.09c.361-.045.339-.474.339-.677s.519-.248.9-.542c.361-.293,0,0-.045-.135s0-.361-.068-.5c-.068-.158,1.106-.293,1.4-.5s.5-.858.925-1.173.384-1.354.384-1.354a.966.966,0,0,0,0-.451,3.147,3.147,0,0,1-.2-.609c-.068-.293-.023-.429-.181-.654-.181-.226,1.738-.609,2.1-.88.361-.248,0,0-.406-.5s-.045-.339,0-.451a2.888,2.888,0,0,0,.293-1.083c.068-.767-.316-.293-.519-.429-.2-.158-.993-.9-.925-1.286a.96.96,0,0,0-.5-.858,7.49,7.49,0,0,1-.858-.677c-.248-.226-.632-.181-1.083-.406-.474-.226-.7-.09-1.016-.2-.293-.113-.654.045-.925-.045s-1.67-.045-2.189-.181a2.97,2.97,0,0,0-.993-.09c-.519,0-.271-.09-.745-.181a2.838,2.838,0,0,1-1.173-.564,2.146,2.146,0,0,0-1.151-.248l-.135.79a5.113,5.113,0,0,1,.858.812c.158.271-.79.271-1.241.406a6.428,6.428,0,0,1-2.008.158,2.744,2.744,0,0,1-1.128-.226,3.775,3.775,0,0,1-.9-.339c-.632-.248,0,0-.88-.316s-.316.181-.474.226.542.384.429.564-.677-.181-1.693-.587a4.921,4.921,0,0,0-1.377-.361c-.474-.135-1.173-.429-2.031-.722-.835-.293-1.535-.271-2.076-.451s-.767-.135-1.67-.406c-.88-.271-.632-.609-.9-.948s.181-.271.339-.429c.135-.158,1.286.045,1.286.045s1.783.2,2.392.316a4.036,4.036,0,0,1,1.264.339c.248.158,2.573.293,3.317.5a9.864,9.864,0,0,0,3.046-.09,1.586,1.586,0,0,0,1.128-.474,1.593,1.593,0,0,1,1.038-.135,5.094,5.094,0,0,1,1.58.5c.384.226.654.113,2.731-.045a28.813,28.813,0,0,0,4.243-.7,22.571,22.571,0,0,0,2.6-.677c.519-.248.361-.248.722-.406s.812.226.812.226l.97.384s1.557.226,2.618.384a2.339,2.339,0,0,1,.993.226c.361.09,1.061.045,1.2.135a1.39,1.39,0,0,1,.316.316c.045.09.316.181.7.406s.384.226.745.429a6.207,6.207,0,0,0,2.144.135c.7-.023.293-.09.181-.271s-.023-.181-.023-.384.745-.023,1.309.068.5.361,1.015.835A13.308,13.308,0,0,0,217.2,84.3s1.2.7,1.467.88a9.647,9.647,0,0,0,1.805.564,4.009,4.009,0,0,1,1.444.632,11.023,11.023,0,0,1,1.873.835c.7.5,1.557,1.061,1.783,1.241.248.158,2.911,1.219,3.272,1.489.361.248,1.58.767,2.189,1.061a4.341,4.341,0,0,1,1.038.745,1.542,1.542,0,0,0,.564.2s1.219.564,1.805.316c.564-.248.135-.248,0-.361-.135-.09-.88-.677-.88-.677l-.293-.316a2,2,0,0,1-.316-.835c-.113-.587,0,0-.113-.271s-.181-.181-.293-.361a3.782,3.782,0,0,0-.451-.7c-.271-.293-3.927-2.031-4.085-2.121a19.735,19.735,0,0,1-2.166-1.241c-.564-.406-.135-.316-.068-.609.068-.316-.339-.339-.632-.564s-.384-.542-.654-.948a2.245,2.245,0,0,1-.316-.745,9.448,9.448,0,0,0-1.083-1.083c-.406-.406-.542-.609-1.038-1.106s-.338-.451-.406-.632c-.045-.2.293-.09.812-.519.5-.406,0,0-.226-.181s-.181-.181-.384-.474c-.181-.293.248-.226.248-.226s.767.339,1.173.542a6.84,6.84,0,0,1,.97.587c.587.361,1.016.406,1.354.609.361.2,1.354.361,1.918.609.542.248.97.384,1.512.632a11.621,11.621,0,0,1,1.647,1.173s.406.158,1.016.384.858,0,.858,0a3.959,3.959,0,0,1,.88.023c.451.068.361.2.79.519a4.9,4.9,0,0,1,.722.564c.113.135.542.384,1.422,1.083s.5.406.722.677a3.056,3.056,0,0,0,.451.474,1.49,1.49,0,0,0,.767.293,1.724,1.724,0,0,0,.745-.181c.2-.068.248-.293.068-.474s.406-.068.835-.068a1.306,1.306,0,0,1,.745.181,7.389,7.389,0,0,1,1.061.564c.587.316.542.135,1.2.226a1.882,1.882,0,0,0,.88.023s1.264.609,1.85.812c.361.135.519.113.654.045C218.85,68.326,177.35,55.915,132.4,51.74Zm1.354,29.066c0,.158-.542.384-.542.384a5.368,5.368,0,0,0-.925-.023l-.248.023-.9.248-.858-.181s-.113-.158.135-.248c.271-.09.2-.248.79-.271h.587l.835-.09.7.023C133.345,80.67,133.751,80.67,133.751,80.806Zm14.127-5.822c.406.158,0,0,.609.429s.09.271.023.429-.451.293-.451.293-1.512.5-2.144.609a4.491,4.491,0,0,0-.925.293,4.112,4.112,0,0,1-1.58.181,5.526,5.526,0,0,1-1.58-.158c-.745-.181-.384.068-1.173.2a10.406,10.406,0,0,1-1.67.271,5.893,5.893,0,0,0-1.67.451,6.533,6.533,0,0,0-.97.406c-.632.316-.135.587-.226.948-.068.361-.5.248-1.2.429a12.9,12.9,0,0,1-2.392.316c-.654.023-1.2.113-1.67.113a10.3,10.3,0,0,1-2.008-.113c-1.061-.135-.609-.09-1.331-.181-.722-.113-.7-.5-.97-.677-.271-.2-.158-.384-.2-.88-.045-.519-.113-.339-.068-.654s-.2-.406-.406-.677a2.379,2.379,0,0,0-.654-.587c-.339-.226-.068-.451.384-1.083a.592.592,0,0,1,.97-.068s1.467,0,1.783.023a3.632,3.632,0,0,0,1.264-.271.829.829,0,0,1,.745.181.978.978,0,0,1,.248.587c0,.135,1.038.181,1.422.248s.339-.158,1.173-.542.587-.2.79-.248c.2-.068.993-.338.97-.609-.023-.293,0,0-.722-.09,0,0-.5-.068-.767-.135a4.342,4.342,0,0,1-.654-.113,3.376,3.376,0,0,1-.632-.384c-.226-.158-.2-.271-.316-.429s.767-.339,1.2-.587.406-.338.7-.474a5.491,5.491,0,0,1,.925-.316c.406-.135.835-.226.835-.226a3.168,3.168,0,0,1,.654.474c.248.248-.384.406-.542.5-.158.113.316.226.316.226s.5.271.361.609c-.113.316.519.654.519.654l.925.023a16.144,16.144,0,0,1,1.692-.181c1.241-.068.97.068.97.068a28.253,28.253,0,0,1,2.866.113c.429.09,1.625,0,3.633.226C149.028,74.848,147.471,74.848,147.878,74.984Zm22.341-.09a7.436,7.436,0,0,1-1.783.88s-1.986.361-2.573.384a7.147,7.147,0,0,1-2.144.135c-.79-.226-1.647-.429-2.008-.542a14.154,14.154,0,0,1-1.918-.474c-.812-.293-.248-.248-.812-.293a8.4,8.4,0,0,0-1.151-.045l-1.083-.068c-.135-.113-.587.2-.135-.113a3.39,3.39,0,0,1,1.331-.338l.542-.181s.677-.135.564-.293-.429-.564-.677-.542c-.248.045-1.76-.09-1.76-.09s-1.264-.2-1.738-.339-.226.113-.993-.293a8.794,8.794,0,0,0-2.212-.474c-.2-.068-2.076-.361-2.076-.361l-1.557-.2a8.506,8.506,0,0,1-1.4-.316c-.135-.09-.745-.316-.587-.474a.4.4,0,0,0,.045-.587,4.588,4.588,0,0,0-.745-.519,1.134,1.134,0,0,1-.361-.248.609.609,0,0,1,.135-.587c.181-.158-.181,0,.181-.158a8.046,8.046,0,0,1,1.083-.406c.338-.113.406-.677.406-.677s-.181-.338.722-.248,1.76,0,2.121.113a4.163,4.163,0,0,0,1.2.226,6.025,6.025,0,0,0,.835-.023s.858.045,1.309.09a18.575,18.575,0,0,1,2.189.248c.474.135,1.061.135,1.467.271a2.063,2.063,0,0,1,.654.406s.023.09-.2.248c-.248.181-.2-.068-.248.181s.181.474-.023.542-.587.2-.587.2l-1.2.248s-.88-.474-.858-.045c.023.406-.113.609.248.722s2.3.384,2.3.384a5.944,5.944,0,0,1,.88.135c.316.09-.406-.158.316.09a5.051,5.051,0,0,1,1.309.519c.271.2.339.519.993.293l.654-.226s-.451-.384.2-.406a5.42,5.42,0,0,1,1.738,0c.226.158,1.331-.023,1.625.181.271.2.2.406-.158.587s-.858.158-.812.316c.045.181.293.745.722.722.429-.045,1.173-.2,1.173-.2a1.36,1.36,0,0,1,1.151-.135,2.1,2.1,0,0,1,.812.5,2.889,2.889,0,0,0,1.241.587,8.224,8.224,0,0,1,1.219.451S170.512,74.555,170.218,74.893Z" transform="translate(71.973 -51.74)"/>
    </g>
    <g id="Group_9670" data-name="Group 9670" transform="translate(20234.74 10868.2)">
      <g id="Group_9668" data-name="Group 9668" transform="translate(7.55 2.839)">
        <path id="Path_18698" data-name="Path 18698" class="cls-6" d="M284.352,128.111c28.836-5.61,51.832,17.754,51.347,52.178s-24.242,66.862-53.078,72.472-51.809-17.754-51.347-52.178C231.782,166.16,255.539,133.7,284.352,128.111Z" transform="translate(-231.267 -127.28)"/>
      </g>
      <path id="Path_18699" data-name="Path 18699" class="cls-7" d="M235.831,197.137q.1-1.454.277-2.909c.046-.346.069-.693.115-1.039q.277-2.182.693-4.364c.046-.3.115-.577.185-.877.254-1.339.554-2.655.9-3.971l.139-.554c.323-1.224.67-2.447,1.039-3.648.092-.323.208-.623.3-.923.3-.923.6-1.847.924-2.747.138-.369.277-.762.416-1.131.3-.831.623-1.639.97-2.447.139-.323.254-.623.392-.947.462-1.108.97-2.193,1.478-3.278.092-.185.185-.346.254-.508.439-.9.9-1.8,1.362-2.678l.554-1.039c.392-.716.808-1.431,1.224-2.124l.623-1.039c.531-.877,1.085-1.732,1.639-2.586.115-.185.231-.346.346-.531.669-1.016,1.385-2.009,2.1-2.978.162-.231.346-.439.508-.67.716-.923,1.431-1.847,2.17-2.724.185-.208.346-.439.531-.646.854-1.016,1.755-2.009,2.655-2.955.277-.3.577-.6.854-.877.416-.416.831-.854,1.247-1.27.323-.323.646-.623.97-.923.416-.392.854-.785,1.27-1.177.346-.3.669-.6,1.016-.877.439-.369.877-.739,1.316-1.085.346-.277.693-.554,1.062-.831.439-.346.9-.693,1.339-1.016.369-.277.716-.531,1.085-.808.416-.3.831-.577,1.247-.854.392-.254.762-.508,1.154-.762.416-.277.854-.531,1.293-.785.393-.231.785-.485,1.177-.693.439-.254.877-.485,1.316-.716.393-.208.808-.439,1.2-.646.439-.231.9-.439,1.339-.646.416-.185.808-.392,1.224-.577.462-.208.9-.392,1.362-.577.416-.162.831-.346,1.247-.508.462-.185.924-.346,1.408-.508.416-.139.831-.3,1.247-.439.485-.162.947-.277,1.431-.416.416-.115.831-.254,1.247-.369l1.455-.346,1.524-.346c.97-.185,1.916-.346,2.863-.462.3-.046.623-.069.923-.092.646-.069,1.27-.139,1.893-.185.346-.023.716-.023,1.062-.046.577-.023,1.154-.046,1.732-.046.369,0,.716,0,1.085.023l1.339.069c.808.046,1.616.115,2.4.231.323.046.67.069.993.115,1.085.162,2.17.346,3.232.6.6.139,1.177.323,1.778.485.3.092.6.162.9.254.877.277,1.755.577,2.586.9l-7.573-2.955c-.854-.323-1.708-.646-2.586-.9-.3-.092-.6-.162-.877-.231-.577-.162-1.154-.346-1.755-.485h-.023c-1.062-.254-2.147-.439-3.232-.6-.323-.046-.67-.069-.993-.115-.785-.092-1.593-.162-2.4-.208a5.249,5.249,0,0,0-.6-.046h-.739c-.369,0-.716-.023-1.085-.023-.577,0-1.154.023-1.732.046-.346.023-.716.023-1.062.046-.623.046-1.27.115-1.916.185-.3.023-.6.046-.923.092-.947.115-1.893.277-2.863.462-.162.023-.323.069-.485.092-.346.069-.693.162-1.039.254-.485.115-.97.208-1.455.346-.416.115-.854.231-1.27.369-.485.139-.947.277-1.431.416-.416.139-.831.277-1.247.439-.462.162-.923.323-1.385.508-.416.162-.831.323-1.247.508-.462.185-.924.369-1.362.577-.416.185-.808.369-1.224.577-.439.208-.9.416-1.339.646-.416.208-.808.416-1.2.646-.439.231-.877.485-1.316.716-.392.231-.785.462-1.177.716-.439.254-.854.531-1.27.785-.393.254-.785.508-1.154.762-.416.277-.831.554-1.247.854-.162.115-.323.208-.462.323l-.623.485c-.462.346-.9.67-1.339,1.016-.346.277-.693.554-1.062.831-.439.369-.877.716-1.316,1.085-.346.3-.693.577-1.016.9-.439.392-.854.785-1.27,1.177-.323.3-.646.6-.97.923-.416.416-.831.831-1.247,1.27-.208.231-.439.439-.67.67-.069.069-.138.162-.208.231-.9.97-1.778,1.939-2.655,2.955-.185.208-.346.439-.531.646-.739.9-1.455,1.8-2.17,2.724-.115.139-.231.277-.346.439a1.408,1.408,0,0,0-.162.231c-.716.97-1.431,1.962-2.1,2.978-.115.185-.231.346-.346.531-.554.854-1.108,1.708-1.639,2.586-.092.139-.185.277-.277.439-.115.185-.231.392-.346.6-.416.716-.808,1.408-1.224,2.147l-.554,1.039c-.462.877-.924,1.778-1.362,2.7-.069.138-.139.277-.208.439-.023.023-.023.046-.046.069-.508,1.085-.993,2.17-1.478,3.278-.139.323-.254.623-.392.947-.323.808-.646,1.616-.97,2.447-.069.185-.138.346-.208.531-.069.208-.138.392-.208.6-.323.9-.646,1.824-.923,2.747-.092.3-.208.623-.3.923-.369,1.2-.716,2.424-1.039,3.648-.023.046-.023.115-.046.162a1.956,1.956,0,0,1-.092.392c-.323,1.316-.623,2.655-.9,3.994-.046.3-.115.577-.185.877-.277,1.455-.508,2.886-.693,4.364a1.783,1.783,0,0,0-.046.346l-.069.693q-.173,1.455-.277,2.909c-.023.369-.069.762-.092,1.131-.092,1.293-.139,2.609-.162,3.9-.346,24.611,11.336,43.589,28.559,50.331l7.573,2.955c-17.223-6.742-28.883-25.72-28.559-50.331.023-1.316.069-2.609.162-3.9C235.762,197.9,235.808,197.529,235.831,197.137Z" transform="translate(-227.997 -126.05)"/>
      <g id="Group_9669" data-name="Group 9669" transform="translate(28.405 27.082)">
        <path id="Path_18700" data-name="Path 18700" class="cls-8" d="M303.837,176.636l-7.434,1.455q-.312,1.7-.762,3.325l6.4,3.186L296.8,196.1l-6.4-3.209c-.623.947-1.293,1.847-1.986,2.7l3.625,7-8.889,7.781-3.625-6.972a24.836,24.836,0,0,1-2.7,1.385l-.115,8.866-10.159,1.986.115-8.866a20.733,20.733,0,0,1-2.678-.346l-3.833,8.427-8.727-4.34,3.833-8.45a19.275,19.275,0,0,1-1.916-1.962l-6.511,5.7-4.941-9.535,6.511-5.7c-.277-.993-.485-2.009-.67-3.048l-7.434,1.454.162-12.144,7.434-1.455q.312-1.7.762-3.325l-6.4-3.209,5.241-11.5,6.4,3.186c.623-.923,1.293-1.847,1.986-2.7l-3.625-7,8.889-7.781,3.625,7a21.3,21.3,0,0,1,2.7-1.385l.115-8.889,10.159-1.986-.115,8.889a17.351,17.351,0,0,1,2.678.346l3.833-8.427,8.727,4.364-3.833,8.427a19.28,19.28,0,0,1,1.916,1.962l6.511-5.7,4.941,9.512-6.511,5.7a24.5,24.5,0,0,1,.67,3.048L304,164.446Zm-31.976,21.679c9.951-1.939,18.193-13.183,18.355-25.1.162-11.89-7.8-19.994-17.777-18.078-9.974,1.939-18.216,13.183-18.378,25.1-.139,11.913,7.827,20.017,17.8,18.078" transform="translate(-240.3 -137.78)"/>
      </g>
    </g>
    <g id="Group_9716" data-name="Group 9716" transform="translate(19668.74 10976.2)">
      <g id="Group_9668-2" data-name="Group 9668" transform="translate(7.55 2.839)">
        <path id="Path_18698-2" data-name="Path 18698" class="cls-6" d="M284.352,128.111c28.836-5.61,51.832,17.754,51.347,52.178s-24.242,66.862-53.078,72.472-51.809-17.754-51.347-52.178C231.782,166.16,255.539,133.7,284.352,128.111Z" transform="translate(-231.267 -127.28)"/>
      </g>
      <path id="Path_18699-2" data-name="Path 18699" class="cls-7" d="M235.831,197.137q.1-1.454.277-2.909c.046-.346.069-.693.115-1.039q.277-2.182.693-4.364c.046-.3.115-.577.185-.877.254-1.339.554-2.655.9-3.971l.139-.554c.323-1.224.67-2.447,1.039-3.648.092-.323.208-.623.3-.923.3-.923.6-1.847.924-2.747.138-.369.277-.762.416-1.131.3-.831.623-1.639.97-2.447.139-.323.254-.623.392-.947.462-1.108.97-2.193,1.478-3.278.092-.185.185-.346.254-.508.439-.9.9-1.8,1.362-2.678l.554-1.039c.392-.716.808-1.431,1.224-2.124l.623-1.039c.531-.877,1.085-1.732,1.639-2.586.115-.185.231-.346.346-.531.669-1.016,1.385-2.009,2.1-2.978.162-.231.346-.439.508-.67.716-.923,1.431-1.847,2.17-2.724.185-.208.346-.439.531-.646.854-1.016,1.755-2.009,2.655-2.955.277-.3.577-.6.854-.877.416-.416.831-.854,1.247-1.27.323-.323.646-.623.97-.923.416-.392.854-.785,1.27-1.177.346-.3.669-.6,1.016-.877.439-.369.877-.739,1.316-1.085.346-.277.693-.554,1.062-.831.439-.346.9-.693,1.339-1.016.369-.277.716-.531,1.085-.808.416-.3.831-.577,1.247-.854.392-.254.762-.508,1.154-.762.416-.277.854-.531,1.293-.785.393-.231.785-.485,1.177-.693.439-.254.877-.485,1.316-.716.393-.208.808-.439,1.2-.646.439-.231.9-.439,1.339-.646.416-.185.808-.392,1.224-.577.462-.208.9-.392,1.362-.577.416-.162.831-.346,1.247-.508.462-.185.924-.346,1.408-.508.416-.139.831-.3,1.247-.439.485-.162.947-.277,1.431-.416.416-.115.831-.254,1.247-.369l1.455-.346,1.524-.346c.97-.185,1.916-.346,2.863-.462.3-.046.623-.069.923-.092.646-.069,1.27-.139,1.893-.185.346-.023.716-.023,1.062-.046.577-.023,1.154-.046,1.732-.046.369,0,.716,0,1.085.023l1.339.069c.808.046,1.616.115,2.4.231.323.046.67.069.993.115,1.085.162,2.17.346,3.232.6.6.139,1.177.323,1.778.485.3.092.6.162.9.254.877.277,1.755.577,2.586.9l-7.573-2.955c-.854-.323-1.708-.646-2.586-.9-.3-.092-.6-.162-.877-.231-.577-.162-1.154-.346-1.755-.485h-.023c-1.062-.254-2.147-.439-3.232-.6-.323-.046-.67-.069-.993-.115-.785-.092-1.593-.162-2.4-.208a5.249,5.249,0,0,0-.6-.046h-.739c-.369,0-.716-.023-1.085-.023-.577,0-1.154.023-1.732.046-.346.023-.716.023-1.062.046-.623.046-1.27.115-1.916.185-.3.023-.6.046-.923.092-.947.115-1.893.277-2.863.462-.162.023-.323.069-.485.092-.346.069-.693.162-1.039.254-.485.115-.97.208-1.455.346-.416.115-.854.231-1.27.369-.485.139-.947.277-1.431.416-.416.139-.831.277-1.247.439-.462.162-.923.323-1.385.508-.416.162-.831.323-1.247.508-.462.185-.924.369-1.362.577-.416.185-.808.369-1.224.577-.439.208-.9.416-1.339.646-.416.208-.808.416-1.2.646-.439.231-.877.485-1.316.716-.392.231-.785.462-1.177.716-.439.254-.854.531-1.27.785-.393.254-.785.508-1.154.762-.416.277-.831.554-1.247.854-.162.115-.323.208-.462.323l-.623.485c-.462.346-.9.67-1.339,1.016-.346.277-.693.554-1.062.831-.439.369-.877.716-1.316,1.085-.346.3-.693.577-1.016.9-.439.392-.854.785-1.27,1.177-.323.3-.646.6-.97.923-.416.416-.831.831-1.247,1.27-.208.231-.439.439-.67.67-.069.069-.138.162-.208.231-.9.97-1.778,1.939-2.655,2.955-.185.208-.346.439-.531.646-.739.9-1.455,1.8-2.17,2.724-.115.139-.231.277-.346.439a1.408,1.408,0,0,0-.162.231c-.716.97-1.431,1.962-2.1,2.978-.115.185-.231.346-.346.531-.554.854-1.108,1.708-1.639,2.586-.092.139-.185.277-.277.439-.115.185-.231.392-.346.6-.416.716-.808,1.408-1.224,2.147l-.554,1.039c-.462.877-.924,1.778-1.362,2.7-.069.138-.139.277-.208.439-.023.023-.023.046-.046.069-.508,1.085-.993,2.17-1.478,3.278-.139.323-.254.623-.392.947-.323.808-.646,1.616-.97,2.447-.069.185-.138.346-.208.531-.069.208-.138.392-.208.6-.323.9-.646,1.824-.923,2.747-.092.3-.208.623-.3.923-.369,1.2-.716,2.424-1.039,3.648-.023.046-.023.115-.046.162a1.956,1.956,0,0,1-.092.392c-.323,1.316-.623,2.655-.9,3.994-.046.3-.115.577-.185.877-.277,1.455-.508,2.886-.693,4.364a1.783,1.783,0,0,0-.046.346l-.069.693q-.173,1.455-.277,2.909c-.023.369-.069.762-.092,1.131-.092,1.293-.139,2.609-.162,3.9-.346,24.611,11.336,43.589,28.559,50.331l7.573,2.955c-17.223-6.742-28.883-25.72-28.559-50.331.023-1.316.069-2.609.162-3.9C235.762,197.9,235.808,197.529,235.831,197.137Z" transform="translate(-227.997 -126.05)"/>
      <g id="Group_9669-2" data-name="Group 9669" transform="translate(28.405 27.082)">
        <path id="Path_18700-2" data-name="Path 18700" class="cls-8" d="M303.837,176.636l-7.434,1.455q-.312,1.7-.762,3.325l6.4,3.186L296.8,196.1l-6.4-3.209c-.623.947-1.293,1.847-1.986,2.7l3.625,7-8.889,7.781-3.625-6.972a24.836,24.836,0,0,1-2.7,1.385l-.115,8.866-10.159,1.986.115-8.866a20.733,20.733,0,0,1-2.678-.346l-3.833,8.427-8.727-4.34,3.833-8.45a19.275,19.275,0,0,1-1.916-1.962l-6.511,5.7-4.941-9.535,6.511-5.7c-.277-.993-.485-2.009-.67-3.048l-7.434,1.454.162-12.144,7.434-1.455q.312-1.7.762-3.325l-6.4-3.209,5.241-11.5,6.4,3.186c.623-.923,1.293-1.847,1.986-2.7l-3.625-7,8.889-7.781,3.625,7a21.3,21.3,0,0,1,2.7-1.385l.115-8.889,10.159-1.986-.115,8.889a17.351,17.351,0,0,1,2.678.346l3.833-8.427,8.727,4.364-3.833,8.427a19.28,19.28,0,0,1,1.916,1.962l6.511-5.7,4.941,9.512-6.511,5.7a24.5,24.5,0,0,1,.67,3.048L304,164.446Zm-31.976,21.679c9.951-1.939,18.193-13.183,18.355-25.1.162-11.89-7.8-19.994-17.777-18.078-9.974,1.939-18.216,13.183-18.378,25.1-.139,11.913,7.827,20.017,17.8,18.078" transform="translate(-240.3 -137.78)"/>
      </g>
    </g>
    <g id="Group_9715" data-name="Group 9715" transform="translate(19834.029 10861.506)">
      <g id="Group_9665" data-name="Group 9665" transform="translate(4.581 1.728)">
        <path id="Path_18695" data-name="Path 18695" class="cls-6" d="M35.578,168.786c17.551-3.415,31.548,10.806,31.253,31.758s-14.755,40.7-32.306,44.11S2.99,233.849,3.271,212.9C3.58,191.944,18.04,172.187,35.578,168.786Z" transform="translate(-3.267 -168.28)"/>
      </g>
      <path id="Path_18696" data-name="Path 18696" class="cls-7" d="M4.761,210.317c.042-.59.112-1.18.169-1.771.028-.211.042-.422.07-.632q.169-1.328.422-2.656c.028-.183.07-.351.112-.534.155-.815.337-1.616.548-2.417l.084-.337c.2-.745.408-1.49.632-2.22.056-.2.126-.379.183-.562.183-.562.365-1.124.562-1.672.084-.225.169-.464.253-.689.183-.506.379-1,.59-1.49.084-.2.155-.379.239-.576.281-.674.59-1.335.9-2,.056-.112.112-.211.155-.309.267-.548.548-1.1.829-1.63l.337-.632c.239-.436.492-.871.745-1.293l.379-.632c.323-.534.66-1.054,1-1.574.07-.112.141-.211.211-.323.408-.618.843-1.223,1.279-1.813.1-.141.211-.267.309-.408.436-.562.871-1.124,1.321-1.658.112-.126.211-.267.323-.393.52-.618,1.068-1.223,1.616-1.8.169-.183.351-.365.52-.534.253-.253.506-.52.759-.773.2-.2.393-.379.59-.562.253-.239.52-.478.773-.717.211-.183.408-.365.618-.534.267-.225.534-.45.8-.66.211-.169.422-.337.646-.506.267-.211.548-.422.815-.618.225-.169.436-.323.66-.492.253-.183.506-.351.759-.52s.464-.309.7-.464.52-.323.787-.478c.239-.141.478-.3.717-.422.267-.155.534-.3.8-.436.239-.126.492-.267.731-.393.267-.141.548-.267.815-.393s.492-.239.745-.351c.281-.126.548-.239.829-.351.253-.1.506-.211.759-.309.281-.112.562-.211.857-.309.253-.084.506-.183.759-.267.3-.1.576-.169.871-.253.253-.07.506-.155.759-.225l.885-.211.927-.211c.59-.112,1.166-.211,1.743-.281.183-.028.379-.042.562-.056.393-.042.773-.084,1.166-.112.225-.014.436-.014.646-.028.351-.014.7-.028,1.054-.028.225,0,.436,0,.66.014l.815.042c.492.028.984.07,1.461.141.2.028.408.042.6.07.66.1,1.321.211,1.967.365.365.084.717.2,1.082.3.183.056.365.1.548.155.534.169,1.068.351,1.574.548l-4.609-1.8c-.52-.2-1.04-.393-1.574-.548-.183-.056-.365-.1-.534-.141-.351-.1-.7-.211-1.068-.3H43c-.646-.155-1.307-.267-1.967-.365-.2-.028-.408-.042-.6-.07-.478-.056-.97-.1-1.461-.126a3.2,3.2,0,0,0-.365-.028h-.45c-.225,0-.436-.014-.66-.014-.351,0-.7.014-1.054.028-.211.014-.436.014-.646.028-.379.028-.773.07-1.166.112-.183.014-.365.028-.562.056-.576.07-1.152.169-1.742.281-.1.014-.2.042-.3.056-.211.042-.422.1-.632.155-.3.07-.59.126-.885.211-.253.07-.52.141-.773.225-.3.084-.576.169-.871.253-.253.084-.506.169-.759.267-.281.1-.562.2-.843.309-.253.1-.506.2-.759.309-.281.112-.562.225-.829.351s-.492.225-.745.351-.548.253-.815.393c-.239.126-.492.253-.731.393-.267.141-.534.3-.8.436-.239.141-.478.281-.717.436-.267.155-.52.323-.773.478s-.478.309-.7.464c-.253.169-.506.337-.759.52-.1.07-.2.126-.281.2l-.379.3c-.281.211-.548.408-.815.618-.211.169-.422.337-.646.506-.267.225-.534.436-.8.66-.211.183-.422.351-.618.548-.267.239-.52.478-.773.717-.2.183-.393.365-.59.562-.253.253-.506.506-.759.773-.126.141-.267.267-.408.408-.042.042-.084.1-.126.141-.548.59-1.082,1.18-1.616,1.8-.112.126-.211.267-.323.393-.45.548-.885,1.1-1.321,1.658-.07.084-.141.169-.211.267a.854.854,0,0,0-.1.141c-.436.59-.871,1.194-1.279,1.813-.07.112-.141.211-.211.323-.337.52-.675,1.04-1,1.574-.056.084-.112.169-.169.267s-.141.239-.211.365c-.253.436-.492.857-.745,1.307l-.337.632c-.281.534-.562,1.082-.829,1.644-.042.084-.084.169-.126.267-.014.014-.014.028-.028.042-.309.66-.6,1.321-.9,2-.084.2-.155.379-.239.576-.2.492-.393.984-.59,1.49-.042.112-.084.211-.126.323s-.084.239-.126.365c-.2.548-.393,1.11-.562,1.672-.056.183-.126.379-.183.562-.225.731-.436,1.475-.632,2.22-.014.028-.014.07-.028.1a1.191,1.191,0,0,1-.056.239c-.2.8-.379,1.616-.548,2.431-.042.183-.07.351-.112.534-.169.885-.309,1.757-.422,2.656a1.085,1.085,0,0,0-.028.211l-.042.422q-.105.885-.169,1.771c-.014.225-.042.464-.056.689-.056.787-.084,1.588-.1,2.375-.211,14.98,6.9,26.531,17.383,30.634l4.609,1.8c-10.483-4.1-17.58-15.654-17.383-30.634.014-.8.056-1.588.1-2.375C4.719,210.781,4.747,210.556,4.761,210.317Z" transform="translate(-0.007 -167.05)"/>
      <g id="Group_9666" data-name="Group 9666" transform="translate(17.289 16.497)">
        <path id="Path_18697" data-name="Path 18697" class="cls-8" d="M50.968,202.426l-4.525.885q-.19,1.033-.464,2.024l3.893,1.939-3.19,7-3.893-1.953c-.379.576-.787,1.124-1.209,1.644l2.206,4.258-5.41,4.736-2.206-4.244a15.12,15.12,0,0,1-1.644.843l-.07,5.4-6.183,1.208.07-5.4a12.618,12.618,0,0,1-1.63-.211l-2.333,5.129-5.312-2.642L21.4,217.9a11.731,11.731,0,0,1-1.166-1.194l-3.963,3.471-2.993-5.79,3.963-3.471c-.169-.6-.3-1.223-.408-1.855l-4.525.885.1-7.392,4.525-.885q.19-1.033.464-2.024L13.5,197.69l3.19-7,3.893,1.939c.379-.562.787-1.124,1.209-1.644l-2.206-4.258L25,181.994l2.206,4.258a12.974,12.974,0,0,1,1.644-.843l.07-5.41L35.1,178.79l-.07,5.41a10.561,10.561,0,0,1,1.63.211L39,179.282l5.312,2.656-2.333,5.129a11.735,11.735,0,0,1,1.166,1.194L47.1,184.79l3.007,5.79-3.963,3.471a14.912,14.912,0,0,1,.408,1.855l4.525-.885Zm-19.463,13.2c6.057-1.18,11.073-8.024,11.172-15.275s-4.75-12.169-10.82-11-11.087,8.024-11.186,15.275,4.764,12.183,10.834,11" transform="translate(-12.31 -178.79)"/>
      </g>
    </g>
    <g id="Group_9687" data-name="Group 9687" transform="translate(19985.756 10860.685)">
      <g id="Group_9675" data-name="Group 9675" transform="translate(35.438 168.885)">
        <g id="Group_9674" data-name="Group 9674" class="cls-9" transform="translate(0 0)">
          <path id="Path_18704" data-name="Path 18704" class="cls-10" d="M133.755,392.391l-5.365-2.1a3.5,3.5,0,0,0,.48.147l5.365,2.1a3.05,3.05,0,0,1-.48-.147" transform="translate(-128.39 -390.29)"/>
          <path id="Path_18705" data-name="Path 18705" class="cls-11" d="M134.635,392.671l-5.365-2.1a3.764,3.764,0,0,0,.666.093l5.365,2.1a3.83,3.83,0,0,1-.666-.093" transform="translate(-128.79 -390.417)"/>
          <path id="Path_18706" data-name="Path 18706" class="cls-12" d="M135.855,392.782l-5.365-2.1a4,4,0,0,0,.944-.071l5.365,2.1a4.308,4.308,0,0,1-.944.071" transform="translate(-129.344 -390.435)"/>
        </g>
      </g>
      <g id="Group_9677" data-name="Group 9677" transform="translate(37.529 157.789)">
        <g id="Group_9676" data-name="Group 9676" class="cls-13" transform="translate(0)">
          <path id="Path_18708" data-name="Path 18708" class="cls-12" d="M137.585,392.692l-5.365-2.1c.016-.005.033-.005.044-.011l5.365,2.1a.1.1,0,0,1-.044.011" transform="translate(-132.22 -379.326)"/>
          <path id="Path_18709" data-name="Path 18709" class="cls-14" d="M137.665,391.974l-5.365-2.1a5.069,5.069,0,0,0,1.91-.862l5.365,2.1a5.071,5.071,0,0,1-1.91.862" transform="translate(-132.256 -378.613)"/>
          <path id="Path_18710" data-name="Path 18710" class="cls-12" d="M141.165,390.465l-5.365-2.1a6.4,6.4,0,0,0,.873-.764l5.365,2.1a5.769,5.769,0,0,1-.873.764" transform="translate(-133.846 -377.972)"/>
          <path id="Path_18711" data-name="Path 18711" class="cls-11" d="M142.765,389.165l-5.365-2.1a6.876,6.876,0,0,0,.54-.644l5.365,2.1a6.137,6.137,0,0,1-.54.644" transform="translate(-134.573 -377.436)"/>
          <path id="Path_18712" data-name="Path 18712" class="cls-10" d="M143.765,388l-5.365-2.1a6.149,6.149,0,0,0,.415-.622l5.365,2.1a7.259,7.259,0,0,1-.415.622" transform="translate(-135.027 -376.919)"/>
          <path id="Path_18713" data-name="Path 18713" class="cls-15" d="M144.525,386.864l-5.365-2.1c.12-.2.235-.415.338-.633l5.365,2.1c-.1.213-.218.426-.338.633" transform="translate(-135.372 -376.396)"/>
          <path id="Path_18714" data-name="Path 18714" class="cls-16" d="M145.145,385.677l-5.365-2.1c.1-.218.2-.442.284-.666l5.365,2.1c-.087.224-.18.448-.284.666" transform="translate(-135.654 -375.842)"/>
          <path id="Path_18715" data-name="Path 18715" class="cls-17" d="M145.665,384.384l-5.365-2.1a6.87,6.87,0,0,0,.229-.742l5.365,2.1c-.065.256-.142.5-.229.742" transform="translate(-135.89 -375.22)"/>
          <path id="Path_18716" data-name="Path 18716" class="cls-18" d="M146.085,382.883l-5.365-2.1a7.452,7.452,0,0,0,.175-.911l5.365,2.1a7.076,7.076,0,0,1-.175.911" transform="translate(-136.081 -374.461)"/>
          <path id="Path_18717" data-name="Path 18717" class="cls-19" d="M144.27,377.47l-5.365-2.1a6.349,6.349,0,0,0,.055-.791,4.627,4.627,0,0,0-2.62-4.617l5.365,2.1a4.643,4.643,0,0,1,2.62,4.617,7.606,7.606,0,0,1-.055.791" transform="translate(-134.091 -369.96)"/>
        </g>
      </g>
      <g id="Group_9679" data-name="Group 9679" transform="translate(37.687 157.543)">
        <g id="Group_9678" data-name="Group 9678" class="cls-20">
          <path id="Path_18719" data-name="Path 18719" class="cls-21" d="M137.875,371.688l-5.365-2.1a3.729,3.729,0,0,1,.944-.071l5.365,2.1a4,4,0,0,0-.944.071" transform="translate(-132.51 -369.51)"/>
          <path id="Path_18720" data-name="Path 18720" class="cls-22" d="M139.605,371.621l-5.365-2.1a3.758,3.758,0,0,1,.666.093l5.365,2.1a3.312,3.312,0,0,0-.666-.093" transform="translate(-133.296 -369.515)"/>
          <path id="Path_18721" data-name="Path 18721" class="cls-23" d="M140.825,371.791l-5.365-2.1a3.5,3.5,0,0,1,.48.147l5.365,2.1a3.285,3.285,0,0,0-.48-.147" transform="translate(-133.85 -369.592)"/>
        </g>
      </g>
      <g id="Group_9681" data-name="Group 9681" transform="translate(32.818 157.62)">
        <g id="Group_9680" data-name="Group 9680" class="cls-24" transform="translate(0 0)">
          <path id="Path_18723" data-name="Path 18723" class="cls-25" d="M131.574,387.885l-5.365-2.1a4.638,4.638,0,0,1-2.62-4.617,7.712,7.712,0,0,1,.055-.8l5.365,2.1a6.441,6.441,0,0,0-.055.8,4.627,4.627,0,0,0,2.62,4.617" transform="translate(-123.589 -374.519)"/>
          <path id="Path_18724" data-name="Path 18724" class="cls-26" d="M129.055,381.723l-5.365-2.1a7.079,7.079,0,0,1,.175-.911l5.365,2.1a7.077,7.077,0,0,0-.175.911" transform="translate(-123.635 -373.765)"/>
          <path id="Path_18725" data-name="Path 18725" class="cls-27" d="M129.375,380.184l-5.365-2.1c.066-.251.142-.5.229-.742l5.365,2.1c-.087.246-.164.491-.229.742" transform="translate(-123.78 -373.143)"/>
          <path id="Path_18726" data-name="Path 18726" class="cls-28" d="M129.8,378.887l-5.365-2.1a7.17,7.17,0,0,1,.284-.666l5.365,2.1c-.1.218-.2.442-.284.666" transform="translate(-123.971 -372.589)"/>
          <path id="Path_18727" data-name="Path 18727" class="cls-29" d="M130.315,377.694l-5.365-2.1c.1-.218.218-.426.338-.633l5.365,2.1c-.12.207-.235.415-.338.633" transform="translate(-124.207 -372.062)"/>
          <path id="Path_18728" data-name="Path 18728" class="cls-23" d="M130.935,376.543l-5.365-2.1c.131-.213.267-.42.415-.622l5.365,2.1c-.147.2-.284.409-.415.622" transform="translate(-124.489 -371.544)"/>
          <path id="Path_18729" data-name="Path 18729" class="cls-22" d="M131.7,375.4l-5.365-2.1a6.816,6.816,0,0,1,.54-.639l5.365,2.1a6.168,6.168,0,0,0-.54.639" transform="translate(-124.834 -371.017)"/>
          <path id="Path_18730" data-name="Path 18730" class="cls-21" d="M132.685,374.115l-5.365-2.1a6.393,6.393,0,0,1,.873-.764l5.365,2.1a6.394,6.394,0,0,0-.873.764" transform="translate(-125.283 -370.377)"/>
          <path id="Path_18731" data-name="Path 18731" class="cls-30" d="M134.285,372.634l-5.365-2.1a4.929,4.929,0,0,1,1.916-.862l5.365,2.1a4.929,4.929,0,0,0-1.916.862" transform="translate(-126.01 -369.659)"/>
          <path id="Path_18732" data-name="Path 18732" class="cls-21" d="M137.8,371.762l-5.365-2.1c.016-.005.033-.005.044-.011l5.365,2.1c-.016.005-.033.005-.044.011" transform="translate(-127.605 -369.65)"/>
        </g>
      </g>
      <g id="Group_9682" data-name="Group 9682" transform="translate(38.183 159.645)">
        <path id="Path_18734" data-name="Path 18734" class="cls-31" d="M138.288,373.437c2.647-.513,4.754,1.626,4.71,4.787s-2.221,6.135-4.868,6.648-4.754-1.637-4.71-4.786S135.641,373.95,138.288,373.437Z" transform="translate(-133.419 -373.361)"/>
      </g>
      <g id="Group_9683" data-name="Group 9683" transform="translate(71.247 9.297)">
        <path id="Path_18735" data-name="Path 18735" class="cls-17" d="M199.365,239.5,194,237.4,195.927,97.89l5.371,2.1Z" transform="translate(-194 -97.89)"/>
      </g>
      <g id="Group_9684" data-name="Group 9684" transform="translate(4.187 148.805)">
        <path id="Path_18736" data-name="Path 18736" class="cls-32" d="M76.5,368.64l-5.365-2.1L138.191,353.5l5.365,2.107Z" transform="translate(-71.13 -353.5)"/>
      </g>
      <g id="Group_9685" data-name="Group 9685" transform="translate(6.113 9.297)">
        <path id="Path_18737" data-name="Path 18737" class="cls-33" d="M80.031,113.025l-5.371-2.1L141.721,97.89l5.371,2.1Z" transform="translate(-74.66 -97.89)"/>
      </g>
      <g id="Group_9686" data-name="Group 9686" transform="translate(9.552 11.398)">
        <path id="Path_18738" data-name="Path 18738" class="cls-34" d="M149.953,101.74l-1.932,139.514L80.96,254.287l1.932-139.514Z" transform="translate(-80.96 -101.74)"/>
      </g>
      <path id="Path_18739" data-name="Path 18739" class="cls-35" d="M147.068,84.763,79.063,97.982c-1.954.382-3.569,2.582-3.6,4.918L73.3,259.119c-.033,2.331,1.528,3.919,3.482,3.537l68.005-13.219c1.959-.382,3.569-2.582,3.6-4.918L150.55,88.3C150.583,85.969,149.027,84.381,147.068,84.763Zm-36.246,169c-2.647.513-4.754-1.637-4.71-4.787s2.221-6.135,4.868-6.648,4.754,1.626,4.71,4.787S113.469,253.247,110.822,253.76Zm33.719-20.243L77.48,246.55l1.927-139.514L146.468,94Z" transform="translate(-67.929 -82.605)"/>
      <path id="Path_18740" data-name="Path 18740" class="cls-36" d="M138.778,81.033a2.664,2.664,0,0,0-.355-.109h0a2.389,2.389,0,0,0-.448-.06c-.016,0-.027-.005-.044-.005a1.132,1.132,0,0,0-.191.005h-.126a3.272,3.272,0,0,0-.388.049l-68,13.219c-1.954.382-3.569,2.582-3.6,4.918L63.46,255.269a3.435,3.435,0,0,0,1.938,3.417l5.365,2.1a3.427,3.427,0,0,1-1.938-3.417l2.161-156.22c.033-2.33,1.648-4.535,3.6-4.918l68.005-13.219a3.275,3.275,0,0,1,.388-.049h.12c.082,0,.158,0,.235.005a3.045,3.045,0,0,1,.448.06,2.667,2.667,0,0,1,.355.109Z" transform="translate(-63.459 -80.856)"/>
    </g>
    <g id="Group_9667" data-name="Group 9667" transform="translate(20257.029 11030.506)">
      <g id="Group_9665-2" data-name="Group 9665" transform="translate(4.581 1.728)">
        <path id="Path_18695-2" data-name="Path 18695" class="cls-6" d="M35.578,168.786c17.551-3.415,31.548,10.806,31.253,31.758s-14.755,40.7-32.306,44.11S2.99,233.849,3.271,212.9C3.58,191.944,18.04,172.187,35.578,168.786Z" transform="translate(-3.267 -168.28)"/>
      </g>
      <path id="Path_18696-2" data-name="Path 18696" class="cls-7" d="M4.761,210.317c.042-.59.112-1.18.169-1.771.028-.211.042-.422.07-.632q.169-1.328.422-2.656c.028-.183.07-.351.112-.534.155-.815.337-1.616.548-2.417l.084-.337c.2-.745.408-1.49.632-2.22.056-.2.126-.379.183-.562.183-.562.365-1.124.562-1.672.084-.225.169-.464.253-.689.183-.506.379-1,.59-1.49.084-.2.155-.379.239-.576.281-.674.59-1.335.9-2,.056-.112.112-.211.155-.309.267-.548.548-1.1.829-1.63l.337-.632c.239-.436.492-.871.745-1.293l.379-.632c.323-.534.66-1.054,1-1.574.07-.112.141-.211.211-.323.408-.618.843-1.223,1.279-1.813.1-.141.211-.267.309-.408.436-.562.871-1.124,1.321-1.658.112-.126.211-.267.323-.393.52-.618,1.068-1.223,1.616-1.8.169-.183.351-.365.52-.534.253-.253.506-.52.759-.773.2-.2.393-.379.59-.562.253-.239.52-.478.773-.717.211-.183.408-.365.618-.534.267-.225.534-.45.8-.66.211-.169.422-.337.646-.506.267-.211.548-.422.815-.618.225-.169.436-.323.66-.492.253-.183.506-.351.759-.52s.464-.309.7-.464.52-.323.787-.478c.239-.141.478-.3.717-.422.267-.155.534-.3.8-.436.239-.126.492-.267.731-.393.267-.141.548-.267.815-.393s.492-.239.745-.351c.281-.126.548-.239.829-.351.253-.1.506-.211.759-.309.281-.112.562-.211.857-.309.253-.084.506-.183.759-.267.3-.1.576-.169.871-.253.253-.07.506-.155.759-.225l.885-.211.927-.211c.59-.112,1.166-.211,1.743-.281.183-.028.379-.042.562-.056.393-.042.773-.084,1.166-.112.225-.014.436-.014.646-.028.351-.014.7-.028,1.054-.028.225,0,.436,0,.66.014l.815.042c.492.028.984.07,1.461.141.2.028.408.042.6.07.66.1,1.321.211,1.967.365.365.084.717.2,1.082.3.183.056.365.1.548.155.534.169,1.068.351,1.574.548l-4.609-1.8c-.52-.2-1.04-.393-1.574-.548-.183-.056-.365-.1-.534-.141-.351-.1-.7-.211-1.068-.3H43c-.646-.155-1.307-.267-1.967-.365-.2-.028-.408-.042-.6-.07-.478-.056-.97-.1-1.461-.126a3.2,3.2,0,0,0-.365-.028h-.45c-.225,0-.436-.014-.66-.014-.351,0-.7.014-1.054.028-.211.014-.436.014-.646.028-.379.028-.773.07-1.166.112-.183.014-.365.028-.562.056-.576.07-1.152.169-1.742.281-.1.014-.2.042-.3.056-.211.042-.422.1-.632.155-.3.07-.59.126-.885.211-.253.07-.52.141-.773.225-.3.084-.576.169-.871.253-.253.084-.506.169-.759.267-.281.1-.562.2-.843.309-.253.1-.506.2-.759.309-.281.112-.562.225-.829.351s-.492.225-.745.351-.548.253-.815.393c-.239.126-.492.253-.731.393-.267.141-.534.3-.8.436-.239.141-.478.281-.717.436-.267.155-.52.323-.773.478s-.478.309-.7.464c-.253.169-.506.337-.759.52-.1.07-.2.126-.281.2l-.379.3c-.281.211-.548.408-.815.618-.211.169-.422.337-.646.506-.267.225-.534.436-.8.66-.211.183-.422.351-.618.548-.267.239-.52.478-.773.717-.2.183-.393.365-.59.562-.253.253-.506.506-.759.773-.126.141-.267.267-.408.408-.042.042-.084.1-.126.141-.548.59-1.082,1.18-1.616,1.8-.112.126-.211.267-.323.393-.45.548-.885,1.1-1.321,1.658-.07.084-.141.169-.211.267a.854.854,0,0,0-.1.141c-.436.59-.871,1.194-1.279,1.813-.07.112-.141.211-.211.323-.337.52-.675,1.04-1,1.574-.056.084-.112.169-.169.267s-.141.239-.211.365c-.253.436-.492.857-.745,1.307l-.337.632c-.281.534-.562,1.082-.829,1.644-.042.084-.084.169-.126.267-.014.014-.014.028-.028.042-.309.66-.6,1.321-.9,2-.084.2-.155.379-.239.576-.2.492-.393.984-.59,1.49-.042.112-.084.211-.126.323s-.084.239-.126.365c-.2.548-.393,1.11-.562,1.672-.056.183-.126.379-.183.562-.225.731-.436,1.475-.632,2.22-.014.028-.014.07-.028.1a1.191,1.191,0,0,1-.056.239c-.2.8-.379,1.616-.548,2.431-.042.183-.07.351-.112.534-.169.885-.309,1.757-.422,2.656a1.085,1.085,0,0,0-.028.211l-.042.422q-.105.885-.169,1.771c-.014.225-.042.464-.056.689-.056.787-.084,1.588-.1,2.375-.211,14.98,6.9,26.531,17.383,30.634l4.609,1.8c-10.483-4.1-17.58-15.654-17.383-30.634.014-.8.056-1.588.1-2.375C4.719,210.781,4.747,210.556,4.761,210.317Z" transform="translate(-0.007 -167.05)"/>
      <g id="Group_9666-2" data-name="Group 9666" transform="translate(17.289 16.497)">
        <path id="Path_18697-2" data-name="Path 18697" class="cls-8" d="M50.968,202.426l-4.525.885q-.19,1.033-.464,2.024l3.893,1.939-3.19,7-3.893-1.953c-.379.576-.787,1.124-1.209,1.644l2.206,4.258-5.41,4.736-2.206-4.244a15.12,15.12,0,0,1-1.644.843l-.07,5.4-6.183,1.208.07-5.4a12.618,12.618,0,0,1-1.63-.211l-2.333,5.129-5.312-2.642L21.4,217.9a11.731,11.731,0,0,1-1.166-1.194l-3.963,3.471-2.993-5.79,3.963-3.471c-.169-.6-.3-1.223-.408-1.855l-4.525.885.1-7.392,4.525-.885q.19-1.033.464-2.024L13.5,197.69l3.19-7,3.893,1.939c.379-.562.787-1.124,1.209-1.644l-2.206-4.258L25,181.994l2.206,4.258a12.974,12.974,0,0,1,1.644-.843l.07-5.41L35.1,178.79l-.07,5.41a10.561,10.561,0,0,1,1.63.211L39,179.282l5.312,2.656-2.333,5.129a11.735,11.735,0,0,1,1.166,1.194L47.1,184.79l3.007,5.79-3.963,3.471a14.912,14.912,0,0,1,.408,1.855l4.525-.885Zm-19.463,13.2c6.057-1.18,11.073-8.024,11.172-15.275s-4.75-12.169-10.82-11-11.087,8.024-11.186,15.275,4.764,12.183,10.834,11" transform="translate(-12.31 -178.79)"/>
      </g>
    </g>
    <path id="Path_18777" data-name="Path 18777" class="cls-37" d="M19867.732,10852s70.4-35.866,155.867,10.333" transform="translate(0 10)"/>
    <path id="Path_18778" data-name="Path 18778" class="cls-37" d="M19724.734,10966.2s124.865-112.333,300.865-102.733" transform="translate(0 10)"/>
    <path id="Path_18779" data-name="Path 18779" class="cls-37" d="M20290.734,10862.333s-139.268-51.133-266.2,0" transform="translate(0 10)"/>
    <path id="Path_18780" data-name="Path 18780" class="cls-37" d="M20291.1,11020.506s-42.57-149.973-266.57-155.973" transform="translate(0 10)"/>
    <circle id="Ellipse_703" data-name="Ellipse 703" class="cls-8" cx="5" cy="5" r="5" transform="translate(20022 10868)"/>
    <path id="Path_18781" data-name="Path 18781" class="cls-38" d="M19985.756,11184.985l11.467,16.748,24.133-53.467" transform="translate(26.244 -222)"/>
  </g>
</svg>
