<svg xmlns="http://www.w3.org/2000/svg" xmlns:xlink="http://www.w3.org/1999/xlink" viewBox="0 0 1373.493 312.188">
  <defs>
    <style>
      .cls-1 {
        fill: #707070;
      }

      .cls-2 {
        fill: url(#linear-gradient);
      }

      .cls-3 {
        opacity: 0.38;
      }

      .cls-4 {
        fill: #fff;
      }

      .cls-5 {
        opacity: 0.53;
      }

      .cls-6 {
        fill: #ececec;
      }

      .cls-7 {
        fill: #cecece;
      }

      .cls-8 {
        fill: #c4c4c4;
      }

      .cls-9 {
        fill: url(#linear-gradient-2);
      }

      .cls-10 {
        fill: #288ac1;
      }

      .cls-11 {
        fill: #22719c;
      }

      .cls-12 {
        fill: #7d7d7d;
      }

      .cls-13, .cls-16 {
        fill: #0b9299;
      }

      .cls-13, .cls-14, .cls-15 {
        opacity: 0.75;
      }

      .cls-14 {
        fill: #3ef7ee;
      }

      .cls-15 {
        fill: #1dcece;
      }

      .cls-16 {
        opacity: 0.7;
      }

      .cls-17 {
        fill: #1dd5d6;
        opacity: 0.6;
      }

      .cls-18 {
        fill: #5ffff7;
        opacity: 0.8;
      }

      .cls-19 {
        fill: #d9d9d9;
      }

      .cls-20 {
        fill: #626262;
      }

      .cls-21 {
        clip-path: url(#clip-path);
      }

      .cls-22 {
        clip-path: url(#clip-path-2);
      }

      .cls-23 {
        clip-path: url(#clip-path-3);
      }

      .cls-24 {
        clip-path: url(#clip-path-4);
      }

      .cls-25 {
        clip-path: url(#clip-path-5);
      }

      .cls-26 {
        clip-path: url(#clip-path-6);
      }

      .cls-27 {
        clip-path: url(#clip-path-7);
      }

      .cls-28 {
        clip-path: url(#clip-path-8);
      }

      .cls-29 {
        fill: #21729f;
      }

      .cls-30 {
        clip-path: url(#clip-path-9);
      }

      .cls-31 {
        clip-path: url(#clip-path-10);
      }

      .cls-32 {
        clip-path: url(#clip-path-11);
      }

      .cls-33 {
        clip-path: url(#clip-path-12);
      }

      .cls-34 {
        clip-path: url(#clip-path-13);
      }

      .cls-35 {
        clip-path: url(#clip-path-14);
      }

      .cls-36 {
        clip-path: url(#clip-path-15);
      }

      .cls-37 {
        clip-path: url(#clip-path-16);
      }

      .cls-38 {
        clip-path: url(#clip-path-17);
      }

      .cls-39 {
        clip-path: url(#clip-path-18);
      }

      .cls-40 {
        clip-path: url(#clip-path-19);
      }

      .cls-41 {
        clip-path: url(#clip-path-20);
      }
    </style>
    <linearGradient id="linear-gradient" x1="1" y1="0.574" x2="0" y2="0.565" gradientUnits="objectBoundingBox">
      <stop offset="0" stop-color="#33a2bd"/>
      <stop offset="1" stop-color="#34bcc4"/>
    </linearGradient>
    <linearGradient id="linear-gradient-2" x1="0.498" y1="1" x2="0.498" y2="0.001" gradientUnits="objectBoundingBox">
      <stop offset="0" stop-color="#fe703f"/>
      <stop offset="0.59" stop-color="#d9592d"/>
      <stop offset="1" stop-color="#fe703f"/>
    </linearGradient>
    <clipPath id="clip-path">
      <path id="Path_18546" data-name="Path 18546" class="cls-1" d="M213.1,19.53l2.33-1.33a20.481,20.481,0,0,1,3.03.02l-2.33,1.33A20.48,20.48,0,0,0,213.1,19.53Z"/>
    </clipPath>
    <clipPath id="clip-path-2">
      <path id="Path_18548" data-name="Path 18548" class="cls-1" d="M256.8,85.84l2.33-1.33a25.264,25.264,0,0,1-1.21,2.95l-2.33,1.33A22.443,22.443,0,0,0,256.8,85.84Z"/>
    </clipPath>
    <clipPath id="clip-path-3">
      <path id="Path_18550" data-name="Path 18550" class="cls-1" d="M237.06,29.79l2.33-1.33q1.575,1.41,3.08,2.96l-2.33,1.33Q238.64,31.2,237.06,29.79Z"/>
    </clipPath>
    <clipPath id="clip-path-4">
      <path id="Path_18552" data-name="Path 18552" class="cls-1" d="M255.17,57.25l2.33-1.33c.49,1.39.93,2.79,1.31,4.18l-2.33,1.33C256.09,60.04,255.66,58.64,255.17,57.25Z"/>
    </clipPath>
    <clipPath id="clip-path-5">
      <path id="Path_18546-2" data-name="Path 18546" class="cls-1" d="M213.1,18.606l.766-.437a6.732,6.732,0,0,1,1,.007l-.766.437A6.732,6.732,0,0,0,213.1,18.606Z" transform="translate(-213.1 -18.153)"/>
    </clipPath>
    <clipPath id="clip-path-6">
      <path id="Path_18548-2" data-name="Path 18548" class="cls-1" d="M255.988,84.947l.766-.437a8.3,8.3,0,0,1-.4.97l-.766.437A7.375,7.375,0,0,0,255.988,84.947Z" transform="translate(-255.59 -84.51)"/>
    </clipPath>
    <clipPath id="clip-path-7">
      <path id="Path_18550-2" data-name="Path 18550" class="cls-1" d="M237.06,28.9l.766-.437q.518.463,1.012.973l-.766.437Q237.579,29.362,237.06,28.9Z" transform="translate(-237.06 -28.46)"/>
    </clipPath>
    <clipPath id="clip-path-8">
      <path id="Path_18552-2" data-name="Path 18552" class="cls-1" d="M255.17,56.357l.766-.437c.161.457.306.917.431,1.374l-.766.437C255.472,57.274,255.331,56.814,255.17,56.357Z" transform="translate(-255.17 -55.92)"/>
    </clipPath>
    <clipPath id="clip-path-9">
      <path id="Path_18546-3" data-name="Path 18546" class="cls-1" d="M213.1,18.961l1.367-.78a12.018,12.018,0,0,1,1.778.012l-1.367.78A12.017,12.017,0,0,0,213.1,18.961Z" transform="translate(-213.1 -18.153)"/>
    </clipPath>
    <clipPath id="clip-path-10">
      <path id="Path_18548-3" data-name="Path 18548" class="cls-1" d="M256.3,85.29l1.367-.78a14.811,14.811,0,0,1-.71,1.731l-1.367.78A13.171,13.171,0,0,0,256.3,85.29Z" transform="translate(-255.59 -84.51)"/>
    </clipPath>
    <clipPath id="clip-path-11">
      <path id="Path_18550-3" data-name="Path 18550" class="cls-1" d="M237.06,29.24l1.367-.78q.924.827,1.807,1.737l-1.367.78Q237.987,30.071,237.06,29.24Z" transform="translate(-237.06 -28.46)"/>
    </clipPath>
    <clipPath id="clip-path-12">
      <path id="Path_18552-3" data-name="Path 18552" class="cls-1" d="M255.17,56.7l1.367-.78c.288.816.546,1.637.769,2.453l-1.367.78C255.71,58.338,255.458,57.516,255.17,56.7Z" transform="translate(-255.17 -55.92)"/>
    </clipPath>
    <clipPath id="clip-path-13">
      <path id="Path_18546-4" data-name="Path 18546" class="cls-1" d="M213.1,19.143l1.675-.956a14.72,14.72,0,0,1,2.178.014l-1.675.956A14.719,14.719,0,0,0,213.1,19.143Z" transform="translate(-213.1 -18.153)"/>
    </clipPath>
    <clipPath id="clip-path-14">
      <path id="Path_18548-4" data-name="Path 18548" class="cls-1" d="M256.46,85.466l1.675-.956a18.14,18.14,0,0,1-.87,2.12l-1.675.956A16.127,16.127,0,0,0,256.46,85.466Z" transform="translate(-255.59 -84.51)"/>
    </clipPath>
    <clipPath id="clip-path-15">
      <path id="Path_18550-4" data-name="Path 18550" class="cls-1" d="M237.06,29.416l1.675-.956q1.132,1.013,2.214,2.127l-1.675.956Q238.2,30.433,237.06,29.416Z" transform="translate(-237.06 -28.46)"/>
    </clipPath>
    <clipPath id="clip-path-16">
      <path id="Path_18552-4" data-name="Path 18552" class="cls-1" d="M255.17,56.876l1.675-.956c.352,1,.668,2.005.941,3l-1.674.956C255.831,58.881,255.522,57.875,255.17,56.876Z" transform="translate(-255.17 -55.92)"/>
    </clipPath>
    <clipPath id="clip-path-17">
      <path id="Path_18546-5" data-name="Path 18546" class="cls-1" d="M213.1,18.963l1.371-.783a12.052,12.052,0,0,1,1.783.012l-1.371.783A12.052,12.052,0,0,0,213.1,18.963Z" transform="translate(-213.1 -18.153)"/>
    </clipPath>
    <clipPath id="clip-path-18">
      <path id="Path_18548-5" data-name="Path 18548" class="cls-1" d="M256.3,85.293l1.371-.783a14.856,14.856,0,0,1-.712,1.736l-1.371.783A13.2,13.2,0,0,0,256.3,85.293Z" transform="translate(-255.59 -84.51)"/>
    </clipPath>
    <clipPath id="clip-path-19">
      <path id="Path_18550-5" data-name="Path 18550" class="cls-1" d="M237.06,29.243l1.371-.783q.927.83,1.813,1.742l-1.371.783Q237.99,30.075,237.06,29.243Z" transform="translate(-237.06 -28.46)"/>
    </clipPath>
    <clipPath id="clip-path-20">
      <path id="Path_18552-5" data-name="Path 18552" class="cls-1" d="M255.17,56.7l1.371-.783c.288.818.547,1.642.771,2.46l-1.371.783C255.711,58.345,255.458,57.521,255.17,56.7Z" transform="translate(-255.17 -55.92)"/>
    </clipPath>
  </defs>
  <g id="Group_9707" data-name="Group 9707" transform="translate(-17882 -10832)">
    <rect id="Rectangle_5994" data-name="Rectangle 5994" class="cls-2" width="1373.493" height="312.189" transform="translate(17882 10832)"/>
    <g id="Group_9513" data-name="Group 9513" class="cls-3" transform="translate(18372 10852.007)">
      <path id="Path_18493" data-name="Path 18493" class="cls-4" d="M182.23,273.13C81.75,273.13,0,213.38,0,139.93S81.75,6.72,182.23,6.72,364.46,66.48,364.46,139.93,282.72,273.13,182.23,273.13Zm0-263.02C83.62,10.11,3.4,68.35,3.4,139.93S83.63,269.74,182.24,269.74s178.84-58.23,178.84-129.81S280.85,10.11,182.23,10.11Z"/>
    </g>
    <g id="Group_9605" data-name="Group 9605" class="cls-5" transform="translate(18372 10852.007)">
      <path id="Path_18579" data-name="Path 18579" class="cls-4" d="M242.47,31.42l.33-.11c-.22-.07-.43-.14-.65-.21.1.1.21.2.31.31A.01.01,0,0,0,242.47,31.42Z"/>
      <g id="Group_9603" data-name="Group 9603">
        <path id="Path_18580" data-name="Path 18580" class="cls-4" d="M264.52,40c-.92-.44-1.84-.88-2.77-1.31l-.02.62c.93.43,1.85.87,2.77,1.31Z"/>
        <path id="Path_18581" data-name="Path 18581" class="cls-4" d="M288.41,54.32l-.03.67-.02.01c18.55,13.76,32.1,31.1,38.43,50.45l.74.43C321.21,86.07,307.4,68.33,288.41,54.32Z"/>
      </g>
      <g id="Group_9604" data-name="Group 9604">
        <path id="Path_18582" data-name="Path 18582" class="cls-4" d="M138.31,27.46v-.58a184.622,184.622,0,0,0-21.28,6.18v.6A182.123,182.123,0,0,1,138.31,27.46Z"/>
        <path id="Path_18583" data-name="Path 18583" class="cls-4" d="M329.39,112.72l-.04.02-.61-.35a79.26,79.26,0,0,1,2.09,18.05c0,59.48-66.55,107.87-148.34,107.87S34.14,189.92,34.14,130.44C34.14,98.5,53.33,69.77,83.76,50l-.55-.31C52.77,69.55,33.57,98.4,33.57,130.44c0,59.79,66.8,108.43,148.91,108.43s148.91-48.64,148.91-108.43A79.893,79.893,0,0,0,329.39,112.72Z"/>
      </g>
    </g>
    <g id="Group_9606" data-name="Group 9606" transform="translate(345 273)">
      <path id="Path_18584" data-name="Path 18584" class="cls-1" d="M78.95,37.77,15.04.87A6.388,6.388,0,0,0,8.47.94H8.46L2.71,4.3,5.14,6.25l.22-.03c0,.09-.02.17-.02.25V177.38a13.548,13.548,0,0,0,6.78,11.74l64.99,37.52a6.723,6.723,0,0,0,1.06.49l-1.05,1.36,1.5,1.3,5.4-3.12h0a6.916,6.916,0,0,0,3.56-6.08V52.74A17.247,17.247,0,0,0,78.95,37.77Z" transform="translate(18147 10565.005)"/>
      <path id="Path_18585" data-name="Path 18585" class="cls-6" d="M0,180.48V9.57a6.466,6.466,0,0,1,9.7-5.6L73.6,40.86a17.289,17.289,0,0,1,8.64,14.97V223.7a6.986,6.986,0,0,1-10.47,6.05L6.78,192.22A13.548,13.548,0,0,1,0,180.48Z" transform="translate(18147 10565.005)"/>
      <path id="Path_18586" data-name="Path 18586" class="cls-7" d="M3.84,174.26V8.05L77.21,50.39v166.2Z" transform="translate(18147 10565.005)"/>
      <path id="Path_18587" data-name="Path 18587" class="cls-8" d="M28.85,197.89h0a3.825,3.825,0,0,0,1.9,3.3l11.34,6.55a1.388,1.388,0,0,0,2.08-1.2h0a5.363,5.363,0,0,0-2.68-4.64l-9.79-5.66A1.9,1.9,0,0,0,28.85,197.89Z" transform="translate(18147 10565.005)"/>
      <path id="Path_18588" data-name="Path 18588" class="cls-4" d="M38.62,24.49h0a1.26,1.26,0,0,0,.62,1.08l6.49,3.76a.454.454,0,0,0,.68-.39h0a1.747,1.747,0,0,0-.88-1.52l-5.98-3.47A.619.619,0,0,0,38.62,24.49Z" transform="translate(18147 10565.005)"/>
    </g>
    <g id="Group_9574" data-name="Group 9574" transform="translate(18364 10911.007)">
      <g id="Group_9517" data-name="Group 9517">
        <g id="Group_9514" data-name="Group 9514">
          <path id="Path_18494" data-name="Path 18494" class="cls-9" d="M213.93,107.59l.78-.46-.19,4.8-.78.46Z"/>
        </g>
        <g id="Group_9515" data-name="Group 9515">
          <path id="Path_18495" data-name="Path 18495" class="cls-9" d="M198.61,98.75l.78-.46,15.32,8.84-.78.46Z"/>
        </g>
        <g id="Group_9516" data-name="Group 9516">
          <path id="Path_18496" data-name="Path 18496" class="cls-9" d="M213.93,107.59l-.19,4.8-15.31-8.84.18-4.8Z"/>
        </g>
      </g>
      <g id="Group_9521" data-name="Group 9521">
        <g id="Group_9518" data-name="Group 9518">
          <path id="Path_18497" data-name="Path 18497" class="cls-9" d="M246.06,126.14l.78-.46-.19,4.8-.78.46Z"/>
        </g>
        <g id="Group_9519" data-name="Group 9519">
          <path id="Path_18498" data-name="Path 18498" class="cls-9" d="M220.3,111.27l.78-.46,25.76,14.87-.78.46Z"/>
        </g>
        <g id="Group_9520" data-name="Group 9520">
          <path id="Path_18499" data-name="Path 18499" class="cls-9" d="M246.06,126.14l-.19,4.8-25.76-14.87.19-4.8Z"/>
        </g>
      </g>
      <g id="Group_9525" data-name="Group 9525">
        <g id="Group_9522" data-name="Group 9522">
          <path id="Path_18500" data-name="Path 18500" class="cls-9" d="M259.56,117.34l.78-.46-.19,4.8-.78.45Z"/>
        </g>
        <g id="Group_9523" data-name="Group 9523">
          <path id="Path_18501" data-name="Path 18501" class="cls-9" d="M199.25,82.52l.78-.46,60.31,34.82-.78.46Z"/>
        </g>
        <g id="Group_9524" data-name="Group 9524">
          <path id="Path_18502" data-name="Path 18502" class="cls-9" d="M259.56,117.34l-.19,4.79-60.3-34.81.18-4.8Z"/>
        </g>
      </g>
      <g id="Group_9529" data-name="Group 9529">
        <g id="Group_9526" data-name="Group 9526">
          <path id="Path_18503" data-name="Path 18503" class="cls-9" d="M295.09,154.45l.78-.46-.19,4.8-.78.46Z"/>
        </g>
        <g id="Group_9527" data-name="Group 9527">
          <path id="Path_18504" data-name="Path 18504" class="cls-9" d="M269.32,139.57l.78-.46,25.77,14.88-.78.46Z"/>
        </g>
        <g id="Group_9528" data-name="Group 9528">
          <path id="Path_18505" data-name="Path 18505" class="cls-9" d="M295.09,154.45l-.19,4.8-25.77-14.88.19-4.8Z"/>
        </g>
      </g>
      <g id="Group_9533" data-name="Group 9533">
        <g id="Group_9530" data-name="Group 9530">
          <path id="Path_18506" data-name="Path 18506" class="cls-9" d="M314.45,149.03l.78-.46-.19,4.8-.77.46Z"/>
        </g>
        <g id="Group_9531" data-name="Group 9531">
          <path id="Path_18507" data-name="Path 18507" class="cls-9" d="M263.75,119.75l.77-.45,50.71,29.27-.78.46Z"/>
        </g>
        <g id="Group_9532" data-name="Group 9532">
          <path id="Path_18508" data-name="Path 18508" class="cls-9" d="M314.45,149.03l-.18,4.8-50.71-29.28.19-4.8Z"/>
        </g>
      </g>
      <g id="Group_9537" data-name="Group 9537">
        <g id="Group_9534" data-name="Group 9534">
          <path id="Path_18509" data-name="Path 18509" class="cls-9" d="M299.06,123.54l.77-.46-.19,4.8-.77.46Z"/>
        </g>
        <g id="Group_9535" data-name="Group 9535">
          <path id="Path_18510" data-name="Path 18510" class="cls-9" d="M199.89,66.29l.78-.46,99.16,57.25-.77.46Z"/>
        </g>
        <g id="Group_9536" data-name="Group 9536">
          <path id="Path_18511" data-name="Path 18511" class="cls-9" d="M299.06,123.54l-.19,4.8L199.71,71.09l.18-4.8Z"/>
        </g>
      </g>
      <g id="Group_9541" data-name="Group 9541">
        <g id="Group_9538" data-name="Group 9538">
          <path id="Path_18512" data-name="Path 18512" class="cls-9" d="M232.35,68.43l.78-.46-.19,4.81-.77.46Z"/>
        </g>
        <g id="Group_9539" data-name="Group 9539">
          <path id="Path_18513" data-name="Path 18513" class="cls-9" d="M200.53,50.06l.78-.46,31.82,18.37-.78.46Z"/>
        </g>
        <g id="Group_9540" data-name="Group 9540">
          <path id="Path_18514" data-name="Path 18514" class="cls-9" d="M232.35,68.43l-.18,4.81L200.34,54.86l.19-4.8Z"/>
        </g>
      </g>
      <g id="Group_9545" data-name="Group 9545">
        <g id="Group_9542" data-name="Group 9542">
          <path id="Path_18515" data-name="Path 18515" class="cls-9" d="M292.64,103.24l.78-.46-.19,4.81-.78.45Z"/>
        </g>
        <g id="Group_9543" data-name="Group 9543">
          <path id="Path_18516" data-name="Path 18516" class="cls-9" d="M239.73,72.69l.78-.46,52.91,30.55-.78.46Z"/>
        </g>
        <g id="Group_9544" data-name="Group 9544">
          <path id="Path_18517" data-name="Path 18517" class="cls-9" d="M292.64,103.24l-.19,4.8L239.54,77.49l.19-4.8Z"/>
        </g>
      </g>
      <g id="Group_9549" data-name="Group 9549">
        <g id="Group_9546" data-name="Group 9546">
          <path id="Path_18518" data-name="Path 18518" class="cls-9" d="M251.08,62.65l.78-.46-.19,4.8-.78.46Z"/>
        </g>
        <g id="Group_9547" data-name="Group 9547">
          <path id="Path_18519" data-name="Path 18519" class="cls-9" d="M201.17,33.84l.78-.46,49.91,28.81-.78.46Z"/>
        </g>
        <g id="Group_9548" data-name="Group 9548">
          <path id="Path_18520" data-name="Path 18520" class="cls-9" d="M251.08,62.65l-.19,4.8L200.98,38.63l.19-4.79Z"/>
        </g>
      </g>
      <g id="Group_9553" data-name="Group 9553">
        <g id="Group_9550" data-name="Group 9550">
          <path id="Path_18521" data-name="Path 18521" class="cls-9" d="M306.19,94.46l.77-.45-.19,4.79-.77.46Z"/>
        </g>
        <g id="Group_9551" data-name="Group 9551">
          <path id="Path_18522" data-name="Path 18522" class="cls-9" d="M256.28,65.65l.78-.46,49.9,28.82-.77.45Z"/>
        </g>
        <g id="Group_9552" data-name="Group 9552">
          <path id="Path_18523" data-name="Path 18523" class="cls-9" d="M306.19,94.46l-.19,4.8L256.1,70.45l.18-4.8Z"/>
        </g>
      </g>
      <g id="Group_9557" data-name="Group 9557">
        <g id="Group_9554" data-name="Group 9554">
          <path id="Path_18524" data-name="Path 18524" class="cls-9" d="M292.87,70.18l.78-.46-.19,4.8-.78.46Z"/>
        </g>
        <g id="Group_9555" data-name="Group 9555">
          <path id="Path_18525" data-name="Path 18525" class="cls-9" d="M201.81,17.6l.78-.45,91.06,52.57-.78.46Z"/>
        </g>
        <g id="Group_9556" data-name="Group 9556">
          <path id="Path_18526" data-name="Path 18526" class="cls-9" d="M292.87,70.18l-.19,4.8L201.62,22.4l.19-4.8Z"/>
        </g>
      </g>
      <g id="Group_9561" data-name="Group 9561">
        <g id="Group_9558" data-name="Group 9558">
          <path id="Path_18527" data-name="Path 18527" class="cls-9" d="M318.67,134.86l.78-.46-.19,4.8-.78.46Z"/>
        </g>
        <g id="Group_9559" data-name="Group 9559">
          <path id="Path_18528" data-name="Path 18528" class="cls-9" d="M304.15,126.48l.77-.46,14.53,8.38-.78.46Z"/>
        </g>
        <g id="Group_9560" data-name="Group 9560">
          <path id="Path_18529" data-name="Path 18529" class="cls-9" d="M318.67,134.86l-.19,4.8-14.52-8.38.19-4.8Z"/>
        </g>
      </g>
      <g id="Group_9565" data-name="Group 9565">
        <g id="Group_9562" data-name="Group 9562">
          <path id="Path_18530" data-name="Path 18530" class="cls-9" d="M329.54,107.95l.77-.46-.19,4.79-.77.46Z"/>
        </g>
        <g id="Group_9563" data-name="Group 9563">
          <path id="Path_18531" data-name="Path 18531" class="cls-9" d="M313.47,98.67l.78-.46,16.06,9.28-.77.46Z"/>
        </g>
        <g id="Group_9564" data-name="Group 9564">
          <path id="Path_18532" data-name="Path 18532" class="cls-9" d="M329.54,107.95l-.19,4.79-16.06-9.27.18-4.8Z"/>
        </g>
      </g>
      <g id="Group_9569" data-name="Group 9569">
        <g id="Group_9566" data-name="Group 9566">
          <path id="Path_18533" data-name="Path 18533" class="cls-9" d="M261.12,35.25l.78-.46-.19,4.8-.78.46Z"/>
        </g>
        <g id="Group_9567" data-name="Group 9567">
          <path id="Path_18534" data-name="Path 18534" class="cls-9" d="M202.45,1.37l.78-.46L261.9,34.79l-.78.46Z"/>
        </g>
        <g id="Group_9568" data-name="Group 9568">
          <path id="Path_18535" data-name="Path 18535" class="cls-9" d="M261.12,35.25l-.19,4.8L202.26,6.18l.19-4.81Z"/>
        </g>
      </g>
      <g id="Group_9573" data-name="Group 9573">
        <g id="Group_9570" data-name="Group 9570">
          <path id="Path_18536" data-name="Path 18536" class="cls-9" d="M287.79,50.65l.78-.46-.19,4.8-.78.46Z"/>
        </g>
        <g id="Group_9571" data-name="Group 9571">
          <path id="Path_18537" data-name="Path 18537" class="cls-9" d="M264.62,37.27l.78-.46,23.17,13.38-.78.46Z"/>
        </g>
        <g id="Group_9572" data-name="Group 9572">
          <path id="Path_18538" data-name="Path 18538" class="cls-9" d="M287.79,50.65l-.19,4.8L264.43,42.07l.19-4.8Z"/>
        </g>
      </g>
    </g>
    <g id="Group_9654" data-name="Group 9654" transform="translate(18474.502 10912.044)">
      <g id="Group_9645" data-name="Group 9645" transform="translate(54.809 12.547)">
        <path id="Path_18682" data-name="Path 18682" class="cls-10" d="M188.376,30.57v52.9a1.577,1.577,0,0,1-.78,1.367l-4.983,2.873c-.066.037-.127.078-.205.115a1.641,1.641,0,0,1-.677.152V34.4Z" transform="translate(-175.072 -30.57)"/>
        <path id="Path_18683" data-name="Path 18683" class="cls-11" d="M172.168,34.4V87.983a1.483,1.483,0,0,1-.628-.127,1.148,1.148,0,0,1-.279-.152l-4.971-2.861a1.577,1.577,0,0,1-.78-1.367V30.57Z" transform="translate(-165.51 -30.57)"/>
      </g>
      <g id="Group_9646" data-name="Group 9646" transform="translate(27.534 0.232)">
        <path id="Path_18684" data-name="Path 18684" class="cls-10" d="M158.365,11.056C153.386,2.666,145-1.554,139.644,1.627L122.26,11.688l18.209,30.268,17.2-9.95C163.032,28.825,163.34,19.446,158.365,11.056Z" transform="translate(-112.738 -0.567)"/>
        <ellipse id="Ellipse_699" data-name="Ellipse 699" class="cls-12" cx="11.284" cy="17.663" rx="11.284" ry="17.663" transform="translate(0 16.769) rotate(-30.684)"/>
      </g>
      <g id="Group_9647" data-name="Group 9647" transform="translate(12.714 -0.002)">
        <path id="Path_18685" data-name="Path 18685" class="cls-11" d="M136.466,13C130.3,2.6,119.907-2.632,113.262,1.312L91.72,13.782,114.288,51.3l21.32-12.335C142.253,35.024,142.635,23.4,136.466,13Z" transform="translate(-79.913 0.002)"/>
        <ellipse id="Ellipse_700" data-name="Ellipse 700" class="cls-6" cx="13.989" cy="21.891" rx="13.989" ry="21.891" transform="translate(0 20.788) rotate(-30.684)"/>
      </g>
      <path id="Path_18686" data-name="Path 18686" class="cls-10" d="M76.284,44.356c-6.071-10.229-16.292-15.38-22.831-11.5a59.67,59.67,0,0,1-26.2,7.233C22.811,51.773,40.014,90.5,54.479,91.224,63.436,76.238,75.438,69.9,75.438,69.9,81.977,66.025,82.355,54.585,76.284,44.356Z" transform="translate(-28.773 -18.608)"/>
      <ellipse id="Ellipse_701" data-name="Ellipse 701" class="cls-10" cx="18.845" cy="29.493" rx="18.845" ry="29.493" transform="translate(-22.269 32.705) rotate(-30.684)"/>
      <ellipse id="Ellipse_702" data-name="Ellipse 702" class="cls-11" cx="17.396" cy="27.227" rx="17.396" ry="27.227" transform="translate(-19.932 34.033) rotate(-30.684)"/>
      <g id="Group_9648" data-name="Group 9648" transform="translate(1.777 32.016)">
        <path id="Path_18687" data-name="Path 18687" class="cls-6" d="M60.853,85.676A41.17,41.17,0,0,0,54.983,78L40.44,89.169l7.6,12.63L64.97,95.117A40.989,40.989,0,0,0,60.853,85.676Z" transform="translate(-38.746 -78)"/>
        <path id="Path_18688" data-name="Path 18688" class="cls-10" d="M37.79,113.2c2.077,3.5,5.574,5.262,7.811,3.932s2.364-5.242.287-8.739-5.574-5.262-7.811-3.932S35.713,109.7,37.79,113.2Z" transform="translate(-36.313 -93.34)"/>
      </g>
      <g id="Group_9653" data-name="Group 9653" transform="translate(49.388 16.783)">
        <g id="Group_9649" data-name="Group 9649">
          <path id="Path_18689" data-name="Path 18689" class="cls-6" d="M152.942,47.478a.64.64,0,0,1-.32-1.194l9.191-5.307a.64.64,0,1,1,.64,1.108l-9.191,5.307A.635.635,0,0,1,152.942,47.478Z" transform="translate(-152.302 -40.89)"/>
        </g>
        <g id="Group_9650" data-name="Group 9650" transform="translate(1.63 3.161)">
          <path id="Path_18690" data-name="Path 18690" class="cls-6" d="M156.912,55.178a.64.64,0,0,1-.32-1.194l9.191-5.307a.64.64,0,1,1,.64,1.108l-9.195,5.307A.632.632,0,0,1,156.912,55.178Z" transform="translate(-156.272 -48.59)"/>
        </g>
        <g id="Group_9651" data-name="Group 9651" transform="translate(3.391 6.638)">
          <path id="Path_18691" data-name="Path 18691" class="cls-6" d="M161.2,63.649a.64.64,0,0,1-.32-1.194l9.195-5.307a.64.64,0,1,1,.64,1.108l-9.195,5.307A.616.616,0,0,1,161.2,63.649Z" transform="translate(-160.562 -57.062)"/>
        </g>
        <g id="Group_9652" data-name="Group 9652" transform="translate(4.511 10.398)">
          <path id="Path_18692" data-name="Path 18692" class="cls-6" d="M163.932,72.809a.64.64,0,0,1-.32-1.194l9.195-5.307a.64.64,0,1,1,.64,1.108l-9.195,5.307A.658.658,0,0,1,163.932,72.809Z" transform="translate(-163.292 -66.222)"/>
        </g>
      </g>
    </g>
    <g id="Group_9690" data-name="Group 9690" transform="translate(-53 -71)">
      <g id="Group_9688" data-name="Group 9688" transform="translate(18526 11157)">
        <path id="Path_18742" data-name="Path 18742" class="cls-13" d="M21.33,49.26,0,36.94,21.33,24.63,42.66,36.94Z"/>
        <path id="Path_18743" data-name="Path 18743" class="cls-14" d="M21.33,0,42.66,12.31V36.94L21.33,24.63Z"/>
        <path id="Path_18744" data-name="Path 18744" class="cls-15" d="M21.33,24.63V0L0,12.31V36.94Z"/>
        <path id="Path_18745" data-name="Path 18745" class="cls-16" d="M21.33,49.26V24.63L42.66,12.31V36.94Z"/>
        <path id="Path_18746" data-name="Path 18746" class="cls-17" d="M21.33,49.26,0,36.94V12.31L21.33,24.63Z"/>
        <path id="Path_18747" data-name="Path 18747" class="cls-18" d="M21.33,24.63,0,12.31,21.33,0,42.66,12.31Z"/>
      </g>
      <g id="Group_9611" data-name="Group 9611" transform="translate(18392 11148.646)">
        <path id="Path_18603" data-name="Path 18603" class="cls-19" d="M144.29,41.53l-6.43-8.77v9.45l12.86,7.43V40.2Z"/>
        <path id="Path_18604" data-name="Path 18604" class="cls-19" d="M149.9,39.09,138.68,32.6l5.61,7.64Z"/>
      </g>
    </g>
    <g id="Group_9692" data-name="Group 9692" transform="translate(-162 -138)">
      <g id="Group_9689" data-name="Group 9689" transform="translate(18586 11165)">
        <path id="Path_18742-2" data-name="Path 18742" class="cls-13" d="M21.33,49.26,0,36.94,21.33,24.63,42.66,36.94Z"/>
        <path id="Path_18743-2" data-name="Path 18743" class="cls-14" d="M21.33,0,42.66,12.31V36.94L21.33,24.63Z"/>
        <path id="Path_18744-2" data-name="Path 18744" class="cls-15" d="M21.33,24.63V0L0,12.31V36.94Z"/>
        <path id="Path_18745-2" data-name="Path 18745" class="cls-16" d="M21.33,49.26V24.63L42.66,12.31V36.94Z"/>
        <path id="Path_18746-2" data-name="Path 18746" class="cls-17" d="M21.33,49.26,0,36.94V12.31L21.33,24.63Z"/>
        <path id="Path_18747-2" data-name="Path 18747" class="cls-18" d="M21.33,24.63,0,12.31,21.33,0,42.66,12.31Z"/>
      </g>
      <g id="Group_9691" data-name="Group 9691" transform="translate(18396 11098.646)">
        <path id="Path_18611" data-name="Path 18611" class="cls-19" d="M204.86,92.77v13.87l-9.26-5.35V87.42l9.26,5.35m1.07-.61-11.39-6.59V101.9l11.39,6.59V92.16Z"/>
        <g id="Group_9618" data-name="Group 9618">
          <g id="Group_9614" data-name="Group 9614">
            <path id="Path_18612" data-name="Path 18612" class="cls-19" d="M203.69,95.48l-6.93-4V90.5l6.93,4Z"/>
          </g>
          <g id="Group_9615" data-name="Group 9615">
            <path id="Path_18613" data-name="Path 18613" class="cls-19" d="M203.69,98.18l-6.93-4.01v-.98l6.93,4Z"/>
          </g>
          <g id="Group_9616" data-name="Group 9616">
            <path id="Path_18614" data-name="Path 18614" class="cls-19" d="M203.69,100.87l-6.93-4.01v-.98l6.93,4.01Z"/>
          </g>
          <g id="Group_9617" data-name="Group 9617">
            <path id="Path_18615" data-name="Path 18615" class="cls-19" d="M203.69,103.56l-6.93-4.01v-.98l6.93,4.01Z"/>
          </g>
        </g>
      </g>
    </g>
    <g id="Group_9695" data-name="Group 9695" transform="translate(-176 -201)">
      <g id="Group_9688-2" data-name="Group 9688" transform="translate(18536 11154)">
        <path id="Path_18742-3" data-name="Path 18742" class="cls-13" d="M21.33,49.26,0,36.94,21.33,24.63,42.66,36.94Z"/>
        <path id="Path_18743-3" data-name="Path 18743" class="cls-14" d="M21.33,0,42.66,12.31V36.94L21.33,24.63Z"/>
        <path id="Path_18744-3" data-name="Path 18744" class="cls-15" d="M21.33,24.63V0L0,12.31V36.94Z"/>
        <path id="Path_18745-3" data-name="Path 18745" class="cls-16" d="M21.33,49.26V24.63L42.66,12.31V36.94Z"/>
        <path id="Path_18746-3" data-name="Path 18746" class="cls-17" d="M21.33,49.26,0,36.94V12.31L21.33,24.63Z"/>
        <path id="Path_18747-3" data-name="Path 18747" class="cls-18" d="M21.33,24.63,0,12.31,21.33,0,42.66,12.31Z"/>
      </g>
      <path id="Path_18636" data-name="Path 18636" class="cls-19" d="M14.8,115.34c1.64.29,2.83-.8,2.83-2.92a9.27,9.27,0,0,0-4.2-7.26c-2.32-1.34-4.2-.26-4.2,2.41a9.355,9.355,0,0,0,2.83,6.18c-2.48-.73-4.33.78-4.33,3.87v1.73l11.4,6.59v-1.73A12.748,12.748,0,0,0,14.8,115.34Z" transform="translate(18533 11070.646)"/>
    </g>
    <g id="Group_9696" data-name="Group 9696" transform="translate(-54 -87)">
      <g id="Group_9694" data-name="Group 9694" transform="translate(18678 11157)">
        <path id="Path_18742-4" data-name="Path 18742" class="cls-13" d="M21.33,49.26,0,36.94,21.33,24.63,42.66,36.94Z"/>
        <path id="Path_18743-4" data-name="Path 18743" class="cls-14" d="M21.33,0,42.66,12.31V36.94L21.33,24.63Z"/>
        <path id="Path_18744-4" data-name="Path 18744" class="cls-15" d="M21.33,24.63V0L0,12.31V36.94Z"/>
        <path id="Path_18745-4" data-name="Path 18745" class="cls-16" d="M21.33,49.26V24.63L42.66,12.31V36.94Z"/>
        <path id="Path_18746-4" data-name="Path 18746" class="cls-17" d="M21.33,49.26,0,36.94V12.31L21.33,24.63Z"/>
        <path id="Path_18747-4" data-name="Path 18747" class="cls-18" d="M21.33,24.63,0,12.31,21.33,0,42.66,12.31Z"/>
      </g>
      <g id="Group_9641" data-name="Group 9641" transform="translate(18678 11010.646)">
        <g id="Group_9637" data-name="Group 9637">
          <path id="Path_18671" data-name="Path 18671" class="cls-19" d="M17.71,190.03,3.12,181.59v-15.6l1.7.98v13.65l12.89,7.46Z"/>
        </g>
        <g id="Group_9638" data-name="Group 9638">
          <path id="Path_18672" data-name="Path 18672" class="cls-19" d="M8.51,181.66l-1.9-1.1v-8.74l1.9,1.11Z"/>
        </g>
        <g id="Group_9639" data-name="Group 9639">
          <path id="Path_18673" data-name="Path 18673" class="cls-19" d="M11.66,183.48l-1.91-1.1V171.25l1.91,1.1Z"/>
        </g>
        <g id="Group_9640" data-name="Group 9640">
          <path id="Path_18674" data-name="Path 18674" class="cls-19" d="M15.5,185.7l-1.9-1.1V170.83l1.9,1.1Z"/>
        </g>
      </g>
    </g>
    <g id="Group_9698" data-name="Group 9698" transform="translate(-105 -287)">
      <g id="Group_9697" data-name="Group 9697" transform="translate(18547 11157)">
        <path id="Path_18742-5" data-name="Path 18742" class="cls-13" d="M21.33,49.26,0,36.94,21.33,24.63,42.66,36.94Z"/>
        <path id="Path_18743-5" data-name="Path 18743" class="cls-14" d="M21.33,0,42.66,12.31V36.94L21.33,24.63Z"/>
        <path id="Path_18744-5" data-name="Path 18744" class="cls-15" d="M21.33,24.63V0L0,12.31V36.94Z"/>
        <path id="Path_18745-5" data-name="Path 18745" class="cls-16" d="M21.33,49.26V24.63L42.66,12.31V36.94Z"/>
        <path id="Path_18746-5" data-name="Path 18746" class="cls-17" d="M21.33,49.26,0,36.94V12.31L21.33,24.63Z"/>
        <path id="Path_18747-5" data-name="Path 18747" class="cls-18" d="M21.33,24.63,0,12.31,21.33,0,42.66,12.31Z"/>
      </g>
      <path id="Path_18681" data-name="Path 18681" class="cls-19" d="M88.58,172.35l-6.82-3.94c-2.79-1.61-5.05-.31-5.05,2.9V173a11.273,11.273,0,0,0,4.61,8.46v3.66l3.15-1.81,4.11,2.38c2.79,1.61,5.05.31,5.05-2.9V181.1A11.166,11.166,0,0,0,88.58,172.35Zm-7.05,4.04a2.764,2.764,0,0,1-1.24-2.14c0-.78.55-1.11,1.24-.71a2.764,2.764,0,0,1,1.24,2.14C82.77,176.46,82.22,176.79,81.53,176.39Zm3.64,2.11a2.764,2.764,0,0,1-1.24-2.14c0-.79.55-1.11,1.24-.71a2.764,2.764,0,0,1,1.24,2.14C86.41,178.57,85.85,178.89,85.17,178.5Zm3.63,2.1a2.764,2.764,0,0,1-1.24-2.14c0-.78.55-1.11,1.24-.71a2.764,2.764,0,0,1,1.24,2.14C90.04,180.67,89.49,180.99,88.8,180.6Z" transform="translate(18473 11009.646)"/>
    </g>
    <g id="Group_9700" data-name="Group 9700" transform="translate(101 -221)">
      <g id="Group_9693" data-name="Group 9693" transform="translate(18607 11157)">
        <path id="Path_18742-6" data-name="Path 18742" class="cls-13" d="M21.33,49.26,0,36.94,21.33,24.63,42.66,36.94Z"/>
        <path id="Path_18743-6" data-name="Path 18743" class="cls-14" d="M21.33,0,42.66,12.31V36.94L21.33,24.63Z"/>
        <path id="Path_18744-6" data-name="Path 18744" class="cls-15" d="M21.33,24.63V0L0,12.31V36.94Z"/>
        <path id="Path_18745-6" data-name="Path 18745" class="cls-16" d="M21.33,49.26V24.63L42.66,12.31V36.94Z"/>
        <path id="Path_18746-6" data-name="Path 18746" class="cls-17" d="M21.33,49.26,0,36.94V12.31L21.33,24.63Z"/>
        <path id="Path_18747-6" data-name="Path 18747" class="cls-18" d="M21.33,24.63,0,12.31,21.33,0,42.66,12.31Z"/>
      </g>
      <path id="Path_18693" data-name="Path 18693" class="cls-19" d="M56.76,144.7a11.349,11.349,0,0,0-5.14-8.89c-2.84-1.64-5.14-.32-5.14,2.95a11.529,11.529,0,0,0,4.11,8.18v6.42a2.279,2.279,0,0,0,1.03,1.78c.57.33,1.03.06,1.03-.59v-6.42C54.99,148.93,56.76,147.56,56.76,144.7Zm-5.15,1.49a8.574,8.574,0,0,1-3.88-6.7c0-2.46,1.73-3.46,3.88-2.22a8.574,8.574,0,0,1,3.88,6.7C55.49,146.43,53.75,147.43,51.61,146.19Z" transform="translate(18564 11041.646)"/>
    </g>
    <g id="Group_9597" data-name="Group 9597" transform="translate(18480 10904.007)">
      <g id="Group_9596" data-name="Group 9596" transform="translate(-19 18)">
        <g id="Group_9575" data-name="Group 9575">
          <path id="Path_18539" data-name="Path 18539" class="cls-1" d="M188.26,29.84l2.33-1.33,9.05,2.66-2.33,1.33Z"/>
        </g>
        <g id="Group_9576" data-name="Group 9576">
          <path id="Path_18540" data-name="Path 18540" class="cls-1" d="M237.99,98.8l2.32-1.33-1.38,9.84-2.33,1.33Z"/>
        </g>
        <path id="Path_18541" data-name="Path 18541" class="cls-1" d="M243.35,89.89c.32-.15.63-.31.94-.48h0l2.33-1.33c-.31.18-.62.34-.94.49-.1.05-.21.09-.31.14-.22.1-.45.19-.68.28-.09.03-.19.07-.28.1a13.494,13.494,0,0,1-1.57.45,2.559,2.559,0,0,1-.27.05,11.005,11.005,0,0,1-1.15.18l-.24.03c-.39.04-.79.07-1.19.08h-.32c-.27,0-.54,0-.81-.01l-.47-.03c-.22-.01-.43-.03-.65-.05-.18-.02-.37-.04-.55-.07s-.36-.05-.54-.08c-.2-.03-.4-.07-.59-.11-.17-.03-.33-.06-.5-.1-.22-.05-.44-.1-.66-.16-.15-.04-.29-.07-.44-.11-.26-.07-.52-.15-.79-.23-.11-.03-.21-.06-.32-.1-.37-.12-.74-.25-1.12-.39-.07-.03-.15-.06-.23-.09-.3-.12-.6-.24-.9-.37-.13-.06-.26-.12-.4-.18-.3-.14-.61-.27-.92-.42-.66-.32-1.31-.67-1.96-1.04-.78-.45-1.54-.94-2.3-1.45-.09-.06-.17-.12-.26-.18-.7-.49-1.38-1-2.06-1.54-.1-.08-.2-.16-.29-.24-.67-.54-1.33-1.11-1.97-1.71-.11-.1-.21-.19-.31-.29-.65-.6-1.28-1.23-1.9-1.88-.09-.1-.18-.2-.28-.3-.62-.66-1.23-1.33-1.82-2.03-.03-.03-.06-.07-.09-.1-.56-.67-1.1-1.36-1.63-2.06-.26-.34-.51-.69-.77-1.04-.35-.49-.7-.98-1.04-1.48-.2-.3-.4-.6-.59-.9-.35-.55-.7-1.1-1.03-1.66-.17-.29-.35-.57-.51-.86-.37-.64-.72-1.3-1.07-1.95-.12-.22-.24-.44-.35-.66-.43-.84-.83-1.7-1.22-2.56-.06-.13-.11-.25-.17-.38-.37-.85-.72-1.71-1.05-2.57l-.12-.33c-.33-.88-.62-1.76-.9-2.65-.03-.09-.06-.19-.09-.28-.28-.92-.53-1.83-.75-2.75-.01-.06-.03-.12-.04-.18-.23-.97-.42-1.93-.59-2.9a.277.277,0,0,1-.01-.09q-.225-1.4-.36-2.79a2.276,2.276,0,0,1-.02-.26c-.08-.94-.14-1.87-.15-2.8-.01-.53,0-1.05.02-1.57,0-.07.01-.14.01-.21.02-.4.04-.8.07-1.19.01-.16.03-.31.04-.46.03-.31.06-.62.1-.92.02-.16.04-.33.06-.49.04-.29.09-.58.14-.87.03-.16.05-.32.09-.48.05-.27.12-.54.18-.8l.12-.51c.06-.24.13-.47.2-.7.06-.19.11-.39.17-.58.05-.15.1-.29.15-.43.1-.3.2-.59.32-.87.05-.13.11-.26.17-.4.14-.34.29-.67.45-1,.06-.13.13-.25.19-.38a15.92,15.92,0,0,1,.88-1.5c.06-.09.12-.17.18-.25.23-.34.48-.66.73-.98.08-.1.16-.19.24-.29a12.238,12.238,0,0,1,.99-1.04c.05-.05.1-.09.15-.14a11.694,11.694,0,0,1,.95-.79c.1-.08.2-.15.3-.23a11.37,11.37,0,0,1,1.18-.77l-2.33,1.33a13.271,13.271,0,0,0-1.18.77c-.1.07-.2.15-.3.23a11.833,11.833,0,0,0-.95.8,1.74,1.74,0,0,1-.15.13c-.34.33-.67.68-.99,1.04-.08.09-.16.19-.24.29-.25.31-.5.64-.73.98-.04.06-.09.12-.13.18a.2.2,0,0,0-.04.08,16.869,16.869,0,0,0-.88,1.5l-.09.15a1.6,1.6,0,0,0-.1.23c-.16.32-.31.66-.46,1-.04.09-.08.17-.12.26-.02.04-.03.09-.05.13-.11.29-.22.58-.32.88-.04.12-.09.23-.13.36-.01.02-.01.05-.02.07-.06.19-.11.39-.17.58s-.12.4-.18.61c-.01.03-.01.06-.02.09l-.12.51c-.05.22-.11.43-.15.65-.01.05-.02.11-.03.16-.03.16-.06.32-.08.47-.03.19-.07.38-.1.58-.01.09-.02.19-.04.29-.02.16-.04.33-.06.49l-.06.42c-.02.16-.03.33-.04.5-.01.15-.03.31-.04.46a1.943,1.943,0,0,0-.02.24c-.02.31-.04.63-.05.95,0,.07-.01.13-.01.2v.05c-.01.4-.02.81-.02,1.22v.3c0,.31.01.62.02.94.02.41.04.83.07,1.25.01.2.04.41.05.62.01.09.01.17.02.26.01.13.02.26.03.38.04.42.1.84.15,1.26.05.38.11.76.17,1.14a.277.277,0,0,1,.01.09c0,.02.01.05.01.07.07.44.16.88.24,1.32s.19.91.3,1.36a.573.573,0,0,0,.04.14c.01.06.03.12.04.18.08.35.17.71.26,1.06.12.47.25.93.39,1.4.03.1.06.2.09.29s.06.19.09.29c.09.28.17.56.26.83.15.47.32.94.49,1.41.05.13.1.27.15.4l.12.33c.09.23.17.46.26.69.19.48.39.97.59,1.45.06.15.13.29.19.44.05.13.11.25.17.38.1.23.2.46.3.68.27.59.55,1.17.85,1.75.02.04.05.08.07.13.11.22.24.44.35.66.28.53.56,1.07.85,1.59.07.12.15.24.22.36.17.29.34.58.52.86.34.56.68,1.11,1.03,1.66.2.3.39.6.59.9.14.21.28.43.43.64.2.28.41.55.61.83.25.35.51.7.77,1.04.11.15.21.3.33.44.42.54.84,1.06,1.27,1.58.01.01.02.03.03.04a.9.9,0,0,0,.09.1c.36.42.72.84,1.09,1.25.24.27.49.52.73.78.09.1.18.2.28.3.07.07.13.14.19.21q.585.615,1.2,1.2c.17.16.34.32.51.47.1.1.21.2.31.29.12.11.24.23.37.34.39.35.79.69,1.19,1.03.14.12.28.22.42.34.1.08.2.16.29.24l.45.36c.37.29.75.57,1.13.84.16.12.32.22.48.34.09.06.17.12.26.18.13.09.25.18.37.26.35.24.71.47,1.07.69.28.17.57.34.85.51.08.04.15.09.23.13.35.2.7.39,1.06.58.22.12.45.23.67.34.13.06.26.13.39.19.18.08.35.16.52.23.13.06.27.12.4.18a.612.612,0,0,0,.12.05c.26.11.51.21.77.31l.24.09c.01,0,.02.01.03.01.35.13.69.25,1.03.36.02,0,.03.01.05.01.11.04.22.06.32.1.22.07.45.14.67.2l.11.03c.15.04.3.07.44.11.17.04.33.09.5.13.05.01.1.02.16.03.17.04.34.07.5.1.14.03.28.06.42.08a1.113,1.113,0,0,0,.17.02c.18.03.36.05.54.08.13.02.26.04.38.05a.97.97,0,0,0,.17.01c.22.02.43.04.65.05l.35.03h.12c.27.01.54.01.81.01a2.615,2.615,0,0,0,.28,0h.04c.4-.01.8-.04,1.19-.08h.07c.06-.01.11-.02.16-.03.39-.05.77-.11,1.15-.18l.19-.03.09-.03a13.5,13.5,0,0,0,1.57-.45.647.647,0,0,0,.13-.04l.15-.06c.23-.09.45-.18.68-.28A1.282,1.282,0,0,0,243.35,89.89Z"/>
        <g id="Group_9577" data-name="Group 9577">
          <path id="Path_18542" data-name="Path 18542" class="cls-1" d="M205.51,9.64l2.33-1.33,7.59,9.89-2.33,1.33Z"/>
        </g>
        <g id="Group_9578" data-name="Group 9578">
          <path id="Path_18543" data-name="Path 18543" class="cls-20" d="M261.05,100.15l2.33-1.33-12.45,8.55-2.33,1.33Z"/>
        </g>
        <g id="Group_9579" data-name="Group 9579">
          <path id="Path_18544" data-name="Path 18544" class="cls-1" d="M255.59,88.79l2.33-1.33,5.46,11.36-2.33,1.33Z"/>
        </g>
        <g id="Group_9581" data-name="Group 9581">
          <g id="Group_9580" data-name="Group 9580" class="cls-21">
            <path id="Path_18545" data-name="Path 18545" class="cls-1" d="M217.76,18.18c-.49-.02-.97-.03-1.44-.02-.3.01-.6.02-.89.04l-2.33,1.33c.29-.02.59-.04.89-.04.47-.01.95,0,1.44.02.23.01.47.03.7.05l2.33-1.33C218.23,18.21,217.99,18.19,217.76,18.18Z"/>
          </g>
        </g>
        <g id="Group_9583" data-name="Group 9583">
          <g id="Group_9582" data-name="Group 9582" class="cls-22">
            <path id="Path_18547" data-name="Path 18547" class="cls-1" d="M256.8,85.84c-.16.47-.33.92-.5,1.36-.22.55-.46,1.08-.71,1.59l2.33-1.33c.25-.51.49-1.04.71-1.59.18-.44.35-.89.5-1.36Z"/>
          </g>
        </g>
        <g id="Group_9585" data-name="Group 9585">
          <g id="Group_9584" data-name="Group 9584" class="cls-23">
            <path id="Path_18549" data-name="Path 18549" class="cls-1" d="M242.45,31.41c-.49-.51-.99-1.01-1.5-1.49-.51-.5-1.04-.98-1.56-1.45l-2.33,1.33c.53.47,1.05.96,1.56,1.45s1.01.99,1.5,1.49l.01.01,2.33-1.33A.01.01,0,0,0,242.45,31.41Z"/>
          </g>
        </g>
        <g id="Group_9587" data-name="Group 9587">
          <g id="Group_9586" data-name="Group 9586" class="cls-24">
            <path id="Path_18551" data-name="Path 18551" class="cls-1" d="M258.47,58.91c-.17-.59-.36-1.17-.55-1.76q-.2-.615-.42-1.23l-2.33,1.33.42,1.23c.19.59.38,1.18.55,1.76.12.4.23.79.34,1.19l2.33-1.33C258.7,59.7,258.58,59.31,258.47,58.91Z"/>
          </g>
        </g>
        <g id="Group_9588" data-name="Group 9588">
          <path id="Path_18553" data-name="Path 18553" class="cls-1" d="M235.39,18.45l2.33-1.33,1.67,11.34-2.33,1.33Z"/>
        </g>
        <g id="Group_9589" data-name="Group 9589">
          <path id="Path_18554" data-name="Path 18554" class="cls-1" d="M217.51,9.7l2.33-1.33,17.88,8.75-2.33,1.33Z"/>
        </g>
        <g id="Group_9590" data-name="Group 9590">
          <path id="Path_18555" data-name="Path 18555" class="cls-1" d="M265.58,67.66l2.33-1.33.28,20.84-2.33,1.33Z"/>
        </g>
        <g id="Group_9591" data-name="Group 9591">
          <path id="Path_18556" data-name="Path 18556" class="cls-1" d="M256.48,61.43l2.33-1.33,9.1,6.23-2.33,1.33Z"/>
        </g>
        <g id="Group_9592" data-name="Group 9592">
          <path id="Path_18557" data-name="Path 18557" class="cls-1" d="M240.14,32.75l2.33-1.33,7.41-2.56-2.33,1.33Z"/>
        </g>
        <g id="Group_9593" data-name="Group 9593">
          <path id="Path_18558" data-name="Path 18558" class="cls-1" d="M247.55,30.19l2.33-1.33,12.84,20.93-2.33,1.33Z"/>
        </g>
        <g id="Group_9594" data-name="Group 9594">
          <path id="Path_18559" data-name="Path 18559" class="cls-6" d="M256.8,85.84a25.261,25.261,0,0,1-1.21,2.95l5.45,11.36-12.44,8.56-7.58-9.89a20.609,20.609,0,0,1-3.04-.02l-1.38,9.84L218.72,99.9l-1.66-11.34q-1.59-1.41-3.07-2.97l-7.42,2.55L193.73,67.22l5.22-6.14c-.48-1.38-.92-2.78-1.31-4.18l-9.1-6.23-.28-20.84,9.06,2.66a23.515,23.515,0,0,1,1.22-2.94l-5.45-11.36,12.44-8.56,7.58,9.89a20.481,20.481,0,0,1,3.03.02l1.38-9.85,17.88,8.75,1.67,11.34q1.575,1.41,3.08,2.96l7.41-2.56L260.4,51.1l-5.22,6.13c.49,1.39.93,2.79,1.31,4.18l9.1,6.23.28,20.84ZM227.46,88.7c13.98,6.84,25.13-.84,24.92-17.15C252.17,56,241.7,38.24,228.62,30.68c-.64-.37-1.29-.72-1.95-1.04-13.98-6.83-25.14.84-24.92,17.15.2,15.54,10.67,33.31,23.75,40.86.65.38,1.3.73,1.96,1.05"/>
        </g>
        <g id="Group_9595" data-name="Group 9595">
          <path id="Path_18560" data-name="Path 18560" class="cls-1" d="M260.39,51.12l2.33-1.33-5.22,6.13-2.33,1.33Z"/>
        </g>
      </g>
    </g>
    <g id="Group_9701" data-name="Group 9701" transform="translate(-70 -310)">
      <g id="Group_9699" data-name="Group 9699" transform="translate(18677 11160)">
        <path id="Path_18742-7" data-name="Path 18742" class="cls-13" d="M21.33,49.26,0,36.94,21.33,24.63,42.66,36.94Z"/>
        <path id="Path_18743-7" data-name="Path 18743" class="cls-14" d="M21.33,0,42.66,12.31V36.94L21.33,24.63Z"/>
        <path id="Path_18744-7" data-name="Path 18744" class="cls-15" d="M21.33,24.63V0L0,12.31V36.94Z"/>
        <path id="Path_18745-7" data-name="Path 18745" class="cls-16" d="M21.33,49.26V24.63L42.66,12.31V36.94Z"/>
        <path id="Path_18746-7" data-name="Path 18746" class="cls-17" d="M21.33,49.26,0,36.94V12.31L21.33,24.63Z"/>
        <path id="Path_18747-7" data-name="Path 18747" class="cls-18" d="M21.33,24.63,0,12.31,21.33,0,42.66,12.31Z"/>
      </g>
      <g id="Group_9608" data-name="Group 9608" transform="translate(18599 11136.646)">
        <path id="Path_18595" data-name="Path 18595" class="cls-19" d="M92.98,53.41c0-3.52-2.79-7.9-5.96-8.97-1.95-.66-3.48.35-3.78,2.45a9.02,9.02,0,0,0,1.14,5.24,8.914,8.914,0,0,1,1.16,3.96v.76l5.08,2.94v-.53a3.568,3.568,0,0,1,1.24-2.92A3.609,3.609,0,0,0,92.98,53.41Z"/>
        <path id="Path_18596" data-name="Path 18596" class="cls-19" d="M88.08,61.59c1.39.8,2.51.16,2.51-1.44l-5.02-2.9A5.54,5.54,0,0,0,88.08,61.59Z"/>
      </g>
    </g>
    <g id="Group_9702" data-name="Group 9702" transform="translate(18164 10840.407)">
      <g id="Group_9596-2" data-name="Group 9596" transform="translate(169.26 26.31)">
        <g id="Group_9575-2" data-name="Group 9575" transform="translate(0 6.639)">
          <path id="Path_18539-2" data-name="Path 18539" class="cls-1" d="M188.26,28.947l.766-.437,2.975.874-.766.437Z" transform="translate(-188.26 -28.51)"/>
        </g>
        <g id="Group_9576-2" data-name="Group 9576" transform="translate(15.889 29.306)">
          <path id="Path_18540-2" data-name="Path 18540" class="cls-1" d="M237.057,97.907l.763-.437-.454,3.234-.766.437Z" transform="translate(-236.6 -97.47)"/>
        </g>
        <path id="Path_18541-2" data-name="Path 18541" class="cls-1" d="M215.43,48.087c.105-.049.207-.1.309-.158h0l.766-.437c-.1.059-.2.112-.309.161-.033.016-.069.03-.1.046-.072.033-.148.062-.223.092l-.092.033a4.435,4.435,0,0,1-.516.148.838.838,0,0,1-.089.016,3.615,3.615,0,0,1-.378.059l-.079.01c-.128.013-.26.023-.391.026h-.105c-.089,0-.177,0-.266,0l-.154-.01c-.072,0-.141-.01-.214-.016s-.122-.013-.181-.023-.118-.016-.177-.026-.131-.023-.194-.036-.108-.02-.164-.033c-.072-.016-.145-.033-.217-.053l-.145-.036c-.085-.023-.171-.049-.26-.076-.036-.01-.069-.02-.105-.033-.122-.039-.243-.082-.368-.128l-.076-.03c-.1-.039-.2-.079-.3-.122l-.131-.059c-.1-.046-.2-.089-.3-.138-.217-.105-.431-.22-.644-.342-.256-.148-.506-.309-.756-.477l-.085-.059c-.23-.161-.454-.329-.677-.506-.033-.026-.066-.053-.1-.079-.22-.177-.437-.365-.648-.562-.036-.033-.069-.062-.1-.1-.214-.2-.421-.4-.625-.618-.03-.033-.059-.066-.092-.1-.2-.217-.4-.437-.6-.667-.01-.01-.02-.023-.03-.033-.184-.22-.362-.447-.536-.677-.085-.112-.168-.227-.253-.342-.115-.161-.23-.322-.342-.486-.066-.1-.131-.2-.194-.3-.115-.181-.23-.362-.339-.546-.056-.1-.115-.187-.168-.283-.122-.21-.237-.427-.352-.641-.039-.072-.079-.145-.115-.217-.141-.276-.273-.559-.4-.841-.02-.043-.036-.082-.056-.125-.122-.279-.237-.562-.345-.845l-.039-.108c-.108-.289-.2-.578-.3-.871-.01-.03-.02-.062-.03-.092-.092-.3-.174-.6-.247-.9,0-.02-.01-.039-.013-.059-.076-.319-.138-.634-.194-.953a.091.091,0,0,1,0-.03q-.074-.459-.118-.917a.749.749,0,0,1-.007-.085c-.026-.309-.046-.615-.049-.92,0-.174,0-.345.007-.516,0-.023,0-.046,0-.069.007-.131.013-.263.023-.391,0-.053.01-.1.013-.151.01-.1.02-.2.033-.3.007-.053.013-.108.02-.161.013-.1.03-.191.046-.286.01-.053.016-.105.03-.158.016-.089.039-.177.059-.263l.039-.168c.02-.079.043-.154.066-.23s.036-.128.056-.191.033-.1.049-.141c.033-.1.066-.194.105-.286.016-.043.036-.085.056-.131.046-.112.1-.22.148-.329.02-.043.043-.082.062-.125a5.236,5.236,0,0,1,.289-.493c.02-.03.039-.056.059-.082.076-.112.158-.217.24-.322.026-.033.053-.062.079-.1a4.023,4.023,0,0,1,.325-.342c.016-.016.033-.03.049-.046a3.84,3.84,0,0,1,.312-.26c.033-.026.066-.049.1-.076a3.736,3.736,0,0,1,.388-.253l-.766.437a4.36,4.36,0,0,0-.388.253c-.033.023-.066.049-.1.076a3.886,3.886,0,0,0-.312.263.574.574,0,0,1-.049.043c-.112.108-.22.224-.325.342-.026.03-.053.062-.079.1-.082.1-.164.21-.24.322-.013.02-.03.039-.043.059a.066.066,0,0,0-.013.026,5.547,5.547,0,0,0-.289.493l-.03.049a.524.524,0,0,0-.033.076c-.053.105-.1.217-.151.329-.013.03-.026.056-.039.085-.007.013-.01.03-.016.043-.036.1-.072.191-.105.289-.013.039-.03.076-.043.118,0,.007,0,.016-.007.023-.02.062-.036.128-.056.191s-.039.131-.059.2c0,.01,0,.02-.007.03l-.039.168c-.016.072-.036.141-.049.214,0,.016-.007.036-.01.053-.01.053-.02.105-.026.154s-.023.125-.033.191c0,.03-.007.062-.013.1-.007.053-.013.108-.02.161l-.02.138c-.007.053-.01.108-.013.164s-.01.1-.013.151a.637.637,0,0,0-.007.079c-.007.1-.013.207-.016.312,0,.023,0,.043,0,.066v.016c0,.131-.007.266-.007.4v.1c0,.1,0,.2.007.309.007.135.013.273.023.411,0,.066.013.135.016.2,0,.03,0,.056.007.085s.007.085.01.125c.013.138.033.276.049.414s.036.25.056.375a.091.091,0,0,1,0,.03c0,.007,0,.016,0,.023.023.145.053.289.079.434s.062.3.1.447a.189.189,0,0,0,.013.046c0,.02.01.039.013.059.026.115.056.233.085.348.039.154.082.306.128.46.01.033.02.066.03.1s.02.062.03.1c.03.092.056.184.085.273.049.154.105.309.161.463.016.043.033.089.049.131l.039.108c.03.076.056.151.085.227.062.158.128.319.194.477.02.049.043.1.062.145s.036.082.056.125c.033.076.066.151.1.224.089.194.181.385.279.575.007.013.016.026.023.043.036.072.079.145.115.217.092.174.184.352.279.523.023.039.049.079.072.118.056.1.112.191.171.283.112.184.223.365.339.546.066.1.128.2.194.3.046.069.092.141.141.21.066.092.135.181.2.273.082.115.168.23.253.342.036.049.069.1.108.145.138.177.276.348.417.519,0,0,.007.01.01.013a.3.3,0,0,0,.03.033c.118.138.237.276.358.411.079.089.161.171.24.256.03.033.059.066.092.1s.043.046.062.069q.192.2.394.394c.056.053.112.105.168.154.033.033.069.066.1.1s.079.076.122.112c.128.115.26.227.391.339.046.039.092.072.138.112s.066.053.1.079l.148.118c.122.1.247.187.371.276.053.039.105.072.158.112l.085.059c.043.03.082.059.122.085.115.079.233.154.352.227l.279.168c.026.013.049.03.076.043.115.066.23.128.348.191.072.039.148.076.22.112.043.02.085.043.128.062.059.026.115.053.171.076l.131.059a.2.2,0,0,0,.039.016c.085.036.168.069.253.1l.079.03s.007,0,.01,0c.115.043.227.082.339.118.007,0,.01,0,.016,0,.036.013.072.02.105.033.072.023.148.046.22.066l.036.01c.049.013.1.023.145.036s.108.03.164.043l.053.01c.056.013.112.023.164.033s.092.02.138.026a.366.366,0,0,0,.056.007c.059.01.118.016.177.026.043.007.085.013.125.016a.319.319,0,0,0,.056,0c.072.007.141.013.214.016l.115.01h.039c.089,0,.177,0,.266,0a.859.859,0,0,0,.092,0h.013c.131,0,.263-.013.391-.026h.023l.053-.01c.128-.016.253-.036.378-.059l.062-.01.03-.01a4.435,4.435,0,0,0,.516-.148.212.212,0,0,0,.043-.013l.049-.02c.076-.03.148-.059.224-.092A.421.421,0,0,0,215.43,48.087Z" transform="translate(-197.323 -21.273)"/>
        <g id="Group_9577-2" data-name="Group 9577" transform="translate(5.67 0)">
          <path id="Path_18542-2" data-name="Path 18542" class="cls-1" d="M205.51,8.747l.766-.437,2.495,3.251L208,12Z" transform="translate(-205.51 -8.31)"/>
        </g>
        <g id="Group_9578-2" data-name="Group 9578" transform="translate(19.833 29.749)">
          <path id="Path_18543-2" data-name="Path 18543" class="cls-20" d="M252.692,99.257l.766-.437-4.092,2.81-.766.437Z" transform="translate(-248.6 -98.82)"/>
        </g>
        <g id="Group_9579-2" data-name="Group 9579" transform="translate(22.13 26.015)">
          <path id="Path_18544-2" data-name="Path 18544" class="cls-1" d="M255.59,87.9l.766-.437,1.795,3.734-.766.437Z" transform="translate(-255.59 -87.46)"/>
        </g>
        <g id="Group_9581-2" data-name="Group 9581" transform="translate(8.165 3.235)">
          <g id="Group_9580-2" data-name="Group 9580" class="cls-25">
            <path id="Path_18545-2" data-name="Path 18545" class="cls-1" d="M214.632,18.164c-.161-.007-.319-.01-.473-.007-.1,0-.2.007-.293.013l-.766.437c.1-.007.194-.013.293-.013.154,0,.312,0,.473.007.076,0,.154.01.23.016l.766-.437C214.786,18.174,214.707,18.167,214.632,18.164Z" transform="translate(-213.1 -18.155)"/>
          </g>
        </g>
        <g id="Group_9583-2" data-name="Group 9583" transform="translate(22.13 25.046)">
          <g id="Group_9582-2" data-name="Group 9582" class="cls-26">
            <path id="Path_18547-2" data-name="Path 18547" class="cls-1" d="M255.988,84.947c-.053.154-.108.3-.164.447-.072.181-.151.355-.233.523l.766-.437c.082-.168.161-.342.233-.523.059-.145.115-.293.164-.447Z" transform="translate(-255.59 -84.51)"/>
          </g>
        </g>
        <g id="Group_9585-2" data-name="Group 9585" transform="translate(16.04 6.623)">
          <g id="Group_9584-2" data-name="Group 9584" class="cls-27">
            <path id="Path_18549-2" data-name="Path 18549" class="cls-1" d="M238.832,29.436c-.161-.168-.325-.332-.493-.49s-.342-.322-.513-.477l-.766.437c.174.154.345.316.513.477s.332.325.493.49l0,0,.766-.437A0,0,0,0,0,238.832,29.436Z" transform="translate(-237.06 -28.467)"/>
          </g>
        </g>
        <g id="Group_9587-2" data-name="Group 9587" transform="translate(21.992 15.649)">
          <g id="Group_9586-2" data-name="Group 9586" class="cls-28">
            <path id="Path_18551-2" data-name="Path 18551" class="cls-1" d="M256.255,56.9c-.056-.194-.118-.385-.181-.578q-.064-.2-.138-.4l-.766.437.138.4c.062.194.125.388.181.578.039.131.076.26.112.391l.766-.437C256.33,57.162,256.291,57.034,256.255,56.9Z" transform="translate(-255.17 -55.92)"/>
          </g>
        </g>
        <g id="Group_9588-2" data-name="Group 9588" transform="translate(15.491 2.896)">
          <path id="Path_18553-2" data-name="Path 18553" class="cls-1" d="M235.39,17.557l.766-.437.549,3.727-.766.437Z" transform="translate(-235.39 -17.12)"/>
        </g>
        <g id="Group_9589-2" data-name="Group 9589" transform="translate(9.614 0.02)">
          <path id="Path_18554-2" data-name="Path 18554" class="cls-1" d="M217.51,8.807l.766-.437,5.877,2.876-.766.437Z" transform="translate(-217.51 -8.37)"/>
        </g>
        <g id="Group_9590-2" data-name="Group 9590" transform="translate(25.414 19.07)">
          <path id="Path_18555-2" data-name="Path 18555" class="cls-1" d="M265.58,66.767l.766-.437.092,6.85-.766.437Z" transform="translate(-265.58 -66.33)"/>
        </g>
        <g id="Group_9591-2" data-name="Group 9591" transform="translate(22.423 17.023)">
          <path id="Path_18556-2" data-name="Path 18556" class="cls-1" d="M256.48,60.537l.766-.437,2.991,2.048-.766.437Z" transform="translate(-256.48 -60.1)"/>
        </g>
        <g id="Group_9592-2" data-name="Group 9592" transform="translate(17.052 6.754)">
          <path id="Path_18557-2" data-name="Path 18557" class="cls-1" d="M240.14,30.139l.766-.437,2.436-.841-.766.437Z" transform="translate(-240.14 -28.86)"/>
        </g>
        <g id="Group_9593-2" data-name="Group 9593" transform="translate(19.488 6.754)">
          <path id="Path_18558-2" data-name="Path 18558" class="cls-1" d="M247.55,29.3l.766-.437,4.22,6.879-.766.437Z" transform="translate(-247.55 -28.86)"/>
        </g>
        <g id="Group_9594-2" data-name="Group 9594" transform="translate(0 0.434)">
          <path id="Path_18559-2" data-name="Path 18559" class="cls-29" d="M210.788,34.679a8.308,8.308,0,0,1-.4.97l1.791,3.734L208.093,42.2,205.6,38.945a6.774,6.774,0,0,1-1-.007l-.454,3.234L198.272,39.3l-.546-3.727q-.523-.463-1.009-.976l-2.439.838-4.22-6.876,1.716-2.018c-.158-.454-.3-.914-.431-1.374l-2.991-2.048-.092-6.85,2.978.874a7.73,7.73,0,0,1,.4-.966l-1.791-3.734,4.089-2.814,2.491,3.251a6.732,6.732,0,0,1,1,.007l.454-3.238,5.877,2.876.549,3.727c.345.309.684.634,1.012.973l2.436-.841,4.22,6.876-1.716,2.015c.161.457.306.917.431,1.374l2.991,2.048.092,6.85Zm-9.644.94c4.6,2.248,8.26-.276,8.191-5.637a17.1,17.1,0,0,0-7.81-13.433c-.21-.122-.424-.237-.641-.342-4.6-2.245-8.263.276-8.191,5.637a17.085,17.085,0,0,0,7.806,13.43c.214.125.427.24.644.345" transform="translate(-188.26 -9.63)"/>
        </g>
        <g id="Group_9595-2" data-name="Group 9595" transform="translate(21.992 13.634)">
          <path id="Path_18560-2" data-name="Path 18560" class="cls-1" d="M256.886,50.227l.766-.437L255.936,51.8l-.766.437Z" transform="translate(-255.17 -49.79)"/>
        </g>
      </g>
    </g>
    <g id="Group_9706" data-name="Group 9706" transform="translate(18601 10995.407)">
      <g id="Group_9596-3" data-name="Group 9596" transform="translate(169.26 26.31)">
        <g id="Group_9575-3" data-name="Group 9575" transform="translate(0 11.853)">
          <path id="Path_18539-3" data-name="Path 18539" class="cls-1" d="M188.26,29.29l1.367-.78,5.31,1.561-1.367.78Z" transform="translate(-188.26 -28.51)"/>
        </g>
        <g id="Group_9576-3" data-name="Group 9576" transform="translate(28.365 52.317)">
          <path id="Path_18540-3" data-name="Path 18540" class="cls-1" d="M237.416,98.25l1.361-.78-.81,5.774-1.367.78Z" transform="translate(-236.6 -97.47)"/>
        </g>
        <path id="Path_18541-3" data-name="Path 18541" class="cls-1" d="M226.164,64.159c.188-.088.37-.182.552-.282h0l1.367-.78c-.182.106-.364.2-.552.288-.059.029-.123.053-.182.082-.129.059-.264.111-.4.164-.053.018-.112.041-.164.059a7.916,7.916,0,0,1-.921.264,1.5,1.5,0,0,1-.158.029,6.453,6.453,0,0,1-.675.106l-.141.018c-.229.023-.464.041-.7.047H224c-.158,0-.317,0-.475-.006l-.276-.018c-.129-.006-.252-.018-.381-.029-.106-.012-.217-.023-.323-.041s-.211-.029-.317-.047-.235-.041-.346-.065-.194-.035-.293-.059c-.129-.029-.258-.059-.387-.094-.088-.023-.17-.041-.258-.065-.153-.041-.305-.088-.464-.135-.065-.018-.123-.035-.188-.059-.217-.07-.434-.147-.657-.229-.041-.018-.088-.035-.135-.053-.176-.07-.352-.141-.528-.217-.076-.035-.153-.07-.235-.106-.176-.082-.358-.158-.54-.246-.387-.188-.769-.393-1.15-.61-.458-.264-.9-.552-1.35-.851-.053-.035-.1-.07-.153-.106-.411-.288-.81-.587-1.209-.9-.059-.047-.117-.094-.17-.141-.393-.317-.78-.651-1.156-1-.065-.059-.123-.111-.182-.17-.381-.352-.751-.722-1.115-1.1-.053-.059-.106-.117-.164-.176-.364-.387-.722-.78-1.068-1.191-.018-.018-.035-.041-.053-.059-.329-.393-.645-.8-.956-1.209-.153-.2-.3-.4-.452-.61-.205-.288-.411-.575-.61-.868-.117-.176-.235-.352-.346-.528-.205-.323-.411-.645-.6-.974-.1-.17-.205-.334-.3-.5-.217-.376-.423-.763-.628-1.144-.07-.129-.141-.258-.205-.387-.252-.493-.487-1-.716-1.5-.035-.076-.065-.147-.1-.223-.217-.5-.422-1-.616-1.508l-.07-.194c-.194-.516-.364-1.033-.528-1.555-.018-.053-.035-.111-.053-.164-.164-.54-.311-1.074-.44-1.614-.006-.035-.018-.07-.023-.106-.135-.569-.246-1.132-.346-1.7a.163.163,0,0,1-.006-.053q-.132-.819-.211-1.637a1.337,1.337,0,0,1-.012-.153c-.047-.552-.082-1.1-.088-1.643-.006-.311,0-.616.012-.921,0-.041.006-.082.006-.123.012-.235.023-.469.041-.7.006-.094.018-.182.023-.27.018-.182.035-.364.059-.54.012-.094.023-.194.035-.288.023-.17.053-.34.082-.51.018-.094.029-.188.053-.282.029-.158.07-.317.106-.469l.07-.3c.035-.141.076-.276.117-.411.035-.111.065-.229.1-.34.029-.088.059-.17.088-.252.059-.176.117-.346.188-.51.029-.076.065-.153.1-.235.082-.2.17-.393.264-.587.035-.076.076-.147.112-.223a9.351,9.351,0,0,1,.516-.88c.035-.053.07-.1.106-.147.135-.2.282-.387.428-.575.047-.059.094-.111.141-.17a7.185,7.185,0,0,1,.581-.61c.029-.029.059-.053.088-.082a6.853,6.853,0,0,1,.557-.464c.059-.047.117-.088.176-.135a6.673,6.673,0,0,1,.692-.452l-1.367.78a7.783,7.783,0,0,0-.692.452c-.059.041-.117.088-.176.135a6.941,6.941,0,0,0-.557.469,1.025,1.025,0,0,1-.088.076c-.2.194-.393.4-.581.61-.047.053-.094.111-.141.17-.147.182-.293.376-.428.575-.023.035-.053.07-.076.106a.118.118,0,0,0-.023.047,9.906,9.906,0,0,0-.516.88l-.053.088a.934.934,0,0,0-.059.135c-.094.188-.182.387-.27.587-.023.053-.047.1-.07.153-.012.023-.018.053-.029.076-.065.17-.129.34-.188.516-.023.07-.053.135-.076.211-.006.012-.006.029-.012.041-.035.111-.065.229-.1.34s-.07.235-.106.358c-.006.018-.006.035-.012.053l-.07.3c-.029.129-.065.252-.088.381-.006.029-.012.065-.018.094-.018.094-.035.188-.047.276-.018.111-.041.223-.059.34-.006.053-.012.111-.023.17-.012.094-.023.194-.035.288l-.035.246c-.012.094-.018.194-.023.293s-.018.182-.023.27a1.135,1.135,0,0,0-.012.141c-.012.182-.023.37-.029.557,0,.041-.006.076-.006.117v.029c-.006.235-.012.475-.012.716v.176c0,.182.006.364.012.552.012.241.023.487.041.733.006.117.023.241.029.364.006.053.006.1.012.153.006.076.012.153.018.223.023.246.059.493.088.739.029.223.065.446.1.669a.163.163,0,0,1,.006.053c0,.012.006.029.006.041.041.258.094.516.141.775s.111.534.176.8a.339.339,0,0,0,.023.082c.006.035.018.07.023.106.047.205.1.417.153.622.07.276.147.546.229.821.018.059.035.117.053.17s.035.111.053.17c.053.164.1.329.153.487.088.276.188.552.288.827.029.076.059.158.088.235l.07.194c.053.135.1.27.153.4.111.282.229.569.346.851.035.088.076.17.112.258s.065.147.1.223c.059.135.117.27.176.4.158.346.323.687.5,1.027.012.023.029.047.041.076.065.129.141.258.205.387.164.311.329.628.5.933.041.07.088.141.129.211.1.17.2.34.305.5.2.329.4.651.6.974.117.176.229.352.346.528.082.123.164.252.252.376.117.164.241.323.358.487.147.205.3.411.452.61.065.088.123.176.194.258.246.317.493.622.745.927.006.006.012.018.018.023a.53.53,0,0,0,.053.059c.211.246.422.493.64.733.141.158.288.305.428.458.053.059.106.117.164.176.041.041.076.082.111.123q.343.361.7.7c.1.094.2.188.3.276.059.059.123.117.182.17s.141.135.217.2c.229.205.464.4.7.6.082.07.164.129.246.2.059.047.117.094.17.141l.264.211c.217.17.44.334.663.493.094.07.188.129.282.2.053.035.1.07.153.106.076.053.147.106.217.153.205.141.417.276.628.4.164.1.334.2.5.3.047.023.088.053.135.076.205.117.411.229.622.34.129.07.264.135.393.2.076.035.153.076.229.111.106.047.205.094.305.135l.235.106a.359.359,0,0,0,.07.029c.153.065.3.123.452.182l.141.053c.006,0,.012.006.018.006.205.076.4.147.6.211.012,0,.018.006.029.006.065.023.129.035.188.059.129.041.264.082.393.117l.065.018c.088.023.176.041.258.065.1.023.194.053.293.076l.094.018c.1.023.2.041.293.059s.164.035.246.047a.654.654,0,0,0,.1.012c.106.018.211.029.317.047.076.012.153.023.223.029a.57.57,0,0,0,.1.006c.129.012.252.023.381.029l.205.018h.07c.158.006.317.006.475.006a1.532,1.532,0,0,0,.164,0h.023c.235-.006.469-.023.7-.047h.041l.094-.018c.229-.029.452-.065.675-.106l.111-.018.053-.018a7.92,7.92,0,0,0,.921-.264.38.38,0,0,0,.076-.023l.088-.035c.135-.053.264-.106.4-.164A.752.752,0,0,0,226.164,64.159Z" transform="translate(-193.838 -16.289)"/>
        <g id="Group_9577-3" data-name="Group 9577" transform="translate(10.122 0)">
          <path id="Path_18542-3" data-name="Path 18542" class="cls-1" d="M205.51,9.09l1.367-.78,4.454,5.8-1.367.78Z" transform="translate(-205.51 -8.31)"/>
        </g>
        <g id="Group_9578-3" data-name="Group 9578" transform="translate(35.406 53.109)">
          <path id="Path_18543-3" data-name="Path 18543" class="cls-20" d="M255.905,99.6l1.367-.78-7.305,5.017-1.367.78Z" transform="translate(-248.6 -98.82)"/>
        </g>
        <g id="Group_9579-3" data-name="Group 9579" transform="translate(39.508 46.444)">
          <path id="Path_18544-3" data-name="Path 18544" class="cls-1" d="M255.59,88.24l1.367-.78,3.2,6.666-1.367.78Z" transform="translate(-255.59 -87.46)"/>
        </g>
        <g id="Group_9581-3" data-name="Group 9581" transform="translate(14.576 5.776)">
          <g id="Group_9580-3" data-name="Group 9580" class="cls-30">
            <path id="Path_18545-3" data-name="Path 18545" class="cls-1" d="M215.834,18.17c-.288-.012-.569-.018-.845-.012-.176.006-.352.012-.522.023l-1.367.78c.17-.012.346-.023.522-.023.276-.006.557,0,.845.012.135.006.276.018.411.029l1.367-.78C216.11,18.188,215.969,18.176,215.834,18.17Z" transform="translate(-213.1 -18.154)"/>
          </g>
        </g>
        <g id="Group_9583-3" data-name="Group 9583" transform="translate(39.508 44.713)">
          <g id="Group_9582-3" data-name="Group 9582" class="cls-31">
            <path id="Path_18547-3" data-name="Path 18547" class="cls-1" d="M256.3,85.29c-.094.276-.194.54-.293.8-.129.323-.27.634-.417.933l1.367-.78c.147-.3.288-.61.417-.933.106-.258.205-.522.293-.8Z" transform="translate(-255.59 -84.51)"/>
          </g>
        </g>
        <g id="Group_9585-3" data-name="Group 9585" transform="translate(28.635 11.824)">
          <g id="Group_9584-3" data-name="Group 9584" class="cls-32">
            <path id="Path_18549-3" data-name="Path 18549" class="cls-1" d="M240.223,30.2c-.288-.3-.581-.593-.88-.874s-.61-.575-.915-.851l-1.367.78c.311.276.616.563.915.851s.593.581.88.874l.006.006,1.367-.78A.006.006,0,0,0,240.223,30.2Z" transform="translate(-237.06 -28.464)"/>
          </g>
        </g>
        <g id="Group_9587-3" data-name="Group 9587" transform="translate(39.261 27.937)">
          <g id="Group_9586-3" data-name="Group 9586" class="cls-33">
            <path id="Path_18551-3" data-name="Path 18551" class="cls-1" d="M257.106,57.674c-.1-.346-.211-.687-.323-1.033q-.114-.361-.246-.722l-1.367.78.246.722c.111.346.223.692.323,1.033.07.235.135.464.2.7l1.367-.78C257.241,58.138,257.171,57.909,257.106,57.674Z" transform="translate(-255.17 -55.92)"/>
          </g>
        </g>
        <g id="Group_9588-3" data-name="Group 9588" transform="translate(27.655 5.17)">
          <path id="Path_18553-3" data-name="Path 18553" class="cls-1" d="M235.39,17.9l1.367-.78.98,6.654-1.367.78Z" transform="translate(-235.39 -17.12)"/>
        </g>
        <g id="Group_9589-3" data-name="Group 9589" transform="translate(17.163 0.035)">
          <path id="Path_18554-3" data-name="Path 18554" class="cls-1" d="M217.51,9.15l1.367-.78L229.369,13.5l-1.367.78Z" transform="translate(-217.51 -8.37)"/>
        </g>
        <g id="Group_9590-3" data-name="Group 9590" transform="translate(45.37 34.045)">
          <path id="Path_18555-3" data-name="Path 18555" class="cls-1" d="M265.58,67.11l1.367-.78.164,12.228-1.367.78Z" transform="translate(-265.58 -66.33)"/>
        </g>
        <g id="Group_9591-3" data-name="Group 9591" transform="translate(40.03 30.389)">
          <path id="Path_18556-3" data-name="Path 18556" class="cls-1" d="M256.48,60.88l1.367-.78,5.34,3.656-1.367.78Z" transform="translate(-256.48 -60.1)"/>
        </g>
        <g id="Group_9592-3" data-name="Group 9592" transform="translate(30.442 12.058)">
          <path id="Path_18557-3" data-name="Path 18557" class="cls-1" d="M240.14,31.143l1.367-.78,4.348-1.5-1.367.78Z" transform="translate(-240.14 -28.86)"/>
        </g>
        <g id="Group_9593-3" data-name="Group 9593" transform="translate(34.79 12.058)">
          <path id="Path_18558-3" data-name="Path 18558" class="cls-1" d="M247.55,29.64l1.367-.78,7.534,12.281-1.367.78Z" transform="translate(-247.55 -28.86)"/>
        </g>
        <g id="Group_9594-3" data-name="Group 9594" transform="translate(0 0.775)">
          <path id="Path_18559-3" data-name="Path 18559" class="cls-29" d="M228.478,54.348a14.831,14.831,0,0,1-.71,1.731l3.2,6.666-7.3,5.023-4.448-5.8a12.093,12.093,0,0,1-1.784-.012l-.81,5.774L206.133,62.6l-.974-6.654q-.933-.827-1.8-1.743L199,55.7,191.47,43.423l3.063-3.6c-.282-.81-.54-1.631-.769-2.453l-5.34-3.656-.164-12.228,5.316,1.561a13.8,13.8,0,0,1,.716-1.725l-3.2-6.666,7.3-5.023,4.448,5.8a12.018,12.018,0,0,1,1.778.012l.81-5.78L215.921,14.8l.98,6.654c.616.552,1.22,1.132,1.807,1.737l4.348-1.5,7.534,12.275-3.063,3.6c.288.816.546,1.637.769,2.453l5.34,3.656L233.8,55.9Zm-17.216,1.678c8.2,4.014,14.746-.493,14.623-10.063-.123-9.124-6.267-19.546-13.942-23.982-.376-.217-.757-.422-1.144-.61-8.2-4.008-14.752.493-14.623,10.063.117,9.119,6.261,19.546,13.936,23.976.381.223.763.428,1.15.616" transform="translate(-188.26 -9.63)"/>
        </g>
        <g id="Group_9595-3" data-name="Group 9595" transform="translate(39.261 24.34)">
          <path id="Path_18560-3" data-name="Path 18560" class="cls-1" d="M258.233,50.57l1.367-.78-3.063,3.6-1.367.78Z" transform="translate(-255.17 -49.79)"/>
        </g>
      </g>
    </g>
    <g id="Group_9705" data-name="Group 9705" transform="translate(18567 10820.407)">
      <g id="Group_9596-4" data-name="Group 9596" transform="translate(169.26 26.31)">
        <g id="Group_9575-4" data-name="Group 9575" transform="translate(0 14.518)">
          <path id="Path_18539-4" data-name="Path 18539" class="cls-1" d="M188.26,29.466l1.675-.956,6.5,1.912-1.675.956Z" transform="translate(-188.26 -28.51)"/>
        </g>
        <g id="Group_9576-4" data-name="Group 9576" transform="translate(34.743 64.081)">
          <path id="Path_18540-4" data-name="Path 18540" class="cls-1" d="M237.6,98.426l1.667-.956-.992,7.072-1.675.956Z" transform="translate(-236.6 -97.47)"/>
        </g>
        <path id="Path_18541-4" data-name="Path 18541" class="cls-1" d="M231.652,72.375c.23-.108.453-.223.676-.345h0L234,71.074c-.223.129-.446.244-.676.352-.072.036-.151.065-.223.1-.158.072-.323.137-.489.2-.065.022-.137.05-.2.072a9.7,9.7,0,0,1-1.128.323,1.834,1.834,0,0,1-.194.036,7.905,7.905,0,0,1-.827.129l-.172.022c-.28.029-.568.05-.855.058h-.23c-.194,0-.388,0-.582-.007l-.338-.022c-.158-.007-.309-.022-.467-.036-.129-.014-.266-.029-.4-.05s-.259-.036-.388-.058-.288-.05-.424-.079-.237-.043-.359-.072c-.158-.036-.316-.072-.474-.115-.108-.029-.208-.05-.316-.079-.187-.05-.374-.108-.568-.165-.079-.022-.151-.043-.23-.072-.266-.086-.532-.18-.8-.28-.05-.022-.108-.043-.165-.065-.216-.086-.431-.172-.647-.266-.093-.043-.187-.086-.287-.129-.216-.1-.438-.194-.661-.3-.474-.23-.942-.482-1.409-.747-.561-.323-1.107-.676-1.653-1.042-.065-.043-.122-.086-.187-.129-.5-.352-.992-.719-1.481-1.107-.072-.057-.144-.115-.208-.172-.482-.388-.956-.8-1.416-1.229-.079-.072-.151-.137-.223-.208-.467-.431-.92-.884-1.366-1.351-.065-.072-.129-.144-.2-.216-.446-.474-.884-.956-1.308-1.459-.022-.022-.043-.05-.065-.072-.4-.482-.791-.977-1.172-1.481-.187-.244-.367-.5-.553-.747-.252-.352-.5-.7-.747-1.064-.144-.216-.287-.431-.424-.647-.252-.4-.5-.791-.74-1.193-.122-.208-.252-.41-.367-.618-.266-.46-.517-.934-.769-1.4-.086-.158-.172-.316-.252-.474-.309-.6-.6-1.222-.877-1.84-.043-.093-.079-.18-.122-.273-.266-.611-.517-1.229-.755-1.847l-.086-.237c-.237-.632-.446-1.265-.647-1.9-.022-.065-.043-.137-.065-.2-.2-.661-.381-1.315-.539-1.976-.007-.043-.022-.086-.029-.129-.165-.7-.3-1.387-.424-2.084a.2.2,0,0,1-.007-.065q-.162-1-.259-2.005a1.632,1.632,0,0,1-.014-.187c-.058-.676-.1-1.344-.108-2.012-.007-.381,0-.755.014-1.128,0-.05.007-.1.007-.151.014-.287.029-.575.05-.855.007-.115.022-.223.029-.331.022-.223.043-.446.072-.661.014-.115.029-.237.043-.352.029-.208.065-.417.1-.625.022-.115.036-.23.065-.345.036-.194.086-.388.129-.575l.086-.367c.043-.172.093-.338.144-.5.043-.137.079-.28.122-.417.036-.108.072-.208.108-.309.072-.216.144-.424.23-.625.036-.093.079-.187.122-.287.1-.244.208-.482.323-.719.043-.093.093-.18.137-.273a11.447,11.447,0,0,1,.633-1.078c.043-.065.086-.122.129-.18.165-.244.345-.474.525-.7.057-.072.115-.137.172-.208a8.8,8.8,0,0,1,.712-.747c.036-.036.072-.065.108-.1a8.4,8.4,0,0,1,.683-.568c.072-.057.144-.108.216-.165a8.171,8.171,0,0,1,.848-.553l-1.675.956a9.536,9.536,0,0,0-.848.553c-.072.05-.144.108-.216.165a8.494,8.494,0,0,0-.683.575,1.253,1.253,0,0,1-.108.093c-.244.237-.482.489-.712.747-.057.065-.115.137-.172.208-.18.223-.359.46-.525.7-.029.043-.065.086-.093.129a.145.145,0,0,0-.029.058,12.131,12.131,0,0,0-.632,1.078l-.065.108a1.148,1.148,0,0,0-.072.165c-.115.23-.223.474-.331.719-.029.065-.057.122-.086.187-.014.029-.022.065-.036.093-.079.208-.158.417-.23.632-.029.086-.065.165-.093.259-.007.014-.007.036-.014.05-.043.137-.079.28-.122.417s-.086.287-.129.438c-.007.022-.007.043-.014.065l-.086.367c-.036.158-.079.309-.108.467-.007.036-.014.079-.022.115-.022.115-.043.23-.057.338-.022.137-.05.273-.072.417-.007.065-.014.137-.029.208-.014.115-.029.237-.043.352l-.043.3c-.014.115-.022.237-.029.359s-.022.223-.029.331a1.393,1.393,0,0,0-.014.172c-.014.223-.029.453-.036.683,0,.05-.007.093-.007.144v.036c-.007.287-.014.582-.014.877v.216c0,.223.007.446.014.676.014.295.029.6.05.9.007.144.029.295.036.446.007.065.007.122.014.187.007.093.014.187.022.273.029.3.072.6.108.906.036.273.079.546.122.819a.2.2,0,0,1,.007.065c0,.014.007.036.007.05.05.316.115.632.173.949s.137.654.216.977a.414.414,0,0,0,.029.1c.007.043.022.086.029.129.057.252.122.51.187.762.086.338.18.668.28,1.006.022.072.043.144.065.208s.043.137.065.208c.065.2.122.4.187.6.108.338.23.676.352,1.013.036.093.072.194.108.287l.086.237c.065.165.122.331.187.5.137.345.28.7.424,1.042.043.108.093.208.137.316s.079.18.122.273c.072.165.144.331.216.489.194.424.4.841.611,1.258.014.029.036.057.05.093.079.158.172.316.251.474.2.381.4.769.611,1.143.05.086.108.172.158.259.122.208.244.417.374.618.244.4.489.8.74,1.193.144.216.28.431.424.647.1.151.2.309.309.46.144.2.295.4.438.6.18.252.367.5.553.747.079.108.151.216.237.316.3.388.6.762.913,1.136.007.007.014.022.022.029a.652.652,0,0,0,.065.072c.259.3.517.6.783.9.172.194.352.374.525.561.065.072.129.144.2.216.05.05.093.1.137.151q.42.442.862.862c.122.115.244.23.367.338.072.072.151.144.223.208s.172.165.266.244c.28.252.568.5.855.74.1.086.2.158.3.244.072.057.144.115.208.172l.323.259c.266.208.539.41.812.6.115.086.23.158.345.244.065.043.122.086.187.129.093.065.18.129.266.187.252.172.51.338.769.5.2.122.41.244.611.367.057.029.108.065.165.093.252.144.5.28.762.417.158.086.323.165.482.244.093.043.187.093.28.137.129.057.252.115.374.165.093.043.194.086.287.129a.44.44,0,0,0,.086.036c.187.079.367.151.553.223l.173.065c.007,0,.014.007.022.007.252.093.5.18.74.259.014,0,.022.007.036.007.079.029.158.043.23.072.158.05.323.1.482.144l.079.022c.108.029.216.05.316.079.122.029.237.065.359.093l.115.022c.122.029.244.05.359.072s.2.043.3.057a.8.8,0,0,0,.122.014c.129.022.259.036.388.057.093.014.187.029.273.036a.7.7,0,0,0,.122.007c.158.014.309.029.467.036l.252.022h.086c.194.007.388.007.582.007a1.879,1.879,0,0,0,.2,0h.029c.287-.007.575-.029.855-.058h.05l.115-.022c.28-.036.553-.079.827-.129l.137-.022.065-.022a9.7,9.7,0,0,0,1.128-.323.465.465,0,0,0,.093-.029l.108-.043c.165-.065.323-.129.489-.2A.921.921,0,0,0,231.652,72.375Z" transform="translate(-192.057 -13.741)"/>
        <g id="Group_9577-4" data-name="Group 9577" transform="translate(12.398 0)">
          <path id="Path_18542-4" data-name="Path 18542" class="cls-1" d="M205.51,9.266l1.675-.956,5.455,7.108-1.675.956Z" transform="translate(-205.51 -8.31)"/>
        </g>
        <g id="Group_9578-4" data-name="Group 9578" transform="translate(43.368 65.052)">
          <path id="Path_18543-4" data-name="Path 18543" class="cls-20" d="M257.548,99.776l1.675-.956-8.948,6.145-1.675.956Z" transform="translate(-248.6 -98.82)"/>
        </g>
        <g id="Group_9579-4" data-name="Group 9579" transform="translate(48.392 56.887)">
          <path id="Path_18544-4" data-name="Path 18544" class="cls-1" d="M255.59,88.416l1.675-.956,3.924,8.165-1.675.956Z" transform="translate(-255.59 -87.46)"/>
        </g>
        <g id="Group_9581-4" data-name="Group 9581" transform="translate(17.853 7.075)">
          <g id="Group_9580-4" data-name="Group 9580" class="cls-34">
            <path id="Path_18545-4" data-name="Path 18545" class="cls-1" d="M216.449,18.173c-.352-.014-.7-.022-1.035-.014-.216.007-.431.014-.64.029l-1.675.956c.208-.014.424-.029.64-.029.338-.007.683,0,1.035.014.165.007.338.022.5.036l1.675-.956C216.787,18.195,216.615,18.18,216.449,18.173Z" transform="translate(-213.1 -18.154)"/>
          </g>
        </g>
        <g id="Group_9583-4" data-name="Group 9583" transform="translate(48.392 54.767)">
          <g id="Group_9582-4" data-name="Group 9582" class="cls-35">
            <path id="Path_18547-4" data-name="Path 18547" class="cls-1" d="M256.46,85.466c-.115.338-.237.661-.359.977-.158.4-.331.776-.51,1.143l1.675-.956c.18-.367.352-.747.51-1.143.129-.316.252-.64.359-.977Z" transform="translate(-255.59 -84.51)"/>
          </g>
        </g>
        <g id="Group_9585-4" data-name="Group 9585" transform="translate(35.074 14.482)">
          <g id="Group_9584-4" data-name="Group 9584" class="cls-36">
            <path id="Path_18549-4" data-name="Path 18549" class="cls-1" d="M240.934,30.583c-.352-.367-.712-.726-1.078-1.071s-.747-.7-1.121-1.042l-1.675.956c.381.338.755.69,1.121,1.042s.726.712,1.078,1.071l.007.007,1.675-.956A.007.007,0,0,0,240.934,30.583Z" transform="translate(-237.06 -28.463)"/>
          </g>
        </g>
        <g id="Group_9587-4" data-name="Group 9587" transform="translate(48.09 34.218)">
          <g id="Group_9586-4" data-name="Group 9586" class="cls-37">
            <path id="Path_18551-4" data-name="Path 18551" class="cls-1" d="M257.542,58.069c-.122-.424-.259-.841-.4-1.265q-.14-.442-.3-.884l-1.675.956.3.884c.137.424.273.848.4,1.265.086.287.165.568.244.855l1.675-.956C257.707,58.637,257.621,58.356,257.542,58.069Z" transform="translate(-255.17 -55.92)"/>
          </g>
        </g>
        <g id="Group_9588-4" data-name="Group 9588" transform="translate(33.873 6.332)">
          <path id="Path_18553-4" data-name="Path 18553" class="cls-1" d="M235.39,18.076l1.675-.956,1.2,8.15-1.675.956Z" transform="translate(-235.39 -17.12)"/>
        </g>
        <g id="Group_9589-4" data-name="Group 9589" transform="translate(21.023 0.043)">
          <path id="Path_18554-4" data-name="Path 18554" class="cls-1" d="M217.51,9.326l1.675-.956,12.851,6.289-1.675.956Z" transform="translate(-217.51 -8.37)"/>
        </g>
        <g id="Group_9590-4" data-name="Group 9590" transform="translate(55.572 41.7)">
          <path id="Path_18555-4" data-name="Path 18555" class="cls-1" d="M265.58,67.286l1.675-.956.2,14.978-1.675.956Z" transform="translate(-265.58 -66.33)"/>
        </g>
        <g id="Group_9591-4" data-name="Group 9591" transform="translate(49.031 37.223)">
          <path id="Path_18556-4" data-name="Path 18556" class="cls-1" d="M256.48,61.056l1.675-.956,6.54,4.478-1.675.956Z" transform="translate(-256.48 -60.1)"/>
        </g>
        <g id="Group_9592-4" data-name="Group 9592" transform="translate(37.287 14.77)">
          <path id="Path_18557-4" data-name="Path 18557" class="cls-1" d="M240.14,31.656l1.675-.956,5.326-1.84-1.675.956Z" transform="translate(-240.14 -28.86)"/>
        </g>
        <g id="Group_9593-4" data-name="Group 9593" transform="translate(42.613 14.77)">
          <path id="Path_18558-4" data-name="Path 18558" class="cls-1" d="M247.55,29.816l1.675-.956L258.453,43.9l-1.675.956Z" transform="translate(-247.55 -28.86)"/>
        </g>
        <g id="Group_9594-4" data-name="Group 9594" transform="translate(0 0.949)">
          <path id="Path_18559-4" data-name="Path 18559" class="cls-29" d="M237.521,64.4a18.165,18.165,0,0,1-.87,2.12l3.917,8.165-8.941,6.152-5.448-7.108a14.813,14.813,0,0,1-2.185-.014L223,80.791l-12.851-6.282-1.193-8.15q-1.143-1.013-2.206-2.135l-5.333,1.833-9.228-15.036,3.752-4.413c-.345-.992-.661-2-.942-3l-6.54-4.478-.2-14.978,6.512,1.912a16.9,16.9,0,0,1,.877-2.113l-3.917-8.165,8.941-6.152,5.448,7.108a14.72,14.72,0,0,1,2.178.014l.992-7.079,12.851,6.289,1.2,8.15c.755.676,1.495,1.387,2.214,2.127l5.326-1.84,9.228,15.036-3.752,4.406c.352,1,.668,2.005.941,3l6.54,4.478.2,14.978Zm-21.087,2.056c10.048,4.916,18.061-.6,17.911-12.326-.151-11.176-7.676-23.941-17.077-29.374-.46-.266-.927-.517-1.4-.747-10.048-4.909-18.069.6-17.911,12.326.144,11.169,7.669,23.941,17.07,29.367.467.273.934.525,1.409.755" transform="translate(-188.26 -9.63)"/>
        </g>
        <g id="Group_9595-4" data-name="Group 9595" transform="translate(48.09 29.813)">
          <path id="Path_18560-4" data-name="Path 18560" class="cls-1" d="M258.922,50.746l1.675-.956L256.845,54.2l-1.675.956Z" transform="translate(-255.17 -49.79)"/>
        </g>
      </g>
    </g>
    <g id="Group_9703" data-name="Group 9703" transform="translate(18126 10976.407)">
      <g id="Group_9596-5" data-name="Group 9596" transform="translate(169.26 26.31)">
        <g id="Group_9575-5" data-name="Group 9575" transform="translate(0 11.887)">
          <path id="Path_18539-5" data-name="Path 18539" class="cls-1" d="M188.26,29.293l1.371-.783,5.326,1.565-1.371.783Z" transform="translate(-188.26 -28.51)"/>
        </g>
        <g id="Group_9576-5" data-name="Group 9576" transform="translate(28.447 52.468)">
          <path id="Path_18540-5" data-name="Path 18540" class="cls-1" d="M237.418,98.253l1.365-.783-.812,5.791-1.371.783Z" transform="translate(-236.6 -97.47)"/>
        </g>
        <path id="Path_18541-5" data-name="Path 18541" class="cls-1" d="M226.235,64.264c.188-.088.371-.182.553-.282h0l1.371-.783c-.182.106-.365.2-.553.288-.059.029-.124.053-.182.082-.129.059-.265.112-.4.165-.053.018-.112.041-.165.059a7.941,7.941,0,0,1-.924.265,1.5,1.5,0,0,1-.159.029,6.471,6.471,0,0,1-.677.106l-.141.018c-.229.024-.465.041-.7.047h-.188c-.159,0-.318,0-.477-.006l-.277-.018c-.129-.006-.253-.018-.383-.029-.106-.012-.218-.024-.324-.041s-.212-.029-.318-.047-.235-.041-.347-.065-.194-.035-.294-.059c-.129-.029-.259-.059-.388-.094-.088-.024-.171-.041-.259-.065-.153-.041-.306-.088-.465-.135-.065-.018-.124-.035-.188-.059-.218-.071-.435-.147-.659-.23-.041-.018-.088-.035-.135-.053-.177-.071-.353-.141-.53-.218-.077-.035-.153-.071-.235-.106-.177-.082-.359-.159-.541-.247-.388-.188-.771-.394-1.153-.612-.459-.265-.906-.553-1.353-.853-.053-.035-.1-.071-.153-.106-.412-.288-.812-.588-1.212-.906-.059-.047-.118-.094-.171-.141-.394-.318-.783-.653-1.159-1.006-.065-.059-.124-.112-.182-.171-.383-.353-.753-.724-1.118-1.106-.053-.059-.106-.118-.165-.177-.365-.388-.724-.783-1.071-1.195-.018-.018-.035-.041-.053-.059-.33-.394-.647-.8-.959-1.212-.153-.2-.3-.406-.453-.612-.206-.288-.412-.577-.612-.871-.118-.177-.235-.353-.347-.53-.206-.324-.412-.647-.606-.977-.1-.171-.206-.335-.3-.506-.218-.377-.424-.765-.63-1.148-.071-.129-.141-.259-.206-.388-.253-.494-.488-1-.718-1.507-.035-.077-.065-.147-.1-.224-.218-.5-.424-1.006-.618-1.512l-.071-.194c-.194-.518-.365-1.036-.53-1.559-.018-.053-.035-.112-.053-.165-.165-.541-.312-1.077-.441-1.618-.006-.035-.018-.071-.024-.106-.135-.571-.247-1.136-.347-1.707a.164.164,0,0,1-.006-.053q-.132-.821-.212-1.642a1.338,1.338,0,0,1-.012-.153c-.047-.553-.082-1.1-.088-1.648-.006-.312,0-.618.012-.924,0-.041.006-.082.006-.124.012-.235.023-.471.041-.7.006-.094.018-.182.023-.271.018-.182.035-.365.059-.541.012-.094.024-.194.035-.288.024-.171.053-.341.082-.512.018-.094.029-.188.053-.282.029-.159.071-.318.106-.471l.071-.3c.035-.141.077-.277.118-.412.035-.112.065-.23.1-.341.029-.088.059-.171.088-.253.059-.177.118-.347.188-.512.029-.076.065-.153.1-.235.082-.2.171-.394.265-.588.035-.076.077-.147.112-.224a9.377,9.377,0,0,1,.518-.883c.035-.053.071-.1.106-.147.135-.2.282-.388.43-.577.047-.059.094-.112.141-.171a7.2,7.2,0,0,1,.583-.612c.029-.029.059-.053.088-.082a6.88,6.88,0,0,1,.559-.465c.059-.047.118-.088.177-.135a6.691,6.691,0,0,1,.694-.453l-1.371.783a7.8,7.8,0,0,0-.694.453c-.059.041-.118.088-.177.135a6.956,6.956,0,0,0-.559.471,1.027,1.027,0,0,1-.088.076c-.2.194-.394.4-.583.612-.047.053-.094.112-.141.171-.147.182-.294.377-.43.577-.024.035-.053.071-.077.106a.119.119,0,0,0-.024.047,9.937,9.937,0,0,0-.518.883l-.053.088a.938.938,0,0,0-.059.135c-.094.188-.182.388-.271.588-.024.053-.047.1-.071.153-.012.024-.018.053-.029.076-.065.171-.129.341-.188.518-.024.071-.053.135-.077.212-.006.012-.006.029-.012.041-.035.112-.065.229-.1.341s-.071.235-.106.359c-.006.018-.006.035-.012.053l-.071.3c-.029.129-.065.253-.088.383-.006.029-.012.065-.018.094-.018.094-.035.188-.047.277-.018.112-.041.224-.059.341-.006.053-.012.112-.024.171-.012.094-.024.194-.035.288l-.035.247c-.012.094-.018.194-.024.294s-.018.182-.024.271a1.142,1.142,0,0,0-.012.141c-.012.182-.024.371-.029.559,0,.041-.006.076-.006.118v.029c-.006.235-.012.477-.012.718v.177c0,.182.006.365.012.553.012.241.024.488.041.736.006.118.024.241.029.365.006.053.006.1.012.153.006.076.012.153.018.224.024.247.059.494.088.741.029.224.065.447.1.671a.164.164,0,0,1,.006.053c0,.012.006.029.006.041.041.259.094.518.141.777s.112.536.177.8a.338.338,0,0,0,.024.082c.006.035.018.071.024.106.047.206.1.418.153.624.071.277.147.547.229.824.018.059.035.118.053.171s.035.112.053.171c.053.165.1.33.153.488.088.277.188.553.288.83.029.077.059.159.088.235l.071.194c.053.135.1.271.153.406.112.282.229.571.347.853.035.088.077.171.112.259s.065.147.1.224c.059.135.118.271.177.4.159.347.324.689.5,1.03.012.024.029.047.041.076.065.129.141.259.206.388.165.312.33.63.5.936.041.071.088.141.129.212.1.171.2.341.306.506.2.33.4.653.606.977.118.177.229.353.347.53.082.124.165.253.253.377.118.165.241.324.359.488.147.206.3.412.453.612.065.088.124.177.194.259.247.318.494.624.747.93.006.006.012.018.018.024a.531.531,0,0,0,.053.059c.212.247.424.494.641.736.141.159.288.306.43.459.053.059.106.118.165.177.041.041.076.082.112.124q.344.362.706.706c.1.094.2.188.3.277.059.059.124.118.182.171s.141.135.218.2c.229.206.465.406.7.606.082.071.165.129.247.2.059.047.118.094.171.141l.265.212c.218.171.441.335.665.494.094.071.188.129.282.2.053.035.1.071.153.106.077.053.147.106.218.153.206.141.418.277.63.406.165.1.335.2.5.3.047.024.088.053.135.076.206.118.412.229.624.341.129.071.265.135.394.2.077.035.153.077.229.112.106.047.206.094.306.135l.235.106a.36.36,0,0,0,.071.029c.153.065.3.124.453.182l.141.053c.006,0,.012.006.018.006.206.076.406.147.606.212.012,0,.018.006.029.006.065.024.129.035.188.059.129.041.265.082.394.118l.065.018c.088.024.177.041.259.065.1.024.194.053.294.076l.094.018c.1.024.2.041.294.059s.165.035.247.047a.655.655,0,0,0,.1.012c.106.018.212.029.318.047.076.012.153.024.224.029a.571.571,0,0,0,.1.006c.129.012.253.024.382.029l.206.018h.071c.159.006.318.006.477.006a1.537,1.537,0,0,0,.165,0h.024c.235-.006.471-.024.7-.047h.041l.094-.018c.23-.029.453-.065.677-.106l.112-.018.053-.018a7.94,7.94,0,0,0,.924-.265.381.381,0,0,0,.077-.024l.088-.035c.135-.053.265-.106.4-.165A.754.754,0,0,0,226.235,64.264Z" transform="translate(-193.816 -16.257)"/>
        <g id="Group_9577-5" data-name="Group 9577" transform="translate(10.151 0)">
          <path id="Path_18542-5" data-name="Path 18542" class="cls-1" d="M205.51,9.093l1.371-.783,4.466,5.82-1.371.783Z" transform="translate(-205.51 -8.31)"/>
        </g>
        <g id="Group_9578-5" data-name="Group 9578" transform="translate(35.508 53.263)">
          <path id="Path_18543-5" data-name="Path 18543" class="cls-20" d="M255.926,99.6l1.371-.783-7.326,5.031-1.371.783Z" transform="translate(-248.6 -98.82)"/>
        </g>
        <g id="Group_9579-5" data-name="Group 9579" transform="translate(39.622 46.578)">
          <path id="Path_18544-5" data-name="Path 18544" class="cls-1" d="M255.59,88.243l1.371-.783,3.213,6.685-1.371.783Z" transform="translate(-255.59 -87.46)"/>
        </g>
        <g id="Group_9581-5" data-name="Group 9581" transform="translate(14.618 5.792)">
          <g id="Group_9580-5" data-name="Group 9580" class="cls-38">
            <path id="Path_18545-5" data-name="Path 18545" class="cls-1" d="M215.842,18.17c-.288-.012-.571-.018-.847-.012-.177.006-.353.012-.524.024l-1.371.783c.171-.012.347-.024.524-.024.277-.006.559,0,.847.012.135.006.277.018.412.029l1.371-.783C216.119,18.188,215.978,18.176,215.842,18.17Z" transform="translate(-213.1 -18.154)"/>
          </g>
        </g>
        <g id="Group_9583-5" data-name="Group 9583" transform="translate(39.622 44.842)">
          <g id="Group_9582-5" data-name="Group 9582" class="cls-39">
            <path id="Path_18547-5" data-name="Path 18547" class="cls-1" d="M256.3,85.293c-.094.277-.194.541-.294.8-.129.324-.271.636-.418.936l1.371-.783c.147-.3.288-.612.418-.936.106-.259.206-.524.294-.8Z" transform="translate(-255.59 -84.51)"/>
          </g>
        </g>
        <g id="Group_9585-5" data-name="Group 9585" transform="translate(28.717 11.858)">
          <g id="Group_9584-5" data-name="Group 9584" class="cls-40">
            <path id="Path_18549-5" data-name="Path 18549" class="cls-1" d="M240.232,30.2c-.288-.3-.583-.594-.883-.877s-.612-.577-.918-.853l-1.371.783c.312.277.618.565.918.853s.594.583.883.877l.006.006,1.371-.783A.006.006,0,0,0,240.232,30.2Z" transform="translate(-237.06 -28.464)"/>
          </g>
        </g>
        <g id="Group_9587-5" data-name="Group 9587" transform="translate(39.375 28.017)">
          <g id="Group_9586-5" data-name="Group 9586" class="cls-41">
            <path id="Path_18551-5" data-name="Path 18551" class="cls-1" d="M257.112,57.68c-.1-.347-.212-.689-.324-1.036q-.115-.362-.247-.724l-1.371.783.247.724c.112.347.224.694.324,1.036.071.235.135.465.2.7l1.371-.783C257.247,58.144,257.177,57.915,257.112,57.68Z" transform="translate(-255.17 -55.92)"/>
          </g>
        </g>
        <g id="Group_9588-5" data-name="Group 9588" transform="translate(27.735 5.184)">
          <path id="Path_18553-5" data-name="Path 18553" class="cls-1" d="M235.39,17.9l1.371-.783.983,6.673-1.371.783Z" transform="translate(-235.39 -17.12)"/>
        </g>
        <g id="Group_9589-5" data-name="Group 9589" transform="translate(17.213 0.035)">
          <path id="Path_18554-5" data-name="Path 18554" class="cls-1" d="M217.51,9.153l1.371-.783L229.4,13.519l-1.371.783Z" transform="translate(-217.51 -8.37)"/>
        </g>
        <g id="Group_9590-5" data-name="Group 9590" transform="translate(45.501 34.143)">
          <path id="Path_18555-5" data-name="Path 18555" class="cls-1" d="M265.58,67.113l1.371-.783.165,12.264-1.371.783Z" transform="translate(-265.58 -66.33)"/>
        </g>
        <g id="Group_9591-5" data-name="Group 9591" transform="translate(40.146 30.477)">
          <path id="Path_18556-5" data-name="Path 18556" class="cls-1" d="M256.48,60.883l1.371-.783,5.355,3.666-1.371.783Z" transform="translate(-256.48 -60.1)"/>
        </g>
        <g id="Group_9592-5" data-name="Group 9592" transform="translate(30.53 12.093)">
          <path id="Path_18557-5" data-name="Path 18557" class="cls-1" d="M240.14,31.149l1.371-.783,4.361-1.506-1.371.783Z" transform="translate(-240.14 -28.86)"/>
        </g>
        <g id="Group_9593-5" data-name="Group 9593" transform="translate(34.891 12.093)">
          <path id="Path_18558-5" data-name="Path 18558" class="cls-1" d="M247.55,29.643l1.371-.783,7.556,12.317-1.371.783Z" transform="translate(-247.55 -28.86)"/>
        </g>
        <g id="Group_9594-5" data-name="Group 9594" transform="translate(0 0.777)">
          <path id="Path_18559-5" data-name="Path 18559" class="cls-29" d="M228.594,54.477a14.877,14.877,0,0,1-.712,1.736l3.207,6.685-7.321,5.037-4.461-5.82a12.127,12.127,0,0,1-1.789-.012l-.812,5.791-10.522-5.143-.977-6.673c-.624-.553-1.224-1.136-1.807-1.748l-4.366,1.5L191.479,43.52l3.072-3.613c-.282-.812-.541-1.636-.771-2.46l-5.355-3.666-.165-12.264,5.332,1.565a13.838,13.838,0,0,1,.718-1.73L191.1,14.667l7.321-5.037,4.461,5.82a12.052,12.052,0,0,1,1.783.012l.812-5.8L216,14.814l.983,6.673c.618.553,1.224,1.136,1.813,1.742l4.361-1.506,7.556,12.311-3.072,3.607c.288.818.547,1.642.771,2.46l5.355,3.666.165,12.264ZM211.328,56.16c8.227,4.025,14.788-.494,14.665-10.092-.124-9.151-6.285-19.6-13.982-24.051-.377-.218-.759-.424-1.148-.612-8.227-4.019-14.794.494-14.665,10.092.118,9.145,6.279,19.6,13.976,24.045.382.224.765.43,1.153.618" transform="translate(-188.26 -9.63)"/>
        </g>
        <g id="Group_9595-5" data-name="Group 9595" transform="translate(39.375 24.41)">
          <path id="Path_18560-5" data-name="Path 18560" class="cls-1" d="M258.242,50.573l1.371-.783L256.541,53.4l-1.371.783Z" transform="translate(-255.17 -49.79)"/>
        </g>
      </g>
    </g>
  </g>
</svg>
