<?xml version="1.0" encoding="utf-8"?>
<!-- Generator: Adobe Illustrator 23.0.1, SVG Export Plug-In . SVG Version: 6.00 Build 0)  -->
<svg version="1.1" id="Layer_1" xmlns="http://www.w3.org/2000/svg" xmlns:xlink="http://www.w3.org/1999/xlink" x="0px" y="0px"
	 viewBox="0 0 1373.5 312.2" style="enable-background:new 0 0 1373.5 312.2;" xml:space="preserve">
<style type="text/css">
	.st0{fill:url(#Rectangle_5993_1_);}
	.st1{fill:#282421;}
	.st2{fill:#474646;}
	.st3{fill:#D9F5FF;}
	.st4{opacity:0.5;fill:#686868;enable-background:new    ;}
	.st5{fill:#686868;}
	.st6{fill:#FFFFFF;}
	
		.st7{fill:none;stroke:#FFFFFF;stroke-width:3.865;stroke-linecap:round;stroke-linejoin:round;stroke-miterlimit:10;stroke-dasharray:2.899,15.454;}
	.st8{enable-background:new    ;}
	.st9{fill:#34BCC4;}
	.st10{fill:none;}
	.st11{fill:#8C8C8C;}
	.st12{fill:#808080;}
	.st13{fill:#155172;}
	.st14{fill:#D5D5D5;}
	.st15{fill:#0D0E28;}
	.st16{fill:#F1F2F2;}
	.st17{fill:#0C0D25;}
	.st18{fill:#CECECE;}
	.st19{fill:#288AC1;}
	.st20{fill:#D3B180;}
	.st21{fill:#AC8559;}
	.st22{fill:#E4CA97;}
	.st23{opacity:0.5;fill:#87722F;enable-background:new    ;}
	.st24{opacity:0.7;fill:#87722F;enable-background:new    ;}
</style>
<g id="Group_10174" transform="translate(-16415 -10832)">
	
		<linearGradient id="Rectangle_5993_1_" gradientUnits="userSpaceOnUse" x1="16804.7168" y1="11407.5371" x2="16803.7168" y2="11407.5459" gradientTransform="matrix(1373.493 0 0 -312.189 -23063374 3572297)">
		<stop  offset="0" style="stop-color:#33A2BD"/>
		<stop  offset="1" style="stop-color:#34BCC4"/>
	</linearGradient>
	<rect id="Rectangle_5993" x="16415" y="10832" class="st0" width="1373.5" height="312.2"/>
	<g id="Group_9498" transform="translate(17021.197 11060.025)">
		<path id="Path_18481" class="st1" d="M164.7,60.6l-161.1,0c-2.6,0-4.2-2.9-3.4-6.6l10-48.2c0.2-1.4,1.5-2.4,2.9-2.4h142.3
			c1.4,0,2.6,1,2.9,2.4l9.2,49.2C167.7,56.9,167.6,60.4,164.7,60.6z"/>
		<path id="Path_18482" class="st2" d="M164.3,57.3H3.1c-1.6,0-2.9-1.3-2.9-2.9c0-0.2,0-0.3,0-0.5L10.8,2.4C11,1,12.2,0,13.6,0
			h141.3c1.4,0,2.6,1,2.9,2.4l9.4,51.5c0.3,1.6-0.8,3.1-2.4,3.3C164.7,57.3,164.5,57.3,164.3,57.3z"/>
		<path id="Path_18483" class="st3" d="M13.7,50.4l7.5-43.4h128.7l7.5,43.4H13.7z"/>
		<path id="Path_18484" class="st3" d="M113.6,6.9L84.2,50.4h10.5c5.4-7,24.2-36.1,29.3-43.4H113.6z"/>
		<path id="Path_18485" class="st3" d="M153.4,27.9l-13.9,22.5h9l6.8-11.9L153.4,27.9z"/>
		<path id="Path_18486" class="st3" d="M149.9,7.8L122,50.4h12.8l17.6-27.7L149.9,7.8z"/>
		<path id="Path_18487" class="st3" d="M79.9,6.9L43,50.4h11c4.6-6.2,29.4-35.1,35.8-43.4H79.9z"/>
		<path id="Path_18488" class="st3" d="M56.6,6.9L14.1,50.4h6.2L62.4,6.9H56.6z"/>
		<path id="Path_18489" class="st3" d="M33.4,6.9L18.8,20.4l-2.3,13.3L44.1,6.9L33.4,6.9z"/>
		<path id="Path_18490" class="st4" d="M14.6,25.3c0.2,1.6-1,3-2.5,3.2c-1.6,0.2-3-1-3.2-2.5c-0.2-1.6,1-3,2.5-3.2
			c0.1,0,0.2,0,0.3,0C13.2,22.6,14.5,23.8,14.6,25.3z"/>
		<path id="Path_18491" class="st5" d="M158.8,26.3l-1.1-5.1c-0.1-0.7-0.8-1.1-1.5-0.9l0,0c-0.7,0.1-1.1,0.8-0.9,1.5l1.1,5.1
			c0.1,0.7,0.8,1.1,1.5,0.9S158.9,27,158.8,26.3L158.8,26.3z"/>
	</g>
	<ellipse id="Ellipse_695" class="st6" cx="17104.4" cy="10880.5" rx="26.4" ry="25.5"/>
	<path id="Path_18492" class="st7" d="M17030.2,11053.6c-21.7-19.6-36.7-47.6-36.7-78.7c0-59.3,49.5-107.4,110.5-107.4
		c61,0,110.5,48.1,110.5,107.4c0,32-15.1,60.8-38,80.5"/>
	<path id="Path_18741" class="st7" d="M17057.5,11061.1c-13.6-12.3-23-29.8-23-49.2c0-37.1,31-67.2,69.2-67.2s69.2,30.1,69.2,67.2
		c0,20.1-9.5,38.1-23.8,50.4"/>
	<ellipse id="Ellipse_697" class="st6" cx="16993.4" cy="11008.5" rx="26.4" ry="25.5"/>
	<ellipse id="Ellipse_698" class="st6" cx="17209.4" cy="11008.5" rx="26.4" ry="25.5"/>
	<g class="st8">
		<path class="st9" d="M17207.6,11016.6v-6.5c-2-0.6-3.5-1.5-4.5-2.6c-1-1.2-1.4-2.6-1.4-4.3c0-1.7,0.5-3.1,1.6-4.3
			c1.1-1.2,2.5-1.8,4.3-2v-1.5h2.3v1.5c1.7,0.2,3,0.8,4,1.7c1,0.9,1.6,2.2,1.9,3.7l-4,0.5c-0.2-1.2-0.9-2.1-1.9-2.5v6.1
			c2.5,0.7,4.2,1.6,5.1,2.6s1.4,2.5,1.4,4.1c0,1.9-0.6,3.5-1.7,4.8c-1.1,1.3-2.7,2.1-4.8,2.4v2.9h-2.3v-2.8c-1.8-0.2-3.3-0.9-4.4-2
			s-1.8-2.7-2.2-4.8l4.1-0.4c0.2,0.8,0.5,1.6,0.9,2.2C17206.6,11015.9,17207.1,11016.3,17207.6,11016.6z M17207.6,11000.2
			c-0.6,0.2-1.1,0.6-1.5,1.1c-0.4,0.5-0.5,1.1-0.5,1.7c0,0.6,0.2,1.1,0.5,1.5c0.3,0.5,0.8,0.9,1.5,1.1V11000.2z M17209.9,11016.8
			c0.8-0.1,1.4-0.5,1.9-1.1c0.5-0.6,0.7-1.3,0.7-2c0-0.7-0.2-1.3-0.6-1.8c-0.4-0.5-1.1-0.9-2-1.2V11016.8z"/>
	</g>
	<g class="st8">
		<path class="st9" d="M17103.6,10888.6v-6.5c-2-0.6-3.5-1.5-4.5-2.6c-1-1.2-1.4-2.6-1.4-4.3c0-1.7,0.5-3.1,1.6-4.3
			c1.1-1.2,2.5-1.8,4.3-2v-1.5h2.3v1.5c1.7,0.2,3,0.8,4,1.7c1,0.9,1.6,2.2,1.9,3.7l-4,0.5c-0.2-1.2-0.9-2.1-1.9-2.5v6.1
			c2.5,0.7,4.2,1.6,5.1,2.6s1.4,2.5,1.4,4.1c0,1.9-0.6,3.5-1.7,4.8c-1.1,1.3-2.7,2.1-4.8,2.4v2.9h-2.3v-2.8c-1.8-0.2-3.3-0.9-4.4-2
			s-1.8-2.7-2.2-4.8l4.1-0.4c0.2,0.8,0.5,1.6,0.9,2.2C17102.6,10887.9,17103.1,10888.3,17103.6,10888.6z M17103.6,10872.2
			c-0.6,0.2-1.1,0.6-1.5,1.1c-0.4,0.5-0.5,1.1-0.5,1.7c0,0.6,0.2,1.1,0.5,1.5c0.3,0.5,0.8,0.9,1.5,1.1V10872.2z M17105.9,10888.8
			c0.8-0.1,1.4-0.5,1.9-1.1c0.5-0.6,0.7-1.3,0.7-2c0-0.7-0.2-1.3-0.6-1.8c-0.4-0.5-1.1-0.9-2-1.2V10888.8z"/>
	</g>
	<g class="st8">
		<path class="st9" d="M16991.6,11016.6v-6.5c-2-0.6-3.5-1.5-4.5-2.6c-1-1.2-1.4-2.6-1.4-4.3c0-1.7,0.5-3.1,1.6-4.3
			c1.1-1.2,2.5-1.8,4.3-2v-1.5h2.3v1.5c1.7,0.2,3,0.8,4,1.7c1,0.9,1.6,2.2,1.9,3.7l-4,0.5c-0.2-1.2-0.9-2.1-1.9-2.5v6.1
			c2.5,0.7,4.2,1.6,5.1,2.6s1.4,2.5,1.4,4.1c0,1.9-0.6,3.5-1.7,4.8c-1.1,1.3-2.7,2.1-4.8,2.4v2.9h-2.3v-2.8c-1.8-0.2-3.3-0.9-4.4-2
			s-1.8-2.7-2.2-4.8l4.1-0.4c0.2,0.8,0.5,1.6,0.9,2.2C16990.6,11015.9,16991.1,11016.3,16991.6,11016.6z M16991.6,11000.2
			c-0.6,0.2-1.1,0.6-1.5,1.1c-0.4,0.5-0.5,1.1-0.5,1.7c0,0.6,0.2,1.1,0.5,1.5c0.3,0.5,0.8,0.9,1.5,1.1V11000.2z M16993.9,11016.8
			c0.8-0.1,1.4-0.5,1.9-1.1c0.5-0.6,0.7-1.3,0.7-2c0-0.7-0.2-1.3-0.6-1.8c-0.4-0.5-1.1-0.9-2-1.2V11016.8z"/>
	</g>
	<g id="Group_9499" transform="translate(17098.793 11079.628)">
		<path id="Path_11006" class="st10" d="M0.2,26.1c-0.1-0.1-0.1-0.2-0.2-0.3C0.2,25.9,0.2,26,0.2,26.1z"/>
		<path id="Path_11007" class="st10" d="M0.6,26.6l-0.3-0.3L0.6,26.6z"/>
		<path id="Path_11008" class="st10" d="M1.4,27.2C1.2,27,1,26.9,0.8,26.8C1,26.9,1.2,27,1.4,27.2z"/>
		<path id="Path_11009" class="st10" d="M34.9,10.5c0,0.1,0,0.2,0.1,0.3C34.9,10.8,34.9,10.7,34.9,10.5z"/>
		<path id="Path_11010" class="st10" d="M35.6,12.5c0.1,0.1,0.2,0.2,0.3,0.3L35.6,12.5z"/>
		<path id="Path_11011" class="st10" d="M37,13.9c0,0.1,0.1,0.1,0.1,0.2C37.1,14,37.1,13.9,37,13.9z"/>
		<path id="Path_11012" class="st10" d="M34.9,11c0,0.1,0.1,0.3,0.2,0.4C34.9,11.2,34.9,11.1,34.9,11z"/>
		<path id="Path_11013" class="st10" d="M35.3,12c0.1,0.1,0.2,0.2,0.2,0.3C35.5,12.2,35.4,12.1,35.3,12z"/>
		<path id="Path_11014" class="st10" d="M32,41.3c0.4,0,0.8,0.1,1.3,0.2C32.8,41.3,32.4,41.3,32,41.3z"/>
		<path id="Path_11015" class="st10" d="M61.6,31.6L61.6,31.6l2.7-1.5L61.6,31.6z"/>
		<path id="Path_11016" class="st10" d="M35.3,43L35.3,43v-0.2C35.2,42.9,35.2,42.9,35.3,43z"/>
		<path id="Path_11017" class="st10" d="M37.3,14.4c0,0.1,0.1,0.1,0.1,0.2C37.3,14.4,37.3,14.4,37.3,14.4z"/>
		<path id="Path_11018" class="st10" d="M28.8,43.1v0.2C28.7,43.2,28.7,43.1,28.8,43.1C28.8,43.1,28.8,43.1,28.8,43.1z"/>
		<path id="Path_11019" class="st10" d="M35.1,42.6L35.1,42.6c0-0.1-0.1-0.1-0.1-0.2l0,0C35,42.5,35.1,42.5,35.1,42.6z"/>
		<path id="Path_11020" class="st10" d="M35.2,42.8"/>
		<path id="Path_11021" class="st10" d="M34.9,42.3L34.9,42.3L34.9,42.3z"/>
		<path id="Path_11022" class="st10" d="M35.1,11.5c0.1,0.1,0.1,0.2,0.2,0.3C35.2,11.7,35.1,11.6,35.1,11.5z"/>
		<path id="Path_11023" class="st10" d="M1.8,4.6C1.6,4.4,1.4,4.4,1.2,4.2C1.4,4.4,1.6,4.5,1.8,4.6z"/>
		<path id="Path_11024" class="st10" d="M9.4,16c0,0.1,0.1,0.2,0.2,0.3C9.5,16.2,9.4,16.1,9.4,16z"/>
		<path id="Path_11025" class="st10" d="M5.5,21.8c-0.2-0.1-0.4-0.2-0.5-0.4C5.1,21.6,5.2,21.7,5.5,21.8z"/>
		<path id="Path_11026" class="st10" d="M9.6,16.5c0.1,0.1,0.2,0.2,0.3,0.3C9.9,16.7,9.7,16.6,9.6,16.5z"/>
		<path id="Path_11027" class="st10" d="M37.4,14.9L37.4,14.9C37.4,15,37.4,14.9,37.4,14.9z"/>
		<path id="Path_11028" class="st10" d="M0.8,3.7C0.9,3.8,0.9,4,1.1,4C1,4,0.8,3.9,0.8,3.7z"/>
		<path id="Path_11029" class="st10" d="M4.2,20.5c0,0.1,0.1,0.2,0.2,0.3C4.3,20.6,4.2,20.5,4.2,20.5z"/>
		<path id="Path_11030" class="st10" d="M36.6,13.4c-0.2-0.2-0.4-0.3-0.5-0.5C36.2,13.1,36.4,13.3,36.6,13.4z"/>
		<path id="Path_11031" class="st10" d="M10.6,17.3c-0.2-0.2-0.4-0.2-0.6-0.4C10.2,17.1,10.4,17.2,10.6,17.3z"/>
		<path id="Path_11032" class="st10" d="M0.5,3.3c0,0.1,0.1,0.2,0.2,0.3C0.6,3.5,0.6,3.3,0.5,3.3z"/>
		<path id="Path_11033" class="st10" d="M4.5,20.9c0.1,0.1,0.2,0.2,0.3,0.3C4.6,21.2,4.5,21.1,4.5,20.9z"/>
		<path id="Path_11034" class="st11" d="M1.2,4.2L1,4L0.7,3.7C0.6,3.7,0.6,3.6,0.6,3.5C0.5,3.4,0.5,3.3,0.5,3.2V3
			c0-0.1-0.1-0.2-0.1-0.3v3.4C0.5,6.9,1,7.6,1.7,8V4.5C1.5,4.5,1.3,4.4,1.2,4.2z"/>
		<path id="Path_11035" class="st12" d="M17.2,13.6l-15.4-9V8l9.2,5.3C13,12.5,15.3,12.6,17.2,13.6z"/>
		<path id="Path_11036" class="st11" d="M37.4,15L37.4,15c0-0.2,0-0.3-0.1-0.5c0-0.1-0.1-0.1-0.1-0.2c-0.1-0.1-0.1-0.2-0.2-0.3
			c0-0.1-0.1-0.1-0.1-0.2c-0.1-0.2-0.2-0.3-0.4-0.5c-0.2-0.2-0.4-0.3-0.5-0.5L36,12.8c-0.1-0.1-0.2-0.2-0.3-0.3l-0.2-0.2
			c-0.1-0.1-0.2-0.2-0.2-0.3c0-0.1-0.1-0.1-0.1-0.2c-0.1-0.1-0.1-0.2-0.2-0.3c0,0,0-0.1-0.1-0.1c0,0,0,0,0,0
			c-0.1-0.2-0.1-0.3-0.2-0.4V11c0-0.1,0-0.2-0.1-0.3v3.1c0.1,1.3,0.8,2.4,1.8,3.1l0.2,0.2l0.5-1.6C37.4,15.4,37.4,15.2,37.4,15z"/>
		<path id="Path_11037" class="st11" d="M10.6,17.3c-0.2-0.2-0.4-0.2-0.6-0.4l-0.2-0.2l-0.3-0.3c-0.1-0.1-0.1-0.1-0.1-0.2
			c-0.1-0.1-0.1-0.2-0.2-0.3v-0.2c0-0.1-0.1-0.2-0.1-0.3v1.9c0.5,0,0.9,0.1,1.3,0.2L10.6,17.3z"/>
		<path id="Path_11038" class="st12" d="M11.9,18.1l-1.3-0.7v0.2C11.1,17.7,11.5,17.9,11.9,18.1z"/>
		<path id="Path_11039" class="st11" d="M5.5,22.6v-0.8c-0.2-0.1-0.4-0.2-0.5-0.4l-0.2-0.2l-0.3-0.3c-0.1-0.1-0.1-0.1-0.1-0.2
			c-0.1-0.1-0.1-0.2-0.2-0.3v-0.2c0-0.1-0.1-0.2-0.1-0.2v2.6C4.6,22.5,5,22.5,5.5,22.6z"/>
		<path id="Path_11040" class="st12" d="M8.1,23.4l-2.6-1.5v0.8C6.4,22.6,7.3,22.9,8.1,23.4z"/>
		<path id="Path_11041" class="st11" d="M0.8,26.7l-0.2-0.2l-0.3-0.3c-0.1-0.1-0.1-0.1-0.1-0.2c-0.1-0.1-0.1-0.2-0.2-0.3v-0.2
			c0-0.1-0.1-0.2-0.1-0.3v3.4c0.1,0.8,0.6,1.5,1.3,1.9V27C1.1,27,0.9,26.9,0.8,26.7z"/>
		<path id="Path_11042" class="st12" d="M1.4,27.2v3.4l2.1,1.3v-3.5L1.4,27.2z"/>
		<path id="Path_11043" class="st12" d="M3.5,28.4v3.5l3.8,2.2v-3.4L3.5,28.4z"/>
		<path id="Path_11044" class="st13" d="M61.6,31.6l2.7,1.6v-3L61.6,31.6z"/>
		<path id="Path_11045" class="st12" d="M25.7,41.3L25.7,41.3L7.3,30.6v3.4l16,9.3v-0.7L25.7,41.3z"/>
		<path id="Path_11046" class="st14" d="M0.2,26.1c0,0.1,0.1,0.2,0.1,0.2c0.1,0.1,0.2,0.2,0.3,0.3l0.2,0.2C1,27,1.2,27.1,1.4,27.2
			l2.1,1.3l3.8,2.2l18.4,10.7L52,26.2l-2.6-1.5l-4.7-12.2L38.6,9c-1-0.5-2.1-0.5-3.1,0c-0.3,0.2-0.5,0.4-0.6,0.7
			c-0.1,0.2-0.1,0.5-0.1,0.7v0.2c0,0.1,0,0.2,0.1,0.3V11c0,0.1,0.1,0.3,0.2,0.4c0,0,0,0.1,0.1,0.1c0,0,0,0,0,0
			c0.1,0.1,0.1,0.2,0.2,0.3c0,0.1,0.1,0.1,0.1,0.2c0.1,0.1,0.2,0.2,0.2,0.3l0.2,0.2c0.1,0.1,0.2,0.2,0.3,0.3l0.2,0.2
			c0.2,0.2,0.3,0.3,0.5,0.5c0.2,0.1,0.3,0.3,0.4,0.5c0,0.1,0.1,0.1,0.1,0.2c0.1,0.1,0.1,0.2,0.2,0.3c0,0.1,0.1,0.1,0.1,0.2
			c0.1,0.1,0.1,0.3,0.1,0.4v0.1c0,0.2,0,0.4-0.1,0.5L37,17.1l-0.1,0.2l-7.1-4.1L8.4,0.8c-2.1-1-4.5-1-6.6,0C0.9,1.4,0.4,2.2,0.5,3
			v0.2c0,0.1,0.1,0.2,0.2,0.3c0,0.1,0.1,0.2,0.1,0.2C0.9,3.8,0.9,4,1.1,4l0.2,0.2c0.2,0.2,0.4,0.3,0.6,0.4l15.4,9
			c-2-1-4.3-1-6.3-0.2c-0.1,0.1-0.2,0.1-0.3,0.2c-1,0.6-1.5,1.4-1.3,2.2V16c0,0.1,0.1,0.2,0.2,0.3c0,0.1,0.1,0.2,0.1,0.2
			c0.1,0.1,0.2,0.2,0.3,0.3l0.2,0.2c0.2,0.2,0.4,0.3,0.6,0.4l1.3,0.7c-0.4-0.2-0.8-0.4-1.3-0.5c-0.4-0.2-0.9-0.2-1.3-0.2
			c-1.3-0.1-2.6,0.1-3.8,0.7c-0.8,0.4-1.3,1.2-1.3,2.1v0.2c0,0.1,0.1,0.2,0.2,0.3c0,0.1,0.1,0.2,0.1,0.2c0.1,0.1,0.2,0.2,0.3,0.3
			l0.2,0.2c0.2,0.2,0.3,0.3,0.5,0.4L8,23.3c-0.8-0.4-1.7-0.7-2.6-0.8c-0.4,0-0.9,0-1.3,0c-1,0-1.9,0.3-2.7,0.8
			c-1,0.6-1.5,1.4-1.3,2.2v0.2C0.2,25.8,0.2,26,0.2,26.1z"/>
		<path id="Path_11047" class="st12" d="M28.8,43"/>
		<path id="Path_11048" class="st12" d="M29.2,42.3L29.2,42.3c-0.1,0.1-0.2,0.2-0.2,0.2l0,0C29,42.4,29.1,42.4,29.2,42.3z"/>
		<path id="Path_11049" class="st12" d="M25.7,41.3L25.7,41.3l26.2-15.2L25.7,41.3z"/>
		<path id="Path_11050" class="st12" d="M28.9,42.6L28.9,42.6c0,0.1-0.1,0.2-0.1,0.2l0,0C28.8,42.7,28.9,42.6,28.9,42.6z"/>
		<path id="Path_11051" class="st12" d="M29.2,42.1L29.2,42.1c0.1-0.1,0.3-0.2,0.4-0.2h0.1L29.2,42.1z"/>
		<path id="Path_11052" class="st15" d="M35.2,42.8L35.2,42.8c0-0.1-0.1-0.2-0.1-0.2l0,0C35.1,42.7,35.2,42.7,35.2,42.8z"/>
		<path id="Path_11053" class="st15" d="M35.3,43.2L35.3,43.2V43l0,0V43.2z"/>
		<path id="Path_11054" class="st15" d="M35,42.5L35,42.5c-0.1-0.1-0.2-0.2-0.2-0.2l0,0C34.9,42.4,34.9,42.4,35,42.5z"/>
		<path id="Path_11055" class="st15" d="M30.8,41.4c-0.4,0.1-0.7,0.2-1.1,0.4l0,0C30.1,41.6,30.4,41.5,30.8,41.4z"/>
		<path id="Path_11056" class="st15" d="M29.2,42.1L29.2,42.1L29.2,42.1L29.2,42.1C29.2,42.2,29.2,42.2,29.2,42.1
			C29.2,42.1,29.2,42.1,29.2,42.1z"/>
		<path id="Path_11057" class="st15" d="M28.8,42.8L28.8,42.8V43l0,0V42.8z"/>
		<path id="Path_11058" class="st15" d="M29,42.5L29,42.5c0,0.1-0.1,0.1-0.1,0.2l0,0C28.9,42.6,28.9,42.5,29,42.5z"/>
		<path id="Path_11059" class="st15" d="M29.7,41.9"/>
		<path id="Path_11060" class="st11" d="M32,45.1c0.8,0,1.6-0.2,2.3-0.5C33.6,44.9,32.8,45.1,32,45.1z"/>
		<path id="Path_11061" class="st11" d="M35.3,43.2"/>
		<path id="Path_11062" class="st16" d="M29.7,41.9L29.7,41.9c-0.2,0.2-0.3,0.2-0.4,0.3c-0.1,0-0.1,0.1-0.1,0.2
			c-0.1,0.1-0.2,0.2-0.2,0.2S29,42.7,29,42.7s-0.1,0.2-0.1,0.2v0.4c0,0.3,0.1,0.5,0.2,0.7c0.2,0.3,0.4,0.5,0.7,0.6
			c0.7,0.4,1.5,0.6,2.3,0.5c0.8,0,1.6-0.2,2.3-0.5c0.4-0.2,0.7-0.6,0.9-1c0.1-0.1,0.1-0.3,0.1-0.4l0,0v-0.4l0,0
			c0-0.1-0.1-0.2-0.1-0.2s-0.1-0.1-0.1-0.2l-0.2-0.2l-0.1-0.1c-0.2-0.1-0.2-0.2-0.4-0.3c-0.3-0.2-0.7-0.3-1.1-0.4
			c-0.4-0.1-0.8-0.1-1.3-0.2c-0.4,0-0.8,0.1-1.3,0.2C30.6,41.4,30.1,41.6,29.7,41.9L29.7,41.9z"/>
		<path id="Path_11063" class="st17" d="M61.6,31.6"/>
		<path id="Path_11064" class="st13" d="M35.3,46.8l-2.4,1.4v3.5l2.4-1.4V46.8z"/>
		<path id="Path_11065" class="st13" d="M32.8,48.2l-9.5-5.6v3.5l9.5,5.6V48.2z"/>
		<path id="Path_11066" class="st13" d="M35.3,46.8v3.5L46,56.5v-3.4L35.3,46.8z"/>
		<path id="Path_11067" class="st18" d="M72.3,37.8L46,53.1v3.4l26.3-15.2V37.8z"/>
		<path id="Path_11068" class="st19" d="M25.7,41.3l-2.4,1.3l9.5,5.6l2.4-1.4L46,53.1l26.4-15.2l-8.1-4.7l-2.7-1.6l0,0l2.7-1.5
			l-9.5-5.6L52,26.2L25.7,41.3z M29.7,41.9c0.3-0.2,0.7-0.3,1.1-0.4c0.4-0.1,0.8-0.1,1.3-0.2c0.4,0,0.8,0.1,1.3,0.2
			c0.4,0.1,0.7,0.2,1.1,0.4c0.2,0.1,0.3,0.2,0.4,0.3c0,0,0.1,0,0.1,0.1c0,0,0,0,0,0c0.1,0.1,0.2,0.2,0.2,0.2s0.1,0.1,0.1,0.2
			s0.1,0.2,0.1,0.2l0,0v0.4l0,0c0,0.1,0,0.3-0.1,0.4c-0.2,0.4-0.5,0.8-0.9,1c-0.7,0.4-1.5,0.6-2.3,0.5c-0.8,0-1.6-0.2-2.3-0.5
			c-0.3-0.1-0.5-0.4-0.7-0.6c-0.1-0.2-0.2-0.4-0.2-0.7V43c0-0.1,0.1-0.2,0.1-0.2s0-0.1,0.1-0.2l0.2-0.2l0.1-0.1
			C29.4,42,29.5,42,29.7,41.9z"/>
	</g>
	<g id="Group_9500" transform="translate(16781.797 10867.614)">
		<g id="Group_9375" transform="translate(30.269 19.383)">
			<g id="Group_9372">
				<g id="Group_9371">
					<path id="Path_18263" class="st20" d="M28.7,57.8L0,42.5V12.4l28.7,15.3V57.8z"/>
					<g transform="matrix(1, 0, 0, 1, -397.07, -55)">
						<path id="Path_18264-13" class="st21" d="M425.8,112.8L452,98.1V69.6l-26.2,13.1V112.8z"/>
					</g>
					<path id="Path_18265" class="st22" d="M0,12.4l28.7,15.3l26.2-13.1L26.8,0L0,12.4z"/>
				</g>
			</g>
			<g id="Group_9373" transform="translate(13.941 6.588)">
				<path id="Path_18266" class="st23" d="M1.7,44.3l-1.7-1V13.3l1.7,0.9V44.3z"/>
				<path id="Path_18267" class="st24" d="M26.9,0.7L25.6,0L0,13.3l1.8,0.9L26.9,0.7z"/>
			</g>
			<g id="Group_9374" transform="translate(12.795 5.825)">
				<path id="Path_18268" class="st23" d="M28.5,44.9l1.7-1V14.7l-1.7,1V44.9z"/>
				<path id="Path_18269" class="st24" d="M0,0.7L1.5,0l28.6,14.7l-1.7,1L0,0.7z"/>
			</g>
		</g>
		<g id="Group_9380" transform="translate(0 33.42)">
			<g id="Group_9377">
				<g id="Group_9376">
					<g transform="matrix(1, 0, 0, 1, -366.8, -69.03)">
						<path id="Path_18270-13" class="st20" d="M396.3,128.5l-29.5-16.4V81.2l29.5,16.4V128.5z"/>
					</g>
					<g transform="matrix(1, 0, 0, 1, -366.8, -69.03)">
						<path id="Path_18271-13" class="st21" d="M396.3,128.5l26.9-14.5V84.8l-26.9,12.8V128.5z"/>
					</g>
					<path id="Path_18272" class="st22" d="M0,12.1l29.5,16.4l26.9-12.8L27.5,0L0,12.1z"/>
				</g>
			</g>
			<g id="Group_9378" transform="translate(14.323 7.161)">
				<path id="Path_18273" class="st23" d="M1.8,44.9l-1.8-1V13l1.8,1V44.9z"/>
				<path id="Path_18274" class="st24" d="M27.6,0.7L26.3,0L0,13l1.9,1L27.6,0.7z"/>
			</g>
			<g id="Group_9379" transform="translate(13.177 5.729)">
				<path id="Path_18275" class="st23" d="M29.1,46.8l1.8-1v-30l-1.8,0.9V46.8z"/>
				<path id="Path_18276" class="st24" d="M0,0.7L1.4,0l29.5,15.9l-1.8,0.9L0,0.7z"/>
			</g>
		</g>
		<g id="Group_9385" transform="translate(15.946)">
			<g id="Group_9382">
				<g id="Group_9381">
					<path id="Path_18277" class="st20" d="M26.5,53.5L0,38.3V10.5l26.5,15.2V53.5z"/>
					<path id="Path_18278" class="st21" d="M26.5,53.5l24.3-12.6V14.6L26.5,25.7V53.5z"/>
					<path id="Path_18279" class="st22" d="M0,10.5l26.5,15.2l24.3-11.1L24.7,0L0,10.5z"/>
				</g>
			</g>
			<g id="Group_9383" transform="translate(12.891 6.588)">
				<path id="Path_18280" class="st23" d="M1.6,40L0,39.1V11.3l1.6,1V40z"/>
				<path id="Path_18281" class="st24" d="M24.8,0.7L23.7,0L0,11.3l1.7,0.9L24.8,0.7z"/>
			</g>
			<g id="Group_9384" transform="translate(11.84 4.87)">
				<path id="Path_18282" class="st23" d="M26.3,42.6l1.6-0.9V14.8l-1.6,0.8V42.6z"/>
				<path id="Path_18283" class="st24" d="M0,0.6L1.3,0l26.5,14.8l-1.6,0.8L0,0.6z"/>
			</g>
		</g>
	</g>
	<g id="Group_9510" transform="translate(17341.098 10869.614)">
		<g id="Group_9375-2" transform="translate(0 19.383)">
			<g id="Group_9372-2">
				<g id="Group_9371-2">
					<path id="Path_18263-2" class="st20" d="M26.2,57.8l28.7-15.3V12.4L26.2,27.7V57.8z"/>
					<g transform="matrix(1, 0, 0, 1, -926.1, -57)">
						<path id="Path_18264-14" class="st21" d="M952.3,114.8l-26.2-14.7V71.6l26.2,13.1V114.8z"/>
					</g>
					<path id="Path_18265-2" class="st22" d="M54.9,12.4L26.2,27.7L0,14.6L28.1,0L54.9,12.4z"/>
				</g>
			</g>
			<g id="Group_9373-2" transform="translate(14.036 6.588)">
				<path id="Path_18266-2" class="st23" d="M25.2,44.3l1.7-1V13.3l-1.7,0.9V44.3z"/>
				<path id="Path_18267-2" class="st24" d="M0,0.7L1.3,0l25.6,13.3l-1.8,0.9L0,0.7z"/>
			</g>
			<g id="Group_9374-2" transform="translate(11.936 5.825)">
				<path id="Path_18268-2" class="st23" d="M1.7,44.9l-1.7-1V14.7l1.7,1V44.9z"/>
				<path id="Path_18269-2" class="st24" d="M30.2,0.7L28.6,0L0,14.7l1.7,1L30.2,0.7z"/>
			</g>
		</g>
		<g id="Group_9380-2" transform="translate(28.741 33.42)">
			<g id="Group_9377-2">
				<g id="Group_9376-2">
					<g transform="matrix(1, 0, 0, 1, -954.84, -71.03)">
						<path id="Path_18270-14" class="st20" d="M981.8,130.5l29.5-16.4V83.2l-29.5,16.4V130.5z"/>
					</g>
					<g transform="matrix(1, 0, 0, 1, -954.84, -71.03)">
						<path id="Path_18271-14" class="st21" d="M981.8,130.5L954.8,116V86.8l26.9,12.8V130.5z"/>
					</g>
					<path id="Path_18272-2" class="st22" d="M56.4,12.1L26.9,28.5L0,15.8L28.9,0L56.4,12.1z"/>
				</g>
			</g>
			<g id="Group_9378-2" transform="translate(14.514 7.161)">
				<path id="Path_18273-2" class="st23" d="M25.8,44.9l1.8-1V13l-1.8,1V44.9z"/>
				<path id="Path_18274-2" class="st24" d="M0,0.7L1.3,0l26.3,13l-1.9,1L0,0.7z"/>
			</g>
			<g id="Group_9379-2" transform="translate(12.318 5.729)">
				<path id="Path_18275-2" class="st23" d="M1.8,46.8l-1.8-1v-30l1.8,0.9V46.8z"/>
				<path id="Path_18276-2" class="st24" d="M30.9,0.7L29.5,0L0,15.9l1.8,0.9L30.9,0.7z"/>
			</g>
		</g>
		<g id="Group_9385-2" transform="translate(18.429)">
			<g id="Group_9382-2">
				<g id="Group_9381-2">
					<path id="Path_18277-2" class="st20" d="M24.3,53.5l26.5-15.2V10.5L24.3,25.7V53.5z"/>
					<path id="Path_18278-2" class="st21" d="M24.3,53.5L0,40.9V14.6l24.3,11.1V53.5z"/>
					<path id="Path_18279-2" class="st22" d="M50.8,10.5L24.3,25.7L0,14.6L26.1,0L50.8,10.5z"/>
				</g>
			</g>
			<g id="Group_9383-2" transform="translate(13.081 6.588)">
				<path id="Path_18280-2" class="st23" d="M23.2,40l1.6-0.9V11.3l-1.6,1V40z"/>
				<path id="Path_18281-2" class="st24" d="M0,0.7L1.1,0l23.7,11.3l-1.7,0.9L0,0.7z"/>
			</g>
			<g id="Group_9384-2" transform="translate(11.076 4.87)">
				<path id="Path_18282-2" class="st23" d="M1.6,42.6L0,41.7V14.8l1.6,0.8V42.6z"/>
				<path id="Path_18283-2" class="st24" d="M27.9,0.6L26.5,0L0,14.8l1.6,0.8L27.9,0.6z"/>
			</g>
		</g>
	</g>
	<g id="Group_9503" transform="translate(16684.797 10923.614)">
		<g id="Group_9375-3" transform="translate(30.269 19.383)">
			<g id="Group_9372-3">
				<g id="Group_9371-3">
					<path id="Path_18263-3" class="st20" d="M28.7,57.8L0,42.5V12.4l28.7,15.3V57.8z"/>
					<g transform="matrix(1, 0, 0, 1, -300.07, -111)">
						<path id="Path_18264-15" class="st21" d="M328.8,168.8l26.2-14.7v-28.5l-26.2,13.1V168.8z"/>
					</g>
					<path id="Path_18265-3" class="st22" d="M0,12.4l28.7,15.3l26.2-13.1L26.8,0L0,12.4z"/>
				</g>
			</g>
			<g id="Group_9373-3" transform="translate(13.941 6.588)">
				<path id="Path_18266-3" class="st23" d="M1.7,44.3l-1.7-1V13.3l1.7,0.9V44.3z"/>
				<path id="Path_18267-3" class="st24" d="M26.9,0.7L25.6,0L0,13.3l1.8,0.9L26.9,0.7z"/>
			</g>
			<g id="Group_9374-3" transform="translate(12.795 5.825)">
				<path id="Path_18268-3" class="st23" d="M28.5,44.9l1.7-1V14.7l-1.7,1V44.9z"/>
				<path id="Path_18269-3" class="st24" d="M0,0.7L1.5,0l28.6,14.7l-1.7,1L0,0.7z"/>
			</g>
		</g>
		<g id="Group_9380-3" transform="translate(0 33.42)">
			<g id="Group_9377-3">
				<g id="Group_9376-3">
					<g transform="matrix(1, 0, 0, 1, -269.8, -125.03)">
						<path id="Path_18270-15" class="st20" d="M299.3,184.5l-29.5-16.4v-30.9l29.5,16.4V184.5z"/>
					</g>
					<g transform="matrix(1, 0, 0, 1, -269.8, -125.03)">
						<path id="Path_18271-15" class="st21" d="M299.3,184.5l26.9-14.5v-29.2l-26.9,12.8V184.5z"/>
					</g>
					<path id="Path_18272-3" class="st22" d="M0,12.1l29.5,16.4l26.9-12.8L27.5,0L0,12.1z"/>
				</g>
			</g>
			<g id="Group_9378-3" transform="translate(14.323 7.161)">
				<path id="Path_18273-3" class="st23" d="M1.8,44.9l-1.8-1V13l1.8,1V44.9z"/>
				<path id="Path_18274-3" class="st24" d="M27.6,0.7L26.3,0L0,13l1.9,1L27.6,0.7z"/>
			</g>
			<g id="Group_9379-3" transform="translate(13.177 5.729)">
				<path id="Path_18275-3" class="st23" d="M29.1,46.8l1.8-1v-30l-1.8,0.9V46.8z"/>
				<path id="Path_18276-3" class="st24" d="M0,0.7L1.4,0l29.5,15.9l-1.8,0.9L0,0.7z"/>
			</g>
		</g>
		<g id="Group_9385-3" transform="translate(15.946)">
			<g id="Group_9382-3">
				<g id="Group_9381-3">
					<path id="Path_18277-3" class="st20" d="M26.5,53.5L0,38.3V10.5l26.5,15.2V53.5z"/>
					<path id="Path_18278-3" class="st21" d="M26.5,53.5l24.3-12.6V14.6L26.5,25.7V53.5z"/>
					<path id="Path_18279-3" class="st22" d="M0,10.5l26.5,15.2l24.3-11.1L24.7,0L0,10.5z"/>
				</g>
			</g>
			<g id="Group_9383-3" transform="translate(12.891 6.588)">
				<path id="Path_18280-3" class="st23" d="M1.6,40L0,39.1V11.3l1.6,1V40z"/>
				<path id="Path_18281-3" class="st24" d="M24.8,0.7L23.7,0L0,11.3l1.7,0.9L24.8,0.7z"/>
			</g>
			<g id="Group_9384-3" transform="translate(11.84 4.87)">
				<path id="Path_18282-3" class="st23" d="M26.3,42.6l1.6-0.9V14.8l-1.6,0.8V42.6z"/>
				<path id="Path_18283-3" class="st24" d="M0,0.6L1.3,0l26.5,14.8l-1.6,0.8L0,0.6z"/>
			</g>
		</g>
	</g>
	<g id="Group_9508" transform="translate(17432.943 10914.129)">
		<g id="Group_9375-4" transform="translate(0 19.383)">
			<g id="Group_9372-4">
				<g id="Group_9371-4">
					<path id="Path_18263-4" class="st20" d="M26.2,57.8l28.7-15.3V12.4L26.2,27.7V57.8z"/>
					<g transform="matrix(1, 0, 0, 1, -1017.94, -101.51)">
						<path id="Path_18264-16" class="st21" d="M1044.1,159.3l-26.2-14.7v-28.5l26.2,13.1V159.3z"/>
					</g>
					<path id="Path_18265-4" class="st22" d="M54.9,12.4L26.2,27.7L0,14.6L28.1,0L54.9,12.4z"/>
				</g>
			</g>
			<g id="Group_9373-4" transform="translate(14.036 6.588)">
				<path id="Path_18266-4" class="st23" d="M25.2,44.3l1.7-1V13.3l-1.7,0.9V44.3z"/>
				<path id="Path_18267-4" class="st24" d="M0,0.7L1.3,0l25.6,13.3l-1.8,0.9L0,0.7z"/>
			</g>
			<g id="Group_9374-4" transform="translate(11.936 5.825)">
				<path id="Path_18268-4" class="st23" d="M1.7,44.9l-1.7-1V14.7l1.7,1V44.9z"/>
				<path id="Path_18269-4" class="st24" d="M30.2,0.7L28.6,0L0,14.7l1.7,1L30.2,0.7z"/>
			</g>
		</g>
		<g id="Group_9380-4" transform="translate(28.741 33.42)">
			<g id="Group_9377-4">
				<g id="Group_9376-4">
					<g transform="matrix(1, 0, 0, 1, -1046.68, -115.55)">
						<path id="Path_18270-16" class="st20" d="M1073.6,175l29.5-16.4v-30.9l-29.5,16.4V175z"/>
					</g>
					<g transform="matrix(1, 0, 0, 1, -1046.68, -115.55)">
						<path id="Path_18271-16" class="st21" d="M1073.6,175l-26.9-14.5v-29.2l26.9,12.8V175z"/>
					</g>
					<path id="Path_18272-4" class="st22" d="M56.4,12.1L26.9,28.5L0,15.8L28.9,0L56.4,12.1z"/>
				</g>
			</g>
			<g id="Group_9378-4" transform="translate(14.514 7.161)">
				<path id="Path_18273-4" class="st23" d="M25.8,44.9l1.8-1V13l-1.8,1V44.9z"/>
				<path id="Path_18274-4" class="st24" d="M0,0.7L1.3,0l26.3,13l-1.9,1L0,0.7z"/>
			</g>
			<g id="Group_9379-4" transform="translate(12.318 5.729)">
				<path id="Path_18275-4" class="st23" d="M1.8,46.8l-1.8-1v-30l1.8,0.9V46.8z"/>
				<path id="Path_18276-4" class="st24" d="M30.9,0.7L29.5,0L0,15.9l1.8,0.9L30.9,0.7z"/>
			</g>
		</g>
		<g id="Group_9385-4" transform="translate(18.429)">
			<g id="Group_9382-4">
				<g id="Group_9381-4">
					<path id="Path_18277-4" class="st20" d="M24.3,53.5l26.5-15.2V10.5L24.3,25.7V53.5z"/>
					<path id="Path_18278-4" class="st21" d="M24.3,53.5L0,40.9V14.6l24.3,11.1V53.5z"/>
					<path id="Path_18279-4" class="st22" d="M50.8,10.5L24.3,25.7L0,14.6L26.1,0L50.8,10.5z"/>
				</g>
			</g>
			<g id="Group_9383-4" transform="translate(13.081 6.588)">
				<path id="Path_18280-4" class="st23" d="M23.2,40l1.6-0.9V11.3l-1.6,1V40z"/>
				<path id="Path_18281-4" class="st24" d="M0,0.7L1.1,0l23.7,11.3l-1.7,0.9L0,0.7z"/>
			</g>
			<g id="Group_9384-4" transform="translate(11.076 4.87)">
				<path id="Path_18282-4" class="st23" d="M1.6,42.6L0,41.7V14.8l1.6,0.8V42.6z"/>
				<path id="Path_18283-4" class="st24" d="M27.9,0.6L26.5,0L0,14.8l1.6,0.8L27.9,0.6z"/>
			</g>
		</g>
	</g>
	<g id="Group_9505" transform="translate(16599.797 10984.614)">
		<g id="Group_9375-5" transform="translate(30.269 19.383)">
			<g id="Group_9372-5">
				<g id="Group_9371-5">
					<path id="Path_18263-5" class="st20" d="M28.7,57.8L0,42.5V12.4l28.7,15.3V57.8z"/>
					<g transform="matrix(1, 0, 0, 1, -215.07, -172)">
						<path id="Path_18264-17" class="st21" d="M243.8,229.8l26.2-14.7v-28.5l-26.2,13.1V229.8z"/>
					</g>
					<path id="Path_18265-5" class="st22" d="M0,12.4l28.7,15.3l26.2-13.1L26.8,0L0,12.4z"/>
				</g>
			</g>
			<g id="Group_9373-5" transform="translate(13.941 6.588)">
				<path id="Path_18266-5" class="st23" d="M1.7,44.3l-1.7-1V13.3l1.7,0.9V44.3z"/>
				<path id="Path_18267-5" class="st24" d="M26.9,0.7L25.6,0L0,13.3l1.8,0.9L26.9,0.7z"/>
			</g>
			<g id="Group_9374-5" transform="translate(12.795 5.825)">
				<path id="Path_18268-5" class="st23" d="M28.5,44.9l1.7-1V14.7l-1.7,1V44.9z"/>
				<path id="Path_18269-5" class="st24" d="M0,0.7L1.5,0l28.6,14.7l-1.7,1L0,0.7z"/>
			</g>
		</g>
		<g id="Group_9380-5" transform="translate(0 33.42)">
			<g id="Group_9377-5">
				<g id="Group_9376-5">
					<g transform="matrix(1, 0, 0, 1, -184.8, -186.03)">
						<path id="Path_18270-17" class="st20" d="M214.3,245.5l-29.5-16.4v-30.9l29.5,16.4V245.5z"/>
					</g>
					<g transform="matrix(1, 0, 0, 1, -184.8, -186.03)">
						<path id="Path_18271-17" class="st21" d="M214.3,245.5l26.9-14.5v-29.2l-26.9,12.8V245.5z"/>
					</g>
					<path id="Path_18272-5" class="st22" d="M0,12.1l29.5,16.4l26.9-12.8L27.5,0L0,12.1z"/>
				</g>
			</g>
			<g id="Group_9378-5" transform="translate(14.323 7.161)">
				<path id="Path_18273-5" class="st23" d="M1.8,44.9l-1.8-1V13l1.8,1V44.9z"/>
				<path id="Path_18274-5" class="st24" d="M27.6,0.7L26.3,0L0,13l1.9,1L27.6,0.7z"/>
			</g>
			<g id="Group_9379-5" transform="translate(13.177 5.729)">
				<path id="Path_18275-5" class="st23" d="M29.1,46.8l1.8-1v-30l-1.8,0.9V46.8z"/>
				<path id="Path_18276-5" class="st24" d="M0,0.7L1.4,0l29.5,15.9l-1.8,0.9L0,0.7z"/>
			</g>
		</g>
		<g id="Group_9385-5" transform="translate(15.946)">
			<g id="Group_9382-5">
				<g id="Group_9381-5">
					<path id="Path_18277-5" class="st20" d="M26.5,53.5L0,38.3V10.5l26.5,15.2V53.5z"/>
					<path id="Path_18278-5" class="st21" d="M26.5,53.5l24.3-12.6V14.6L26.5,25.7V53.5z"/>
					<path id="Path_18279-5" class="st22" d="M0,10.5l26.5,15.2l24.3-11.1L24.7,0L0,10.5z"/>
				</g>
			</g>
			<g id="Group_9383-5" transform="translate(12.891 6.588)">
				<path id="Path_18280-5" class="st23" d="M1.6,40L0,39.1V11.3l1.6,1V40z"/>
				<path id="Path_18281-5" class="st24" d="M24.8,0.7L23.7,0L0,11.3l1.7,0.9L24.8,0.7z"/>
			</g>
			<g id="Group_9384-5" transform="translate(11.84 4.87)">
				<path id="Path_18282-5" class="st23" d="M26.3,42.6l1.6-0.9V14.8l-1.6,0.8V42.6z"/>
				<path id="Path_18283-5" class="st24" d="M0,0.6L1.3,0l26.5,14.8l-1.6,0.8L0,0.6z"/>
			</g>
		</g>
	</g>
	<g id="Group_9506" transform="translate(17513.428 10962.617)">
		<g id="Group_9375-6" transform="translate(0 19.383)">
			<g id="Group_9372-6">
				<g id="Group_9371-6">
					<path id="Path_18263-6" class="st20" d="M26.2,57.8l28.7-15.3V12.4L26.2,27.7V57.8z"/>
					<g transform="matrix(1, 0, 0, 1, -1098.43, -150)">
						<path id="Path_18264-18" class="st21" d="M1124.6,207.8l-26.2-14.7v-28.5l26.2,13.1V207.8z"/>
					</g>
					<path id="Path_18265-6" class="st22" d="M54.9,12.4L26.2,27.7L0,14.6L28.1,0L54.9,12.4z"/>
				</g>
			</g>
			<g id="Group_9373-6" transform="translate(14.036 6.588)">
				<path id="Path_18266-6" class="st23" d="M25.2,44.3l1.7-1V13.3l-1.7,0.9V44.3z"/>
				<path id="Path_18267-6" class="st24" d="M0,0.7L1.3,0l25.6,13.3l-1.8,0.9L0,0.7z"/>
			</g>
			<g id="Group_9374-6" transform="translate(11.936 5.825)">
				<path id="Path_18268-6" class="st23" d="M1.7,44.9l-1.7-1V14.7l1.7,1V44.9z"/>
				<path id="Path_18269-6" class="st24" d="M30.2,0.7L28.6,0L0,14.7l1.7,1L30.2,0.7z"/>
			</g>
		</g>
		<g id="Group_9380-6" transform="translate(28.741 33.42)">
			<g id="Group_9377-6">
				<g id="Group_9376-6">
					<g transform="matrix(1, 0, 0, 1, -1127.17, -164.04)">
						<path id="Path_18270-18" class="st20" d="M1154.1,223.5l29.5-16.4v-30.9l-29.5,16.4V223.5z"/>
					</g>
					<g transform="matrix(1, 0, 0, 1, -1127.17, -164.04)">
						<path id="Path_18271-18" class="st21" d="M1154.1,223.5l-26.9-14.5v-29.2l26.9,12.8V223.5z"/>
					</g>
					<path id="Path_18272-6" class="st22" d="M56.4,12.1L26.9,28.5L0,15.8L28.9,0L56.4,12.1z"/>
				</g>
			</g>
			<g id="Group_9378-6" transform="translate(14.514 7.161)">
				<path id="Path_18273-6" class="st23" d="M25.8,44.9l1.8-1V13l-1.8,1V44.9z"/>
				<path id="Path_18274-6" class="st24" d="M0,0.7L1.3,0l26.3,13l-1.9,1L0,0.7z"/>
			</g>
			<g id="Group_9379-6" transform="translate(12.318 5.729)">
				<path id="Path_18275-6" class="st23" d="M1.8,46.8l-1.8-1v-30l1.8,0.9V46.8z"/>
				<path id="Path_18276-6" class="st24" d="M30.9,0.7L29.5,0L0,15.9l1.8,0.9L30.9,0.7z"/>
			</g>
		</g>
		<g id="Group_9385-6" transform="translate(18.429)">
			<g id="Group_9382-6">
				<g id="Group_9381-6">
					<path id="Path_18277-6" class="st20" d="M24.3,53.5l26.5-15.2V10.5L24.3,25.7V53.5z"/>
					<path id="Path_18278-6" class="st21" d="M24.3,53.5L0,40.9V14.6l24.3,11.1V53.5z"/>
					<path id="Path_18279-6" class="st22" d="M50.8,10.5L24.3,25.7L0,14.6L26.1,0L50.8,10.5z"/>
				</g>
			</g>
			<g id="Group_9383-6" transform="translate(13.081 6.588)">
				<path id="Path_18280-6" class="st23" d="M23.2,40l1.6-0.9V11.3l-1.6,1V40z"/>
				<path id="Path_18281-6" class="st24" d="M0,0.7L1.1,0l23.7,11.3l-1.7,0.9L0,0.7z"/>
			</g>
			<g id="Group_9384-6" transform="translate(11.076 4.87)">
				<path id="Path_18282-6" class="st23" d="M1.6,42.6L0,41.7V14.8l1.6,0.8V42.6z"/>
				<path id="Path_18283-6" class="st24" d="M27.9,0.6L26.5,0L0,14.8l1.6,0.8L27.9,0.6z"/>
			</g>
		</g>
	</g>
	<g id="Group_9501" transform="translate(16835.797 10910.614)">
		<g id="Group_9375-7" transform="translate(30.269 19.383)">
			<g id="Group_9372-7">
				<g id="Group_9371-7">
					<path id="Path_18263-7" class="st20" d="M28.7,57.8L0,42.5V12.4l28.7,15.3V57.8z"/>
					<g transform="matrix(1, 0, 0, 1, -451.07, -98)">
						<path id="Path_18264-19" class="st21" d="M479.8,155.8l26.2-14.7v-28.5l-26.2,13.1V155.8z"/>
					</g>
					<path id="Path_18265-7" class="st22" d="M0,12.4l28.7,15.3l26.2-13.1L26.8,0L0,12.4z"/>
				</g>
			</g>
			<g id="Group_9373-7" transform="translate(13.941 6.588)">
				<path id="Path_18266-7" class="st23" d="M1.7,44.3l-1.7-1V13.3l1.7,0.9V44.3z"/>
				<path id="Path_18267-7" class="st24" d="M26.9,0.7L25.6,0L0,13.3l1.8,0.9L26.9,0.7z"/>
			</g>
			<g id="Group_9374-7" transform="translate(12.795 5.825)">
				<path id="Path_18268-7" class="st23" d="M28.5,44.9l1.7-1V14.7l-1.7,1V44.9z"/>
				<path id="Path_18269-7" class="st24" d="M0,0.7L1.5,0l28.6,14.7l-1.7,1L0,0.7z"/>
			</g>
		</g>
		<g id="Group_9380-7" transform="translate(0 33.42)">
			<g id="Group_9377-7">
				<g id="Group_9376-7">
					<g transform="matrix(1, 0, 0, 1, -420.8, -112.03)">
						<path id="Path_18270-19" class="st20" d="M450.3,171.5l-29.5-16.4v-30.9l29.5,16.4V171.5z"/>
					</g>
					<g transform="matrix(1, 0, 0, 1, -420.8, -112.03)">
						<path id="Path_18271-19" class="st21" d="M450.3,171.5l26.9-14.5v-29.2l-26.9,12.8V171.5z"/>
					</g>
					<path id="Path_18272-7" class="st22" d="M0,12.1l29.5,16.4l26.9-12.8L27.5,0L0,12.1z"/>
				</g>
			</g>
			<g id="Group_9378-7" transform="translate(14.323 7.161)">
				<path id="Path_18273-7" class="st23" d="M1.8,44.9l-1.8-1V13l1.8,1V44.9z"/>
				<path id="Path_18274-7" class="st24" d="M27.6,0.7L26.3,0L0,13l1.9,1L27.6,0.7z"/>
			</g>
			<g id="Group_9379-7" transform="translate(13.177 5.729)">
				<path id="Path_18275-7" class="st23" d="M29.1,46.8l1.8-1v-30l-1.8,0.9V46.8z"/>
				<path id="Path_18276-7" class="st24" d="M0,0.7L1.4,0l29.5,15.9l-1.8,0.9L0,0.7z"/>
			</g>
		</g>
		<g id="Group_9385-7" transform="translate(15.946)">
			<g id="Group_9382-7">
				<g id="Group_9381-7">
					<path id="Path_18277-7" class="st20" d="M26.5,53.5L0,38.3V10.5l26.5,15.2V53.5z"/>
					<path id="Path_18278-7" class="st21" d="M26.5,53.5l24.3-12.6V14.6L26.5,25.7V53.5z"/>
					<path id="Path_18279-7" class="st22" d="M0,10.5l26.5,15.2l24.3-11.1L24.7,0L0,10.5z"/>
				</g>
			</g>
			<g id="Group_9383-7" transform="translate(12.891 6.588)">
				<path id="Path_18280-7" class="st23" d="M1.6,40L0,39.1V11.3l1.6,1V40z"/>
				<path id="Path_18281-7" class="st24" d="M24.8,0.7L23.7,0L0,11.3l1.7,0.9L24.8,0.7z"/>
			</g>
			<g id="Group_9384-7" transform="translate(11.84 4.87)">
				<path id="Path_18282-7" class="st23" d="M26.3,42.6l1.6-0.9V14.8l-1.6,0.8V42.6z"/>
				<path id="Path_18283-7" class="st24" d="M0,0.6L1.3,0l26.5,14.8l-1.6,0.8L0,0.6z"/>
			</g>
		</g>
	</g>
	<g id="Group_9511" transform="translate(17269.969 10921.795)">
		<g id="Group_9375-8" transform="translate(0 19.383)">
			<g id="Group_9372-8">
				<g id="Group_9371-8">
					<path id="Path_18263-8" class="st20" d="M26.2,57.8l28.7-15.3V12.4L26.2,27.7V57.8z"/>
					<g transform="matrix(1, 0, 0, 1, -854.97, -109.18)">
						<path id="Path_18264-20" class="st21" d="M881.1,166.9L855,152.2v-28.5l26.2,13.1V166.9z"/>
					</g>
					<path id="Path_18265-8" class="st22" d="M54.9,12.4L26.2,27.7L0,14.6L28.1,0L54.9,12.4z"/>
				</g>
			</g>
			<g id="Group_9373-8" transform="translate(14.036 6.588)">
				<path id="Path_18266-8" class="st23" d="M25.2,44.3l1.7-1V13.3l-1.7,0.9V44.3z"/>
				<path id="Path_18267-8" class="st24" d="M0,0.7L1.3,0l25.6,13.3l-1.8,0.9L0,0.7z"/>
			</g>
			<g id="Group_9374-8" transform="translate(11.936 5.825)">
				<path id="Path_18268-8" class="st23" d="M1.7,44.9l-1.7-1V14.7l1.7,1V44.9z"/>
				<path id="Path_18269-8" class="st24" d="M30.2,0.7L28.6,0L0,14.7l1.7,1L30.2,0.7z"/>
			</g>
		</g>
		<g id="Group_9380-8" transform="translate(28.741 33.42)">
			<g id="Group_9377-8">
				<g id="Group_9376-8">
					<g transform="matrix(1, 0, 0, 1, -883.71, -123.21)">
						<path id="Path_18270-20" class="st20" d="M910.6,182.7l29.5-16.4v-30.9l-29.5,16.4V182.7z"/>
					</g>
					<g transform="matrix(1, 0, 0, 1, -883.71, -123.21)">
						<path id="Path_18271-20" class="st21" d="M910.6,182.7l-26.9-14.5V139l26.9,12.8V182.7z"/>
					</g>
					<path id="Path_18272-8" class="st22" d="M56.4,12.1L26.9,28.5L0,15.8L28.9,0L56.4,12.1z"/>
				</g>
			</g>
			<g id="Group_9378-8" transform="translate(14.514 7.161)">
				<path id="Path_18273-8" class="st23" d="M25.8,44.9l1.8-1V13l-1.8,1V44.9z"/>
				<path id="Path_18274-8" class="st24" d="M0,0.7L1.3,0l26.3,13l-1.9,1L0,0.7z"/>
			</g>
			<g id="Group_9379-8" transform="translate(12.318 5.729)">
				<path id="Path_18275-8" class="st23" d="M1.8,46.8l-1.8-1v-30l1.8,0.9V46.8z"/>
				<path id="Path_18276-8" class="st24" d="M30.9,0.7L29.5,0L0,15.9l1.8,0.9L30.9,0.7z"/>
			</g>
		</g>
		<g id="Group_9385-8" transform="translate(18.429)">
			<g id="Group_9382-8">
				<g id="Group_9381-8">
					<path id="Path_18277-8" class="st20" d="M24.3,53.5l26.5-15.2V10.5L24.3,25.7V53.5z"/>
					<path id="Path_18278-8" class="st21" d="M24.3,53.5L0,40.9V14.6l24.3,11.1V53.5z"/>
					<path id="Path_18279-8" class="st22" d="M50.8,10.5L24.3,25.7L0,14.6L26.1,0L50.8,10.5z"/>
				</g>
			</g>
			<g id="Group_9383-8" transform="translate(13.081 6.588)">
				<path id="Path_18280-8" class="st23" d="M23.2,40l1.6-0.9V11.3l-1.6,1V40z"/>
				<path id="Path_18281-8" class="st24" d="M0,0.7L1.1,0l23.7,11.3l-1.7,0.9L0,0.7z"/>
			</g>
			<g id="Group_9384-8" transform="translate(11.076 4.87)">
				<path id="Path_18282-8" class="st23" d="M1.6,42.6L0,41.7V14.8l1.6,0.8V42.6z"/>
				<path id="Path_18283-8" class="st24" d="M27.9,0.6L26.5,0L0,14.8l1.6,0.8L27.9,0.6z"/>
			</g>
		</g>
	</g>
	<g id="Group_9502" transform="translate(16738.797 10980.614)">
		<g id="Group_9375-9" transform="translate(30.269 19.383)">
			<g id="Group_9372-9">
				<g id="Group_9371-9">
					<path id="Path_18263-9" class="st20" d="M28.7,57.8L0,42.5V12.4l28.7,15.3V57.8z"/>
					<g transform="matrix(1, 0, 0, 1, -354.07, -168)">
						<path id="Path_18264-21" class="st21" d="M382.8,225.8l26.2-14.7v-28.5l-26.2,13.1V225.8z"/>
					</g>
					<path id="Path_18265-9" class="st22" d="M0,12.4l28.7,15.3l26.2-13.1L26.8,0L0,12.4z"/>
				</g>
			</g>
			<g id="Group_9373-9" transform="translate(13.941 6.588)">
				<path id="Path_18266-9" class="st23" d="M1.7,44.3l-1.7-1V13.3l1.7,0.9V44.3z"/>
				<path id="Path_18267-9" class="st24" d="M26.9,0.7L25.6,0L0,13.3l1.8,0.9L26.9,0.7z"/>
			</g>
			<g id="Group_9374-9" transform="translate(12.795 5.825)">
				<path id="Path_18268-9" class="st23" d="M28.5,44.9l1.7-1V14.7l-1.7,1V44.9z"/>
				<path id="Path_18269-9" class="st24" d="M0,0.7L1.5,0l28.6,14.7l-1.7,1L0,0.7z"/>
			</g>
		</g>
		<g id="Group_9380-9" transform="translate(0 33.42)">
			<g id="Group_9377-9">
				<g id="Group_9376-9">
					<g transform="matrix(1, 0, 0, 1, -323.8, -182.03)">
						<path id="Path_18270-21" class="st20" d="M353.3,241.5l-29.5-16.4v-30.9l29.5,16.4V241.5z"/>
					</g>
					<g transform="matrix(1, 0, 0, 1, -323.8, -182.03)">
						<path id="Path_18271-21" class="st21" d="M353.3,241.5l26.9-14.5v-29.2l-26.9,12.8V241.5z"/>
					</g>
					<path id="Path_18272-9" class="st22" d="M0,12.1l29.5,16.4l26.9-12.8L27.5,0L0,12.1z"/>
				</g>
			</g>
			<g id="Group_9378-9" transform="translate(14.323 7.161)">
				<path id="Path_18273-9" class="st23" d="M1.8,44.9l-1.8-1V13l1.8,1V44.9z"/>
				<path id="Path_18274-9" class="st24" d="M27.6,0.7L26.3,0L0,13l1.9,1L27.6,0.7z"/>
			</g>
			<g id="Group_9379-9" transform="translate(13.177 5.729)">
				<path id="Path_18275-9" class="st23" d="M29.1,46.8l1.8-1v-30l-1.8,0.9V46.8z"/>
				<path id="Path_18276-9" class="st24" d="M0,0.7L1.4,0l29.5,15.9l-1.8,0.9L0,0.7z"/>
			</g>
		</g>
		<g id="Group_9385-9" transform="translate(15.946)">
			<g id="Group_9382-9">
				<g id="Group_9381-9">
					<path id="Path_18277-9" class="st20" d="M26.5,53.5L0,38.3V10.5l26.5,15.2V53.5z"/>
					<path id="Path_18278-9" class="st21" d="M26.5,53.5l24.3-12.6V14.6L26.5,25.7V53.5z"/>
					<path id="Path_18279-9" class="st22" d="M0,10.5l26.5,15.2l24.3-11.1L24.7,0L0,10.5z"/>
				</g>
			</g>
			<g id="Group_9383-9" transform="translate(12.891 6.588)">
				<path id="Path_18280-9" class="st23" d="M1.6,40L0,39.1V11.3l1.6,1V40z"/>
				<path id="Path_18281-9" class="st24" d="M24.8,0.7L23.7,0L0,11.3l1.7,0.9L24.8,0.7z"/>
			</g>
			<g id="Group_9384-9" transform="translate(11.84 4.87)">
				<path id="Path_18282-9" class="st23" d="M26.3,42.6l1.6-0.9V14.8l-1.6,0.8V42.6z"/>
				<path id="Path_18283-9" class="st24" d="M0,0.6L1.3,0l26.5,14.8l-1.6,0.8L0,0.6z"/>
			</g>
		</g>
	</g>
	<g id="Group_9509" transform="translate(17361.813 10966.309)">
		<g id="Group_9375-10" transform="translate(0 19.383)">
			<g id="Group_9372-10">
				<g id="Group_9371-10">
					<path id="Path_18263-10" class="st20" d="M26.2,57.8l28.7-15.3V12.4L26.2,27.7V57.8z"/>
					<g transform="matrix(1, 0, 0, 1, -946.81, -153.69)">
						<path id="Path_18264-22" class="st21" d="M973,211.5l-26.2-14.7v-28.5l26.2,13.1V211.5z"/>
					</g>
					<path id="Path_18265-10" class="st22" d="M54.9,12.4L26.2,27.7L0,14.6L28.1,0L54.9,12.4z"/>
				</g>
			</g>
			<g id="Group_9373-10" transform="translate(14.036 6.588)">
				<path id="Path_18266-10" class="st23" d="M25.2,44.3l1.7-1V13.3l-1.7,0.9V44.3z"/>
				<path id="Path_18267-10" class="st24" d="M0,0.7L1.3,0l25.6,13.3l-1.8,0.9L0,0.7z"/>
			</g>
			<g id="Group_9374-10" transform="translate(11.936 5.825)">
				<path id="Path_18268-10" class="st23" d="M1.7,44.9l-1.7-1V14.7l1.7,1V44.9z"/>
				<path id="Path_18269-10" class="st24" d="M30.2,0.7L28.6,0L0,14.7l1.7,1L30.2,0.7z"/>
			</g>
		</g>
		<g id="Group_9380-10" transform="translate(28.741 33.42)">
			<g id="Group_9377-10">
				<g id="Group_9376-10">
					<g transform="matrix(1, 0, 0, 1, -975.55, -167.73)">
						<path id="Path_18270-22" class="st20" d="M1002.5,227.2l29.5-16.4v-30.9l-29.5,16.4V227.2z"/>
					</g>
					<g transform="matrix(1, 0, 0, 1, -975.55, -167.73)">
						<path id="Path_18271-22" class="st21" d="M1002.5,227.2l-26.9-14.5v-29.2l26.9,12.8V227.2z"/>
					</g>
					<path id="Path_18272-10" class="st22" d="M56.4,12.1L26.9,28.5L0,15.8L28.9,0L56.4,12.1z"/>
				</g>
			</g>
			<g id="Group_9378-10" transform="translate(14.514 7.161)">
				<path id="Path_18273-10" class="st23" d="M25.8,44.9l1.8-1V13l-1.8,1V44.9z"/>
				<path id="Path_18274-10" class="st24" d="M0,0.7L1.3,0l26.3,13l-1.9,1L0,0.7z"/>
			</g>
			<g id="Group_9379-10" transform="translate(12.318 5.729)">
				<path id="Path_18275-10" class="st23" d="M1.8,46.8l-1.8-1v-30l1.8,0.9V46.8z"/>
				<path id="Path_18276-10" class="st24" d="M30.9,0.7L29.5,0L0,15.9l1.8,0.9L30.9,0.7z"/>
			</g>
		</g>
		<g id="Group_9385-10" transform="translate(18.429)">
			<g id="Group_9382-10">
				<g id="Group_9381-10">
					<path id="Path_18277-10" class="st20" d="M24.3,53.5l26.5-15.2V10.5L24.3,25.7V53.5z"/>
					<path id="Path_18278-10" class="st21" d="M24.3,53.5L0,40.9V14.6l24.3,11.1V53.5z"/>
					<path id="Path_18279-10" class="st22" d="M50.8,10.5L24.3,25.7L0,14.6L26.1,0L50.8,10.5z"/>
				</g>
			</g>
			<g id="Group_9383-10" transform="translate(13.081 6.588)">
				<path id="Path_18280-10" class="st23" d="M23.2,40l1.6-0.9V11.3l-1.6,1V40z"/>
				<path id="Path_18281-10" class="st24" d="M0,0.7L1.1,0l23.7,11.3l-1.7,0.9L0,0.7z"/>
			</g>
			<g id="Group_9384-10" transform="translate(11.076 4.87)">
				<path id="Path_18282-10" class="st23" d="M1.6,42.6L0,41.7V14.8l1.6,0.8V42.6z"/>
				<path id="Path_18283-10" class="st24" d="M27.9,0.6L26.5,0L0,14.8l1.6,0.8L27.9,0.6z"/>
			</g>
		</g>
	</g>
	<g id="Group_9504" transform="translate(16653.797 11027.614)">
		<g id="Group_9375-11" transform="translate(30.269 19.383)">
			<g id="Group_9372-11">
				<g id="Group_9371-11">
					<path id="Path_18263-11" class="st20" d="M28.7,57.8L0,42.5V12.4l28.7,15.3V57.8z"/>
					<g transform="matrix(1, 0, 0, 1, -269.07, -215)">
						<path id="Path_18264-23" class="st21" d="M297.8,272.8l26.2-14.7v-28.5l-26.2,13.1V272.8z"/>
					</g>
					<path id="Path_18265-11" class="st22" d="M0,12.4l28.7,15.3l26.2-13.1L26.8,0L0,12.4z"/>
				</g>
			</g>
			<g id="Group_9373-11" transform="translate(13.941 6.588)">
				<path id="Path_18266-11" class="st23" d="M1.7,44.3l-1.7-1V13.3l1.7,0.9V44.3z"/>
				<path id="Path_18267-11" class="st24" d="M26.9,0.7L25.6,0L0,13.3l1.8,0.9L26.9,0.7z"/>
			</g>
			<g id="Group_9374-11" transform="translate(12.795 5.825)">
				<path id="Path_18268-11" class="st23" d="M28.5,44.9l1.7-1V14.7l-1.7,1V44.9z"/>
				<path id="Path_18269-11" class="st24" d="M0,0.7L1.5,0l28.6,14.7l-1.7,1L0,0.7z"/>
			</g>
		</g>
		<g id="Group_9380-11" transform="translate(0 33.42)">
			<g id="Group_9377-11">
				<g id="Group_9376-11">
					<g transform="matrix(1, 0, 0, 1, -238.8, -229.03)">
						<path id="Path_18270-23" class="st20" d="M268.3,288.5l-29.5-16.4v-30.9l29.5,16.4V288.5z"/>
					</g>
					<g transform="matrix(1, 0, 0, 1, -238.8, -229.03)">
						<path id="Path_18271-23" class="st21" d="M268.3,288.5l26.9-14.5v-29.2l-26.9,12.8V288.5z"/>
					</g>
					<path id="Path_18272-11" class="st22" d="M0,12.1l29.5,16.4l26.9-12.8L27.5,0L0,12.1z"/>
				</g>
			</g>
			<g id="Group_9378-11" transform="translate(14.323 7.161)">
				<path id="Path_18273-11" class="st23" d="M1.8,44.9l-1.8-1V13l1.8,1V44.9z"/>
				<path id="Path_18274-11" class="st24" d="M27.6,0.7L26.3,0L0,13l1.9,1L27.6,0.7z"/>
			</g>
			<g id="Group_9379-11" transform="translate(13.177 5.729)">
				<path id="Path_18275-11" class="st23" d="M29.1,46.8l1.8-1v-30l-1.8,0.9V46.8z"/>
				<path id="Path_18276-11" class="st24" d="M0,0.7L1.4,0l29.5,15.9l-1.8,0.9L0,0.7z"/>
			</g>
		</g>
		<g id="Group_9385-11" transform="translate(15.946)">
			<g id="Group_9382-11">
				<g id="Group_9381-11">
					<path id="Path_18277-11" class="st20" d="M26.5,53.5L0,38.3V10.5l26.5,15.2V53.5z"/>
					<path id="Path_18278-11" class="st21" d="M26.5,53.5l24.3-12.6V14.6L26.5,25.7V53.5z"/>
					<path id="Path_18279-11" class="st22" d="M0,10.5l26.5,15.2l24.3-11.1L24.7,0L0,10.5z"/>
				</g>
			</g>
			<g id="Group_9383-11" transform="translate(12.891 6.588)">
				<path id="Path_18280-11" class="st23" d="M1.6,40L0,39.1V11.3l1.6,1V40z"/>
				<path id="Path_18281-11" class="st24" d="M24.8,0.7L23.7,0L0,11.3l1.7,0.9L24.8,0.7z"/>
			</g>
			<g id="Group_9384-11" transform="translate(11.84 4.87)">
				<path id="Path_18282-11" class="st23" d="M26.3,42.6l1.6-0.9V14.8l-1.6,0.8V42.6z"/>
				<path id="Path_18283-11" class="st24" d="M0,0.6L1.3,0l26.5,14.8l-1.6,0.8L0,0.6z"/>
			</g>
		</g>
	</g>
	<g id="Group_9507" transform="translate(17442.295 11014.797)">
		<g id="Group_9375-12" transform="translate(0 19.383)">
			<g id="Group_9372-12">
				<g id="Group_9371-12">
					<path id="Path_18263-12" class="st20" d="M26.2,57.8l28.7-15.3V12.4L26.2,27.7V57.8z"/>
					<g transform="matrix(1, 0, 0, 1, -1027.29, -202.18)">
						<path id="Path_18264-24" class="st21" d="M1053.5,259.9l-26.2-14.7v-28.5l26.2,13.1V259.9z"/>
					</g>
					<path id="Path_18265-12" class="st22" d="M54.9,12.4L26.2,27.7L0,14.6L28.1,0L54.9,12.4z"/>
				</g>
			</g>
			<g id="Group_9373-12" transform="translate(14.036 6.588)">
				<path id="Path_18266-12" class="st23" d="M25.2,44.3l1.7-1V13.3l-1.7,0.9V44.3z"/>
				<path id="Path_18267-12" class="st24" d="M0,0.7L1.3,0l25.6,13.3l-1.8,0.9L0,0.7z"/>
			</g>
			<g id="Group_9374-12" transform="translate(11.936 5.825)">
				<path id="Path_18268-12" class="st23" d="M1.7,44.9l-1.7-1V14.7l1.7,1V44.9z"/>
				<path id="Path_18269-12" class="st24" d="M30.2,0.7L28.6,0L0,14.7l1.7,1L30.2,0.7z"/>
			</g>
		</g>
		<g id="Group_9380-12" transform="translate(28.741 33.42)">
			<g id="Group_9377-12">
				<g id="Group_9376-12">
					<g transform="matrix(1, 0, 0, 1, -1056.04, -216.22)">
						<path id="Path_18270-24" class="st20" d="M1083,275.7l29.5-16.4v-30.9l-29.5,16.4V275.7z"/>
					</g>
					<g transform="matrix(1, 0, 0, 1, -1056.04, -216.22)">
						<path id="Path_18271-24" class="st21" d="M1083,275.7l-26.9-14.5V232l26.9,12.8V275.7z"/>
					</g>
					<path id="Path_18272-12" class="st22" d="M56.4,12.1L26.9,28.5L0,15.8L28.9,0L56.4,12.1z"/>
				</g>
			</g>
			<g id="Group_9378-12" transform="translate(14.514 7.161)">
				<path id="Path_18273-12" class="st23" d="M25.8,44.9l1.8-1V13l-1.8,1V44.9z"/>
				<path id="Path_18274-12" class="st24" d="M0,0.7L1.3,0l26.3,13l-1.9,1L0,0.7z"/>
			</g>
			<g id="Group_9379-12" transform="translate(12.318 5.729)">
				<path id="Path_18275-12" class="st23" d="M1.8,46.8l-1.8-1v-30l1.8,0.9V46.8z"/>
				<path id="Path_18276-12" class="st24" d="M30.9,0.7L29.5,0L0,15.9l1.8,0.9L30.9,0.7z"/>
			</g>
		</g>
		<g id="Group_9385-12" transform="translate(18.429)">
			<g id="Group_9382-12">
				<g id="Group_9381-12">
					<path id="Path_18277-12" class="st20" d="M24.3,53.5l26.5-15.2V10.5L24.3,25.7V53.5z"/>
					<path id="Path_18278-12" class="st21" d="M24.3,53.5L0,40.9V14.6l24.3,11.1V53.5z"/>
					<path id="Path_18279-12" class="st22" d="M50.8,10.5L24.3,25.7L0,14.6L26.1,0L50.8,10.5z"/>
				</g>
			</g>
			<g id="Group_9383-12" transform="translate(13.081 6.588)">
				<path id="Path_18280-12" class="st23" d="M23.2,40l1.6-0.9V11.3l-1.6,1V40z"/>
				<path id="Path_18281-12" class="st24" d="M0,0.7L1.1,0l23.7,11.3l-1.7,0.9L0,0.7z"/>
			</g>
			<g id="Group_9384-12" transform="translate(11.076 4.87)">
				<path id="Path_18282-12" class="st23" d="M1.6,42.6L0,41.7V14.8l1.6,0.8V42.6z"/>
				<path id="Path_18283-12" class="st24" d="M27.9,0.6L26.5,0L0,14.8l1.6,0.8L27.9,0.6z"/>
			</g>
		</g>
	</g>
</g>
</svg>
