<svg xmlns="http://www.w3.org/2000/svg" xmlns:xlink="http://www.w3.org/1999/xlink" viewBox="0 0 68 68">
  <defs>
    <style>
      .cls-1 {
        fill: #fe703f;
        stroke: #707070;
        stroke-width: 3px;
      }

      .cls-2 {
        fill: #fff;
      }

      .cls-3 {
        stroke: none;
      }

      .cls-4 {
        fill: none;
      }

      .cls-5 {
        filter: url(#Ellipse_291);
      }
    </style>
    <filter id="Ellipse_291" x="0" y="0" width="68" height="68" filterUnits="userSpaceOnUse">
      <feOffset dy="3" input="SourceAlpha"/>
      <feGaussianBlur stdDeviation="3" result="blur"/>
      <feFlood flood-opacity="0.161"/>
      <feComposite operator="in" in2="blur"/>
      <feComposite in="SourceGraphic"/>
    </filter>
  </defs>
  <g id="Group_9160" data-name="Group 9160" transform="translate(-3156 -1552)">
    <g class="cls-5" transform="matrix(1, 0, 0, 1, 3156, 1552)">
      <g id="Ellipse_291-2" data-name="Ellipse 291" class="cls-1" transform="translate(9 6)">
        <circle class="cls-3" cx="25" cy="25" r="25"/>
        <circle class="cls-4" cx="25" cy="25" r="23.5"/>
      </g>
    </g>
    <path id="noticia" class="cls-2" d="M28.633,64H4.565A1.245,1.245,0,0,0,3.32,65.245v.415H1.245A1.245,1.245,0,0,0,0,66.9V81.014a2.9,2.9,0,0,0,2.9,2.9H27.388a2.49,2.49,0,0,0,2.49-2.49V65.245A1.245,1.245,0,0,0,28.633,64ZM2.9,81.429a.415.415,0,0,1-.415-.415V68.15h.83V81.014A.415.415,0,0,1,2.9,81.429Zm12.242-.83H7.262a.622.622,0,0,1-.622-.622v-.415a.622.622,0,0,1,.622-.622h7.884a.622.622,0,0,1,.622.622v.415A.622.622,0,0,1,15.146,80.6Zm10.789,0H18.051a.622.622,0,0,1-.622-.622v-.415a.622.622,0,0,1,.622-.622h7.884a.622.622,0,0,1,.622.622v.415A.622.622,0,0,1,25.936,80.6Zm-10.789-4.98H7.262A.622.622,0,0,1,6.64,75v-.415a.622.622,0,0,1,.622-.622h7.884a.622.622,0,0,1,.622.622V75A.622.622,0,0,1,15.146,75.619Zm10.789,0H18.051A.622.622,0,0,1,17.429,75v-.415a.622.622,0,0,1,.622-.622h7.884a.622.622,0,0,1,.622.622V75A.622.622,0,0,1,25.936,75.619Zm0-4.98H7.262a.622.622,0,0,1-.622-.622V67.942a.622.622,0,0,1,.622-.622H25.936a.622.622,0,0,1,.622.622v2.075A.622.622,0,0,1,25.936,70.64Z" transform="translate(3175.51 1508.416)"/>
  </g>
</svg>
