<svg xmlns="http://www.w3.org/2000/svg" viewBox="0 0 48 48">
  <defs>
    <style>
      .cls-1, .cls-3 {
        fill: #fff;
      }

      .cls-2 {
        fill: none;
      }

      .cls-3 {
        font-size: 8px;
        font-family: Roboto-Bold, Roboto;
        font-weight: 700;
      }
    </style>
  </defs>
  <g id="Group_8199" data-name="Group 8199" transform="translate(189 283)">
    <path id="Subtraction_1" data-name="Subtraction 1" class="cls-1" d="M24.9,40.612h0a4.715,4.715,0,0,1-3.3-1.335l-4.23-4.111L1.252,19.494A4.139,4.139,0,0,1,.105,15.612l.475-2.064L2.373,5.8A4.1,4.1,0,0,1,5.329,2.743l9.8-2.607A4.191,4.191,0,0,1,16.188,0a4.092,4.092,0,0,1,2.875,1.163L39.416,20.93a4.74,4.74,0,0,1,.1,6.694L33.224,34.1,28.3,39.175A4.7,4.7,0,0,1,24.9,40.612Zm.046-20.4a18.563,18.563,0,0,0-13.279,5.537L24.943,38.921,38.109,25.644A18.567,18.567,0,0,0,24.945,20.217ZM10.039,7.457H9.993a2.767,2.767,0,0,0-2.685,2.4,1.562,1.562,0,0,0-.025.28v.12a2.759,2.759,0,0,0,2.738,2.709h.048c.035,0,.069-.006.1-.008s.077,0,.117-.009a.4.4,0,0,0,.094-.008c.1-.017.2-.034.305-.059l.1-.025c.015,0,.031-.01.047-.016a.454.454,0,0,1,.055-.018,2.75,2.75,0,0,0-.854-5.361Z" transform="translate(-185 -279)"/>
    <rect id="Rectangle_4882" data-name="Rectangle 4882" class="cls-2" width="8.809" height="7.942" transform="translate(-163.77 -254.469)"/>
    <text id="_" data-name="%" class="cls-3" transform="translate(-162.77 -247.406)"><tspan x="0" y="0">%</tspan></text>
    <rect id="Rectangle_4883" data-name="Rectangle 4883" class="cls-2" width="48" height="48" transform="translate(-189 -283)"/>
  </g>
</svg>
