<svg xmlns="http://www.w3.org/2000/svg" xmlns:xlink="http://www.w3.org/1999/xlink" viewBox="0 0 68 68">
  <defs>
    <style>
      .cls-1 {
        fill: #fe703f;
        stroke: #707070;
        stroke-width: 3px;
      }

      .cls-2, .cls-4 {
        fill: #fff;
      }

      .cls-3 {
        fill: none;
      }

      .cls-4 {
        font-size: 6px;
        font-family: Arial-BoldMT, Arial;
        font-weight: 700;
      }

      .cls-5 {
        stroke: none;
      }

      .cls-6 {
        filter: url(#Ellipse_291);
      }
    </style>
    <filter id="Ellipse_291" x="0" y="0" width="68" height="68" filterUnits="userSpaceOnUse">
      <feOffset dy="3" input="SourceAlpha"/>
      <feGaussianBlur stdDeviation="3" result="blur"/>
      <feFlood flood-opacity="0.161"/>
      <feComposite operator="in" in2="blur"/>
      <feComposite in="SourceGraphic"/>
    </filter>
  </defs>
  <g id="Group_9159" data-name="Group 9159" transform="translate(-3220 -1551)">
    <g class="cls-6" transform="matrix(1, 0, 0, 1, 3220, 1551)">
      <g id="Ellipse_291-2" data-name="Ellipse 291" class="cls-1" transform="translate(9 6)">
        <circle class="cls-5" cx="25" cy="25" r="25"/>
        <circle class="cls-3" cx="25" cy="25" r="23.5"/>
      </g>
    </g>
    <g id="promocion" transform="translate(3236.388 1564.708)">
      <path id="Subtraction_1" data-name="Subtraction 1" class="cls-2" d="M18.774,30.619h0a3.555,3.555,0,0,1-2.488-1.007l-3.189-3.1L.944,14.7A3.121,3.121,0,0,1,.08,11.77l.358-1.556L1.79,4.373a3.091,3.091,0,0,1,2.229-2.3L11.407.1a3.16,3.16,0,0,1,.8-.1,3.085,3.085,0,0,1,2.168.877l15.345,14.9a3.574,3.574,0,0,1,.075,5.047l-4.744,4.883-3.712,3.826A3.544,3.544,0,0,1,18.774,30.619Zm.035-15.38A14,14,0,0,0,8.8,19.413l10.009,9.931,9.926-10.01a14,14,0,0,0-9.925-4.092ZM7.569,5.622H7.535A2.086,2.086,0,0,0,5.51,7.432a1.178,1.178,0,0,0-.019.211v.09A2.08,2.08,0,0,0,7.556,9.776h.036c.026,0,.052,0,.075-.006a.549.549,0,0,0,.088-.007.3.3,0,0,0,.071-.006c.075-.013.151-.026.23-.044l.075-.019a.116.116,0,0,0,.035-.012l.041-.014a2.073,2.073,0,0,0-.644-4.042Z" transform="translate(3.015 3.016)"/>
      <rect id="Rectangle_4882" data-name="Rectangle 4882" class="cls-3" width="6.641" height="5.988" transform="translate(19.022 21.511)"/>
      <text id="_" data-name="%" class="cls-4" transform="translate(19.776 26.804)"><tspan x="0" y="0">%</tspan></text>
      <rect id="Rectangle_4883" data-name="Rectangle 4883" class="cls-3" width="36.189" height="36.189" transform="translate(0 0)"/>
    </g>
  </g>
</svg>
