<svg xmlns="http://www.w3.org/2000/svg" viewBox="0 0 640 512">
  <defs>
    <style>
      .cls-1 {
        fill: #fff;
      }
    </style>
  </defs>
  <path id="user-clock" class="cls-1" d="M496,224A144,144,0,1,0,640,368,143.909,143.909,0,0,0,496,224Zm64,150.3a9.774,9.774,0,0,1-9.7,9.7H489.7a9.774,9.774,0,0,1-9.7-9.7V297.7a9.774,9.774,0,0,1,9.7-9.7h12.6a9.774,9.774,0,0,1,9.7,9.7V352h38.3a9.774,9.774,0,0,1,9.7,9.7v12.6ZM320,368a175.383,175.383,0,0,1,18.2-77.5,133.245,133.245,0,0,0-24.6-2.5H296.9a174.075,174.075,0,0,1-145.8,0H134.4A134.435,134.435,0,0,0,0,422.4V464a48.012,48.012,0,0,0,48,48H395.1C349.8,480.1,320,427.5,320,368ZM224,256A128,128,0,1,0,96,128,127.99,127.99,0,0,0,224,256Z"/>
</svg>
