<svg xmlns="http://www.w3.org/2000/svg" xmlns:xlink="http://www.w3.org/1999/xlink" viewBox="0 0 68 68">
  <defs>
    <style>
      .cls-1 {
        fill: #fe703f;
        stroke: #707070;
        stroke-width: 3px;
      }

      .cls-2 {
        fill: #fff;
      }

      .cls-3 {
        stroke: none;
      }

      .cls-4 {
        fill: none;
      }

      .cls-5 {
        filter: url(#Ellipse_291);
      }
    </style>
    <filter id="Ellipse_291" x="0" y="0" width="68" height="68" filterUnits="userSpaceOnUse">
      <feOffset dy="3" input="SourceAlpha"/>
      <feGaussianBlur stdDeviation="3" result="blur"/>
      <feFlood flood-opacity="0.161"/>
      <feComposite operator="in" in2="blur"/>
      <feComposite in="SourceGraphic"/>
    </filter>
  </defs>
  <g id="Group_9163" data-name="Group 9163" transform="translate(-2970 -1552)">
    <g class="cls-5" transform="matrix(1, 0, 0, 1, 2970, 1552)">
      <g id="Ellipse_291-2" data-name="Ellipse 291" class="cls-1" transform="translate(9 6)">
        <circle class="cls-3" cx="25" cy="25" r="25"/>
        <circle class="cls-4" cx="25" cy="25" r="23.5"/>
      </g>
    </g>
    <path id="renovacion" class="cls-2" d="M22,9.935A6.383,6.383,0,1,0,26.516,11.8,6.387,6.387,0,0,0,22,9.935ZM24.837,16.6a.433.433,0,0,1-.43.43H21.719a.434.434,0,0,1-.43-.43V13.2a.433.433,0,0,1,.43-.43h.559a.434.434,0,0,1,.43.43v2.408h1.7a.434.434,0,0,1,.43.43V16.6Zm-10.645-.279A7.779,7.779,0,0,1,15,12.884a5.91,5.91,0,0,0-1.091-.111h-.741a7.721,7.721,0,0,1-6.467,0H5.961A5.963,5.963,0,0,0,0,18.735V20.58a2.129,2.129,0,0,0,2.129,2.129H17.524A7.806,7.806,0,0,1,14.193,16.322ZM9.935,11.354A5.677,5.677,0,1,0,4.258,5.677a5.677,5.677,0,0,0,5.677,5.677Z" transform="translate(2990.965 1570.708)"/>
  </g>
</svg>
