<svg xmlns="http://www.w3.org/2000/svg" xmlns:xlink="http://www.w3.org/1999/xlink" width="133" height="133" viewBox="0 0 133 133">
  <defs>
    <filter id="Elipse_291" x="0" y="0" width="133" height="133" filterUnits="userSpaceOnUse">
      <feOffset dy="3" input="SourceAlpha"/>
      <feGaussianBlur stdDeviation="10.5" result="blur"/>
      <feFlood flood-color="#ff8958"/>
      <feComposite operator="in" in2="blur"/>
      <feComposite in="SourceGraphic"/>
    </filter>
  </defs>
  <g id="Grupo_10680" data-name="Grupo 10680" transform="translate(7.5 -56.5)">
    <g transform="matrix(1, 0, 0, 1, -7.5, 56.5)" filter="url(#Elipse_291)">
      <g id="Elipse_291-2" data-name="Elipse 291" transform="translate(31.5 28.5)" fill="#ff8958" stroke="#fff" stroke-width="3">
        <circle cx="35" cy="35" r="35" stroke="none"/>
        <circle cx="35" cy="35" r="33.5" fill="none"/>
      </g>
    </g>
    <g id="ticket" transform="translate(42 103)">
      <g id="Grupo_10407" data-name="Grupo 10407" transform="translate(-5 -5)">
        <path id="Trazado_23787" data-name="Trazado 23787" d="M42.186,14.311l-3.226-3.2a4.944,4.944,0,0,1-6.962,0,4.738,4.738,0,0,1-1.433-3.481A4.741,4.741,0,0,1,32,4.148L28.8.948a3.307,3.307,0,0,0-4.633,0L.947,24.14a3.306,3.306,0,0,0,0,4.633L4.147,32a4.741,4.741,0,0,1,3.482-1.433A4.738,4.738,0,0,1,11.11,32a4.944,4.944,0,0,1,0,6.963l3.226,3.225a3.307,3.307,0,0,0,4.633,0L42.186,18.944a3.307,3.307,0,0,0,0-4.633Zm-6.937,5.12L19.429,35.249a1.669,1.669,0,0,1-2.3,0L7.859,25.983a1.608,1.608,0,0,1,0-2.3L23.679,7.86a1.67,1.67,0,0,1,2.3,0l9.266,9.267a1.607,1.607,0,0,1,0,2.3Z" transform="translate(0 -0.001)" fill="#fff"/>
        <path id="Trazado_23788" data-name="Trazado 23788" d="M128.294,113.639l8.089,8.089L121.741,136.37l-8.089-8.089Z" transform="translate(-103.462 -103.45)" fill="#fff"/>
      </g>
    </g>
  </g>
</svg>
