<svg xmlns="http://www.w3.org/2000/svg" width="32" height="32" viewBox="0 0 32 32">
  <g id="call" transform="translate(0 -0.446)">
    <rect id="Path" width="32" height="32" transform="translate(0 0.446)" fill="rgba(0,0,0,0)"/>
    <path id="Icon" d="M26.445,26a27.331,27.331,0,0,1-18.7-7.192A23.547,23.547,0,0,1,0,1.444,1.505,1.505,0,0,1,1.557,0H7A1.505,1.505,0,0,1,8.557,1.444,15.341,15.341,0,0,0,9.443,6.6a1.37,1.37,0,0,1-.389,1.473L5.632,11.253a22.923,22.923,0,0,0,10.251,9.519L19.3,17.594a1.647,1.647,0,0,1,1.1-.42,1.369,1.369,0,0,1,.483.073,18.91,18.91,0,0,0,5.552.823A1.5,1.5,0,0,1,28,19.514v5.041A1.5,1.5,0,0,1,26.445,26Zm-5.6-5.749L18.979,21.97a25.661,25.661,0,0,0,5.911,1.084V20.9a21.4,21.4,0,0,1-4.045-.65ZM3.158,2.889h0A20.153,20.153,0,0,0,4.34,8.364L6.208,6.63a16.579,16.579,0,0,1-.7-3.741Z" transform="translate(2 3.446)" fill="#00b9be"/>
  </g>
</svg>
