<svg xmlns="http://www.w3.org/2000/svg" width="28.905" height="28.624" viewBox="0 0 28.905 28.624">
  <g id="Grupo_8201" data-name="Grupo 8201" transform="translate(0 0)">
    <path id="Trazado_15496" data-name="Trazado 15496" d="M14.586,11.294a1.735,1.735,0,0,0-1.964-.561c-.561.281-.842,1.123-1.123,1.4a.869.869,0,0,1-.561.281A9.579,9.579,0,0,1,6.168,8.487c-.281-.281,0-.561,0-.842a1.543,1.543,0,0,0,.842-1.4c0-.561-.281-1.123-.281-1.684C6.448,4,6.168,3.155,5.606,2.875a1.723,1.723,0,0,0-1.684.281A3.254,3.254,0,0,0,2.8,5.962V6.8a13.681,13.681,0,0,0,.842,1.964c.281.561.561.842.842,1.4a12.228,12.228,0,0,0,3.929,3.648,5.641,5.641,0,0,0,2.245,1.123,8.3,8.3,0,0,0,2.806.561,4.056,4.056,0,0,0,2.806-1.964c0-.281.281-.561,0-.842C16.27,11.855,15.148,11.574,14.586,11.294Z" transform="translate(5.058 4.983)" fill="#25d366"/>
    <path id="Trazado_15497" data-name="Trazado 15497" d="M14.593,0A14.372,14.372,0,0,0,.281,14.312a13.332,13.332,0,0,0,1.684,6.735L0,28.624,7.858,26.66a14.1,14.1,0,0,0,6.735,1.684A14.372,14.372,0,0,0,28.9,14.032,14.314,14.314,0,0,0,14.593,0Zm0,25.818A10.375,10.375,0,0,1,8.7,24.134l-.561-.281L3.929,24.976l1.123-4.209-.281-.561a11.788,11.788,0,0,1-1.684-5.893A11.38,11.38,0,0,1,14.593,2.806,11.38,11.38,0,0,1,26.1,14.312,11.557,11.557,0,0,1,14.593,25.818Z" fill="#25d366"/>
  </g>
</svg>
