<svg id="Grupo_12307" data-name="Grupo 12307" xmlns="http://www.w3.org/2000/svg" xmlns:xlink="http://www.w3.org/1999/xlink" width="196.354" height="120.887" viewBox="0 0 196.354 120.887">
  <defs>
    <linearGradient id="linear-gradient" x1="0.5" y1="1" x2="0.5" gradientUnits="objectBoundingBox">
      <stop offset="0" stop-color="gray" stop-opacity="0.251"/>
      <stop offset="0.54" stop-color="gray" stop-opacity="0.122"/>
      <stop offset="1" stop-color="gray" stop-opacity="0.102"/>
    </linearGradient>
    <linearGradient id="linear-gradient-2" x1="0.001" y1="0.5" x2="1" y2="0.5" xlink:href="#linear-gradient"/>
  </defs>
  <path id="Trazado_27962" data-name="Trazado 27962" d="M207.425,165.007a40.237,40.237,0,0,1-1.179,9.709q-.4,1.6-.922,3.144a37.462,37.462,0,0,1-1.487,3.721q-.425.919-.9,1.8a24.271,24.271,0,0,1-2.029,9.751,25.15,25.15,0,0,1-12.2,12.57,25.672,25.672,0,0,1-10.9,2.5H48.348a32.619,32.619,0,0,1-16.407-4.384q-1.105-.64-2.154-1.364a32.578,32.578,0,0,1-4.263-3.514,31.72,31.72,0,0,1-4.686-5.813,30.984,30.984,0,0,1-4.766-16.542,39.011,39.011,0,0,1-5-19.318,38.283,38.283,0,0,1,7.737-23.431,32.939,32.939,0,0,1,3.286-3.656,30.577,30.577,0,0,1,3.758-3.076,29,29,0,0,1,3.334-2c.482-.247.965-.477,1.457-.692.432-.192.869-.37,1.31-.538q.8-.3,1.61-.555t1.609-.443q1.167-.285,2.374-.463c.667-.1,1.334-.167,2-.22q.8-.057,1.6-.067h.292c.593,0,1.184.023,1.769.063.062-.123.128-.248.19-.372.233-.443.475-.887.719-1.322v-.012c.042-.075.083-.15.127-.223.2-.355.4-.707.612-1.055.1-.167.192-.323.29-.482.022-.038.043-.075.068-.113q.15-.25.305-.5.772-1.232,1.605-2.426c.048-.068.093-.135.142-.2.087-.123.167-.245.263-.367.23-.322.467-.645.705-.964.167-.225.333-.45.513-.667q.65-.84,1.334-1.667c.455-.55.935-1.1,1.42-1.645.067-.075.133-.148.2-.223l.712-.775h0c.035-.037.065-.07.1-.1h0c.085-.092.167-.183.258-.273.382-.4.774-.8,1.167-1.2a63.548,63.548,0,0,1,6.408-5.568c.088-.07.178-.137.267-.2.423-.32.854-.635,1.284-.945a67.824,67.824,0,0,1,7.4-4.618c.177-.1.357-.2.538-.29a71.059,71.059,0,0,1,7.083-3.261q1.977-.782,4.024-1.46c.9-.3,1.81-.577,2.729-.834q2.131-.612,4.314-1.1a77.245,77.245,0,0,1,13.043-1.777q2-.105,4.046-.105a77.52,77.52,0,0,1,19.5,2.467.7.7,0,0,0,.605.315h.56c.243.065.485.133.729.2q2.039.588,4.019,1.282l.333.12A71.75,71.75,0,0,1,140.322,96a68.69,68.69,0,0,1,7.944,4.908q.585.42,1.154.849.69-.445,1.4-.849a27.608,27.608,0,0,1,5.815-2.477,26.523,26.523,0,0,1,13.043-.51,28.861,28.861,0,0,1,14.614,8.242,34.1,34.1,0,0,1,4.388,5.548c.092.143.183.288.272.435a36.68,36.68,0,0,1,2.791,5.566c.028.07.057.138.082.208a38.525,38.525,0,0,1,1.717,5.56c.02.1.043.192.063.288a40.029,40.029,0,0,1,.82,5.563,1.055,1.055,0,0,0,.013.2q.105,1.452.107,2.936c0,.884-.03,1.76-.085,2.629,0,.1-.013.2-.022.292-.015.253-.037.5-.058.755a31.631,31.631,0,0,1,3.564,3.361q.729.8,1.41,1.652a35.033,35.033,0,0,1,3.634,5.563A39.161,39.161,0,0,1,207.425,165.007Z" transform="translate(-11.07 -87.44)" fill="#288ac1" opacity="0.1"/>
  <path id="Trazado_27963" data-name="Trazado 27963" d="M283.682,646.507c0,3.789-3.928,7.335-10.781,10.389H143.443a26.4,26.4,0,0,1-16.407-5.946,6.9,6.9,0,0,1-1.845-4.444c0-4.028,4.441-7.787,12.12-10.964h0l.217-.087c2.167-.889,4.589-1.727,7.237-2.516.067-.02.135-.038.2-.062h0q3.151-.925,6.7-1.754c.075-.017.148-.035.223-.048.914-.217,1.845-.419,2.8-.62h0l.367-.077a208.832,208.832,0,0,1,23.339-3.351h.01q1.794-.167,3.626-.3c1.359-.108,2.734-.2,4.124-.285,1.062-.068,2.137-.127,3.216-.18a.032.032,0,0,1,.025,0c4.866-.245,9.894-.373,15.035-.373a277.014,277.014,0,0,1,35.377,2.167.083.083,0,0,1,.03,0c1.637.213,3.244.438,4.811.678.448.07.9.14,1.334.212q2.652.428,5.168.905h0C270.873,633.6,283.682,639.668,283.682,646.507Z" transform="translate(-106.165 -536.126)" fill="#243e56" opacity="0.1"/>
  <path id="Trazado_27964" data-name="Trazado 27964" d="M715.548,190.957s-1.764-.715-7.375,1.857-6.312,2.247-7.764,1.86-2.262-.487-3.819-2.636c0,0-1.1-5.953-2.167-6.877s-5.58.527-5.58.527-5.416,1.242-6.448-6c0,0,.732-5.455-.265-7.128,0,0,2.014.867,5.335-.533s5.98,1.509,5.98,1.509a11.015,11.015,0,0,1,.75,3.461c-.083,1.294.443,1.779,2.027,1.154,0,0,.779-1.107-.323-2.937s-1.889-3.192-1.582-4.613a5.729,5.729,0,0,1,4.034-4.378c2.842-.985,6.7-1.167,8.554-1.945A7.419,7.419,0,0,0,709.213,163s-1.14,1.142,1.545,5.985.974,6.943.974,6.943-1.429,3.406-7.737,3.129c0,0-6.078.222-2.764,2.8,0,0,2.122-.432,5.295-1.44s5.463,3.154,6.031,6.05A7.625,7.625,0,0,0,715.548,190.957Z" transform="translate(-570.259 -150.403)" fill="#2ab4bc"/>
  <path id="Trazado_27965" data-name="Trazado 27965" d="M809.648,184.95l.033-.01c.243.924-2.472,4.638-4.794,7.59l-.027-.022C808.134,188.351,809.836,185.665,809.648,184.95Z" transform="translate(-672.529 -168.686)" fill="#444053"/>
  <path id="Trazado_27966" data-name="Trazado 27966" d="M772.058,230l.015.037c-1.855,2.357-4.187,5.168-6.055,7.257-.178.2-.355.407-.525.62l-.054-.043c.167-.213.348-.423.527-.622C767.832,235.168,770.2,232.359,772.058,230Z" transform="translate(-639.681 -206.234)" fill="#444053"/>
  <path id="Trazado_27967" data-name="Trazado 27967" d="M744.161,276.89l.037.063c-3.4,4.243-3.623,10.836-3.631,10.888l-.717-.834A24.061,24.061,0,0,1,744.161,276.89Z" transform="translate(-618.357 -245.307)" fill="#444053"/>
  <path id="Trazado_27968" data-name="Trazado 27968" d="M726.781,247.37s-4-2.084-7.128-1.334-10.161-2.651-10.161-2.651-2.984-1.212-3.584-2.594c0,0-2.049-2.167-2.167-3.286s-2.11-3.938-3.411-4.046" transform="translate(-585.425 -209.117)" fill="none" stroke="#444053" stroke-miterlimit="10" stroke-width="1"/>
  <path id="Trazado_27969" data-name="Trazado 27969" d="M846.467,314.214s-2.017-1.36-1.782-2.944" transform="translate(-705.699 -273.956)" fill="none" stroke="#444053" stroke-miterlimit="10" stroke-width="1"/>
  <path id="Trazado_27970" data-name="Trazado 27970" d="M821.077,313.695s-2.886-1.047-3.167-5.155" transform="translate(-683.404 -271.681)" fill="none" stroke="#444053" stroke-miterlimit="10" stroke-width="1"/>
  <path id="Trazado_27971" data-name="Trazado 27971" d="M798.862,314.425a6.456,6.456,0,0,1-1.842-6.285" transform="translate(-665.841 -271.347)" fill="none" stroke="#444053" stroke-miterlimit="10" stroke-width="1"/>
  <path id="Trazado_27972" data-name="Trazado 27972" d="M771.02,307.367s-1.834-3.851-.2-6.357" transform="translate(-643.599 -265.406)" fill="none" stroke="#444053" stroke-miterlimit="10" stroke-width="1"/>
  <path id="Trazado_27973" data-name="Trazado 27973" d="M850.725,301.67s-2.086.667-1.639,1.76" transform="translate(-709.33 -265.956)" fill="none" stroke="#444053" stroke-miterlimit="10" stroke-width="1"/>
  <path id="Trazado_27974" data-name="Trazado 27974" d="M829.847,279s-2.792.885-2.857,4.835" transform="translate(-690.97 -247.065)" fill="none" stroke="#444053" stroke-miterlimit="10" stroke-width="1"/>
  <path id="Trazado_27975" data-name="Trazado 27975" d="M808.947,273.48s-2.542,3.137-2.356,5.988" transform="translate(-673.963 -242.466)" fill="none" stroke="#444053" stroke-miterlimit="10" stroke-width="1"/>
  <path id="Trazado_27976" data-name="Trazado 27976" d="M782.921,280.86s-2.524,2.414-2.2,3.756" transform="translate(-652.388 -248.615)" fill="none" stroke="#444053" stroke-miterlimit="10" stroke-width="1"/>
  <path id="Trazado_27977" data-name="Trazado 27977" d="M771.449,273.983s-2.367.423-2.7-.354" transform="translate(-642.439 -242.591)" fill="none" stroke="#444053" stroke-miterlimit="10" stroke-width="1"/>
  <path id="Trazado_27978" data-name="Trazado 27978" d="M766.49,258.61s1.2,1.584,1.5,1.229" transform="translate(-640.556 -230.075)" fill="none" stroke="#444053" stroke-miterlimit="10" stroke-width="1"/>
  <path id="Trazado_27979" data-name="Trazado 27979" d="M801.029,245.767s-5.968.433-7.318-1.367" transform="translate(-663.238 -218.233)" fill="none" stroke="#444053" stroke-miterlimit="10" stroke-width="1"/>
  <path id="Trazado_27980" data-name="Trazado 27980" d="M759,210.73s2.8,6.01,4.834,6.775" transform="translate(-634.314 -190.177)" fill="none" stroke="#444053" stroke-miterlimit="10" stroke-width="1"/>
  <path id="Trazado_27981" data-name="Trazado 27981" d="M776.58,193.56s1.719,5.528,3.849,7.253" transform="translate(-648.964 -175.869)" fill="none" stroke="#444053" stroke-miterlimit="10" stroke-width="1"/>
  <path id="Trazado_27982" data-name="Trazado 27982" d="M816.372,225.113s-4.538,1.947-7.262-.023" transform="translate(-676.071 -202.143)" fill="none" stroke="#444053" stroke-miterlimit="10" stroke-width="0.75"/>
  <path id="Trazado_27983" data-name="Trazado 27983" d="M800.82,186.49s1.037,4.063,2.434,5.045" transform="translate(-669.162 -169.978)" fill="none" stroke="#444053" stroke-miterlimit="10" stroke-width="0.75"/>
  <path id="Trazado_27984" data-name="Trazado 27984" d="M831.061,197.92s-2.551.967-3.5.227" transform="translate(-691.445 -179.502)" fill="none" stroke="#444053" stroke-miterlimit="10" stroke-width="0.75"/>
  <path id="Trazado_27985" data-name="Trazado 27985" d="M748.564,266.57s0,3.542-.964,3.794" transform="translate(-624.815 -236.708)" fill="none" stroke="#444053" stroke-miterlimit="10" stroke-width="1"/>
  <path id="Trazado_27986" data-name="Trazado 27986" d="M706.09,285.859s3.834.333,5.6-1.649" transform="translate(-590.225 -251.407)" fill="none" stroke="#444053" stroke-miterlimit="10" stroke-width="1"/>
  <path id="Trazado_27987" data-name="Trazado 27987" d="M730.044,241.47s-.927,3.593-3.484,4.561" transform="translate(-607.282 -215.792)" fill="none" stroke="#444053" stroke-miterlimit="10" stroke-width="1"/>
  <path id="Trazado_27988" data-name="Trazado 27988" d="M692.31,264.117a5.017,5.017,0,0,0,5.043-1.457" transform="translate(-578.742 -233.449)" fill="none" stroke="#444053" stroke-miterlimit="10" stroke-width="1"/>
  <path id="Trazado_27989" data-name="Trazado 27989" d="M719.8,222.94s-.255,3.051-1.914,4.479" transform="translate(-600.058 -200.351)" fill="none" stroke="#444053" stroke-miterlimit="10" stroke-width="1"/>
  <path id="Trazado_27990" data-name="Trazado 27990" d="M692.93,239.919s2.249.015,2.776-.719" transform="translate(-579.259 -213.9)" fill="none" stroke="#444053" stroke-miterlimit="10" stroke-width="1"/>
  <rect id="Rectángulo_26168" data-name="Rectángulo 26168" width="64.049" height="32.331" transform="translate(65.888 37.603)" fill="#33323d"/>
  <rect id="Rectángulo_26169" data-name="Rectángulo 26169" width="104.156" height="21.282" transform="translate(45.936 79.756)" fill="#33323d"/>
  <path id="Trazado_27991" data-name="Trazado 27991" d="M368.414,510.35h53.408l10.641,35.811h-75.3Z" transform="translate(-297.615 -425.274)" fill="#fff"/>
  <path id="Trazado_27992" data-name="Trazado 27992" d="M257.73,402.33V436.3h19.952V416.655h70.187V436.3h19.952V402.33Z" transform="translate(-214.761 -335.262)" fill="#504f60"/>
  <rect id="Rectángulo_26170" data-name="Rectángulo 26170" width="110.09" height="11.049" transform="translate(42.969 67.068)" fill="#33323d" opacity="0.1"/>
  <ellipse id="Elipse_1252" data-name="Elipse 1252" cx="1.637" cy="1.637" rx="1.637" ry="1.637" transform="translate(145.489 70.958)" fill="#8ccf4d" opacity="0.8"/>
  <ellipse id="Elipse_1253" data-name="Elipse 1253" cx="1.637" cy="1.637" rx="1.637" ry="1.637" transform="translate(138.122 70.958)" fill="#fa5959" opacity="0.8"/>
  <rect id="Rectángulo_26171" data-name="Rectángulo 26171" width="59.343" height="35.195" transform="translate(68.242 29.826)" fill="#fff"/>
  <path id="Trazado_27993" data-name="Trazado 27993" d="M778.75,563.107c.125,1.362-.9,2.684-.6,4.018.063.285.187.555.232.833a3.246,3.246,0,0,1-.8,2.206l-3.873,5.7a3.524,3.524,0,0,1-.553.683c-.742.667-1.852.59-2.824.787a4.848,4.848,0,0,0-1.892.833.123.123,0,0,0-.025.167,1.628,1.628,0,0,0,1.407.667c.1.133,0,.333-.14.427-.208.143-.5.182-.536.535a.588.588,0,0,0,.07.355,1.1,1.1,0,0,0,.679.47,4.025,4.025,0,0,0,3.792-1.29c1-.98,1.724-2.217,2.709-3.216.545-.552,1.167-1.025,1.727-1.56a19.38,19.38,0,0,0,2.834-3.668,4.032,4.032,0,0,0,.614-1.249c.1-.443.057-.912.177-1.352a5,5,0,0,1,.928-1.517,5.013,5.013,0,0,0,1.055-3.271,3.132,3.132,0,0,0-1.912-2.712,1.715,1.715,0,0,0-1.072-.065,2.54,2.54,0,0,0-1.092.869l-.735.848a2.05,2.05,0,0,0-.429.652.678.678,0,0,0,.152.724" transform="translate(-642.138 -481.912)" fill="#fbbebe"/>
  <path id="Trazado_27994" data-name="Trazado 27994" d="M778.75,563.107c.125,1.362-.9,2.684-.6,4.018.063.285.187.555.232.833a3.246,3.246,0,0,1-.8,2.206l-3.873,5.7a3.524,3.524,0,0,1-.553.683c-.742.667-1.852.59-2.824.787a4.848,4.848,0,0,0-1.892.833.123.123,0,0,0-.025.167,1.628,1.628,0,0,0,1.407.667c.1.133,0,.333-.14.427-.208.143-.5.182-.536.535a.588.588,0,0,0,.07.355,1.1,1.1,0,0,0,.679.47,4.025,4.025,0,0,0,3.792-1.29c1-.98,1.724-2.217,2.709-3.216.545-.552,1.167-1.025,1.727-1.56a19.38,19.38,0,0,0,2.834-3.668,4.032,4.032,0,0,0,.614-1.249c.1-.443.057-.912.177-1.352a5,5,0,0,1,.928-1.517,5.013,5.013,0,0,0,1.055-3.271,3.132,3.132,0,0,0-1.912-2.712,1.715,1.715,0,0,0-1.072-.065,2.54,2.54,0,0,0-1.092.869l-.735.848a2.05,2.05,0,0,0-.429.652.678.678,0,0,0,.152.724" transform="translate(-642.138 -481.912)" opacity="0.05"/>
  <path id="Trazado_27995" data-name="Trazado 27995" d="M831.206,776.881a4.479,4.479,0,0,1-2.884.427c-.167-.018-.345-.03-.447.092-.147.178.027.439.205.582a4.291,4.291,0,0,0,1.982.815,13.436,13.436,0,0,0,1.937.128,32.848,32.848,0,0,0,5.295-.2.716.716,0,0,0,.288-.085.534.534,0,0,0,.218-.333,1.314,1.314,0,0,0-.459-1.259,3.979,3.979,0,0,0-1.235-.667l-1.537-.6a3.965,3.965,0,0,0-1.333-.485C832.518,775.361,831.816,776.524,831.206,776.881Z" transform="translate(-691.661 -660.629)" fill="#3f3d56"/>
  <path id="Trazado_27996" data-name="Trazado 27996" d="M831.206,776.881a4.479,4.479,0,0,1-2.884.427c-.167-.018-.345-.03-.447.092-.147.178.027.439.205.582a4.291,4.291,0,0,0,1.982.815,13.436,13.436,0,0,0,1.937.128,32.848,32.848,0,0,0,5.295-.2.716.716,0,0,0,.288-.085.534.534,0,0,0,.218-.333,1.314,1.314,0,0,0-.459-1.259,3.979,3.979,0,0,0-1.235-.667l-1.537-.6a3.965,3.965,0,0,0-1.333-.485C832.518,775.361,831.816,776.524,831.206,776.881Z" transform="translate(-691.661 -660.629)" opacity="0.05"/>
  <path id="Trazado_27997" data-name="Trazado 27997" d="M848.725,618.658a4.1,4.1,0,0,0-1.144,2.889,6.415,6.415,0,0,0,.637,1.6,11.252,11.252,0,0,1,.645,2.241c.24,1.115.48,2.234.627,3.366.167,1.279-.617,4.978-.69,6.266a1.328,1.328,0,0,1-.27.87c-.085.088-.2.167-.235.275a.461.461,0,0,0,.05.323,3.588,3.588,0,0,0,1.921,1.767,15.228,15.228,0,0,0,3.706.973.7.7,0,0,0,.348-.047.666.666,0,0,0,.27-.308c.644-1.229.025-5.6.035-6.992,0-1.167.282-2.307.232-3.464-.042-.929-.29-1.834-.38-2.761a16.268,16.268,0,0,1,.41-4.543c.213-1.149.427-2.3.7-3.436a6.623,6.623,0,0,1,.742-2c.3-.478.712-.877,1.057-1.333a6,6,0,0,0,1.182-4.4,11.241,11.241,0,0,0-2.412.642,7.558,7.558,0,0,0-2.149,1.384,19.588,19.588,0,0,0-1.355,1.676q-.945,1.15-1.865,2.319Q849.74,617.3,848.725,618.658Z" transform="translate(-708.109 -522.819)" fill="#464353"/>
  <path id="Trazado_27998" data-name="Trazado 27998" d="M848.725,618.417a4.1,4.1,0,0,0-1.144,2.891,6.43,6.43,0,0,0,.637,1.594,11.275,11.275,0,0,1,.645,2.24c.24,1.115.48,2.234.627,3.366.167,1.279-.617,4.98-.69,6.268a1.323,1.323,0,0,1-.27.869c-.085.088-.2.167-.235.275a.469.469,0,0,0,.05.333,3.585,3.585,0,0,0,1.921,1.766,14.681,14.681,0,0,0,3.706.7.7.7,0,0,0,.348-.047.667.667,0,0,0,.27-.308c.644-1.229.025-5.325.035-6.712,0-1.167.282-2.309.232-3.466-.042-.929-.29-1.834-.38-2.761a16.253,16.253,0,0,1,.41-4.541c.213-1.15.427-2.3.7-3.437a6.621,6.621,0,0,1,.742-2c.3-.477.712-.877,1.057-1.324a6.012,6.012,0,0,0,1.182-4.4,11.037,11.037,0,0,0-2.412.642,7.508,7.508,0,0,0-2.149,1.387,21.076,21.076,0,0,0-1.355,1.667q-.945,1.15-1.865,2.321Q849.74,617.07,848.725,618.417Z" transform="translate(-708.109 -522.634)" opacity="0.05"/>
  <ellipse id="Elipse_1254" data-name="Elipse 1254" cx="3.589" cy="3.589" rx="3.589" ry="3.589" transform="translate(129.91 69.904)" fill="#fbbebe"/>
  <path id="Trazado_27999" data-name="Trazado 27999" d="M814.114,523.96a4.657,4.657,0,0,0,2.979,2.084l-.27.979a9.382,9.382,0,0,1-2.3,4.645,2.175,2.175,0,0,0-.365-1.679,6.429,6.429,0,0,0-1.219-1.274l-2.066-1.8a.615.615,0,0,1-.155-.167.535.535,0,0,1,0-.393,4.8,4.8,0,0,1,1.624-1.884,5.77,5.77,0,0,0,.817-.952C813.587,522.933,813.842,523.522,814.114,523.96Z" transform="translate(-677.383 -450.617)" fill="#fbbebe"/>
  <path id="Trazado_28000" data-name="Trazado 28000" d="M778.975,492.287l-.08-.667c.567.147,1.1-.333,1.465-.833s.7-1.087,1.251-1.294a2.6,2.6,0,0,1,2.02.485,6.4,6.4,0,0,0,2.321.759,1.5,1.5,0,0,1,.383.063,1.326,1.326,0,0,1,.675,1.145,4.41,4.41,0,0,0,.25,1.4c.155.32.423.558.587.874.438.85.015,2.01.478,2.844l-1.15-1.055c-.107-.1-.255-.2-.37-.115s-.1.205-.137.317a.6.6,0,0,1-.818.3,2.245,2.245,0,0,1-.732-.667,4.453,4.453,0,0,0-1.834-1.384,2.343,2.343,0,0,0-1.932.115c-.537.3-.93,1.01-1.587,1.035-.9.033-1.277-1.646-1.7-2.309a.817.817,0,0,0,.237-1.019C778.38,492.254,778.963,492.179,778.975,492.287Z" transform="translate(-650.205 -422.402)" fill="#464353"/>
  <path id="Trazado_28001" data-name="Trazado 28001" d="M857.449,774.25a3.8,3.8,0,0,1-2.581.962c-.242,0-.577.047-.578.288a.385.385,0,0,0,.07.2,2.373,2.373,0,0,0,1.334,1.044,4.74,4.74,0,0,0,1.61.1l1.575-.082c.3-.017.6-.032.892-.068s.617-.1.927-.143a12.137,12.137,0,0,1,2.294-.108.681.681,0,0,0,.565-.153c.126-.153.058-.43.012-.652-.093-.457,0-.935-.087-1.394a2.454,2.454,0,0,0-1.607-1.712,3.38,3.38,0,0,0-2.637-.13A17.663,17.663,0,0,0,857.449,774.25Z" transform="translate(-713.719 -658.026)" fill="#3f3d56"/>
  <path id="Trazado_28002" data-name="Trazado 28002" d="M866.736,606.584c.14.667.779,1.167.8,1.834a2.889,2.889,0,0,1-.649,1.459,9.672,9.672,0,0,0-.667,1.5,22.947,22.947,0,0,1-1.947,3.859,3.065,3.065,0,0,0-.7,1.911,2.866,2.866,0,0,0,.333.914l1.109,2.2a6.332,6.332,0,0,1,.567,1.392c.095.418.1.852.167,1.279.175,1.35.808,2.711.435,4.019-.033.113-.15.25-.238.167a4.159,4.159,0,0,1,.632,2.149,2.954,2.954,0,0,0,.012,1.21,1.316,1.316,0,0,1,.167.477c0,.11-.052.215-.063.333a.713.713,0,0,0,.553.667c.3.1.62.092.92.182a5.532,5.532,0,0,1,1.484,1.014,3.121,3.121,0,0,0,1.7.555.427.427,0,0,0,.25-.05.406.406,0,0,0,.14-.305,1.69,1.69,0,0,0-.61-1.469.678.678,0,0,1-.225-.237.565.565,0,0,1-.022-.265,19.778,19.778,0,0,0-.065-3.638,5.5,5.5,0,0,1-.058-1.157,4.5,4.5,0,0,0,.093-.964,5.152,5.152,0,0,0-.3-.922,6.62,6.62,0,0,1-.142-1.717,14.972,14.972,0,0,0-.487-2.954,2.212,2.212,0,0,0-.46-1.067c-.23-.24-.6-.472-.515-.792a.916.916,0,0,1,.21-.315,1.264,1.264,0,0,0,.265-.965.43.43,0,0,0,.5-.233,7.762,7.762,0,0,0,3.9-4.436,1.481,1.481,0,0,1,.167-.4,1.806,1.806,0,0,1,.714-.463,5.419,5.419,0,0,0,1.877-1.912,4.445,4.445,0,0,0,.724-1.389,4.566,4.566,0,0,0,.1-1l.045-1.737a.938.938,0,0,0-.033-.333.805.805,0,0,0-.187-.275,3.345,3.345,0,0,0-1.834-1c-.474-.085-.957-.068-1.435-.108a18.234,18.234,0,0,0-2.774-.3,4.437,4.437,0,0,0-3.447,2.411C867.508,606.182,867.255,606.584,866.736,606.584Z" transform="translate(-721.445 -517.302)" fill="#464353"/>
  <path id="Trazado_28003" data-name="Trazado 28003" d="M825.947,535.941a1.9,1.9,0,0,1-.1.79.552.552,0,0,1-.648.333c.075-.167-.125-.365-.31-.343a.577.577,0,0,0-.41.349,1.3,1.3,0,0,0-.118.8,3.24,3.24,0,0,1,.2,1c-.042.283-.25.567-.138.834a1.35,1.35,0,0,0,.267.32.9.9,0,0,1-.1,1.242l2.8.055a1.974,1.974,0,0,0,.347,1.362,8.578,8.578,0,0,0,6.393,4.168.559.559,0,0,0-.133.852.788.788,0,0,0,.9.05,6.557,6.557,0,0,0,.77-.575,2.354,2.354,0,0,1,1.58-.427c.35.033.69.147,1.042.167,1.037.055,1.927-.69,2.919-1a6.868,6.868,0,0,0,2.167-.677.86.86,0,0,0,.4-.833,1.385,1.385,0,0,0-.3-.49,8.315,8.315,0,0,1-.809-1.515,9.082,9.082,0,0,0-2.022-2.707,18.171,18.171,0,0,0-2-1.522,3.52,3.52,0,0,0-.544-.333,5.728,5.728,0,0,1-.744-.3,3.765,3.765,0,0,1-.77-.867,11.586,11.586,0,0,0-2.09-1.454,5.127,5.127,0,0,0-1.41-.955c-.265-.08-.548-.087-.815-.167-.6-.183-1.043-.72-1.637-.937a6.933,6.933,0,0,0-1.484-.188,3.428,3.428,0,0,1-1.522-.578,1.835,1.835,0,0,0-.5-.287c-.749-.228-.81,1.167-.88,1.652A14.9,14.9,0,0,0,825.947,535.941Z" transform="translate(-688.758 -457.955)" fill="#2ab4bc"/>
  <path id="Trazado_28004" data-name="Trazado 28004" d="M786.59,571.888c.125,1.362-.9,2.682-.6,4.018.063.285.187.555.232.834a3.233,3.233,0,0,1-.8,2.2l-3.873,5.685a3.53,3.53,0,0,1-.554.683c-.742.667-1.852.59-2.824.787a4.86,4.86,0,0,0-1.892.834.123.123,0,0,0-.025.167,1.624,1.624,0,0,0,1.407.667c.1.135,0,.333-.14.427-.208.145-.5.184-.535.537a.587.587,0,0,0,.07.355,1.109,1.109,0,0,0,.679.47,4.026,4.026,0,0,0,3.792-1.29c1-.98,1.724-2.217,2.711-3.216.545-.552,1.167-1.025,1.725-1.56a19.67,19.67,0,0,0,2.834-3.668,4.05,4.05,0,0,0,.613-1.248c.1-.444.057-.912.177-1.352a4.975,4.975,0,0,1,.928-1.517,5.012,5.012,0,0,0,1.055-3.271,3.133,3.133,0,0,0-1.912-2.712,1.7,1.7,0,0,0-1.072-.065,2.554,2.554,0,0,0-1.092.869l-.735.849a2.015,2.015,0,0,0-.427.652.675.675,0,0,0,.15.722" transform="translate(-648.671 -489.217)" fill="#fbbebe"/>
  <path id="Trazado_28005" data-name="Trazado 28005" d="M837.615,549.549a2.127,2.127,0,0,0-1.43.443,2.047,2.047,0,0,0-.36.564,5.633,5.633,0,0,0-.714,2.247,10.617,10.617,0,0,0,.258,1.879,6.885,6.885,0,0,1-.167,1.577,10.955,10.955,0,0,0,2.039-.784,6.755,6.755,0,0,1,1.192-.62,3.557,3.557,0,0,1,2.2.43c.031-.407-.272-1.112-.24-1.519a1.723,1.723,0,0,1,.09-.5,3.077,3.077,0,0,1,.305-.485,1.987,1.987,0,0,0-.178-2.334,3.205,3.205,0,0,0-2.08-.882,9.051,9.051,0,0,0-1.454-.052" transform="translate(-697.736 -472.475)" fill="#1e969c"/>
  <path id="Trazado_28006" data-name="Trazado 28006" d="M263.4,347.959l-3.287-4.768a4.494,4.494,0,0,0-.277-1.455c-.215-.275-.047-.889-.047-.889s.232-.333.032-.368-.032-.782-.032-.782l-.015-1.2a4.192,4.192,0,0,0,.032-1.425.452.452,0,0,1,.015-.492s.183-.659,0-.833a5,5,0,0,1-.093-2.009,3.052,3.052,0,0,0-.322-1.394c0-.122-1.214-1.319-1.214-1.427a2.945,2.945,0,0,0-1.23-.667c-.462-.115-.69-.215-.675-.277s-.722-.305-.722-.305a1.458,1.458,0,0,1-.892-.368c-.247-.322-1-.415-1.019-.419l-.015-.063a.345.345,0,0,0-.013-.07,3.218,3.218,0,0,0,.167-.3l.043-.093a1.3,1.3,0,0,0,.755-.235,1.022,1.022,0,0,0,.368-.735,1.607,1.607,0,0,0-.18-.817,1.367,1.367,0,0,1-.263-.862c.03-.128.107-.242.147-.368a.973.973,0,0,0-.11-.727c-.117-.222-.278-.419-.408-.634a2.5,2.5,0,0,1-.325-.9,1.382,1.382,0,0,0-.118-.488.912.912,0,0,0-.27-.272,2.7,2.7,0,0,0-1.652-.5,8.085,8.085,0,0,1-1.25.075,4.485,4.485,0,0,1-.73-.19,1.883,1.883,0,0,0-1.559.08c-.448.3-.627.875-.932,1.334a9.691,9.691,0,0,0-.867,1.167v-.023a1.393,1.393,0,0,0-.115.308,2.2,2.2,0,0,0,.068,1.017.706.706,0,0,0,.248.453,1.435,1.435,0,0,0,.537.107l-.02.087a3.509,3.509,0,0,0,2.436,4.081v.093a2.234,2.234,0,0,1-.017.263h0a5.347,5.347,0,0,0-1.961-.1c-.415.215-1.229.383-1.352.5s-.43.032-.707.752-.307,1.455-.667,1.794-.537.567-.553.812.047.307-.092.383-.333.4-.277.522a.435.435,0,0,1-.167.458.51.51,0,0,0-.215.46s-.093.333-.308.415-.353.582-.353.582l-.7.8-1.38-1.527a.584.584,0,0,0-.822-.042l-.678.61a1.344,1.344,0,0,0-.679.4,1.807,1.807,0,0,0-.352.524l-.37.333a.945.945,0,0,0-.1,1.042l.885.979v.008a1.567,1.567,0,0,0-.855.348c-1.32,1.167-1.334,2.239-1.137,2.729a20.18,20.18,0,0,0,1.874,2.376,7.48,7.48,0,0,0,2.379,1.937h0l-.01.012a1.163,1.163,0,0,0-.082.095l-.023.03-.022.03-.025.037a.3.3,0,0,0-.018.03l-.027.043a.273.273,0,0,0-.017.03c-.012.02-.022.04-.032.06l-.01.02c-.013.027-.027.053-.038.083l-.013.03c-.008.02-.015.04-.023.062a.37.37,0,0,0-.013.04l-.02.06a.338.338,0,0,0-.013.043.362.362,0,0,1-.018.067c-.005.023-.008.027-.012.042s-.017.072-.023.11a.084.084,0,0,1-.008.043.4.4,0,0,0-.013.078.216.216,0,0,0,0,.057l-.01.075v.06a.314.314,0,0,1-.008.087c-.008.03,0,.035,0,.053v.148a8.488,8.488,0,0,0,.075,2.054,1,1,0,0,0,.815.612,1.02,1.02,0,0,0,.262-.013,14.962,14.962,0,0,1,3.334-.333,5.732,5.732,0,0,0,1.657-.135l.138-.027.1.305.3-.083.258.148.167.1c.3,1.027,1.534.677,1.534.677l.292.167,2.966.077a5.955,5.955,0,0,0,1.05.5.8.8,0,0,0,.148.033,6.6,6.6,0,0,0,.833.015c.227,0,.4-.015.4-.015s-.03-.805-.073-1.707a24.237,24.237,0,0,0,2.747-.225,3.379,3.379,0,0,0,2.487-2.487,7.275,7.275,0,0,1,.155.955,6.94,6.94,0,0,0,.247.833,2.777,2.777,0,0,0,.333.614c1.167-.4.46-1,.215-1.257s.167-.475.167-.475.323-.215.292-.413-.047-.414,1-.4S263.4,347.959,263.4,347.959Zm-16.224-9.787a7.95,7.95,0,0,0,.29,1.28,1.669,1.669,0,0,1,.035.5c-.619-.05-1.264-.077-1.264-.077a.156.156,0,0,1,.033.078l-.1-.022-.14-.033,1.14-1.735Zm-2.261,3.594,1.072.167.09.013a3.493,3.493,0,0,0-.055.5c0,.017.023.035.058.057a1.324,1.324,0,0,0-.02.255,2.973,2.973,0,0,0,1.092.418c-.008.032-.015.062-.023.088h0c-.508-.267-1.307-.392-1.4-.59a20.645,20.645,0,0,0-2.812-1.149l-.27-.135.715.135.2-.02A10.639,10.639,0,0,0,244.911,341.766Z" transform="translate(-199.043 -282.548)" fill="url(#linear-gradient)"/>
  <path id="Trazado_28007" data-name="Trazado 28007" d="M279.363,455.031s-.425,2.574-2.587,2.954a92.02,92.02,0,0,1-9.381.305s-4.128-.6-5.62-4.081-2.452-4.875-1.167-4.935,8.179,2.334,8.574,2.361S279.745,446.335,279.363,455.031Z" transform="translate(-218.508 -388.953)" fill="#65617d"/>
  <path id="Trazado_28008" data-name="Trazado 28008" d="M279.363,455.031s-.425,2.574-2.587,2.954a92.02,92.02,0,0,1-9.381.305s-4.128-.6-5.62-4.081-2.452-4.875-1.167-4.935,8.179,2.334,8.574,2.361S279.745,446.335,279.363,455.031Z" transform="translate(-218.508 -388.953)" opacity="0.05"/>
  <path id="Trazado_28009" data-name="Trazado 28009" d="M259.614,481.484a.985.985,0,0,0,.807.608,1.106,1.106,0,0,0,.262-.015,15.041,15.041,0,0,1,3.3-.333,5.73,5.73,0,0,0,1.64-.133c.345-.065.6-.127.6-.127s-.61-2.026-.685-2.086-2.742-1.667-2.742-1.667l-2.111-.152h0a1.115,1.115,0,0,0-.717.42,2.259,2.259,0,0,0-.427,1.437A8.4,8.4,0,0,0,259.614,481.484Z" transform="translate(-218.116 -412.541)" fill="#3f3d56"/>
  <path id="Trazado_28010" data-name="Trazado 28010" d="M259.643,481.534a.985.985,0,0,0,.807.608,8.979,8.979,0,0,1-.573-.833l.012-1.477a2.607,2.607,0,0,1,.834-2.192h0s-1.112.075-1.144,1.857A8.976,8.976,0,0,0,259.643,481.534Z" transform="translate(-218.145 -412.591)" opacity="0.05"/>
  <path id="Trazado_28011" data-name="Trazado 28011" d="M308.794,458.513l1.966-1.539,3.091-3.046-.833-.038c-.125.08-.475.333-.488.637-.015.372-.834.027-1.262.239s-2.512,2.884-2.877,2.866-.655-.185-.809.075l-.01.017Z" transform="translate(-258.141 -392.8)" opacity="0.1"/>
  <path id="Trazado_28012" data-name="Trazado 28012" d="M262.11,477.987c.07.033.142.067.213.1a13.531,13.531,0,0,1,3.473,2.224,14.522,14.522,0,0,0,1.975,1.284c.345-.065.6-.127.6-.127s-.61-2.026-.685-2.085-2.742-1.667-2.742-1.667l-2.111-.152h0A1.114,1.114,0,0,0,262.11,477.987Z" transform="translate(-220.26 -412.524)" opacity="0.1"/>
  <path id="Trazado_28013" data-name="Trazado 28013" d="M236.813,438.54a20.241,20.241,0,0,0,1.857,2.361,7.189,7.189,0,0,0,2.544,2,13.179,13.179,0,0,1,3.471,2.224,16.04,16.04,0,0,0,2.115,1.365l.188.11.415.242.22.125s.51-.408,1.019-.82,1-.815,1-.834.213-.563.167-.594-.128-.227-.322-.472a2.149,2.149,0,0,0-.775-.64,2.209,2.209,0,0,1-1-1.049s-.067-.048-.167-.113a2.066,2.066,0,0,0-.684-.3c-.333-.042-.96-.727-.96-.727a1.865,1.865,0,0,1-.594-.624,22.558,22.558,0,0,0-2.741-2.107l5.725,3.677,1.37.88,1.965-1.537,3.091-3.046-1.02-.047c-1.5-.065-4.168-.167-4.5-.09a2.617,2.617,0,0,1-.833.055,2.954,2.954,0,0,1-1.264-.232c-.5-.265-1.3-.39-1.387-.587a20.487,20.487,0,0,0-2.786-1.14s-3.668-1.949-4.98-.792S236.614,438.05,236.813,438.54Z" transform="translate(-199.103 -377.441)" fill="#65617d"/>
  <path id="Trazado_28014" data-name="Trazado 28014" d="M308.24,364.334l.472,1.569.61,3.533,2.239.152.64-1.067.647-1.074s.4-1.427.693-2.807c.255-1.222.423-2.409.145-2.537-.248-.113-.41-.525-.517-.969-.013-.053-.025-.11-.035-.167a8.8,8.8,0,0,1-.15-1.135s-4.689-.243-4.034,1.69a3.085,3.085,0,0,1,.177,1.029,1.348,1.348,0,0,1-.017.262A2.192,2.192,0,0,1,308.24,364.334Z" transform="translate(-258.699 -314.413)" fill="#ee8e9e"/>
  <path id="Trazado_28015" data-name="Trazado 28015" d="M302.4,379.015l.167,2.667.38,2.269.427,1.052.382,5.748s3.668.425,4.564-.008a.38.38,0,0,0,.167-.125c1.079-1.629.725-6.347.725-6.347l.41-3.046-.273-1.58-.667-.07-.51-.055s-.115.142-.282.362c-.452.6-1.282,1.769-1.225,2.257.075.667-.092,1.355-.352,1.462s-.472.29-.517.107a.817.817,0,0,1-.047-.487,3.956,3.956,0,0,0-.2-1.052,4.428,4.428,0,0,1-.38-1.324,1.57,1.57,0,0,0-.167-.96c-.122-.107-.29-.213-.153-.7s-.6-1.435-.6-1.435Z" transform="translate(-253.833 -329.353)" fill="#e3e8f4"/>
  <path id="Trazado_28016" data-name="Trazado 28016" d="M331.457,377.112l.153,4.553.879.489a.4.4,0,0,0,.167-.127c1.079-1.629.725-6.346.725-6.346l.412-3.046-.275-1.58-.667-.07c.257-1.222.423-2.407.145-2.537-.248-.113-.41-.525-.515-.967h0l-.475,3.221s.04.29.053.59a1.664,1.664,0,0,1-.038.567,1.892,1.892,0,0,0-.03.762,6.18,6.18,0,0,0-.478,2.245C331.422,376.015,331.457,377.112,331.457,377.112Z" transform="translate(-278.04 -320.795)" opacity="0.1"/>
  <path id="Trazado_28017" data-name="Trazado 28017" d="M332.919,367s.769.095,1.012.415a1.44,1.44,0,0,0,.884.367s.73.243.715.3.213.153.667.275a3.079,3.079,0,0,1,1.219.667c0,.1,1.2,1.294,1.2,1.415a3.04,3.04,0,0,1,.32,1.385,4.96,4.96,0,0,0,.092,2c.183.167,0,.822,0,.822a.45.45,0,0,0-.015.489,4.179,4.179,0,0,1-.032,1.415l.017,1.189s-.167.745.03.777-.03.365-.03.365-.167.608.045.883a4.512,4.512,0,0,1,.273,1.445l3.259,4.736s.047.869-.989.854-1.022.2-.99.4-.29.412-.29.412-.41.213-.167.472.944.854-.213,1.249a2.759,2.759,0,0,1-.333-.609,6.916,6.916,0,0,1-.243-.822s-.107-1.159-.32-1.31-.183-.884-.183-.884.305-.593-.122-.833-6.608-3.668-6.608-3.668l-.15-4.555s-.107-3.366.534-4.493a1.892,1.892,0,0,1,.03-.762,3.945,3.945,0,0,0-.015-1.157Z" transform="translate(-278.465 -320.395)" fill="#3f3d56"/>
  <path id="Trazado_28018" data-name="Trazado 28018" d="M286,377.121a5.29,5.29,0,0,0-1.942-.1c-.412.213-1.217.38-1.334.5s-.425.032-.7.747-.3,1.447-.655,1.782-.532.563-.547.807.045.305-.092.38-.333.4-.275.518,3.167,2.8,3.167,2.8a7.35,7.35,0,0,0,.29,1.279,12.743,12.743,0,0,1-.457,4.066c-.305.243,2.049.223,2.049.223s.107-2.334.2-2.461a24.162,24.162,0,0,0-.062-2.619,14.872,14.872,0,0,1,.183-2.7,12.123,12.123,0,0,0,.167-2.437,5.013,5.013,0,0,1,.388-1.385C286.6,378.265,286,377.121,286,377.121Z" transform="translate(-235.54 -328.682)" opacity="0.1"/>
  <path id="Trazado_28019" data-name="Trazado 28019" d="M285.729,376.848a5.321,5.321,0,0,0-1.942-.1c-.412.212-1.219.382-1.334.5s-.427.03-.7.747-.305,1.445-.655,1.78-.534.563-.549.807.047.305-.092.382-.333.4-.273.517,3.167,2.8,3.167,2.8a7.192,7.192,0,0,0,.29,1.279,12.7,12.7,0,0,1-.458,4.066c-.305.243,2.057.222,2.057.222s.107-2.334.2-2.459a24.666,24.666,0,0,0-.06-2.621,14.872,14.872,0,0,1,.183-2.694,12.278,12.278,0,0,0,.175-2.437,5.013,5.013,0,0,1,.388-1.385C286.337,377.988,285.729,376.848,285.729,376.848Z" transform="translate(-235.311 -328.454)" fill="#3f3d56"/>
  <path id="Trazado_28020" data-name="Trazado 28020" d="M312.226,361.5a3.088,3.088,0,0,1,.177,1.028,3.5,3.5,0,0,0,4-1.584,8.782,8.782,0,0,1-.15-1.135S311.571,359.565,312.226,361.5Z" transform="translate(-261.968 -314.395)" opacity="0.1"/>
  <path id="Trazado_28021" data-name="Trazado 28021" d="M298.65,338.129a3.489,3.489,0,1,0,.077-.725A3.448,3.448,0,0,0,298.65,338.129Z" transform="translate(-250.708 -293.431)" fill="#ee8e9e"/>
  <path id="Trazado_28022" data-name="Trazado 28022" d="M269.946,404l-.833.258a.432.432,0,0,1-.167.457.5.5,0,0,0-.212.457s-.092.333-.305.412-.35.579-.35.579l-.7.807s-.26.213-.213.32-.275.137-.275.137l.167,2.711,1.447.275.9-.092.73-.273.64-.382.288-.745,1.28-1.951Z" transform="translate(-224.243 -351.227)" fill="#3f3d56"/>
  <path id="Trazado_28023" data-name="Trazado 28023" d="M249.474,417.494s-1.857-2.679-3.244-1.234.563,3.793,1.02,3.716,2.636-.2,2.636-.2Z" transform="translate(-206.619 -361.087)" fill="#ee8e9e"/>
  <rect id="Rectángulo_26172" data-name="Rectángulo 26172" width="9.724" height="7.55" rx="1.54" transform="translate(38.798 50.945) rotate(27.04)" fill="#3f3d56"/>
  <rect id="Rectángulo_26173" data-name="Rectángulo 26173" width="8.174" height="6.16" transform="translate(39.188 51.905) rotate(27.04)" fill="#2ab4bc"/>
  <ellipse id="Elipse_1255" data-name="Elipse 1255" cx="0.133" cy="0.133" rx="0.133" ry="0.133" transform="translate(37.374 54.37)" fill="#e6e8ec"/>
  <ellipse id="Elipse_1256" data-name="Elipse 1256" cx="0.222" cy="0.222" rx="0.222" ry="0.222" transform="translate(45.166 58.319)" fill="#e6e8ec"/>
  <path id="Trazado_28024" data-name="Trazado 28024" d="M260.93,424.46c-.017,2.01,4.141,2.437,4.141,2.437l1.062.167.477.075.2-1.964s-.218-.033-.49-.1c-.4-.093-.925-.255-1.034-.483C265.109,424.217,260.941,422.45,260.93,424.46Z" transform="translate(-219.276 -367.489)" fill="#ee8e9e"/>
  <path id="Trazado_28025" data-name="Trazado 28025" d="M299.11,337.417a.413.413,0,0,1,.255.113c.117.125.123.347.277.423a.321.321,0,0,0,.182.02c.405-.057.638-.513,1.029-.64a1.031,1.031,0,0,1,.68.058.534.534,0,0,1,.227.145c.13.167.038.417.1.62.083.284.422.4.713.432a1.25,1.25,0,0,1,.817.278.74.74,0,0,1,.145.59.461.461,0,0,0,0,.218c.08.228.475.193.579.013.077-.132.053-.24.232-.277a.754.754,0,0,1,.372.065,2.759,2.759,0,0,0,.965.148,3.488,3.488,0,1,0-6.568-2.209Z" transform="translate(-251.091 -293.445)" opacity="0.1"/>
  <path id="Trazado_28026" data-name="Trazado 28026" d="M299.27,330.284a.462.462,0,0,1,0-.218.735.735,0,0,0-.145-.588,1.248,1.248,0,0,0-.817-.28c-.293-.038-.63-.148-.714-.432-.06-.2.032-.452-.1-.618a.5.5,0,0,0-.227-.145,1.033,1.033,0,0,0-.68-.06c-.39.127-.624.583-1.029.64a.307.307,0,0,1-.182-.02c-.153-.077-.167-.3-.277-.424-.185-.2-.537-.068-.762-.213a.7.7,0,0,1-.247-.452,2.191,2.191,0,0,1-.067-1.01c.132-.565.638-.954.96-1.439.3-.45.472-1.02.924-1.319a1.848,1.848,0,0,1,1.545-.08,4.359,4.359,0,0,0,.724.19,8.158,8.158,0,0,0,1.239-.075,2.651,2.651,0,0,1,1.637.5.9.9,0,0,1,.267.27,1.4,1.4,0,0,1,.12.485,2.466,2.466,0,0,0,.322.89c.127.215.289.408.4.63a.976.976,0,0,1,.11.722c-.04.125-.117.238-.147.367a1.383,1.383,0,0,0,.262.855,1.6,1.6,0,0,1,.178.812,1.017,1.017,0,0,1-.365.73,1.318,1.318,0,0,1-.772.235,2.773,2.773,0,0,1-.984-.148.776.776,0,0,0-.372-.065c-.178.037-.155.145-.232.277C299.745,330.478,299.352,330.513,299.27,330.284Z" transform="translate(-246.83 -284.145)" fill="#3f3d56"/>
  <path id="Trazado_28027" data-name="Trazado 28027" d="M307.51,459.019l1.965-1.537,3.091-3.046-1.02-.047a.666.666,0,0,0-.215.417c-.015.372-.834.025-1.262.238s-2.512,2.884-2.877,2.866-.655-.185-.808.073l-.01.017a.431.431,0,0,1-.233.138Z" transform="translate(-256.95 -393.217)" opacity="0.1"/>
  <path id="Trazado_28028" data-name="Trazado 28028" d="M290.61,453.689l.987,3.152.155.5.47-.128,1.037-.285,4.615-1.267a4.013,4.013,0,0,0,1.667-.443,5.029,5.029,0,0,1,2.867-.625c.61.057,1.289-.207,1.852-1.247,0,0,1.279-3.776-1.949-4.858s-3.383.575-3.383.575l-.045.027c-.125.08-.475.333-.489.637-.015.372-.834.027-1.262.238s-2.512,2.884-2.877,2.866-.655-.185-.809.075l-.01.017c-.113.155-.452.192-.677.2a2.009,2.009,0,0,1-.21,0l-.03.008-.233.07Z" transform="translate(-244.009 -387.992)" fill="#65617d"/>
  <path id="Trazado_28029" data-name="Trazado 28029" d="M292.14,434.885l.477.075.2-1.964s-.218-.033-.49-.1A10.05,10.05,0,0,1,292.14,434.885Z" transform="translate(-245.284 -375.309)" opacity="0.1"/>
  <path id="Trazado_28030" data-name="Trazado 28030" d="M304.943,389.515s1.415-.412,1.065,3.609a11.244,11.244,0,0,1-2.969,6.563s-3.016,1.324-4.371,1.11-2.344-.258-2.344-.258a3.447,3.447,0,0,0-1.372-.365,6.334,6.334,0,0,1-2.391-.655,14.471,14.471,0,0,0,.213-2.557,14.119,14.119,0,0,1,2.346.24c.213.153.518.045.747,0a2.591,2.591,0,0,1,2.314-.118,1.4,1.4,0,0,0,.655-.077.655.655,0,0,1,.477-.03,1.307,1.307,0,0,0,.333-.167c.045-.06.412,0,.412,0a.167.167,0,0,0,.228-.107,1,1,0,0,1,.213-.333,8.631,8.631,0,0,1,1.187-3.182.5.5,0,0,0,.167-.442C301.791,392.5,303.116,389.026,304.943,389.515Z" transform="translate(-245.633 -339.118)" opacity="0.1"/>
  <path id="Trazado_28031" data-name="Trazado 28031" d="M304.722,387.661s1.417-.41,1.067,3.609a11.234,11.234,0,0,1-2.969,6.563s-3.016,1.325-4.371,1.112-2.346-.263-2.346-.263a3.432,3.432,0,0,0-1.37-.365,6.347,6.347,0,0,1-2.391-.655,14.464,14.464,0,0,0,.213-2.559,14.131,14.131,0,0,1,2.346.242c.213.153.517.043.745,0a2.6,2.6,0,0,1,2.316-.12,1.39,1.39,0,0,0,.654-.075.667.667,0,0,1,.477-.032,1.388,1.388,0,0,0,.333-.167c.045-.062.41,0,.41,0a.167.167,0,0,0,.228-.107,1,1,0,0,1,.213-.333,8.645,8.645,0,0,1,1.189-3.182.5.5,0,0,0,.167-.442C301.571,390.646,302.895,387.179,304.722,387.661Z" transform="translate(-245.451 -337.573)" fill="#3f3d56"/>
  <path id="Trazado_28032" data-name="Trazado 28032" d="M300.64,478.17l2.01,2.434.013-.013c.015-.047.213-.563.167-.6a2.83,2.83,0,0,0-1.1-1.112,2.078,2.078,0,0,1-.862-.784Z" transform="translate(-252.366 -412.974)" opacity="0.1"/>
  <path id="Trazado_28033" data-name="Trazado 28033" d="M300.557,490.372l.22.125s.51-.408,1.019-.82,1-.815,1-.834.213-.563.167-.593-.128-.227-.322-.472c-1.364-.382-.5.565-.38.608a1.388,1.388,0,0,0-1.75,1.427A2.238,2.238,0,0,0,300.557,490.372Z" transform="translate(-252.257 -420.963)" opacity="0.1"/>
  <path id="Trazado_28034" data-name="Trazado 28034" d="M302.958,491.094l.29.167,2.939.075a5.889,5.889,0,0,0,1.04.5,1,1,0,0,0,.147.032,6.52,6.52,0,0,0,.82.015c.225,0,.4-.015.4-.015s-.138-3.706-.243-4.1c-.05-.187-.3-.147-.54-.053a3.7,3.7,0,0,0-.527.267,9.505,9.505,0,0,0-1.445.228c-.2.107-.762-.062-1.112,0s-.975-.412-.975-.412c-1.705-.563-.745.487-.623.533a1.388,1.388,0,0,0-1.752,1.427A1.179,1.179,0,0,0,302.958,491.094Z" transform="translate(-252.976 -420.92)" fill="#3f3d56"/>
  <path id="Trazado_28035" data-name="Trazado 28035" d="M336.373,489.7a4.948,4.948,0,0,0,.987,2.222c.225,0,.4-.015.4-.015s-.138-3.706-.243-4.1c-.05-.187-.3-.147-.54-.053A4.274,4.274,0,0,0,336.373,489.7Z" transform="translate(-282.141 -420.956)" fill="#565387"/>
  <path id="Trazado_28036" data-name="Trazado 28036" d="M336.373,489.7a4.948,4.948,0,0,0,.987,2.222c.225,0,.4-.015.4-.015s-.138-3.706-.243-4.1c-.05-.187-.3-.147-.54-.053A4.274,4.274,0,0,0,336.373,489.7Z" transform="translate(-282.141 -420.956)" opacity="0.1"/>
  <path id="Trazado_28037" data-name="Trazado 28037" d="M333.112,489.8a8.736,8.736,0,0,0,.524,2.074.97.97,0,0,0,.147.032,6.477,6.477,0,0,0,.82.015c.225,0,.4-.015.4-.015s-.138-3.706-.243-4.1c-.05-.187-.3-.147-.54-.053a3.671,3.671,0,0,0-.527.267A2.048,2.048,0,0,0,333.112,489.8Z" transform="translate(-279.384 -420.956)" opacity="0.05"/>
  <path id="Trazado_28038" data-name="Trazado 28038" d="M272.54,455.34a6.074,6.074,0,0,1,2.7,2.157Z" transform="translate(-228.951 -394.008)" opacity="0.1"/>
  <g id="Grupo_12306" data-name="Grupo 12306" transform="translate(47.161 42.012)" opacity="0.1">
    <path id="Trazado_28039" data-name="Trazado 28039" d="M343.4,345.72a.05.05,0,0,1-.008.033.914.914,0,0,1-.052.127A1.169,1.169,0,0,1,343.4,345.72Z" transform="translate(-335.109 -344.675)"/>
    <path id="Trazado_28040" data-name="Trazado 28040" d="M294,339.757a1.3,1.3,0,0,1,.113-.307.378.378,0,0,1-.023.078,2.213,2.213,0,0,0,.068,1.01.707.707,0,0,0,.245.452c.227.145.578.018.764.213.117.125.123.347.277.423a.307.307,0,0,0,.182.02c.405-.057.638-.513,1.029-.64a1.023,1.023,0,0,1,.68.06.5.5,0,0,1,.227.145c.13.167.038.415.1.618.083.284.422.4.714.432a1.242,1.242,0,0,1,.817.28.735.735,0,0,1,.145.588.462.462,0,0,0,0,.218c.08.228.475.193.578.013.077-.132.053-.24.232-.277a.775.775,0,0,1,.372.065,2.774,2.774,0,0,0,.984.148,1.318,1.318,0,0,0,.772-.235.864.864,0,0,0,.237-.288.96.96,0,0,1-.333.517,1.318,1.318,0,0,1-.772.235,2.775,2.775,0,0,1-.984-.148.776.776,0,0,0-.372-.065c-.178.037-.155.145-.23.277-.105.18-.5.215-.58-.013a.483.483,0,0,1,0-.218.735.735,0,0,0-.145-.588,1.248,1.248,0,0,0-.817-.28c-.293-.038-.63-.148-.713-.432-.06-.2.032-.452-.1-.619a.5.5,0,0,0-.225-.145,1.038,1.038,0,0,0-.682-.06c-.388.127-.623.583-1.029.64a.307.307,0,0,1-.182-.02c-.153-.077-.167-.3-.277-.423-.185-.195-.535-.068-.762-.213a.7.7,0,0,1-.247-.452A2.191,2.191,0,0,1,294,339.757Z" transform="translate(-293.966 -339.45)"/>
  </g>
  <path id="Trazado_28041" data-name="Trazado 28041" d="M339.027,410.773c-.28.377-.6.725-.845,1.122a2.136,2.136,0,0,0-.37,1.334,3.466,3.466,0,0,0,.534-.954,13.325,13.325,0,0,1,1.025-1.539c.065-.1.485-.667.273-.69C339.467,410.021,339.122,410.645,339.027,410.773Z" transform="translate(-283.338 -356.265)" opacity="0.1"/>
  <path id="Trazado_28042" data-name="Trazado 28042" d="M344.554,587.011c.2.647.4,1.3.657,1.924a16.36,16.36,0,0,0,1.7,3.1,22.537,22.537,0,0,0,1.407,1.844,6.1,6.1,0,0,1,1.547,2.426,12.387,12.387,0,0,1,.138,1.667,2.04,2.04,0,0,0,.687,1.48,2.5,2.5,0,0,0,1.129.372c.283.045.637.06.784-.185a.713.713,0,0,0,.078-.323l.068-.815c.013-.177.077-.4.253-.41s.265.227.415.333a.452.452,0,0,0,.61-.212,1.028,1.028,0,0,0,.017-.717,3.4,3.4,0,0,0-1.745-2.167,5.008,5.008,0,0,1-.85-.442,2.906,2.906,0,0,1-.667-.844,52.432,52.432,0,0,1-4.194-7.88,5.834,5.834,0,0,1-.432-1.554,10.2,10.2,0,0,1,.067-1.64,9.333,9.333,0,0,0-.27-2.922,2.333,2.333,0,0,0-.278-.71,1.584,1.584,0,0,0-2.167-.313,2.234,2.234,0,0,0-.864,1.579,4.552,4.552,0,0,0,.432,1.642Q343.812,584.63,344.554,587.011Z" transform="translate(-287.365 -496.832)" fill="#a1616a"/>
  <path id="Trazado_28043" data-name="Trazado 28043" d="M344.554,587.011c.2.647.4,1.3.657,1.924a16.36,16.36,0,0,0,1.7,3.1,22.537,22.537,0,0,0,1.407,1.844,6.1,6.1,0,0,1,1.547,2.426,12.387,12.387,0,0,1,.138,1.667,2.04,2.04,0,0,0,.687,1.48,2.5,2.5,0,0,0,1.129.372c.283.045.637.06.784-.185a.713.713,0,0,0,.078-.323l.068-.815c.013-.177.077-.4.253-.41s.265.227.415.333a.452.452,0,0,0,.61-.212,1.028,1.028,0,0,0,.017-.717,3.4,3.4,0,0,0-1.745-2.167,5.008,5.008,0,0,1-.85-.442,2.906,2.906,0,0,1-.667-.844,52.432,52.432,0,0,1-4.194-7.88,5.834,5.834,0,0,1-.432-1.554,10.2,10.2,0,0,1,.067-1.64,9.333,9.333,0,0,0-.27-2.922,2.333,2.333,0,0,0-.278-.71,1.584,1.584,0,0,0-2.167-.313,2.234,2.234,0,0,0-.864,1.579,4.552,4.552,0,0,0,.432,1.642Q343.812,584.63,344.554,587.011Z" transform="translate(-287.365 -496.832)" opacity="0.05"/>
  <path id="Trazado_28044" data-name="Trazado 28044" d="M294.174,767.888a2.224,2.224,0,0,0,.94.113c.023-.26.373-.318.633-.305a.723.723,0,0,1,.362.083c.065.042.115.1.178.145a.772.772,0,0,0,.368.095l1.354.113a4.072,4.072,0,0,0,1.8-.117.619.619,0,0,0,.289-.193c.153-.22,0-.535-.212-.7s-.485-.232-.7-.4c-.47-.359-.535-1.029-.783-1.565a4.622,4.622,0,0,0-.649-.939,3.6,3.6,0,0,0-.638-.655,3.373,3.373,0,0,0-1.805-.44,1.21,1.21,0,0,0-1.2.333c-.4.5-.24,1.5-.215,2.084A15.084,15.084,0,0,0,294.174,767.888Z" transform="translate(-246.704 -650.472)" fill="#514e7f"/>
  <path id="Trazado_28045" data-name="Trazado 28045" d="M294.174,767.888a2.224,2.224,0,0,0,.94.113c.023-.26.373-.318.633-.305a.723.723,0,0,1,.362.083c.065.042.115.1.178.145a.772.772,0,0,0,.368.095l1.354.113a4.072,4.072,0,0,0,1.8-.117.619.619,0,0,0,.289-.193c.153-.22,0-.535-.212-.7s-.485-.232-.7-.4c-.47-.359-.535-1.029-.783-1.565a4.622,4.622,0,0,0-.649-.939,3.6,3.6,0,0,0-.638-.655,3.373,3.373,0,0,0-1.805-.44,1.21,1.21,0,0,0-1.2.333c-.4.5-.24,1.5-.215,2.084A15.084,15.084,0,0,0,294.174,767.888Z" transform="translate(-246.704 -650.472)" opacity="0.05"/>
  <path id="Trazado_28046" data-name="Trazado 28046" d="M283.265,628.358a.941.941,0,0,0-.517,1.077,3.963,3.963,0,0,0,.545,1.179c.6,1.078.864,2.312,1.37,3.438.378.834.89,1.617,1.264,2.461a4.2,4.2,0,0,1,.378,2.691c-.11.435-.323.834-.465,1.262a7.005,7.005,0,0,0-.273,1.425,27.087,27.087,0,0,0-.1,4.945,1.477,1.477,0,0,0,.123.583c.085.167.232.333.167.5-.028.068-.09.118-.12.185-.087.187.087.385.245.518a.433.433,0,0,1-.265.205.627.627,0,0,1,.267.7c-.14.022-.148.237-.06.35s.228.183.292.312a.435.435,0,0,1-.24.547,1.142,1.142,0,0,1-.654.05,7.177,7.177,0,0,1-1.092-.24.791.791,0,0,1-.637-.817,12.145,12.145,0,0,1-.075-2.046c.058-3.307,0-6.618-.143-9.924a11.311,11.311,0,0,0-.974-3.853,20.232,20.232,0,0,0-.949-1.834,7.7,7.7,0,0,1-1.23-4.409c.018-.167.078-.365.243-.392a.354.354,0,0,1,.188.032,8.462,8.462,0,0,1,.992.547A3.743,3.743,0,0,0,283.265,628.358Z" transform="translate(-235.249 -537.274)" fill="#464353"/>
  <path id="Trazado_28047" data-name="Trazado 28047" d="M283.265,628.358a.941.941,0,0,0-.517,1.077,3.963,3.963,0,0,0,.545,1.179c.6,1.078.864,2.312,1.37,3.438.378.834.89,1.617,1.264,2.461a4.2,4.2,0,0,1,.378,2.691c-.11.435-.323.834-.465,1.262a7.005,7.005,0,0,0-.273,1.425,27.087,27.087,0,0,0-.1,4.945,1.477,1.477,0,0,0,.123.583c.085.167.232.333.167.5-.028.068-.09.118-.12.185-.087.187.087.385.245.518a.433.433,0,0,1-.265.205.627.627,0,0,1,.267.7c-.14.022-.148.237-.06.35s.228.183.292.312a.435.435,0,0,1-.24.547,1.142,1.142,0,0,1-.654.05,7.177,7.177,0,0,1-1.092-.24.791.791,0,0,1-.637-.817,12.145,12.145,0,0,1-.075-2.046c.058-3.307,0-6.618-.143-9.924a11.311,11.311,0,0,0-.974-3.853,20.232,20.232,0,0,0-.949-1.834,7.7,7.7,0,0,1-1.23-4.409c.018-.167.078-.365.243-.392a.354.354,0,0,1,.188.032,8.462,8.462,0,0,1,.992.547A3.743,3.743,0,0,0,283.265,628.358Z" transform="translate(-235.249 -537.274)" opacity="0.05"/>
  <path id="Trazado_28048" data-name="Trazado 28048" d="M248.536,608.557a1.081,1.081,0,0,0-1.5.17,8.045,8.045,0,0,0-.78.683,4.158,4.158,0,0,0-.927,4.114,8.1,8.1,0,0,0,1.137,2.019l.9,1.294c1.374,1.972,2.747,3.944,4.186,5.87a.223.223,0,0,0,.157.212c.052.013.117.012.148.055a.157.157,0,0,1,.018.088,1.275,1.275,0,0,1-.08.417.2.2,0,0,0-.017.143c.047.109.243.047.307.149.042.067-.01.153-.065.21s-.123.12-.113.2.147.167.142.263c0,.057-.05.1-.085.145a.371.371,0,0,0,.045.473,13.686,13.686,0,0,1-.518,2.771c-.167,1.48.508,2.926.59,4.411a1.142,1.142,0,0,0,.093.487c.138.257.5.412.482.7a2.827,2.827,0,0,1-.1.353,2.685,2.685,0,0,0,.055.5c0,.167-.145.372-.3.305q.177.59.315,1.19l3.151.26a2.8,2.8,0,0,0-.028-.85c-.065-.3-.2-.589-.273-.89a1.054,1.054,0,0,1,.123-.892.348.348,0,0,1-.347-.285,1.386,1.386,0,0,1,.008-.49c.083-.822-.262-1.632-.252-2.457a12,12,0,0,1,.354-1.914c.247-1.367-.01-2.849.6-4.1.368-.752.879-1.585.465-2.314-.2-.36-.563-.607-.8-.947a3.85,3.85,0,0,1-.427-1.032,34.844,34.844,0,0,0-1.959-4.321,4.5,4.5,0,0,1-.422-1.135,5.948,5.948,0,0,1-.053-1.049,15.453,15.453,0,0,0-.115-1.882,1.79,1.79,0,0,0-.228-.779,1.738,1.738,0,0,0-.5-.448A33.014,33.014,0,0,0,248.536,608.557Z" transform="translate(-206.109 -521.494)" fill="#464353"/>
  <path id="Trazado_28049" data-name="Trazado 28049" d="M286.581,774.811a2.261,2.261,0,0,0,.942.112c.023-.26.372-.318.632-.305a.723.723,0,0,1,.362.083c.065.042.115.1.18.145a.755.755,0,0,0,.369.1l1.352.113a4.057,4.057,0,0,0,1.8-.117.6.6,0,0,0,.287-.193c.153-.22,0-.533-.212-.694s-.485-.233-.7-.4c-.472-.358-.535-1.027-.785-1.564a4.507,4.507,0,0,0-.647-.94,3.6,3.6,0,0,0-.64-.654,3.355,3.355,0,0,0-1.8-.442,1.211,1.211,0,0,0-1.2.333c-.4.5-.24,1.5-.217,2.085A15.112,15.112,0,0,0,286.581,774.811Z" transform="translate(-240.378 -656.24)" fill="#514e7f"/>
  <ellipse id="Elipse_1257" data-name="Elipse 1257" cx="3.121" cy="3.121" rx="3.121" ry="3.121" transform="translate(57.047 75.365)" fill="#a1616a"/>
  <path id="Trazado_28050" data-name="Trazado 28050" d="M324.152,560.842a2.944,2.944,0,0,1-1.675.474,10.523,10.523,0,0,0-3.606,1.044,1.3,1.3,0,0,0-.417.287,1.175,1.175,0,0,0-.212.447,2.919,2.919,0,0,0-.118,1.085,3.09,3.09,0,0,0,.3,1.02,5.5,5.5,0,0,0,1.934,2.206,1.416,1.416,0,0,0,.49.235,2.748,2.748,0,0,0,1.212-.258,1.98,1.98,0,0,1,1.119.035c.333.114.7.32,1.029.182a1.056,1.056,0,0,0,.465-.53,18.054,18.054,0,0,0,.852-1.857,7.164,7.164,0,0,1,.308-.727c.362-.688.987-1.22,1.3-1.935a.425.425,0,0,0,.03-.364.5.5,0,0,0-.23-.175,5.477,5.477,0,0,1-1.247-.979c-.205-.2-.582-.729-.877-.775C324.477,560.2,324.377,560.649,324.152,560.842Z" transform="translate(-266.928 -481.429)" fill="#a1616a"/>
  <path id="Trazado_28051" data-name="Trazado 28051" d="M278.893,577.9a1.911,1.911,0,0,1-1.18.013,13.464,13.464,0,0,1-2.967-.862,1.605,1.605,0,0,1-.728-.56,1.832,1.832,0,0,1-.2-.7l-.167-1.167a6.8,6.8,0,0,1,.053-1.19.345.345,0,0,0-.068-.258.281.281,0,0,0-.205-.065c-.468.008-.752.5-1.08.833a2,2,0,0,1-.667.447c-.3.123-.667.21-.792.51-.05.125-.043.267-.1.392-.21.5-1.105.333-1.334.833-.065.14-.06.315-.167.425s-.307.108-.472.135c-.652.107-.967.859-1.524,1.214a12.368,12.368,0,0,1-1.577.527,5.986,5.986,0,0,1-.825.418,3.888,3.888,0,0,1-.95.048.248.248,0,0,0-.188.062.252.252,0,0,0-.032.207,5.745,5.745,0,0,0,3.549,4.448,1.184,1.184,0,0,1,.3.147c.283.212.333.667.655.817a.667.667,0,0,0,.682-.147,6.124,6.124,0,0,0,.5-.543,1.96,1.96,0,0,1,1.1-.578,2.412,2.412,0,0,0,1.132-.255,3.494,3.494,0,0,0,.357-.38,2.239,2.239,0,0,1,.809-.483,8.261,8.261,0,0,1,2.572-.565,8.969,8.969,0,0,0,2.444-.237,1.475,1.475,0,0,0,.545-.308,1.637,1.637,0,0,0,.363-.632A4.834,4.834,0,0,0,278.893,577.9Z" transform="translate(-221.595 -492.148)" fill="#2ab4bc"/>
  <path id="Trazado_28052" data-name="Trazado 28052" d="M321.964,573.908c.23-.022.462,0,.693,0,.272,0,.54-.067.812-.068a2.018,2.018,0,0,1,1.9,1.449.377.377,0,0,1,.012.205.145.145,0,0,1-.157.107,3.46,3.46,0,0,0-.352-.7,1.973,1.973,0,0,0-1.047-.73,2.713,2.713,0,0,0-1.287-.047c-.178.033-.352.08-.525.128l-.833.23c-.153.042-.308.083-.457.138-.115.043-.312.2-.425.208-.153,0-.03-.134.038-.224a1.108,1.108,0,0,1,.545-.4A4.71,4.71,0,0,1,321.964,573.908Z" transform="translate(-268.69 -492.753)" fill="#6c63ff"/>
  <path id="Trazado_28053" data-name="Trazado 28053" d="M333.669,589.1c.2.647.4,1.3.657,1.924a16.281,16.281,0,0,0,1.7,3.1,22.515,22.515,0,0,0,1.407,1.844,6.233,6.233,0,0,1,1.547,2.424,12.424,12.424,0,0,1,.138,1.667,2.047,2.047,0,0,0,.685,1.48,2.557,2.557,0,0,0,1.13.372c.282.045.635.06.784-.185a.74.74,0,0,0,.078-.323l.067-.815c.015-.177.078-.4.253-.41s.267.227.417.333a.452.452,0,0,0,.61-.212,1.037,1.037,0,0,0,.017-.717,3.406,3.406,0,0,0-1.745-2.167,5.088,5.088,0,0,1-.852-.442,2.886,2.886,0,0,1-.667-.845,51.973,51.973,0,0,1-4.194-7.88,5.877,5.877,0,0,1-.434-1.552,10.2,10.2,0,0,1,.068-1.64,9.34,9.34,0,0,0-.27-2.922,2.3,2.3,0,0,0-.28-.71,1.582,1.582,0,0,0-2.167-.313,2.235,2.235,0,0,0-.865,1.579,4.586,4.586,0,0,0,.432,1.642Q332.926,586.719,333.669,589.1Z" transform="translate(-278.291 -498.571)" fill="#a1616a"/>
  <path id="Trazado_28054" data-name="Trazado 28054" d="M344.092,531.667c.025-.26-.208-.5-.473-.667a6.272,6.272,0,0,1-.8-.49c-.237-.205-.367-.472-.6-.677a2.682,2.682,0,0,0-.9-.449A6.863,6.863,0,0,0,339.16,529a3.738,3.738,0,0,0-2.059.545,1.221,1.221,0,0,0-.35.333,1.432,1.432,0,0,0-.167.517,10.18,10.18,0,0,1-.538,1.635,3.808,3.808,0,0,1-1.024,1.654c-.583.485-1.475.765-1.86,1.352a.433.433,0,0,0-.085.378c.055.148.232.25.4.343a5.354,5.354,0,0,1,2.184,2.09,2.426,2.426,0,0,1-.19,2.609c-.22.286-.523.627-.308.915.333.438,1.449.187,1.709.65a.945.945,0,0,1,.033.478c0,.487.469.919,1.037,1.144a5.833,5.833,0,0,0,1.867.307,1.63,1.63,0,0,0,.047-1.208.487.487,0,0,1-.048-.275.666.666,0,0,1,.215-.263,1.909,1.909,0,0,0,.128-2.366,13.541,13.541,0,0,1-1.289-2.279,1.176,1.176,0,0,1,.2-1.187,4.015,4.015,0,0,1,.588-.428,2.221,2.221,0,0,0,.823-1.034c.192-.532.167-1.167.724-1.525.535-.333,1.287-.237,1.879-.465A2.011,2.011,0,0,0,344.092,531.667Z" transform="translate(-279.385 -455.389)" fill="#464353"/>
  <path id="Trazado_28055" data-name="Trazado 28055" d="M559.43,648.5c-2.542-1.052-3.289-1.812-3.289-3.334,0-1.167.513-2.514,2.764-2.514a6.345,6.345,0,0,1,3.514,1l.732-1.936a7.76,7.76,0,0,0-3.8-1.024V637.86h-1.479v2.951a4.642,4.642,0,0,0-4.246,4.7c0,2.542,1.5,3.888,4.488,5.056,2.164.882,3.3,1.875,3.3,3.483,0,1.667-1.4,2.864-3.478,2.864a9.019,9.019,0,0,1-4.541-1.257l-.7,1.957a8.509,8.509,0,0,0,4.471,1.287v2.951h2.516v-3.039a5.1,5.1,0,0,0,4.616-4.968C564.293,651.248,562.441,649.728,559.43,648.5Z" transform="translate(-462.398 -546.101)" fill="url(#linear-gradient-2)"/>
  <path id="Trazado_28056" data-name="Trazado 28056" d="M557.2,657.881V654.93a8.511,8.511,0,0,1-4.471-1.287l.7-1.957a9.02,9.02,0,0,0,4.541,1.257c2.075,0,3.471-1.2,3.471-2.864,0-1.607-1.139-2.6-3.3-3.477-2.981-1.167-4.488-2.514-4.488-5.056a4.643,4.643,0,0,1,4.246-4.7V633.89h1.479v2.834a7.781,7.781,0,0,1,3.8,1.023l-.732,1.927a6.346,6.346,0,0,0-3.514-1c-2.25,0-2.764,1.345-2.764,2.514,0,1.518.747,2.279,3.289,3.334,3.011,1.227,4.863,2.747,4.863,5.348a5.083,5.083,0,0,1-4.616,4.968v3.042Z" transform="translate(-462.431 -542.793)" fill="#243e56"/>
</svg>
