<?xml version="1.0" encoding="utf-8"?>
<!-- Generator: Adobe Illustrator 23.0.1, SVG Export Plug-In . SVG Version: 6.00 Build 0)  -->
<svg version="1.1" id="Layer_1" xmlns="http://www.w3.org/2000/svg" xmlns:xlink="http://www.w3.org/1999/xlink" x="0px" y="0px"
	 viewBox="0 0 24 37.8" style="enable-background:new 0 0 24 37.8;" xml:space="preserve">
<style type="text/css">
	.st0{clip-path:url(#SVGID_2_);}
	.st1{fill:#FFFFFF;}
	.st2{enable-background:new    ;}
</style>
<g>
	<g id="Group_1144" transform="translate(-20 337.448)">
		<g>
			<g>
				<defs>
					<rect id="SVGID_1_" x="20.8" y="-316.1" width="22.5" height="9.7"/>
				</defs>
				<clipPath id="SVGID_2_">
					<use xlink:href="#SVGID_1_"  style="overflow:visible;"/>
				</clipPath>
				<g id="Group_1143" transform="translate(0 0)" class="st0">
					<g id="Group_1142" transform="translate(0 0)">
						<path id="Path_589" class="st1" d="M22.2-306.8l3.9,0.1c0.8-0.1,1.5-0.8,1.4-1.7v-2.3c0.1,0,0.2-0.1,0.3-0.1
							c1.3-0.5,2.7-0.7,4.1-0.7s2.8,0.4,4.1,0.8l0.3,0.1v1.5v0.7c-0.1,0.8,0.6,1.6,1.4,1.7l3.9,0.1c0.8-0.1,1.5-0.8,1.4-1.7v-1.3
							l0,0c-0.1-0.5-0.2-1-0.4-1.5c-0.2-0.4-0.4-0.8-0.6-1.2c-1.9-2.8-4.8-4-10.2-4.1c-7.4-0.1-10.2,3.6-10.3,3.8
							c-0.3,0.4-0.5,0.8-0.7,1.2s-0.3,0.9-0.4,1.4l0,0v1.3C20.7-307.6,21.3-306.9,22.2-306.8"/>
					</g>
				</g>
			</g>
		</g>
	</g>
	<g class="st2">
		<path class="st1" d="M17.6,6.8l-3.1,4.5l3.1,4.9h-3.4l-1.3-2.5c-0.1-0.2-0.3-0.5-0.4-0.8l0,0c-0.1,0.3-0.2,0.6-0.4,0.8l-1.4,2.5
			H7.5l3.2-4.7l-3-4.7h3.4l1.3,2.6c0.2,0.4,0.3,0.7,0.4,0.8l0,0c0.1-0.3,0.2-0.6,0.4-0.9l1.4-2.6L17.6,6.8L17.6,6.8z"/>
	</g>
</g>
</svg>
