<svg xmlns="http://www.w3.org/2000/svg" viewBox="0 0 18 18.001">
  <defs>
    <style>
      .cls-1 {
        fill: none;
      }

      .cls-2 {
        fill: #606060;
      }

      .cls-3 {
        fill: #29cbfc;
      }
    </style>
  </defs>
  <g id="Group_4362" data-name="Group 4362" transform="translate(-2698 575.13)">
    <rect id="Rectangle_4443" data-name="Rectangle 4443" class="cls-1" width="18" height="17.872" transform="translate(2698 -575.001)"/>
    <path id="Path_584" data-name="Path 584" class="cls-2" d="M14.484,10.868,12.192,8.735a1.25,1.25,0,0,0-1.67.03L9.375,9.832c-.066-.03-.164-.091-.229-.122A11.341,11.341,0,0,1,6.362,7.851a10.558,10.558,0,0,1-2-2.59c-.033-.061-.1-.152-.131-.213l.786-.731.393-.366A1.051,1.051,0,0,0,5.445,2.4L3.152.263A1.377,1.377,0,0,0,1.417.324L.794.964a3.252,3.252,0,0,0-.524.853A3.32,3.32,0,0,0,.008,2.7C-.286,5.048.86,7.181,3.971,10.045c4.29,3.992,7.762,3.687,7.926,3.687a5.322,5.322,0,0,0,.95-.213,5.505,5.505,0,0,0,.95-.488h0a3.689,3.689,0,0,0,.655-.609,1.05,1.05,0,0,0,.033-1.554Zm0,0" transform="translate(2699.024 -572.167)"/>
    <g id="Group_4361" data-name="Group 4361" transform="translate(2706.196 -575.129)">
      <path id="Path_2579" data-name="Path 2579" class="cls-3" d="M.778,0,0,1.072A7.588,7.588,0,0,1,2.933,5.4l1.336-.316A8.937,8.937,0,0,0,.778,0Z" transform="matrix(0.966, -0.259, 0.259, 0.966, 0, 4.301)"/>
      <path id="Path_2580" data-name="Path 2580" class="cls-3" d="M.783,0,0,1.063a11.781,11.781,0,0,1,4.555,6.72l1.292-.311A13.088,13.088,0,0,0,.783,0Z" transform="matrix(0.966, -0.259, 0.259, 0.966, 0.51, 1.512)"/>
    </g>
  </g>
</svg>
