<svg xmlns="http://www.w3.org/2000/svg" width="34" height="35.981" viewBox="0 0 34 35.981">
  <g id="insert_drive_file" transform="translate(0.06 -0.18)">
    <rect id="Path" width="34" height="34" transform="translate(-0.06 0.18)" fill="rgba(0,0,0,0)"/>
    <path id="Unión_2" data-name="Unión 2" d="M22.734,31.167h-.224L20.83,34l-1.68-2.833h-.224L17.246,34l-1.68-2.833h-.224L13.663,34,12.1,31.356,10.527,34l-1.68-2.833H8.623L6.944,34l-1.68-2.833H5.04L3.36,34,1.249,30.44A3.033,3.033,0,0,1,.017,28.363L0,28.334H.014A2.814,2.814,0,0,1,0,28.05L.017,3.118A3.319,3.319,0,0,1,3.5,0h14L28,9.35v18.7a3.053,3.053,0,0,1-1.616,2.626L24.413,34ZM3.5,28.05h21V10.908H15.75V3.118H3.5Z" transform="translate(2.94 1.18)" fill="#00b9be" stroke="rgba(0,0,0,0)" stroke-width="1"/>
    <text id="_" data-name="$" transform="translate(8.94 13.18)" fill="#00b9be" font-size="8" font-family="Gotham-Bold, Gotham" font-weight="700"><tspan x="0" y="0">$</tspan></text>
  </g>
</svg>
