<svg id="person" xmlns="http://www.w3.org/2000/svg" width="25" height="25" viewBox="0 0 25 25">
  <rect id="Path" width="25" height="25" fill="rgba(0,0,0,0)"/>
  <path id="Icon" d="M21,21H0V18.375C0,17.3.683,15.745,3.936,14.44A19.5,19.5,0,0,1,10.5,13.125a19.5,19.5,0,0,1,6.564,1.316C20.317,15.745,21,17.3,21,18.375V21ZM10.5,15.749a15.825,15.825,0,0,0-5.148.959c-1.507.545-2.577,1.2-2.727,1.668H18.375C18.11,17.435,14.04,15.749,10.5,15.749Zm0-5.25a5.25,5.25,0,1,1,5.249-5.25A5.255,5.255,0,0,1,10.5,10.5Zm0-7.876A2.626,2.626,0,1,0,13.125,5.25,2.628,2.628,0,0,0,10.5,2.623Z" transform="translate(2 2)" fill="#2ab4bc"/>
</svg>
