<svg xmlns="http://www.w3.org/2000/svg" width="25" height="25" viewBox="0 0 25 25">
  <g id="location_on" transform="translate(-0.207 0.03)">
    <rect id="Path" width="25" height="25" transform="translate(0.207 -0.03)" fill="rgba(0,0,0,0)"/>
    <path id="Icon" d="M10,23h0a56.238,56.238,0,0,1-5-5.21c-2.281-2.721-5-6.62-5-9.739A7.3,7.3,0,0,1,2.927,2.356,11.272,11.272,0,0,1,10,0a11.272,11.272,0,0,1,7.073,2.356A7.3,7.3,0,0,1,20,8.05c0,3.119-2.719,7.017-5,9.739A56.238,56.238,0,0,1,10,23ZM10,2.3c-3.939,0-7.143,2.58-7.143,5.75,0,3.593,5,9.142,7.143,11.361,2.146-2.192,7.142-7.686,7.142-11.361C17.142,4.879,13.938,2.3,10,2.3Z" transform="translate(2.207 0.97)" fill="#00b9be"/>
    <circle id="Icon-2" data-name="Icon" cx="2.574" cy="2.574" r="2.574" transform="translate(10.037 7.572)" fill="#00b9be"/>
  </g>
</svg>
