<svg id="perm_contact_calendar" xmlns="http://www.w3.org/2000/svg" width="24" height="24" viewBox="0 0 24 24">
  <rect id="Path" width="24" height="24" fill="rgba(0,0,0,0)"/>
  <path id="Icon" d="M16,20H2a2,2,0,0,1-2-2V4a2.026,2.026,0,0,1,.16-.78,2.133,2.133,0,0,1,.18-.339A1.989,1.989,0,0,1,.88,2.34,2.038,2.038,0,0,1,2,2H3V0H5V2h8V0h2V2h1a2.025,2.025,0,0,1,.78.159,2.292,2.292,0,0,1,.339.18,1.979,1.979,0,0,1,.54.541,2.132,2.132,0,0,1,.18.339A2.026,2.026,0,0,1,18,4V18a2.036,2.036,0,0,1-.34,1.12,1.987,1.987,0,0,1-.54.54,2.236,2.236,0,0,1-.339.18A2.026,2.026,0,0,1,16,20ZM2,4V18H16V4ZM14,16H13V15h1v1Zm-1.5,0h-1V15h1v1ZM11,16H10V15h1v1ZM9.5,16h-1V15h1v1ZM8,16H7V15H8v1ZM6.5,16h-1V15h1v1ZM5,16H4V15H5v1Zm9-2H13V13h1v1Zm-1.5,0h-1V13h1v1ZM11,14H10V13h1v1ZM9.5,14h-1V13h1v1ZM8,14H7V13H8v1ZM6.5,14h-1V13h1v1ZM5,14H4V13H5v1Zm9-2H13V11h1v1Zm-1.5,0h-1V11h1v1ZM11,12H10V11h1v1ZM9.5,12h-1V11h1v1ZM8,12H7V11H8v1ZM6.5,12h-1V11h1v1ZM5,12H4V11H5v1Zm9-2H13V9h1v1Zm-1.5,0h-1V9h1v1ZM11,10H10V9h1v1ZM9.5,10h-1V9h1v1ZM8,10H7V9H8v1ZM6.5,10h-1V9h1v1ZM5,10H4V9H5v1Zm9-2H13V7h1V8ZM12.5,8h-1V7h1V8ZM11,8H10V7h1V8ZM9.5,8h-1V7h1V8ZM8,8H7V7H8V8ZM6.5,8h-1V7h1V8ZM5,8H4V7H5V8Z" transform="translate(3 0.999)" fill="#fff"/>
</svg>
