<svg xmlns="http://www.w3.org/2000/svg" width="24" height="24" viewBox="0 0 24 24">
  <g id="perm_contact_calendar" transform="translate(-746 -374)">
    <rect id="Path" width="24" height="24" transform="translate(746 374)" fill="rgba(0,0,0,0)"/>
    <path id="Icon" d="M765,395H751a2,2,0,0,1-2-2V379a2.026,2.026,0,0,1,.16-.78,2.137,2.137,0,0,1,.18-.339,1.988,1.988,0,0,1,.54-.541A2.038,2.038,0,0,1,751,377h1v-2h2v2h8v-2h2v2h1a2.024,2.024,0,0,1,.78.159,2.291,2.291,0,0,1,.339.18,1.978,1.978,0,0,1,.54.541,2.137,2.137,0,0,1,.18.339,2.026,2.026,0,0,1,.16.78v14a2.035,2.035,0,0,1-.34,1.12,1.987,1.987,0,0,1-.54.54,2.235,2.235,0,0,1-.339.18A2.026,2.026,0,0,1,765,395Zm-14-16h0v14h14V379Zm12,6h-1v-1h1v1Zm-1.5,0h-1v-1h1v1Zm-1.5,0h-1v-1h1v1Zm-1.5,0h-1v-1h1v1Zm-1.5,0h-1v-1h1v1Zm-1.5,0h-1v-1h1v1Zm-1.5,0h-1v-1h1v1Z" fill="#fff"/>
  </g>
</svg>
