<svg xmlns="http://www.w3.org/2000/svg" width="24" height="24" viewBox="0 0 24 24">
  <g id="supervisor_account" transform="translate(-644 -462)">
    <rect id="Path" width="24" height="24" transform="translate(644 462)" fill="rgba(0,0,0,0)"/>
    <path id="Icon" d="M666,481H655v-1.5c0-1.97,3.581-3,5.5-3s5.5,1.031,5.5,3V481Zm-13,0h-7v-1.5c0-2.3,4.557-3.5,7-3.5a11.714,11.714,0,0,1,1.98.2,4.558,4.558,0,0,0-1.64,1.81c-.055,0-.113,0-.169,0s-.116,0-.171,0a10.456,10.456,0,0,0-4.229,1h4.28a2.731,2.731,0,0,0-.05.5V481Zm7.5-6a2.471,2.471,0,0,1-1.211-.32,2.5,2.5,0,1,1,2.42,0A2.469,2.469,0,0,1,660.5,475Zm-7.5-1a3.5,3.5,0,1,1,3.5-3.5A3.5,3.5,0,0,1,653,474Zm0-5a1.5,1.5,0,1,0,1.5,1.5A1.5,1.5,0,0,0,653,469Z" fill="#288ac1"/>
  </g>
</svg>
