<svg xmlns="http://www.w3.org/2000/svg" width="28.292" height="29" viewBox="0 0 28.292 29">
  <path id="filter" d="M27.072,0H1.218A1.215,1.215,0,0,0,.135.659a1.232,1.232,0,0,0,.1,1.282L9.7,15.284l.01.014a2.705,2.705,0,0,1,.531,1.606V27.782A1.209,1.209,0,0,0,11.453,29a1.247,1.247,0,0,0,.477-.1l5.322-2.029a1.153,1.153,0,0,0,.793-1.137V16.9a2.707,2.707,0,0,1,.531-1.606l.01-.014L28.059,1.941a1.23,1.23,0,0,0,.1-1.281A1.214,1.214,0,0,0,27.072,0Zm0,0" transform="translate(0.001)" fill="#00B9BE"/>
</svg>
