<svg xmlns="http://www.w3.org/2000/svg" width="24" height="24" viewBox="0 0 24 24">
  <g id="Grupo_2702" data-name="Grupo 2702" transform="translate(-627 -2346)">
    <g id="Grupo_2656" data-name="Grupo 2656" transform="translate(630.838 2354.818)">
      <g id="Grupo_2" data-name="Grupo 2" transform="translate(4.784)">
        <g id="Grupo_1" data-name="Grupo 1">
          <path id="Trazado_1" data-name="Trazado 1" d="M254.183,70.377c.381-.118.733-.23,1.1-.343A3.543,3.543,0,0,0,252.8,68.1a4.459,4.459,0,0,1,3.81,1.313.29.29,0,0,0,.369.1c.246-.1.5-.166.8-.257-.381.761-.744,1.49-1.12,2.23-.821-.365-1.636-.729-2.474-1.1" transform="translate(-252.8 -68.076)" fill="#243e56" fill-rule="evenodd"/>
        </g>
      </g>
      <g id="Grupo_4" data-name="Grupo 4" transform="translate(7.692 3.764)">
        <g id="Grupo_3" data-name="Grupo 3">
          <path id="Trazado_2" data-name="Trazado 2" d="M302.4,140.487c.34-.724.686-1.447,1.032-2.187.774.381,1.536.75,2.327,1.136-.346.118-.645.22-.961.322a3.531,3.531,0,0,0,2.362,1.919,4.349,4.349,0,0,1-3.365-1.013,4.041,4.041,0,0,1-.352-.343.192.192,0,0,0-.246-.064c-.252.091-.51.172-.768.257-.006,0-.018-.016-.029-.027" transform="translate(-302.4 -138.3)" fill="#243e56" fill-rule="evenodd"/>
        </g>
      </g>
      <g id="Grupo_22" data-name="Grupo 22" transform="translate(0 0.001)">
        <g id="Grupo_21" data-name="Grupo 21">
          <g id="Grupo_20" data-name="Grupo 20">
            <path id="Trazado_8" data-name="Trazado 8" d="M175.846,68.186c-.258.08-.528.145-.774.241a3.548,3.548,0,0,0-2.374,2.83,3.06,3.06,0,0,0,1.055,2.755,5.266,5.266,0,0,0,2.222,1.265h-.516c-.176,0-.358.005-.533-.005a3.769,3.769,0,0,1-3.711-3.147,3.632,3.632,0,0,1,3.253-3.977,5.021,5.021,0,0,1,.7-.048c.223,0,.451.032.674.048,0,.016.006.027.006.038" transform="translate(-171.185 -68.1)" fill="#243e56"/>
          </g>
        </g>
      </g>
      <g id="Grupo_25" data-name="Grupo 25" transform="translate(12.604 0.006)">
        <g id="Grupo_24" data-name="Grupo 24">
          <g id="Grupo_23" data-name="Grupo 23">
            <path id="Trazado_9" data-name="Trazado 9" d="M386.294,75.291a3.53,3.53,0,0,0-.094-7.038,4.11,4.11,0,0,1,4.18,1.624,3.341,3.341,0,0,1-.17,4.036,4.085,4.085,0,0,1-3.916,1.378" transform="translate(-386.2 -68.188)" fill="#243e56"/>
          </g>
        </g>
      </g>
    </g>
    <g id="Elipse_246" data-name="Elipse 246" transform="translate(627 2346)" fill="none" stroke="#243e56" stroke-width="2">
      <circle cx="12" cy="12" r="12" stroke="none"/>
      <circle cx="12" cy="12" r="11" fill="none"/>
    </g>
  </g>
</svg>
