<svg xmlns="http://www.w3.org/2000/svg" width="16.12" height="16.12" viewBox="0 0 16.12 16.12">
  <g id="Grupo_9332" data-name="Grupo 9332" transform="translate(-2841 -2577)">
    <g id="Grupo_9331" data-name="Grupo 9331" transform="translate(2841 2577)">
      <g id="Grupo_372" data-name="Grupo 372" transform="translate(0.672 0.672)">
        <path id="Trazado_326" data-name="Trazado 326" d="M7.321,0A7.321,7.321,0,1,1,0,7.321,7.318,7.318,0,0,1,7.321,0Zm0,0" fill="none"/>
        <path id="Trazado_328" data-name="Trazado 328" d="M7.321,0a7.321,7.321,0,1,0,7.321,7.321A7.318,7.318,0,0,0,7.321,0Zm0,13.27A5.949,5.949,0,1,1,13.27,7.321,5.953,5.953,0,0,1,7.321,13.27Zm0,0" fill="#243e56"/>
      </g>
      <rect id="Rectángulo_3707" data-name="Rectángulo 3707" width="16.12" height="16.12" fill="none"/>
    </g>
    <path id="Trazado_19678" data-name="Trazado 19678" d="M2.1-3.081H-.713v1.9h3.3V0H-2.178V-7.109H2.578v1.187H-.713v1.694H2.1Z" transform="translate(2849.178 2588.109)" fill="#243e56"/>
  </g>
</svg>
