<svg id="remove_red_eye" xmlns="http://www.w3.org/2000/svg" width="24" height="24" viewBox="0 0 24 24">
  <rect id="Path" width="24" height="24" fill="rgba(0,0,0,0)"/>
  <path id="Icon" d="M11,15a11.731,11.731,0,0,1-6.726-2.1A11.836,11.836,0,0,1,0,7.5a11.818,11.818,0,0,1,22,0,11.836,11.836,0,0,1-4.273,5.4A11.731,11.731,0,0,1,11,15ZM11,2A9.754,9.754,0,0,0,2.18,7.5a9.822,9.822,0,0,0,17.64,0A9.755,9.755,0,0,0,11,2Zm0,10a4.5,4.5,0,1,1,4.5-4.5A4.505,4.505,0,0,1,11,12Zm0-7a2.5,2.5,0,1,0,2.5,2.5A2.5,2.5,0,0,0,11,5Z" transform="translate(1 4.5)" fill="#288ac1"/>
</svg>
