<svg xmlns="http://www.w3.org/2000/svg" xmlns:xlink="http://www.w3.org/1999/xlink" width="348" height="159.423" viewBox="0 0 348 159.423">
  <defs>
    <linearGradient id="linear-gradient" x1="0.5" y1="1" x2="0.5" gradientUnits="objectBoundingBox">
      <stop offset="0" stop-color="gray" stop-opacity="0.251"/>
      <stop offset="0.54" stop-color="gray" stop-opacity="0.122"/>
      <stop offset="1" stop-color="gray" stop-opacity="0.102"/>
    </linearGradient>
    <filter id="Trazado_26710" x="8.576" y="28.685" width="40.607" height="51.013" filterUnits="userSpaceOnUse">
      <feOffset dx="2" dy="2" input="SourceAlpha"/>
      <feGaussianBlur stdDeviation="0.5" result="blur"/>
      <feFlood flood-color="#4f4f4f" flood-opacity="0.4"/>
      <feComposite operator="in" in2="blur"/>
      <feComposite in="SourceGraphic"/>
    </filter>
  </defs>
  <g id="Grupo_11824" data-name="Grupo 11824" transform="translate(-16 -341)">
    <path id="Trazado_27216" data-name="Trazado 27216" d="M1.8-3.475V0H1.078V-8.531H3.984a3.064,3.064,0,0,1,2.1.68,2.364,2.364,0,0,1,.771,1.869,2.341,2.341,0,0,1-.741,1.854,3.151,3.151,0,0,1-2.147.653Zm0-.609H3.984a2.306,2.306,0,0,0,1.6-.5,1.781,1.781,0,0,0,.551-1.391,1.864,1.864,0,0,0-.548-1.411,2.2,2.2,0,0,0-1.556-.537H1.8Zm9.434-1.658a2.619,2.619,0,0,0-.475-.041,1.712,1.712,0,0,0-1.11.366A2.006,2.006,0,0,0,9-4.354V0H8.3V-6.34h.686L9-5.332a1.865,1.865,0,0,1,1.787-1.125,1.153,1.153,0,0,1,.463.076Zm.6,2.479A3.731,3.731,0,0,1,12.19-4.91a2.7,2.7,0,0,1,1-1.14,2.7,2.7,0,0,1,1.468-.407,2.608,2.608,0,0,1,2.051.888A3.421,3.421,0,0,1,17.5-3.217v.146a3.763,3.763,0,0,1-.354,1.655,2.647,2.647,0,0,1-1,1.134,2.739,2.739,0,0,1-1.471.4,2.61,2.61,0,0,1-2.048-.888,3.413,3.413,0,0,1-.788-2.353Zm.7.193A2.877,2.877,0,0,0,13.128-1.2a1.889,1.889,0,0,0,1.544.729A1.883,1.883,0,0,0,16.21-1.2,2.971,2.971,0,0,0,16.8-3.129v-.135a3.225,3.225,0,0,0-.27-1.33,2.166,2.166,0,0,0-.756-.935,1.931,1.931,0,0,0-1.113-.331,1.873,1.873,0,0,0-1.529.735A2.976,2.976,0,0,0,12.539-3.2Zm7.043-3.27.023,1.031a2.347,2.347,0,0,1,.879-.861,2.41,2.41,0,0,1,1.172-.287,1.778,1.778,0,0,1,1.9,1.23,2.38,2.38,0,0,1,.908-.911,2.516,2.516,0,0,1,1.254-.319q2.039,0,2.08,2.227V0h-.7V-4.178a1.89,1.89,0,0,0-.366-1.26,1.491,1.491,0,0,0-1.175-.41,1.867,1.867,0,0,0-1.277.489A1.729,1.729,0,0,0,23.7-4.2V0H23V-4.23a1.737,1.737,0,0,0-.384-1.216,1.527,1.527,0,0,0-1.163-.4,1.769,1.769,0,0,0-1.137.378,2.216,2.216,0,0,0-.7,1.122V0h-.7V-6.34Zm9.609,3.076a3.731,3.731,0,0,1,.354-1.646,2.7,2.7,0,0,1,1-1.14,2.7,2.7,0,0,1,1.468-.407,2.608,2.608,0,0,1,2.051.888,3.421,3.421,0,0,1,.785,2.353v.146A3.763,3.763,0,0,1,34.5-1.415a2.647,2.647,0,0,1-1,1.134,2.739,2.739,0,0,1-1.471.4,2.61,2.61,0,0,1-2.048-.888,3.413,3.413,0,0,1-.788-2.353Zm.7.193A2.877,2.877,0,0,0,30.483-1.2a1.889,1.889,0,0,0,1.544.729A1.883,1.883,0,0,0,33.565-1.2a2.971,2.971,0,0,0,.589-1.925v-.135a3.225,3.225,0,0,0-.27-1.33,2.166,2.166,0,0,0-.756-.935,1.931,1.931,0,0,0-1.113-.331,1.873,1.873,0,0,0-1.529.735A2.976,2.976,0,0,0,29.895-3.2Zm8.748,2.6A1.851,1.851,0,0,0,39.87-.888a1.454,1.454,0,0,0,.536-1.069h.674A1.985,1.985,0,0,1,40.717-.9a2.276,2.276,0,0,1-.888.747,2.675,2.675,0,0,1-1.187.27A2.449,2.449,0,0,1,36.665-.75a3.506,3.506,0,0,1-.729-2.332v-.211a3.963,3.963,0,0,1,.328-1.658,2.529,2.529,0,0,1,.94-1.113,2.6,2.6,0,0,1,1.433-.393,2.445,2.445,0,0,1,1.72.621A2.265,2.265,0,0,1,41.08-4.2h-.674a1.724,1.724,0,0,0-.536-1.2,1.736,1.736,0,0,0-1.233-.457,1.748,1.748,0,0,0-1.474.686,3.1,3.1,0,0,0-.524,1.922v.205a3.033,3.033,0,0,0,.524,1.893A1.76,1.76,0,0,0,38.643-.475ZM43.266,0h-.7V-6.34h.7Zm-.826-8.171a.47.47,0,0,1,.129-.335.46.46,0,0,1,.352-.137.469.469,0,0,1,.354.137.464.464,0,0,1,.132.335.455.455,0,0,1-.132.332.475.475,0,0,1-.354.134.465.465,0,0,1-.352-.134A.46.46,0,0,1,42.439-8.171Zm2.344,4.907a3.731,3.731,0,0,1,.354-1.646,2.7,2.7,0,0,1,1-1.14,2.7,2.7,0,0,1,1.468-.407,2.608,2.608,0,0,1,2.051.888,3.421,3.421,0,0,1,.785,2.353v.146a3.763,3.763,0,0,1-.354,1.655,2.647,2.647,0,0,1-1,1.134,2.739,2.739,0,0,1-1.471.4,2.61,2.61,0,0,1-2.048-.888,3.413,3.413,0,0,1-.788-2.353Zm.7.193A2.877,2.877,0,0,0,46.075-1.2a1.889,1.889,0,0,0,1.544.729A1.883,1.883,0,0,0,49.157-1.2a2.971,2.971,0,0,0,.589-1.925v-.135a3.225,3.225,0,0,0-.27-1.33,2.166,2.166,0,0,0-.756-.935,1.931,1.931,0,0,0-1.113-.331,1.873,1.873,0,0,0-1.529.735A2.976,2.976,0,0,0,45.486-3.2ZM48.3-9h.85L47.8-7.359l-.615,0Zm4.254,2.66.023,1.084a2.517,2.517,0,0,1,.891-.894,2.315,2.315,0,0,1,1.178-.308,1.9,1.9,0,0,1,1.518.574,2.59,2.59,0,0,1,.5,1.723V0h-.7V-4.166a1.937,1.937,0,0,0-.36-1.266,1.412,1.412,0,0,0-1.134-.416,1.774,1.774,0,0,0-1.151.407,2.386,2.386,0,0,0-.741,1.1V0h-.7V-6.34Z" transform="translate(16 350)" fill="#fff"/>
    <g id="Grupo_11819" data-name="Grupo 11819">
      <rect id="Rectángulo_7552" data-name="Rectángulo 7552" width="348" height="101" transform="translate(16 358)" fill="#2ab4bc"/>
      <path id="Trazado_27060" data-name="Trazado 27060" d="M29.5,0H22.7V-12.262H10.225V0H3.443V-30.108h6.782V-18.1H22.7v-12.01h6.8ZM49.11.525a14.015,14.015,0,0,1-10.54-4.21A15.113,15.113,0,0,1,34.5-14.655q0-7.139,4.136-11.548a14.32,14.32,0,0,1,10.96-4.409,13.666,13.666,0,0,1,10.425,4.22Q64-22.172,64-15.264q0,7.1-4.126,11.443A14.16,14.16,0,0,1,49.11.525Zm.294-25.3A6.827,6.827,0,0,0,43.735-22.1a11.162,11.162,0,0,0-2.1,7.086,10.956,10.956,0,0,0,2.1,7.076,6.727,6.727,0,0,0,5.5,2.6A6.8,6.8,0,0,0,54.8-7.863a10.836,10.836,0,0,0,2.058-7.023q0-4.682-1.995-7.286A6.5,6.5,0,0,0,49.4-24.775Zm41.425-5.333-9.805,19.4V0H74.242V-10.582L64.689-30.108h7.748l4.85,11.233q.126.315.693,2.457h.084a10.939,10.939,0,0,1,.651-2.373l4.934-11.317Z" transform="translate(218 415)" fill="#fff"/>
      <path id="Trazado_27059" data-name="Trazado 27059" d="M6.338,0H5.43L4.688-1.963H1.719L1.021,0H.107L2.793-7h.85ZM4.419-2.7,3.32-5.684a2.857,2.857,0,0,1-.107-.469h-.02a2.615,2.615,0,0,1-.112.469L1.992-2.7Zm6.25,2.471A2.6,2.6,0,0,1,9.3.117a2.264,2.264,0,0,1-1.726-.7,2.522,2.522,0,0,1-.657-1.8,2.772,2.772,0,0,1,.708-1.985,2.477,2.477,0,0,1,1.89-.75,2.63,2.63,0,0,1,1.162.244v.82a2.036,2.036,0,0,0-1.191-.391,1.61,1.61,0,0,0-1.257.549,2.084,2.084,0,0,0-.491,1.443A1.985,1.985,0,0,0,8.2-1.064a1.59,1.59,0,0,0,1.238.508,2.007,2.007,0,0,0,1.23-.435Zm3.53.181a1.544,1.544,0,0,1-.747.156q-1.313,0-1.313-1.465V-4.316h-.859V-5h.859V-6.221l.8-.259V-5H14.2v.684h-1.26V-1.5a1.168,1.168,0,0,0,.171.718.682.682,0,0,0,.566.215A.842.842,0,0,0,14.2-.732ZM15.679-6.27a.507.507,0,0,1-.366-.146.494.494,0,0,1-.151-.371.5.5,0,0,1,.151-.374.5.5,0,0,1,.366-.149.517.517,0,0,1,.374.149.5.5,0,0,1,.154.374.5.5,0,0,1-.154.366A.513.513,0,0,1,15.679-6.27ZM16.069,0h-.8V-5h.8Zm5.552-5L19.629,0h-.786L16.948-5h.879L19.1-1.367a3.261,3.261,0,0,1,.176.7h.02a3.3,3.3,0,0,1,.156-.679L20.776-5ZM26.06,0h-.8V-.781h-.02a1.676,1.676,0,0,1-1.538.9,1.644,1.644,0,0,1-1.169-.4,1.37,1.37,0,0,1-.422-1.05q0-1.4,1.65-1.631l1.5-.21q0-1.274-1.03-1.274a2.461,2.461,0,0,0-1.631.615v-.82a3.1,3.1,0,0,1,1.7-.469q1.763,0,1.763,1.865Zm-.8-2.529-1.206.166a1.958,1.958,0,0,0-.84.276.8.8,0,0,0-.283.7.763.763,0,0,0,.261.6,1.009,1.009,0,0,0,.7.232,1.285,1.285,0,0,0,.984-.417,1.492,1.492,0,0,0,.388-1.057Z" transform="translate(221 378)" fill="#fff"/>
      <g id="Grupo_11686" data-name="Grupo 11686" transform="translate(97.611 369.42)">
        <path id="Trazado_26711" data-name="Trazado 26711" d="M261.449,100.35c-4.72-.164-9.216-1.687-13.507-3.352s-8.548-3.513-13.155-4.4c-2.964-.568-6.352-.649-8.74.94-2.3,1.529-3.04,4.168-3.439,6.617a9.235,9.235,0,0,0,.346,5.506,40.422,40.422,0,0,0,2.286,3.352c2.441,3.991.716,8.912-1.929,12.81a48.139,48.139,0,0,0-3.637,5.521,7.457,7.457,0,0,0-.563,6.161c.83,1.972,2.809,3.445,4.952,4.485,4.354,2.111,9.483,2.715,14.486,3.056,11.073.757,22.2.43,33.308.1a97.952,97.952,0,0,0,12.277-.88A12.789,12.789,0,0,0,290.327,138a5.184,5.184,0,0,0,1.195-6.774c-2.326-3.609-8.754-4.506-10.379-8.38-.894-2.132.025-4.507,1.324-6.484,2.789-4.239,7.463-7.964,7.71-12.816.17-3.329-2.078-6.665-5.552-8.241-3.642-1.651-8.693-1.443-11.379,1.291C270.478,99.412,265.616,100.495,261.449,100.35Z" transform="translate(-218.669 -88.301)" fill="#1a6aa3" opacity="0.1"/>
        <ellipse id="Elipse_1066" data-name="Elipse 1066" cx="29.968" cy="4.054" rx="29.968" ry="4.054" transform="translate(3.436 70.595)" fill="#1a6aa3" opacity="0.1"/>
        <path id="Trazado_26712" data-name="Trazado 26712" d="M374.832,69.964a7.067,7.067,0,0,1-.8-2.375c.125-.544-.653-1.707-.653-1.707l.05-1.928s-.107.2-.667.37c-.047-.062-.1-.123-.152-.181a3.975,3.975,0,0,0-.672-.561l-.986-2.128L370,59.994s-1.5-3.056-3.056-3.731l-.244-.478a.037.037,0,0,0,.015-.048l-.248-.486a.038.038,0,0,0-.048-.018l-.238-.465a3.738,3.738,0,0,0-.69-1.665c-.025-.035-.051-.066-.077-.1l.386-.014a1.293,1.293,0,0,0,.945-.3.865.865,0,0,0,.176-.325,1.38,1.38,0,0,0,.057-.289V51.8a.793.793,0,0,0-.017-.1.068.068,0,0,0-.008-.038,1.148,1.148,0,0,0-.031-.114.154.154,0,0,1-.007-.023c-.014-.039-.029-.079-.045-.117a.107.107,0,0,1-.007-.016c-.018-.038-.037-.076-.058-.112l-.006-.012h0a.4.4,0,0,0-.025-.044,2.788,2.788,0,0,0-1.183-.887,13.677,13.677,0,0,0-1.282-.592,6.9,6.9,0,0,0-5.028.071,1.99,1.99,0,0,0-.448.239,2.313,2.313,0,0,0-.488.574l-.764,1.129a1.6,1.6,0,0,0-.247.455c-.143.536.306,1.074.255,1.627-.026.275-.174.527-.2.8a1.91,1.91,0,0,0,.289,1.017l1.093,2.169c-.058.285-.122.577-.192.859h0a2.91,2.91,0,0,0-.72.958l-.015.008h0a.887.887,0,0,0-.252.246l-1.039,1.01s-1.806.469-2.182,1.064c0,0-2.834-.124-2.81,3.834,0,0-.125,1.485-.2,1.683s0,2.2,0,2.2l-.034,4.058a25.2,25.2,0,0,0,0,2.919c.108.767.234,3.686.234,3.686a13.519,13.519,0,0,1,.427,3.86c-.241.971,0,3.095.394,3.1.075.155.161.231.254.187a1.084,1.084,0,0,1,.125-.045v2.424s-.488,3.4.059,4.042a13.227,13.227,0,0,0-.9,1.63l-3.835-.206-.488.137h0l-.448.125-.271,6.238.108.008-.008.19.256.019-.357,6.282,5.309.437a4.754,4.754,0,0,1-.61,1.139c-.2.1-.627-.2-.728-.075a.817.817,0,0,1-.752.2c-.351-.075-.577.321-.577.321s.051.045.128.129a3.376,3.376,0,0,0-1.682.434c-.176.089-.285.155-.285.155H346.65l.569,3.629.4.274.1,2.859s1.605,4.948,2.34,4.916a.332.332,0,0,0,.247-.124c.394-.455.121-2.02.121-2.02v-2.6s.6-.264.534-.462a17.376,17.376,0,0,1,1.063-2.563.017.017,0,0,0,.008-.016c0-.223.452-.47.426-.569s1.1-.718,1.183-1.262.827-.247.827-.247l.952-1.094a13.254,13.254,0,0,0,.176,2.5,13.382,13.382,0,0,1,.627,2.92s-.276,1.361,0,1.806a4.778,4.778,0,0,0,.838.805,11.225,11.225,0,0,0-.244,2.7v1.055l2.107.592s.066-.527.167-.527,1.438,1.022,1.438,1.022,5.15.066,6.454,0c.493-.025.627-.237.551-.493a1.851,1.851,0,0,0-1.453-1.022,5.237,5.237,0,0,1-2.274-1.121s.1-.232-.435-.561c-.369-.227-1.389-1.145-2.02-1.682.03-.04.06-.081.089-.124,0,0-.853-1.183-.676-1.708a2.46,2.46,0,0,0-.076-1.282,10.192,10.192,0,0,1-.476-2.2c0-.47-.071-3.145-.122-5.042l.44.036.009-.189.2.018,1.864.172-.057-1.992a12.467,12.467,0,0,0,1.955-.994,3.989,3.989,0,0,1,1.956-.841,13.179,13.179,0,0,0,2.458-1.608c.326-.47.3-3.884.3-3.884l-.176-7.317v-.006a27.882,27.882,0,0,0-.452-4.3c-.11-.284-.384-1.23-.682-2.311a1.785,1.785,0,0,1,.515.022c.011.264.018.446.018.508,0,.42.6.777.6.777l-.426-9.464V71.619a25.362,25.362,0,0,0,4.489.548A1.7,1.7,0,0,0,374.832,69.964Zm-12.387-8.132h-.007a6.569,6.569,0,0,1,.182-.734ZM353.827,94.3a3.112,3.112,0,0,0,1.744-.06c.007-.015.016-.041.028-.076.025.043.048.088.073.133L355.6,95.72v.033l-2.563-.138A2.045,2.045,0,0,1,353.827,94.3Zm8.545,7.2-.066-2.312c.114-.426.217-.812.3-1.144.039.275.073.528.1.762C362.951,101,362.594,101.426,362.372,101.5Zm7.3-34.662c-.147.056-.706-.3-1.236-.661,0-.067,0-.133.008-.2.075-1.509-2.383-2.449-3.135-2.622a2.7,2.7,0,0,1-.528-.2,12.325,12.325,0,0,1-1.167-.66l.01-.029s-.97-.614-.991-1.38a13.109,13.109,0,0,1,.834-2.024c.019-.038.039-.079.059-.117a3.869,3.869,0,0,0,1.262-.668c.151,1.972,3,3.668,3,3.668l.3.493.072.116c-.154.091-.228.164-.175.206a8.931,8.931,0,0,1,.958,1.571c.059.112.1.182.1.182s.466,1.269.734,2.331a.2.2,0,0,0-.112-.012Z" transform="translate(-327.281 -49.303)" fill="url(#linear-gradient)"/>
        <path id="Trazado_26713" data-name="Trazado 26713" d="M535.851,126.775l-.034.044-.114.153-2.194,1.55-.465-.765-.3-.493s-4.372-2.622-2.492-5.15,4.658,3.2,4.658,3.2Z" transform="translate(-492.362 -114.355)" fill="#ffc5d3"/>
        <rect id="Rectángulo_7310" data-name="Rectángulo 7310" width="0.075" height="0.617" rx="0.037" transform="matrix(0.893, -0.45, 0.45, 0.893, 38.994, 6.245)" fill="#3a3768"/>
        <rect id="Rectángulo_7311" data-name="Rectángulo 7311" width="0.042" height="0.203" rx="0.021" transform="matrix(0.893, -0.45, 0.45, 0.893, 36.555, 6.931)" fill="#3a3768"/>
        <rect id="Rectángulo_7312" data-name="Rectángulo 7312" width="0.047" height="0.354" rx="0.024" transform="matrix(0.893, -0.45, 0.45, 0.893, 36.72, 7.264)" fill="#3a3768"/>
        <rect id="Rectángulo_7313" data-name="Rectángulo 7313" width="0.045" height="0.357" rx="0.023" transform="matrix(0.893, -0.45, 0.45, 0.893, 36.935, 7.69)" fill="#3a3768"/>
        <path id="Trazado_26714" data-name="Trazado 26714" d="M522.247,104.554a.089.089,0,0,0-.039.12l.008.017a.09.09,0,0,1-.039.121l-.948.477a.089.089,0,0,1-.12-.039l-.009-.017a.09.09,0,0,0-.12-.04l-.184.094a.169.169,0,0,0-.076.23l2.015,4a.173.173,0,0,0,.231.076l1.654-.833a.173.173,0,0,0,.076-.231l-2.016-4a.172.172,0,0,0-.231-.076Z" transform="translate(-484.171 -98.997)" fill="#1a6aa3"/>
        <rect id="Rectángulo_7315" data-name="Rectángulo 7315" width="0.35" height="0.071" rx="0.035" transform="matrix(0.893, -0.45, 0.45, 0.893, 37.245, 6.001)" fill="#e6e8ec"/>
        <circle id="Elipse_1067" data-name="Elipse 1067" cx="0.04" cy="0.04" r="0.04" transform="translate(37.614 5.791)" fill="#e6e8ec"/>
        <path id="Trazado_26715" data-name="Trazado 26715" d="M545.166,261.28l-.616,16.535s2.07-.69,2.391-.173-.345-8.281-.345-8.281Z" transform="translate(-505.67 -240.382)" fill="#5f5570"/>
        <path id="Trazado_26716" data-name="Trazado 26716" d="M545.166,261.28l-.616,16.535s2.07-.69,2.391-.173-.345-8.281-.345-8.281Z" transform="translate(-505.67 -240.382)" opacity="0.15"/>
        <path id="Trazado_26717" data-name="Trazado 26717" d="M460.441,765.509c-1.282.066-6.342,0-6.342,0s-1.315-1.018-1.414-1.018-.164.526-.164.526l-2.07-.592v-1.051s-.066-2.992.558-3.122a28.838,28.838,0,0,1,3.385,0c.1-.032,1.972,1.742,2.5,2.07s.427.559.427.559A5.128,5.128,0,0,0,459.554,764a1.817,1.817,0,0,1,1.429,1.018C461.058,765.273,460.924,765.484,460.441,765.509Z" transform="translate(-420.847 -690.108)" fill="#bc8487"/>
        <path id="Trazado_26718" data-name="Trazado 26718" d="M460.46,794.775c-1.282.066-6.342,0-6.342,0s-1.315-1.018-1.414-1.018-.164.526-.164.526l-2.07-.592v-1.03l1.938.7,1.545.92H461C461.076,794.539,460.943,794.75,460.46,794.775Z" transform="translate(-420.865 -719.374)" opacity="0.1"/>
        <path id="Trazado_26719" data-name="Trazado 26719" d="M493.43,787.84s1.577-1.511,2.632-1.084" transform="translate(-459.59 -713.983)" stroke="#000" stroke-miterlimit="10" stroke-width="1" opacity="0.1"/>
        <path id="Trazado_26720" data-name="Trazado 26720" d="M353.369,677.735c.066.2-.525.46-.525.46v2.6s.268,1.559-.119,2.013a.324.324,0,0,1-.243.123c-.723.033-2.3-4.9-2.3-4.9l-.1-2.848-.394-.273-.559-3.615h1.019s.107-.066.28-.155c.493-.251,1.525-.69,2.086-.272l1.906,4.294A19.112,19.112,0,0,0,353.369,677.735Z" transform="translate(-329.516 -609.432)" fill="#bc8487"/>
        <path id="Trazado_26721" data-name="Trazado 26721" d="M352.725,686.875a.325.325,0,0,1-.243.123c-.723.033-2.3-4.9-2.3-4.9l-.1-2.848-.394-.273-.559-3.615h1.019s.107-.066.28-.155l.246,3.7.131,3.187S352.044,685.572,352.725,686.875Z" transform="translate(-329.516 -613.503)" opacity="0.1"/>
        <path id="Trazado_26722" data-name="Trazado 26722" d="M396.852,482.911a12.933,12.933,0,0,1-2.415,1.6,3.857,3.857,0,0,0-1.923.838,28.318,28.318,0,0,1-4.067,1.9c-1.561.642-2.958,1.176-2.958,1.176l-1.609,1.873-1.225,1.427s-.739-.3-.813.246-1.183,1.158-1.158,1.257-.419.345-.419.567a4.534,4.534,0,0,1-1.627-2.711,2.672,2.672,0,0,0-.838-1.873s.222-.394.567-.32a.793.793,0,0,0,.739-.2c.1-.123.518.173.715.074a12.735,12.735,0,0,0,.986-2.046l3.073-2.061,6.112-4.1.282-.189s.813.373.483-2.681c-.064-.592-.172-1.31-.335-2.186-1.011-5.4,2.613-6.014,2.613-6.014l3.179,1.06.764,1.183v.006l.173,7.29S397.173,482.443,396.852,482.911Z" transform="translate(-355.36 -428.074)" fill="#433a59"/>
        <path id="Trazado_26723" data-name="Trazado 26723" d="M443.859,587.581s.01.35.025.894c-1.561.642-2.958,1.176-2.958,1.176l-1.609,1.873c-.027-1.553-.021-3.57,0-5.637l6.112-4.1C444.673,584.593,443.859,587.581,443.859,587.581Z" transform="translate(-410.796 -529.293)" opacity="0.1"/>
        <path id="Trazado_26724" data-name="Trazado 26724" d="M510.729,471.773v.006l-4.782.093s-.838,3.278-.961,3.968c-.031.17-.216.894-.478,1.89-.064-.592-.172-1.31-.335-2.186-1.01-5.4,2.613-6.014,2.613-6.014l3.179,1.06Z" transform="translate(-469.113 -428.101)" opacity="0.1"/>
        <path id="Trazado_26725" data-name="Trazado 26725" d="M437.113,385.954l-.616,11.831s-.444,17.376,0,18.51a13.486,13.486,0,0,1,.616,2.908s-.271,1.356,0,1.8,1.134.937,1.109,1.183a2.766,2.766,0,0,0,4.017-.542s-.838-1.183-.665-1.7a2.525,2.525,0,0,0-.074-1.282,10.257,10.257,0,0,1-.468-2.2c0-.742-.173-6.951-.173-6.951s2.687-9.859,2.81-10.549.961-3.968.961-3.968l5.077-.1a28.239,28.239,0,0,0-.444-4.289c-.3-.764-1.75-6.359-1.75-6.359Z" transform="translate(-408.092 -351.228)" fill="#433a59"/>
        <path id="Trazado_26726" data-name="Trazado 26726" d="M191.168,469.89l-.441.126-.018.436,13.213.171v-.172Z" transform="translate(-170.621 -423.567)" fill="#7b728f"/>
        <path id="Trazado_26727" data-name="Trazado 26727" d="M465.436,120.772c-1.922,3.9-.729,4.714-.538,4.815-.407-.189-5.7-2.676-5-3.307.452-.411.84-2.2,1.068-3.481.135-.765.214-1.35.214-1.35l5.553,1.018A26.173,26.173,0,0,0,465.436,120.772Z" transform="translate(-429.303 -110.731)" fill="#ffc5d3"/>
        <path id="Trazado_26728" data-name="Trazado 26728" d="M565.607,174.387l-.114.153-2.2,1.55-.465-.765a23.853,23.853,0,0,1,2.708-1.084Z" transform="translate(-522.148 -161.923)" opacity="0.1"/>
        <path id="Trazado_26729" data-name="Trazado 26729" d="M566.564,178.915c-.2.69-3.525,0-3.525,0l-.345-.542s-.035-.069-.093-.181a8.957,8.957,0,0,0-.942-1.565c-.271-.222,2.908-1.306,2.908-1.306l.974,2.12a3.925,3.925,0,0,1,.661.559A1.037,1.037,0,0,1,566.564,178.915Z" transform="translate(-521.078 -162.896)" fill="#e5e8ef"/>
        <path id="Trazado_26730" data-name="Trazado 26730" d="M555.55,215s1.972,1.556,2.268,1.443,5.077,3.116,5.077,3.116a1.685,1.685,0,0,1-1.7,2.194s-4.757-.2-4.954-.887S555.55,215,555.55,215Z" transform="translate(-515.585 -198.664)" fill="#5f5570"/>
        <path id="Trazado_26731" data-name="Trazado 26731" d="M481.444,183.253l-2.144,2.218,3.007,19.126,1.183-.69s3.056,1.356,3.3.1a59.833,59.833,0,0,0,.178-6.211l-.4-8.95s-1.4-3.13-1.4-3.229-2.026-1.627-2.026-1.627l-.956-.739Z" transform="translate(-446.853 -170.044)" opacity="0.1"/>
        <path id="Trazado_26732" data-name="Trazado 26732" d="M481.444,180.253l-2.144,2.218,3.007,19.126,1.183-.69s3.056,1.356,3.3.1a59.832,59.832,0,0,0,.178-6.211l-.4-8.95s-1.4-3.13-1.4-3.229-2.026-1.627-2.026-1.627l-.956-.739Z" transform="translate(-446.853 -167.34)" fill="#e5e8ef"/>
        <path id="Trazado_26733" data-name="Trazado 26733" d="M496.891,179.672l-.591,1.208.591.624s2.12,4.281,1.7,6.819l.444,8.355,1.43,1.4,1.134-1.309-.542-7.591s-1.454-6.26-2.982-8.207l-.444-1.725Z" transform="translate(-462.177 -166.439)" opacity="0.1"/>
        <path id="Trazado_26734" data-name="Trazado 26734" d="M496.891,177.672l-.591,1.208.591.624s2.12,4.281,1.7,6.819l.444,8.355,1.43,1.4,1.134-1.309-.542-7.591s-1.454-6.26-2.982-8.207l-.444-1.725Z" transform="translate(-462.177 -164.636)" fill="#bc8487"/>
        <path id="Trazado_26735" data-name="Trazado 26735" d="M477.067,118.423c-.538.868-.962,1.632-1.294,2.3a3.79,3.79,0,0,1-1.075.155c-1.219,0-1.921-.843-2.611-1.738-.158-.2-.676-.156-.789-.394.135-.765.214-1.35.214-1.35Z" transform="translate(-439.642 -110.686)" opacity="0.1"/>
        <path id="Trazado_26736" data-name="Trazado 26736" d="M475,78.824a3.779,3.779,0,1,1-.719-2.217A3.779,3.779,0,0,1,475,78.824Z" transform="translate(-436.166 -72.507)" fill="#ffc5d3"/>
        <path id="Trazado_26737" data-name="Trazado 26737" d="M464.793,154.2l-3.105-3.746s-.287-.115.682-1.13a38.564,38.564,0,0,1,3.78,3.246C466.37,153.037,464.793,154.2,464.793,154.2Z" transform="translate(-430.941 -139.459)" opacity="0.1"/>
        <path id="Trazado_26738" data-name="Trazado 26738" d="M463.793,152.2l-3.106-3.746s-.287-.115.682-1.13a38.562,38.562,0,0,1,3.78,3.246C465.37,151.037,463.793,152.2,463.793,152.2Z" transform="translate(-430.039 -137.657)" fill="#e5e8ef"/>
        <path id="Trazado_26739" data-name="Trazado 26739" d="M515.953,205.786s-.592-.355-.592-.774-.3-6.334-.3-6.334-.434-3.53-.887-6.336h0a15.856,15.856,0,0,0-.732-3.334l-.008-.012c-.518-.665-.419-3.919-3.648-8.676a17.835,17.835,0,0,0,1.972,1.2,2.706,2.706,0,0,0,.52.2c.739.173,3.155,1.109,3.081,2.613s.172,4.954.172,4.954v7.072Z" transform="translate(-474.337 -167.403)" fill="#5f5570"/>
        <path id="Trazado_26740" data-name="Trazado 26740" d="M575.277,203.406c-.2.69-3.525,0-3.525,0l-.345-.542s-.035-.069-.093-.181a.07.07,0,0,1,0-.012,10.77,10.77,0,0,0,3.606-.18A1.037,1.037,0,0,1,575.277,203.406Z" transform="translate(-529.792 -187.388)" opacity="0.1"/>
        <path id="Trazado_26741" data-name="Trazado 26741" d="M572.3,201.115s1.035,2.859.887,3.574,2.391,3.525,2.391,3.525l2.415-1.676a7.1,7.1,0,0,1-.789-2.366c.123-.542-.641-1.7-.641-1.7l.049-1.921S576.17,201.383,572.3,201.115Z" transform="translate(-530.684 -185.639)" fill="#5f5570"/>
        <path id="Trazado_26742" data-name="Trazado 26742" d="M474.626,77.024l-1.873.071a2.087,2.087,0,0,0-.542.068,1.618,1.618,0,0,0-1,1.558,1.36,1.36,0,0,1-1.111,1.413.277.277,0,0,1-.2-.045.338.338,0,0,1-.087-.175,3.817,3.817,0,0,0-.471-1.053.826.826,0,0,0-.592.628,3.532,3.532,0,0,0-.055.908,5.875,5.875,0,0,1-.111,1.152,3.779,3.779,0,1,1,6.053-4.525Z" transform="translate(-436.508 -72.924)" opacity="0.1"/>
        <path id="Trazado_26743" data-name="Trazado 26743" d="M460.846,56.289a2.086,2.086,0,0,1,.542-.068l2.274-.085a1.277,1.277,0,0,0,.929-.29.869.869,0,0,0,.173-.324,1.4,1.4,0,0,0-.147-1.147,2.781,2.781,0,0,0-1.164-.887,13.522,13.522,0,0,0-1.259-.592,6.7,6.7,0,0,0-4.939.071,1.993,1.993,0,0,0-.44.236,2.272,2.272,0,0,0-.479.572l-.748,1.128a1.552,1.552,0,0,0-.236.455c-.141.535.3,1.071.25,1.622-.026.274-.171.525-.2.8a1.922,1.922,0,0,0,.285,1.013l1.315,2.653a5.878,5.878,0,0,0,.318-1.922,3.407,3.407,0,0,1,.055-.908.832.832,0,0,1,.592-.628,3.8,3.8,0,0,1,.472,1.053.333.333,0,0,0,.087.175.276.276,0,0,0,.2.045,1.353,1.353,0,0,0,1.111-1.413A1.613,1.613,0,0,1,460.846,56.289Z" transform="translate(-425.241 -52.149)" fill="#8f7080"/>
        <path id="Trazado_26744" data-name="Trazado 26744" d="M190.89,468.763l.921-.263,13.884.756-1.528.2Z" transform="translate(-170.783 -422.314)" fill="#7b728f"/>
        <path id="Trazado_26745" data-name="Trazado 26745" d="M190.89,468.763l.921-.263,13.884.756-1.528.2Z" transform="translate(-170.783 -422.314)" opacity="0.1"/>
        <path id="Trazado_26746" data-name="Trazado 26746" d="M322.265,489.479l-1.832-.171-.643-.059V479.062l.17-2.365.037-.526h1.89Z" transform="translate(-286.975 -429.227)" fill="#7b728f"/>
        <path id="Trazado_26747" data-name="Trazado 26747" d="M321.764,492.119l-1.461-.162-.513-.056v-9.66l.135-2.242.03-.5h1.507Z" transform="translate(-286.975 -432.229)" opacity="0.1"/>
        <path id="Trazado_26748" data-name="Trazado 26748" d="M401.42,501.34s.912-2,1.294-2.062a5.881,5.881,0,0,1,1.084,0l-.062.58s-.937.074-1.232,1.639Z" transform="translate(-376.651 -454.891)" fill="#7b728f"/>
        <path id="Trazado_26749" data-name="Trazado 26749" d="M401.42,501.34s.912-2,1.294-2.062a5.881,5.881,0,0,1,1.084,0l-.062.58s-.937.074-1.232,1.639Z" transform="translate(-376.651 -454.891)" opacity="0.1"/>
        <path id="Trazado_26750" data-name="Trazado 26750" d="M432.681,497.41s2.452,1.22,2.132,2.649l-1.331-.074s-.641-2.132-1.146-2.243S432.681,497.41,432.681,497.41Z" transform="translate(-404.374 -453.232)" fill="#7b728f"/>
        <path id="Trazado_26751" data-name="Trazado 26751" d="M411.037,170.953v.072l-.049,8.209s-1.257,6.9-1.6,7.172-7.912-.468-7.912-.468l-3.426-23.094c-.025-3.944,2.76-3.82,2.76-3.82.37-.592,2.144-1.06,2.144-1.06l.986-.961.032-.044a.877.877,0,0,1,.249-.245h0c.2-.117.332.037.406.19a1.152,1.152,0,0,1,.077.224C408.7,160.056,411.037,170.953,411.037,170.953Z" transform="translate(-373.612 -146.086)" fill="#5f5570"/>
        <path id="Trazado_26752" data-name="Trazado 26752" d="M454.884,172.33v.072c-1.239-2.268-6.014-10.858-7.32-11.286l.5-.345s.335-.2-.281-.394c0,0-.961.123-.986-1.035l1.017-1.006.248-.245h0l.406.19a1.15,1.15,0,0,1,.077.224C452.543,161.433,454.884,172.33,454.884,172.33Z" transform="translate(-417.557 -147.365)" opacity="0.1"/>
        <path id="Trazado_26753" data-name="Trazado 26753" d="M455.884,171.33v.072c-1.239-2.268-6.014-10.858-7.32-11.286l.5-.345s.335-.2-.281-.394c0,0-.961.123-.986-1.035l1.017-1.006.248-.245h0l.406.19a1.148,1.148,0,0,1,.077.224C453.543,160.433,455.884,171.33,455.884,171.33Z" transform="translate(-418.458 -146.463)" fill="#433a59"/>
        <path id="Trazado_26754" data-name="Trazado 26754" d="M514.456,189.968l-.008-.012c-.518-.665-.419-3.919-3.648-8.676a17.833,17.833,0,0,0,1.972,1.2l-.228.751.493.263Z" transform="translate(-475.247 -168.269)" opacity="0.1"/>
        <path id="Trazado_26755" data-name="Trazado 26755" d="M513.456,188.968l-.008-.012c-.518-.665-.419-3.919-3.648-8.676a17.829,17.829,0,0,0,1.972,1.2l-.228.751.493.263Z" transform="translate(-474.346 -167.367)" fill="#433a59"/>
        <path id="Trazado_26756" data-name="Trazado 26756" d="M506.512,172.58l-.2.854a1.155,1.155,0,0,0,1.034.929l.143-.407S506.531,173.342,506.512,172.58Z" transform="translate(-471.2 -160.426)" opacity="0.1"/>
        <path id="Trazado_26757" data-name="Trazado 26757" d="M506.512,171.58l-.2.854a1.155,1.155,0,0,0,1.034.929l.143-.407S506.531,172.342,506.512,171.58Z" transform="translate(-471.2 -159.525)" fill="#e5e8ef"/>
        <path id="Trazado_26758" data-name="Trazado 26758" d="M321.012,477.57l-.58,13-.643-.059V480.324l.17-2.365Z" transform="translate(-286.975 -430.489)" opacity="0.1"/>
        <path id="Trazado_26759" data-name="Trazado 26759" d="M188.624,482.591l-.394,7.032,13.408,1.118.588-13.171Z" transform="translate(-168.385 -430.489)" fill="#7b728f"/>
        <path id="Trazado_26760" data-name="Trazado 26760" d="M189.23,479.381l.262-6.211,13.733.631-.654,6.566Z" transform="translate(-169.287 -426.523)" opacity="0.1"/>
        <path id="Trazado_26761" data-name="Trazado 26761" d="M188.23,477.381l.262-6.211,13.733.631-.654,6.566Z" transform="translate(-168.385 -424.72)" fill="#7b728f"/>
        <rect id="Rectángulo_7316" data-name="Rectángulo 7316" width="1.651" height="1.922" transform="translate(25.62 52.668)" fill="#c3bbc8"/>
        <path id="Trazado_26762" data-name="Trazado 26762" d="M408.491,455.78l-.246.665s-.518,3.648.123,4.091a3.831,3.831,0,0,0,2.637.246c.1-.222.789-2.736.789-2.736s.616,1.849.937,1.7-.739-3.662-.739-3.662Z" transform="translate(-382.625 -415.706)" fill="#ffc5d3"/>
        <path id="Trazado_26763" data-name="Trazado 26763" d="M410.05,415.643v3.525s2.613.493,3.746-.359c0,0-1.06-3.412-.665-4.275S410.05,415.643,410.05,415.643Z" transform="translate(-384.43 -378.329)" opacity="0.1"/>
        <path id="Trazado_26764" data-name="Trazado 26764" d="M410.05,414.643v3.525s2.613.493,3.746-.359c0,0-1.06-3.412-.665-4.275S410.05,414.643,410.05,414.643Z" transform="translate(-384.43 -377.428)" fill="#e5e8ef"/>
        <path id="Trazado_26765" data-name="Trazado 26765" d="M398.2,204.024l-.69.37s-.123,1.479-.2,1.676a21.615,21.615,0,0,0,0,2.194l-.034,4.042a25.481,25.481,0,0,0,0,2.908c.107.764.226,3.672.226,3.672a13.623,13.623,0,0,1,.42,3.845c-.246,1.011.025,3.278.444,3.081s4.289-.961,4.486-1.109.1-1.528,0-1.7a14.681,14.681,0,0,1-.641-3.056c.049-.542-.173-5.3-.173-5.3s.37-5.077.518-6.26-.3-4.658-.69-4.708S400.318,200.943,398.2,204.024Z" transform="translate(-372.874 -187.438)" opacity="0.1"/>
        <path id="Trazado_26766" data-name="Trazado 26766" d="M396.2,202.024l-.69.37s-.123,1.479-.2,1.676a21.606,21.606,0,0,0,0,2.194l-.034,4.042a25.474,25.474,0,0,0,0,2.908c.106.764.226,3.672.226,3.672a13.622,13.622,0,0,1,.42,3.845c-.246,1.011.025,3.278.444,3.081s4.289-.961,4.486-1.109.1-1.528,0-1.7a14.677,14.677,0,0,1-.641-3.056c.049-.542-.173-5.3-.173-5.3s.37-5.077.518-6.26-.3-4.658-.69-4.708S398.318,198.943,396.2,202.024Z" transform="translate(-371.071 -185.636)" fill="#5f5570"/>
        <g id="Grupo_11633" data-name="Grupo 11633" transform="translate(30.223 2.269)" opacity="0.1">
          <path id="Trazado_26767" data-name="Trazado 26767" d="M459.1,104.77a.826.826,0,0,0-.592.628,3.533,3.533,0,0,0-.055.908,5.876,5.876,0,0,1-.317,1.922l-1.316-2.653c-.026-.052-.052-.106-.078-.161a3.589,3.589,0,0,0,.226.53l1.316,2.653a5.877,5.877,0,0,0,.317-1.922,3.448,3.448,0,0,1,.055-.908.83.83,0,0,1,.592-.628,3.944,3.944,0,0,1,.255.466A3.845,3.845,0,0,0,459.1,104.77Z" transform="translate(-456.74 -101.571)"/>
          <path id="Trazado_26768" data-name="Trazado 26768" d="M492.581,72.32a1.4,1.4,0,0,1-.024.734.871.871,0,0,1-.174.324,1.271,1.271,0,0,1-.929.29l-2.273.085a2.093,2.093,0,0,0-.543.068,1.619,1.619,0,0,0-1,1.558,1.36,1.36,0,0,1-1.111,1.413.277.277,0,0,1-.2-.045h0c.023.064.044.129.063.2a.325.325,0,0,0,.086.174.277.277,0,0,0,.2.045,1.352,1.352,0,0,0,1.111-1.413,1.616,1.616,0,0,1,1-1.558,2.093,2.093,0,0,1,.543-.068l2.273-.085a1.277,1.277,0,0,0,.929-.29.87.87,0,0,0,.174-.324A1.4,1.4,0,0,0,492.581,72.32Z" transform="translate(-483.404 -72.32)"/>
        </g>
        <path id="Trazado_26769" data-name="Trazado 26769" d="M512.28,478.63a3.842,3.842,0,0,1,1.183-.419c.329.025,3.286,3.785,3.286,3.785Z" transform="translate(-476.581 -435.925)" opacity="0.1"/>
        <path id="Trazado_26770" data-name="Trazado 26770" d="M409.552,224.35s-1.561.666-1.519,1.127S409.552,224.35,409.552,224.35Z" transform="translate(-382.611 -207.092)" opacity="0.1"/>
        <path id="Trazado_26771" data-name="Trazado 26771" d="M403.6,246.45s-1.638,2.094-1.276,2.164S403.6,246.45,403.6,246.45Z" transform="translate(-377.418 -227.014)" opacity="0.1"/>
        <path id="Trazado_26772" data-name="Trazado 26772" d="M461.691,278.28s.15,4.683-1.051,5.274Z" transform="translate(-430.033 -255.706)" opacity="0.1"/>
        <path id="Trazado_26773" data-name="Trazado 26773" d="M408,400.147s1.155-.657,1.421-.525S408,400.147,408,400.147Z" transform="translate(-382.582 -365.069)" opacity="0.1"/>
        <path id="Trazado_26774" data-name="Trazado 26774" d="M410.05,412.975a3.1,3.1,0,0,0,1.076-.1C411.472,412.726,410.05,412.975,410.05,412.975Z" transform="translate(-384.43 -376.989)" opacity="0.1"/>
        <path id="Trazado_26775" data-name="Trazado 26775" d="M586.7,239.41s.905,2.6,1.427,2.6" transform="translate(-543.664 -220.668)" opacity="0.1"/>
        <path id="Trazado_26776" data-name="Trazado 26776" d="M456.16,742.579s1.7-.46,1.948,0S456.16,742.579,456.16,742.579Z" transform="translate(-425.994 -674.046)" opacity="0.1"/>
        <path id="Trazado_26777" data-name="Trazado 26777" d="M400.018,675.21s-.423.648.136.845S400.018,675.21,400.018,675.21Z" transform="translate(-375.249 -613.503)" opacity="0.1"/>
        <path id="Trazado_26778" data-name="Trazado 26778" d="M515.8,583.53s1.282,1.142,1.887,1.175S515.8,583.53,515.8,583.53Z" transform="translate(-479.754 -530.862)" opacity="0.1"/>
      </g>
      <g id="Grupo_11752" data-name="Grupo 11752" transform="translate(24.576 366.611)">
        <g id="Grupo_11684" data-name="Grupo 11684" transform="translate(0 3.074)">
          <g transform="matrix(1, 0, 0, 1, -8.58, -28.69)" filter="url(#Trazado_26710)">
            <path id="Trazado_26710-2" data-name="Trazado 26710" d="M365.891,326.27a.7.7,0,0,1,.7-.7v-1.429a.7.7,0,1,1,0-1.4v-1.43a.7.7,0,0,1,0-1.4v-1.429a.7.7,0,1,1,0-1.4v-1.356a.7.7,0,1,1,0-1.4v-1.355a.7.7,0,1,1,0-1.4V310.2a.7.7,0,1,1,0-1.4v-1.355a.7.7,0,1,1,0-1.4v-1.355a.7.7,0,1,1,0-1.4v-1.355a.7.7,0,1,1,0-1.4V299.17a.7.7,0,1,1,0-1.4v-1.355a.7.7,0,1,1,0-1.4v-1.355a.7.7,0,1,1,0-1.4V290.9a.7.7,0,1,1,0-1.4v-1.355a.7.7,0,1,1,0-1.4v-1.356a.7.7,0,1,1,0-1.4v-2.088h-1.516c0,.011,0,.021,0,.031a.7.7,0,1,1-1.4,0c0-.011,0-.02,0-.031h-1.362c0,.011,0,.021,0,.031a.7.7,0,1,1-1.4,0c0-.011,0-.02,0-.031h-1.362c0,.011,0,.021,0,.031a.7.7,0,1,1-1.4,0c0-.011,0-.02,0-.031H356.8c0,.011,0,.021,0,.031a.7.7,0,1,1-1.4,0c0-.011,0-.02,0-.031h-1.362c0,.011,0,.021,0,.031a.7.7,0,1,1-1.4,0c0-.011,0-.02,0-.031h-1.362c0,.011,0,.021,0,.031a.7.7,0,1,1-1.4,0c0-.011,0-.02,0-.031H348.53c0,.011,0,.021,0,.031a.7.7,0,1,1-1.4,0c0-.011,0-.02,0-.031h-1.362c0,.011,0,.021,0,.031a.7.7,0,1,1-1.4,0c0-.011,0-.02,0-.031h-1.362c0,.011,0,.021,0,.031a.7.7,0,1,1-1.4,0c0-.011,0-.02,0-.031h-1.362c0,.011,0,.021,0,.031a.7.7,0,1,1-1.4,0c0-.011,0-.02,0-.031H337.5c0,.011,0,.021,0,.031a.7.7,0,1,1-1.4,0c0-.011,0-.02,0-.031h-1.362c0,.011,0,.021,0,.031a.7.7,0,1,1-1.4,0c0-.011,0-.02,0-.031h-1.362c0,.011,0,.021,0,.031a.7.7,0,1,1-1.4,0c0-.011,0-.02,0-.031h-1.1v2.088a.7.7,0,1,1,0,1.4v1.356a.7.7,0,1,1,0,1.4v1.355a.7.7,0,1,1,0,1.4v1.355a.7.7,0,1,1,0,1.4v1.355a.7.7,0,1,1,0,1.4v1.355a.7.7,0,1,1,0,1.4v1.356a.7.7,0,1,1,0,1.4v1.355a.7.7,0,1,1,0,1.4v1.355a.7.7,0,1,1,0,1.4V308.8a.7.7,0,1,1,0,1.4v1.355a.7.7,0,1,1,0,1.4v1.355a.7.7,0,1,1,0,1.4v1.356a.7.7,0,0,1,0,1.4V319.9a.7.7,0,0,1,0,1.4v1.43a.7.7,0,1,1,0,1.4v1.429a.7.7,0,0,1,0,1.4V329.4h1.1a.7.7,0,0,1,1.4,0h1.356a.7.7,0,0,1,1.4,0H336.1a.7.7,0,0,1,1.4,0h1.355a.7.7,0,0,1,1.4,0h1.355a.7.7,0,0,1,1.4,0h1.355a.7.7,0,0,1,1.4,0h1.355a.7.7,0,0,1,1.4,0h1.355a.7.7,0,0,1,1.4,0h1.356a.7.7,0,0,1,1.4,0H355.4a.7.7,0,0,1,1.4,0h1.356a.7.7,0,0,1,1.4,0h1.356a.7.7,0,0,1,1.4,0h1.356a.7.7,0,0,1,1.4,0h1.513v-2.433A.7.7,0,0,1,365.891,326.27Z" transform="translate(-320.91 -253.21)" fill="#fff9ec"/>
          </g>
          <rect id="Rectángulo_7305" data-name="Rectángulo 7305" width="31.248" height="41.654" transform="translate(2.93 2.929)" fill="#ede8db"/>
        </g>
        <g id="Grupo_11685" data-name="Grupo 11685" transform="translate(3.867 0)">
          <path id="Trazado_27066" data-name="Trazado 27066" d="M3.929-.281A3.023,3.023,0,0,1,2.4.073,2.212,2.212,0,0,1,.8-.488,2.041,2.041,0,0,1,.217-2.033,2.157,2.157,0,0,1,.855-3.647a2.327,2.327,0,0,1,1.7-.624,3.451,3.451,0,0,1,1.178.185V-3.2A2.341,2.341,0,0,0,2.543-3.48a1.277,1.277,0,0,0-.959.382,1.4,1.4,0,0,0-.371,1.021,1.409,1.409,0,0,0,.333,1,1.172,1.172,0,0,0,.9.354,1.25,1.25,0,0,0,.539-.1v-.82H2.142v-.756H3.929ZM8.271,0H7.184L6.53-1.081Q6.457-1.2,6.39-1.3a1.221,1.221,0,0,0-.136-.166.542.542,0,0,0-.144-.105.364.364,0,0,0-.163-.037H5.692V0H4.746V-4.2h1.5q1.529,0,1.529,1.143a1.183,1.183,0,0,1-.067.406,1.127,1.127,0,0,1-.19.335,1.207,1.207,0,0,1-.3.258,1.534,1.534,0,0,1-.388.17v.012a.6.6,0,0,1,.182.1,1.3,1.3,0,0,1,.17.154,2.146,2.146,0,0,1,.157.189q.075.1.136.2ZM5.692-3.492v1.169H6.1A.68.68,0,0,0,6.592-2.5a.587.587,0,0,0,.188-.442q0-.551-.659-.551ZM12.357,0H11.326l-.3-.935H9.533L9.237,0H8.212L9.741-4.2h1.122ZM10.811-1.661l-.451-1.412a1.84,1.84,0,0,1-.07-.378h-.023a1.6,1.6,0,0,1-.073.366L9.735-1.661Zm4.6-1.77h-1.2V0h-.949V-3.431H12.073V-4.2h3.34ZM16.925,0h-.946V-4.2h.946Zm.762-.161V-1.1a1.8,1.8,0,0,0,.554.321,1.78,1.78,0,0,0,.6.107A1.338,1.338,0,0,0,19.156-.7a.731.731,0,0,0,.223-.089.39.39,0,0,0,.133-.135.336.336,0,0,0,.044-.168.364.364,0,0,0-.07-.22.757.757,0,0,0-.192-.179A2.005,2.005,0,0,0,19-1.652q-.167-.076-.36-.155a1.839,1.839,0,0,1-.734-.5,1.094,1.094,0,0,1-.242-.715,1.139,1.139,0,0,1,.132-.564,1.12,1.12,0,0,1,.359-.388,1.609,1.609,0,0,1,.526-.224,2.7,2.7,0,0,1,.633-.072,3.806,3.806,0,0,1,.582.04,2.287,2.287,0,0,1,.467.122v.876a1.413,1.413,0,0,0-.23-.129,1.822,1.822,0,0,0-.256-.092,1.955,1.955,0,0,0-.262-.054,1.856,1.856,0,0,0-.248-.018,1.291,1.291,0,0,0-.293.031.751.751,0,0,0-.223.086.43.43,0,0,0-.141.133.316.316,0,0,0-.05.174.333.333,0,0,0,.056.189.639.639,0,0,0,.158.158,1.679,1.679,0,0,0,.249.146q.146.072.331.148a3.689,3.689,0,0,1,.453.224,1.609,1.609,0,0,1,.344.268,1.044,1.044,0,0,1,.22.341,1.206,1.206,0,0,1,.076.447,1.2,1.2,0,0,1-.133.59,1.082,1.082,0,0,1-.362.387,1.569,1.569,0,0,1-.532.212,3.073,3.073,0,0,1-.64.064,3.559,3.559,0,0,1-.658-.059A1.985,1.985,0,0,1,17.687-.161Z" transform="translate(2.557 42.389)" fill="#f2680a"/>
          <path id="Trazado_27064" data-name="Trazado 27064" d="M12.428-4.973H8.48v3.948H6.409V-4.973H2.44V-7.055H6.409v-3.968H8.48v3.968h3.948Z" transform="translate(-0.443 23.389)" fill="#f2680a"/>
          <path id="Trazado_27063" data-name="Trazado 27063" d="M11.218-12.838q-.984,1.774-1.764,3.327T8.08-6.445A28.914,28.914,0,0,0,7.065-3.368,29.713,29.713,0,0,0,6.378,0H2.994a27.686,27.686,0,0,1,.759-3.3A30.965,30.965,0,0,1,4.845-6.383q.62-1.492,1.374-2.907t1.594-2.769H.984V-14.7H11.218Z" transform="translate(13.557 26.389)" fill="#2ab4bc"/>
          <path id="Trazado_27065" data-name="Trazado 27065" d="M6.1,0H4.4V-.757H4.377a1.9,1.9,0,0,1-1.7.892,2.085,2.085,0,0,1-1.66-.728A3.013,3.013,0,0,1,.387-2.626,3.279,3.279,0,0,1,1.08-4.812,2.26,2.26,0,0,1,2.9-5.634a1.544,1.544,0,0,1,1.482.763H4.4V-8.143H6.1ZM4.431-2.675v-.414A1.3,1.3,0,0,0,4.12-3.98a1.029,1.029,0,0,0-.811-.354,1.022,1.022,0,0,0-.881.443,2.058,2.058,0,0,0-.317,1.217,1.781,1.781,0,0,0,.306,1.117,1.016,1.016,0,0,0,.849.392,1.021,1.021,0,0,0,.841-.414A1.724,1.724,0,0,0,4.431-2.675ZM9.222,0h-1.7V-5.5h1.7ZM10.1-8.1,8.417-6.37H7.192L8.588-8.1ZM15.227,0H13.621V-.79H13.6a1.792,1.792,0,0,1-1.638.924A1.714,1.714,0,0,1,10.7-.32a1.626,1.626,0,0,1-.459-1.211q0-1.6,1.9-1.848l1.493-.2q0-.9-.978-.9a3.337,3.337,0,0,0-1.869.585V-5.172a4.205,4.205,0,0,1,.969-.322,5.1,5.1,0,0,1,1.12-.14,2.077,2.077,0,0,1,2.353,2.347Zm-1.6-2.234V-2.6l-1,.129q-.827.107-.827.747a.617.617,0,0,0,.2.475.774.774,0,0,0,.545.185,1,1,0,0,0,.779-.33A1.193,1.193,0,0,0,13.632-2.234ZM16.21-.145V-1.52a3.614,3.614,0,0,0,.835.376,2.769,2.769,0,0,0,.787.124,1.688,1.688,0,0,0,.712-.124.4.4,0,0,0,.26-.376.348.348,0,0,0-.118-.269,1.1,1.1,0,0,0-.3-.188,3.444,3.444,0,0,0-.406-.145q-.22-.064-.424-.145a4.066,4.066,0,0,1-.577-.266,1.669,1.669,0,0,1-.419-.33A1.3,1.3,0,0,1,16.3-3.3a1.736,1.736,0,0,1-.089-.585,1.507,1.507,0,0,1,.2-.795,1.645,1.645,0,0,1,.537-.545,2.454,2.454,0,0,1,.768-.312,4,4,0,0,1,.9-.1,4.992,4.992,0,0,1,.741.056,5.532,5.532,0,0,1,.741.164V-4.1a2.678,2.678,0,0,0-.69-.282,2.911,2.911,0,0,0-.722-.094,1.6,1.6,0,0,0-.314.03,1.035,1.035,0,0,0-.26.086.478.478,0,0,0-.177.145.334.334,0,0,0-.064.2.372.372,0,0,0,.1.258.84.84,0,0,0,.252.185,2.492,2.492,0,0,0,.346.14q.191.062.379.126a4.923,4.923,0,0,1,.612.258,1.958,1.958,0,0,1,.47.328,1.287,1.287,0,0,1,.3.44,1.565,1.565,0,0,1,.1.6,1.569,1.569,0,0,1-.212.835,1.7,1.7,0,0,1-.564.564,2.558,2.558,0,0,1-.811.317,4.5,4.5,0,0,1-.953.1A4.915,4.915,0,0,1,16.21-.145Z" transform="translate(2.557 33.389)" fill="#2ab4bc"/>
        </g>
      </g>
      <path id="Trazado_27062" data-name="Trazado 27062" d="M5.645.09A1.167,1.167,0,0,1,5.252.029a1.139,1.139,0,0,1-.314-.172,1.817,1.817,0,0,1-.279-.271q-.135-.16-.283-.363a2.854,2.854,0,0,1-.361.324,2.665,2.665,0,0,1-.455.277,2.734,2.734,0,0,1-.547.193A2.722,2.722,0,0,1,2.367.09a2.683,2.683,0,0,1-.773-.105,1.711,1.711,0,0,1-.6-.311A1.406,1.406,0,0,1,.6-.832a1.635,1.635,0,0,1-.139-.691A1.582,1.582,0,0,1,.8-2.545a2.452,2.452,0,0,1,.961-.693,2.146,2.146,0,0,1-.234-.2A1.43,1.43,0,0,1,1.322-3.7a1.419,1.419,0,0,1-.148-.324,1.274,1.274,0,0,1-.057-.389,1.278,1.278,0,0,1,.111-.547,1.159,1.159,0,0,1,.307-.4A1.332,1.332,0,0,1,2-5.611,1.9,1.9,0,0,1,2.57-5.7a1.752,1.752,0,0,1,.557.084,1.274,1.274,0,0,1,.434.24A1.1,1.1,0,0,1,3.844-5a1.146,1.146,0,0,1,.1.488,1.152,1.152,0,0,1-.268.779,2.076,2.076,0,0,1-.8.529,2.347,2.347,0,0,1,.488.258,2.9,2.9,0,0,1,.4.34,3.8,3.8,0,0,1,.346.4q.16.215.316.445a3.284,3.284,0,0,0,.477-.973,3.836,3.836,0,0,0,.16-1.113,2.1,2.1,0,0,0-.018-.279A2.533,2.533,0,0,0,5-4.379h.621a1.324,1.324,0,0,1,.037.244q.006.115.014.275a3.527,3.527,0,0,1-.074.715,4.811,4.811,0,0,1-.2.7,4.879,4.879,0,0,1-.291.643,5.191,5.191,0,0,1-.35.559q.137.188.25.326a1.616,1.616,0,0,0,.229.232.829.829,0,0,0,.238.139A.811.811,0,0,0,5.754-.5a.951.951,0,0,0,.238-.031q.121-.031.25-.078V-.02a1.565,1.565,0,0,1-.295.082A1.733,1.733,0,0,1,5.645.09ZM2.367-.465a2.188,2.188,0,0,0,.547-.064A2.25,2.25,0,0,0,3.375-.7a2.064,2.064,0,0,0,.383-.25,2.973,2.973,0,0,0,.313-.3q-.238-.371-.439-.635a3.646,3.646,0,0,0-.406-.455,2.493,2.493,0,0,0-.437-.328,3.633,3.633,0,0,0-.537-.254,3.484,3.484,0,0,0-.453.217,1.511,1.511,0,0,0-.357.281,1.208,1.208,0,0,0-.236.377,1.352,1.352,0,0,0-.086.5,1.07,1.07,0,0,0,.1.469.95.95,0,0,0,.268.338,1.178,1.178,0,0,0,.4.2A1.683,1.683,0,0,0,2.367-.465Zm.977-3.988a.7.7,0,0,0-.072-.332.718.718,0,0,0-.184-.227.721.721,0,0,0-.248-.131.935.935,0,0,0-.27-.041.876.876,0,0,0-.611.207.733.733,0,0,0-.232.563.911.911,0,0,0,.049.3,1,1,0,0,0,.137.262,1.106,1.106,0,0,0,.205.215,1.405,1.405,0,0,0,.25.16,2.059,2.059,0,0,0,.734-.4A.758.758,0,0,0,3.344-4.453Zm8.625,4.27a2.082,2.082,0,0,1-1.094.277A1.811,1.811,0,0,1,9.494-.463a2.017,2.017,0,0,1-.525-1.443,2.218,2.218,0,0,1,.566-1.588,1.981,1.981,0,0,1,1.512-.6,2.1,2.1,0,0,1,.93.2v.656a1.629,1.629,0,0,0-.953-.312,1.288,1.288,0,0,0-1.006.439,1.668,1.668,0,0,0-.393,1.154A1.588,1.588,0,0,0,9.994-.852a1.272,1.272,0,0,0,.99.406,1.606,1.606,0,0,0,.984-.348Zm2.641.277a1.855,1.855,0,0,1-1.416-.561,2.076,2.076,0,0,1-.529-1.486,2.163,2.163,0,0,1,.551-1.574A1.98,1.98,0,0,1,14.7-4.094a1.794,1.794,0,0,1,1.4.551,2.184,2.184,0,0,1,.5,1.527,2.149,2.149,0,0,1-.541,1.533A1.9,1.9,0,0,1,14.609.094Zm.047-3.648a1.219,1.219,0,0,0-.977.42,1.725,1.725,0,0,0-.359,1.158,1.631,1.631,0,0,0,.363,1.121,1.235,1.235,0,0,0,.973.41,1.171,1.171,0,0,0,.955-.4,1.746,1.746,0,0,0,.334-1.145,1.776,1.776,0,0,0-.334-1.156A1.166,1.166,0,0,0,14.656-3.555ZM23.3,0h-.641V-2.3a1.733,1.733,0,0,0-.205-.961.778.778,0,0,0-.689-.3.854.854,0,0,0-.7.375,1.435,1.435,0,0,0-.287.9V0h-.641V-2.375q0-1.18-.91-1.18a.843.843,0,0,0-.7.354,1.461,1.461,0,0,0-.273.92V0h-.641V-4h.641v.633h.016a1.359,1.359,0,0,1,1.242-.727,1.158,1.158,0,0,1,.715.229,1.15,1.15,0,0,1,.418.6,1.427,1.427,0,0,1,1.328-.828q1.32,0,1.32,1.629Zm1.539-5.016a.406.406,0,0,1-.293-.117.4.4,0,0,1-.121-.3.4.4,0,0,1,.121-.3.4.4,0,0,1,.293-.119.414.414,0,0,1,.3.119.4.4,0,0,1,.123.3.4.4,0,0,1-.123.293A.41.41,0,0,1,24.844-5.016ZM25.156,0h-.641V-4h.641Zm4.512-1.84H26.844A1.5,1.5,0,0,0,27.2-.809a1.239,1.239,0,0,0,.945.363,1.965,1.965,0,0,0,1.242-.445v.6A2.322,2.322,0,0,1,28,.094a1.691,1.691,0,0,1-1.332-.545,2.23,2.23,0,0,1-.484-1.533,2.187,2.187,0,0,1,.529-1.521,1.7,1.7,0,0,1,1.314-.588,1.5,1.5,0,0,1,1.215.508,2.117,2.117,0,0,1,.43,1.41Zm-.656-.543a1.3,1.3,0,0,0-.268-.863.912.912,0,0,0-.732-.309,1.035,1.035,0,0,0-.77.324,1.471,1.471,0,0,0-.391.848ZM33.957,0h-.641V-2.281q0-1.273-.93-1.273a1.008,1.008,0,0,0-.795.361,1.339,1.339,0,0,0-.314.912V0h-.641V-4h.641v.664h.016a1.444,1.444,0,0,1,1.313-.758,1.224,1.224,0,0,1,1,.424,1.888,1.888,0,0,1,.348,1.225Zm4-3.816L35.586-.547H37.93V0H34.645V-.2l2.367-3.254H34.867V-4h3.086ZM41.645,0H41V-.625h-.016a1.341,1.341,0,0,1-1.23.719,1.315,1.315,0,0,1-.936-.316,1.1,1.1,0,0,1-.338-.84q0-1.121,1.32-1.3L41-2.535q0-1.02-.824-1.02a1.969,1.969,0,0,0-1.3.492v-.656a2.479,2.479,0,0,1,1.359-.375q1.41,0,1.41,1.492ZM41-2.023l-.965.133a1.567,1.567,0,0,0-.672.221.637.637,0,0,0-.227.561.611.611,0,0,0,.209.479.808.808,0,0,0,.557.186,1.028,1.028,0,0,0,.787-.334A1.193,1.193,0,0,0,41-1.625ZM47.906,0h-.641V-.625H47.25a1.341,1.341,0,0,1-1.23.719,1.315,1.315,0,0,1-.936-.316,1.1,1.1,0,0,1-.338-.84q0-1.121,1.32-1.3l1.2-.168q0-1.02-.824-1.02a1.969,1.969,0,0,0-1.3.492v-.656A2.479,2.479,0,0,1,46.5-4.094q1.41,0,1.41,1.492Zm-.641-2.023-.965.133a1.567,1.567,0,0,0-.672.221.637.637,0,0,0-.227.561.611.611,0,0,0,.209.479.808.808,0,0,0,.557.186,1.028,1.028,0,0,0,.787-.334,1.193,1.193,0,0,0,.311-.846ZM54.449-4,52.855,0h-.629L50.711-4h.7L52.43-1.094a2.609,2.609,0,0,1,.141.559h.016a2.641,2.641,0,0,1,.125-.543L53.773-4Zm3.9,2.16H55.527a1.5,1.5,0,0,0,.359,1.031,1.239,1.239,0,0,0,.945.363,1.965,1.965,0,0,0,1.242-.445v.6A2.322,2.322,0,0,1,56.68.094a1.691,1.691,0,0,1-1.332-.545,2.23,2.23,0,0,1-.484-1.533,2.187,2.187,0,0,1,.529-1.521,1.7,1.7,0,0,1,1.314-.588,1.5,1.5,0,0,1,1.215.508,2.117,2.117,0,0,1,.43,1.41ZM57.7-2.383a1.3,1.3,0,0,0-.268-.863.912.912,0,0,0-.732-.309,1.035,1.035,0,0,0-.77.324,1.471,1.471,0,0,0-.391.848ZM62.641,0H62V-2.281q0-1.273-.93-1.273a1.008,1.008,0,0,0-.795.361,1.339,1.339,0,0,0-.314.912V0H59.32V-4h.641v.664h.016a1.444,1.444,0,0,1,1.313-.758,1.224,1.224,0,0,1,1,.424,1.888,1.888,0,0,1,.348,1.225Zm4.621,0h-.641V-.68h-.016A1.479,1.479,0,0,1,65.23.094a1.494,1.494,0,0,1-1.205-.537,2.2,2.2,0,0,1-.451-1.463,2.4,2.4,0,0,1,.5-1.59,1.649,1.649,0,0,1,1.332-.6,1.282,1.282,0,0,1,1.2.648h.016V-5.922h.641Zm-.641-1.809V-2.4a1.144,1.144,0,0,0-.32-.82,1.074,1.074,0,0,0-.812-.336,1.106,1.106,0,0,0-.922.43,1.883,1.883,0,0,0-.336,1.188,1.693,1.693,0,0,0,.322,1.092,1.053,1.053,0,0,0,.865.4,1.094,1.094,0,0,0,.869-.387A1.441,1.441,0,0,0,66.621-1.809Zm5.152-.031H68.949a1.5,1.5,0,0,0,.359,1.031,1.239,1.239,0,0,0,.945.363A1.965,1.965,0,0,0,71.5-.891v.6A2.322,2.322,0,0,1,70.1.094,1.691,1.691,0,0,1,68.77-.451a2.23,2.23,0,0,1-.484-1.533,2.187,2.187,0,0,1,.529-1.521,1.7,1.7,0,0,1,1.314-.588,1.5,1.5,0,0,1,1.215.508,2.117,2.117,0,0,1,.43,1.41Zm-.656-.543a1.3,1.3,0,0,0-.268-.863.912.912,0,0,0-.732-.309,1.035,1.035,0,0,0-.77.324,1.471,1.471,0,0,0-.391.848Zm3.711-.969a.783.783,0,0,0-.484-.129.818.818,0,0,0-.686.387,1.788,1.788,0,0,0-.275,1.055V0h-.641V-4h.641v.824H73.4a1.4,1.4,0,0,1,.418-.658.953.953,0,0,1,.629-.236,1.046,1.046,0,0,1,.383.055ZM83.395,0h-.641V-2.3a1.733,1.733,0,0,0-.205-.961.778.778,0,0,0-.689-.3.854.854,0,0,0-.7.375,1.435,1.435,0,0,0-.287.9V0h-.641V-2.375q0-1.18-.91-1.18a.843.843,0,0,0-.7.354,1.461,1.461,0,0,0-.273.92V0h-.641V-4h.641v.633h.016a1.359,1.359,0,0,1,1.242-.727,1.158,1.158,0,0,1,.715.229,1.15,1.15,0,0,1,.418.6,1.427,1.427,0,0,1,1.328-.828q1.32,0,1.32,1.629Zm4.074,0h-.641V-.625h-.016a1.341,1.341,0,0,1-1.23.719,1.315,1.315,0,0,1-.936-.316,1.1,1.1,0,0,1-.338-.84q0-1.121,1.32-1.3l1.2-.168q0-1.02-.824-1.02a1.969,1.969,0,0,0-1.3.492v-.656a2.479,2.479,0,0,1,1.359-.375q1.41,0,1.41,1.492Zm-.641-2.023-.965.133a1.566,1.566,0,0,0-.672.221.637.637,0,0,0-.227.561.611.611,0,0,0,.209.479.808.808,0,0,0,.557.186,1.028,1.028,0,0,0,.787-.334,1.193,1.193,0,0,0,.311-.846Zm.086-4.016L85.891-4.758h-.5l.871-1.281Zm1.52,5.895V-.832a1.9,1.9,0,0,0,1.152.387q.844,0,.844-.562a.488.488,0,0,0-.072-.271.72.72,0,0,0-.2-.2,1.5,1.5,0,0,0-.289-.154q-.166-.068-.357-.143a4.6,4.6,0,0,1-.467-.213,1.41,1.41,0,0,1-.336-.242.9.9,0,0,1-.2-.307,1.085,1.085,0,0,1-.068-.4.956.956,0,0,1,.129-.5,1.143,1.143,0,0,1,.344-.363,1.6,1.6,0,0,1,.49-.221,2.175,2.175,0,0,1,.568-.074,2.3,2.3,0,0,1,.93.18v.648a1.812,1.812,0,0,0-1.016-.289,1.187,1.187,0,0,0-.324.041.794.794,0,0,0-.248.115.532.532,0,0,0-.16.178.468.468,0,0,0-.057.229.548.548,0,0,0,.057.262.576.576,0,0,0,.166.188,1.269,1.269,0,0,0,.266.148q.156.066.355.145a4.947,4.947,0,0,1,.477.209,1.635,1.635,0,0,1,.359.242.946.946,0,0,1,.229.311,1,1,0,0,1,.08.418.985.985,0,0,1-.131.516,1.122,1.122,0,0,1-.35.363,1.6,1.6,0,0,1-.5.215,2.488,2.488,0,0,1-.6.07A2.269,2.269,0,0,1,88.434-.145Z" transform="translate(220 445)" fill="#fff"/>
      <path id="Trazado_27061" data-name="Trazado 27061" d="M1.631-.723h-.02V2.3h-.8V-5h.8v.879h.02a1.894,1.894,0,0,1,1.729-1,1.831,1.831,0,0,1,1.509.671,2.781,2.781,0,0,1,.542,1.8A3.1,3.1,0,0,1,4.8-.637,2.032,2.032,0,0,1,3.13.117,1.673,1.673,0,0,1,1.631-.723Zm-.02-2.017v.7a1.487,1.487,0,0,0,.4,1.052,1.338,1.338,0,0,0,1.023.432,1.34,1.34,0,0,0,1.14-.557A2.554,2.554,0,0,0,4.59-2.661,2.016,2.016,0,0,0,4.2-3.97a1.277,1.277,0,0,0-1.045-.474,1.419,1.419,0,0,0-1.123.486A1.784,1.784,0,0,0,1.611-2.739ZM10.269,0h-.8V-.781h-.02a1.676,1.676,0,0,1-1.538.9,1.644,1.644,0,0,1-1.169-.4,1.37,1.37,0,0,1-.422-1.05q0-1.4,1.65-1.631l1.5-.21q0-1.274-1.03-1.274a2.461,2.461,0,0,0-1.631.615v-.82a3.1,3.1,0,0,1,1.7-.469q1.763,0,1.763,1.865Zm-.8-2.529-1.206.166a1.958,1.958,0,0,0-.84.276.8.8,0,0,0-.283.7.763.763,0,0,0,.261.6,1.009,1.009,0,0,0,.7.232A1.285,1.285,0,0,0,9.08-.974a1.492,1.492,0,0,0,.388-1.057ZM16.045-.4q0,2.754-2.637,2.754A3.54,3.54,0,0,1,11.787,2V1.2A3.329,3.329,0,0,0,13.4,1.67q1.846,0,1.846-1.963V-.84h-.02a1.873,1.873,0,0,1-1.719.957A1.877,1.877,0,0,1,12-.549a2.664,2.664,0,0,1-.569-1.79,3.113,3.113,0,0,1,.613-2.026,2.047,2.047,0,0,1,1.677-.752,1.63,1.63,0,0,1,1.5.811h.02V-5h.8Zm-.8-1.86V-3a1.43,1.43,0,0,0-.4-1.021,1.326,1.326,0,0,0-1-.425,1.39,1.39,0,0,0-1.162.54,2.408,2.408,0,0,0-.42,1.511,2.067,2.067,0,0,0,.4,1.335,1.3,1.3,0,0,0,1.067.5,1.394,1.394,0,0,0,1.1-.479A1.784,1.784,0,0,0,15.244-2.261Zm6,2.261h-.8V-.781h-.02a1.676,1.676,0,0,1-1.538.9,1.644,1.644,0,0,1-1.169-.4,1.37,1.37,0,0,1-.422-1.05q0-1.4,1.65-1.631l1.5-.21q0-1.274-1.03-1.274a2.461,2.461,0,0,0-1.631.615v-.82a3.1,3.1,0,0,1,1.7-.469q1.763,0,1.763,1.865Zm-.8-2.529-1.206.166a1.958,1.958,0,0,0-.84.276.8.8,0,0,0-.283.7.763.763,0,0,0,.261.6,1.009,1.009,0,0,0,.7.232,1.285,1.285,0,0,0,.984-.417,1.492,1.492,0,0,0,.388-1.057ZM26.9,0h-.8V-2.852q0-1.592-1.162-1.592a1.261,1.261,0,0,0-.994.452,1.674,1.674,0,0,0-.393,1.14V0h-.8V-5h.8v.83h.02a1.8,1.8,0,0,1,1.641-.947,1.53,1.53,0,0,1,1.255.53A2.36,2.36,0,0,1,26.9-3.057Zm5.776,0h-.8V-.85h-.02a1.849,1.849,0,0,1-1.719.967,1.868,1.868,0,0,1-1.506-.671,2.754,2.754,0,0,1-.564-1.829A3,3,0,0,1,28.7-4.37a2.061,2.061,0,0,1,1.665-.747,1.6,1.6,0,0,1,1.5.811h.02V-7.4h.8Zm-.8-2.261V-3a1.43,1.43,0,0,0-.4-1.025,1.343,1.343,0,0,0-1.016-.42,1.383,1.383,0,0,0-1.152.537,2.354,2.354,0,0,0-.42,1.484,2.117,2.117,0,0,0,.4,1.365,1.317,1.317,0,0,0,1.082.5,1.368,1.368,0,0,0,1.086-.483A1.8,1.8,0,0,0,31.88-2.261ZM36.392.117a2.319,2.319,0,0,1-1.77-.7,2.6,2.6,0,0,1-.662-1.858,2.7,2.7,0,0,1,.688-1.968,2.475,2.475,0,0,1,1.86-.708,2.243,2.243,0,0,1,1.746.688,2.73,2.73,0,0,1,.627,1.909A2.686,2.686,0,0,1,38.206-.6,2.37,2.37,0,0,1,36.392.117Zm.059-4.561a1.523,1.523,0,0,0-1.221.525,2.156,2.156,0,0,0-.449,1.448,2.039,2.039,0,0,0,.454,1.4,1.543,1.543,0,0,0,1.216.513,1.464,1.464,0,0,0,1.194-.5,2.182,2.182,0,0,0,.417-1.431,2.22,2.22,0,0,0-.417-1.445A1.457,1.457,0,0,0,36.45-4.443ZM60.156-.723h-.02V2.3h-.8V-5h.8v.879h.02a1.894,1.894,0,0,1,1.729-1,1.831,1.831,0,0,1,1.509.671,2.781,2.781,0,0,1,.542,1.8,3.1,3.1,0,0,1-.61,2.009,2.032,2.032,0,0,1-1.67.754A1.673,1.673,0,0,1,60.156-.723Zm-.02-2.017v.7a1.487,1.487,0,0,0,.4,1.052,1.338,1.338,0,0,0,1.023.432,1.34,1.34,0,0,0,1.14-.557,2.554,2.554,0,0,0,.413-1.548,2.016,2.016,0,0,0-.386-1.309,1.277,1.277,0,0,0-1.045-.474,1.419,1.419,0,0,0-1.123.486A1.784,1.784,0,0,0,60.137-2.739Zm9.1.439H65.7a1.87,1.87,0,0,0,.449,1.289,1.549,1.549,0,0,0,1.182.454,2.457,2.457,0,0,0,1.553-.557v.752a2.9,2.9,0,0,1-1.743.479,2.113,2.113,0,0,1-1.665-.681,2.788,2.788,0,0,1-.605-1.917,2.734,2.734,0,0,1,.662-1.9,2.121,2.121,0,0,1,1.643-.735,1.88,1.88,0,0,1,1.519.635,2.647,2.647,0,0,1,.537,1.763Zm-.82-.679a1.629,1.629,0,0,0-.334-1.079,1.14,1.14,0,0,0-.916-.386,1.294,1.294,0,0,0-.962.405,1.839,1.839,0,0,0-.488,1.06Zm1.729,2.8V-1.04a2.37,2.37,0,0,0,1.44.483q1.055,0,1.055-.7a.61.61,0,0,0-.09-.339.9.9,0,0,0-.244-.247,1.879,1.879,0,0,0-.361-.193q-.208-.085-.447-.178a5.754,5.754,0,0,1-.583-.266,1.763,1.763,0,0,1-.42-.3,1.127,1.127,0,0,1-.254-.383,1.356,1.356,0,0,1-.085-.5,1.2,1.2,0,0,1,.161-.623,1.429,1.429,0,0,1,.43-.454,2,2,0,0,1,.613-.276,2.718,2.718,0,0,1,.71-.093,2.869,2.869,0,0,1,1.162.225v.811a2.265,2.265,0,0,0-1.27-.361,1.484,1.484,0,0,0-.405.051.992.992,0,0,0-.31.144.665.665,0,0,0-.2.222.585.585,0,0,0-.071.286.685.685,0,0,0,.071.327.72.72,0,0,0,.208.234,1.586,1.586,0,0,0,.332.186q.2.083.444.181a6.184,6.184,0,0,1,.6.261,2.043,2.043,0,0,1,.449.3,1.183,1.183,0,0,1,.286.388,1.252,1.252,0,0,1,.1.522,1.232,1.232,0,0,1-.164.645,1.4,1.4,0,0,1-.437.454,2,2,0,0,1-.63.269,3.11,3.11,0,0,1-.747.088A2.837,2.837,0,0,1,70.142-.181Zm6.636.3a2.319,2.319,0,0,1-1.77-.7,2.6,2.6,0,0,1-.662-1.858,2.7,2.7,0,0,1,.688-1.968,2.475,2.475,0,0,1,1.86-.708,2.243,2.243,0,0,1,1.746.688,2.73,2.73,0,0,1,.627,1.909A2.686,2.686,0,0,1,78.591-.6,2.37,2.37,0,0,1,76.777.117Zm.059-4.561a1.523,1.523,0,0,0-1.221.525,2.156,2.156,0,0,0-.449,1.448,2.039,2.039,0,0,0,.454,1.4,1.543,1.543,0,0,0,1.216.513,1.464,1.464,0,0,0,1.194-.5,2.182,2.182,0,0,0,.417-1.431,2.22,2.22,0,0,0-.417-1.445A1.457,1.457,0,0,0,76.836-4.443ZM80.244-.181V-1.04a2.37,2.37,0,0,0,1.44.483q1.055,0,1.055-.7a.61.61,0,0,0-.09-.339.9.9,0,0,0-.244-.247,1.879,1.879,0,0,0-.361-.193q-.208-.085-.447-.178a5.754,5.754,0,0,1-.583-.266,1.763,1.763,0,0,1-.42-.3,1.127,1.127,0,0,1-.254-.383,1.356,1.356,0,0,1-.085-.5,1.2,1.2,0,0,1,.161-.623,1.429,1.429,0,0,1,.43-.454,2,2,0,0,1,.613-.276,2.718,2.718,0,0,1,.71-.093,2.869,2.869,0,0,1,1.162.225v.811a2.265,2.265,0,0,0-1.27-.361,1.484,1.484,0,0,0-.405.051.992.992,0,0,0-.31.144.665.665,0,0,0-.2.222.585.585,0,0,0-.071.286.685.685,0,0,0,.071.327.72.72,0,0,0,.208.234,1.586,1.586,0,0,0,.332.186q.2.083.444.181a6.184,6.184,0,0,1,.6.261,2.043,2.043,0,0,1,.449.3,1.183,1.183,0,0,1,.286.388,1.252,1.252,0,0,1,.1.522,1.232,1.232,0,0,1-.164.645,1.4,1.4,0,0,1-.437.454,2,2,0,0,1-.63.269,3.11,3.11,0,0,1-.747.088A2.837,2.837,0,0,1,80.244-.181Z" transform="translate(222 432)" fill="#fff"/>
      <text id="_0" data-name="$0" transform="translate(265 432)" fill="#fff" stroke="rgba(0,0,0,0)" stroke-width="1" font-size="10" font-family="SegoeUI-Bold, Segoe UI" font-weight="700"><tspan x="0" y="0">$0</tspan></text>
    </g>
    <g id="Grupo_11687" data-name="Grupo 11687" transform="translate(189.19 440.775) rotate(56)">
      <path id="Trazado_26637" data-name="Trazado 26637" d="M0,15.159C4.948,3.851,17.4,5.77,22.618,10.919,25.911,14.168,25.8,26.433,19,23.151,10.191,18.9,33.926-15.939,48.769,8.8" transform="translate(0 3.043)" fill="none" stroke="#f2680a" stroke-linecap="round" stroke-linejoin="round" stroke-width="5"/>
      <path id="Trazado_26638" data-name="Trazado 26638" d="M0,9.188l12.722,3.534L14.136,0" transform="translate(34.195 2.697) rotate(-11)" fill="none" stroke="#f2680a" stroke-linecap="round" stroke-miterlimit="10" stroke-width="5"/>
    </g>
  </g>
</svg>
