<svg xmlns="http://www.w3.org/2000/svg" viewBox="0 0 107.58 323.36"><defs><style>.cls-1{fill:#4190ce;}.cls-2{fill:#fff;}.cls-3{fill:#1c5581;}</style></defs><title>1_60</title><g id="Capa_2" data-name="Capa 2"><g id="Layer_1" data-name="Layer 1"><path class="cls-1" d="M32.32,323.36c1,0,2,0,2.94,0H31.18C31.54,323.35,31.92,323.37,32.32,323.36Z"/><path class="cls-2" d="M29.77,20.1c.46,6.64.13,13.33.06,20,0,4.23.37,8.49,2.55,12.07,2.32,3.81,1.42,4.66-2.65,5.77a53.35,53.35,0,0,0-15.64,6.74H94.2c-4.88-3.27-10.56-5.13-16.33-6.82-3.51-1-4.74-2-2.43-5.28a13,13,0,0,0,2-6.1c1.3-10.3.55-20.64.59-31,0-5.87-3.56-9.38-8.39-12A30.72,30.72,0,0,0,56.09,0h-2.3a43.82,43.82,0,0,0-8.52,1.12C34.62,3.58,29,8.24,29.77,20.1Z"/><path class="cls-2" d="M0,98.53c.3,10.26.65,20.54.86,30.82H107.26q.12-18.87.32-37.74A32.34,32.34,0,0,0,102,72.39a28.38,28.38,0,0,0-7.79-7.71H14.09C3.57,71.75-.43,82.51,0,98.53Z"/><path class="cls-1" d="M.44,170.47a28.2,28.2,0,0,0,2.3,12.18c2,4.87,4.55,9.59,9.65,11.36H96.11a11.29,11.29,0,0,0,4.18-3.22c4.11-4.78,6.75-10.31,6.93-16.7.16-5.82-.13-11.66-.1-17.49q.07-13.62.14-27.25H.9C1.19,143.05,1.21,156.76.44,170.47Z"/><path class="cls-1" d="M15.84,194.7c2.86.2,2.43,2.26,2.55,4q1.14,15.45,2.19,30.9c.66,9.71,1.54,19.4,2.39,29.1H85q2.17-29.81,4.26-59.61c.21-3,.74-4.58,4.2-4.52a6.73,6.73,0,0,0,2.64-.53H12.39A13.36,13.36,0,0,0,15.84,194.7Z"/><path class="cls-1" d="M53.82,323.33H74.31c7.2,0,8.08-.78,7.85-8.15a172.24,172.24,0,0,1,0-18.46q1.42-19,2.81-38.05H23c1.7,19.33,3.31,38.66,2.93,58.1-.09,4.36,1.48,6.31,5.28,6.56h4.08C41.44,323.27,47.63,323.33,53.82,323.33Z"/><path class="cls-3" d="M53.82,323.33c-7.17,0-14.34-.09-21.5,0-4.63.08-6.52-1.82-6.42-6.59.57-29.2-3.34-58.14-5.32-87.2q-1-15.45-2.19-30.9c-.12-1.71.31-3.77-2.55-4-7.5-.52-10.68-6.19-13.1-12a28.2,28.2,0,0,1-2.3-12.18c1.34-24,.3-48-.4-71.94C-.62,76.19,7.43,64.06,29.73,57.94c4.07-1.11,5-2,2.65-5.77-2.18-3.58-2.6-7.84-2.55-12.07.07-6.67.4-13.36-.06-20C29,8.24,34.62,3.58,45.27,1.14,53.33-.7,61.85-.59,69.63,3.56,74.46,6.14,78,9.65,78,15.52c0,10.32.71,20.65-.59,31a13,13,0,0,1-2,6.1c-2.31,3.27-1.08,4.25,2.43,5.28C87.1,60.57,96.12,63.71,102,72.39a32.34,32.34,0,0,1,5.59,19.22c-.26,21.66-.35,43.33-.46,65,0,5.83.26,11.67.1,17.49-.18,6.39-2.82,11.92-6.93,16.7-1.75,2.05-4.08,3.79-6.82,3.75-3.46-.06-4,1.54-4.2,4.52q-3.39,48.84-7.07,97.66a172.24,172.24,0,0,0,0,18.46c.23,7.37-.65,8.13-7.85,8.15ZM8.46,122.43h1.3q0,16.24,0,32.49c0,2.64-.07,4.84,3.79,4.86,4.05,0,3.56-2.42,3.56-4.92,0-21,0-42,0-63,0-3.21.68-6,4.32-6s4.55,2.79,4.54,6q0,8.25,0,16.5c0,13,0,26,0,39,0,1.06-.59,2.57.85,3.06s1.91-.94,2.68-1.77c3.28-3.48,5.6-7.37,5.68-12.33,0-2.24.76-4.13,3.48-3.73,2.4.36,2.62,2.36,2.34,4.26-1.07,7.16-3.44,14.83-10,17.41-6.36,2.5-4.84,6.28-5,10.38-.1,2.49.08,5,0,7.49-.13,2.73.94,3.91,3.75,3.9,16.33-.05,32.66-.07,49,0,3.09,0,4.12-1.29,4-4.19-.12-4,0-8,0-12,0-2.48,1.25-6-3.88-4.42-1.53.46-3.14-1.62-4.37-2.92a24.4,24.4,0,0,1-7-15c-.19-2.06-.47-4.33,2-4.86,2.75-.58,3.17,1.77,3.41,3.82A18.92,18.92,0,0,0,78,148.05c1,.95,1.74,3,3.5,2.14,1.55-.73,1.17-2.6,1.17-4.07q0-17.49,0-35,0-10.5,0-21c0-2.51,1.14-4.27,3.8-4.31s4,1.56,4.29,4a32,32,0,0,1,.13,4.49q0,30.24,0,60.49c0,2.49-.44,5,3.58,5s3.66-2.25,3.7-4.84c.33-20,.43-40,1.15-60,.46-12.84-5.07-23.3-18.36-27.2-2.91-.85-4.46-.86-6.2,1.64-4.64,6.7-10.84,12-16.71,17.51-2.82,2.67-5.2,2.73-8.11,0C43.74,81.21,37.45,75.5,32.47,68.59c-1.08-1.51-1.92-2-3.59-1.53C16.52,70.84,8.4,78.26,8.45,93.45,8.48,103.11,8.46,112.77,8.46,122.43Zm41.47,129h0c0-14.66,0-29.31,0-44,0-2.74,1-4.81,3.72-5,3-.21,4.42,1.9,4.58,4.78.09,1.49.07,3,.07,4.49v79.44c0,6.38,0,6.36,6.55,6.15a15.49,15.49,0,0,1,4.47.2c4,1.07,4.58-.68,4.8-4.26,1.1-18.27,2.5-36.52,3.82-54.78,1.17-16.1,2.24-32.21,3.65-48.29.41-4.63-1.22-5.67-5.51-5.59-12.82.23-25.64.08-38.47.08-12.28,0-12,0-11,12.14,2.57,31,4.94,62,7.3,93,.57,7.45.43,7.44,7.58,7.38a15,15,0,0,1,4.46.33c3.69,1.16,4.1-.57,4.07-3.68C49.86,279.71,49.93,265.56,49.93,251.41ZM38.32,29.21c0,4.17-.09,8.33,0,12.49.22,8.36,7.54,15.69,15.57,15.71a15.75,15.75,0,0,0,15.5-15.19c.24-4.82,0-9.66.1-14.49.09-3-1.13-4.16-4.13-4.08-5.16.13-10.32,0-15.49,0-2.85,0-5.17-1.28-5.19-4.21s2.26-4.11,5.19-4.08c5.33.07,10.66,0,16,0,.91,0,2.18.53,2.67-.59.62-1.41-.61-2.11-1.61-2.67C59.13,7.69,51.07,8,43,11c-3.51,1.3-5.07,3.84-4.71,7.77C38.56,22.19,38.31,25.71,38.32,29.21ZM70.75,65.49c-.26-2.15-2.33-2.12-3.44-1.85-8.8,2.09-17.51,2.58-26.3-.07-.9-.27-2.83-.31-3.33,1.44-.38,1.31.54,2.25,1.31,3,4.12,4.3,8.27,8.58,12.53,12.75.82.8,1.9,2.27,3.39,1.12,6-4.58,10.93-10.15,15.72-15.91C70.72,65.91,70.7,65.72,70.75,65.49ZM42,314.78v0c1.66,0,3.33.09,5,0,2.68-.16,3.43-1.52,2.38-4-2-4.8-7.94-6.65-12-3.64a5.92,5.92,0,0,0-2.58,6.1c.54,2.28,3,1.44,4.74,1.61C40.33,314.85,41.17,314.78,42,314.78Zm23.68,0a12,12,0,0,0,2,0c2.11-.38,5.52,1.08,5.91-1.92s-1.71-5.44-4.87-6.69a7.85,7.85,0,0,0-6.7.56,5.66,5.66,0,0,0-3.29,6.15c.43,2.74,3.15,1.62,5,1.9A14.67,14.67,0,0,0,65.68,314.8ZM17.09,177.17a34.09,34.09,0,0,1,0-4.33c.49-3.66-1.32-4.37-4.58-4.29-4,.09-3.59,2.47-3.2,5a16.45,16.45,0,0,0,.8,3.86c1.14,2.76,1.35,7.5,4.84,7C18.75,184,16.44,179.48,17.09,177.17Zm73.87-1h.09c0,2-.1,4,0,5.92a2.91,2.91,0,0,0,1.82,2.68c1.37.43,1.91-.85,2.6-1.79,2.34-3.2,2.75-7,3.26-10.72.33-2.42-.3-3.85-3.08-3.67-2.2.15-4.92-.63-4.74,3.14C91,173.22,91,174.71,91,176.19Z"/></g></g></svg>