<svg xmlns="http://www.w3.org/2000/svg" viewBox="0 0 116.69 349.17"><defs><style>.cls-1{fill:#fff;}.cls-2{fill:#288AC1;}.cls-3{fill:#1c5581;}</style></defs><title>2_40</title><g id="Capa_2" data-name="Capa 2"><g id="Layer_1" data-name="Layer 1"><path class="cls-1" d="M97.54,69.78c-4.09-2.09-8.76-3-13.11-4.61-5.76-2.12-6.26-2.06-3.09-6.82A12.76,12.76,0,0,0,83,53.22c2.27-15.91.7-31.91,1-47.87C84.07,1.78,81.81,0,78.15.06,71.32.12,64.48-.16,57.67.14,43.51.75,33.24,11.38,32.92,25.6c-.15,7,0,14,0,21A23.58,23.58,0,0,0,36.7,60.3c1.62,2.35.78,3.16-1.47,3.78-1.43.39-2.8,1-4.24,1.36a56.17,56.17,0,0,0-11.66,4.39h78.3Z"/><path class="cls-1" d="M0,105.54c.42,11.37.68,22.74.88,34.11H116q.17-18.54.65-37.08c.4-14.77-5.82-26-19-32.74H19.33C6.32,76.59-.59,88.21,0,105.54Z"/><path class="cls-1" d="M1.47,176c.1,6.76-1.57,13.43.15,20.31A28.46,28.46,0,0,0,9,209.48h98.61c6.32-5.91,8.57-13.46,8.45-22q-.33-23.92-.08-47.85H.92C1.13,151.76,1.28,163.87,1.47,176Z"/><path class="cls-2" d="M15.22,212.37c4.87-.17,5.39,2.2,5.62,5.89.71,11.63,1.58,23.25,2.36,34.87.59,8.73,1.36,17.46,2.14,26.18H91.62c1.54-20.43,3.1-40.87,4.56-61.31.26-3.62.35-6.62,5.39-5.53,2,.43,3.76-.93,5.32-2.28.26-.23.51-.47.76-.71H9C11,211.31,13.15,212.43,15.22,212.37Z"/><path class="cls-2" d="M88.75,341.92c.24-4.84-1.39-9.47-.88-14.39,1.14-11.09,1.78-22.23,2.62-33.35q.56-7.44,1.13-14.87H25.34c1.88,21.11,3.8,42.22,3.23,63.48-.11,4.49,1.77,6.14,5.47,6.35h4.08c6.69-.06,13.37,0,20.06,0H75.25c2.13,0,4.27,0,6.41,0C87.27,349.08,88.47,347.63,88.75,341.92Z"/><path class="cls-3" d="M58.18,349.13c-7.67,0-15.33-.08-23,0-4.47.07-6.75-1.43-6.62-6.37.8-30-3.36-59.79-5.37-89.66-.78-11.62-1.65-23.24-2.36-34.87-.23-3.69-.75-6.06-5.62-5.89-5.6.18-11.66-8.28-13.6-16.08-1.72-6.88-.05-13.55-.15-20.31C1.11,152.5.9,129,0,105.54c-.8-21.94,10.48-34.75,31-40.1,1.44-.37,2.81-1,4.24-1.36,2.25-.62,3.09-1.43,1.47-3.78a23.58,23.58,0,0,1-3.82-13.71c0-7-.11-14,0-21C33.24,11.38,43.51.75,57.67.14c6.81-.3,13.65,0,20.48-.08C81.81,0,84.07,1.78,84,5.35c-.27,16,1.3,32-1,47.87a12.76,12.76,0,0,1-1.7,5.13c-3.17,4.76-2.67,4.7,3.09,6.82,4.35,1.6,9,2.52,13.11,4.61,13.29,6.77,19.53,18,19.13,32.79q-1.14,42.47-.57,84.93c.12,8.86-2.3,16.67-9.21,22.69-1.56,1.35-3.3,2.71-5.32,2.28-5-1.09-5.13,1.91-5.39,5.53-1.82,25.4-3.77,50.79-5.69,76.18-.84,11.12-1.48,22.26-2.62,33.35-.51,4.92,1.12,9.55.88,14.39-.28,5.71-1.48,7.16-7.09,7.2C73.83,349.18,66,349.14,58.18,349.13Zm-4.06-77.22c0-15-.06-30,0-45,0-3.42-1.23-8.33,4.16-8.49,5.72-.16,4.24,5,4.26,8.28.12,29.48.07,59,.07,88.44,0,1.66,0,3.33.05,5,.07,2.24.54,3.44,3.3,2.21a12.06,12.06,0,0,1,9.77-.22c3.67,1.65,3.92.32,4.13-2.88,1.1-16.27,2.39-32.53,3.65-48.79,1.68-21.57,3.33-43.14,5.15-64.7.33-4-.51-5.53-5-5.46-17,.26-34,.2-51,0-3.52,0-4.5.86-4.22,4.47,1.81,23.23,3.36,46.47,5,69.71,1.07,14.78,2.21,29.54,3.26,44.32.23,3.1.47,5.32,4.61,3.17A9.31,9.31,0,0,1,49.3,322c5.07,2.35,4.88-.53,4.86-4.08C54.07,302.56,54.12,287.23,54.12,271.91Zm1.61-129.47c0-14.66-.14-29.32.1-44a9.51,9.51,0,0,0-3.57-8.11c-5.44-4.61-10.89-9.21-16.08-14.09a6.1,6.1,0,0,0-6.32-1.57C16.81,78,8.45,88.54,8.62,101.83c.28,23.14.77,46.28,1,69.43,0,3.68.83,5.27,5,5.22s4.94-1.51,4.91-5.26c-.16-19.82-.13-39.64,0-59.45,0-3.35-1.54-8.51,4-8.49,5.27,0,4.22,5,4.23,8.51,0,24.81.1,49.63-.06,74.44,0,4.09,1.11,5.6,5.32,5.36a159.26,159.26,0,0,1,17.48,0c4,.22,5.46-.89,5.38-5.19C55.56,171.75,55.72,157.09,55.73,142.44Zm5.7-1c0,15,.09,30-.06,44.94,0,3.71.85,5.48,5,5.23a106.52,106.52,0,0,1,16.47,0c5.39.51,6.25-1.71,6.21-6.49-.21-24.64-.1-49.29-.09-73.93a20.73,20.73,0,0,1,.22-4.47,4.33,4.33,0,0,1,8.58.36,33.18,33.18,0,0,1,.1,4c0,20.32.05,40.64,0,61,0,3.09.64,4.61,4.11,4.35,2.75-.21,5.08.29,5.12-3.93.22-24.14,1-48.29,1-72.43,0-14-9.44-22.14-21.81-25.45a5,5,0,0,0-5.06,1.17c-5.81,5.39-11.7,10.72-17.7,15.9a5.76,5.76,0,0,0-2,4.79ZM57,29.7c-4.67,0-8.49.08-12.3,0-2.58-.07-3.61,1-3.56,3.54.08,4.82-.21,9.65.11,14.44A17.23,17.23,0,0,0,56.71,63.81c8.78.73,16.38-4.35,18.07-12.76,1.41-7,.51-14.23.52-21.36,0-1.07-.09-2.58-2-1.62C67.81,30.85,61.87,29.17,57,29.7Zm-1.93-8.33v-.09c3.5,0,7,.24,10.49-.06,5.46-.47,9.14-4.13,9.67-9,.25-2.37-.15-3.8-3.07-3.7-5.16.18-10.35-.25-15.48.17-5.41.45-9.65,3.42-12.61,8-1.85,2.84-2,5,2.51,4.74C49.4,21.23,52.24,21.37,55.07,21.37ZM76.86,72.28c-3.37-2.21-6.08-2.58-9.63-1.25a25,25,0,0,1-18.44-.33c-2.41-1-4.45-.55-6.69.32-2,.76-1.69,1.77-.51,2.83,4.94,4.38,9.93,8.68,14.9,13a2.61,2.61,0,0,0,3.93-.07C65.81,82,71.25,77.23,76.86,72.28ZM19.47,193.08c0-7.78,0-7.78-3.5-8-6.52-.46-7.59.69-6.29,7.21a21.83,21.83,0,0,0,3.9,9.52c1.4,1.78,2.13,2.12,3.58,0A11.81,11.81,0,0,0,19.47,193.08ZM45.15,340.6a33.65,33.65,0,0,0,3.48,0c1.86-.2,4.35.76,5.17-1.75.73-2.18-.43-4.39-1.82-5.93a9.66,9.66,0,0,0-5.56-3.08c-4-.62-9.31,3.78-9.12,7.9.24,5.29,4.55,1.93,6.87,2.86A2.67,2.67,0,0,0,45.15,340.6Zm25.93,0a17.42,17.42,0,0,0,3,0c2-.33,4.71,1.1,5.56-1.8.78-2.67-.76-4.82-2.72-6.52A15.14,15.14,0,0,0,74,330.43c-3.46-1.8-6.19.06-8.57,2.13-1.75,1.53-3.18,3.94-2.34,6.23,1.28,3.47,4.65,1.21,7,1.8A4.18,4.18,0,0,0,71.08,340.6ZM97.86,193.15c.47,2-.65,4.81,1.07,7.51,1.93,3,3.09,3.25,5.15.06,2.15-3.34,2.87-7,3.47-10.71.43-2.66.48-5.16-3.37-4.94-3,.17-7.2-1.37-6.34,4.42A28.44,28.44,0,0,1,97.86,193.15Z"/></g></g></svg>