<svg xmlns="http://www.w3.org/2000/svg" viewBox="0 0 115 346.57"><defs><style>.cls-1{fill:#fff;}.cls-2{fill:#288AC1;}.cls-3{fill:#1c5581;}</style></defs><title>3_40</title><g id="Capa_2" data-name="Capa 2"><g id="Layer_1" data-name="Layer 1"><path class="cls-1" d="M97.53,67.77c-4.88-2.49-10.18-3.95-15.48-5.36-3.1-.82-5.16-2.26-2.42-5.75,1.68-2.15,2.23-4.73,2.56-7.43,1.33-11.14.59-22.3.5-33.44,0-4.39-2.21-7.83-6.09-10.21C66.6-.56,56.1-1.57,45.08,2.25,34.32,6,31.73,9.59,31.72,20.82c0,7.5,0,15,0,22.5,0,5.27,1,10.29,4,14.66,1.39,2,1,2.86-1.18,3.56-3.77,1.24-7.41,3.05-11.26,3.86a25.85,25.85,0,0,0-9.07,3.91h86C99.37,68.77,98.48,68.25,97.53,67.77Z"/><path class="cls-1" d="M.49,95.91c.35,14.23.37,28.47.31,42.71H114.15q0-21.74,0-43.47c0-11.3-4.6-20.09-13.87-25.84h-86A31.61,31.61,0,0,0,.49,95.91Z"/><path class="cls-1" d="M.67,173.39c0,6.61-1.49,13.12,0,19.85,1.29,5.85,4.84,11.76,9,14.7h95.68a19.43,19.43,0,0,0,3.75-4.14,32,32,0,0,0,5.7-22.71,166.88,166.88,0,0,1-.6-19c0-7.83,0-15.67,0-23.51H.8C.76,150.21.67,161.8.67,173.39Z"/><path class="cls-2" d="M14.89,209.84c3.83,0,4.38,1.74,4.59,4.7.88,12.45,2,24.89,2.74,37.36.52,8.46,1.23,16.9,2,25.35H90.42c.67-10.05,1.2-20.11,2.16-30.14,1.06-11.1,1.74-22.23,2.62-33.35.16-2,.12-4.11,3.23-3.8a9.32,9.32,0,0,0,6.88-2H9.63A9.12,9.12,0,0,0,14.89,209.84Z"/><path class="cls-2" d="M57.47,346.56H78c8.8,0,10.37-1.33,9.44-10.2-1.23-11.74-.57-23.37.88-35,1-8,1.61-16.07,2.14-24.13H24.18c1.83,21.07,3.8,42.13,3.34,63.34-.09,4.07,1.6,5.8,5.21,6h5.73C44.8,346.54,51.13,346.56,57.47,346.56Z"/><path class="cls-3" d="M57.47,346.56c-8,0-16-.05-24,0-4.13,0-6-1.63-6-6,.64-29.7-3.48-59.13-5.3-88.69-.77-12.47-1.86-24.91-2.74-37.36-.21-3-.76-4.72-4.59-4.7-6.13,0-12.43-8.35-14.24-16.6-1.47-6.73,0-13.24,0-19.85,0-25.83.46-51.66-.18-77.48C.12,81.09,10.75,68,23.28,65.4c3.85-.81,7.49-2.62,11.26-3.86,2.13-.7,2.57-1.56,1.18-3.56-3-4.37-4-9.39-4-14.66,0-7.5,0-15,0-22.5C31.73,9.59,34.32,6,45.08,2.25,56.1-1.57,66.6-.56,76.6,5.58,80.48,8,82.66,11.4,82.69,15.79c.09,11.14.83,22.3-.5,33.44-.33,2.7-.88,5.28-2.56,7.43-2.74,3.49-.68,4.93,2.42,5.75,5.3,1.41,10.6,2.87,15.48,5.36,11.11,5.66,16.52,15,16.58,27.38.1,22.33,0,44.65,0,67a166.88,166.88,0,0,0,.6,19,32,32,0,0,1-5.7,22.71c-2.58,3.66-5.69,6.64-10.63,6.16-3.11-.31-3.07,1.82-3.23,3.8-.88,11.12-1.56,22.25-2.62,33.35-1.74,18.07-2,36.24-4.3,54.27-1.45,11.61-2.11,23.24-.88,35,.93,8.87-.64,10.19-9.44,10.2ZM78.74,322c.15-3.69.83-7.35.85-10.75.12-15,2.08-29.83,3-44.75,1.28-21.27,3.21-42.5,5.08-63.73.36-4.13-1.05-5.12-4.9-5-7,.27-14,.07-21,.07H31.26c-2.2,0-4.35-.34-4,3.23.56,6.47.5,13,1.11,19.45,2.43,25.53,4.16,51.11,5.77,76.71.44,6.81,1.17,13.6,1.73,20.4.19,2.25.68,3.45,3.38,2.16a11.19,11.19,0,0,1,9.27-.35c5,2.29,4.57-.65,4.56-3.87q0-48.73,0-97.48a24.26,24.26,0,0,1,.21-5c.45-2.1,1.74-3.54,4.2-3.43s3.61,1.46,3.75,3.79c.09,1.33.08,2.66.08,4q0,28.76,0,57.49v47.19C66.67,318.15,71.25,318.06,78.74,322ZM18.34,137.28h.05c0-10.65,0-21.31,0-32,0-2.75,1.14-4.75,3.9-4.76s4.14,1.87,4.26,4.59c.07,1.32,0,2.66,0,4,0,13.49-.06,27,0,40.46,0,3.62-1.59,8.35.82,10.54,1.78,1.62,5.92-1.57,9-2.61,1.57-.53,3-.58,3.68,1.31a2.67,2.67,0,0,1-1.61,3.63,44,44,0,0,1-6.91,2.79c-3.5,1-5.54,3.09-5.12,7.27A88.09,88.09,0,0,1,26.55,185c-.12,3.1,1.18,4,4.14,4,6.32-.16,12.66-.24,19,0,3.79.15,5.15-.89,5.11-5-.22-19.48-.14-39,0-58.44a7.39,7.39,0,0,0-3-6.37c-6.9-5.68-13.56-11.64-20.44-17.34-3.26-2.7-4.87-5.26-1.48-9,2.29-2.57,2.52-5.06-.73-7.49A56.33,56.33,0,0,1,22,78.43c-2.08-2.23-4-1.84-5.94,0a22.43,22.43,0,0,0-7,17q0,36.71,0,73.42c0,2.86-.09,5.06,4,5,4,0,5.33-1.34,5.28-5.14C18.27,158.26,18.34,147.77,18.34,137.28Zm69.53,24V113.08c0-2.67,0-5.33,0-8a4.31,4.31,0,0,1,4.38-4.51c2.48,0,4.23,1.79,4.44,4.51.1,1.32.05,2.66.05,4,0,20,.09,40-.07,60,0,3.7,1,4.85,4.76,4.83s4.29-1.53,4.27-4.76c-.1-24.83-.06-49.66,0-74.49,0-6-2.48-10.89-6.31-15.28-2.61-3-5-3.22-7.73,0a53.12,53.12,0,0,1-6.74,6.59c-2.41,1.94-2.78,3.61-.73,6.06,3.43,4.11,2.71,7.19-1.8,10.57-6.87,5.15-13,11.28-19.63,16.79a6.11,6.11,0,0,0-2.64,5c0,20.33,0,40.66,0,61,0,2.9,1.24,3.74,3.93,3.66,4.33-.14,8.67,0,13,0,10.87,0,10.39,0,11-11.06.43-7.61-1-12.9-9.38-14.2A11.1,11.1,0,0,1,76,162.39c-1.53-.74-2.55-1.81-1.66-3.54a2.83,2.83,0,0,1,3.84-1.33C81.11,158.63,84,159.76,87.87,161.24ZM74,18.2c-15.52,9.06-15.52,9.11-30.89,10.22-2.4.18-3.15,1-3.09,3.33.14,4.49-.12,9,.11,13.49a17.05,17.05,0,0,0,16.18,16c9,.43,16.83-5.27,17.52-14.11C74.58,37.76,74,28.26,74,18.2Zm-6.14-7C62.77,7.77,57.67,9,52.8,9.06a17.74,17.74,0,0,0-10.48,4c-1.49,1.12-2.71,2.57-2.13,4.67s2.54,1.89,4.1,2C53.24,20.51,60.82,17.38,67.87,11.15Zm-20,97.43.82-.7c-5-11.48-10.06-22.94-15-34.44-.7-1.63-1.86-1.59-3.24-1.51a5,5,0,0,0-4.23,2.16c-.26.46,1.17,2.09,2,3,1.75,1.75,3.7,3.28,5.47,5,5.56,5.43,5.57,5.46,1.79,12.25-.72,1.29-1.79,2.33-.07,3.75C39.66,101.5,43.77,105.06,47.91,108.58Zm17,230.21c3.37-1.08,6.9-.78,10.38-.77,3.86,0,4.12-2.23,3.06-4.92-1.63-4.16-4.2-6.87-9.4-5.94-4.42.79-6.28,3.54-7.52,7.38C60.3,337.92,62,338.73,64.86,338.79Zm-25.73-267c3.67,8.62,6.82,16,10,23.42a1.46,1.46,0,0,0,1.14.66c1.07,0,1.18-.89,1.33-1.74.41-2.45.83-4.91,1.35-7.34,1.4-6.52-.2-9.36-6.69-11.88C44.28,74.11,42.35,73.17,39.13,71.76ZM64.35,97.28c4-9.07,7.4-16.84,11-25-14.38,4.24-15.78,6.53-12.55,19.75C63.08,93.33,63.52,94.57,64.35,97.28ZM45.56,338v.13c2.15,0,4.3,0,6.45,0,1.11,0,2.17-.1,1.83-1.51-.93-3.85-1.84-7.42-6.59-8.89-4.36-1.34-7.12.61-9.66,3.19a5.36,5.36,0,0,0-1.35,5.54c.87,2.12,3.11,1.4,4.85,1.51C42.57,338.1,44.07,338,45.56,338ZM18.29,189.57c-.89-1.92,2.12-5.8-2.22-7-6.05-1.7-8.45.6-7.3,6.78a24.13,24.13,0,0,0,3.74,9.55c1.89,2.74,2.66,1.9,4.14-.23C18.5,196,18.5,193.11,18.29,189.57Zm78.51,1.15c.27,2.25-.61,4.93.75,7.45,1.46,2.72,3,3.49,4.86.41a22.81,22.81,0,0,0,3.65-13.18c-.09-1.69-.42-2.67-2.43-3-5.77-.82-6.8-.1-6.83,5.45C96.79,188.71,96.8,189.54,96.8,190.72ZM75.35,86.27C71.87,94.21,68.93,101,65.86,108c2.79,0,3.62-1.94,5-3,2.82-2.27,6.26-4.23,8.09-7.16C81.4,93.79,75.9,91.4,75.35,86.27Z"/></g></g></svg>