<svg xmlns="http://www.w3.org/2000/svg" viewBox="0 0 111.34 328.3"><defs><style>.cls-1{fill:#fff;}.cls-2{fill:#1c5581;}</style></defs><title>4_0</title><g id="Capa_2" data-name="Capa 2"><g id="Layer_1" data-name="Layer 1"><path class="cls-1" d="M55.56,328.27h0Z"/><path class="cls-1" d="M33.07,328.3l3.3,0H32C32.35,328.29,32.7,328.31,33.07,328.3Z"/><path class="cls-1" d="M96.92,59.11c-5.75-3.56-12.39-4.59-18.52-7-1.33-.54-3.28-.7-1.77-2.94,5.08-7.57,4.58-16.16,4.24-24.62A25.5,25.5,0,0,0,62,.88,23.57,23.57,0,0,0,35.25,11.47c-7,11.83-6.19,24.45-.7,36.75,1,2.17,1.43,3-1.2,3.8-4,1.19-7.84,2.7-11.76,4A32.63,32.63,0,0,0,7,65.65h97.69A32.82,32.82,0,0,0,96.92,59.11Z"/><path class="cls-1" d="M.15,131.31h111c0-16.15,0-32.3-.2-48.44a26.43,26.43,0,0,0-6.33-17.22H7c-4.23,5-6.52,11.42-6.58,19Q.21,108,.15,131.31Z"/><path class="cls-1" d="M0,175.62a28.45,28.45,0,0,0,6.15,17.53,13.51,13.51,0,0,0,4,3.81h91.05a11.38,11.38,0,0,0,1.58-1.18,24.29,24.29,0,0,0,8.36-16.95c.37-5.3,0-10.65,0-16q0-15.76,0-31.54H.15Q.08,153.47,0,175.62Z"/><path class="cls-1" d="M14.93,197.85c3.66-.56,4.16,1.28,4.34,4.17.65,10.8,1.4,21.6,2.16,32.39.66,9.41,1.52,18.81,2.36,28.21h64c.28-4.12.58-8.23,1-12.34,1.48-15.75,2.42-31.55,3.55-47.33.24-3.23.54-6,5.1-5.12a5.27,5.27,0,0,0,3.84-.87H10.18A7.13,7.13,0,0,0,14.93,197.85Z"/><path class="cls-1" d="M84.83,319.51c-.41-5.83-1-11.65-.19-17.45,1.72-13.1,2.26-26.28,3.13-39.44h-64c1.76,19.78,3.43,39.58,3,59.49-.09,4.22,1.64,5.94,5.24,6.16h4.35c6.22,0,12.45,0,18.67,0H76.56C84.08,328.26,85.36,327.12,84.83,319.51Z"/><path class="cls-2" d="M55.56,328.27c-7.5,0-15-.07-22.49,0-4.32.06-6.39-1.57-6.29-6.19.64-29.38-3.29-58.48-5.35-87.7-.76-10.79-1.51-21.59-2.16-32.39-.18-2.89-.68-4.73-4.34-4.17-3.88.6-6.65-1.86-8.78-4.7A28.45,28.45,0,0,1,0,175.62c.13-30.32.16-60.65.39-91C.5,70.72,8.1,60.73,21.59,56.07c3.92-1.35,7.8-2.86,11.76-4,2.63-.78,2.17-1.63,1.2-3.8-5.49-12.3-6.29-24.92.7-36.75A23.57,23.57,0,0,1,62,.88,25.5,25.5,0,0,1,80.87,24.51c.34,8.46.84,17.05-4.24,24.61-1.51,2.25.44,2.41,1.77,3,6.13,2.45,12.77,3.48,18.52,7,8.9,5.51,13.93,13.51,14.07,23.76.36,26.66.15,53.32.18,80,0,5.33.37,10.68,0,16a24.29,24.29,0,0,1-8.36,16.95c-1.61,1.43-3.46,2.44-5.42,2.05-4.56-.9-4.86,1.89-5.1,5.12-1.13,15.78-2.07,31.58-3.55,47.33-1.62,17.24-1.84,34.59-4.1,51.78-.76,5.8-.22,11.62.19,17.45.53,7.61-.75,8.75-8.27,8.76Zm4.6-77.22c0,15.82.06,31.64,0,47.46,0,3.3.69,4.75,4.25,3.32a11,11,0,0,1,8.29.17c2.51,1,3.63.11,3.8-2.63.28-4.32,1-8.6,1.28-12.92,2.32-32.7,4.56-65.4,7-98.09.22-3-.44-4.24-3.62-4.23q-25,.13-50,0c-3.31,0-4.21,1.23-4.14,4.45.17,8,1.08,15.93,1.69,23.9q3.29,42.79,6.27,85.63c.27,3.82,1.32,5.2,5.14,3.47a7.34,7.34,0,0,1,5.88-.12c5,2.22,5.39-.17,5.38-4.34-.11-30.81,0-61.62-.08-92.43,0-3.48.73-6.87,4.72-6.79,3.72.07,4.23,3.41,4.22,6.69C60.12,220.07,60.16,235.56,60.16,251.05Zm-51-130.66c0,12.66.05,25.32,0,38,0,3,.09,5.07,4.07,5,3.81,0,4.72-1.45,4.7-5.06-.16-20.32-.08-40.64-.07-61,0-1.33,0-2.67.07-4a3.77,3.77,0,0,1,3.83-3.81c2.19-.16,3.45,1.28,4,3.1a15.2,15.2,0,0,1,.37,4.44c0,13.49-.06,27,.07,40.48,0,3.24-1.56,7.46,1,9.47,2.14,1.68,5.46-1.15,8.22-2.1a4.34,4.34,0,0,1,.48-.14c1.38-.26,2.76-.35,3.3,1.31s.46,2.92-1.42,3.65c-2.32.89-4.52,2.1-6.88,2.82-3.28,1-5.07,2.67-4.81,6.4a84.73,84.73,0,0,1,0,11.49c-.22,3.66,1.1,5.14,4.84,5,5.65-.21,11.33-.27,17,0,4.1.2,5.14-1.57,5.12-5.3-.11-18.66-.08-37.32,0-56a8.12,8.12,0,0,0-3.23-6.84C42.77,101.6,36,95.51,29,89.66c-1.84-1.54-2.85-3.43-1.25-5.09,5.3-5.49,1.68-8.78-2.36-12.49-7.16-6.56-9.63-6.14-14.09,2.74a20.46,20.46,0,0,0-2.17,9.59C9.25,96.41,9.19,108.4,9.19,120.39Zm93-.35h0c0-12.32-.07-24.64,0-37A18.1,18.1,0,0,0,97.6,70.83c-4.41-5.2-4.63-5.17-9.56-.44a38,38,0,0,1-4.3,4.13c-3.58,2.46-3.65,5.06-1,8.26,2.25,2.75,2.22,5-1,7.53-6.85,5.48-13.23,11.52-20,17.14-2,1.64-3.05,3.33-3.05,5.86,0,19.32.05,38.64,0,57.95,0,2.94,1,4.27,4.07,4.22q9.24-.15,18.48,0c2.92.05,4.3-1,4.16-4.08a73.3,73.3,0,0,1,0-10.48c.52-5-1.16-7.87-6.32-8.73-1.89-.32-3.58-1.68-5.42-2.42s-2-2.11-1.44-3.64,2-1.67,3.37-1.26a27.28,27.28,0,0,1,5.11,1.84c4,2.16,4.73.51,4.7-3.32q-.21-22,0-44c0-3.68-1.62-9.39,4.08-9.58,6.09-.21,4.25,5.69,4.28,9.25.18,19.82.13,39.63.07,59.45,0,3.29,1.06,4.81,4.62,4.84,3.82,0,3.75-2.2,3.74-4.88C102.17,145.69,102.2,132.87,102.2,120ZM71.54,30.44c-.26,2.55-.9,5.08-3.87,4.91-3.56-.2-8,2.07-10.4-2.3-1.17-2.14-1.85-2.18-2.82-.32-2.61,5-7.09,2.28-10.71,2.59-3.24.27-3.24-3-4.09-5.62-2.37,12.84,5.94,21.89,15.87,22.06C66.39,51.94,72.7,43.71,71.54,30.44ZM44.81,58c-2.69,0-3.13,1.33-2.2,3.22,3.85,7.85,7.8,15.65,11.68,23.49.39.79.71,1.53,1.69,1.49,1.19,0,.91-1.16,1.24-1.83,3.63-7.2,7.22-14.42,10.9-21.6.68-1.34,1.83-2.88,1-4.07-1.22-1.67-3-.28-4.54.13a30.39,30.39,0,0,1-5.33,1C54.22,60.24,49.26,60.18,44.81,58Zm14.24,44.55c6.06-5.22,11.19-9.79,16.5-14.12,2.28-1.86,2.67-3.3.65-5.63-3.16-3.65-2.77-6.94,1.28-10C80,71,82,68.48,84.19,66.24c.63-.65,2.08-1.49,1.09-2.38-2.26-2-5.44-2.06-8.18-3.1-2.17-.83-2.44,1.42-3,2.51C69.3,72.82,64.71,82.47,59.9,92,58.36,95.07,58.73,98.08,59.05,102.53Zm-7.11-.48c1.5-3.77,1.33-6.75-.12-9.7C47.24,83,42.6,73.65,38.08,64.26c-1.41-2.93-3.06-4.65-6.44-2.67a7.77,7.77,0,0,1-2.81,1c-4.42.58-2.88,2.47-1,4.38A50,50,0,0,0,34,72.76c4.38,3.12,4.36,6.45,1.32,10.43-.86,1.13-2.64,2.25-.48,4.06C40.46,92,46,96.89,51.94,102.05Zm3.84-79.82v-.08c4.49,0,9,.06,13.46,0,1.54,0,2.91-.18,2-2.65C69,13.83,62.84,9,56.92,8.69A16.65,16.65,0,0,0,41,18.27c-1.11,2.54-1,4.06,2.33,4C47.47,22.15,51.62,22.23,55.78,22.23ZM43.47,319.74c1.16,0,2.34.08,3.49,0,1.4-.13,3.29.73,4-1.15a5.57,5.57,0,0,0-.82-5.2A8.37,8.37,0,0,0,37.79,312c-1.86,1.67-2.92,3.93-2.18,6.23s3.12,1.31,4.86,1.47C41.46,319.8,42.47,319.73,43.47,319.74Zm24.6,0a17,17,0,0,0,2.47,0c2-.29,4.89,1,5.48-1.83s-.94-5.36-3.7-6.86a7.8,7.8,0,0,0-9.22.72c-2,1.58-3.64,3.71-2.7,6.4.86,2.45,3.38,1.3,5.2,1.57A17,17,0,0,0,68.07,319.73Zm-50.23-140a13.77,13.77,0,0,1,0-1.86c.84-4.75-1.39-6-5.82-5.8-5.23.2-2.89,3.6-3,6a6.24,6.24,0,0,0,.21,2c.93,3.26,1.76,8.24,5,8S18.46,183.06,17.84,179.7Zm76-.72a12.37,12.37,0,0,0-.21,3.46c.53,2.41,1.43,5.28,3.82,5.82,2.21.51,2.52-2.6,3.52-4.16,1.67-2.58,1.56-5.7,2.06-8.62.34-1.95-.48-3-2.62-3.32C95.26,171.41,94.26,172.38,93.8,179Z"/></g></g></svg>