<svg xmlns="http://www.w3.org/2000/svg" viewBox="0 0 159.52 314.86"><defs><style>.cls-1{fill:#fff;}.cls-2{fill:#4190ce;}.cls-3{fill:#1c5581;}</style></defs><title>5_80</title><g id="Capa_2" data-name="Capa 2"><g id="Layer_1" data-name="Layer 1"><path class="cls-1" d="M92.49,54.75c-4.61-1.85-9.33-3.44-14-5-1.8-.62-3.15-1.24-1.7-3.39,4.89-7.22,3.44-15.41,3.33-23.3C79.93,12.5,73.93,5.48,64.69,1.84,55.83-1.64,47.22-.16,39.47,6c-10.69,8.51-9.78,25.41-7.16,36.15.57,2.33,3.89,4.5,2.44,6.46s-4.68,2.19-7.16,3.13c-.77.28-1.65.27-2.45.48C17.42,54.29,11.25,58,7,63h97.18A28.55,28.55,0,0,0,92.49,54.75Z"/><path class="cls-2" d="M.09,125.94H128.62c-3.5-5-7.32-9.92-9.38-15.47a191.45,191.45,0,0,1-9-33.66,28.9,28.9,0,0,0-6-13.84H7A27.67,27.67,0,0,0,.5,80.37C0,95.55.06,110.75.09,125.94Z"/><path class="cls-2" d="M153,157a30.21,30.21,0,0,1-10.58-10.22c-3.92-5.93-7.86-11.85-11.72-17.82q-1-1.55-2.07-3.06H.09v1.91c0,3.27,1.78,6.73,1.15,9.78C-1,148.45.14,159.12,1.8,169.76c1.29,8.29,6.37,13,14.93,14.65,2.65.5,2.47,2.48,2.59,4.14,0,.12,0,.24,0,.36H92.12q.67-9,1.26-18.09c.88-13.9.15-27.9.15-43,10.68,14.19,21.93,26.31,31.38,39.88a15.62,15.62,0,0,1,2.9,9.64c0,3.87,0,7.73,0,11.59h8.9c0-3,0-6,0-9,0-2-.86-4.38,1.95-5.6,4.19-1.82,7.21-5.23,11-8.65a34.2,34.2,0,0,1,1.61,4.29c.56,2.75,2.15,4.29,4.89,3.64a4.17,4.17,0,0,0,3.36-4.41,8,8,0,0,0-.07-1C158.86,163.62,157.17,159.37,153,157Z"/><path class="cls-2" d="M127.76,251.88h8.92q0-31.49,0-63h-8.9Q127.76,220.4,127.76,251.88Z"/><path class="cls-2" d="M24,251.88H87.23c1.45-21,3.33-42,4.89-63H19.34c.37,5.53.45,11.08.8,16.62C21.11,221,22.66,236.43,24,251.88Z"/><path class="cls-2" d="M84.74,305.35c-1.27-13.73.86-27.29,1.67-40.88q.38-6.3.82-12.59H24c1.57,18.53,2.8,37.09,2.26,55.75-.16,5.82,1.45,7.2,7.52,7.21H75.82C84.32,314.84,85.53,314,84.74,305.35Z"/><path class="cls-2" d="M127.76,305.82c0,1.34,0,2.67,0,4,0,3.05,1.79,4.85,4.59,4.78,2.54-.07,4.17-2,4.26-4.67.1-3,.06-6,.06-9V251.88h-8.92Z"/><path class="cls-3" d="M149.66,165.68c-3.79,3.42-6.81,6.83-11,8.65-2.81,1.22-1.95,3.6-1.95,5.6q-.08,60.51,0,121c0,3,0,6-.06,9-.09,2.71-1.72,4.6-4.26,4.67-2.8.07-4.57-1.73-4.59-4.78,0-1.33,0-2.66,0-4q0-64.24,0-128.5a15.62,15.62,0,0,0-2.9-9.64c-9.45-13.57-20.7-25.69-31.38-39.88,0,15.12.73,29.12-.15,43-2,31.24-5.11,62.41-7,93.65-.81,13.59-2.94,27.15-1.67,40.88.79,8.65-.42,9.5-9,9.5q-21,0-42,0c-6.07,0-7.68-1.39-7.52-7.21,1-34.22-4-68.08-6.09-102.1-.36-5.66-.43-11.33-.82-17-.12-1.66.06-3.64-2.59-4.14C8.17,182.8,3.09,178.05,1.8,169.76.14,159.12-1,148.45,1.24,137.63c.63-3-1.15-6.51-1.15-9.78C.07,112,0,96.18.5,80.37,1,66.29,10.16,56.22,25.14,52.24c.8-.21,1.68-.2,2.45-.48,2.48-.94,5.81-1.31,7.16-3.13s-1.87-4.13-2.44-6.46C29.69,31.43,28.78,14.53,39.47,6,47.22-.16,55.83-1.64,64.69,1.84,73.93,5.48,79.93,12.5,80.08,23c.11,7.89,1.56,16.08-3.33,23.3-1.45,2.15-.1,2.77,1.7,3.39,4.71,1.6,9.43,3.19,14,5,10,4,15.87,11.28,17.73,22.06a191.45,191.45,0,0,0,9,33.66c2.47,6.67,7.5,12.41,11.45,18.53,3.86,6,7.8,11.89,11.72,17.82A30.21,30.21,0,0,0,153,157c4.18,2.33,5.87,6.58,6.46,11.2.34,2.64-.69,4.76-3.29,5.37s-4.33-.89-4.89-3.64A34.2,34.2,0,0,0,149.66,165.68ZM60,236.34c0,16.16,0,32.31,0,48.47,0,3.5.81,5.08,4.61,3.48a10.13,10.13,0,0,1,7.81.21c3.07,1.21,4.12.07,4.26-3.11.33-7.81.71-15.64,1.5-23.42,1.75-17.39,2.11-34.88,4.08-52.26,1.34-11.73,1.6-23.58,2.39-35.38.14-2.11-.16-3.6-2.78-3.6q-26.22.06-52.46.05c-2.24,0-3.4.87-3.07,3.33,1.78,13.39,2.15,26.88,3.1,40.32,1.64,23.08,3.75,46.12,5.32,69.2.31,4.61,1,6.55,5.89,4.44a6.82,6.82,0,0,1,4.89-.05c5.83,2.49,5.77-.89,5.76-5.08q-.12-45.72,0-91.44a31.26,31.26,0,0,1,.22-5.48c.41-2.29,1.7-4,4.34-4,2.45.05,3.5,1.76,3.92,3.83a22.21,22.21,0,0,1,.29,4.47Q60,213.35,60,236.34Zm70.43-91.56c-1.31-2.1-2.38-4.16-3.77-6-13.88-18-21.4-38.65-24.83-61A20,20,0,0,0,95.15,66c-1.91-1.76-3.14-1.92-4.94,0a97.58,97.58,0,0,1-7.62,7.19c-2.27,1.9-3,3.46-.79,6.08,3,3.49,3.14,6.46-1.26,9.77-6.87,5.15-13,11.31-19.59,16.84a5.48,5.48,0,0,0-2.33,4.59q0,24,0,48c0,2.51.93,3.66,3.49,3.64,6.5-.05,13-.06,19.5,0,3,0,4.11-1.29,4-4.27a80.11,80.11,0,0,1,0-11.49c.37-4.11-1.35-6.2-5.17-7.05A9.43,9.43,0,0,1,77.17,138c-2-1.35-6.35-1.08-5.07-4.79,1.35-3.9,4.37-1.14,6.7-.37a8.32,8.32,0,0,1,1.45.37c4.22,2.15,5.41.67,5.34-3.77-.21-12.33,0-24.67-.09-37,0-2.67.69-4.71,3.71-4.81s4.53,1.68,4.57,4.68c0,1.49.12,3,0,4.49-.69,12.18,5.68,22,11.33,31.79,3.68,6.38,9.32,11.6,13.9,17.47,1.91,2.45,3.91,2.81,6.47,1.43C127.11,146.61,128.7,145.72,130.42,144.78ZM9.56,112.22c0,11.49,0,22,0,32.47,0,2.79-.22,5.24,3.93,5.26,4.37,0,3.72-2.72,3.72-5.35q0-25,0-49.94c0-3.2-.16-6.88,4.36-7,4.73-.14,4.32,3.54,4.31,6.76q0,16,0,32c0,8.78,0,8.81,8.09,5.69,2-.76,4-1.62,5.2.79,1.31,2.73-1.19,3.78-3,4.07-10.22,1.65-11.51,8.5-10.36,17a16.14,16.14,0,0,1,0,4c-.32,3,.93,4.19,3.95,4.14q9.49-.16,19,0c3,.07,4-1.15,4-4.14-.11-15.65-.07-31.31,0-47a5.86,5.86,0,0,0-2.35-5.08c-7-5.78-13.88-11.79-20.76-17.76-1.91-1.66-4.06-3.5-1.64-6.22,4.38-4.91,2.14-8.33-2.21-11.55a39.57,39.57,0,0,1-5.13-4.73c-1.47-1.56-2.49-1.47-4.14-.06A20.36,20.36,0,0,0,9.14,81.76C9.12,92.25,8.73,102.74,9.56,112.22ZM55,93l1.2.22,14-36.57-1.16-1c-2.8,5.93-6.09,11.27-13.26,11.49-7.57.23-10.48-5.91-14.72-10.51Zm.32-70.81c4.14,0,8.29-.14,12.43,0,2.94.13,3.89-.75,3-3.69-1.74-5.4-8.51-9.82-15.27-9.77S42.29,13.38,40.53,19c-.81,2.58-.12,3.25,2.34,3.2C47,22.12,51.15,22.18,55.29,22.19ZM49.34,97.53c.18-1.36.49-2,.3-2.54C45.27,83.42,40.8,71.88,36.45,60.3c-.8-2.12-2.09-2.31-3.88-1.62-1.54.59-3,1.34-4.6,1.84-3,.95-2.81,2-.53,3.84,2.55,2,4.72,4.57,7.19,6.72,3.1,2.67,4,5.21.95,8.72-1.13,1.28-3.08,3.42-.52,5.57C39.7,89.25,44.27,93.21,49.34,97.53ZM60.79,97l1,.69c4.11-3.53,8.06-7.27,12.39-10.5,3.44-2.57,3.81-4.91,1.07-8.1-2.18-2.55-2.1-4.89.72-7.23s5.4-5.32,8.22-7.87c1.79-1.61,1.7-2.29-.59-3.35C76,57.17,76,57.1,73.2,64.69c-.4,1.09-.89,2.14-1.31,3.23ZM40.27,28.85A16.27,16.27,0,0,0,41,40.34c1.2,2.7,2.5,4.36,6,2.06,5.25-3.48,11.13-3.1,16.67-.55,4.59,2.1,5.56,1.9,7.17-3a16.18,16.18,0,0,0,.29-10.62c-.06,3.88,0,6.84-3.36,6.94-4.44.13-9.56,1.88-12.15-4.77-2.46,6.85-7.64,4.79-12,4.76C40.34,35.19,40.52,32.37,40.27,28.85ZM67.42,306.31a14.77,14.77,0,0,0,2.49,0c2.24-.4,5.82,1.3,6.32-2s-2-5.89-5.11-7.22a7.92,7.92,0,0,0-8.43,1.37,6.05,6.05,0,0,0-2.36,6.2c.75,2.8,3.3,1.38,5.1,1.68A13.2,13.2,0,0,0,67.42,306.31Zm-24.73,0c1.15,0,2.31.08,3.46,0,1.71-.16,4,.6,4.71-1.68s-.49-4.3-1.88-5.87c-2.52-2.85-7.95-3.05-10.88-.48-1.86,1.63-3.85,3.67-3,6.34s3.63,1.41,5.6,1.71A14.52,14.52,0,0,0,42.69,306.31ZM135.4,166c1.65.07,5.83-3.77,5.87-5.39,0-1.88-4.79-8.05-6.28-7.57-2.52.8-5.83.62-7,3.72C127.44,158.11,134,166,135.4,166Zm-118.18-.59a7.2,7.2,0,0,1,0-1.6c.51-3.75-.75-5.44-4.86-5.21-4.75.27-2.93,3.42-2.93,5.76a11.18,11.18,0,0,0,.76,3.38c1,2.87,1.57,7.5,4.95,6.83S17.63,169.43,17.22,165.42Z"/></g></g></svg>