<svg xmlns="http://www.w3.org/2000/svg" width="13.115" height="14" viewBox="0 0 13.115 14">
  <g id="gender" transform="translate(-16.179)">
    <g id="Grupo_10462" data-name="Grupo 10462" transform="translate(16.179)">
      <path id="Trazado_23826" data-name="Trazado 23826" d="M26.781,0V.857h.967L25.862,2.646a3.672,3.672,0,0,0-5.846.793c-.054,0-.108,0-.162,0a3.675,3.675,0,0,0-.429,7.326V11.9H18.143v.857h1.283V14h.857V12.757h1.339V11.9H20.283V10.761a3.683,3.683,0,0,0,2.789-1.876c.054,0,.108,0,.162,0a3.674,3.674,0,0,0,3.154-5.561l2.049-1.942V2.45h.857V0ZM19.855,9.929a2.818,2.818,0,0,1-.18-5.631,3.678,3.678,0,0,0,2.487,4.43A2.817,2.817,0,0,1,19.855,9.929Zm2.692-1.983a2.819,2.819,0,0,1-2-3.569,2.819,2.819,0,0,1,2,3.569Zm.868.079A3.678,3.678,0,0,0,20.928,3.6a2.818,2.818,0,1,1,2.487,4.43Z" transform="translate(-16.179)" fill="#707070"/>
    </g>
  </g>
</svg>
