<svg xmlns="http://www.w3.org/2000/svg" xmlns:xlink="http://www.w3.org/1999/xlink" width="28" height="28" viewBox="0 0 28 28">
  <defs>
    <clipPath id="clip-ic_femenino_selected">
      <rect width="28" height="28"/>
    </clipPath>
  </defs>
  <g id="ic_femenino_selected" clip-path="url(#clip-ic_femenino_selected)">
    <rect width="28" height="28" fill="transparent"/>
    <path id="Trazado_21518" data-name="Trazado 21518" d="M10.581,5.29a5.34,5.34,0,0,0-.06-.806c-.014-.086-.029-.176-.046-.259s-.037-.173-.06-.256a5.288,5.288,0,0,0-.472-1.2c-.081-.15-.17-.3-.265-.438s-.2-.276-.305-.409c-.055-.066-.109-.13-.167-.193s-.115-.124-.176-.184-.121-.118-.184-.176A5.309,5.309,0,0,0,7.921.7Q7.809.632,7.7.576A5.295,5.295,0,0,0,.029,4.752C.023,4.8.02,4.841.017,4.885c-.006.089-.012.178-.014.271C0,5.2,0,5.247,0,5.29v.075H0a5.3,5.3,0,0,0,4.531,5.161v.99H3.592a.76.76,0,1,0,0,1.52h.938v.938a.76.76,0,1,0,1.52,0v-.938h.938a.76.76,0,0,0,0-1.52H6.05v-.99a5.3,5.3,0,0,0,4.531-5.161h0C10.581,5.342,10.581,5.316,10.581,5.29ZM5.29,9.061A3.773,3.773,0,0,1,1.523,5.368h0c0-.026,0-.049,0-.075A3.779,3.779,0,0,1,3.739,1.857a3.528,3.528,0,0,1,.343-.135c.058-.02.118-.037.176-.055a3.769,3.769,0,0,1,4.8,3.627.651.651,0,0,1,0,.075h0A3.767,3.767,0,0,1,5.29,9.061Z" transform="translate(9 7)" fill="#fff"/>
  </g>
</svg>
