<svg xmlns="http://www.w3.org/2000/svg" xmlns:xlink="http://www.w3.org/1999/xlink" width="28" height="28" viewBox="0 0 28 28">
  <defs>
    <clipPath id="clip-ic_masculino_selected">
      <rect width="28" height="28"/>
    </clipPath>
  </defs>
  <g id="ic_masculino_selected" clip-path="url(#clip-ic_masculino_selected)">
    <rect width="28" height="28" fill="transparent"/>
    <path id="Trazado_21517" data-name="Trazado 21517" d="M14.881,1.129a.2.2,0,0,0-.006-.041.25.25,0,0,0-.009-.049c0-.015-.009-.032-.012-.047a.167.167,0,0,0-.012-.041.256.256,0,0,1-.015-.044c-.006-.015-.009-.026-.015-.041a.266.266,0,0,0-.02-.041.266.266,0,0,0-.02-.041A.291.291,0,0,0,14.75.745c-.009-.012-.015-.026-.023-.038a.416.416,0,0,0-.032-.044l-.02-.029c-.02-.023-.041-.047-.061-.067a.457.457,0,0,0-.07-.061l-.026-.02C14.5.474,14.489.463,14.471.451a.43.43,0,0,0-.038-.023A.291.291,0,0,0,14.393.4L14.355.387l-.044-.02C14.3.361,14.285.358,14.273.352L14.224.335,14.186.326c-.017,0-.035-.009-.049-.012s-.029,0-.041-.006A.254.254,0,0,0,14.049.3a.56.56,0,0,0-.07,0H11.031a.928.928,0,0,0,0,1.855h.689l-1.4,1.39a6.45,6.45,0,1,0-4.2,11.6q.166.009.331.009A6.449,6.449,0,0,0,11.633,4.862l1.4-1.4V4.15a.928.928,0,1,0,1.855,0V1.219h0C14.887,1.187,14.884,1.158,14.881,1.129ZM6.8,13.282c-.116.009-.236.015-.352.015a4.6,4.6,0,0,1-4.6-4.6V8.648h0a4.594,4.594,0,0,1,9.188,0h0V8.7A4.6,4.6,0,0,1,6.8,13.282Z" transform="translate(7 6.7)" fill="#fff"/>
  </g>
</svg>
