<svg xmlns="http://www.w3.org/2000/svg" xmlns:xlink="http://www.w3.org/1999/xlink" width="28" height="28" viewBox="0 0 28 28">
  <defs>
    <clipPath id="clip-ic_particular_selected">
      <rect width="28" height="28"/>
    </clipPath>
  </defs>
  <g id="ic_particular_selected" clip-path="url(#clip-ic_particular_selected)">
    <rect width="28" height="28" fill="transparent"/>
    <g id="Grupo_10421" data-name="Grupo 10421" transform="translate(8 7)">
      <path id="Trazado_18332" data-name="Trazado 18332" d="M26.692,6.624A3.312,3.312,0,1,0,23.38,3.312a3.315,3.315,0,0,0,3.312,3.312Zm0,0" transform="translate(-20.24)" fill="#fff"/>
      <path id="Trazado_18333" data-name="Trazado 18333" d="M12.9,62.075A2.916,2.916,0,0,0,10.9,59.3h-.005l-1.753-.29a.293.293,0,0,0-.361.18L6.79,64.647a.359.359,0,0,1-.674,0L4.128,59.193A.294.294,0,0,0,3.852,59c-.028,0-1.837.3-1.837.3A2.935,2.935,0,0,0,0,62.09v3.986H12.9Zm0,0" transform="translate(0 -51.076)" fill="#fff"/>
      <path id="Trazado_18334" data-name="Trazado 18334" d="M43.205,57.632a.429.429,0,0,0-.317-.132H42a.429.429,0,0,0-.317.132.41.41,0,0,0-.054.485l.474.713L41.885,60.7l.436,1.16a.133.133,0,0,0,.25,0l.436-1.16-.222-1.871.473-.713a.413.413,0,0,0-.054-.485Zm0,0" transform="translate(-35.993 -49.778)" fill="#fff"/>
    </g>
  </g>
</svg>
