<svg xmlns="http://www.w3.org/2000/svg" xmlns:xlink="http://www.w3.org/1999/xlink" width="28" height="28" viewBox="0 0 28 28">
  <defs>
    <clipPath id="clip-ic_PM_selected">
      <rect width="28" height="28"/>
    </clipPath>
  </defs>
  <g id="ic_PM_selected" clip-path="url(#clip-ic_PM_selected)">
    <rect width="28" height="28" fill="transparent"/>
    <g id="Grupo_10421" data-name="Grupo 10421" transform="translate(8 7)">
      <path id="Trazado_18332" data-name="Trazado 18332" d="M26.692,6.624A3.312,3.312,0,1,0,23.38,3.312a3.315,3.315,0,0,0,3.312,3.312Zm0,0" transform="translate(-20.24)" fill="#fff"/>
      <path id="Trazado_18333" data-name="Trazado 18333" d="M12.9,62.075A2.916,2.916,0,0,0,10.9,59.3h-.005l-1.753-.29a.293.293,0,0,0-.361.18L6.79,64.647a.359.359,0,0,1-.674,0L4.128,59.193A.294.294,0,0,0,3.852,59c-.028,0-1.837.3-1.837.3A2.935,2.935,0,0,0,0,62.09v3.986H12.9Zm0,0" transform="translate(0 -51.076)" fill="#fff"/>
      <path id="Trazado_18334" data-name="Trazado 18334" d="M43.205,57.632a.429.429,0,0,0-.317-.132H42a.429.429,0,0,0-.317.132.41.41,0,0,0-.054.485l.474.713L41.885,60.7l.436,1.16a.133.133,0,0,0,.25,0l.436-1.16-.222-1.871.473-.713a.413.413,0,0,0-.054-.485Zm0,0" transform="translate(-35.993 -49.778)" fill="#fff"/>
    </g>
    <g id="Grupo_10420" data-name="Grupo 10420" transform="translate(7 7)">
      <path id="Trazado_18341" data-name="Trazado 18341" d="M20.072,28.437a.261.261,0,0,0,.178.072.251.251,0,0,0,.25-.25.261.261,0,0,0-.072-.178.267.267,0,0,0-.356,0,.261.261,0,0,0-.072.178.267.267,0,0,0,.072.178Zm0,0" transform="translate(-13.75 -19.259)" fill="#fff"/>
      <path id="Trazado_18342" data-name="Trazado 18342" d="M16.071,26.783a.245.245,0,0,0,.178.072.264.264,0,0,0,.178-.072l.75-.75a.25.25,0,1,0-.353-.353l-.75.75a.248.248,0,0,0,0,.353Zm0,0" transform="translate(-10.999 -17.605)" fill="#fff"/>
      <path id="Trazado_18343" data-name="Trazado 18343" d="M14.472,29.68a.252.252,0,1,0,.428.178.274.274,0,0,0-.072-.178.267.267,0,0,0-.356,0Zm0,0" transform="translate(-9.9 -20.359)" fill="#fff"/>
      <path id="Trazado_18344" data-name="Trazado 18344" d="M11.455,32.355a.264.264,0,0,0,.178-.072l2.25-2.25a.25.25,0,0,0-.353-.353l-2.25,2.25a.248.248,0,0,0,.175.425Zm0,0" transform="translate(-7.705 -20.355)" fill="#fff"/>
      <path id="Trazado_18345" data-name="Trazado 18345" d="M11.455,27.105a.264.264,0,0,0,.178-.072l1-1a.25.25,0,1,0-.353-.353l-1,1a.248.248,0,0,0,.175.425Zm0,0" transform="translate(-7.705 -17.605)" fill="#fff"/>
      <path id="Trazado_18346" data-name="Trazado 18346" d="M11.455,32.205a.264.264,0,0,0,.178-.072l.5-.5a.25.25,0,0,0-.353-.353l-.5.5a.248.248,0,0,0,.175.425Zm0,0" transform="translate(-7.705 -21.455)" fill="#fff"/>
      <path id="Trazado_18347" data-name="Trazado 18347" d="M14.938,2.75A3.856,3.856,0,0,0,11.75.034V0h-8A3.864,3.864,0,0,0,.066,2.75H0V15H15V2.75ZM11.244.5l.237.009A3.361,3.361,0,0,1,14.412,2.75H11.2A3.589,3.589,0,0,0,9.534.5h1.709ZM7.75.5a3.093,3.093,0,0,1,2.934,2.25H7.75Zm0,2.75h3V3.5a1.5,1.5,0,1,1-3,0V3.25Zm1.5,3v7H1v-7Zm-5-2.75V3.25h3V3.5a1.5,1.5,0,1,1-3,0Zm3-.75H4.313A3.1,3.1,0,0,1,7.247.5V2.75ZM3.756.5H5.466A3.589,3.589,0,0,0,3.8,2.75H.587A3.367,3.367,0,0,1,3.756.5ZM.5,3.25H3.75V3.5A1.5,1.5,0,0,1,2.25,5H2A1.5,1.5,0,0,1,.5,3.5V3.25Zm.25,11.5H.5a.25.25,0,1,1,0-.5H.75a.25.25,0,1,1,0,.5ZM1,14H.75a.25.25,0,1,1,0-.5H1A.25.25,0,1,1,1,14Zm.75.75H1.5a.25.25,0,1,1,0-.5h.25a.25.25,0,1,1,0,.5ZM2,14H1.75a.25.25,0,1,1,0-.5H2A.25.25,0,1,1,2,14Zm.75.75H2.5a.25.25,0,1,1,0-.5h.25a.25.25,0,1,1,0,.5ZM3,14H2.75a.25.25,0,1,1,0-.5H3A.25.25,0,1,1,3,14Zm.75.75H3.5a.25.25,0,1,1,0-.5h.25a.25.25,0,1,1,0,.5ZM4,14H3.75a.25.25,0,1,1,0-.5H4A.25.25,0,1,1,4,14Zm.75.75H4.5a.25.25,0,1,1,0-.5h.25a.25.25,0,1,1,0,.5ZM5,14H4.75a.25.25,0,1,1,0-.5H5A.25.25,0,1,1,5,14Zm.75.75H5.5a.25.25,0,1,1,0-.5h.25a.25.25,0,1,1,0,.5ZM6,14H5.75a.25.25,0,1,1,0-.5H6A.25.25,0,1,1,6,14Zm.75.75H6.5a.25.25,0,1,1,0-.5h.25a.25.25,0,1,1,0,.5ZM7,14H6.75a.25.25,0,1,1,0-.5H7A.25.25,0,1,1,7,14Zm.75.75H7.5a.25.25,0,1,1,0-.5h.25a.25.25,0,1,1,0,.5ZM8,14H7.75a.25.25,0,1,1,0-.5H8A.25.25,0,1,1,8,14Zm.75.75H8.5a.25.25,0,1,1,0-.5h.25a.25.25,0,0,1,0,.5ZM9,14H8.75a.25.25,0,1,1,0-.5H9A.25.25,0,1,1,9,14Zm.75.75H9.5a.25.25,0,1,1,0-.5h.25a.25.25,0,0,1,0,.5Zm3.75-.25H10.25v-3H13.5v3Zm0-3.5H10.25V8.375a1.625,1.625,0,0,1,3.25,0Zm1-7.5A1.5,1.5,0,0,1,13,5h-.25a1.5,1.5,0,0,1-1.5-1.5V3.25H14.5Zm0,0" fill="#fff"/>
    </g>
  </g>
</svg>
