<svg xmlns="http://www.w3.org/2000/svg" viewBox="0 0 75 75">
  <defs>
    <style>
      .cls-1 {
        fill: #3dcdbb;
      }

      .cls-2 {
        fill: #fff;
      }
    </style>
  </defs>
  <g id="Group_6900" data-name="Group 6900" transform="translate(-14086 -3700)">
    <circle id="Ellipse_318" data-name="Ellipse 318" class="cls-1" cx="37.5" cy="37.5" r="37.5" transform="translate(14086 3700)"/>
    <path id="Path_13281" data-name="Path 13281" class="cls-2" d="M69.816,103.54V90.056H66.7V86.6h7.422v16.94H69.816Zm0,0" transform="translate(14044.896 3642.754)"/>
    <path id="Path_13282" data-name="Path 13282" class="cls-2" d="M135.874,90.411a3.97,3.97,0,0,1-2.134,3.513,4.63,4.63,0,0,1,3.022,4.287c0,3.04-2.7,4.986-6.931,4.986s-6.931-1.907-6.931-4.91a4.742,4.742,0,0,1,3.21-4.344,4.235,4.235,0,0,1-2.342-3.626c0-2.7,2.361-4.419,6.043-4.419,3.72-.038,6.062,1.737,6.062,4.513Zm-8.914,7.422c0,1.435,1.02,2.228,2.87,2.228,1.87,0,2.908-.774,2.908-2.228,0-1.4-1.039-2.191-2.908-2.191-1.851-.019-2.87.793-2.87,2.191Zm.434-7.176c0,1.209.869,1.888,2.436,1.888s2.436-.68,2.436-1.888c0-1.265-.869-1.964-2.436-1.964s-2.436.7-2.436,1.964Zm0,0" transform="translate(13999.31 3643.324)"/>
    <path id="Path_13283" data-name="Path 13283" class="cls-2" d="M44.247,18.262A20.468,20.468,0,1,1,31.405,5.42V.888A24.843,24.843,0,1,0,48.779,18.262Zm0,0" transform="translate(14099 3713)"/>
    <path id="Path_13284" data-name="Path 13284" class="cls-2" d="M192.658,14.859V10.1H189.24v4.759H184.5v3.418h4.74v4.759h3.418V18.277h4.759V14.859Zm0,0" transform="translate(13949.343 3704.807)"/>
  </g>
</svg>
