<svg xmlns="http://www.w3.org/2000/svg" viewBox="0 0 75 75">
  <defs>
    <style>
      .cls-1 {
        fill: #3dcdbb;
      }

      .cls-2 {
        fill: #fff;
        fill-rule: evenodd;
      }
    </style>
  </defs>
  <g id="Group_6901" data-name="Group 6901" transform="translate(-14086 -3818)">
    <circle id="Ellipse_317" data-name="Ellipse 317" class="cls-1" cx="37.5" cy="37.5" r="37.5" transform="translate(14086 3818)"/>
    <path id="Path_374" data-name="Path 374" class="cls-2" d="M15.217,5.757V1.919A2.113,2.113,0,0,0,13.208,0,2.113,2.113,0,0,0,11.2,1.919V5.757a2.113,2.113,0,0,0,2.008,1.919,2.113,2.113,0,0,0,2.008-1.919Zm0,0" transform="translate(14119.408 3835.73)"/>
    <path id="Path_375" data-name="Path 375" class="cls-2" d="M6.511,7.675A1.585,1.585,0,0,0,8.017,6.236v-4.8A1.585,1.585,0,0,0,6.511,0h-1A1.585,1.585,0,0,0,4,1.439v4.8A1.585,1.585,0,0,0,5.506,7.675Zm0,0" transform="translate(14108.532 3835.73)"/>
    <path id="Path_376" data-name="Path 376" class="cls-2" d="M8.034,1.6H0V38.059H42.177V1.6H34.143V5.2c0,1.2-1.255,2.159-3.013,2.159H29.122c-1.757,0-3.013-.959-3.013-2.159V1.6H16.067V5.2c0,1.2-1.255,2.159-3.013,2.159H11.046C9.289,7.357,8.034,6.4,8.034,5.2ZM34.143,15.032h6.025v5.757H34.143Zm0,7.675h6.025v5.757H34.143Zm0,7.675h6.025V35.42a.787.787,0,0,1-.753.72H34.143ZM26.109,15.032h6.025v5.757H26.109Zm0,7.675h6.025v5.757H26.109Zm0,7.675h6.025V36.14H26.109ZM18.076,15.032H24.1v5.757H18.076Zm0,15.351H24.1V36.14H18.076ZM10.042,15.032h6.025v5.757H10.042Zm0,7.675h6.025v5.757H10.042Zm0,7.675h6.025V36.14H10.042ZM8.034,36.14H2.762q-.753,0-.753-.72V30.383H8.034Zm0-7.675H2.008V22.708H8.034Zm0-7.675H2.008V15.032H8.034Zm0,0" transform="translate(14102.49 3837.968)"/>
  </g>
</svg>
