<svg xmlns="http://www.w3.org/2000/svg" viewBox="0 0 75 75">
  <defs>
    <style>
      .cls-1 {
        fill: #00B9BE;
      }

      .cls-2, .cls-3 {
        fill: none;
      }

      .cls-2 {
        stroke-linecap: round;
      }

      .cls-3 {
        stroke: #fff;
        stroke-linecap: square;
        stroke-width: 2px;
      }

      .cls-4, .cls-5 {
        stroke: none;
      }

      .cls-5 {
        fill: #fff;
      }
    </style>
  </defs>
  <g id="Group_6902" data-name="Group 6902" transform="translate(-14714 -3706)">
    <circle id="Ellipse_326" data-name="Ellipse 326" class="cls-1" cx="37.5" cy="37.5" r="37.5" transform="translate(14714 3706)"/>
    <g id="Path_13290" data-name="Path 13290" class="cls-2" transform="translate(14730 3721)">
      <path class="cls-4" d="M22,0A22,22,0,1,1,0,22,22,22,0,0,1,22,0Z"/>
      <path class="cls-5" d="M 22.00029945373535 5 C 17.45935440063477 5 13.19019889831543 6.768344879150391 9.979267120361328 9.979267120361328 C 6.768344879150391 13.19019889831543 5 17.45935440063477 5 22.00029945373535 C 5 26.54124450683594 6.768344879150391 30.81039810180664 9.979267120361328 34.02133178710938 C 13.19019889831543 37.23225402832031 17.45935440063477 39.0005989074707 22.00029945373535 39.0005989074707 C 26.54124450683594 39.0005989074707 30.81039810180664 37.23225402832031 34.02133178710938 34.02133178710938 C 37.23225402832031 30.81039810180664 39.0005989074707 26.54124450683594 39.0005989074707 22.00029945373535 C 39.0005989074707 17.45935440063477 37.23225402832031 13.19019889831543 34.02133178710938 9.979267120361328 C 30.81039810180664 6.768344879150391 26.54124450683594 5 22.00029945373535 5 M 22.00029945373535 0 C 34.15073394775391 0 44.0005989074707 9.849864959716797 44.0005989074707 22.00029945373535 C 44.0005989074707 34.15073394775391 34.15073394775391 44.0005989074707 22.00029945373535 44.0005989074707 C 9.849864959716797 44.0005989074707 0 34.15073394775391 0 22.00029945373535 C 0 9.849864959716797 9.849864959716797 0 22.00029945373535 0 Z"/>
    </g>
    <path id="Path_13287" data-name="Path 13287" class="cls-3" d="M14271.5,4522.667v11.116h11.963" transform="translate(480.499 -790.783)"/>
  </g>
</svg>
