<svg xmlns="http://www.w3.org/2000/svg" viewBox="0 0 75 75">
  <defs>
    <style>
      .cls-1 {
        fill: #3dcdbb;
      }

      .cls-2 {
        fill: none;
      }

      .cls-3 {
        fill: #fff;
      }
    </style>
  </defs>
  <g id="Group_6917" data-name="Group 6917" transform="translate(-22967 -5648)">
    <circle id="Ellipse_337" data-name="Ellipse 337" class="cls-1" cx="37.5" cy="37.5" r="37.5" transform="translate(22967 5648)"/>
    <g id="Group_6884" data-name="Group 6884" transform="translate(18229 5219)">
      <rect id="Rectangle_4415" data-name="Rectangle 4415" class="cls-2" width="40.668" height="40.668" transform="translate(4755 446)"/>
      <g id="Group_3478" data-name="Group 3478" transform="translate(4761.354 448.542)">
        <path id="Path_1075" data-name="Path 1075" class="cls-3" d="M78.041,16.873A8.169,8.169,0,0,0,84.01,14.4a8.155,8.155,0,0,0,2.471-5.969A8.169,8.169,0,0,0,84.01,2.463a8.455,8.455,0,0,0-11.938.009A8.15,8.15,0,0,0,69.6,8.432,8.169,8.169,0,0,0,72.071,14.4a8.169,8.169,0,0,0,5.969,2.471Zm0,0" transform="translate(-63.648 0)"/>
        <path id="Path_1076" data-name="Path 1076" class="cls-3" d="M29.153,207.823c-.051-.684-.145-1.428-.282-2.215a17.255,17.255,0,0,0-.547-2.223,10.6,10.6,0,0,0-.915-2.078,7.744,7.744,0,0,0-1.377-1.8,6.172,6.172,0,0,0-1.984-1.249,6.766,6.766,0,0,0-2.531-.462,2.543,2.543,0,0,0-1.368.582c-.41.265-.889.582-1.428.924a8.275,8.275,0,0,1-1.847.812,7.466,7.466,0,0,1-2.258.368,7.131,7.131,0,0,1-2.258-.368,8.275,8.275,0,0,1-1.847-.812c-.53-.342-1.009-.65-1.428-.924a2.543,2.543,0,0,0-1.368-.582,6.766,6.766,0,0,0-2.531.462A6.172,6.172,0,0,0,3.2,199.51a7.744,7.744,0,0,0-1.377,1.8,11.462,11.462,0,0,0-.915,2.078,17.612,17.612,0,0,0-.547,2.223,20.8,20.8,0,0,0-.291,2.215c-.043.667-.068,1.368-.068,2.07a5.828,5.828,0,0,0,1.727,4.4,6.223,6.223,0,0,0,4.455,1.625H23.047A6.237,6.237,0,0,0,27.5,214.3a5.828,5.828,0,0,0,1.727-4.4c-.009-.71-.034-1.4-.077-2.07Zm0,0" transform="translate(0 -180.884)"/>
      </g>
    </g>
  </g>
</svg>
