<svg xmlns="http://www.w3.org/2000/svg" viewBox="0 0 115.48 389.8"><defs><style>.cls-1{fill:#00aeef;}.cls-2{fill:#fff;}.cls-3{fill:#1c5581;}</style></defs><title>H80</title><g id="Capa_2" data-name="Capa 2"><g id="Layer_1" data-name="Layer 1"><path class="cls-1" d="M62.23,82.05h-12C54.41,84,58.8,83.93,62.23,82.05Z"/><path class="cls-1" d="M95.22,95.72A199.86,199.86,0,0,0,76.72,84.9c-1.1-.57-3.53.22-4.71,1.18C63.52,93,53.57,94.46,45,88.71c-8-5.4-13.55-3.16-20,1.15-1.79,1.2-4.11,1.85-5.49,3.39-2.27,2.52-5.18,5.36-5.72,8.43C11.56,114.77,9,128,8.56,141.18c-.16,5.2-.11,10.41,0,15.62.34,10.75,1.19,21.51,1.88,32.25.41,6.48,1.44,13.07,6.18,19.37.14-2.25.26-3.52.3-4.8l1.41-46.82q.32-10.29.64-20.57c.1-3.21.36-7,4.73-6.79s4,3.83,3.89,7.21Q27.3,146.73,27,156.8c-.32,11.1-.62,22.19-1,33.28-.14,4.08,1.78,5.09,5.47,5.06,17.66-.11,35.33-.16,53,0,4.54,0,5.75-1.77,5.61-6-.35-10.81-.62-21.62-.9-32.43-.18-6.84-.36-13.67-.58-20.51-.09-3.18-.38-6.52,3.72-6.86s4.77,2.84,4.87,6.1q.33,10.64.65,21.27.63,20.82,1.27,41.63c0,1.58,0,3.17,0,4.76l1,.15a35.12,35.12,0,0,0,1.71-5.52c1.53-10.68,3-21.37,4.32-32.09.36-3,.61-6,.78-8.93a146.84,146.84,0,0,0-7.31-54.66A12.87,12.87,0,0,0,95.22,95.72Z"/><path class="cls-1" d="M78.88,318.44q.62-6.07,1.24-12.15,3.16-30.92,6.32-61.83c.44-4.3.86-8.61,1.29-12.91Q88.86,220.12,90,208.7c.3-3-.37-5.18-4.18-5.16q-27.73.11-55.48,0c-2.95,0-4.29,1.32-4.18,4.24.14,3.82.12,7.66.42,11.48q.48,6.15,1,12.29,2.34,29.67,4.71,59.34.62,7.71,1.24,15.4c1.25,15.43,2.5,30.86,3.51,46.3.48,7.19,2.44,14.54-1,21.67-.5,1,.33,3.37,1.31,4.31A11.85,11.85,0,0,0,40.93,381h6.2l.15-.05c3.91-1.5,3.67-4.67,3.67-7.87q0-33.4,0-66.83,0-25.55,0-51.11c0-2-.19-4.2.6-5.88.64-1.35,2.66-2.88,4-2.82s2.69,1.92,3.57,3.29c.54.85.23,2.27.23,3.44q0,26.53,0,53.08v6.89c0,20.33-.11,40.65.15,61,0,2.2,1.61,5.47,3.4,6.34a8.27,8.27,0,0,0,1.47.55h4.08a12,12,0,0,0,5.67-3.69c1.32-1.47,1.61-4.27,1.59-6.46,0-3.42-1.32-6.88-1-10.23C75.88,346.57,77.44,332.51,78.88,318.44Z"/><path class="cls-2" d="M34.74,54a15.59,15.59,0,0,1,5,5.53c3.12,6.59,7.06,11.71,15.18,11.67,7.28,0,11.52-3.5,15.21-11.55,1-2.29,3.88-3.7,5.33-5.89.92-1.39,1.69-4.44,1-5.07C73.52,46,74,43.27,75.1,40c.7-2,.72-4.23,1.05-6.36.4-5.68-1.84-9.58-7-12.2a48.89,48.89,0,0,1-9.13-6.09c-3-2.54-5.34-3.32-9.55-1.47-13.75,6-17.7,13-14.82,27.74A9.83,9.83,0,0,1,34,48.29C32.25,50.79,32.19,52.12,34.74,54Z"/><path class="cls-2" d="M50.2,82.05h12a10.85,10.85,0,0,0,3.42-2.9h-20A18.84,18.84,0,0,0,50.2,82.05Z"/><path class="cls-3" d="M98.1,87.06a90.07,90.07,0,0,0-8.57-5c-.89-.49-1.78-1-2.66-1.5C82.2,77.81,77.58,75,72.12,71.74c3.95-4.58,7.12-8.57,10.62-12.22,3.2-3.34,4-7,3.27-11.46a77.06,77.06,0,0,1-1.38-13.6c.17-9.34-3.1-16.17-11.53-21a58.91,58.91,0,0,1-8.44-6.16c-2.26-1.9-4.5-3.86-6.84-5.64C56.72.83,54.57-.34,54,.09A31.11,31.11,0,0,1,41.8,5.73c-.13,0-.22.24-.33.36l-1,1.22a69,69,0,0,1-6.53,7.2c-7.09,6.26-8.83,14.08-7.95,23.07A22,22,0,0,1,25,46.19c-1.7,5.28-1,9.65,2.87,13.77,3.48,3.68,6.49,7.79,10.52,12.7-6.4,3.51-11.74,6.51-17.1,9.39l-.52.28c-7.63,4.1-14.14,9.47-15.57,18.4C3,114.49.52,128.35.1,142.23,0,147.08,0,151.94.1,156.8c.28,11.26,1.14,22.54,2,33.77.75,10.05,3.07,20.18,11.24,27,4.18,3.47,5.44,7.16,5.55,12,0,.67.05,1.35.08,2,.06,1.65.15,3.3.28,4.95q2.31,29.1,4.65,58.2.46,5.79.94,11.59c1,12.22,2,24.44,2.69,36.67.56,10.18,3.53,20.44-.46,30.63-.59,1.51-.08,3.69.5,5.36a19.58,19.58,0,0,0,.89,2.09c3,6.13,8.81,9.52,14.89,8.61,8.73-1.3,17.19.12,25.68-.47A17.8,17.8,0,0,0,82.58,381a14.56,14.56,0,0,0,2.21-11.53,41.28,41.28,0,0,1-1.28-12.23c.28-6.8,1.24-13.57,1.94-20.36Q87,321.6,88.59,306.29q3.84-37.38,7.77-74.74l.15-1.35a31.67,31.67,0,0,1,3-10.69c2.19-4.4,5.86-8.1,7.84-12.57,6.12-13.8,7.1-28.68,7.79-43.49.11-2.22.18-4.44.24-6.65.45-17.94-.81-35.7-6.22-53.16C107,96.7,103.86,91.11,98.1,87.06ZM34.74,54c-2.55-1.85-2.49-3.18-.78-5.68a9.83,9.83,0,0,0,1.73-6.63C32.81,26.89,36.76,20,50.51,13.92c4.21-1.85,6.52-1.07,9.55,1.47a48.89,48.89,0,0,0,9.13,6.09c5.12,2.62,7.36,6.52,7,12.2C75.82,35.81,75.8,38,75.1,40,74,43.27,73.52,46,76.47,48.66c.69.63-.08,3.68-1,5.07-1.45,2.19-4.28,3.6-5.33,5.89-3.69,8.05-7.93,11.52-15.21,11.55-8.12,0-12.06-5.08-15.18-11.67A15.59,15.59,0,0,0,34.74,54ZM45.67,79.15h20a10.85,10.85,0,0,1-3.42,2.9c-3.43,1.88-7.82,1.91-12,0A18.84,18.84,0,0,1,45.67,79.15ZM86.44,244.46q-3.14,30.91-6.32,61.83-.62,6.07-1.24,12.15c-1.44,14.07-3,28.13-4.18,42.22-.29,3.35,1,6.81,1,10.23,0,2.19-.27,5-1.59,6.46A12,12,0,0,1,68.47,381a7.74,7.74,0,0,1-4.08,0,8.27,8.27,0,0,1-1.47-.55c-1.79-.87-3.37-4.14-3.4-6.34-.26-20.32-.15-40.64-.15-61v-6.89q0-26.54,0-53.08c0-1.17.31-2.59-.23-3.44-.88-1.37-2.3-3.24-3.57-3.29s-3.36,1.47-4,2.82c-.79,1.68-.59,3.89-.6,5.88q0,25.56,0,51.11,0,33.42,0,66.83c0,3.2.24,6.37-3.67,7.87l-.15.05a8.29,8.29,0,0,1-6.2,0,11.85,11.85,0,0,1-3.68-2.47c-1-.94-1.81-3.28-1.31-4.31,3.47-7.13,1.51-14.48,1-21.67-1-15.44-2.26-30.87-3.51-46.3q-.63-7.69-1.24-15.4-2.34-29.67-4.71-59.34-.5-6.15-1-12.29c-.3-3.82-.28-7.66-.42-11.48-.11-2.92,1.23-4.25,4.18-4.24q27.75.06,55.48,0c3.81,0,4.48,2.11,4.18,5.16q-1.11,11.43-2.23,22.85C87.3,235.85,86.88,240.16,86.44,244.46Zm19.68-78.73c-1.27,10.72-2.79,21.41-4.32,32.09a35.12,35.12,0,0,1-1.71,5.52l-1-.15c0-1.59,0-3.18,0-4.76q-.63-20.82-1.27-41.63-.33-10.63-.65-21.27c-.1-3.26-.88-6.43-4.87-6.1s-3.81,3.68-3.72,6.86c.22,6.84.4,13.67.58,20.51.28,10.81.55,21.62.9,32.43.14,4.18-1.07,6-5.61,6-17.66-.2-35.33-.15-53,0-3.69,0-5.61-1-5.47-5.06.37-11.09.67-22.18,1-33.28q.3-10.08.63-20.15c.12-3.38.41-7-3.89-7.21S19.12,133,19,136.23q-.33,10.29-.64,20.57L17,203.62c0,1.28-.16,2.55-.3,4.8-4.74-6.3-5.77-12.89-6.18-19.37C9.8,178.31,9,167.55,8.61,156.8c-.16-5.21-.21-10.42,0-15.62.4-13.22,3-26.41,5.27-39.5.54-3.07,3.45-5.91,5.72-8.43,1.38-1.54,3.7-2.19,5.49-3.39,6.44-4.31,12-6.55,20-1.15,8.54,5.75,18.49,4.26,27-2.63,1.18-1,3.61-1.75,4.71-1.18a199.86,199.86,0,0,1,18.5,10.82,12.87,12.87,0,0,1,4.37,6.42,146.84,146.84,0,0,1,7.31,54.66C106.73,159.77,106.48,162.74,106.12,165.73Z"/></g></g></svg>