<svg xmlns="http://www.w3.org/2000/svg" viewBox="0 0 111.26 391.07"><defs><style>.cls-1{fill:none;}.cls-2{fill:#ec008c;}.cls-3{fill:#fff;}.cls-4{fill:#1c5581;}</style></defs><title>M80</title><g id="Capa_2" data-name="Capa 2"><g id="Layer_1" data-name="Layer 1"><path class="cls-1" d="M54,8.35h4.13A22.79,22.79,0,0,0,54,8.35Z"/><path class="cls-1" d="M46.74,382.13a6.9,6.9,0,0,0,1.73,0h-2Z"/><path class="cls-1" d="M64.3,382.09H63A5.89,5.89,0,0,0,64.3,382.09Z"/><path class="cls-2" d="M58.43,85.35a10.43,10.43,0,0,0,3.48-2.25H51.28C53.32,85.08,55.65,86.33,58.43,85.35Z"/><path class="cls-2" d="M97.34,232.59a429.23,429.23,0,0,1-10-74.74q-.39-9.3-.3-18.65c0-3.44-1.25-8.54,4.19-8.44,5.26.08,4,5.17,4.2,8.62.38,5.27.6,10.55.88,15.82l1.75.12c.62-7.85,2-15.73,1.65-23.53-.66-13.27-2.62-26.48-3.75-39.74-.29-3.46-.86-6.59-2.31-9H73.91c-8,13.93-21.54,15-31.62,2.54-.53-.65-1-1.31-1.54-2l-.41-.57H16.86a9.47,9.47,0,0,0-1.51,4c-1.58,10-3.81,20-4.67,30.06-1,12.39-.64,24.85,3.51,37,0-6.08-.33-12.18.2-18.21.17-1.88,2.42-4.74,4.13-5.08,3.23-.65,4.56,2.28,4.55,5.19,0,7.25.27,14.55.35,21.82a168,168,0,0,1-1,22.58c-2.16,17.48-5.44,34.82-8.68,52.16-1.1,5.9-2.2,11.8-3.26,17.7s-1.06,6,4.78,6q40,0,80-.09c1.94,0,3.87-.23,6.52-.4-1.52-8.06-2.74-15.57-4.38-23A1.06,1.06,0,0,1,97.34,232.59Z"/><path class="cls-2" d="M69,339.51c1.08-10.72,2.12-21.45,3.19-32.17s2.13-21.25,3.29-31.86c1.09-10,1.2-10.14-8.78-10.11-6.12,0-6.4.29-6.4,6.56q0,17.7,0,35.41v16.54h0q0,26.72,0,53.45c0,2.38.25,4.47,2.67,4.76H64.3c3-.31,5.09-1.57,4.7-5.08a15.27,15.27,0,0,0-.34-3,45.43,45.43,0,0,1-.87-23.63A101.2,101.2,0,0,0,69,339.51Z"/><path class="cls-2" d="M51.21,307.34V275.25c0-10.11,0-9.93-10.2-10-4.46,0-6,1.61-5.51,5.92,1.28,12.05,2.58,24.09,3.82,36.14q1.43,13.71,2.66,27.42c1.19,13.46,5.33,26.9.85,40.53-1.07,3.27-.71,6.27,3.61,6.8h2c2.9-.47,2.74-3.23,2.74-5.87V307.34Z"/><path class="cls-3" d="M75.51,80a17.51,17.51,0,0,1-1.6,3.1H93.62c-1.6-2.6-4.28-4.28-8.9-4.41a5.86,5.86,0,0,1-2.8-1C78.75,75.72,76.69,76.43,75.51,80Z"/><path class="cls-3" d="M40.75,60c2.32,1.09,5.27,2.39,6.16,4.4.55,1.23-2.24,3.95-4.2,7.06,1,1.53,2.39,4,4.09,6.19a48.11,48.11,0,0,0,4.48,5.48H61.91c2.49-2.32,4.58-5.76,6.65-8.56.75-1-.48-3.64-1-5.45s-2.45-4.06-2-5.52,3-2.71,4.86-3.36a59.93,59.93,0,0,1,7.77-1.71c0-4.69-.09-8.62,0-12.55.15-5.31,1-10.65.57-15.9-.78-9.21-5-16.58-14-20.12a24.08,24.08,0,0,0-6.61-1.58H54c-11.06,1-20.11,10.32-20.41,23.4-.2,8.82.86,17.67,1.38,26.85C36.61,59,38.86,59.09,40.75,60Z"/><path class="cls-3" d="M34.32,75.77c-2.59-.78-6.27,2.06-9.48,3.29a20.71,20.71,0,0,1-3.29,1.15,7.24,7.24,0,0,0-4.69,2.89H40.34C38.43,80.34,36.83,76.53,34.32,75.77Z"/><path class="cls-4" d="M106.35,232.59c-2.48-13.27-5-26.54-7.53-39.8-1.56-8-1.4-15.47,2.23-23.25a84.12,84.12,0,0,0,4.46-11.69,69.68,69.68,0,0,0,2.78-26.2c-1.4-15.58-3.1-31.13-4.93-46.66-.08-.66-.19-1.28-.31-1.89-1.33-6.82-5.25-10.17-12.59-11.93-2.79-.66-5.46-1.81-8.18-2.74a7.22,7.22,0,0,1,3.81-2.16c3.47-1,5.49-3.4,3.6-6.71C86,53.12,87,46.45,87.46,39.67a76.5,76.5,0,0,0-.07-11.43A31.8,31.8,0,0,0,78.14,8.35,27.68,27.68,0,0,0,60.79.14C49.71-.69,40.4,2.23,34.12,8.35a28.62,28.62,0,0,0-8,15.48c-1.38,7.22-1,14.91-.44,22.31.37,4.7.74,8.58-3,12.25-2.86,2.79-1.73,5.82,2.07,7.33,1.22.49,2.53.79,3.79,1.17l.33,1.1c-3.5,1.44-6.92,3.14-10.51,4.27C12.64,74.07,9,77.72,7.47,83.1c-.14.46-.26.92-.36,1.4-1.48,6.84-3,13.7-3.82,20.62-2.16,17.93-2.37,35.61,2,52.73a97.66,97.66,0,0,0,7.46,20,13.89,13.89,0,0,1,1,7.26c-.5,5.12-1.4,10.23-2.37,15.29q-3.09,16.11-6.26,32.19Q2.74,244.46.42,256.31c-1.32,6.82.31,8.86,7.3,9,4.67.12,9.34.19,14,0,3.77-.14,5.07,1.23,5.41,5.16,1.05,12.28,2.4,24.54,3.61,36.81.66,6.77,1.29,13.55,1.8,20.33,1.19,15.95,5.68,31.64,1.78,48a13.16,13.16,0,0,0,0,6.39c1.66,6.46,8.7,10.09,16.92,8.52a23.91,23.91,0,0,1,9.08,0c8.31,1.74,14.73-1.87,16.71-8.54a17.31,17.31,0,0,0,.46-7.31c-.83-6.07-2.23-12.28-1.7-18.28,1.46-16.4,3.11-32.78,4.79-49.16,1.28-12.59,2.58-25.18,3.81-37.77.29-2.95,1.33-4.14,4.23-4.22,5.15-.14,10.3-.58,15.45-.71,7.06-.17,8.06-1.39,6.72-8.51Q108.53,244.37,106.35,232.59ZM33.58,31.75C33.88,18.67,42.93,9.38,54,8.35a22.79,22.79,0,0,1,4.13,0,24.08,24.08,0,0,1,6.61,1.58c9.06,3.54,13.26,10.91,14,20.12.44,5.25-.42,10.59-.57,15.9-.11,3.93,0,7.86,0,12.55a59.93,59.93,0,0,0-7.77,1.71c-1.86.65-4.36,1.85-4.86,3.36s1.37,3.61,2,5.52,1.79,4.43,1,5.45c-2.07,2.8-4.16,6.24-6.65,8.56a10.43,10.43,0,0,1-3.48,2.25c-2.78,1-5.11-.27-7.15-2.25a48.11,48.11,0,0,1-4.48-5.48c-1.7-2.22-3.09-4.66-4.09-6.19,2-3.11,4.75-5.83,4.2-7.06-.89-2-3.84-3.31-6.16-4.4-1.89-.88-4.14-1-5.79-1.37C34.44,49.42,33.38,40.57,33.58,31.75ZM46.74,382.13l-.3,0c-4.32-.53-4.68-3.53-3.61-6.8,4.48-13.63.34-27.07-.85-40.53Q40.77,321,39.32,307.34c-1.24-12-2.54-24.09-3.82-36.14-.46-4.31,1-5.95,5.51-5.92,10.2,0,10.2-.14,10.2,10v101c0,2.64.16,5.4-2.74,5.87A6.9,6.9,0,0,1,46.74,382.13ZM68.66,374a15.27,15.27,0,0,1,.34,3c.39,3.51-1.65,4.77-4.7,5.08a5.89,5.89,0,0,1-1.33,0c-2.42-.29-2.67-2.38-2.67-4.76q0-26.73,0-53.45h0V307.34q0-17.7,0-35.41c0-6.27.28-6.54,6.4-6.56,10,0,9.87.13,8.78,10.11q-1.74,15.91-3.29,31.86c-1.07,10.72-2.11,21.45-3.19,32.17a101.2,101.2,0,0,1-1.21,10.9A45.43,45.43,0,0,0,68.66,374ZM95.24,256.18q-40,.07-80,.09c-5.84,0-5.81-.17-4.78-6s2.16-11.8,3.26-17.7c3.24-17.34,6.52-34.68,8.68-52.16a168,168,0,0,0,1-22.58c-.08-7.27-.37-14.57-.35-21.82,0-2.91-1.32-5.84-4.55-5.19-1.71.34-4,3.2-4.13,5.08-.53,6-.2,12.13-.2,18.21-4.15-12.12-4.56-24.58-3.51-37,.86-10.08,3.09-20,4.67-30.06a9.47,9.47,0,0,1,1.51-4,7.24,7.24,0,0,1,4.69-2.89,20.71,20.71,0,0,0,3.29-1.15c3.21-1.23,6.89-4.07,9.48-3.29s4.11,4.57,6,7.33l.41.57c.51.66,1,1.32,1.54,2C52.37,98.12,65.92,97,73.91,83.1h0a17.51,17.51,0,0,0,1.6-3.1c1.18-3.56,3.24-4.27,6.41-2.3a5.86,5.86,0,0,0,2.8,1c4.62.13,7.3,1.81,8.9,4.41,1.45,2.36,2,5.49,2.31,9,1.13,13.26,3.09,26.47,3.75,39.74.4,7.8-1,15.68-1.65,23.53l-1.75-.12c-.28-5.27-.5-10.55-.88-15.82-.24-3.45,1.06-8.54-4.2-8.62-5.44-.1-4.16,5-4.19,8.44q-.09,9.35.3,18.65a429.23,429.23,0,0,0,10,74.74,1.06,1.06,0,0,0,0,.19c1.64,7.43,2.86,14.94,4.38,23C99.11,256,97.18,256.17,95.24,256.18Z"/></g></g></svg>