<svg xmlns="http://www.w3.org/2000/svg" xmlns:xlink="http://www.w3.org/1999/xlink" width="48" height="48" viewBox="0 0 48 48">
  <defs>
    <clipPath id="clip-ic_regional_selected">
      <rect width="48" height="48"/>
    </clipPath>
  </defs>
  <g id="ic_regional_selected" clip-path="url(#clip-ic_regional_selected)">
    <rect width="48" height="48" fill="#fff"/>
    <g id="Grupo_10323" data-name="Grupo 10323" transform="translate(6 12)">
      <path id="Trazado_413" data-name="Trazado 413" d="M4.318,2.716c-.089.141.022.32.119.461A5.239,5.239,0,0,1,4.966,4.19c.2.461.409.93.61,1.392a2.706,2.706,0,0,0,.514.856,1.309,1.309,0,0,0,1.124.357l-.089.9c0,.149.007.335.134.409.089.06.216.045.32.082a.729.729,0,0,1,.171.127c.194.179.38.365.573.543a.209.209,0,0,1,.074.1c.03.089-.045.171-.1.246a1.391,1.391,0,0,0-.253.528.426.426,0,0,0,.037.357c.127.179.394.134.6.082-.06.208.194.365.4.432.171.06.335.112.506.171a.651.651,0,0,1,.342.208c.074.119.015.313-.119.313a.871.871,0,0,1-.186-.052c-.06-.015-.149.015-.141.082,0,0-.141.156.082.3.067.037.127.089.194.119A2.88,2.88,0,0,1,10.98,12.9c.06.1.112.216.179.32a2.035,2.035,0,0,0,.305.365,2.574,2.574,0,0,0,1,.573,1.274,1.274,0,0,0,.261,1.079.688.688,0,0,1,.283.64,1.4,1.4,0,0,1-.2.313.578.578,0,0,0,.03.625,1.053,1.053,0,0,0-.469.149c-.03.022-.067.045-.074.082s.015.067.03.1c.127.2.476.387.38.6-.022.045.365.476.365.476a3.323,3.323,0,0,0,.521.64,3.728,3.728,0,0,0,.536.357c.231.141.461.29.685.454a.389.389,0,0,1,.171.194c.03.127-.03.313.089.342l.067.074a8.66,8.66,0,0,0,1.3.32,1.3,1.3,0,0,1,.484.141c.238.141.372.424.618.566a4,4,0,0,0,.915.194c.469.141.8.633,1.28.715.141.022.29.007.432.037a1.525,1.525,0,0,1,.394.164,7.558,7.558,0,0,0,2.114.722,1.2,1.2,0,0,1,.454.141c.208.134.32.4.551.506a.8.8,0,0,0,.819-.171,4.362,4.362,0,0,1,1.407-.677l.045-.007a.374.374,0,0,0,.179-.045.553.553,0,0,0,.1-.156.244.244,0,0,1,.4.037c.022.045.03.1.052.149.1.179.387.045.588.1.156.045.246.2.372.3.275.223.692.171.96.394.327.268.357.863.767.968h.03a.422.422,0,0,0,.171-.4,1.054,1.054,0,0,0-.268-.633c.179.045.32-.164.342-.342s.015-.387.141-.521a.507.507,0,0,1,.246-.119c.521-.134,1.139-.007,1.563-.35a.234.234,0,0,0-.052-.261,1.2,1.2,0,0,0-.372-.3.822.822,0,0,1-.372-.3c-.045-.089-.06-.2-.1-.3a.23.23,0,0,0-.238-.164s.365.112.372-.186-.045-.536.074-.566a9.755,9.755,0,0,1,1.749-.194A1.181,1.181,0,0,0,32.929,20a1.1,1.1,0,0,0,.588-.67,1.606,1.606,0,0,1,.491-.759s.134-.179.208.03c.112.335.35.692.2,1.012a2.236,2.236,0,0,0,.35-1.5s-.015-.186-.141-.208-.007-.275.194-.26.558-.238.29-.313a1.019,1.019,0,0,0-.514,0c-.007-.089-.015-.171-.022-.261.037.067.156.037.194-.037a.635.635,0,0,0,.015-.238,1.272,1.272,0,0,1,.283-.64,1.472,1.472,0,0,0,.208-1.176c-.03-.082-.082-.171-.164-.164a.164.164,0,0,1-.082.238c-.089.03-.141-.067-.216-.134-.3-.253-1.236.1-1.236.1-.64.2-1.288.4-1.928.61a.84.84,0,0,0-.409.216.9.9,0,0,0-.164.439c-.06.35-.119.707-.179,1.057a2.4,2.4,0,0,1-.127.506,1.594,1.594,0,0,1-.238.387,5.3,5.3,0,0,1-.707.767s-.112.305.2.067a.54.54,0,0,1,.35-.156c.127.007.246.164.171.268a.227.227,0,0,1-.1.067,2.5,2.5,0,0,1-.863.246.771.771,0,0,0-.082-.365c-.052-.119-.774.1-.774.1-.1.03-.186.06-.275.1-.119.045-.231.082-.35.127l-1.183.461c-.223.134-.514-.015-.7-.194a1.361,1.361,0,0,0-.633-.439c-.223-.03-.454.089-.677.037a.528.528,0,0,1-.037-.216,1.716,1.716,0,0,0-.722-.283c-.208-.022-.074-.4-.1-.61a1.076,1.076,0,0,0-.29-.514,5.421,5.421,0,0,0-.566-.6.847.847,0,0,1-.208-.223c-.1-.186-.015-.417-.037-.625a1.141,1.141,0,0,0-.156-.409c-.179-.335-.35-.662-.528-1l-.112-.112a1.287,1.287,0,0,0,.186-.96,1.233,1.233,0,0,1-.1-.275c-.037-.194.1-.394.06-.588-.007-.045-.022-.089-.03-.134a.625.625,0,0,1,.037-.231s.3-.454.134-.506-.171-.119-.082-.29.186-.454.007-.491c-.067-.015-.007-.134.007-.2.045-.149.208-.223.357-.275a3.963,3.963,0,0,1-.045,1.146,1.166,1.166,0,0,0,.231-.707c.03-.3.35-1.042.082-.9-.03.015-.089.022-.208-.022-.074-.03-.1-.127-.156-.179a.654.654,0,0,0-.6-.112.768.768,0,0,1-.223.03c-.261-.03-.357-.372-.588-.514a1.2,1.2,0,0,0-.461-.1.434.434,0,0,1-.372-.253A2.365,2.365,0,0,1,20.1,7.993a.4.4,0,0,0-.022-.208c-.037-.082-.134-.119-.216-.156a2.739,2.739,0,0,1-1.176-1.6,1.184,1.184,0,0,0-.156-.305A.851.851,0,0,0,18.3,5.53l-.536-.357a.821.821,0,0,0-.491-.186c-.149.015-.305.127-.447.067-.067-.03-.119-.1-.186-.127-.208-.1-.432.134-.506.357s-.141.484-.357.581c-.253.1-.618-.208-.618-.208a2.07,2.07,0,0,1-1.243-1.035c-.127-.372-.074-.863-.409-1.064a2.884,2.884,0,0,1-.409-.186c-.127-.1-.171-.275-.283-.394-.238-.253-.759-.231-.834-.573-.022-.089.007-.186-.022-.275a.4.4,0,0,0-.461-.216c-.186.022-.357.1-.543.112s-.4-.089-.61-.067-.409.253-.283.417c0,0-2.828.045-3.208.022a2.426,2.426,0,0,1-.938-.432A8.241,8.241,0,0,1,3.879.826C3.581.595,2.852.58,2.941.215c.052-.223-.186-.2-.186-.2a1.075,1.075,0,0,0-.372.037c-.365.06-.737-.022-1.094.037a2.378,2.378,0,0,1-.4.06C.627.148.366.007.113.066A.177.177,0,0,0,.031.111c-.074.089.06.2.156.268a.624.624,0,0,1,.253.5.685.685,0,0,0,.015.246c.03.074.119.045.194.082.194.082.074.618.074.618-.022.1-.052.246.045.283.03.007.06.007.082.015.119.03.119.208.067.327s-.1.268-.007.357l.275-.149c.074.2-.082.417-.067.633a.727.727,0,0,0,.194.4c.268.365.551.715.789,1.094.149.246.283.5.409.752.052.1.1.194.149.283a.692.692,0,0,1,.112.461s-.1.484-.335.1c-.156-.261-.6.194-.848.015.156.261.514.342.685.6.134.2.127.484.283.67s.5.261.573.506c.022.074.03.171.1.194.164.06.216-.35.38-.283a1.692,1.692,0,0,0,.8,1.035,1.591,1.591,0,0,1,.313.119A.828.828,0,0,1,5,9.779a.644.644,0,0,1-.037.514.8.8,0,0,1-.261.186.386.386,0,0,0-.216.231c-.022.1.06.238.171.216l.164-.208a.729.729,0,0,0,.417.61,1.933,1.933,0,0,1,.625.454,1.611,1.611,0,0,0,.179.261c.194.179.558.127.677.357.03.067.037.141.067.208.082.194.327.305.35.521.007.074-.015.149-.015.223,0,0,.261.461.454.35a1.446,1.446,0,0,0,.6-.573.366.366,0,0,0,.045-.29.176.176,0,0,0-.238-.112.445.445,0,0,0-.067-.417,1.4,1.4,0,0,0-.327-.3c-.134-.1-.268-.194-.409-.29a.35.35,0,0,1-.127.327c-.074.052-.216-.127-.208-.246s-.2-.127-.261-.231.022-.469.022-.469a.738.738,0,0,0,0-.313c-.045-.127-.171-.194-.275-.275a1.734,1.734,0,0,1-.514-1.556A1.917,1.917,0,0,0,5.837,8.5.5.5,0,0,0,5.6,8.127a.148.148,0,0,0-.156,0,.2.2,0,0,0-.052.134,1.785,1.785,0,0,1-.037.342c-.074.208-.275-.573-.275-.573-.015-.074-.007-.156-.015-.238A1.264,1.264,0,0,0,4.46,7a.482.482,0,0,1-.127-.119A.319.319,0,0,1,4.3,6.765c-.03-.275.089-.6-.1-.811-.089-.1-.238-.149-.261-.275a.843.843,0,0,1,.007-.194.253.253,0,0,0-.253-.194s-.261.469-.261.2c0-.223.03-.439.045-.662a.644.644,0,0,0-.216-.6c-.164-.112-.394-.1-.536-.231-.164-.149-.141-.4-.156-.618a1.529,1.529,0,0,0-.156-.573A.8.8,0,0,1,2.294,2.5c-.007-.186.149-.342.208-.521.127-.38-.208-.789-.1-1.176" transform="translate(-0.01 -0.007)" fill="#A09D9D"/>
    </g>
  </g>
</svg>
