<svg xmlns="http://www.w3.org/2000/svg" xmlns:xlink="http://www.w3.org/1999/xlink" width="48" height="48" viewBox="0 0 48 48">
  <defs>
    <clipPath id="clip-ic_region">
      <rect width="48" height="48"/>
    </clipPath>
  </defs>
  <g id="ic_region" clip-path="url(#clip-ic_region)">
    <rect width="48" height="48" fill="transparent"/>
    <g id="Grupo_10326" data-name="Grupo 10326" transform="translate(1256 -3267.996)">
      <path id="Trazado_21460" data-name="Trazado 21460" d="M407.62,361.774s-.336,2.528.111,3,2.088,2.406,3.941,1.89c.319-1.45.524-2.005.919-1.717a8.867,8.867,0,0,0,2.915,1.111,2.945,2.945,0,0,1,2.143,1.039l12.577-.348-.573-16.424s-2.3-3.183-5.4-7.392c-2.7.9-3.056-2.139-2.965-4.442a4.27,4.27,0,0,0-.8,2.152c-.489,4.848-.223,5.693-.045,6.182a1.958,1.958,0,0,1-.622,2.046c-.712.534-.934,2.891-.845,3.869s-1.69,2.713-2.49,3.2a20.782,20.782,0,0,0-3.158,2.312c.089.133,3.158,1.423-.356,3.6s-3.958-2.268-3.958-2.268-2.391.4-4.185.795a3.553,3.553,0,0,1,.7,1.255Z" transform="translate(-1652.826 2939.503)" fill="#fff"/>
      <g id="maps-and-flags" transform="translate(-1299.652 3288.6)">
        <g id="Grupo_10242" data-name="Grupo 10242" transform="translate(70.573)">
          <path id="Trazado_21157" data-name="Trazado 21157" d="M76.874,0a6.308,6.308,0,0,0-6.3,6.3c0,4.312,5.639,10.642,5.879,10.91a.568.568,0,0,0,.844,0c.24-.267,5.879-6.6,5.879-10.91A6.309,6.309,0,0,0,76.874,0Zm0,9.472a3.17,3.17,0,1,1,3.17-3.17A3.174,3.174,0,0,1,76.874,9.472Z" transform="translate(-70.573 0)" fill="#707070"/>
        </g>
      </g>
    </g>
  </g>
</svg>
