<svg xmlns="http://www.w3.org/2000/svg" width="29.974" height="30.969" viewBox="0 0 29.974 30.969">
  <g id="icon_4_" data-name="icon (4)" transform="translate(-0.246)">
    <g id="Grupo_9145" data-name="Grupo 9145" transform="translate(0.246)">
      <path id="Trazado_19655" data-name="Trazado 19655" d="M4.142,7.5H5.55a.859.859,0,0,0,.938-.742V.742A.858.858,0,0,0,5.55,0H4.142a.857.857,0,0,0-.936.742V6.76A.856.856,0,0,0,4.142,7.5Z" transform="translate(2.779)" fill="#fff"/>
      <path id="Trazado_19656" data-name="Trazado 19656" d="M11.423,7.5h1.407a.859.859,0,0,0,.938-.742V.742A.858.858,0,0,0,12.831,0H11.423a.855.855,0,0,0-.936.742V6.76A.857.857,0,0,0,11.423,7.5Z" transform="translate(10.222)" fill="#fff"/>
      <path id="Trazado_19657" data-name="Trazado 19657" d="M29.094,1.42H25.361V6.026A1.975,1.975,0,0,1,23.3,7.893H21.889a1.975,1.975,0,0,1-2.065-1.866V1.42H10.636V6.026A1.975,1.975,0,0,1,8.571,7.893h-1.4A1.975,1.975,0,0,1,5.105,6.026V1.42H1.372A1.128,1.128,0,0,0,.246,2.546V28.4a1.124,1.124,0,0,0,1.126,1.122H29.094A1.123,1.123,0,0,0,30.22,28.4V2.546A1.127,1.127,0,0,0,29.094,1.42Zm-.4,16.318v8.794a.356.356,0,0,1-.354.356H2.123a.356.356,0,0,1-.354-.356V10.6a.356.356,0,0,1,.354-.356H28.343a.356.356,0,0,1,.354.356v7.136Z" transform="translate(-0.246 1.451)" fill="#fff"/>
      <rect id="Rectángulo_7046" data-name="Rectángulo 7046" width="3.508" height="3.51" transform="translate(4.208 18.058)" fill="#fff"/>
      <rect id="Rectángulo_7047" data-name="Rectángulo 7047" width="3.508" height="3.51" transform="translate(10.179 18.058)" fill="#fff"/>
      <rect id="Rectángulo_7048" data-name="Rectángulo 7048" width="3.506" height="3.51" transform="translate(16.092 18.058)" fill="#fff"/>
      <rect id="Rectángulo_7049" data-name="Rectángulo 7049" width="3.51" height="3.51" transform="translate(22.061 18.058)" fill="#fff"/>
      <rect id="Rectángulo_7050" data-name="Rectángulo 7050" width="3.51" height="3.51" transform="translate(4.281 23.117)" fill="#fff"/>
      <rect id="Rectángulo_7051" data-name="Rectángulo 7051" width="3.508" height="3.51" transform="translate(10.254 23.117)" fill="#fff"/>
      <rect id="Rectángulo_7052" data-name="Rectángulo 7052" width="3.506" height="3.51" transform="translate(16.167 23.117)" fill="#fff"/>
      <rect id="Rectángulo_7053" data-name="Rectángulo 7053" width="3.508" height="3.51" transform="translate(22.138 23.117)" fill="#fff"/>
      <rect id="Rectángulo_7054" data-name="Rectángulo 7054" width="3.508" height="3.508" transform="translate(16.114 13.083)" fill="#fff"/>
      <rect id="Rectángulo_7055" data-name="Rectángulo 7055" width="3.506" height="3.508" transform="translate(22.09 13.083)" fill="#fff"/>
    </g>
  </g>
</svg>
