<svg xmlns="http://www.w3.org/2000/svg" xmlns:xlink="http://www.w3.org/1999/xlink" viewBox="0 0 50.837 50.367">
  <defs>
    <style>
      .cls-1 {
        fill: #fff;
      }

      .cls-2 {
        clip-path: url(#clip-path);
      }
    </style>
    <clipPath id="clip-path">
      <rect id="Rectangle_4890" data-name="Rectangle 4890" class="cls-1" width="50.837" height="50.367"/>
    </clipPath>
  </defs>
  <g id="Group_8213" data-name="Group 8213" transform="translate(-4 2)">
    <g id="Group_8214" data-name="Group 8214" transform="translate(4 -2)">
      <g id="Group_8212" data-name="Group 8212">
        <g id="Group_8210" data-name="Group 8210" class="cls-2">
          <path id="Path_14021" data-name="Path 14021" class="cls-1" d="M3.34,18.361a12.726,12.726,0,0,0,1.1,2.631L3.108,22.675a1.385,1.385,0,0,0,.1,1.833l2.3,2.3a1.377,1.377,0,0,0,1.833.1l1.677-1.322a12.068,12.068,0,0,0,2.733,1.159l.252,2.154a1.379,1.379,0,0,0,1.37,1.22h3.258a1.384,1.384,0,0,0,1.37-1.22l.239-2.079a12.411,12.411,0,0,0,2.931-1.186L22.8,26.922a1.385,1.385,0,0,0,1.833-.1l2.3-2.3a1.377,1.377,0,0,0,.1-1.833l-1.261-1.595a11.968,11.968,0,0,0,1.206-2.876l1.942-.225a1.379,1.379,0,0,0,1.22-1.37V13.359a1.384,1.384,0,0,0-1.22-1.37l-1.915-.225a12.027,12.027,0,0,0-1.159-2.849l1.179-1.486a1.385,1.385,0,0,0-.1-1.833l-2.3-2.3A1.377,1.377,0,0,0,22.8,3.2L21.333,4.348a12.265,12.265,0,0,0-2.992-1.254l-.218-1.867A1.379,1.379,0,0,0,16.753,0H13.495a1.384,1.384,0,0,0-1.37,1.22l-.218,1.867A11.921,11.921,0,0,0,8.84,4.382L7.34,3.2a1.385,1.385,0,0,0-1.833.1L3.21,5.6a1.377,1.377,0,0,0-.1,1.833L4.362,9.024A11.488,11.488,0,0,0,3.231,11.9l-2,.232A1.372,1.372,0,0,0,0,13.495v3.258a1.384,1.384,0,0,0,1.22,1.37ZM15.131,9.555A5.384,5.384,0,1,1,9.746,14.94a5.391,5.391,0,0,1,5.384-5.384Zm0,0"/>
        </g>
        <g id="Group_8211" data-name="Group 8211" class="cls-2">
          <path id="Path_14022" data-name="Path 14022" class="cls-1" d="M403.779,230.076l-1.718-1.452a1.364,1.364,0,0,0-1.813.048l-.947.886a9.712,9.712,0,0,0-2.529-.818l-.266-1.309a1.373,1.373,0,0,0-1.452-1.09l-2.242.191a1.362,1.362,0,0,0-1.247,1.315l-.041,1.329a9.946,9.946,0,0,0-2.413,1.268l-1.131-.75a1.357,1.357,0,0,0-1.793.259l-1.452,1.731a1.364,1.364,0,0,0,.048,1.813l1,1.056a10.423,10.423,0,0,0-.729,2.42l-1.418.286a1.373,1.373,0,0,0-1.09,1.452l.191,2.242a1.362,1.362,0,0,0,1.315,1.247l1.533.048a10,10,0,0,0,1.084,2.072l-.859,1.295a1.357,1.357,0,0,0,.259,1.792l1.718,1.452a1.364,1.364,0,0,0,1.813-.048l1.125-1.05a9.9,9.9,0,0,0,2.3.75l.314,1.54a1.373,1.373,0,0,0,1.452,1.09l2.242-.191a1.362,1.362,0,0,0,1.247-1.315l.048-1.506a9.891,9.891,0,0,0,2.3-1.165l1.24.818a1.357,1.357,0,0,0,1.793-.259l1.452-1.718a1.364,1.364,0,0,0-.048-1.813l-1-1.056a9.664,9.664,0,0,0,.784-2.433l1.363-.279a1.373,1.373,0,0,0,1.09-1.452l-.191-2.242a1.362,1.362,0,0,0-1.315-1.247l-1.37-.041a10.256,10.256,0,0,0-1.138-2.249l.75-1.125a1.384,1.384,0,0,0-.266-1.792Zm-8.451,12.956a4.4,4.4,0,1,1,4.021-4.757,4.4,4.4,0,0,1-4.021,4.757Zm0,0" transform="translate(-356.465 -210.911)"/>
        </g>
      </g>
      <path id="Path_14023" data-name="Path 14023" class="cls-1" d="M147.13,451.237a1.358,1.358,0,0,0-1.22,1.343l-.014,1.377a1.359,1.359,0,0,0,1.186,1.37l1.016.129a7.767,7.767,0,0,0,.722,1.758l-.654.8a1.365,1.365,0,0,0,.082,1.813l.968.988a1.358,1.358,0,0,0,1.813.123l.8-.627a7.784,7.784,0,0,0,1.813.791l.109,1.05a1.358,1.358,0,0,0,1.343,1.22l1.377.014a1.359,1.359,0,0,0,1.37-1.186l.123-1a8.089,8.089,0,0,0,1.963-.763l.763.613a1.365,1.365,0,0,0,1.813-.082l.988-.968a1.358,1.358,0,0,0,.123-1.813l-.586-.757a7.908,7.908,0,0,0,.831-1.908l.906-.1a1.358,1.358,0,0,0,1.22-1.343l.014-1.377a1.359,1.359,0,0,0-1.186-1.37l-.886-.116a8.235,8.235,0,0,0-.75-1.908l.552-.675a1.365,1.365,0,0,0-.082-1.813l-.968-.968a1.358,1.358,0,0,0-1.813-.123l-.661.5a7.876,7.876,0,0,0-1.983-.859l-.089-.859a1.358,1.358,0,0,0-1.343-1.22l-1.377-.014a1.359,1.359,0,0,0-1.37,1.186l-.109.852a8.323,8.323,0,0,0-2.058.838l-.682-.559a1.365,1.365,0,0,0-1.813.082l-1,.968a1.359,1.359,0,0,0-.123,1.813l.586.75a7.746,7.746,0,0,0-.777,1.908Zm8.9-1.561a3.589,3.589,0,1,1-3.633,3.544,3.591,3.591,0,0,1,3.633-3.544Zm0,0" transform="translate(-135.952 -413.083)"/>
    </g>
  </g>
</svg>
