<svg xmlns="http://www.w3.org/2000/svg" xmlns:xlink="http://www.w3.org/1999/xlink" viewBox="0 0 68 68">
  <defs>
    <style>
      .cls-1 {
        fill: #fe703f;
        stroke: #707070;
        stroke-width: 3px;
      }

      .cls-2 {
        fill: #fff;
      }

      .cls-3 {
        stroke: none;
      }

      .cls-4 {
        fill: none;
      }

      .cls-5 {
        filter: url(#Ellipse_291);
      }
    </style>
    <filter id="Ellipse_291" x="0" y="0" width="68" height="68" filterUnits="userSpaceOnUse">
      <feOffset dy="3" input="SourceAlpha"/>
      <feGaussianBlur stdDeviation="3" result="blur"/>
      <feFlood flood-opacity="0.161"/>
      <feComposite operator="in" in2="blur"/>
      <feComposite in="SourceGraphic"/>
    </filter>
  </defs>
  <g id="Group_8265" data-name="Group 8265" transform="translate(-17 -65)">
    <g class="cls-5" transform="matrix(1, 0, 0, 1, 17, 65)">
      <g id="Ellipse_291-2" data-name="Ellipse 291" class="cls-1" transform="translate(9 6)">
        <circle class="cls-3" cx="25" cy="25" r="25"/>
        <circle class="cls-4" cx="25" cy="25" r="23.5"/>
      </g>
    </g>
    <g id="Group_8264" data-name="Group 8264" transform="translate(37 81)">
      <path id="Path_14068" data-name="Path 14068" class="cls-2" d="M20.936,119.854a7.936,7.936,0,0,0-6.322-9.269l-.663-.124a7.944,7.944,0,0,0-9.269,6.33,21.9,21.9,0,0,1-4.428,9.6,1.17,1.17,0,0,0,.694,1.879l6.182,1.162A3.532,3.532,0,0,0,9.96,133.4h0a3.514,3.514,0,0,0,4.085-2.674l6.182,1.162h.218a1.17,1.17,0,0,0,1.115-1.521A21.925,21.925,0,0,1,20.936,119.854Zm-9.643,11.094a1.2,1.2,0,0,1-1.871-1.06l2.339.444A1.189,1.189,0,0,1,11.293,130.948Zm-8.085-4.616a24.268,24.268,0,0,0,3.765-9.113,5.6,5.6,0,0,1,6.541-4.46h0l.663.124a5.6,5.6,0,0,1,4.469,6.534.026.026,0,0,1,0,.006,24.271,24.271,0,0,0,.187,9.862Z" transform="translate(0.002 -103.966)"/>
      <path id="Path_14069" data-name="Path 14069" class="cls-2" d="M68.98,62.019l1.279.9a8.877,8.877,0,0,1,5.036-3.493L74.9,57.91A10.437,10.437,0,0,0,68.98,62.019Z" transform="translate(-65.005 -54.573)"/>
      <path id="Path_14070" data-name="Path 14070" class="cls-2" d="M26.235,1.512,25.845,0A15.346,15.346,0,0,0,17.16,6.05l1.279.9A13.783,13.783,0,0,1,26.235,1.512Z" transform="translate(-16.171)"/>
      <path id="Path_14071" data-name="Path 14071" class="cls-2" d="M324.132,89.57l-.912,1.263a8.872,8.872,0,0,1,3.414,5.083l1.559-.374A10.434,10.434,0,0,0,324.132,89.57Z" transform="translate(-304.252 -84.409)"/>
      <path id="Path_14072" data-name="Path 14072" class="cls-2" d="M348.9,37.34l-.912,1.247a13.785,13.785,0,0,1,5.309,7.89l1.512-.366A15.342,15.342,0,0,0,348.9,37.34Z" transform="translate(-327.595 -35.189)"/>
    </g>
  </g>
</svg>
