<svg xmlns="http://www.w3.org/2000/svg" viewBox="0 0 32 32">
  <defs>
    <style>
      .cls-1 {
        fill: none;
      }

      .cls-2 {
        fill: #fff;
      }

      .cls-3 {
        fill: #00B9BE;
      }
    </style>
  </defs>
  <g id="Group_1089" data-name="Group 1089" transform="translate(-23 -437)">
    <rect id="Rectangle_3656" data-name="Rectangle 3656" class="cls-1" width="32" height="32" rx="2" transform="translate(23 437)"/>
    <path id="Path_361" data-name="Path 361" class="cls-2" d="M17.447,20.417a2.362,2.362,0,0,1-2.37,2.37H2.37A2.362,2.362,0,0,1,0,20.417V2.97A2.372,2.372,0,0,1,2.37.6h9.981V5.339h5.1Z" transform="translate(30 441.497)"/>
    <path id="Path_362" data-name="Path 362" class="cls-2" d="M82.3,3.717V0l4.09,3.717Z" transform="translate(-38.943 442)"/>
    <path id="Path_363" data-name="Path 363" class="cls-2" d="M82.3,17.9" transform="translate(-38.943 427.005)"/>
    <rect id="Rectangle_3657" data-name="Rectangle 3657" class="cls-3" width="13.179" height="0.974" transform="translate(32.24 452.712)"/>
    <rect id="Rectangle_3658" data-name="Rectangle 3658" class="cls-3" width="13.179" height="0.974" transform="translate(32.142 455.471)"/>
    <rect id="Rectangle_3659" data-name="Rectangle 3659" class="cls-3" width="6.492" height="0.974" transform="translate(32.24 449.953)"/>
  </g>
</svg>
