<svg xmlns="http://www.w3.org/2000/svg" viewBox="0 0 48.667 46.654">
  <defs>
    <style>
      .cls-1 {
        fill: #fff;
      }

      .cls-2 {
        fill: none;
        stroke: #fff;
        stroke-width: 3px;
      }
    </style>
  </defs>
  <g id="Group_8220" data-name="Group 8220" transform="translate(-156.167 -375.513)">
    <path id="Exclusion_1" data-name="Exclusion 1" class="cls-1" d="M-332.5,25a12.418,12.418,0,0,1-8.839-3.661A12.418,12.418,0,0,1-345,12.5a12.418,12.418,0,0,1,3.661-8.839A12.418,12.418,0,0,1-332.5,0a12.417,12.417,0,0,1,8.838,3.661A12.419,12.419,0,0,1-320,12.5a12.419,12.419,0,0,1-3.661,8.839A12.417,12.417,0,0,1-332.5,25Zm-2.661-10.066-.014.034a2.815,2.815,0,0,0,.725,2.156,3.146,3.146,0,0,0,1.927.858v1.306h1.074V17.977a3.143,3.143,0,0,0,1.934-.824,2.515,2.515,0,0,0,.7-1.869,2.476,2.476,0,0,0-.677-1.829,5.2,5.2,0,0,0-2.078-1.124,4.08,4.08,0,0,1-1.494-.779,1.453,1.453,0,0,1-.413-1.074,1.608,1.608,0,0,1,.4-1.151,1.6,1.6,0,0,1,1.207-.421,1.417,1.417,0,0,1,1.2.574,2.458,2.458,0,0,1,.43,1.5h1.34a3.5,3.5,0,0,0-.633-2.191,2.629,2.629,0,0,0-1.78-.981V6.294h-1.08V7.8a2.793,2.793,0,0,0-1.781.854,2.643,2.643,0,0,0-.646,1.839,2.508,2.508,0,0,0,.7,1.859,4.974,4.974,0,0,0,2.084,1.114,3.78,3.78,0,0,1,1.435.779,1.434,1.434,0,0,1,.438,1.046,1.452,1.452,0,0,1-.5,1.166,2.072,2.072,0,0,1-1.378.42,1.958,1.958,0,0,1-1.3-.447,1.878,1.878,0,0,1-.529-1.5Z" transform="translate(513 385)"/>
    <path id="Path_14035" data-name="Path 14035" class="cls-2" d="M511,377.013h-8.333v10.654" transform="translate(-345)"/>
    <path id="Path_14036" data-name="Path 14036" class="cls-2" d="M538,377.013h10.334v10.654" transform="translate(-345)"/>
    <path id="Path_14037" data-name="Path 14037" class="cls-2" d="M502.667,410.453v10.214h9.667" transform="translate(-345)"/>
    <path id="Path_14038" data-name="Path 14038" class="cls-2" d="M537.717,420.667h10.616V410.333" transform="translate(-345)"/>
  </g>
</svg>
