<svg xmlns="http://www.w3.org/2000/svg" width="28.291" height="37.061" viewBox="0 0 28.291 37.061">
  <g id="Grupo_12323" data-name="Grupo 12323" transform="translate(-56 -380)">
    <g id="receipt_1_" data-name="receipt (1)" transform="translate(5.472 380)">
      <g id="Grupo_12316" data-name="Grupo 12316" transform="translate(50.529)">
        <g id="Grupo_12315" data-name="Grupo 12315" transform="translate(0)">
          <path id="Trazado_28068" data-name="Trazado 28068" d="M77.806.959h0a1.709,1.709,0,0,0-1.859.282L73.539,3.374,70.262.442a1.734,1.734,0,0,0-2.313,0L64.674,3.371,61.4.442a1.734,1.734,0,0,0-2.314,0L55.808,3.374,53.4,1.241a1.723,1.723,0,0,0-2.868,1.3V34.52a1.726,1.726,0,0,0,2.873,1.3l2.409-2.133,3.277,2.931a1.734,1.734,0,0,0,2.313,0l3.274-2.929,3.275,2.928a1.734,1.734,0,0,0,2.314,0l3.278-2.931,2.411,2.133a1.723,1.723,0,0,0,2.868-1.3V2.541A1.708,1.708,0,0,0,77.806.959ZM74.687,32.387a1.733,1.733,0,0,0-2.3.006l-3.277,2.931L65.831,32.4a1.734,1.734,0,0,0-2.314,0l-3.275,2.928-3.278-2.931a1.724,1.724,0,0,0-2.3-.006l-2.4,2.132V29.893L52.256,2.541l2.406,2.132a1.733,1.733,0,0,0,2.3-.006l3.277-2.931,3.274,2.928a1.734,1.734,0,0,0,2.314,0l3.275-2.928,3.278,2.931a1.724,1.724,0,0,0,2.3.006l2.4-2.133V24.524l.009,10Z" transform="translate(-50.529 0)" fill="#fff"/>
        </g>
      </g>
      <g id="Grupo_12318" data-name="Grupo 12318" transform="translate(55.58 17.663)">
        <g id="Grupo_12317" data-name="Grupo 12317">
          <path id="Trazado_28069" data-name="Trazado 28069" d="M126.057,203.527H109.6a.868.868,0,1,0,0,1.736h16.453a.868.868,0,1,0,0-1.736Z" transform="translate(-108.736 -203.527)" fill="#fff"/>
        </g>
      </g>
      <g id="Grupo_12320" data-name="Grupo 12320" transform="translate(55.58 12.456)">
        <g id="Grupo_12319" data-name="Grupo 12319" transform="translate(0)">
          <path id="Trazado_28070" data-name="Trazado 28070" d="M118.246,143.527H109.6a.868.868,0,1,0,0,1.736h8.642a.868.868,0,1,0,0-1.736Z" transform="translate(-108.736 -143.527)" fill="#fff"/>
        </g>
      </g>
      <g id="Grupo_12322" data-name="Grupo 12322" transform="translate(55.58 22.87)">
        <g id="Grupo_12321" data-name="Grupo 12321">
          <path id="Trazado_28071" data-name="Trazado 28071" d="M126.057,263.527H109.6a.868.868,0,1,0,0,1.736h16.453a.868.868,0,0,0,0-1.736Z" transform="translate(-108.736 -263.527)" fill="#fff"/>
        </g>
      </g>
    </g>
    <path id="Trazado_28072" data-name="Trazado 28072" d="M2.957-1.285A.715.715,0,0,0,2.74-1.81,1.883,1.883,0,0,0,2.02-2.2,2.48,2.48,0,0,1,.978-2.755a1.25,1.25,0,0,1-.352-.93A1.31,1.31,0,0,1,.95-4.6a1.4,1.4,0,0,1,.892-.427v-.755h.54v.759a1.306,1.306,0,0,1,.887.468,1.631,1.631,0,0,1,.316,1.053h-.67a1.1,1.1,0,0,0-.215-.7.719.719,0,0,0-.595-.27.8.8,0,0,0-.6.21.8.8,0,0,0-.2.576.719.719,0,0,0,.208.537,2.042,2.042,0,0,0,.749.39,2.585,2.585,0,0,1,1.036.562,1.232,1.232,0,0,1,.338.914,1.253,1.253,0,0,1-.352.935,1.564,1.564,0,0,1-.967.412V.711H1.774V.058A1.566,1.566,0,0,1,.81-.371,1.4,1.4,0,0,1,.448-1.449l.007-.017H1.1a.931.931,0,0,0,.267.75.976.976,0,0,0,.649.224A1.032,1.032,0,0,0,2.709-.7.723.723,0,0,0,2.957-1.285Z" transform="translate(75 394)" fill="#fff"/>
  </g>
</svg>
