<svg xmlns="http://www.w3.org/2000/svg" width="52.8" height="33.966" viewBox="0 0 52.8 33.966">
  <g id="Grupo_10340" data-name="Grupo 10340" transform="translate(-686 -732.81)">
    <path id="Trazado_4401" data-name="Trazado 4401" d="M49.114,33.2H2.915A2.809,2.809,0,0,1,0,30.63V2.569A2.809,2.809,0,0,1,2.915,0H49.226a2.809,2.809,0,0,1,2.915,2.569V30.63A3,3,0,0,1,49.114,33.2" transform="translate(686 732.81)" fill="#fff"/>
    <path id="Intersección_1" data-name="Intersección 1" d="M4.386,19.569A8.14,8.14,0,0,1,.539,15.294,7.812,7.812,0,0,1,4.8,5.2a5.32,5.32,0,0,1,1.344-.468A3.244,3.244,0,0,0,7.455,4.67h0a7.2,7.2,0,0,0-1.375.875A7.888,7.888,0,0,0,2.948,12.7,7.487,7.487,0,0,0,6.415,18.08a9.981,9.981,0,0,0,3.83,1.489ZM7.4,4.683Zm0,0h0Zm0,0h0Zm.005,0,.032-.008Zm.033-.008h0Zm0,0h0Zm0,0h0ZM19.328,15.525a3.414,3.414,0,0,1-.813-.595c-.156-.093-.313-.188-.531,0a10.245,10.245,0,0,1-1.533.781c.251-1.658.6-3.469.847-5.127l5.1,1.253L20.7,13.056a7.46,7.46,0,0,0,5.657,2.972,8.864,8.864,0,0,1-.887.272,8.686,8.686,0,0,1-2.1.259A8.362,8.362,0,0,1,19.328,15.525Zm-2.876.186.023.094Zm14.7-5.119v3.678a7.6,7.6,0,0,1-4.325,1.509A8.071,8.071,0,0,0,31.156,10.593Zm-14.7,5.119ZM11.516,8.7c.689-.437,1.253-.843,1.939-1.28A7,7,0,0,0,7.549,4.512a8.434,8.434,0,0,1,8.065.914.622.622,0,0,0,.814.063A7.218,7.218,0,0,1,17.8,4.614c-.345,1.813-.72,3.5-.941,5.283C15.173,9.519,13.361,9.175,11.516,8.7ZM22.963.8a7.988,7.988,0,0,1,8.193.73V6.5A7.975,7.975,0,0,0,22.963.8Z" transform="translate(707.644 747.206)" fill="#00B9BE"/>
    <path id="Trazado_14797" data-name="Trazado 14797" d="M.809-3.641l.573,1.522.572-1.522H2.4v1.986H2.056V-2.31l.034-.876L1.5-1.655H1.256L.671-3.184l.034.874v.655H.361V-3.641ZM3.425-1.627a.686.686,0,0,1-.511-.2.72.72,0,0,1-.2-.529V-2.4A.886.886,0,0,1,2.8-2.79a.649.649,0,0,1,.239-.271.633.633,0,0,1,.344-.1.579.579,0,0,1,.466.192.813.813,0,0,1,.164.544v.134H3.053A.443.443,0,0,0,3.175-2a.367.367,0,0,0,.269.106.449.449,0,0,0,.371-.184l.179.171a.6.6,0,0,1-.237.205A.741.741,0,0,1,3.425-1.627Zm-.04-1.265a.279.279,0,0,0-.22.1.5.5,0,0,0-.107.266H3.69v-.025A.4.4,0,0,0,3.6-2.807.277.277,0,0,0,3.386-2.892Zm1.2-.239.01.154a.531.531,0,0,1,.426-.181.408.408,0,0,1,.405.226.523.523,0,0,1,.453-.226.46.46,0,0,1,.364.135.6.6,0,0,1,.122.4v.97H6.033v-.96a.294.294,0,0,0-.061-.206.269.269,0,0,0-.2-.065.276.276,0,0,0-.185.061.32.32,0,0,0-.1.159v1.012H5.153v-.971a.236.236,0,0,0-.266-.261.292.292,0,0,0-.282.162v1.069H4.274V-3.131ZM8-2.378a.887.887,0,0,1-.153.547.5.5,0,0,1-.422.2.481.481,0,0,1-.4-.187L7-1.655H6.7v-2.1h.331v.761a.48.48,0,0,1,.386-.169.506.506,0,0,1,.424.2A.9.9,0,0,1,8-2.4Zm-.331-.029a.627.627,0,0,0-.085-.36.282.282,0,0,0-.246-.12.308.308,0,0,0-.3.188v.608a.311.311,0,0,0,.306.192.28.28,0,0,0,.24-.116.607.607,0,0,0,.087-.351Zm1.382-.422a.82.82,0,0,0-.135-.011.3.3,0,0,0-.307.175v1.009H8.277V-3.131h.316l.008.165a.373.373,0,0,1,.333-.192.31.31,0,0,1,.117.019Zm.859,1.2a.686.686,0,0,1-.511-.2.72.72,0,0,1-.2-.529V-2.4a.886.886,0,0,1,.085-.395.649.649,0,0,1,.239-.271.633.633,0,0,1,.344-.1.579.579,0,0,1,.466.192.813.813,0,0,1,.164.544v.134H9.538A.443.443,0,0,0,9.66-2a.367.367,0,0,0,.269.106.449.449,0,0,0,.371-.184l.179.171a.6.6,0,0,1-.237.205A.741.741,0,0,1,9.91-1.627ZM9.87-2.892a.279.279,0,0,0-.22.1.5.5,0,0,0-.107.266h.632v-.025a.4.4,0,0,0-.089-.252A.277.277,0,0,0,9.87-2.892Zm1.716.836a.15.15,0,0,0-.073-.135.776.776,0,0,0-.242-.082,1.245,1.245,0,0,1-.282-.09.377.377,0,0,1-.248-.348A.393.393,0,0,1,10.9-3.03a.636.636,0,0,1,.409-.128.662.662,0,0,1,.428.131.416.416,0,0,1,.163.34H11.57a.2.2,0,0,0-.071-.159.272.272,0,0,0-.188-.063.294.294,0,0,0-.178.05.159.159,0,0,0-.069.135.134.134,0,0,0,.064.119.882.882,0,0,0,.259.085,1.227,1.227,0,0,1,.306.1.434.434,0,0,1,.165.143.364.364,0,0,1,.054.2.385.385,0,0,1-.165.323.7.7,0,0,1-.432.123.763.763,0,0,1-.323-.065.532.532,0,0,1-.221-.18.426.426,0,0,1-.079-.247h.322a.234.234,0,0,0,.089.181.345.345,0,0,0,.217.063.335.335,0,0,0,.2-.05A.154.154,0,0,0,11.586-2.056Zm.971.4h-.331V-3.131h.331ZM12.495-3.74h.378l-.378.413h-.266Zm1.322,2.086a.512.512,0,0,1-.038-.138.516.516,0,0,1-.387.165.521.521,0,0,1-.363-.127.406.406,0,0,1-.141-.314.419.419,0,0,1,.175-.362.849.849,0,0,1,.5-.126h.2v-.1a.259.259,0,0,0-.064-.183.254.254,0,0,0-.2-.069.292.292,0,0,0-.186.057.175.175,0,0,0-.072.144h-.331A.368.368,0,0,1,13-2.932a.536.536,0,0,1,.219-.166.769.769,0,0,1,.309-.06.619.619,0,0,1,.413.13.465.465,0,0,1,.158.366V-2a.754.754,0,0,0,.056.318v.023Zm-.364-.239a.377.377,0,0,0,.185-.048.319.319,0,0,0,.13-.128v-.278h-.179a.489.489,0,0,0-.277.064.208.208,0,0,0-.093.181.194.194,0,0,0,.063.152A.246.246,0,0,0,13.452-1.893Z" transform="translate(690.441 740.974)" fill="#00B9BE"/>
    <path id="Trazado_14796" data-name="Trazado 14796" d="M1.677-4.407l-.405.43v1.115H.65V-6.437h.621V-4.76l.344-.425L2.661-6.437h.751L2.084-4.854l1.4,1.991H2.752ZM6.6-4.556a2.193,2.193,0,0,1-.182.922,1.374,1.374,0,0,1-.519.609,1.428,1.428,0,0,1-.777.212,1.432,1.432,0,0,1-.775-.212,1.4,1.4,0,0,1-.525-.605,2.125,2.125,0,0,1-.188-.906v-.2a2.175,2.175,0,0,1,.185-.923,1.393,1.393,0,0,1,.523-.613,1.424,1.424,0,0,1,.775-.212,1.436,1.436,0,0,1,.775.21,1.376,1.376,0,0,1,.522.6,2.17,2.17,0,0,1,.187.917Zm-.621-.187a1.563,1.563,0,0,0-.225-.911.735.735,0,0,0-.637-.317.733.733,0,0,0-.63.316,1.533,1.533,0,0,0-.232.893v.206a1.551,1.551,0,0,0,.23.911.739.739,0,0,0,.637.322.731.731,0,0,0,.635-.314,1.584,1.584,0,0,0,.222-.918Zm4.093.187a2.193,2.193,0,0,1-.182.922,1.374,1.374,0,0,1-.519.609,1.428,1.428,0,0,1-.777.212,1.432,1.432,0,0,1-.775-.212,1.4,1.4,0,0,1-.525-.605A2.125,2.125,0,0,1,7.1-4.537v-.2a2.175,2.175,0,0,1,.185-.923,1.393,1.393,0,0,1,.523-.613,1.424,1.424,0,0,1,.775-.212,1.436,1.436,0,0,1,.775.21,1.376,1.376,0,0,1,.522.6,2.17,2.17,0,0,1,.187.917Zm-.621-.187a1.563,1.563,0,0,0-.225-.911.735.735,0,0,0-.637-.317.733.733,0,0,0-.63.316,1.533,1.533,0,0,0-.232.893v.206a1.551,1.551,0,0,0,.23.911.739.739,0,0,0,.637.322.731.731,0,0,0,.635-.314,1.584,1.584,0,0,0,.222-.918Zm2.045-1.694L12.524-3.7l1.029-2.74h.8v3.575h-.619V-4.041L13.8-5.617,12.743-2.862H12.3L11.245-5.615l.061,1.574v1.179h-.619V-6.437Zm4.623,2.031-.405.43v1.115H15.09V-6.437h.621V-4.76l.344-.425L17.1-6.437h.751L16.524-4.854l1.4,1.991h-.737Zm2.8,1.544H18.3V-6.437h.619Zm3.6,0h-.621L20.3-5.4v2.536h-.621V-6.437H20.3l1.6,2.546V-6.437h.616Z" transform="translate(697.33 747.368)" fill="#00B9BE"/>
    <path id="Trazado_14798" data-name="Trazado 14798" d="M.558-1.535a.507.507,0,0,1-.023.161.382.382,0,0,1-.081.124l-.084.087A.243.243,0,0,0,.3-1a.152.152,0,0,0,.04.115.157.157,0,0,0,.113.038A.161.161,0,0,0,.564-.884.143.143,0,0,0,.607-.993h.2a.294.294,0,0,1-.1.23A.377.377,0,0,1,.45-.678.38.38,0,0,1,.189-.76.3.3,0,0,1,.1-.993a.394.394,0,0,1,.127-.269L.3-1.338a.227.227,0,0,0,.072-.153l0-.043Zm.016-.254a.106.106,0,0,1-.029.076.109.109,0,0,1-.083.031.111.111,0,0,1-.083-.031A.106.106,0,0,1,.35-1.789a.1.1,0,0,1,.029-.075.111.111,0,0,1,.083-.031.109.109,0,0,1,.083.031A.105.105,0,0,1,.575-1.789Zm1.314.408a.43.43,0,0,1-.141.3.48.48,0,0,1-.327.107.465.465,0,0,1-.251-.068A.443.443,0,0,1,1-1.236a.693.693,0,0,1-.061-.289v-.111a.7.7,0,0,1,.06-.3.45.45,0,0,1,.171-.2.478.478,0,0,1,.258-.07.461.461,0,0,1,.318.107.446.446,0,0,1,.14.3H1.682a.294.294,0,0,0-.075-.185.248.248,0,0,0-.176-.057.242.242,0,0,0-.207.1.493.493,0,0,0-.074.29v.106a.523.523,0,0,0,.069.295.229.229,0,0,0,.2.1A.268.268,0,0,0,1.6-1.2a.286.286,0,0,0,.078-.183Zm.7.3a.308.308,0,0,1-.249.1.275.275,0,0,1-.218-.084A.359.359,0,0,1,2.05-1.3v-.574h.2v.571q0,.169.14.169a.2.2,0,0,0,.2-.1v-.636h.2v.886H2.6Zm.924.087a.307.307,0,0,1-.023-.083.31.31,0,0,1-.232.1.312.312,0,0,1-.218-.076.244.244,0,0,1-.084-.188.251.251,0,0,1,.105-.217.51.51,0,0,1,.3-.076h.122v-.058a.155.155,0,0,0-.038-.11.152.152,0,0,0-.117-.041.175.175,0,0,0-.111.034.105.105,0,0,0-.043.086h-.2a.221.221,0,0,1,.048-.136.322.322,0,0,1,.131-.1.461.461,0,0,1,.185-.036.372.372,0,0,1,.248.078.279.279,0,0,1,.095.22v.4a.453.453,0,0,0,.034.191v.014ZM3.3-1.136a.226.226,0,0,0,.111-.029.191.191,0,0,0,.078-.077v-.167H3.378a.293.293,0,0,0-.166.038.125.125,0,0,0-.056.109.116.116,0,0,0,.038.091A.147.147,0,0,0,3.3-1.136Zm.11-1.114h.227L3.406-2h-.16Zm.67.372.006.1a.318.318,0,0,1,.258-.119q.277,0,.282.317v.585h-.2v-.574a.182.182,0,0,0-.036-.125.153.153,0,0,0-.119-.041.192.192,0,0,0-.179.109v.63h-.2v-.886Zm1-.215v.215H5.23v.147H5.074v.494a.109.109,0,0,0,.02.073.093.093,0,0,0,.072.023.306.306,0,0,0,.07-.008V-1A.49.49,0,0,1,5.1-.976q-.229,0-.229-.253v-.5H4.729v-.147h.146v-.215Zm.246.65a.522.522,0,0,1,.052-.234.377.377,0,0,1,.145-.16.408.408,0,0,1,.214-.056.387.387,0,0,1,.291.115.454.454,0,0,1,.121.306v.047a.527.527,0,0,1-.05.234.372.372,0,0,1-.144.16.411.411,0,0,1-.216.056.384.384,0,0,1-.3-.125.478.478,0,0,1-.113-.333Zm.2.017a.357.357,0,0,0,.056.214.184.184,0,0,0,.157.077.182.182,0,0,0,.157-.079.394.394,0,0,0,.056-.23.352.352,0,0,0-.058-.213.184.184,0,0,0-.157-.079.183.183,0,0,0-.155.077A.387.387,0,0,0,5.519-1.427Zm1.289.193a.09.09,0,0,0-.044-.081.466.466,0,0,0-.145-.049.747.747,0,0,1-.169-.054A.226.226,0,0,1,6.3-1.626a.236.236,0,0,1,.1-.192.382.382,0,0,1,.246-.077.4.4,0,0,1,.257.079.249.249,0,0,1,.1.2H6.8a.123.123,0,0,0-.043-.1.163.163,0,0,0-.113-.038.176.176,0,0,0-.107.03.1.1,0,0,0-.041.081.081.081,0,0,0,.038.071.529.529,0,0,0,.156.051.736.736,0,0,1,.184.061.26.26,0,0,1,.1.086A.218.218,0,0,1,7-1.244a.231.231,0,0,1-.1.194.422.422,0,0,1-.259.074.458.458,0,0,1-.194-.039.319.319,0,0,1-.133-.108.256.256,0,0,1-.047-.148h.193a.14.14,0,0,0,.053.108.207.207,0,0,0,.13.038.2.2,0,0,0,.119-.03A.092.092,0,0,0,6.808-1.233Zm1.15.1a.18.18,0,0,0,.124-.043.148.148,0,0,0,.052-.107h.187a.292.292,0,0,1-.052.154.338.338,0,0,1-.131.113.39.39,0,0,1-.178.042.378.378,0,0,1-.295-.12.477.477,0,0,1-.109-.332v-.02a.469.469,0,0,1,.108-.324.374.374,0,0,1,.295-.122.364.364,0,0,1,.257.092.33.33,0,0,1,.1.242H8.134a.182.182,0,0,0-.052-.125.167.167,0,0,0-.124-.049.175.175,0,0,0-.149.07.357.357,0,0,0-.053.212v.032a.363.363,0,0,0,.052.215A.175.175,0,0,0,7.958-1.135Zm.725.142h-.2V-2.25h.2Zm.428,0h-.2v-.886h.2ZM8.9-2.108a.106.106,0,0,1,.029-.076.11.11,0,0,1,.083-.03.111.111,0,0,1,.083.03.1.1,0,0,1,.029.076.1.1,0,0,1-.029.075A.112.112,0,0,1,9.012-2a.111.111,0,0,1-.083-.03A.1.1,0,0,1,8.9-2.108ZM9.718-.976A.411.411,0,0,1,9.411-1.1a.432.432,0,0,1-.117-.317v-.025a.531.531,0,0,1,.051-.237.389.389,0,0,1,.144-.162.38.38,0,0,1,.206-.058.348.348,0,0,1,.28.115.488.488,0,0,1,.1.327v.08H9.494a.266.266,0,0,0,.073.174.22.22,0,0,0,.162.064.269.269,0,0,0,.223-.11l.107.1a.358.358,0,0,1-.142.123A.445.445,0,0,1,9.718-.976Zm-.024-.759a.167.167,0,0,0-.132.057.3.3,0,0,0-.064.16h.379v-.015a.242.242,0,0,0-.053-.151A.166.166,0,0,0,9.694-1.735Zm.718-.143.006.1a.318.318,0,0,1,.258-.119q.277,0,.282.317v.585h-.2v-.574a.182.182,0,0,0-.036-.125.153.153,0,0,0-.119-.041.192.192,0,0,0-.179.109v.63h-.2v-.886Zm1-.215v.215h.156v.147h-.156v.494a.109.109,0,0,0,.02.073.093.093,0,0,0,.072.023.306.306,0,0,0,.07-.008V-1a.49.49,0,0,1-.131.019q-.229,0-.229-.253v-.5h-.146v-.147h.146v-.215Zm.7,1.117A.411.411,0,0,1,11.8-1.1a.432.432,0,0,1-.117-.317v-.025a.531.531,0,0,1,.051-.237.389.389,0,0,1,.144-.162.38.38,0,0,1,.206-.058.348.348,0,0,1,.28.115.488.488,0,0,1,.1.327v.08h-.579a.266.266,0,0,0,.073.174.22.22,0,0,0,.162.064.269.269,0,0,0,.223-.11l.107.1a.358.358,0,0,1-.142.123A.445.445,0,0,1,12.107-.976Zm-.024-.759a.167.167,0,0,0-.132.057.3.3,0,0,0-.064.16h.379v-.015a.242.242,0,0,0-.053-.151A.166.166,0,0,0,12.083-1.735Zm1.03.5a.09.09,0,0,0-.044-.081.466.466,0,0,0-.145-.049.747.747,0,0,1-.169-.054.226.226,0,0,1-.149-.209.236.236,0,0,1,.1-.192.382.382,0,0,1,.246-.077.4.4,0,0,1,.257.079.249.249,0,0,1,.1.2h-.2a.123.123,0,0,0-.043-.1.163.163,0,0,0-.113-.038.176.176,0,0,0-.107.03.1.1,0,0,0-.041.081.081.081,0,0,0,.038.071.529.529,0,0,0,.156.051.736.736,0,0,1,.184.061.26.26,0,0,1,.1.086.218.218,0,0,1,.032.121.231.231,0,0,1-.1.194.422.422,0,0,1-.259.074.458.458,0,0,1-.194-.039.319.319,0,0,1-.133-.108.256.256,0,0,1-.047-.148h.193a.14.14,0,0,0,.053.108.207.207,0,0,0,.13.038.2.2,0,0,0,.119-.03A.092.092,0,0,0,13.113-1.233ZM.329.356l.006.1A.318.318,0,0,1,.593.34Q.869.34.874.657v.585h-.2V.668A.182.182,0,0,0,.639.544.153.153,0,0,0,.52.5.192.192,0,0,0,.341.612v.63h-.2V.356Zm1.284.8a.308.308,0,0,1-.249.1.275.275,0,0,1-.218-.084A.359.359,0,0,1,1.072.93V.356h.2V.928q0,.169.14.169a.2.2,0,0,0,.2-.1V.356h.2v.886H1.618Zm.785.1a.411.411,0,0,1-.307-.119A.432.432,0,0,1,1.974.822V.8A.531.531,0,0,1,2.025.561.389.389,0,0,1,2.169.4.38.38,0,0,1,2.375.34a.348.348,0,0,1,.28.115.488.488,0,0,1,.1.327v.08H2.175a.266.266,0,0,0,.073.174A.22.22,0,0,0,2.41,1.1a.269.269,0,0,0,.223-.11l.107.1a.358.358,0,0,1-.142.123A.445.445,0,0,1,2.4,1.258ZM2.374.5a.167.167,0,0,0-.132.057.3.3,0,0,0-.064.16h.379V.7A.242.242,0,0,0,2.5.551.166.166,0,0,0,2.374.5Zm.835.49L3.4.356H3.6L3.3,1.242H3.122L2.813.356h.206Zm.467-.2A.522.522,0,0,1,3.728.557.377.377,0,0,1,3.873.4.408.408,0,0,1,4.087.34a.387.387,0,0,1,.291.115A.454.454,0,0,1,4.5.762V.808a.527.527,0,0,1-.05.234.372.372,0,0,1-.144.16.411.411,0,0,1-.216.056.384.384,0,0,1-.3-.125A.478.478,0,0,1,3.677.8Zm.2.017a.357.357,0,0,0,.056.214.184.184,0,0,0,.157.077.182.182,0,0,0,.157-.079A.394.394,0,0,0,4.3.791.352.352,0,0,0,4.244.578a.194.194,0,0,0-.311,0A.387.387,0,0,0,3.875.808ZM5.165,1A.09.09,0,0,0,5.121.92.466.466,0,0,0,4.975.871.747.747,0,0,1,4.806.817.226.226,0,0,1,4.657.609a.236.236,0,0,1,.1-.192A.382.382,0,0,1,5,.34a.4.4,0,0,1,.257.079.249.249,0,0,1,.1.2h-.2a.123.123,0,0,0-.043-.1A.163.163,0,0,0,5,.489a.176.176,0,0,0-.107.03A.1.1,0,0,0,4.851.6.081.081,0,0,0,4.89.672a.529.529,0,0,0,.156.051.736.736,0,0,1,.184.061.26.26,0,0,1,.1.086A.218.218,0,0,1,5.36.991a.231.231,0,0,1-.1.194A.422.422,0,0,1,5,1.258a.458.458,0,0,1-.194-.039.319.319,0,0,1-.133-.108A.256.256,0,0,1,4.628.963h.193a.14.14,0,0,0,.053.108A.207.207,0,0,0,5,1.109a.2.2,0,0,0,.119-.03A.092.092,0,0,0,5.165,1Zm.749-.21a.523.523,0,0,1,.095-.33A.308.308,0,0,1,6.265.34a.29.29,0,0,1,.235.1L6.512.356h.177V1.583h-.2V1.167a.3.3,0,0,1-.226.092.306.306,0,0,1-.255-.124A.548.548,0,0,1,5.913.792Zm.2.017a.37.37,0,0,0,.054.213.171.171,0,0,0,.149.077A.188.188,0,0,0,6.49,1V.6A.189.189,0,0,0,6.316.5a.174.174,0,0,0-.149.076A.4.4,0,0,0,6.112.809Zm1.327.346a.308.308,0,0,1-.249.1.275.275,0,0,1-.218-.084A.359.359,0,0,1,6.9.93V.356h.2V.928q0,.169.14.169a.2.2,0,0,0,.2-.1V.356h.2v.886H7.444Zm.606.087h-.2V.356h.2ZM7.834.127A.106.106,0,0,1,7.863.05.11.11,0,0,1,7.946.02.111.111,0,0,1,8.03.05a.1.1,0,0,1,.029.076A.1.1,0,0,1,8.03.2a.112.112,0,0,1-.083.03A.111.111,0,0,1,7.863.2.1.1,0,0,1,7.834.127Zm.818,1.132a.411.411,0,0,1-.307-.119A.432.432,0,0,1,8.228.822V.8A.531.531,0,0,1,8.279.561.389.389,0,0,1,8.423.4.38.38,0,0,1,8.629.34a.348.348,0,0,1,.28.115.488.488,0,0,1,.1.327v.08H8.429a.266.266,0,0,0,.073.174.22.22,0,0,0,.162.064.269.269,0,0,0,.223-.11l.107.1a.358.358,0,0,1-.142.123A.445.445,0,0,1,8.652,1.258ZM8.628.5A.167.167,0,0,0,8.5.557a.3.3,0,0,0-.064.16h.379V.7A.242.242,0,0,0,8.758.551.166.166,0,0,0,8.628.5Zm1,.038A.492.492,0,0,0,9.544.532a.182.182,0,0,0-.184.1v.606h-.2V.356h.19l0,.1a.224.224,0,0,1,.2-.115.186.186,0,0,1,.07.011Zm.516.72a.411.411,0,0,1-.307-.119A.432.432,0,0,1,9.717.822V.8A.531.531,0,0,1,9.768.561.389.389,0,0,1,9.912.4.38.38,0,0,1,10.118.34a.348.348,0,0,1,.28.115.488.488,0,0,1,.1.327v.08H9.917a.266.266,0,0,0,.073.174.22.22,0,0,0,.162.064.269.269,0,0,0,.223-.11l.107.1a.358.358,0,0,1-.142.123A.445.445,0,0,1,10.141,1.258ZM10.117.5a.167.167,0,0,0-.132.057.3.3,0,0,0-.064.16H10.3V.7a.242.242,0,0,0-.053-.151A.166.166,0,0,0,10.117.5Zm1.03.5A.09.09,0,0,0,11.1.92a.466.466,0,0,0-.145-.049.747.747,0,0,1-.169-.054.226.226,0,0,1-.149-.209.236.236,0,0,1,.1-.192A.382.382,0,0,1,10.981.34a.4.4,0,0,1,.257.079.249.249,0,0,1,.1.2h-.2a.123.123,0,0,0-.043-.1.163.163,0,0,0-.113-.038.176.176,0,0,0-.107.03A.1.1,0,0,0,10.833.6a.081.081,0,0,0,.038.071.529.529,0,0,0,.156.051.736.736,0,0,1,.184.061.26.26,0,0,1,.1.086.218.218,0,0,1,.032.121.231.231,0,0,1-.1.194.422.422,0,0,1-.259.074.458.458,0,0,1-.194-.039.319.319,0,0,1-.133-.108A.256.256,0,0,1,10.61.963H10.8a.14.14,0,0,0,.053.108.207.207,0,0,0,.13.038.2.2,0,0,0,.119-.03A.092.092,0,0,0,11.147,1Zm.982-.548A.311.311,0,0,1,12.375.34q.283,0,.287.323v.579h-.2V.671a.175.175,0,0,0-.04-.13A.162.162,0,0,0,12.307.5a.192.192,0,0,0-.178.106v.633h-.2V-.015h.2Zm.7.338a.522.522,0,0,1,.052-.234A.377.377,0,0,1,13.022.4.408.408,0,0,1,13.237.34a.387.387,0,0,1,.291.115.454.454,0,0,1,.121.306V.808a.527.527,0,0,1-.05.234.372.372,0,0,1-.144.16.411.411,0,0,1-.216.056.384.384,0,0,1-.3-.125A.478.478,0,0,1,12.826.8Zm.2.017a.357.357,0,0,0,.056.214.184.184,0,0,0,.157.077.182.182,0,0,0,.157-.079.394.394,0,0,0,.056-.23.352.352,0,0,0-.058-.213.194.194,0,0,0-.311,0A.387.387,0,0,0,13.025.808Zm1.1.149.18-.6h.212l-.352,1.02a.286.286,0,0,1-.275.223.355.355,0,0,1-.1-.015V1.43l.038,0a.194.194,0,0,0,.113-.027.182.182,0,0,0,.06-.092l.029-.076L13.726.356h.214Zm.691-.065a.46.46,0,0,1,.027-.174.455.455,0,0,1,.107-.142.815.815,0,0,0,.1-.11.193.193,0,0,0,.033-.108.165.165,0,0,0-.038-.117A.146.146,0,0,0,14.936.2a.161.161,0,0,0-.113.04.139.139,0,0,0-.043.107h-.2a.293.293,0,0,1,.1-.229.377.377,0,0,1,.257-.084.368.368,0,0,1,.257.084.3.3,0,0,1,.092.233.382.382,0,0,1-.124.263l-.1.1A.27.27,0,0,0,15,.893Zm-.014.254a.1.1,0,0,1,.03-.078.127.127,0,0,1,.165,0,.1.1,0,0,1,.03.077A.1.1,0,0,1,15,1.222a.111.111,0,0,1-.083.03.11.11,0,0,1-.083-.03A.1.1,0,0,1,14.8,1.147Z" transform="translate(689.608 755.884)" fill="#00B9BE"/>
  </g>
</svg>
