<svg xmlns="http://www.w3.org/2000/svg" xmlns:xlink="http://www.w3.org/1999/xlink" width="48" height="48" viewBox="0 0 48 48">
  <defs>
    <clipPath id="clip-path">
      <rect id="Rectangle_6040" data-name="Rectangle 6040" width="23.805" height="40.2" fill="#fff"/>
    </clipPath>
  </defs>
  <g id="Symbol_2_1" data-name="Symbol 2 – 1" transform="translate(230 -269)">
    <rect id="Rectangle_6057" data-name="Rectangle 6057" width="48" height="48" transform="translate(-230 269)" fill="none"/>
    <g id="Group_9409" data-name="Group 9409" transform="translate(-495.511 -137.273)">
      <g id="Group_9360" data-name="Group 9360" transform="translate(277.511 410.273)">
        <g id="Group_9359" data-name="Group 9359" clip-path="url(#clip-path)">
          <path id="Path_18084" data-name="Path 18084" d="M297.414,410.159H280.446a2.939,2.939,0,0,0-2.935,2.935v34.454a2.934,2.934,0,0,0,2.935,2.935h16.968a2.934,2.934,0,0,0,2.935-2.935V413.094a2.939,2.939,0,0,0-2.935-2.935Zm-12.67,1.787h8.372c.215,0,.388.316.388.7s-.173.711-.388.711h-8.372c-.217,0-.382-.316-.382-.711s.165-.7.382-.7Zm4.19,35.637a1.873,1.873,0,1,1,1.864-1.872,1.88,1.88,0,0,1-1.864,1.872Zm9.212-6.421H279.713V415.118h18.432Zm0,0" transform="translate(-277.51 -410.368)" fill="#fff"/>
        </g>
      </g>
    </g>
  </g>
</svg>
