<svg xmlns="http://www.w3.org/2000/svg" width="48" height="48" viewBox="0 0 48 48">
  <g id="Group_9411" data-name="Group 9411" transform="translate(230 -405)">
    <rect id="Rectangle_6059" data-name="Rectangle 6059" width="48" height="48" transform="translate(-230 405)" fill="none"/>
    <g id="Group_9410" data-name="Group 9410" transform="translate(-317 146.11)">
      <path id="Path_18086" data-name="Path 18086" d="M131,292.265a4.827,4.827,0,0,1-.626,2.345L118.06,280.832l12.18-10.657a4.839,4.839,0,0,1,.76,2.59Zm-19.5-8.931,16.948-14.83a4.811,4.811,0,0,0-2.323-.614H96.875a4.794,4.794,0,0,0-2.322.614Zm4.725-.9-3.923,3.435a1.223,1.223,0,0,1-1.6,0l-3.924-3.435L94.3,296.39a4.816,4.816,0,0,0,2.571.75h29.25a4.813,4.813,0,0,0,2.571-.75ZM92.76,270.175a4.839,4.839,0,0,0-.76,2.59v19.5a4.815,4.815,0,0,0,.626,2.345l12.312-13.78Zm0,0" transform="translate(0 0)" fill="#fff"/>
    </g>
  </g>
</svg>
