<svg xmlns="http://www.w3.org/2000/svg" width="48" height="48" viewBox="0 0 48 48">
  <g id="Group_9415" data-name="Group 9415" transform="translate(377 -569)">
    <rect id="Rectangle_6041" data-name="Rectangle 6041" width="48" height="48" transform="translate(-377 569)" fill="none"/>
    <path id="Union_6" data-name="Union 6" d="M24.915,39.146h-.124L22.5,42.585l-1.789-3.032L18.7,42.585l-1.861-3.154-2.1,3.154-1.861-3.154-2.1,3.154-1.9-3.214L6.745,42.585,4.7,39.114H4.36L0,42.6V3.248A3.252,3.252,0,0,1,3.248,0H20.3a.809.809,0,0,1,.575.239l8.118,8.118a.809.809,0,0,1,.239.575v26.8a31.036,31.036,0,0,1,0,3.368v3.5ZM4.872,28.42a.812.812,0,0,0,.812.812H23.548a.812.812,0,0,0,0-1.624H5.684A.812.812,0,0,0,4.872,28.42Zm0-4.872a.812.812,0,0,0,.812.812H23.548a.812.812,0,0,0,0-1.624H5.684A.812.812,0,0,0,4.872,23.548Zm0-4.872a.812.812,0,0,0,.812.812H23.548a.812.812,0,0,0,0-1.624H5.684A.812.812,0,0,0,4.872,18.676Zm0-4.872a.812.812,0,0,0,.812.812H6.5a.812.812,0,1,0,1.624,0v-.15a2.43,2.43,0,0,0-.812-4.723.812.812,0,0,1,0-1.624H8.932a.812.812,0,0,0,0-1.624H8.12A.812.812,0,1,0,6.5,6.5v.15a2.43,2.43,0,0,0,.812,4.723.812.812,0,0,1,0,1.624H5.684A.812.812,0,0,0,4.872,13.8Zm8.12,0a.812.812,0,0,0,.812.812h9.744a.812.812,0,0,0,0-1.624H13.8A.812.812,0,0,0,12.992,13.8ZM21.112,6.5A1.626,1.626,0,0,0,22.736,8.12H26.46L21.112,2.772Z" transform="translate(-368 572)" fill="#fff" stroke="rgba(0,0,0,0)" stroke-width="1"/>
  </g>
</svg>
