<svg xmlns="http://www.w3.org/2000/svg" width="48" height="48" viewBox="0 0 48 48">
  <g id="Symbol_3_1" data-name="Symbol 3 – 1" transform="translate(230 -190)">
    <rect id="Rectangle_6056" data-name="Rectangle 6056" width="48" height="48" transform="translate(-230 190)" fill="none"/>
    <g id="Group_9407" data-name="Group 9407" transform="translate(102 38)">
      <rect id="Rectangle_6039" data-name="Rectangle 6039" width="39" height="39" transform="translate(-328 157)" fill="none"/>
      <g id="Group_9357" data-name="Group 9357" transform="translate(-328 157)">
        <rect id="Rectangle_6036" data-name="Rectangle 6036" width="2.6" height="39" transform="translate(18.2 0)" fill="#fff"/>
        <rect id="Rectangle_6037" data-name="Rectangle 6037" width="2.6" height="39" transform="translate(31.85 0)" fill="#fff"/>
        <rect id="Rectangle_6038" data-name="Rectangle 6038" width="2.6" height="39" transform="translate(4.55 0)" fill="#fff"/>
        <path id="Path_18073" data-name="Path 18073" d="M231.838,261.89a5.85,5.85,0,1,0,5.85,5.85,5.85,5.85,0,0,0-5.85-5.85Zm0,9.1a3.25,3.25,0,1,1,3.25-3.25,3.25,3.25,0,0,1-3.25,3.25Zm0,0" transform="translate(-212.338 -255.39)" fill="#fff"/>
        <path id="Path_18074" data-name="Path 18074" d="M264.488,297.14a3.25,3.25,0,1,1-3.25-3.25,3.25,3.25,0,0,1,3.25,3.25Zm0,0" transform="translate(-241.738 -284.79)" fill="#0da7c2"/>
        <path id="Path_18075" data-name="Path 18075" d="M399.838,405.89a5.85,5.85,0,1,0,5.85,5.85,5.85,5.85,0,0,0-5.85-5.85Zm0,9.1a3.25,3.25,0,1,1,3.25-3.25,3.25,3.25,0,0,1-3.25,3.25Zm0,0" transform="translate(-366.688 -387.69)" fill="#fff"/>
        <path id="Path_18076" data-name="Path 18076" d="M432.488,441.14a3.25,3.25,0,1,1-3.25-3.25,3.25,3.25,0,0,1,3.25,3.25Zm0,0" transform="translate(-396.088 -417.09)" fill="#0da7c2"/>
        <path id="Path_18077" data-name="Path 18077" d="M63.838,469.89a5.85,5.85,0,1,0,5.85,5.85,5.85,5.85,0,0,0-5.85-5.85Zm0,9.1a3.25,3.25,0,1,1,3.25-3.25,3.25,3.25,0,0,1-3.25,3.25Zm0,0" transform="translate(-57.988 -446.49)" fill="#fff"/>
        <path id="Path_18078" data-name="Path 18078" d="M96.488,505.14a3.25,3.25,0,1,1-3.25-3.25,3.25,3.25,0,0,1,3.25,3.25Zm0,0" transform="translate(-87.388 -475.89)" fill="#0da7c2"/>
        <path id="Path_18079" data-name="Path 18079" d="M253.888,285.89a3.9,3.9,0,1,0,3.9,3.9,3.9,3.9,0,0,0-3.9-3.9Zm0,6.5a2.6,2.6,0,1,1,2.6-2.6,2.6,2.6,0,0,1-2.6,2.6Zm0,0" transform="translate(-234.388 -277.44)" fill="#fff"/>
        <path id="Path_18083" data-name="Path 18083" d="M85.888,493.89a3.9,3.9,0,1,0,3.9,3.9,3.9,3.9,0,0,0-3.9-3.9Zm0,6.5a2.6,2.6,0,1,1,2.6-2.6,2.6,2.6,0,0,1-2.6,2.6Zm0,0" transform="translate(-80.038 -468.54)" fill="#fff"/>
      </g>
    </g>
  </g>
</svg>
