<svg xmlns="http://www.w3.org/2000/svg" width="23.8" height="24.297" viewBox="0 0 23.8 24.297">
  <g id="Group_3" data-name="Group 3" transform="translate(-278 -401.89)">
    <rect id="Rectangle_6" data-name="Rectangle 6" width="2.973" height="4.959" transform="translate(291.389 404.369)" fill="#fff"/>
    <path id="Path_4427" data-name="Path 4427" d="M297.544,401.89H278v24.3h23.8v-20.04Zm-14.585.993h12.893v7.931H282.959ZM297.338,425.2H281.966V414.783h15.372Zm0,0" fill="#fff"/>
    <path id="Path_4428" data-name="Path 4428" d="M288.1,426.883h3.472a.5.5,0,0,0,0-.993H288.1a.5.5,0,0,0,0,.993Zm0,0" transform="translate(-3.65 -9.124)" fill="#fff"/>
    <path id="Path_4429" data-name="Path 4429" d="M288.1,430.082h4.959a.5.5,0,1,0,0-.993H288.1a.5.5,0,0,0,0,.993Zm0,0" transform="translate(-3.65 -10.34)" fill="#fff"/>
    <path id="Path_4430" data-name="Path 4430" d="M298.5,430.087a.509.509,0,0,0,.351-.146.5.5,0,0,0,0-.7.512.512,0,0,0-.7,0,.494.494,0,0,0-.148.351.492.492,0,0,0,.5.5Zm0,0" transform="translate(-7.603 -10.345)" fill="#fff"/>
  </g>
</svg>
