<svg xmlns="http://www.w3.org/2000/svg" width="32" height="32" viewBox="0 0 32 32">
  <g id="Grupo_11690" data-name="Grupo 11690" transform="translate(-3249 -959)">
    <g id="Grupo_11676" data-name="Grupo 11676" transform="translate(3252 961)">
      <g id="men-shaking-hands">
        <g id="Grupo_11641" data-name="Grupo 11641" transform="translate(0 0)">
          <path id="Trazado_20402" data-name="Trazado 20402" d="M27.426,17.656a8.707,8.707,0,0,0-4.413-5.575,1.391,1.391,0,0,0-.47-.144,3.509,3.509,0,0,0-1.353-.147,3.226,3.226,0,0,0-2.675,1.531,2.824,2.824,0,0,0-.264.4,12.171,12.171,0,0,1-4.008,3.744,1.471,1.471,0,0,0-.283-.082,6.081,6.081,0,0,1-4.3-2.659,1.369,1.369,0,0,0-.493-.473A3.543,3.543,0,0,0,6.855,13.23a3.512,3.512,0,0,0-1.352.146,1.38,1.38,0,0,0-.469.144A8.7,8.7,0,0,0,.621,19.1c-.465,1.694,2.1,2.655,2.57.953a8.163,8.163,0,0,1,.635-1.631l-.082,4.265c0,.023.005.045.005.068l-.015.8-.167,3.976L3.209,32.5a.788.788,0,0,0,.078.351l0,.017a1.082,1.082,0,0,0,1.166.976,1.1,1.1,0,0,0,1.2-.945l.7-6.542.121-.971.289,0L7.1,29.272l.23,3.369a.8.8,0,0,0,.108.408,1.147,1.147,0,0,0,1.138.76,1.1,1.1,0,0,0,1.2-.945l-.169-4.982L9.6,23.9l.012-.66c0-.021.006-.041.006-.061L9.7,18.6a9.185,9.185,0,0,0,3.53,1.431,1.376,1.376,0,0,0,.97-.165,1.371,1.371,0,0,0,1.431-.039,24.107,24.107,0,0,0,2.725-1.913q.037,1.916.073,3.832c0,.02.005.041.006.061l.012.662-.013,3.977-.168,4.983a1.1,1.1,0,0,0,1.2.945,1.148,1.148,0,0,0,1.139-.761.814.814,0,0,0,.107-.408l.23-3.369.337-3.881.29,0,.122.971.7,6.542a1.1,1.1,0,0,0,1.2.945,1.083,1.083,0,0,0,1.166-.976l0-.016a.789.789,0,0,0,.078-.352l-.358-4.977-.167-3.976-.015-.8c0-.02.005-.04,0-.061l-.082-4.266a8.2,8.2,0,0,1,.636,1.632C25.324,20.311,27.891,19.349,27.426,17.656Z" transform="translate(-0.565 -6.412)" fill="#707070"/>
          <circle id="Elipse_584" data-name="Elipse 584" cx="2.312" cy="2.312" r="2.312" transform="translate(18.419)" fill="#707070"/>
          <circle id="Elipse_585" data-name="Elipse 585" cx="2.312" cy="2.312" r="2.312" transform="translate(3.875 1.44)" fill="#707070"/>
        </g>
      </g>
      <rect id="Rect치ngulo_7446" data-name="Rect치ngulo 7446" width="1" height="5" transform="translate(12.765 7.535)" fill="#707070"/>
    </g>
    <rect id="Rect치ngulo_7455" data-name="Rect치ngulo 7455" width="32" height="32" transform="translate(3249 959)" fill="none"/>
  </g>
</svg>
