<svg xmlns="http://www.w3.org/2000/svg" width="24" height="24" viewBox="0 0 24 24">
  <g id="build" transform="translate(-270 -198)">
    <rect id="Path" width="24" height="24" transform="translate(270 198)" fill="rgba(0,0,0,0)"/>
    <path id="Icon" d="M289.6,220.993a.989.989,0,0,1-.7-.293l-9.11-9.11a6.535,6.535,0,0,1-2.3.417,6.486,6.486,0,0,1-5.238-10.317l3.83,3.829,1.419-1.409-3.839-3.85a6.5,6.5,0,0,1,9.869,7.65l9.08,9.08a1,1,0,0,1,.3.724.956.956,0,0,1-.3.686l-2.3,2.3A.991.991,0,0,1,289.6,220.993Zm-9.455-11.863h0l9.459,9.46.88-.89-9.45-9.45a4.342,4.342,0,0,0,.879-1.96,4.485,4.485,0,0,0-4.427-5.277c-.084,0-.169,0-.253.007l3.091,3.091-4.24,4.24L273,205.26a4.484,4.484,0,0,0,1.32,3.44,4.438,4.438,0,0,0,3.16,1.3,4.628,4.628,0,0,0,.67-.049,4.353,4.353,0,0,0,2-.82Z" fill="#fff"/>
  </g>
</svg>
