<svg id="advertising" xmlns="http://www.w3.org/2000/svg" width="16.9" height="22.533" viewBox="0 0 16.9 22.533">
  <g id="Grupo_11606" data-name="Grupo 11606" transform="translate(0)">
    <g id="Grupo_11605" data-name="Grupo 11605">
      <path id="Trazado_20357" data-name="Trazado 20357" d="M203.135,192a.47.47,0,0,0-.469.469v1.408h.939v-1.408A.47.47,0,0,0,203.135,192Z" transform="translate(-196.563 -183.55)" fill="#fff"/>
      <path id="Trazado_20358" data-name="Trazado 20358" d="M288.469,192H288v2.817h.469a.47.47,0,0,0,.469-.469v-1.878A.47.47,0,0,0,288.469,192Z" transform="translate(-278.142 -183.55)" fill="#fff"/>
      <path id="Trazado_20359" data-name="Trazado 20359" d="M80.431,1.878h-.469V1.408a.469.469,0,0,0-.469-.469H72.92V.469a.469.469,0,1,0-.939,0V.939H65.408a.469.469,0,0,0-.469.469v.469h-.469a.469.469,0,1,0,0,.939h.469v.469a.469.469,0,0,0,.469.469h.469V15.961h-.47a.469.469,0,0,0-.469.469v1.878a.469.469,0,0,0,.469.469h6.572v1.136l-3.05,1.743a.469.469,0,1,0,.466.815l2.584-1.477v1.069a.469.469,0,1,0,.939,0V20.995L75.5,22.472a.464.464,0,0,0,.233.062.469.469,0,0,0,.233-.877l-3.05-1.743V18.778h6.572a.469.469,0,0,0,.469-.469V16.431a.469.469,0,0,0-.469-.469h-.469V3.756h.469a.469.469,0,0,0,.469-.469V2.817h.469a.469.469,0,0,0,0-.939Zm-8.45,9.858a.469.469,0,0,1-.939,0v-.469H70.1v.469a.469.469,0,0,1-.939,0V8.92a1.408,1.408,0,0,1,2.817,0v2.817Zm3.756-.939a1.41,1.41,0,0,1-1.408,1.408h-.939a.469.469,0,0,1-.469-.469V7.981a.469.469,0,0,1,.469-.469h.939a1.41,1.41,0,0,1,1.408,1.408Z" transform="translate(-64)" fill="#fff"/>
    </g>
  </g>
</svg>
