<svg xmlns="http://www.w3.org/2000/svg" width="39.061" height="37.446" viewBox="0 0 39.061 37.446">
  <g id="Group_9417" data-name="Group 9417" transform="translate(-277 -402.89)">
    <path id="Path_18060" data-name="Path 18060" d="M315.52,406.922l-3.493-3.489a1.853,1.853,0,0,0-2.617,0l-2.8,2.79,6.114,6.1,2.793-2.789a1.842,1.842,0,0,0,0-2.609Zm0,0" fill="#dfdfdf"/>
    <path id="Path_18061" data-name="Path 18061" d="M288.469,424.328l6.113,6.1,16.836-16.8-6.113-6.1Zm0,0" fill="#dfdfdf"/>
    <path id="Path_18062" data-name="Path 18062" d="M287.148,425.636l-1.3,7.4,7.418-1.3Zm0,0" fill="#dfdfdf"/>
    <path id="Path_18063" data-name="Path 18063" d="M304.047,436.336H281V413.289h16.266l4.007-4H279.586a2.6,2.6,0,0,0-2.586,2.59V437.75a2.594,2.594,0,0,0,2.586,2.586h25.871a2.6,2.6,0,0,0,2.59-2.586v-18.5l-4,3.992Zm0,0" fill="#dfdfdf"/>
  </g>
</svg>
