<svg xmlns="http://www.w3.org/2000/svg" width="32" height="32" viewBox="0 0 32 32">
  <g id="Grupo_11689" data-name="Grupo 11689" transform="translate(-3124 -1086)">
    <g id="Grupo_11679" data-name="Grupo 11679" transform="translate(3130 1092)">
      <path id="Trazado_469" data-name="Trazado 469" d="M8.375,15.43l-.707,2.708H5.078A9.468,9.468,0,0,1,3.9,13.31,10.72,10.72,0,0,1,5.078,8.6h0l2.355.471,1.06,2.355a5.5,5.5,0,0,0-.353,2A4.067,4.067,0,0,0,8.375,15.43Z" transform="translate(-3.9 -3.066)" fill="#707070"/>
      <path id="Trazado_470" data-name="Trazado 470" d="M22.709,11a10.307,10.307,0,0,1,.236,1.884A12.976,12.976,0,0,1,22.709,15a10.089,10.089,0,0,1-3.65,5.888h0l-2.944-.118-.471-2.591A5.825,5.825,0,0,0,18.234,15H12.7V11H22.709Z" transform="translate(-2.338 -2.639)" fill="#707070"/>
      <path id="Trazado_471" data-name="Trazado 471" d="M20.344,20.288h0a10.281,10.281,0,0,1-6.476,2.237A10.457,10.457,0,0,1,4.8,17.108L8.1,14.4a6.026,6.026,0,0,0,5.77,4,6.216,6.216,0,0,0,3.062-.824Z" transform="translate(-3.74 -2.036)" fill="#707070"/>
      <path id="Trazado_472" data-name="Trazado 472" d="M20.579,6.255l-3.3,2.708A5.922,5.922,0,0,0,14.1,8.021a6.128,6.128,0,0,0-5.77,4.121L4.8,9.434h0A10.4,10.4,0,0,1,20.579,6.255Z" transform="translate(-3.74 -3.9)" fill="#707070"/>
    </g>
    <rect id="Rectángulo_7460" data-name="Rectángulo 7460" width="32" height="32" transform="translate(3124 1086)" fill="none"/>
  </g>
</svg>
