<svg id="folded-newspaper_2_" data-name="folded-newspaper (2)" xmlns="http://www.w3.org/2000/svg" width="24.465" height="19.878" viewBox="0 0 24.465 19.878">
  <g id="Grupo_11604" data-name="Grupo 11604" transform="translate(0 0)">
    <path id="Trazado_20356" data-name="Trazado 20356" d="M21.407,6.058V3H0V19.82a3,3,0,0,0,3.058,3.058H22.171s2.294-.047,2.294-3.058V6.058ZM3.058,21.349A1.5,1.5,0,0,1,1.529,19.82V4.529H19.878V19.82a2.211,2.211,0,0,0,.517,1.529Z" transform="translate(0 -3)" fill="#707070"/>
    <rect id="Rectángulo_7428" data-name="Rectángulo 7428" width="15" height="2" transform="translate(3.438 4.641)" fill="#707070"/>
    <rect id="Rectángulo_7429" data-name="Rectángulo 7429" width="5" height="2" transform="translate(11.438 13.641)" fill="#707070"/>
    <rect id="Rectángulo_7430" data-name="Rectángulo 7430" width="7" height="2" transform="translate(11.438 10.641)" fill="#707070"/>
    <rect id="Rectángulo_7431" data-name="Rectángulo 7431" width="7" height="1" transform="translate(11.438 7.641)" fill="#707070"/>
    <rect id="Rectángulo_7432" data-name="Rectángulo 7432" width="6" height="8" transform="translate(3.438 7.641)" fill="#707070"/>
  </g>
</svg>
