<svg xmlns="http://www.w3.org/2000/svg" width="32" height="32" viewBox="0 0 32 32">
  <g id="phone" transform="translate(-0.065 0.35)">
    <rect id="Path" width="32" height="32" transform="translate(0.065 -0.35)" fill="rgba(0,0,0,0)"/>
    <path id="Icon" d="M23.611,25a23.458,23.458,0,0,1-16.7-6.915A23.457,23.457,0,0,1,0,1.389,1.391,1.391,0,0,1,1.39,0H6.25A1.391,1.391,0,0,1,7.64,1.389a15.789,15.789,0,0,0,.791,4.959,1.385,1.385,0,0,1-.347,1.416L5.029,10.82a21.158,21.158,0,0,0,9.152,9.152l3.055-3.056a1.415,1.415,0,0,1,.986-.4,1.142,1.142,0,0,1,.431.07,15.772,15.772,0,0,0,4.958.791A1.39,1.39,0,0,1,25,18.764v4.847A1.39,1.39,0,0,1,23.611,25Zm-5-5.528h0l-1.666,1.653a21.508,21.508,0,0,0,5.278,1.041V20.1a17.866,17.866,0,0,1-3.611-.625ZM2.82,2.777h0A20.645,20.645,0,0,0,3.875,8.041L5.543,6.375a17.038,17.038,0,0,1-.625-3.6Z" transform="translate(3.065 3.65)" fill="#fff"/>
  </g>
</svg>
