<svg xmlns="http://www.w3.org/2000/svg" width="32" height="32" viewBox="0 0 32 32">
  <g id="Grupo_11691" data-name="Grupo 11691" transform="translate(-3232 -985)">
    <g id="megaphone_1_" data-name="megaphone (1)" transform="translate(3205.864 987)">
      <g id="Grupo_11660" data-name="Grupo 11660" transform="translate(40.066 0.219)">
        <g id="Grupo_11659" data-name="Grupo 11659" transform="translate(0)">
          <path id="Trazado_20411" data-name="Trazado 20411" d="M229.556,15.228,218.9,4.568a1.6,1.6,0,1,0-2.266,2.265l10.66,10.66a1.6,1.6,0,1,0,2.264-2.264Z" transform="translate(-216.163 -4.1)" fill="#707070"/>
        </g>
      </g>
      <g id="Grupo_11662" data-name="Grupo 11662" transform="translate(35.866 4.425)">
        <g id="Grupo_11661" data-name="Grupo 11661">
          <path id="Trazado_20412" data-name="Trazado 20412" d="M141.37,82.9l-.08.4a17.212,17.212,0,0,1-3.8,7.689l5.8,5.8a17.155,17.155,0,0,1,7.652-3.833l.4-.08Z" transform="translate(-137.494 -82.905)" fill="#707070"/>
        </g>
      </g>
      <g id="Grupo_11664" data-name="Grupo 11664" transform="translate(30.136 13.717)">
        <g id="Grupo_11663" data-name="Grupo 11663" transform="translate(0)">
          <path id="Trazado_20413" data-name="Trazado 20413" d="M34.8,256.989l-3.963,3.963a2.4,2.4,0,0,0,0,3.4l2.264,2.264a2.4,2.4,0,0,0,3.4,0l3.963-3.963Zm.566,6.228a.8.8,0,0,1-1.132-1.132l1.132-1.132a.8.8,0,0,1,1.132,1.132Z" transform="translate(-30.136 -256.989)" fill="#707070"/>
        </g>
      </g>
      <g id="Grupo_11666" data-name="Grupo 11666" transform="translate(38.766 18.473)">
        <g id="Grupo_11665" data-name="Grupo 11665" transform="translate(0)">
          <path id="Trazado_20414" data-name="Trazado 20414" d="M196.855,351.37l1.089-1.089a2.4,2.4,0,0,0,0-3.4l-.809-.81a15.162,15.162,0,0,0-1.289.975l.966.968a.8.8,0,0,1,0,1.131l-1.107,1.107-1.627-1.576-2.264,2.265,3.633,3.52a1.6,1.6,0,0,0,2.264-2.266Z" transform="translate(-191.813 -346.075)" fill="#707070"/>
        </g>
      </g>
      <g id="Grupo_11668" data-name="Grupo 11668" transform="translate(46.241)">
        <g id="Grupo_11667" data-name="Grupo 11667" transform="translate(0)">
          <path id="Trazado_20415" data-name="Trazado 20415" d="M332.665,0a.8.8,0,0,0-.8.8V2.4a.8.8,0,1,0,1.6,0V.8A.8.8,0,0,0,332.665,0Z" transform="translate(-331.864)" fill="#707070"/>
        </g>
      </g>
      <g id="Grupo_11670" data-name="Grupo 11670" transform="translate(51.045 6.405)">
        <g id="Grupo_11669" data-name="Grupo 11669" transform="translate(0)">
          <path id="Trazado_20416" data-name="Trazado 20416" d="M424.266,120h-1.6a.8.8,0,1,0,0,1.6h1.6a.8.8,0,0,0,0-1.6Z" transform="translate(-421.864 -120)" fill="#707070"/>
        </g>
      </g>
      <g id="Grupo_11672" data-name="Grupo 11672" transform="translate(49.444 1.601)">
        <g id="Grupo_11671" data-name="Grupo 11671" transform="translate(0)">
          <path id="Trazado_20417" data-name="Trazado 20417" d="M394.832,30.234a.8.8,0,0,0-1.132,0l-1.6,1.6a.8.8,0,1,0,1.132,1.132l1.6-1.6A.8.8,0,0,0,394.832,30.234Z" transform="translate(-391.864 -30)" fill="#707070"/>
        </g>
      </g>
    </g>
    <rect id="Rectángulo_7456" data-name="Rectángulo 7456" width="32" height="32" transform="translate(3232 985)" fill="none"/>
  </g>
</svg>
