<svg xmlns="http://www.w3.org/2000/svg" width="32" height="32" viewBox="0 0 32 32">
  <g id="supervisor_account" transform="translate(0.236 0.3)">
    <rect id="Path" width="32" height="32" transform="translate(-0.236 -0.3)" fill="rgba(0,0,0,0)"/>
    <path id="Icon" d="M27,19H12.15V16.965c0-2.674,4.834-4.072,7.425-4.072S27,14.291,27,16.965V19ZM9.449,19H0V16.965c0-3.119,6.152-4.75,9.449-4.75a15.733,15.733,0,0,1,2.673.271,6.176,6.176,0,0,0-2.214,2.456c-.074,0-.153,0-.229-.007s-.156-.007-.231-.007A14.056,14.056,0,0,0,3.74,16.286H9.517a3.722,3.722,0,0,0-.068.679V19Zm10.126-8.142a3.323,3.323,0,0,1-1.634-.435,3.376,3.376,0,1,1,3.267,0A3.32,3.32,0,0,1,19.575,10.858ZM9.45,9.5a4.75,4.75,0,1,1,4.724-4.75A4.743,4.743,0,0,1,9.45,9.5Zm0-6.787A2.036,2.036,0,1,0,11.475,4.75,2.033,2.033,0,0,0,9.45,2.714Z" transform="translate(2.764 7.284)" fill="#fff"/>
  </g>
</svg>
