<svg id="Grupo_10899" data-name="Grupo 10899" xmlns="http://www.w3.org/2000/svg" width="47.55" height="47.549" viewBox="0 0 47.55 47.549">
  <path id="Trazado_19433" data-name="Trazado 19433" d="M214.691,316.312a22.3,22.3,0,0,1-22.2,22.275h-.078a22.275,22.275,0,1,1,0-44.549h.078a22.3,22.3,0,0,1,22.2,22.274Zm0,0" transform="translate(-168.641 -292.538)" fill="#3dcdbb" stroke="#39bfae" stroke-width="3"/>
  <path id="Trazado_19434" data-name="Trazado 19434" d="M255.22,382.055l-10.305,10.307-2.227,2.226a2.7,2.7,0,0,1-3.811,0l-4.788-4.789a2.694,2.694,0,0,1,3.81-3.809l2.884,2.884,10.628-10.627a2.693,2.693,0,1,1,3.809,3.809Zm0,0" transform="translate(-221.3 -363.457)" fill="#fff"/>
</svg>
