<svg xmlns="http://www.w3.org/2000/svg" width="48" height="42.456" viewBox="0 0 48 42.456">
  <g id="Grupo_10898" data-name="Grupo 10898" transform="translate(25 30.029)">
    <path id="Trazado_19429" data-name="Trazado 19429" d="M22.011,1.785,5.053-26.594A7.029,7.029,0,0,0-1-30.029a7.029,7.029,0,0,0-6.053,3.435L-24.011,1.785a7.03,7.03,0,0,0-.056,7.095,6.946,6.946,0,0,0,6.109,3.547H15.958a6.946,6.946,0,0,0,6.109-3.547A7.03,7.03,0,0,0,22.011,1.785Z" transform="translate(0)" fill="#c1001f"/>
    <path id="Trazado_19430" data-name="Trazado 19430" d="M254.067,8.881a6.946,6.946,0,0,1-6.109,3.547H231V-30.027a7.029,7.029,0,0,1,6.053,3.435L254.011,1.787A7.031,7.031,0,0,1,254.067,8.881Z" transform="translate(-232 -0.002)" fill="#c1001f"/>
    <path id="Trazado_19431" data-name="Trazado 19431" d="M46.777,30.436,29.832,2.077A4.244,4.244,0,0,0,26.6.022C26.463.009,26.326,0,26.187,0h0a4.232,4.232,0,0,0-3.635,2.058L5.61,30.414A4.2,4.2,0,0,0,5.566,34.7a4.115,4.115,0,0,0,3.662,2.125H43.145A4.115,4.115,0,0,0,46.808,34.7a4.227,4.227,0,0,0,.568-2.133A4.287,4.287,0,0,0,46.777,30.436Z" transform="translate(-27.187 -27.214)" fill="#e50027"/>
    <path id="Trazado_19432" data-name="Trazado 19432" d="M206.567,64.854a2.815,2.815,0,0,0-5.6.427V76.543a2.815,2.815,0,0,0,5.631,0V65.281A2.808,2.808,0,0,0,206.567,64.854Z" transform="translate(-204.784 -83.824)" fill="#fff"/>
    <circle id="Elipse_890" data-name="Elipse 890" cx="4.223" cy="4.223" r="4.223" transform="translate(-6.972 2.573) rotate(-45)" fill="#fff"/>
  </g>
</svg>
