<svg xmlns="http://www.w3.org/2000/svg" xmlns:xlink="http://www.w3.org/1999/xlink" width="375" height="104.225" viewBox="0 0 375 104.225">
  <defs>
    <linearGradient id="linear-gradient" x1="0.5" y1="1" x2="0.5" gradientUnits="objectBoundingBox">
      <stop offset="0" stop-color="#2ab4bc"/>
      <stop offset="1" stop-color="#3dcdbb"/>
    </linearGradient>
    <linearGradient id="linear-gradient-2" x1="0.286" x2="1.008" y2="0.918" gradientUnits="objectBoundingBox">
      <stop offset="0" stop-color="#288ac1" stop-opacity="0"/>
      <stop offset="1" stop-color="#288ac1"/>
    </linearGradient>
    <linearGradient id="linear-gradient-3" x1="0.5" y1="1" x2="0.5" gradientUnits="objectBoundingBox">
      <stop offset="0" stop-color="gray" stop-opacity="0.251"/>
      <stop offset="0.54" stop-color="gray" stop-opacity="0.122"/>
      <stop offset="1" stop-color="gray" stop-opacity="0.102"/>
    </linearGradient>
    <linearGradient id="linear-gradient-4" x1="0.5" y1="1" x2="0.5" y2="0" xlink:href="#linear-gradient-3"/>
    <linearGradient id="linear-gradient-5" x1="1.115" y1="1.124" x2="1.115" y2="0.124" xlink:href="#linear-gradient-3"/>
    <linearGradient id="linear-gradient-6" x1="0.5" y1="1" x2="0.5" y2="0" xlink:href="#linear-gradient-3"/>
    <linearGradient id="linear-gradient-7" x1="1.17" y1="2.05" x2="1.17" y2="1.05" xlink:href="#linear-gradient-3"/>
    <linearGradient id="linear-gradient-8" x1="0.5" y1="1" x2="0.5" gradientUnits="objectBoundingBox">
      <stop offset="0" stop-opacity="0.122"/>
      <stop offset="0.55" stop-opacity="0.09"/>
      <stop offset="1" stop-opacity="0.02"/>
    </linearGradient>
    <linearGradient id="linear-gradient-9" x1="0.5" y1="1" x2="0.5" y2="0" xlink:href="#linear-gradient-3"/>
    <linearGradient id="linear-gradient-10" x1="2.85" y1="1.97" x2="2.85" y2="0.969" xlink:href="#linear-gradient-8"/>
    <linearGradient id="linear-gradient-11" x1="0.5" y1="1" x2="0.5" y2="0" xlink:href="#linear-gradient-3"/>
    <linearGradient id="linear-gradient-12" x1="0.5" y1="1" x2="0.5" y2="0" xlink:href="#linear-gradient-3"/>
    <linearGradient id="linear-gradient-13" x1="0.5" y1="1" x2="0.5" y2="0" xlink:href="#linear-gradient-3"/>
    <linearGradient id="linear-gradient-14" x1="0.5" y1="1" x2="0.5" y2="0" xlink:href="#linear-gradient-8"/>
    <linearGradient id="linear-gradient-15" x1="2.688" y1="2.908" x2="2.688" y2="1.864" xlink:href="#linear-gradient-3"/>
    <linearGradient id="linear-gradient-16" x1="0.081" y1="1" x2="0.081" y2="0" xlink:href="#linear-gradient-3"/>
  </defs>
  <g id="Grupo_11712" data-name="Grupo 11712" transform="translate(-1038 -2553)">
    <rect id="Rectángulo_7060" data-name="Rectángulo 7060" width="375" height="104" transform="translate(1038 2553)" fill="url(#linear-gradient)"/>
    <path id="Trazado_20334" data-name="Trazado 20334" d="M793.2,221s63.086-105.316,62.408-104.216,152.289,0,152.289,0V221Z" transform="translate(405.102 2436.225)" fill="url(#linear-gradient-2)"/>
    <g id="Grupo_11711" data-name="Grupo 11711" transform="translate(0 0)" opacity="0.5">
      <g id="Elipse_582" data-name="Elipse 582" transform="translate(1291 2563)" fill="rgba(42,180,188,0.37)" stroke="#ff824f" stroke-width="2" stroke-dasharray="10">
        <ellipse cx="14.5" cy="15" rx="14.5" ry="15" stroke="none"/>
        <ellipse cx="14.5" cy="15" rx="13.5" ry="14" fill="none"/>
      </g>
      <g id="Grupo_11612" data-name="Grupo 11612" transform="translate(1204.272 2573.302)">
        <path id="Trazado_20114" data-name="Trazado 20114" d="M551.877,89.247v61.927a2.784,2.784,0,0,1-2.783,2.781h-25.14a2.778,2.778,0,0,1-2.783-2.781V89.247a2.783,2.783,0,0,1,2.783-2.783h3.762v.482a2.292,2.292,0,0,0,2.291,2.292h12.786a2.272,2.272,0,0,0,1.359-.447,2.134,2.134,0,0,0,.226-.189,2.285,2.285,0,0,0,.707-1.656v-.482h4.01A2.782,2.782,0,0,1,551.877,89.247Z" transform="translate(-506.49 -86.464)" fill="#3dcdbb"/>
        <ellipse id="Elipse_528" data-name="Elipse 528" cx="7.165" cy="1.433" rx="7.165" ry="1.433" transform="translate(26.368 23.468)" opacity="0.1"/>
        <ellipse id="Elipse_529" data-name="Elipse 529" cx="7.165" cy="1.433" rx="7.165" ry="1.433" transform="translate(15.955 30.824)" opacity="0.1"/>
        <ellipse id="Elipse_530" data-name="Elipse 530" cx="7.165" cy="1.433" rx="7.165" ry="1.433" transform="translate(21.878 44.295)" opacity="0.1"/>
        <path id="Trazado_20115" data-name="Trazado 20115" d="M653.282,403.5H631.5v7.193l1.824-1.824h19.959Z" transform="translate(-601.358 -364.947)" fill="#243e56"/>
        <path id="Trazado_20116" data-name="Trazado 20116" d="M316,260h21.782v7.193l-1.824-1.824H316Z" transform="translate(-316 -235.157)" fill="#243e56"/>
        <rect id="Rectángulo_7285" data-name="Rectángulo 7285" width="12.254" height="0.994" transform="translate(35.001 39.852)" fill="#fff"/>
        <rect id="Rectángulo_7286" data-name="Rectángulo 7286" width="12.254" height="0.994" transform="translate(35.001 41.343)" fill="#fff"/>
        <rect id="Rectángulo_7287" data-name="Rectángulo 7287" width="12.254" height="0.994" transform="translate(3.713 26.238)" fill="#fff"/>
        <rect id="Rectángulo_7288" data-name="Rectángulo 7288" width="12.254" height="0.994" transform="translate(3.713 27.729)" fill="#fff"/>
        <path id="Trazado_20117" data-name="Trazado 20117" d="M708.081,118.642H667v13.566l3.439-3.439h37.641Z" transform="translate(-633.467 -107.307)" fill="#243e56"/>
        <rect id="Rectángulo_7289" data-name="Rectángulo 7289" width="28.279" height="2.293" transform="translate(39.934 13.627)" fill="#fff"/>
        <rect id="Rectángulo_7290" data-name="Rectángulo 7290" width="28.279" height="2.293" transform="translate(39.934 17.067)" fill="#fff"/>
      </g>
      <g id="Grupo_11558" data-name="Grupo 11558" transform="translate(1121 2570.525)">
        <path id="Trazado_20304" data-name="Trazado 20304" d="M220.4,515.86s-.069-.2-.18-.58" transform="translate(-218.458 -470.379)" fill="none" stroke="#ff824f" stroke-miterlimit="10" stroke-width="9"/>
        <path id="Trazado_20305" data-name="Trazado 20305" d="M204.279,195.511c-2.465-9.49-10.149-53.229,66.884-25.924" transform="translate(-202.843 -151.786)" fill="none" stroke="#ff824f" stroke-miterlimit="10" stroke-width="2" stroke-dasharray="12.04 12.04"/>
        <path id="Trazado_20306" data-name="Trazado 20306" d="M882.35,250l.573.2" transform="translate(-813.454 -231.996)" fill="none" stroke="#ff824f" stroke-miterlimit="10" stroke-width="9"/>
        <path id="Trazado_20307" data-name="Trazado 20307" d="M425.98,509.692a8.234,8.234,0,0,0-16.324-1.535l-25.306-.686.278,4.348s-3.609,8.326,15.357,10.545v8.415H421.91V516.787a8.229,8.229,0,0,0,4.071-7.094Z" transform="translate(-365.947 -457.956)" fill="url(#linear-gradient-3)"/>
        <path id="Trazado_20308" data-name="Trazado 20308" d="M393.27,568.554s-3.455,7.973,14.707,10.1v8.063h21V565.365L393,564.39Z" transform="translate(-373.72 -514.509)" fill="#f6b9ad"/>
        <path id="Trazado_20309" data-name="Trazado 20309" d="M336.119,159.06h0a3.871,3.871,0,0,1-5.323,1.21l-11.274-7.429a3.871,3.871,0,0,1-1.21-5.323h0a3.871,3.871,0,0,1,5.319-1.21l11.274,7.429A3.871,3.871,0,0,1,336.119,159.06Z" transform="translate(-306.074 -138.289)" fill="url(#linear-gradient-4)"/>
        <path id="Trazado_20310" data-name="Trazado 20310" d="M341.416,163.365h0a3.6,3.6,0,0,1-4.948,1.124l-10.483-6.906a3.6,3.6,0,0,1-1.124-4.948h0a3.6,3.6,0,0,1,4.948-1.124l10.481,6.907A3.6,3.6,0,0,1,341.416,163.365Z" transform="translate(-311.997 -143)" fill="#f6b9ad"/>
        <circle id="Elipse_564" data-name="Elipse 564" cx="7.885" cy="7.885" r="7.885" transform="translate(43.382 44.123)" fill="#f6b9ad"/>
        <rect id="Rectángulo_7326" data-name="Rectángulo 7326" width="32.691" height="59.006" rx="12.25" transform="translate(18.399)" fill="url(#linear-gradient-5)"/>
        <rect id="Rectángulo_7327" data-name="Rectángulo 7327" width="31.807" height="57.412" rx="3" transform="translate(18.841 0.798)" fill="#fff"/>
        <path id="Trazado_20311" data-name="Trazado 20311" d="M419.636,94.49a2.578,2.578,0,0,1-2.542,2.193H406.109a2.578,2.578,0,0,1-2.541-2.193h-5.82A1.208,1.208,0,0,0,396.54,95.7v52.115a1.208,1.208,0,0,0,1.208,1.209h27.8a1.208,1.208,0,0,0,1.209-1.208V95.7a1.208,1.208,0,0,0-1.208-1.209Z" transform="translate(-376.901 -92.253)" fill="#288ac1"/>
        <rect id="Rectángulo_7328" data-name="Rectángulo 7328" width="7.088" height="0.443" rx="0.222" transform="translate(31.246 2.924)" fill="#dbdbdb"/>
        <circle id="Elipse_565" data-name="Elipse 565" cx="0.266" cy="0.266" r="0.266" transform="translate(39.574 2.836)" fill="#dbdbdb"/>
        <path id="Trazado_20312" data-name="Trazado 20312" d="M672.31,350.889h0c-2.288.529-3.859-.963-4.388-3.251l-5.258-19.524a4.283,4.283,0,0,1,3.2-5.121h0a4.283,4.283,0,0,1,5.121,3.2l4.291,20.025A3.7,3.7,0,0,1,672.31,350.889Z" transform="translate(-615.945 -297.491)" fill="url(#linear-gradient-6)"/>
        <rect id="Rectángulo_7329" data-name="Rectángulo 7329" width="7.177" height="28.654" rx="3.588" transform="translate(46.649 27.299) rotate(-13.01)" fill="#f6b9ad"/>
        <rect id="Rectángulo_7330" data-name="Rectángulo 7330" width="30.012" height="6.996" transform="translate(29.108 69.57)" fill="url(#linear-gradient-7)"/>
        <rect id="Rectángulo_7331" data-name="Rectángulo 7331" width="28.39" height="5.475" transform="translate(29.919 70.381)" fill="#ff824f"/>
        <path id="Trazado_20313" data-name="Trazado 20313" d="M488.226,210.833l-2.326-1.751,1.014-1.318-1.692-1.328-1.057,1.34-2.392-1.8a.526.526,0,0,0-.632,0l-6.34,4.72a1.124,1.124,0,0,0-.467.966h-.007l-.016,7.272h0v.323a.793.793,0,0,0,.791.795h.312l6.011.013,6.325.014a.793.793,0,0,0,.795-.791l.017-7.582h.013C488.575,211.175,488.466,211.036,488.226,210.833Z" transform="translate(-446.786 -192.341)" fill="url(#linear-gradient-8)"/>
        <path id="Trazado_20314" data-name="Trazado 20314" d="M493.495,217.371a.824.824,0,0,0-.318-.8l-5.888-4.428a.481.481,0,0,0-.577,0l-5.784,4.307a1.02,1.02,0,0,0-.426.881H480.5l-.015,6.635h0v.3a.724.724,0,0,0,.722.725h.285l5.485.012,5.77.013a.724.724,0,0,0,.725-.722l.015-6.918Z" transform="translate(-452.33 -197.895)" fill="url(#linear-gradient-9)"/>
        <path id="Trazado_20315" data-name="Trazado 20315" d="M0,0H12.758V7.019a.424.424,0,0,1-.424.424H.471A.467.467,0,0,1,0,6.976V0Z" transform="translate(28.272 19.468) rotate(0.13)" fill="#288ac1"/>
        <path id="Trazado_20317" data-name="Trazado 20317" d="M481.564,264.41l-.014,6.447a.991.991,0,0,0,.989.993l10.777.024" transform="translate(-453.291 -244.945)" fill="#f5f5f5"/>
        <path id="Trazado_20318" data-name="Trazado 20318" d="M503.094,264.69l-.014,6.452a.991.991,0,0,1-.993.989l-10.777-.024" transform="translate(-462.062 -245.196)" fill="#fff"/>
        <path id="Trazado_20319" data-name="Trazado 20319" d="M487.886,213.825l-5.678,4.187a.989.989,0,0,0-.419.857l12.764.041a.8.8,0,0,0-.312-.774l-5.784-4.309A.476.476,0,0,0,487.886,213.825Z" transform="translate(-453.506 -199.404)" fill="#243e56"/>
        <path id="Trazado_20321" data-name="Trazado 20321" d="M319.888,145.871l-1.544-1.211-3.732,4.727-2.006-1.555-1.256,1.6,2.919,2.23h0l.724.581Z" transform="translate(-280.238 -129.993)" fill="url(#linear-gradient-10)"/>
        <path id="Trazado_20322" data-name="Trazado 20322" d="M321.41,146.8l-1.4-1.073-3.708,4.835-2.059-1.579-1.074,1.4,2.759,2.113h0l.708.53Z" transform="translate(-281.874 -130.954)" fill="#fff"/>
        <path id="Trazado_20323" data-name="Trazado 20323" d="M327.707,274.934h0a3.843,3.843,0,0,1-5.283,1.2l-9.581-6.239a3.843,3.843,0,0,1-1.2-5.284h0a3.843,3.843,0,0,1,5.283-1.2l9.582,6.239a3.843,3.843,0,0,1,1.2,5.284Z" transform="translate(-300.085 -243.522)" fill="url(#linear-gradient-11)"/>
        <path id="Trazado_20324" data-name="Trazado 20324" d="M332.048,278.5h0a3.6,3.6,0,0,1-4.948,1.124l-8.974-5.843A3.6,3.6,0,0,1,317,268.835h0a3.6,3.6,0,0,1,4.948-1.124l8.974,5.843A3.6,3.6,0,0,1,332.048,278.5Z" transform="translate(-304.934 -247.418)" fill="#f6b9ad"/>
        <path id="Trazado_20325" data-name="Trazado 20325" d="M326.611,388.726h0a3.825,3.825,0,0,1-5.259,1.2l-7.562-4.892a3.824,3.824,0,0,1-1.2-5.259h0a3.824,3.824,0,0,1,5.259-1.2l7.561,4.893A3.824,3.824,0,0,1,326.611,388.726Z" transform="translate(-300.943 -347.011)" fill="url(#linear-gradient-12)"/>
        <path id="Trazado_20326" data-name="Trazado 20326" d="M332.835,503.5h0a3.859,3.859,0,0,1-5.307,1.207l-4.683-3.417a3.859,3.859,0,0,1-1.207-5.307h0a3.859,3.859,0,0,1,5.307-1.2l4.683,3.416A3.859,3.859,0,0,1,332.835,503.5Z" transform="translate(-309.065 -451.426)" fill="url(#linear-gradient-13)"/>
        <path id="Trazado_20327" data-name="Trazado 20327" d="M336.17,506.545h0a3.6,3.6,0,0,1-4.948,1.124l-4.367-3.186a3.6,3.6,0,0,1-1.124-4.948h0a3.6,3.6,0,0,1,4.948-1.124l4.367,3.186A3.6,3.6,0,0,1,336.17,506.545Z" transform="translate(-312.779 -454.728)" fill="#f6b9ad"/>
        <rect id="Rectángulo_7332" data-name="Rectángulo 7332" width="20.684" height="6.185" transform="translate(24.403 32.807)" fill="url(#linear-gradient-14)"/>
        <rect id="Rectángulo_7333" data-name="Rectángulo 7333" width="19.264" height="4.461" transform="translate(25.112 33.416)" fill="#3dcdbb"/>
        <path id="Trazado_20328" data-name="Trazado 20328" d="M713.3,158.932l.364.057-.057-.054h.03l-.048-.016-6.6-6.259-1.6,2.528-1.332,2.306.617.1-.274,1.249Z" transform="translate(-633.131 -137.182)" fill="url(#linear-gradient-15)"/>
        <path id="Trazado_20329" data-name="Trazado 20329" d="M709.147,175l-1.217,2.11,8.922,1.453-5.747-4Z" transform="translate(-636.608 -156.861)" fill="#243e56"/>
        <path id="Trazado_20331" data-name="Trazado 20331" d="M721.4,156.09l6.241,5.875L719.93,158.4Z" transform="translate(-647.392 -140.264)" fill="#288ac1"/>
        <path id="Trazado_20332" data-name="Trazado 20332" d="M711.17,188.2l8.57.163-8-2.841Z" transform="translate(-639.52 -166.71)" fill="#288ac1"/>
        <path id="Trazado_20333" data-name="Trazado 20333" d="M330.177,391.71h0a3.6,3.6,0,0,1-4.948,1.124l-7.114-4.6a3.6,3.6,0,0,1-1.124-4.948h0a3.6,3.6,0,0,1,4.948-1.129l7.114,4.6A3.6,3.6,0,0,1,330.177,391.71Z" transform="translate(-304.925 -350.259)" fill="#f6b9ad"/>
      </g>
      <g id="Grupo_11615" data-name="Grupo 11615" transform="translate(1276.545 2580.411)">
        <ellipse id="Elipse_570" data-name="Elipse 570" cx="26.553" cy="1.87" rx="26.553" ry="1.87" transform="translate(0 62.294)" fill="#fff" opacity="0.1"/>
        <path id="Trazado_20383" data-name="Trazado 20383" d="M723.542,540.784a2.082,2.082,0,0,0,.877.763,41.644,41.644,0,0,0,7.4,3.33.494.494,0,0,0,.718-.279,3.529,3.529,0,0,0,.542-1.965,1.1,1.1,0,0,0,.492-.658,3.271,3.271,0,0,1,.456-.935,3.848,3.848,0,0,0,.828-1.7,2.933,2.933,0,0,1,.065-.681,2.461,2.461,0,0,1,.561-.726,3.694,3.694,0,0,0,.6-1.326c.583-1.95,1.167-3.9,1.653-5.881.157-.641.3-1.285.518-1.907.187-.546.426-1.07.664-1.593a42.316,42.316,0,0,1,2.956-5.483,14.674,14.674,0,0,0,.634,1.728c.127.29.264.576.393.866.488,1.092.4,2.495,1,3.521q.374.632.737,1.262a2.545,2.545,0,0,1,.316.668c.039.164.043.337.071.5.127.748.735,1.275,1.071,1.943a10.571,10.571,0,0,1,.561,1.98c.443,1.552,1.531,2.9,1.642,4.518a11.665,11.665,0,0,1-.032,1.309,11.1,11.1,0,0,0,.151,2.278.879.879,0,0,0,.06.221,6.608,6.608,0,0,1-4.114,2.779,1.153,1.153,0,0,0-.849.423.789.789,0,0,0,.374,1.013,1.958,1.958,0,0,0,1.122.135,40.748,40.748,0,0,0,7.923-1.462.675.675,0,0,0,.344-.187.694.694,0,0,0,.114-.466,3.927,3.927,0,0,0-.411-1.741l.187-.065a4.219,4.219,0,0,0-.58-2.165c-.52-1.21-.8-2.517-1.215-3.775-.793-2.431-2.074-4.7-2.382-7.242-.084-.7-.294-1.41-.339-2.113a27.344,27.344,0,0,0-.5-4.267c-.262-1.148-.675-2.244-.935-3.405a6.456,6.456,0,0,1,.037-3.493c.108-.318.254-.619.353-.935a6.811,6.811,0,0,0-.346-3.817q-.172-.589-.34-1.174c-.151-.514-.3-1.03-.466-1.541.022-.021.043-.041.065-.065.329-.374.325-.946.561-1.393.116-.23.292-.419.415-.643a2.356,2.356,0,0,0,.17-1.559c-.1-.524-.3-1.021-.447-1.532a8.324,8.324,0,0,1-.09-4.3,9.614,9.614,0,0,0,.406-1.819,5.31,5.31,0,0,0-.114-1.24,7.355,7.355,0,0,0-2.012-4.2c-.615-.561-1.447-1.053-1.513-1.905a.477.477,0,0,0-.31-.011,3.326,3.326,0,0,1-.1-.593h.009a.768.768,0,0,0,.172,0,.343.343,0,0,0,.138-.039.4.4,0,0,0,.067-.051,1.219,1.219,0,0,0,.187-.249c.077-.127.146-.264.2-.357s.151-.243.224-.374q.327-.561.608-1.141v-.015c.019-.036.035-.073.052-.108l.022-.051.034-.077c0-.019.017-.039.024-.058s.021-.047.03-.071l.026-.062c.009-.022.017-.045.026-.069a.629.629,0,0,0,.024-.064c.009-.022.017-.045.024-.067s.015-.043.024-.065.013-.045.021-.067l.023-.067a.217.217,0,0,1,.019-.065l.019-.069.017-.065.017-.071a.115.115,0,0,1,.013-.064c.013-.022,0-.049.013-.073s0-.041,0-.062l.011-.073v-.58a1.492,1.492,0,0,0-.043-.217,2.231,2.231,0,0,0-.733-1.109,4.589,4.589,0,0,0-1.122-.675.818.818,0,0,1-.266-.166,2.083,2.083,0,0,1-.223-.419,1.205,1.205,0,0,0-.8-.494,2.36,2.36,0,0,1-.9-.322.238.238,0,0,0-.079-.045.2.2,0,0,0-.114.024l-.72.32a.342.342,0,0,0-.4-.282.96.96,0,0,0-.466.267.174.174,0,0,1-.043-.172l-.561.374c-.069.045-.2.056-.187-.03a5.851,5.851,0,0,0-.806,1.122,2.4,2.4,0,0,0-.176.387h0a.356.356,0,0,1-.024.084.055.055,0,0,0,0,.017.607.607,0,0,1-.015.077.1.1,0,0,0,0,.022v.1h0a1.021,1.021,0,0,0,0,.108.6.6,0,0,0,.323.5.576.576,0,0,0,.224.036,2.892,2.892,0,0,0,.475-.1,1.1,1.1,0,0,1,.153-.026.486.486,0,0,1,.073,0,.413.413,0,0,1,.269.092l.011.011a3.147,3.147,0,0,0-1.309,2.579,3.243,3.243,0,0,0,.329,1.429.454.454,0,0,0-.234.423,1.435,1.435,0,0,1-.077-.445c-.307-.062-.529.3-.64.606a15.069,15.069,0,0,0-.525,2.134c-.1.481-.187.961-.284,1.442s-.187,1-.258,1.5a11.408,11.408,0,0,0,.174,3.888c-.019.041-.036.084-.052.125-.056.15-.215.277-.234.436a3.8,3.8,0,0,0,1.07,2.556.561.561,0,0,0,.187.187.5.5,0,0,0,.264.034,6.729,6.729,0,0,0,.677-.067c.013.127.028.252.043.374a33.815,33.815,0,0,1,.434,4.037c0,1.352-.258,2.723.26,3.927.086.206.252.374.269.587h.032a12.194,12.194,0,0,0-.774,2.008c-.206.812-.249,1.664-.479,2.468-.2.682-.524,1.309-.787,1.975a10.847,10.847,0,0,0-.748,3.386,4.234,4.234,0,0,1-.318,1.554,32.3,32.3,0,0,0-1.915,5.167,6.079,6.079,0,0,1-.249,1.978c-.108.236-.269.439-.4.662a5.354,5.354,0,0,0-.432,1.122l-1.851,6.139a2,2,0,0,1-.453.911c-.172.165-.4.254-.561.425a1.46,1.46,0,0,0-.329,1.051,2.206,2.206,0,0,0-.572.187,6.3,6.3,0,0,1-4.953,0,1.138,1.138,0,0,0-.935-.135A.8.8,0,0,0,723.542,540.784Zm14.748-46.5a4.03,4.03,0,0,1,.613-1.419c.419-.69.86-1.373,1.26-2.078l.114-.11c.032.09.062.187.09.271a6.524,6.524,0,0,1,.166.729,3.511,3.511,0,0,1,.052.935l-.026.021a1,1,0,0,0-.353.395.8.8,0,0,0,0,.494l-.017.019.019-.013a2.075,2.075,0,0,1,.148.785,2.394,2.394,0,0,1-.456.817c-.374.653-.254,1.644-.87,2.044l-.011.026h0a.886.886,0,0,1-.6-.5h0C738.464,495.9,738.165,495.082,738.29,494.282Z" transform="translate(-708.909 -482.157)" fill="url(#linear-gradient-16)"/>
        <path id="Trazado_20384" data-name="Trazado 20384" d="M839.854,804.23a.649.649,0,0,1-.118.458.727.727,0,0,1-.359.187,44.612,44.612,0,0,1-8.254,1.444,2.174,2.174,0,0,1-1.176-.133.757.757,0,0,1-.374-1,1.237,1.237,0,0,1,.885-.417,6.919,6.919,0,0,0,4.331-2.8,2.007,2.007,0,0,1,.471-.546,1.66,1.66,0,0,1,1.26-.1,9.415,9.415,0,0,1,2.416.7C839.61,802.382,839.842,803.514,839.854,804.23Z" transform="translate(-797.235 -741.575)" fill="#3f3d56"/>
        <path id="Trazado_20385" data-name="Trazado 20385" d="M839.854,804.23a.649.649,0,0,1-.118.458.727.727,0,0,1-.359.187,44.612,44.612,0,0,1-8.254,1.444,2.174,2.174,0,0,1-1.176-.133.757.757,0,0,1-.374-1,1.237,1.237,0,0,1,.885-.417,6.919,6.919,0,0,0,4.331-2.8,2.007,2.007,0,0,1,.471-.546,1.66,1.66,0,0,1,1.26-.1,9.415,9.415,0,0,1,2.416.7C839.61,802.382,839.842,803.514,839.854,804.23Z" transform="translate(-797.235 -741.575)" fill="#243e56" opacity="0.1"/>
        <path id="Trazado_20386" data-name="Trazado 20386" d="M727.48,795.054a.664.664,0,0,1-.35.322.716.716,0,0,1-.4-.047,44.664,44.664,0,0,1-7.708-3.285,2.157,2.157,0,0,1-.914-.748.767.767,0,0,1,.224-1.047,1.208,1.208,0,0,1,.969.133,6.9,6.9,0,0,0,5.161,0,2,2,0,0,1,.694-.2,1.692,1.692,0,0,1,1.122.6,9.413,9.413,0,0,1,1.644,1.9A2.741,2.741,0,0,1,727.48,795.054Z" transform="translate(-706.593 -732.58)" fill="#3f3d56"/>
        <path id="Trazado_20387" data-name="Trazado 20387" d="M727.48,795.054a.664.664,0,0,1-.35.322.716.716,0,0,1-.4-.047,44.664,44.664,0,0,1-7.708-3.285,2.157,2.157,0,0,1-.914-.748.767.767,0,0,1,.224-1.047,1.208,1.208,0,0,1,.969.133,6.9,6.9,0,0,0,5.161,0,2,2,0,0,1,.694-.2,1.692,1.692,0,0,1,1.122.6,9.413,9.413,0,0,1,1.644,1.9A2.741,2.741,0,0,1,727.48,795.054Z" transform="translate(-706.593 -732.58)" fill="#243e56" opacity="0.1"/>
        <path id="Trazado_20388" data-name="Trazado 20388" d="M771.247,624.674c.279.748.512,1.5.748,2.244l.355,1.159a6.442,6.442,0,0,1,.361,3.766c-.1.316-.254.613-.374.935a6.109,6.109,0,0,0-.039,3.448c.266,1.135.7,2.225.969,3.366a25.127,25.127,0,0,1,.52,4.209c.047.694.264,1.395.353,2.085.322,2.508,1.655,4.755,2.481,7.145.428,1.24.724,2.528,1.268,3.723a4,4,0,0,1,.6,2.135,5.853,5.853,0,0,1-4.637-.209.475.475,0,0,1-.314-.436,10.322,10.322,0,0,1-.15-2.244,10.93,10.93,0,0,0,.032-1.287c-.114-1.6-1.249-2.925-1.709-4.458a9.708,9.708,0,0,0-.595-1.952c-.352-.658-.984-1.184-1.122-1.917-.03-.165-.034-.333-.073-.5a2.48,2.48,0,0,0-.331-.66l-.763-1.251c-.626-1.013-.535-2.4-1.042-3.474-.135-.286-.279-.561-.411-.853a14.3,14.3,0,0,1-.66-1.705,40.792,40.792,0,0,0-3.085,5.4,16.767,16.767,0,0,0-.692,1.573c-.224.613-.374,1.249-.541,1.881-.5,1.954-1.122,3.878-1.722,5.8a3.615,3.615,0,0,1-.621,1.309,2.447,2.447,0,0,0-.583.716,2.75,2.75,0,0,0-.067.669,3.79,3.79,0,0,1-.864,1.683,3.159,3.159,0,0,0-.475.935,1.1,1.1,0,0,1-1.5.7h-.015a3.3,3.3,0,0,1-.426-.254,7.9,7.9,0,0,1-1-.748,5.806,5.806,0,0,1-.748-.883.426.426,0,0,1,.213-.647h0a1.807,1.807,0,0,1,.323-1.472c.174-.168.409-.258.589-.419a1.945,1.945,0,0,0,.471-.9q.957-3.014,1.911-6.029a5.122,5.122,0,0,1,.451-1.111c.133-.221.3-.421.413-.653a5.782,5.782,0,0,0,.258-1.952,14.622,14.622,0,0,1,1.167-3.293,15.229,15.229,0,0,1,.826-1.8,3.958,3.958,0,0,0,.331-1.532,10.228,10.228,0,0,1,.778-3.342,20.358,20.358,0,0,0,.819-1.948c.241-.793.284-1.634.5-2.431a11.679,11.679,0,0,1,.81-1.99,5.394,5.394,0,0,1,1-1.571,4.192,4.192,0,0,1,2.835-.98C769.1,624.629,770.228,624.78,771.247,624.674Z" transform="translate(-736.107 -598.01)" fill="#243e56"/>
        <path id="Trazado_20389" data-name="Trazado 20389" d="M809.057,526.085q1.975-1.167,3.906-2.408a2.482,2.482,0,0,1-.488-1.434v-.062c-.019-.5.172-.935-.462-.87a12.023,12.023,0,0,0-1.8.374,17.421,17.421,0,0,1-1.683.525,3.588,3.588,0,0,1,.7,1.32,6.365,6.365,0,0,1,.174.72A1.936,1.936,0,0,1,809.057,526.085Z" transform="translate(-780.195 -513.984)" fill="#a0616a"/>
        <path id="Trazado_20390" data-name="Trazado 20390" d="M801.381,541.852a31.526,31.526,0,0,1,.453,3.981c0,1.331-.269,2.687.271,3.88.09.2.262.359.281.58a4.468,4.468,0,0,0,2.19-.473,8.9,8.9,0,0,1,2.02-.453c.561-.056,1.137-.06,1.694-.166a2.637,2.637,0,0,0,1.464-.748c.342-.374.338-.935.578-1.374.122-.226.3-.411.434-.634a2.224,2.224,0,0,0,.176-1.539,15.632,15.632,0,0,0-.466-1.511,7.766,7.766,0,0,1-.093-4.241,9.436,9.436,0,0,0,.423-1.8,5,5,0,0,0-.118-1.223,7.118,7.118,0,0,0-2.1-4.144c-.641-.548-1.509-1.04-1.576-1.87-.277-.109-.574.077-.812.252l-2.667,1.965a1,1,0,0,0-.374.391c-.166.4.217.836.155,1.266-.045.312-.31.539-.475.808-.393.641-.266,1.619-.907,2.014-.058.12-.112.243-.161.374a9.1,9.1,0,0,0-.458,2.019A10.511,10.511,0,0,0,801.381,541.852Z" transform="translate(-774.286 -521.124)" fill="#243e56"/>
        <path id="Trazado_20391" data-name="Trazado 20391" d="M808.57,521.736a3.591,3.591,0,0,1,.7,1.32,2.954,2.954,0,0,0,.647.071c1.088,0,1.817-1.247,2.358-2.1-.017-.5.4-.252-.234-.187a12.03,12.03,0,0,0-1.8.374C810.077,521.254,808.619,521.791,808.57,521.736Z" transform="translate(-780.227 -513.506)" opacity="0.1"/>
        <circle id="Elipse_580" data-name="Elipse 580" cx="3.059" cy="3.059" r="3.059" transform="translate(26.636 3.247)" fill="#a0616a"/>
        <rect id="Rectángulo_7441" data-name="Rectángulo 7441" width="2.294" height="4.462" rx="1.147" transform="translate(28.482 9.708) rotate(-132.39)" fill="#3f3d56"/>
        <rect id="Rectángulo_7442" data-name="Rectángulo 7442" width="2.294" height="4.462" rx="1.147" transform="translate(28.482 9.708) rotate(-132.39)" fill="#0da7c2" opacity="0.1"/>
        <circle id="Elipse_581" data-name="Elipse 581" cx="0.254" cy="0.254" r="0.254" transform="translate(29.631 6.626)" fill="#fff"/>
        <path id="Trazado_20392" data-name="Trazado 20392" d="M801.384,552.242a10.867,10.867,0,0,0,6.143-3.523,2.792,2.792,0,0,0,.694-1.038,3.131,3.131,0,0,0,.084-1.008l-.039-1.35a3.723,3.723,0,0,0-.327-1.72,1.274,1.274,0,0,0-1.473-.673,7.15,7.15,0,0,0-3.213,3.156,13.42,13.42,0,0,1-.772,1.187.689.689,0,0,1-.561.335.426.426,0,0,1-.14-.037,9.093,9.093,0,0,0-.458,2.02A10.514,10.514,0,0,0,801.384,552.242Z" transform="translate(-774.288 -531.515)" opacity="0.1"/>
        <path id="Trazado_20393" data-name="Trazado 20393" d="M791.651,525.369a3.88,3.88,0,0,1,.639-1.4,18.391,18.391,0,0,0,2.431-4.456c-.713.129-.825,1.356-1.547,1.41l.056-.885c0-.15,0-.331-.122-.409s-.338.024-.419.172-.1.327-.172.479-.251.286-.406.219l-.064-.294a.449.449,0,0,0-.54.456,1.353,1.353,0,0,1-.08-.439c-.32-.06-.552.294-.666.6a14.209,14.209,0,0,0-.55,2.1l-.294,1.423c-.1.492-.2.984-.271,1.479a10.714,10.714,0,0,0,.206,3.942,12.722,12.722,0,0,0,1.139-.713,2,2,0,0,0,.7-.875C791.961,527.257,791.5,526.294,791.651,525.369Z" transform="translate(-764.766 -512.525)" fill="#a0616a"/>
        <path id="Trazado_20394" data-name="Trazado 20394" d="M796.791,540.89a1.274,1.274,0,0,1,1.474.673,3.7,3.7,0,0,1,.327,1.72l.037,1.354a3.087,3.087,0,0,1-.082,1.008,2.828,2.828,0,0,1-.692,1.038,10.464,10.464,0,0,1-6.894,3.6.55.55,0,0,1-.275-.034.6.6,0,0,1-.187-.187,3.7,3.7,0,0,1-1.122-2.523c.017-.157.187-.284.243-.43a3.794,3.794,0,0,1,1.838-1.945l.161-.075a.935.935,0,0,0,.63.494.707.707,0,0,0,.561-.335,13.464,13.464,0,0,0,.772-1.189A7.1,7.1,0,0,1,796.791,540.89Z" transform="translate(-764.614 -529.857)" fill="#243e56"/>
        <path id="Trazado_20395" data-name="Trazado 20395" d="M803.727,494.25c-.26-.135-.3-.481-.327-.772a7.643,7.643,0,0,0-.155-1.01,1.417,1.417,0,0,0-.531-.957.776.776,0,0,0-1.18.578.264.264,0,0,1-.052.174.187.187,0,0,1-.09.047.6.6,0,0,1-.709-.4c-.054-.187-.013-.428-.146-.582s-.29-.15-.419-.251a.728.728,0,0,1-.211-.6c0-.279.037-.611-.187-.784-.339-.264-.847.155-1.245,0a.611.611,0,0,1-.342-.6,1.481,1.481,0,0,1,.243-.684,5.75,5.75,0,0,1,.84-1.105c0,.082.129.073.2.028l.591-.359a.159.159,0,0,0,.047.17,1.015,1.015,0,0,1,.484-.262.355.355,0,0,1,.413.279l.748-.324a.155.155,0,0,1,.2.021,2.661,2.661,0,0,0,.935.316,1.267,1.267,0,0,1,.836.488,2.013,2.013,0,0,0,.234.411.873.873,0,0,0,.282.166,4.9,4.9,0,0,1,1.178.664,2.221,2.221,0,0,1,.765,1.1,3.107,3.107,0,0,1-.428,2.167,13.9,13.9,0,0,1-.868,1.487c-.12.187-.284.54-.477.649A.894.894,0,0,1,803.727,494.25Z" transform="translate(-771.74 -485.943)" fill="#3f3d56"/>
        <path id="Trazado_20396" data-name="Trazado 20396" d="M798.5,497.132c.4.153.907-.265,1.245,0,.219.172.187.5.187.784a.727.727,0,0,0,.211.6c.129.1.312.125.419.251s.092.387.146.582a.6.6,0,0,0,.709.4.187.187,0,0,0,.09-.047.263.263,0,0,0,.052-.174.776.776,0,0,1,1.18-.578,1.434,1.434,0,0,1,.531.957,7.643,7.643,0,0,1,.155,1.01c.026.292.067.638.327.772a.894.894,0,0,0,.639.056c.187-.108.357-.467.477-.649a13.882,13.882,0,0,0,.868-1.5,4.63,4.63,0,0,0,.46-1.272,3.288,3.288,0,0,1-.46,2.036,13.893,13.893,0,0,1-.868,1.487c-.12.187-.284.54-.477.649a.893.893,0,0,1-.639-.056c-.26-.135-.3-.481-.327-.772a7.643,7.643,0,0,0-.155-1.01,1.418,1.418,0,0,0-.531-.957.776.776,0,0,0-1.18.578.263.263,0,0,1-.052.174.187.187,0,0,1-.09.047.6.6,0,0,1-.709-.4c-.054-.187-.013-.428-.146-.582s-.29-.15-.419-.251a.727.727,0,0,1-.211-.6c0-.279.037-.611-.187-.784-.338-.264-.847.155-1.245,0a.611.611,0,0,1-.342-.6,1.085,1.085,0,0,1,.094-.391A.506.506,0,0,0,798.5,497.132Z" transform="translate(-771.764 -494.143)" opacity="0.1"/>
      </g>
      <path id="Trazado_20398" data-name="Trazado 20398" d="M1.435,0C-1.029,9.49-8.714,53.229,68.319,25.924" transform="matrix(0.695, -0.719, 0.719, 0.695, 1230.526, 2622.372)" fill="none" stroke="#ff824f" stroke-miterlimit="10" stroke-width="2" stroke-dasharray="12.04 12.04"/>
      <path id="Trazado_20400" data-name="Trazado 20400" d="M647.411,146.243c-5.115,0-9.261,2.718-9.261,6.071,0,2.156,1.715,4.047,4.3,5.125a1.157,1.157,0,0,0-.354.887c-.01,2.215,3.3,3.1,3.3,3.1s-1.734-1.482-.887-3.017a2.784,2.784,0,0,1,.184-.291,13.82,13.82,0,0,0,2.722.267c5.115,0,9.261-2.718,9.261-6.071S652.526,146.243,647.411,146.243Z" transform="translate(651.048 2421.442)" fill="#fff"/>
      <path id="Trazado_20401" data-name="Trazado 20401" d="M644.475,146.243c3.493,0,6.325,1.856,6.325,4.146,0,1.472-1.171,2.764-2.935,3.5a.791.791,0,0,1,.242.606c.007,1.513-2.253,2.118-2.253,2.118s1.184-1.012.606-2.061a1.909,1.909,0,0,0-.126-.2,9.437,9.437,0,0,1-1.859.182c-3.493,0-6.325-1.856-6.325-4.146S640.982,146.243,644.475,146.243Z" transform="translate(673.578 2429.034)" fill="#fff"/>
    </g>
  </g>
</svg>
