<svg id="Grupo_11732" data-name="Grupo 11732" xmlns="http://www.w3.org/2000/svg" width="25.903" height="22.533" viewBox="0 0 25.903 22.533">
  <g id="t-shirt" transform="translate(0 0)">
    <path id="Trazado_20360" data-name="Trazado 20360" d="M122.374,25.673a2.561,2.561,0,0,0,2.439-1.768,10.293,10.293,0,0,1-4.878,0A2.56,2.56,0,0,0,122.374,25.673Z" transform="translate(-109.423 -23.494)" fill="#707070"/>
    <path id="Trazado_20361" data-name="Trazado 20361" d="M25.87,22.692a.594.594,0,0,0-.309-.339l-4.938-2.28a23.882,23.882,0,0,0-3.2-.842.589.589,0,0,0-.113-.011.58.58,0,0,0-.567.456,3.884,3.884,0,0,1-7.582,0,.581.581,0,0,0-.567-.456.589.589,0,0,0-.113.011,23.974,23.974,0,0,0-3.2.842L.34,22.352a.581.581,0,0,0-.308.339.576.576,0,0,0,.031.457L2.208,27.38a.582.582,0,0,0,.688.3l2.381-.706v14.2a.587.587,0,0,0,.586.585H20.038a.586.586,0,0,0,.585-.585v-14.2l2.383.706a.582.582,0,0,0,.688-.3l2.145-4.231A.587.587,0,0,0,25.87,22.692Z" transform="translate(0 -19.219)" fill="#707070"/>
  </g>
  <rect id="Rectángulo_7433" data-name="Rectángulo 7433" width="5" height="5" rx="2" transform="translate(13.074 7.928)" fill="#fff"/>
</svg>
