<svg xmlns="http://www.w3.org/2000/svg" xmlns:xlink="http://www.w3.org/1999/xlink" width="48" height="48" viewBox="0 0 48 48">
  <defs>
    <linearGradient id="linear-gradient" x1="0.454" y1="0.981" x2="0.454" y2="0.095" gradientUnits="objectBoundingBox">
      <stop offset="0" stop-color="#fff"/>
      <stop offset="1" stop-color="#e8efee"/>
    </linearGradient>
  </defs>
  <g id="Group_9413" data-name="Group 9413" transform="translate(230 -484)">
    <rect id="Rectangle_6060" data-name="Rectangle 6060" width="48" height="48" transform="translate(-230 484)" fill="none"/>
    <g id="Group_9412" data-name="Group 9412" transform="translate(-279.085 449.485)">
      <circle id="Ellipse_519" data-name="Ellipse 519" cx="21.485" cy="21.485" r="21.485" transform="translate(52.085 37.515)" fill="url(#linear-gradient)"/>
      <g id="Group_9363" data-name="Group 9363" transform="translate(53.896 39.561)">
        <path id="Path_18087" data-name="Path 18087" d="M135.322,68.33a26.567,26.567,0,0,1,1.044-2.833,15.582,15.582,0,0,1,2.652-4.274,19.668,19.668,0,0,0-9.221,5.139A25.259,25.259,0,0,0,135.322,68.33Z" transform="translate(-123.966 -60.937)" fill="#30b1a1"/>
        <path id="Path_18088" data-name="Path 18088" d="M326.8,66.367a22.631,22.631,0,0,1-2.864,1.2c-.849.293-1.738.55-2.661.769a26.509,26.509,0,0,0-1.044-2.833,15.589,15.589,0,0,0-2.651-4.273l.026.006A19.66,19.66,0,0,1,326.8,66.367Z" transform="translate(-293.285 -60.943)" fill="#30b1a1"/>
        <path id="Path_18089" data-name="Path 18089" d="M205.812,266.4H189.957a40.7,40.7,0,0,0,1.073,8.634,40.159,40.159,0,0,1,13.709,0A40.687,40.687,0,0,0,205.812,266.4Z" transform="translate(-178.21 -245.941)" fill="#30b1a1"/>
        <path id="Path_18090" data-name="Path 18090" d="M204.74,157.8a40.161,40.161,0,0,1-13.708,0,40.693,40.693,0,0,0-1.073,8.634h15.855A40.692,40.692,0,0,0,204.74,157.8Z" transform="translate(-178.211 -148.014)" fill="#30b1a1"/>
        <path id="Path_18091" data-name="Path 18091" d="M206.474,369.543a24.385,24.385,0,0,0,.9,2.423c1.5,3.42,3.466,5.381,5.4,5.381s3.9-1.961,5.4-5.381a24.408,24.408,0,0,0,.9-2.423,38.335,38.335,0,0,0-12.607,0Z" transform="translate(-193.103 -338.467)" fill="#30b1a1"/>
        <path id="Path_18092" data-name="Path 18092" d="M219.08,66.122a24.4,24.4,0,0,0-.9-2.423c-1.5-3.42-3.466-5.381-5.4-5.381s-3.9,1.961-5.4,5.381a24.38,24.38,0,0,0-.9,2.423,38.336,38.336,0,0,0,12.607,0Z" transform="translate(-193.102 -58.319)" fill="#30b1a1"/>
        <path id="Path_18093" data-name="Path 18093" d="M81.319,131.773a38.951,38.951,0,0,0-.726,3.928,46,46,0,0,0-.391,5.123H70.5a19.607,19.607,0,0,1,4.132-11.082c.09-.116.183-.231.275-.345.11.059.217.118.33.176A27.139,27.139,0,0,0,81.319,131.773Z" transform="translate(-70.502 -122.407)" fill="#30b1a1"/>
        <path id="Path_18094" data-name="Path 18094" d="M321.273,378.506a26.588,26.588,0,0,1-1.044,2.833,15.588,15.588,0,0,1-2.652,4.274,19.668,19.668,0,0,0,9.221-5.139A25.254,25.254,0,0,0,321.273,378.506Z" transform="translate(-293.28 -347.02)" fill="#30b1a1"/>
        <path id="Path_18095" data-name="Path 18095" d="M366.721,129.577a27.086,27.086,0,0,1-6.081,2.2,42.9,42.9,0,0,1,1.117,9.051h9.7a19.609,19.609,0,0,0-4.406-11.426C366.942,129.46,366.833,129.519,366.721,129.577Z" transform="translate(-332.108 -122.411)" fill="#30b1a1"/>
        <path id="Path_18096" data-name="Path 18096" d="M361.758,266.4a42.888,42.888,0,0,1-1.117,9.051,27.086,27.086,0,0,1,6.081,2.2c.112.058.22.117.33.176a19.61,19.61,0,0,0,4.406-11.426h-9.7Z" transform="translate(-332.109 -245.941)" fill="#30b1a1"/>
        <path id="Path_18097" data-name="Path 18097" d="M81.319,275.451q-1.429.343-2.757.8a24.673,24.673,0,0,0-3.324,1.4c-.113.058-.22.117-.33.176A19.625,19.625,0,0,1,70.5,266.4h9.7A42.96,42.96,0,0,0,81.319,275.451Z" transform="translate(-70.502 -245.938)" fill="#30b1a1"/>
        <path id="Path_18098" data-name="Path 18098" d="M136.365,381.339a26.557,26.557,0,0,1-1.044-2.833,25.253,25.253,0,0,0-5.525,1.968,19.669,19.669,0,0,0,9.221,5.139A15.585,15.585,0,0,1,136.365,381.339Z" transform="translate(-123.965 -347.02)" fill="#30b1a1"/>
      </g>
      <path id="Path_18099" data-name="Path 18099" d="M219.082,369.548a38.325,38.325,0,0,0-12.606,0,24.427,24.427,0,0,0,.9,2.422c1.5,3.42,3.467,5.381,5.4,5.381s3.9-1.961,5.4-5.381A24.446,24.446,0,0,0,219.082,369.548Z" transform="translate(-139.208 -298.911)" fill="#30b1a1"/>
      <path id="Path_18100" data-name="Path 18100" d="M320.223,381.343a15.561,15.561,0,0,1-2.652,4.274,19.669,19.669,0,0,0,9.222-5.139,25.216,25.216,0,0,0-5.526-1.968A26.714,26.714,0,0,1,320.223,381.343Z" transform="translate(-239.378 -307.463)" fill="#30b1a1"/>
      <path id="Path_18101" data-name="Path 18101" d="M135.324,378.511a25.219,25.219,0,0,0-5.526,1.968,19.671,19.671,0,0,0,9.222,5.139,15.554,15.554,0,0,1-2.652-4.274A26.728,26.728,0,0,1,135.324,378.511Z" transform="translate(-70.071 -307.464)" fill="#30b1a1"/>
    </g>
  </g>
</svg>
