<svg xmlns="http://www.w3.org/2000/svg" xmlns:xlink="http://www.w3.org/1999/xlink" width="48" height="48" viewBox="0 0 48 48">
  <defs>
    <clipPath id="clip-path">
      <rect id="Rectangle_6033" data-name="Rectangle 6033" width="42" height="42.082" fill="#d2d2d2"/>
    </clipPath>
  </defs>
  <g id="Group_9424" data-name="Group 9424" transform="translate(361 -598)">
    <g id="Group_9420" data-name="Group 9420" transform="translate(-419.234 436.055)">
      <g id="Group_9351" data-name="Group 9351" transform="translate(61.234 164.945)" clip-path="url(#clip-path)">
        <path id="Path_18072" data-name="Path 18072" d="M97.1,171.146a21.054,21.054,0,1,0,0,29.656,21.007,21.007,0,0,0,0-29.656Zm-26.177,3.479A15.744,15.744,0,0,1,91.571,172.9l-9.3,9.3L69.194,195.275a15.777,15.777,0,0,1,1.727-20.65Zm22.7,22.7a15.744,15.744,0,0,1-20.65,1.727l22.378-22.377a15.777,15.777,0,0,1-1.727,20.65Zm0,0" transform="translate(-61.235 -164.945)" fill="#d2d2d2"/>
      </g>
    </g>
    <rect id="Rectangle_6063" data-name="Rectangle 6063" width="48" height="48" transform="translate(-361 598)" fill="none"/>
  </g>
</svg>
