<svg xmlns="http://www.w3.org/2000/svg" xmlns:xlink="http://www.w3.org/1999/xlink" width="82" height="82" viewBox="0 0 82 82">
  <defs>
    <clipPath id="clip-path">
      <circle id="Elipse_607" data-name="Elipse 607" cx="41" cy="41" r="41" transform="translate(0 -0.4)" fill="#fff" stroke="#707070" stroke-width="1"/>
    </clipPath>
  </defs>
  <g id="Grupo_11610" data-name="Grupo 11610" transform="translate(0.08 0.4)">
    <g id="Elipse_608" data-name="Elipse 608" transform="translate(-0.081 -0.4)" fill="#34b5bd" stroke="#005999" stroke-width="5">
      <circle cx="41" cy="41" r="41" stroke="none"/>
      <circle cx="41" cy="41" r="38.5" fill="none"/>
    </g>
    <g id="Enmascarar_grupo_1" data-name="Enmascarar grupo 1" transform="translate(-0.081 0)" clip-path="url(#clip-path)">
      <g id="Grupo_11609" data-name="Grupo 11609" transform="translate(16.664 10.851)">
        <path id="Trazado_20544" data-name="Trazado 20544" d="M153,104.817V91.25a3.293,3.293,0,1,0-6.585,0v13.568h-.418V84.73a4.4,4.4,0,0,0-4.4-4.4h0a4.4,4.4,0,0,0-4.4,4.4v20.087h-.586V80.5a4.4,4.4,0,0,0-4.4-4.4h0a4.4,4.4,0,0,0-4.4,4.4v24.321h-.585V83.378a4.4,4.4,0,1,0-8.793,0v21.439h0V112.3l-.778-.778a7.573,7.573,0,0,0-10.71,0,3.357,3.357,0,0,0,0,4.748l15.036,15.036a8.016,8.016,0,0,0,2.509,1.7,10.936,10.936,0,0,0,4.93,1.169h12.581A10.986,10.986,0,0,0,153,123.193V104.817Z" transform="translate(-105.14 -75.268)" fill="#f0c6bf"/>
        <path id="Trazado_20545" data-name="Trazado 20545" d="M169.745,212.164h-8.221c.065-.075.13-.149.192-.227a8.038,8.038,0,0,0,1.563-6.667,7.913,7.913,0,0,1-1.563,3.339,8.05,8.05,0,0,1-9.482,2.387c-.109-.047-.218-.1-.326-.15V228.07H175V210.827A10.939,10.939,0,0,1,169.745,212.164Z" transform="translate(-132.873 -153.253)" fill="#e99f96"/>
        <g id="Grupo_11604" data-name="Grupo 11604" transform="translate(0.835 34.037)">
          <path id="Trazado_20546" data-name="Trazado 20546" d="M106.959,165.444h0a7.573,7.573,0,0,1,10.71,0l6.743,6.743a8.049,8.049,0,0,1,9.513,2.27,7.938,7.938,0,0,1,1.624,3.419,8.039,8.039,0,0,0-11.137-9.018l-6.743-6.743a7.573,7.573,0,0,0-10.71,0h0a3.356,3.356,0,0,0-.539,4.038A3.357,3.357,0,0,1,106.959,165.444Z" transform="translate(-105.978 -159.897)" fill="#f2e1de"/>
        </g>
        <g id="Grupo_11605" data-name="Grupo 11605" transform="translate(13.304 3.714)">
          <path id="Trazado_20547" data-name="Trazado 20547" d="M141.842,83.373h0a4.4,4.4,0,0,0-4.4,4.4V91.1a4.4,4.4,0,0,1,4.4-4.4h0a4.4,4.4,0,0,1,4.4,4.4V87.77A4.4,4.4,0,0,0,141.842,83.373Z" transform="translate(-137.446 -83.373)" fill="#f2e1de"/>
        </g>
        <g id="Grupo_11606" data-name="Grupo 11606" transform="translate(41.272 12.689)">
          <path id="Trazado_20548" data-name="Trazado 20548" d="M211.319,106.022a3.293,3.293,0,0,0-3.293,3.293v3.329a3.293,3.293,0,0,1,6.585,0v-3.329A3.293,3.293,0,0,0,211.319,106.022Z" transform="translate(-208.026 -106.022)" fill="#f2e1de"/>
        </g>
        <g id="Grupo_11607" data-name="Grupo 11607" transform="translate(22.682 0.832)">
          <path id="Trazado_20549" data-name="Trazado 20549" d="M165.51,76.1h0a4.4,4.4,0,0,0-4.4,4.4v3.329a4.4,4.4,0,0,1,4.4-4.4h0a4.4,4.4,0,0,1,4.4,4.4V80.5A4.4,4.4,0,0,0,165.51,76.1Z" transform="translate(-161.113 -76.1)" fill="#f2e1de"/>
        </g>
        <g id="Grupo_11608" data-name="Grupo 11608" transform="translate(32.061 5.066)">
          <path id="Trazado_20550" data-name="Trazado 20550" d="M189.177,86.784h0a4.4,4.4,0,0,0-4.4,4.4v3.329a4.4,4.4,0,0,1,4.4-4.4h0a4.4,4.4,0,0,1,4.4,4.4V91.181A4.4,4.4,0,0,0,189.177,86.784Z" transform="translate(-184.781 -86.784)" fill="#f2e1de"/>
        </g>
        <path id="Trazado_20551" data-name="Trazado 20551" d="M152.562,89.982a4.123,4.123,0,0,0-7-2.952V83.462a5.227,5.227,0,0,0-9.378-3.178V79.229a5.229,5.229,0,0,0-10.45-.285,5.227,5.227,0,0,0-9.386,3.167v26.977a8.417,8.417,0,0,0-11.245.58,4.189,4.189,0,0,0,0,5.925l15.036,15.036a.834.834,0,0,0,.189.138,11.864,11.864,0,0,0,1.75,1.29v16.762a.832.832,0,0,0,.832.832H146a.832.832,0,0,0,.833-.832V132.056a11.822,11.822,0,0,0,5.73-10.131ZM145.6,130.843a.833.833,0,0,0-.434.731v16.411H123.739V131.574a.832.832,0,0,0-.434-.73,10.2,10.2,0,0,1-2-1.433.819.819,0,0,0-.123-.092l-14.9-14.9a2.525,2.525,0,0,1,0-3.571,6.749,6.749,0,0,1,9.534,0l.776.776,0,0,5.963,5.964a.832.832,0,0,0,.927.172,7.215,7.215,0,0,1,8.586,11.076.832.832,0,0,0,1.3,1.041,8.879,8.879,0,0,0-10.025-13.855l-5.331-5.332V82.111a3.564,3.564,0,0,1,7.128,0v21.439a.832.832,0,0,0,.833.832h.585a.832.832,0,0,0,.832-.832V79.229a3.564,3.564,0,1,1,7.129,0v24.321a.832.832,0,0,0,.832.832h.586a.832.832,0,0,0,.832-.832V83.462a3.564,3.564,0,1,1,7.128,0v20.087a.832.832,0,0,0,.832.832h.418a.832.832,0,0,0,.832-.832V89.982a2.461,2.461,0,1,1,4.921,0v31.943A10.158,10.158,0,0,1,145.6,130.843Z" transform="translate(-103.872 -74)" fill="#540836"/>
      </g>
    </g>
  </g>
</svg>
