<?xml version="1.0" encoding="UTF-8"?>
<svg width="20px" height="27px" viewBox="0 0 20 27" version="1.1" xmlns="http://www.w3.org/2000/svg" xmlns:xlink="http://www.w3.org/1999/xlink">
    <!-- Generator: Sketch 52.3 (67297) - http://www.bohemiancoding.com/sketch -->
    <title>award copy 3</title>
    <desc>Created with Sketch.</desc>
    <g id="Page-1" stroke="none" stroke-width="1" fill="none" fill-rule="evenodd">
        <g id="award-copy-3" fill="#9F3921">
            <path d="M5.08393782,18.8409326 C4.63367876,18.3906736 4.86839378,18.5176166 3.78238342,18.226943 C3.28963731,18.0948187 2.85647668,17.8409326 2.46476684,17.5367876 L0.113989637,23.3005181 C-0.113471503,23.8585492 0.311398964,24.4647668 0.913471503,24.4419689 L3.64352332,24.3378238 L5.52124352,26.3212435 C5.9357513,26.7585492 6.66321244,26.6222798 6.89067358,26.0642487 L9.58756477,19.4518135 C9.02590674,19.7647668 8.40259067,19.9481865 7.75803109,19.9481865 C6.74766839,19.9481865 5.7984456,19.5549223 5.08393782,18.8409326 Z M19.8860104,23.3005181 L17.5352332,17.5367876 C17.1435233,17.8414508 16.7103627,18.0948187 16.2176166,18.226943 C15.1259067,18.519171 15.365285,18.3917098 14.9160622,18.8409326 C14.2015544,19.5549223 13.2518135,19.9481865 12.2414508,19.9481865 C11.5968912,19.9481865 10.9735751,19.7642487 10.4119171,19.4518135 L13.1088083,26.0642487 C13.3362694,26.6222798 14.0642487,26.7585492 14.4782383,26.3212435 L16.3564767,24.3378238 L19.0865285,24.4419689 C19.688601,24.4647668 20.1134715,23.8580311 19.8860104,23.3005181 Z M13.6787565,17.6683938 C14.4704663,16.8626943 14.5611399,16.9321244 15.688601,16.6248705 C16.4082902,16.4284974 16.9709845,15.8559585 17.1637306,15.1233161 C17.5512953,13.6518135 17.4507772,13.8295337 18.5082902,12.7528497 C19.0352332,12.2165803 19.2409326,11.434715 19.0481865,10.7020725 C18.6611399,9.23160622 18.6606218,9.43678756 19.0481865,7.96476684 C19.2409326,7.23212435 19.0352332,6.45025907 18.5082902,5.91398964 C17.4507772,4.8373057 17.5512953,5.01450777 17.1637306,3.54352332 C16.9709845,2.81088083 16.4082902,2.23834197 15.688601,2.04196891 C14.2440415,1.64766839 14.4181347,1.7507772 13.3595855,0.67357513 C12.8326425,0.137305699 12.0642487,-0.0725388601 11.3445596,0.123834197 C9.90051813,0.51761658 10.1020725,0.518134715 8.65544041,0.123834197 C7.9357513,-0.0725388601 7.16735751,0.136787565 6.64041451,0.67357513 C5.58290155,1.75025907 5.75699482,1.64766839 4.3119171,2.04196891 C3.59222798,2.23834197 3.02953368,2.81088083 2.83678756,3.54352332 C2.44974093,5.01450777 2.54974093,4.8373057 1.49222798,5.91398964 C0.965284974,6.45025907 0.759067358,7.23212435 0.952331606,7.96476684 C1.33937824,9.43419689 1.33989637,9.22901554 0.952331606,10.7015544 C0.759585492,11.4341969 0.965284974,12.2160622 1.49222798,12.7528497 C2.54974093,13.8295337 2.4492228,13.6518135 2.83678756,15.1233161 C3.02953368,15.8559585 3.59222798,16.4284974 4.3119171,16.6248705 C5.47150259,16.9409326 5.55803109,16.8911917 6.32124352,17.6683938 C7.00673575,18.3663212 8.0746114,18.4911917 8.8984456,17.9699482 C9.57094999,17.543008 10.4295681,17.543008 11.1020725,17.9699482 C11.9253886,18.4911917 12.9932642,18.3663212 13.6787565,17.6683938 Z M5.1119171,9.16891192 C5.1119171,6.42124352 7.30051813,4.19378238 10,4.19378238 C12.6994819,4.19378238 14.8880829,6.42124352 14.8880829,9.16891192 C14.8880829,11.9165803 12.6994819,14.1440415 10,14.1440415 C7.30051813,14.1440415 5.1119171,11.9165803 5.1119171,9.16891192 Z" id="Shape" fill-rule="nonzero"></path>
            <text id="3" font-family="Roboto-Bold, Roboto" font-size="8" font-weight="bold" line-spacing="10" fill-opacity="0.87">
                <tspan x="8" y="12.3333333">3</tspan>
            </text>
        </g>
    </g>
</svg>