<?xml version="1.0" encoding="UTF-8"?>
<svg width="50px" height="50px" viewBox="0 0 50 50" version="1.1" xmlns="http://www.w3.org/2000/svg" xmlns:xlink="http://www.w3.org/1999/xlink">
    <!-- Generator: Sketch 52.3 (67297) - http://www.bohemiancoding.com/sketch -->
    <title>Group 9</title>
    <desc>Created with Sketch.</desc>
    <g id="Page-1" stroke="none" stroke-width="1" fill="none" fill-rule="evenodd">
        <g id="Mockup-APP5-Copy-6" transform="translate(-50.000000, -1466.000000)">
            <g id="Group-28" transform="translate(28.000000, 1456.000000)">
                <g id="Group-21" transform="translate(7.000000, 10.000000)">
                    <g id="Group-9" transform="translate(15.000000, 0.000000)">
                        <g id="Group-17" fill="#00B9BE">
                            <circle id="Oval" cx="25" cy="25" r="25"></circle>
                        </g>
                        <g id="user-check-solid" transform="translate(11.000000, 11.000000)" fill="#FFFFFF" fill-rule="nonzero">
                            <path d="M11.8999924,13.5 C15.6559275,13.5 18.6999881,10.4783203 18.6999881,6.75 C18.6999881,3.02167969 15.6559275,0 11.8999924,0 C8.14405731,0 5.09999675,3.02167969 5.09999675,6.75 C5.09999675,10.4783203 8.14405731,13.5 11.8999924,13.5 Z M16.6599894,15.1875 L15.7728025,15.1875 C14.5934282,15.7253906 13.2812415,16.03125 11.8999924,16.03125 C10.5187433,16.03125 9.21186913,15.7253906 8.02718239,15.1875 L7.13999545,15.1875 C3.19812296,15.1875 0,18.3621094 0,22.275 L0,24.46875 C0,25.8662109 1.14218677,27 2.54999838,27 L21.2499865,27 C22.6577981,27 23.7999848,25.8662109 23.7999848,24.46875 L23.7999848,22.275 C23.7999848,18.3621094 20.6018619,15.1875 16.6599894,15.1875 Z M33.8193535,8.41640625 L32.3424794,6.93457031 C32.0981046,6.68671875 31.6996673,6.68671875 31.44998,6.92929687 L25.8824835,12.4136719 L23.4652976,9.9984375 C23.2209227,9.75058594 22.8224855,9.75058594 22.5727981,9.99316406 L21.0799866,11.4644531 C20.8302992,11.7070312 20.8302992,12.1025391 21.0746741,12.3503906 L25.4149838,16.6904297 C25.6593587,16.9382812 26.0577959,16.9382812 26.3074832,16.6957031 L33.814041,9.30234375 C34.0584158,9.05449219 34.0637283,8.65898438 33.8193535,8.41640625 Z" id="Shape"></path>
                        </g>
                    </g>
                </g>
            </g>
        </g>
    </g>
</svg>