<?xml version="1.0" encoding="UTF-8"?>
<svg width="34px" height="34px" viewBox="0 0 34 34" version="1.1" xmlns="http://www.w3.org/2000/svg" xmlns:xlink="http://www.w3.org/1999/xlink">
    <!-- Generator: Sketch 52.3 (67297) - http://www.bohemiancoding.com/sketch -->
    <title>baseline-score-24px copy</title>
    <desc>Created with Sketch.</desc>
    <g id="Page-1" stroke="none" stroke-width="1" fill="none" fill-rule="evenodd">
        <g id="Mockup-APP5-Copy-6" transform="translate(-22.000000, -1967.000000)">
            <g id="baseline-score-24px-copy" transform="translate(17.000000, 1962.000000)">
                <path d="M34.8333333,5.5 L9.16666667,5.5 C7.15,5.5 5.5,7.15 5.5,9.16666667 L5.5,34.8333333 C5.5,36.85 7.15,38.5 9.16666667,38.5 L34.8333333,38.5 C36.85,38.5 38.5,36.85 38.5,34.8333333 L38.5,9.16666667 C38.5,7.15 36.85,5.5 34.8333333,5.5 Z" id="Path" fill="#FE703F"></path>
                <polygon id="Path" points="0 0 44 0 44 44 0 44"></polygon>
                <polygon id="Path" fill="#FFFFFF" points="25.85 14.6666667 28.7833333 17.6 22.3666667 24.0166667 17.2333333 18.8833333 7.7 28.4166667 9.53333333 30.25 17.2333333 22.55 22.3666667 27.6833333 30.6166667 19.6166667 33.55 22.55 33.55 14.6666667"></polygon>
            </g>
        </g>
    </g>
</svg>