<?xml version="1.0" encoding="UTF-8"?>
<svg width="50px" height="50px" viewBox="0 0 50 50" version="1.1" xmlns="http://www.w3.org/2000/svg" xmlns:xlink="http://www.w3.org/1999/xlink">
    <!-- Generator: Sketch 52.3 (67297) - http://www.bohemiancoding.com/sketch -->
    <title>Group 20</title>
    <desc>Created with Sketch.</desc>
    <g id="Page-1" stroke="none" stroke-width="1" fill="none" fill-rule="evenodd">
        <g id="Mockup-APP5-Copy-6" transform="translate(-50.000000, -1839.000000)">
            <g id="Group-32" transform="translate(28.000000, 1830.000000)">
                <g id="Group-25" transform="translate(7.000000, 9.000000)">
                    <g id="Group-20" transform="translate(15.000000, 0.000000)">
                        <circle id="Oval-Copy-4" fill="#00B9BE" cx="25" cy="25" r="25"></circle>
                        <g id="baseline-vpn_key-24px" transform="translate(10.000000, 17.000000)" fill="#FFFFFF" fill-rule="nonzero">
                            <path d="M16.7282051,5.74358974 C15.5507692,2.39794872 12.3630769,0 8.61538462,0 C3.8625641,0 0,3.8625641 0,8.61538462 C0,13.3682051 3.8625641,17.2307692 8.61538462,17.2307692 C12.3630769,17.2307692 15.5507692,14.8328205 16.7282051,11.4871795 L22.974359,11.4871795 L22.974359,17.2307692 L28.7179487,17.2307692 L28.7179487,11.4871795 L31.5897436,11.4871795 L31.5897436,5.74358974 L16.7282051,5.74358974 Z M8.61538462,11.4871795 C7.03589744,11.4871795 5.74358974,10.1948718 5.74358974,8.61538462 C5.74358974,7.03589744 7.03589744,5.74358974 8.61538462,5.74358974 C10.1948718,5.74358974 11.4871795,7.03589744 11.4871795,8.61538462 C11.4871795,10.1948718 10.1948718,11.4871795 8.61538462,11.4871795 Z" id="Shape"></path>
                        </g>
                    </g>
                </g>
            </g>
        </g>
    </g>
</svg>