<?xml version="1.0" encoding="UTF-8"?>
<svg width="50px" height="50px" viewBox="0 0 50 50" version="1.1" xmlns="http://www.w3.org/2000/svg" xmlns:xlink="http://www.w3.org/1999/xlink">
    <!-- Generator: Sketch 52.3 (67297) - http://www.bohemiancoding.com/sketch -->
    <title>Group 18</title>
    <desc>Created with Sketch.</desc>
    <g id="Page-1" stroke="none" stroke-width="1" fill="none" fill-rule="evenodd">
        <g id="Mockup-APP5-Copy-6" transform="translate(-49.000000, -1557.000000)">
            <g id="Group-29" transform="translate(21.000000, 1550.000000)">
                <g id="Group-22" transform="translate(0.000000, 7.000000)">
                    <g id="Group-18" transform="translate(28.000000, 0.000000)">
                        <circle id="Oval-Copy" fill="#00B9BE" cx="25" cy="25" r="25"></circle>
                        <g id="logo_KOOMKIN-03-Copy" transform="translate(6.000000, 16.000000)" fill="#FFFFFF">
                            <path d="M13.4792453,5.80754717 L15.7735849,5.01886792 C14.8415094,2.7245283 12.8339623,1.0754717 10.4679245,0.501886792 C13.5509434,0.21509434 16.3471698,1.00377358 18.6415094,3.58490566 C18.8566038,3.87169811 19.0716981,3.94339623 19.4301887,3.8 C19.9320755,3.58490566 20.5056604,3.44150943 21.1509434,3.22641509 L18.7849057,8.46037736 L13.4792453,5.80754717" id="Path"></path>
                            <path d="M16.7056604,14.3396226 L18.9283019,9.2490566 L23.9471698,11.9018868 L21.8679245,12.6188679 C22.8,14.8415094 24.6641509,16.490566 26.8867925,17.1358491 C23.8754717,17.4943396 20.8641509,16.2754717 18.9283019,13.9811321 C18.8566038,13.7660377 18.5698113,13.6943396 18.4264151,13.8377358 C17.8528302,13.9811321 17.3509434,14.1962264 16.7056604,14.3396226" id="Path"></path>
                            <path d="M10.2528302,0.573584906 C9.67924528,0.788679245 9.10566038,0.932075472 8.60377358,1.14716981 C5.80754717,2.22264151 3.87169811,4.80377358 3.51320755,7.74339623 C3.22641509,10.109434 4.01509434,12.5471698 5.80754717,14.1962264 C7.09811321,15.5584906 8.74716981,16.6339623 10.5396226,17.2075472 L9.46415094,17.2075472 C9.10566038,17.2075472 8.74716981,17.2075472 8.31698113,17.2075472 C3.72830189,16.9924528 0.143396226,13.0490566 0.358490566,8.46037736 C0.573584906,4.51698113 3.44150943,1.21886792 7.38490566,0.573584906 C7.88679245,0.501886792 8.38867925,0.430188679 8.89056604,0.430188679 C9.2490566,0.501886792 9.7509434,0.501886792 10.2528302,0.573584906 C10.1811321,0.573584906 10.1811321,0.645283019 10.2528302,0.573584906" id="Path"></path>
                            <path d="M27.3886792,16.9924528 C31.4037736,16.2037736 34.2716981,12.690566 34.2716981,8.6754717 C34.1283019,4.66037736 31.1886792,1.29056604 27.245283,0.573584906 C31.8339623,-0.358490566 36.2792453,2.50943396 37.2113208,7.09811321 C37.7132075,9.46415094 37.1396226,11.9018868 35.7773585,13.7660377 C33.8415094,16.4188679 30.6150943,17.6377358 27.3886792,16.9924528" id="Path"></path>
                        </g>
                    </g>
                </g>
            </g>
        </g>
    </g>
</svg>