<?xml version="1.0" encoding="UTF-8"?>
<svg width="50px" height="50px" viewBox="0 0 50 50" version="1.1" xmlns="http://www.w3.org/2000/svg" xmlns:xlink="http://www.w3.org/1999/xlink">
    <!-- Generator: Sketch 52.3 (67297) - http://www.bohemiancoding.com/sketch -->
    <title>Group 19</title>
    <desc>Created with Sketch.</desc>
    <g id="Page-1" stroke="none" stroke-width="1" fill="none" fill-rule="evenodd">
        <g id="Mockup-APP5-Copy-6" transform="translate(-50.000000, -1652.000000)">
            <g id="Group-30" transform="translate(28.000000, 1642.000000)">
                <g id="Group-23" transform="translate(4.000000, 10.000000)">
                    <g id="Group-19" transform="translate(18.000000, 0.000000)">
                        <circle id="Oval-Copy-2" fill="#33A2BD" cx="25" cy="25" r="25"></circle>
                        <g id="handshake-solid" transform="translate(8.000000, 16.000000)" fill="#FFFFFF" fill-rule="nonzero">
                            <path d="M24.451875,0 L19.62,0 C19.17,0 18.736875,0.168208216 18.405,0.470983005 L12.875625,5.51722949 C12.87,5.52283643 12.864375,5.53405031 12.85875,5.53965725 C11.925,6.41433998 11.941875,7.81046817 12.740625,8.67954395 C13.455,9.45890869 14.956875,9.66636549 15.89625,8.83093135 C15.901875,8.82532441 15.913125,8.82532441 15.91875,8.81971747 L20.413125,4.71543699 C20.77875,4.3846275 21.3525,4.40705526 21.684375,4.7715064 C22.021875,5.13595753 21.99375,5.70225853 21.628125,6.03867496 L20.16,7.37873375 L28.35,14.0061375 C28.513125,14.140704 28.659375,14.2864845 28.794375,14.4378719 L28.794375,3.58844195 L25.723125,0.527052411 C25.39125,0.190635978 24.93,0 24.451875,0 Z M30.6,3.59965583 L30.6,16.1535957 C30.6,17.1460242 31.404375,17.9478167 32.4,17.9478167 L36,17.9478167 L36,3.59965583 L30.6,3.59965583 Z M33.3,16.1535957 C32.805,16.1535957 32.4,15.749896 32.4,15.2564852 C32.4,14.7630744 32.805,14.3593747 33.3,14.3593747 C33.795,14.3593747 34.2,14.7630744 34.2,15.2564852 C34.2,15.749896 33.795,16.1535957 33.3,16.1535957 Z M0,17.9422097 L3.6,17.9422097 C4.595625,17.9422097 5.4,17.1404172 5.4,16.1479888 L5.4,3.59965583 L0,3.59965583 L0,17.9422097 Z M2.7,14.3593747 C3.195,14.3593747 3.6,14.7630744 3.6,15.2564852 C3.6,15.749896 3.195,16.1535957 2.7,16.1535957 C2.205,16.1535957 1.8,15.749896 1.8,15.2564852 C1.8,14.7574675 2.205,14.3593747 2.7,14.3593747 Z M27.219375,15.4022657 L18.82125,8.60665373 L17.13375,10.1485624 C15.463125,11.6680433 12.90375,11.5222628 11.413125,9.90185699 C9.9,8.25341647 10.018125,5.70225853 11.660625,4.19959846 L16.261875,0 L11.548125,0 C11.07,0 10.614375,0.190635978 10.276875,0.527052411 L7.2,3.58844195 L7.2,16.1423818 L8.229375,16.1423818 L13.32,20.7344661 C14.86125,21.9848139 17.128125,21.7493224 18.3825,20.2130206 L18.39375,20.2018068 L19.400625,21.0708825 C20.295,21.7997848 21.616875,21.6596113 22.3425,20.7681078 L24.10875,18.6038287 L24.4125,18.8505341 C25.183125,19.4729045 26.319375,19.3607657 26.94375,18.5870079 L27.478125,17.9309958 C28.108125,17.1572381 27.99,16.030243 27.219375,15.4022657 Z" id="Shape"></path>
                        </g>
                    </g>
                </g>
            </g>
        </g>
    </g>
</svg>