<?xml version="1.0" encoding="UTF-8"?>
<svg width="50px" height="50px" viewBox="0 0 50 50" version="1.1" xmlns="http://www.w3.org/2000/svg" xmlns:xlink="http://www.w3.org/1999/xlink">
    <!-- Generator: Sketch 52.3 (67297) - http://www.bohemiancoding.com/sketch -->
    <title>Group 10</title>
    <desc>Created with Sketch.</desc>
    <g id="Page-1" stroke="none" stroke-width="1" fill="none" fill-rule="evenodd">
        <g id="Mockup-APP5-Copy-6" transform="translate(-50.000000, -1749.000000)">
            <g id="Group-31" transform="translate(26.000000, 1736.000000)">
                <g id="Group-24" transform="translate(0.000000, 8.000000)">
                    <g id="Group-10" transform="translate(19.000000, 0.000000)">
                        <g id="baseline-supervised_user_circle-24px-2">
                            <g id="baseline-supervised_user_circle-24px">
                                <path d="M30,5 C16.2,5 5,16.2 5,30 C5,43.8 16.2,55 30,55 C43.8,55 55,43.8 55,30 C55,16.2 43.8,5 30,5 Z" id="Path" fill="#33A2BD" fill-rule="nonzero"></path>
                                <polygon id="Path" points="0 0 60 0 60 60 0 60"></polygon>
                            </g>
                        </g>
                        <g id="Group-33" transform="translate(12.000000, 16.000000)" fill="#FFFFFF" fill-rule="nonzero">
                            <g id="comment-slash-solid" transform="translate(13.500000, 12.000000)">
                                <path d="M2.49906937,7.50140776 C2.49906937,9.05188895 3.1678159,10.4710794 4.28031014,11.5870507 C3.88656218,13.1594137 2.58344393,14.5629743 2.56781901,14.5817301 C2.49906937,14.6536274 2.48031947,14.7599104 2.52094426,14.8536895 C2.56156905,14.9443426 2.64906859,15.0037361 2.74906807,15.0037361 C4.82093233,15.0037361 6.37404928,14.0096776 7.1427953,13.3969874 C8.164665,13.7814818 9.29903412,14.0034256 10.4990279,14.0034256 C11.3552735,14.0034256 12.1771442,13.8908907 12.9490152,13.6908286 L2.77719293,5.82588777 C2.60219383,6.36042867 2.49906937,6.91997732 2.49906937,7.50140776 Z M20.3052271,14.3191486 L16.7302456,11.555791 C17.8302399,10.4429457 18.4989864,9.03938507 18.4989864,7.50140776 C18.4989864,3.90966808 14.917755,0.999389888 10.4990279,0.999389888 C8.46466345,0.999389888 6.61779802,1.62770988 5.20530534,2.64677615 L1.92094737,0.10536243 C1.7021985,-0.0634399573 1.38970012,-0.0259283157 1.21782601,0.192889594 L0.605329185,0.980634067 C0.43658006,1.19945198 0.474079865,1.51204899 0.692828732,1.68085138 L19.0802334,15.8946376 C19.2989823,16.06344 19.6114807,16.0259283 19.7833548,15.8071104 L20.3958516,15.01624 C20.5646007,14.803674 20.5239759,14.487951 20.3052271,14.3191486 Z" id="Shape"></path>
                            </g>
                            <g id="phone-slash-solid">
                                <path d="M8.79930061,13.4086907 L7.17180904,11.278267 C6.9486852,10.9864763 6.57462464,10.8880408 6.25306381,11.035694 L2.57808285,12.7231583 C2.22699092,12.8848737 2.03667941,13.289162 2.12199147,13.6899348 L2.90948739,17.3461076 C2.99151821,17.725787 3.30651658,18 3.67729591,18 C6.98149753,18 10.0330442,16.8609616 12.5267813,14.9449864 L9.90179489,12.772376 C9.5441405,13.0008868 9.1766424,13.218851 8.79930061,13.4086907 Z M20.7954884,16.1051181 L15.5881717,11.7950529 C17.648786,9.01425229 18.8989358,5.51627929 18.8989358,1.68784453 C18.8989358,1.29410284 18.6462808,0.953094419 18.2886264,0.86520565 L14.8761441,0.0214734707 C14.5053648,-0.0699308488 14.1247418,0.137486645 13.973805,0.510135025 L12.3988132,4.44755186 C12.2610014,4.79207584 12.3528759,5.19636417 12.6252183,5.43190607 L14.6136455,7.17561924 C14.213335,8.09317799 13.6981815,8.94394127 13.1042783,9.73494019 L1.49199473,0.119908892 C1.26230842,-0.0699308488 0.934185125,-0.0277442398 0.753717311,0.218344313 L0.110595644,1.1042631 C-0.0665909373,1.35035165 -0.0272161413,1.70190673 0.202470168,1.89174647 L19.5092451,17.8769557 C19.7389314,18.0667955 20.0670547,18.0246089 20.2475225,17.7785203 L20.8906442,16.889086 C21.0678308,16.6500285 21.0251747,16.2949579 20.7954884,16.1051181 Z" id="Shape"></path>
                            </g>
                        </g>
                    </g>
                </g>
            </g>
        </g>
    </g>
</svg>