<?xml version="1.0" encoding="UTF-8"?>
<svg width="59px" height="49px" viewBox="0 0 59 49" version="1.1" xmlns="http://www.w3.org/2000/svg" xmlns:xlink="http://www.w3.org/1999/xlink">
    <!-- Generator: Sketch 52.3 (67297) - http://www.bohemiancoding.com/sketch -->
    <title>Path</title>
    <desc>Created with Sketch.</desc>
    <g id="Page-1" stroke="none" stroke-width="1" fill="none" fill-rule="evenodd">
        <g id="Mockup-APP5-Copy-6" transform="translate(-258.000000, -2410.000000)" fill="#288AC1">
            <g id="Group-3" transform="translate(255.000000, 2401.000000)">
                <g id="baseline-chat_bubble_outline-24px-copy-2">
                    <path d="M30.1834578,57.4477091 C29.6372849,56.6192727 29.091112,55.5146909 28.5449391,54.6862546 C28.2718526,53.8578182 27.7256797,53.0293819 27.7256797,52.2009455 C27.4525933,49.9917819 27.9987662,49.1633455 30.1834578,49.439491 C37.5567922,49.9917819 44.6570401,48.6110546 51.2111151,44.7450183 C53.1227203,43.6404365 55.3074119,42.2597092 56.9459307,40.6028365 C63.7730921,33.6992002 63.7730921,24.3102548 56.3997578,17.4066184 C51.2111151,12.4360003 44.6570401,10.2268367 37.8298786,9.39840032 C29.3641985,8.29381851 21.1716047,9.39840032 13.5251839,13.8167276 C10.7943193,15.4736003 8.33654122,17.4066184 6.42493602,19.8919275 C1.50937978,25.9671275 2.0555527,33.4230547 6.97110893,40.326691 C11.0674058,45.8496001 16.2560485,49.9917819 22.2639506,53.5816728 C24.7217287,55.2385455 27.4525933,56.6192727 29.9103714,58 C29.9103714,57.7238545 29.9103714,57.7238545 30.1834578,57.4477091 Z" id="Path"></path>
                </g>
            </g>
        </g>
    </g>
</svg>