<?xml version="1.0" encoding="UTF-8"?>
<svg width="14px" height="13px" viewBox="0 0 14 13" version="1.1" xmlns="http://www.w3.org/2000/svg" xmlns:xlink="http://www.w3.org/1999/xlink">
    <!-- Generator: Sketch 52.3 (67297) - http://www.bohemiancoding.com/sketch -->
    <title>Path</title>
    <desc>Created with Sketch.</desc>
    <g id="Page-1" stroke="none" stroke-width="1" fill="none" fill-rule="evenodd">
        <g id="Mockup-APP5-Copy-6" transform="translate(-299.000000, -837.000000)" fill="#F5A623">
            <g id="card-4" transform="translate(20.000000, 802.000000)">
                <g id="Group-4-Copy" transform="translate(279.000000, 35.000000)">
                    <path d="M6.52388489,0.447249652 L4.99818666,3.77161532 L1.58464132,4.30642641 C0.972492873,4.40183872 0.727166206,5.21284334 1.17109065,5.67735062 L3.64071244,8.26352633 L3.05660132,11.9168134 C2.95146132,12.577167 3.59865644,13.0718045 4.14071155,12.7629699 L7.19444444,11.0380158 L10.2481773,12.7629699 C10.7902325,13.0692936 11.4374276,12.577167 11.3322876,11.9168134 L10.7481765,8.26352633 L13.2177982,5.67735062 C13.6617227,5.21284334 13.416396,4.40183872 12.8042476,4.30642641 L9.39070223,3.77161532 L7.865004,0.447249652 C7.59164,-0.145310995 6.79958533,-0.152843546 6.52388489,0.447249652 Z" id="Path"></path>
                </g>
            </g>
        </g>
    </g>
</svg>