<?xml version="1.0" encoding="UTF-8"?>
<svg width="77px" height="77px" viewBox="0 0 77 77" version="1.1" xmlns="http://www.w3.org/2000/svg" xmlns:xlink="http://www.w3.org/1999/xlink">
    <!-- Generator: Sketch 52.3 (67297) - http://www.bohemiancoding.com/sketch -->
    <title>baseline-score-24px copy 2</title>
    <desc>Created with Sketch.</desc>
    <g id="Page-1" stroke="none" stroke-width="1" fill="none" fill-rule="evenodd">
        <g id="Modal-Copy-8" transform="translate(-103.000000, -99.000000)">
            <g id="baseline-score-24px-copy-2" transform="translate(103.000000, 99.000000)">
                <path d="M68.0555556,0.5 L8.94444444,0.5 C4.3,0.5 0.5,4.3 0.5,8.94444444 L0.5,68.0555556 C0.5,72.7 4.3,76.5 8.94444444,76.5 L68.0555556,76.5 C72.7,76.5 76.5,72.7 76.5,68.0555556 L76.5,8.94444444 C76.5,4.3 72.7,0.5 68.0555556,0.5 Z" id="Path" fill="#00B9BE"></path>
                <polygon id="Path" fill="#FFFFFF" points="48.3734043 24.3333333 54.6882979 30.648227 40.8744681 44.4620567 29.8234043 33.4109929 9.3 53.9343972 13.2468085 57.8812057 29.8234043 41.3046099 40.8744681 52.3556738 58.6351064 34.9897163 64.95 41.3046099 64.95 24.3333333"></polygon>
            </g>
        </g>
    </g>
</svg>