<?xml version="1.0" encoding="UTF-8"?>
<svg width="50px" height="50px" viewBox="0 0 50 50" version="1.1" xmlns="http://www.w3.org/2000/svg" xmlns:xlink="http://www.w3.org/1999/xlink">
    <!-- Generator: Sketch 52.3 (67297) - http://www.bohemiancoding.com/sketch -->
    <title>baseline-access_time-24px</title>
    <desc>Created with Sketch.</desc>
    <g id="Page-1" stroke="none" stroke-width="1" fill="none" fill-rule="evenodd">
        <g id="Mockup-APP5-Copy-6" transform="translate(-50.000000, -1370.000000)">
            <g id="Group-27" transform="translate(28.000000, 1363.000000)">
                <g id="Group-26" transform="translate(7.000000, 7.000000)">
                    <g id="baseline-access_time-24px" transform="translate(15.000000, 0.000000)">
                        <circle id="Oval" fill="#00B9BE" cx="25" cy="25" r="25"></circle>
                        <path d="M24.9791667,4.16666667 C13.4791667,4.16666667 4.16666667,13.5 4.16666667,25 C4.16666667,36.5 13.4791667,45.8333333 24.9791667,45.8333333 C36.5,45.8333333 45.8333333,36.5 45.8333333,25 C45.8333333,13.5 36.5,4.16666667 24.9791667,4.16666667 Z M25,41.6666667 C15.7916667,41.6666667 8.33333333,34.2083333 8.33333333,25 C8.33333333,15.7916667 15.7916667,8.33333333 25,8.33333333 C34.2083333,8.33333333 41.6666667,15.7916667 41.6666667,25 C41.6666667,34.2083333 34.2083333,41.6666667 25,41.6666667 Z" id="Shape" fill="#FFFFFF" fill-rule="nonzero"></path>
                        <polygon id="Path" points="0 0 50 0 50 50 0 50"></polygon>
                        <polygon id="Path" fill="#FFFFFF" points="26.0416667 14.5833333 22.9166667 14.5833333 22.9166667 27.0833333 33.8541667 33.6458333 35.4166667 31.0833333 26.0416667 25.5208333"></polygon>
                    </g>
                </g>
            </g>
        </g>
    </g>
</svg>