<?xml version="1.0" encoding="utf-8"?>
<!-- Generator: Adobe Illustrator 23.0.1, SVG Export Plug-In . SVG Version: 6.00 Build 0)  -->
<svg version="1.1" id="Layer_1" xmlns="http://www.w3.org/2000/svg" xmlns:xlink="http://www.w3.org/1999/xlink" x="0px" y="0px"
	 viewBox="0 0 24 24" style="enable-background:new 0 0 24 24;" xml:space="preserve">
<style type="text/css">
	.st0{fill:#FE703F;}
	.st1{fill:#FFFFFF;}
</style>
<g>
	<path class="st0" d="M22.8,11.5L12.5,1.2c-0.4-0.4-1-0.7-1.6-0.7H2.8c-1.3,0-2.3,1-2.3,2.3v8.1c0,0.6,0.3,1.2,0.7,1.6l10.4,10.4
		c0.4,0.4,1,0.7,1.6,0.7c0.6,0,1.2-0.3,1.6-0.7l8-8c0.4-0.4,0.7-1,0.7-1.6C23.5,12.5,23.2,11.9,22.8,11.5z"/>
	<circle class="st1" cx="4.5" cy="4.5" r="1.7"/>
	<path class="st1" d="M13.3,12.7c-1.6-0.4-2.1-0.9-2.1-1.5c0-0.8,0.7-1.3,1.9-1.3c1.3,0,1.7,0.6,1.8,1.5h1.6c0-1.2-0.8-2.3-2.3-2.7
		V7.1H12v1.5c-1.4,0.3-2.5,1.2-2.5,2.6c0,1.6,1.4,2.5,3.3,2.9c1.8,0.4,2.1,1.1,2.1,1.7c0,0.5-0.3,1.3-1.9,1.3c-1.5,0-2-0.7-2.1-1.5
		H9.4c0.1,1.6,1.3,2.4,2.6,2.7v1.5h2.1v-1.5c1.4-0.3,2.5-1.1,2.5-2.5C16.7,13.8,14.9,13.1,13.3,12.7z"/>
</g>
</svg>
