<?xml version="1.0" encoding="UTF-8"?>
<svg width="38px" height="38px" viewBox="0 0 38 38" version="1.1" xmlns="http://www.w3.org/2000/svg" xmlns:xlink="http://www.w3.org/1999/xlink">
    <!-- Generator: Sketch 52.3 (67297) - http://www.bohemiancoding.com/sketch -->
    <title>Shape</title>
    <desc>Created with Sketch.</desc>
    <g id="Page-1" stroke="none" stroke-width="1" fill="none" fill-rule="evenodd">
        <g id="Mockup-APP5-Copy-6" transform="translate(-22.000000, -2587.000000)" fill="#FE703F" fill-rule="nonzero">
            <g id="baseline-loyalty-24px-copy" transform="translate(22.000000, 2587.000000)">
                <path d="M36.2516667,18.23 L19.7516667,1.73 C19.0916667,1.07 18.175,0.666666667 17.1666667,0.666666667 L4.33333333,0.666666667 C2.31666667,0.666666667 0.666666667,2.31666667 0.666666667,4.33333333 L0.666666667,17.1666667 C0.666666667,18.175 1.07,19.0916667 1.74833333,19.77 L18.2483333,36.27 C18.9083333,36.93 19.825,37.3333333 20.8333333,37.3333333 C21.8416667,37.3333333 22.7583333,36.93 23.4183333,36.2516667 L36.2516667,23.4183333 C36.93,22.7583333 37.3333333,21.8416667 37.3333333,20.8333333 C37.3333333,19.825 36.9116667,18.89 36.2516667,18.23 Z M7.08333333,9.83333333 C5.56166667,9.83333333 4.33333333,8.605 4.33333333,7.08333333 C4.33333333,5.56166667 5.56166667,4.33333333 7.08333333,4.33333333 C8.605,4.33333333 9.83333333,5.56166667 9.83333333,7.08333333 C9.83333333,8.605 8.605,9.83333333 7.08333333,9.83333333 Z M28.6616667,24.995 L20.8333333,32.8233333 L13.005,24.995 C12.18,24.1516667 11.6666667,23.015 11.6666667,21.75 C11.6666667,19.22 13.72,17.1666667 16.25,17.1666667 C17.515,17.1666667 18.67,17.68 19.495,18.5233333 L20.8333333,19.8433333 L22.1716667,18.505 C22.9966667,17.68 24.1516667,17.1666667 25.4166667,17.1666667 C27.9466667,17.1666667 30,19.22 30,21.75 C30,23.015 29.4866667,24.17 28.6616667,24.995 Z" id="Shape"></path>
            </g>
        </g>
    </g>
</svg>