<?xml version="1.0" encoding="UTF-8"?>
<svg width="76px" height="74px" viewBox="0 0 76 74" version="1.1" xmlns="http://www.w3.org/2000/svg" xmlns:xlink="http://www.w3.org/1999/xlink">
    <!-- Generator: Sketch 52.3 (67297) - http://www.bohemiancoding.com/sketch -->
    <title>Group 4 Copy</title>
    <desc>Created with Sketch.</desc>
    <g id="Page-1" stroke="none" stroke-width="1" fill="none" fill-rule="evenodd">
        <g id="Modal-Copy" transform="translate(-103.000000, -102.000000)">
            <g id="Group-4-Copy" transform="translate(103.000000, 102.000000)">
                <g id="trophy" fill="#00B9BE" fill-rule="nonzero">
                    <path d="M72.8333333,9.23611111 L59.1111111,9.23611111 L59.1111111,3.46354167 C59.1111111,1.54416233 57.6993056,0 55.9444444,0 L20.0555556,0 C18.3006944,0 16.8888889,1.54416233 16.8888889,3.46354167 L16.8888889,9.23611111 L3.16666667,9.23611111 C1.41180556,9.23611111 0,10.7802734 0,12.6996528 L0,20.78125 C0,25.9332682 2.96875,31.2296007 8.16736111,35.3136936 C12.3236111,38.5896267 17.3770833,40.6677517 22.68125,41.3315972 C26.8243056,48.8503689 31.6666667,51.953125 31.6666667,51.953125 L31.6666667,62.34375 L25.3333333,62.34375 C20.6756944,62.34375 16.8888889,65.3310547 16.8888889,70.4253472 L16.8888889,72.1571181 C16.8888889,73.109592 17.6013889,73.8888889 18.4722222,73.8888889 L57.5277778,73.8888889 C58.3986111,73.8888889 59.1111111,73.109592 59.1111111,72.1571181 L59.1111111,70.4253472 C59.1111111,65.3310547 55.3243056,62.34375 50.6666667,62.34375 L44.3333333,62.34375 L44.3333333,51.953125 C44.3333333,51.953125 49.1756944,48.8503689 53.31875,41.3315972 C58.6361111,40.6677517 63.6895833,38.5896267 67.8326389,35.3136936 C73.0180556,31.2296007 76,25.9332682 76,20.78125 L76,12.6996528 C76,10.7802734 74.5881944,9.23611111 72.8333333,9.23611111 Z M13.1020833,27.8237847 C9.88263889,25.2838542 8.44444444,22.4552951 8.44444444,20.78125 L8.44444444,18.4722222 L16.9152778,18.4722222 C17.0472222,23.1768663 17.6805556,27.3042535 18.6041667,30.9121094 C16.6118056,30.1616753 14.7513889,29.1226128 13.1020833,27.8237847 Z M67.5555556,20.78125 C67.5555556,23.1047092 65.2201389,25.9909939 62.8979167,27.8237847 C61.2486111,29.1226128 59.375,30.1616753 57.3826389,30.9121094 C58.30625,27.3042535 58.9395833,23.1768663 59.0715278,18.4722222 L67.5555556,18.4722222 L67.5555556,20.78125 Z" id="Shape"></path>
                </g>
                <path d="M38.036305,15.4387134 L35.7172437,20.3513871 L30.5286548,21.141719 C29.5981892,21.2827172 29.2252926,22.4812018 29.9000578,23.1676404 L33.6538829,26.9894334 L32.766034,32.3881798 C32.6062212,33.3640356 33.5899578,34.0949999 34.4138816,33.6386111 L39.0555556,31.0895122 L43.6972296,33.6386111 C44.5211533,34.0912895 45.5048899,33.3640356 45.3450771,32.3881798 L44.4572282,26.9894334 L48.2110533,23.1676404 C48.8858185,22.4812018 48.5129219,21.2827172 47.5824563,21.141719 L42.3938674,20.3513871 L40.0748061,15.4387134 C39.6592928,14.5630404 38.4553697,14.551909 38.036305,15.4387134 Z" id="Path" fill="#FFFFFF"></path>
            </g>
        </g>
    </g>
</svg>