<?xml version="1.0" encoding="UTF-8"?>
<svg width="27px" height="27px" viewBox="0 0 27 27" version="1.1" xmlns="http://www.w3.org/2000/svg" xmlns:xlink="http://www.w3.org/1999/xlink">
    <!-- Generator: Sketch 52.3 (67297) - http://www.bohemiancoding.com/sketch -->
    <title>Group 4 Copy</title>
    <desc>Created with Sketch.</desc>
    <g id="Page-1" stroke="none" stroke-width="1" fill="none" fill-rule="evenodd">
        <g id="Mockup-APP5-Copy-6" transform="translate(-21.000000, -112.000000)" fill="#FE703F" fill-rule="nonzero">
            <g id="Group-4-Copy" transform="translate(21.000000, 112.000000)">
                <g id="trophy">
                    <path d="M25.875,3.28125 L21,3.28125 L21,1.23046875 C21,0.548583984 20.4984375,0 19.875,0 L7.125,0 C6.5015625,0 6,0.548583984 6,1.23046875 L6,3.28125 L1.125,3.28125 C0.5015625,3.28125 0,3.82983398 0,4.51171875 L0,7.3828125 C0,9.21313477 1.0546875,11.0947266 2.9015625,12.5456543 C4.378125,13.7094727 6.1734375,14.4477539 8.0578125,14.6835937 C9.5296875,17.3547363 11.25,18.4570312 11.25,18.4570312 L11.25,22.1484375 L9,22.1484375 C7.3453125,22.1484375 6,23.2097168 6,25.0195312 L6,25.6347656 C6,25.9731445 6.253125,26.25 6.5625,26.25 L20.4375,26.25 C20.746875,26.25 21,25.9731445 21,25.6347656 L21,25.0195312 C21,23.2097168 19.6546875,22.1484375 18,22.1484375 L15.75,22.1484375 L15.75,18.4570312 C15.75,18.4570312 17.4703125,17.3547363 18.9421875,14.6835937 C20.83125,14.4477539 22.6265625,13.7094727 24.0984375,12.5456543 C25.940625,11.0947266 27,9.21313477 27,7.3828125 L27,4.51171875 C27,3.82983398 26.4984375,3.28125 25.875,3.28125 Z M4.6546875,9.88476562 C3.5109375,8.98242187 3,7.97753906 3,7.3828125 L3,6.5625 L6.009375,6.5625 C6.05625,8.23388672 6.28125,9.70019531 6.609375,10.9819336 C5.9015625,10.715332 5.240625,10.3461914 4.6546875,9.88476562 Z M24,7.3828125 C24,8.20825195 23.1703125,9.23364258 22.3453125,9.88476562 C21.759375,10.3461914 21.09375,10.715332 20.3859375,10.9819336 C20.7140625,9.70019531 20.9390625,8.23388672 20.9859375,6.5625 L24,6.5625 L24,7.3828125 Z" id="Shape"></path>
                </g>
            </g>
        </g>
    </g>
</svg>