<svg xmlns="http://www.w3.org/2000/svg" viewBox="0 0 32 32">
  <defs>
    <style>
      .cls-1 {
        fill: none;
      }

      .cls-2 {
        fill: #0079bc;
      }
    </style>
  </defs>
  <g id="Group_1084" data-name="Group 1084" transform="translate(-23 -245)">
    <rect id="Rectangle_3663" data-name="Rectangle 3663" class="cls-1" width="32" height="32" rx="2" transform="translate(23 245)"/>
    <g id="Group_72" data-name="Group 72" transform="translate(29 256.827)">
      <path id="Path_348" data-name="Path 348" class="cls-2" d="M133.932,81.665c0-.021.011-.043.011-.065L127.9,87.417l6.032,5.634c0-.043-.011-.086-.011-.118V81.665Zm0,0" transform="translate(-114.148 -80.245)"/>
      <path id="Path_349" data-name="Path 349" class="cls-2" d="M20.692,144.1l-2.462,2.376a.672.672,0,0,1-.452.183.635.635,0,0,1-.441-.172l-2.462-2.29L8.8,150.035a1.375,1.375,0,0,0,.473.1h17a1.448,1.448,0,0,0,.677-.183Zm0,0" transform="translate(-7.854 -136.025)"/>
      <path id="Path_350" data-name="Path 350" class="cls-2" d="M14.287,78.086,23.512,69.2a1.335,1.335,0,0,0-.71-.2H5.792a1.385,1.385,0,0,0-.892.333Zm0,0" transform="translate(-4.373 -69)"/>
      <path id="Path_351" data-name="Path 351" class="cls-2" d="M0,84.2V95.253a1.372,1.372,0,0,0,.065.366l6-5.774Zm0,0" transform="translate(0 -82.566)"/>
    </g>
    <path id="Path_352" data-name="Path 352" class="cls-2" d="M39.112,0H26.2a.7.7,0,0,0-.7.7V6.451H39.8V.7A.682.682,0,0,0,39.112,0Z" transform="translate(6.242 251)"/>
    <rect id="Rectangle_3650" data-name="Rectangle 3650" class="cls-2" width="8.759" height="1.592" transform="translate(34.574 252.592)"/>
    <rect id="Rectangle_3651" data-name="Rectangle 3651" class="cls-2" width="3.981" height="1.592" transform="translate(34.574 254.981)"/>
  </g>
</svg>
