<svg xmlns="http://www.w3.org/2000/svg" viewBox="0 0 158 272.53">
  <defs>
    <style>
      .cls-1 {
        fill: #32b5a8;
      }

      .cls-2 {
        stroke: #32b5a8;
        stroke-miterlimit: 10;
        stroke-width: 10px;
      }
    </style>
  </defs>
  <g id="Group_7588" data-name="Group 7588" transform="translate(-11474 -1814)">
    <path id="Path_2631" data-name="Path 2631" class="cls-1" d="M30.385,47.661H10.975c-5.546,0-.693,4.853-.693,4.853L44.943,94.107s2.773,3.466,5.546.693c4.159-4.159,33.275-42.98,33.275-42.98s4.853-4.853-1.386-4.853H64.353V13H30.385Z" transform="translate(11508.842 1870.954)"/>
    <path id="Path_2632" data-name="Path 2632" class="cls-1" d="M137.857,0H20.116C8.875,0,0,8.661,0,19.631V252.9c0,10.97,8.875,19.631,20.116,19.631H137.857c11.242,0,20.117-8.661,20.117-19.631V19.631C158.565,8.661,149.1,0,137.857,0ZM50.291,12.125h57.983c1.775,0,2.958,2.31,2.958,4.619,0,2.887-1.183,4.619-2.958,4.619H50.291c-1.775.577-2.958-1.732-2.958-4.619,0-2.31,1.183-4.619,2.958-4.619ZM79.283,252.9A12.706,12.706,0,1,1,92.3,240.2c0,7.506-5.917,12.7-13.017,12.7Zm63.9-43.3H15.383V33.489h127.8Zm0,0" transform="translate(11474 1814)"/>
    <line id="Line_6" data-name="Line 6" class="cls-2" x2="76.947" transform="translate(11517.631 1980.402)"/>
  </g>
</svg>
