<svg xmlns="http://www.w3.org/2000/svg" viewBox="0 0 222.979 272.53">
  <defs>
    <style>
      .cls-1 {
        fill: #32b5a8;
      }

      .cls-2 {
        fill: #fff;
      }
    </style>
  </defs>
  <g id="Group_7599" data-name="Group 7599" transform="translate(-12019.021 -2153)">
    <path id="ic_verified_user_24px" class="cls-1" d="M114.49,1,3,50.551v74.326C3,193.629,50.569,257.921,114.49,273.53c63.921-15.609,111.49-79.9,111.49-148.653V50.551Z" transform="translate(12016.021 2152)"/>
    <path id="like_selected" class="cls-2" d="M1,113.046H23.409V45.818H1ZM124.25,51.42a11.238,11.238,0,0,0-11.2-11.2H77.7l5.322-25.6.168-1.793A8.433,8.433,0,0,0,80.72,6.882L74.782,1,37.919,37.919a10.954,10.954,0,0,0-3.305,7.9v56.023a11.237,11.237,0,0,0,11.2,11.2H96.239a11.129,11.129,0,0,0,10.308-6.835l16.919-39.5a11.068,11.068,0,0,0,.784-4.09v-10.7l-.056-.056Z" transform="translate(12068.018 2222.019)"/>
  </g>
</svg>
