<svg xmlns="http://www.w3.org/2000/svg" viewBox="0 0 179.51 127.03"><defs><style>.cls-1{fill:#32b5a8;}</style></defs><title>tarjeta</title><g id="Capa_2" data-name="Capa 2"><g id="Capa_1-2" data-name="Capa 1"><path class="cls-1" d="M179.51,26.35v74.33a3.26,3.26,0,0,0-.32.75A29.78,29.78,0,0,1,149.41,127q-59.77,0-119.55,0A29.83,29.83,0,0,1,0,97.17Q0,63.44,0,29.69A29.84,29.84,0,0,1,29.69,0H149.76a29.81,29.81,0,0,1,28.65,21.83C178.82,23.33,179.15,24.85,179.51,26.35ZM7.53,45c0,.42-.09.59-.09.76,0,17-.17,34,0,51,.16,13.22,9.86,22.84,22.68,22.85q59.58,0,119.18,0a24,24,0,0,0,7.38-1.18c9.62-3.19,15.35-11.69,15.37-22.49q0-24.54,0-49.08V45Zm.07-15.2H171.92c0-.66.05-1.24,0-1.81a22.39,22.39,0,0,0-22.6-20.54q-59.59,0-119.17,0A26.48,26.48,0,0,0,26,7.8C15.58,9.4,7.2,19.43,7.6,29.78Z"/><path class="cls-1" d="M82.22,82.26v7.37H22.59V82.26Z"/><path class="cls-1" d="M22.5,74.64V67.42H52.23v7.22Z"/></g></g></svg>