<svg xmlns="http://www.w3.org/2000/svg" viewBox="0 0 205.05 205.05"><defs><style>.cls-1{fill:#32b5a8;}</style></defs><title>Cotizaciones</title><g id="Capa_2" data-name="Capa 2"><g id="Capa_1-2" data-name="Capa 1"><path class="cls-1" d="M0,86.91a38.53,38.53,0,0,1,2.27-4.6c2.25-3.36,5.61-4.83,9.52-5.57C33.51,72.61,53.68,64.34,73,53.8a337.86,337.86,0,0,0,36.4-23.18c.37-.27.71-.56,1.19-.94-4.86-5.91-9.67-11.76-14.74-17.91,4.33-.75,8.34-1.45,12.36-2.13L147.78,3,163.53.41A6,6,0,0,0,164.6,0h2c-2.67,7.23-5.32,14.47-8,21.7q-8.16,21.87-16.36,43.72c-.19.49-.39,1-.71,1.76l-14.4-17.42L122.62,53c-19.77,14.16-40.51,26.63-63,36.07A216.16,216.16,0,0,1,15.42,102.4a13,13,0,0,1-15-9A6.31,6.31,0,0,0,0,92.51Z"/><path class="cls-1" d="M176.62,205.05c-2.28-1.41-4.8-2.56-6.79-4.3a10.16,10.16,0,0,1-3.22-7.91q0-58.12,0-116.27A12.51,12.51,0,0,1,179,64.08q6.81,0,13.61,0a12.49,12.49,0,0,1,12.42,12.49V192a12.55,12.55,0,0,1-9.15,12.59,7.58,7.58,0,0,0-.86.42Z"/><path class="cls-1" d="M125.36,205.05c-2.29-1.41-4.8-2.56-6.79-4.3a10.17,10.17,0,0,1-3.23-7.91q0-45.32,0-90.64a12.49,12.49,0,0,1,12.43-12.48q6.81,0,13.61,0a12.48,12.48,0,0,1,12.42,12.48V192a12.55,12.55,0,0,1-9.15,12.59,6.84,6.84,0,0,0-.86.42Z"/><path class="cls-1" d="M74.09,205.05c-2.28-1.41-4.79-2.56-6.79-4.31a10.16,10.16,0,0,1-3.22-7.91q0-32.54,0-65.08a12.49,12.49,0,0,1,12.53-12.4H90A12.47,12.47,0,0,1,102.52,128q0,32,0,63.88c0,6.44-3.22,10.86-9.34,12.84a3.47,3.47,0,0,0-.67.38Z"/><path class="cls-1" d="M22.83,205.05c-2.28-1.41-4.8-2.56-6.79-4.31a10.16,10.16,0,0,1-3.22-7.91q0-19.72,0-39.45A12.49,12.49,0,0,1,25.33,141H38.75a12.47,12.47,0,0,1,12.51,12.6q0,19.13,0,38.25c0,6.44-3.22,10.86-9.34,12.84a3.2,3.2,0,0,0-.67.38Z"/></g></g></svg>