<svg xmlns="http://www.w3.org/2000/svg" viewBox="0 0 24 24.252">
  <defs>
    <style>
      .cls-1 {
        fill: none;
      }

      .cls-2 {
        fill: #32b5a8;
        stroke: #32b5a8;
        stroke-width: 0.5px;
      }
    </style>
  </defs>
  <g id="Group_4383" data-name="Group 4383" transform="translate(-3955 -1070.748)">
    <rect id="Rectangle_4623" data-name="Rectangle 4623" class="cls-1" width="24" height="24" transform="translate(3955 1071)"/>
    <g id="Group_4382" data-name="Group 4382" transform="translate(3956 1071.961)">
      <path id="Path_2589" data-name="Path 2589" class="cls-2" d="M20.715,3.788,19.549,1.451l-.64,1.831h0A21.981,21.981,0,0,1,.069,17.9L0,17.105A21.188,21.188,0,0,0,18.16,3.019l.625-1.791-2.3,1.151-.357-.71L19.3.082h0a.391.391,0,0,1,.531.179L21.42,3.436Z" transform="translate(0 -1)"/>
      <path id="Path_2590" data-name="Path 2590" class="cls-2" d="M4.272,384H.7v3.176H4.272Zm-.794,2.382H1.494v-1.588H3.479Z" transform="translate(-0.665 -364.91)"/>
      <path id="Path_2591" data-name="Path 2591" class="cls-2" d="M92.272,360H88.7v4.366h3.572Zm-.794,3.572H89.494v-2.779h1.985Z" transform="translate(-84.299 -342.101)"/>
      <path id="Path_2592" data-name="Path 2592" class="cls-2" d="M268.273,264H264.7v9.13h3.573Zm-.794,8.336h-1.985v-7.542h1.985Z" transform="translate(-251.566 -250.864)"/>
      <path id="Path_2593" data-name="Path 2593" class="cls-2" d="M180.072,319H176.5v6.4h3.572Zm-.794,5.845h-1.985v-5.289h1.985Z" transform="translate(-167.743 -303.135)"/>
      <path id="Path_2594" data-name="Path 2594" class="cls-2" d="M356.272,152H352.7v14.687h3.572Zm-.794,13.893h-1.985v-13.1h1.985Z" transform="translate(-335.2 -144.421)"/>
    </g>
  </g>
</svg>
