<svg xmlns="http://www.w3.org/2000/svg" viewBox="0 0 205.05 173.81"><defs><style>.cls-1{fill:#00B9BE;}</style></defs><title>Dispositivo</title><g id="Capa_2" data-name="Capa 2"><g id="Capa_1-2" data-name="Capa 1"><path class="cls-1" d="M0,70.49C1.28,67.84,2.43,65,5.52,64a18.64,18.64,0,0,1,5.54-1.08c21.62-.07,43.24,0,64.86,0,6.77,0,11,4.53,11,11.06-.06,29.16-.11,58.32,0,87.48,0,6-1.87,10.28-7.68,12.39H7.21A12.29,12.29,0,0,1,0,166.61Zm12.15,4.89v78.25H74.79V75.38Zm34.71,90.14a3.74,3.74,0,0,0-3.48-3.32c-1.73.05-3.73,2-3.69,3.65s2.1,3.57,3.6,3.55A3.72,3.72,0,0,0,46.86,165.52Z"/><path class="cls-1" d="M169,0c2.67.93,5.49,1.57,8,2.86a22.47,22.47,0,0,1,12,16.36,29.93,29.93,0,0,1,.42,5.52q0,25.92,0,51.86v2.54h-16V76.85q0-25.93,0-51.86c0-5.49-3.49-9-9-9H40.66c-5.52,0-9,3.48-9,9V55.53h-16V53.37c0-9.88,0-19.76,0-29.64,0-11.75,8.64-21.92,20-23.37.14,0,.27-.24.4-.36Z"/><path class="cls-1" d="M157,173.81c-3.47-1.44-6-3.78-6.94-7.54a7.92,7.92,0,0,1-.25-1.93c0-22.62,0-45.24,0-67.86,0-5,4.4-9.78,9.52-9.66,12,.28,24,.22,36,0a9.63,9.63,0,0,1,9.35,6.68,2.86,2.86,0,0,0,.39.61v72.49a12.29,12.29,0,0,1-7.21,7.2ZM161.94,99v54.62h31V99ZM181,165.71a3.68,3.68,0,0,0-3.74-3.51,4.26,4.26,0,0,0-3.46,3.65,4.46,4.46,0,0,0,3.6,3.55A3.79,3.79,0,0,0,181,165.71Z"/><path class="cls-1" d="M94.6,158.05V118.26h47.47v16.21H118.68v7.22H142v16.36Z"/></g></g></svg>