<svg xmlns="http://www.w3.org/2000/svg" viewBox="0 0 155.45 204.92"><defs><style>.cls-1{fill:#32b5a8;}</style></defs><title>cartita</title><g id="Capa_2" data-name="Capa 2"><g id="Capa_1-2" data-name="Capa 1"><path class="cls-1" d="M148.73,204.92H6.66C1.6,203.14,0,199.48,0,194.26Q.15,102.13.07,10c0-.82,0-1.64.07-2.45A7.82,7.82,0,0,1,4.32,1.12C5.07.69,5.88.37,6.66,0H102.9c3.1.9,6.15,1.9,8.64,4.07q8.19,7.14,16.34,14.32c6.51,5.72,12.84,11.65,19.57,17.09,5.62,4.55,8,9.91,8,17.23-.21,47.3-.11,94.59-.11,141.88,0,.93,0,1.86-.08,2.78a7.84,7.84,0,0,1-4.19,6.43C150.32,204.23,149.51,204.55,148.73,204.92ZM12.6,12.52V192.37H142.81c0-.6.09-1.12.09-1.65q0-68.08,0-136.16c0-1.59-.45-2-2-2-11.51.06-23,.09-34.53,0a12.64,12.64,0,0,1-5.45-1.27c-3.14-1.61-4-4.62-4-8,0-9.6,0-19.2,0-28.81v-2ZM133.66,40.07,109.5,18.9c-.08.66-.14.87-.14,1.08,0,6.27,0,12.53,0,18.8,0,1.38.67,1.45,1.72,1.45,6.87,0,13.73,0,20.6,0C132.17,40.21,132.69,40.14,133.66,40.07Z"/><path class="cls-1" d="M38,80.4V73.77a29.2,29.2,0,0,1-11.86-3L28.2,62.6a24.58,24.58,0,0,0,11.58,3.07c4,0,6.77-1.6,6.77-4.32S44.32,57,39.08,55.28c-7.46-2.52-12.56-6-12.56-12.77,0-6.21,4.33-11,11.8-12.42V23.46h6.83V29.6a25.18,25.18,0,0,1,10.19,2.3l-2.09,7.88a21.86,21.86,0,0,0-10-2.44c-4.53,0-6,2-6,4,0,2.23,2.44,3.77,8.44,5.93C54,50.18,57.23,54,57.23,60.37S52.9,71.88,44.88,73.21V80.4Z"/></g></g></svg>