<svg xmlns="http://www.w3.org/2000/svg" viewBox="0 0 205.05 204.9"><defs><style>.cls-1{fill:#32b5a8;}</style></defs><title>Edades</title><g id="Capa_2" data-name="Capa 2"><g id="Capa_1-2" data-name="Capa 1"><path class="cls-1" d="M117,0l12.4,3.91V21.85C64.88,3.81,18.83,54.51,18.12,101.44c-.68,45.59,39.93,86.15,85.51,85.5,46.61-.66,97.74-46.66,79.55-111.36H201l4,12.47v28.82a15.21,15.21,0,0,0-1.54,3.44c-9.5,55.05-62,92.34-117.17,83.22-46.6-7.71-82.73-46.28-86-91.88C-3.28,62.53,26,19,72.38,4.5c5.22-1.63,10.53-3,15.8-4.5Z"/><path class="cls-1" d="M108,99.81C101.1,94,97.15,87.63,100.51,79.12S111.37,68,119.72,67.3a70.12,70.12,0,0,1,10.35,0c8,.53,14.77,3.57,17.92,11.26,3.44,8.37.72,15.61-6.35,21.33,8.45,5.57,13.56,12.49,10.69,22.91-2.39,8.63-10.66,14.06-22.4,14.77a94.44,94.44,0,0,1-11.16,0c-11.3-.7-19.76-6.16-22.17-14.09C93.89,114.56,97.12,107.63,108,99.81ZM126.34,125c4,0,9.21-1.55,9.78-8.73.42-5.34-4.65-9.12-11.69-8.95-5.64.15-10.72,1.53-11.27,8.43C112.69,121.54,116.86,124.87,126.34,125ZM122.47,95.6c6.69-2,11.8-3,11.69-9.32-.09-5.55-4.45-7.64-9.36-7.62s-10.5,1.43-9.43,7.76C115.94,89.79,120,92.56,122.47,95.6Z"/><path class="cls-1" d="M82.42,137.38H64.82V82.13l-12.51-.78V67.79H82.42Z"/><path class="cls-1" d="M197,27.4V41.24H178.09V60.62H163.6V41.87H144.39V27.31h19V8.24h14.11V27.4Z"/></g></g></svg>