<svg xmlns="http://www.w3.org/2000/svg" viewBox="0 0 152.74 152"><defs><style>.cls-1{fill:#32b5a8;}</style></defs><title>factura</title><g id="Capa_2" data-name="Capa 2"><g id="Capa_1-2" data-name="Capa 1"><path class="cls-1" d="M152.74,117.7v10.6c-1.13,3.3-2,6.71-3.44,9.88C145.43,146.81,139,152,129.19,152q-48.76.06-97.55,0c-5.86,0-9.72-3.12-11.39-8.55a30.55,30.55,0,0,1-1.14-8.85Q19,91.38,19.06,48.17V42H.61C-2.1,21.81,4.27,7.59,19.14,0H120.93c9.32,3.65,12.62,10.83,12.58,20.41-.13,30.35,0,60.7,0,91.05v6.24ZM27.08,9.54c.53,6.51,1.38,12.27,1.4,18,.13,35.33,0,70.66.17,106,0,2.87,1.47,8.21,2.23,8.2,4.62,0,5.43-4.38,6.1-7.87,1-5,1.17-10.08,1.79-16h85.16c0-34.23.08-67.6-.08-101,0-5.31-2.76-7.36-8.29-7.38-16.79-.05-33.57,0-50.35,0ZM142,127.74h-94L44.84,142a4.78,4.78,0,0,0,1.49.53c27.69,0,55.37.17,83.06-.05C137.1,142.38,141.87,136.3,142,127.74ZM17.9,13.22,16,13.17c-4.85,5.4-5.79,12.07-6.16,19.24h9.61Z"/><path class="cls-1" d="M52.87,30.29l.35-5.64h8.34c-1,6.3,4.52,5.92,8.68,7.72l-1.68,7.55-14-.74-.47,2.25c1.67,1,3.32,2,5,3,2.92,1.58,6.25,2.65,8.77,4.72a10.71,10.71,0,0,1-1,17.25c-4.64,3.08-4.64,3.08-5.43,8.55H53.26l-.42-5.84-10.35-3.5,2.85-7.92c3.56.77,6.9,1.85,10.29,2.08,1.77.12,3.64-1.25,5.47-2a39.34,39.34,0,0,0-4-3.7,14.57,14.57,0,0,0-3.43-1.34c-5.16-2-9.82-4.55-9.93-10.94C43.68,35.72,47.25,32.12,52.87,30.29Z"/><path class="cls-1" d="M44.23,102V93.31H113.9V102Z"/><path class="cls-1" d="M113.47,30v9H84.6V30Z"/><path class="cls-1" d="M84.6,60V51.27h28.87V60Z"/><path class="cls-1" d="M113.44,71.67v8.74H84.59V71.67Z"/></g></g></svg>