<svg xmlns="http://www.w3.org/2000/svg" viewBox="0 0 24 24">
  <defs>
    <style>
      .cls-1 {
        fill: none;
      }

      .cls-2 {
        fill: #00B9BE;
      }
    </style>
  </defs>
  <g id="Group_4384" data-name="Group 4384" transform="translate(-3954 -1057)">
    <rect id="Rectangle_4624" data-name="Rectangle 4624" class="cls-1" width="24" height="24" transform="translate(3954 1057)"/>
    <path id="Path_2595" data-name="Path 2595" class="cls-2" d="M15.549,0V1.255h1.42L14.2,3.878A5.388,5.388,0,0,0,5.627,5.041c-.08,0-.156,0-.237,0a5.391,5.391,0,0,0-.63,10.744v1.672H2.88v1.255H4.761v1.825H6.016V18.709H7.981V17.454H6.016V15.782a5.4,5.4,0,0,0,4.091-2.751c.08,0,.156,0,.237,0a5.385,5.385,0,0,0,4.624-8.153l3-2.847v1.56h1.255V0ZM9.341,11.655A4.142,4.142,0,0,1,6.4,6.417a4.142,4.142,0,0,1,2.94,5.238ZM5.39,14.562A4.135,4.135,0,0,1,5.125,6.3a5.293,5.293,0,0,0-.168,1.344A5.4,5.4,0,0,0,8.775,12.8,4.137,4.137,0,0,1,5.39,14.562Zm5.222-2.791a5.294,5.294,0,0,0,.168-1.344A5.4,5.4,0,0,0,6.962,5.27a4.134,4.134,0,1,1,3.65,6.5Z" transform="translate(3956 1059)"/>
  </g>
</svg>
