<svg xmlns="http://www.w3.org/2000/svg" viewBox="0 0 205.05 209.72"><defs><style>.cls-1{fill:#32b5a8;}</style></defs><title>Genero</title><g id="Capa_2" data-name="Capa 2"><g id="Capa_1-2" data-name="Capa 1"><path class="cls-1" d="M193.62,0c1.07.28,2.17.48,3.21.84,5.69,1.93,8,5.08,8.16,11.38.11,4.08,0,8.15,0,12.23,0,8.59,0,17.19,0,25.79,0,6.41-3.81,11.31-9.49,12.56a12.12,12.12,0,0,1-14.91-11c-.17-2.45-.08-4.91-.11-7.37V42.35a9.16,9.16,0,0,0-1.15.77c-4.25,4-8.48,8.09-12.75,12.1a1.26,1.26,0,0,0-.27,1.94,64.09,64.09,0,0,1,.36,65.63c-8.11,13.59-19.56,23.3-34.64,28.51a63.54,63.54,0,0,1-39.65.76c-.57-.17-1.13-.41-1.88-.68,2.71-1.45,5.27-2.73,7.74-4.16a67,67,0,0,0,19-16.41,5.45,5.45,0,0,1,3.14-1.95c12.2-3.1,21.13-10.33,26.33-21.81,5.82-12.87,5-25.62-2.68-37.37-8.71-13.32-21.47-19.34-37.36-17.75C95,53.11,85.77,59,79,68.47a39.1,39.1,0,0,0-.53,43.8c.37.55.7,1.14,1.1,1.79a29,29,0,0,1-12.11,4.46,31,31,0,0,1-13.41-1,2.82,2.82,0,0,1-1.58-1.42,63.72,63.72,0,0,1,17.43-74A60.94,60.94,0,0,1,92.49,29.82a62.61,62.61,0,0,1,39.48.94,61.11,61.11,0,0,1,14.15,7.1,1.86,1.86,0,0,0,2.84-.27c3.22-3.24,6.58-6.36,9.87-9.53a3.61,3.61,0,0,0,1.07-1.67,22,22,0,0,0-3.64.54c-6.95,2.25-14.18-4-15.16-11.34C140.17,8.7,145.4.24,154.45.35c5.36.07,10.72-.08,16.08-.15.66,0,1.32-.13,2-.2Z"/><path class="cls-1" d="M60,209.72c-2.7-.93-5.31-2-7.25-4.23a13.39,13.39,0,0,1-3.07-9c0-2.84,0-5.68,0-8.73-.7,0-1.28-.08-1.87-.08-4.19,0-8.38.08-12.56-.08a12.25,12.25,0,0,1-11.65-12,12.06,12.06,0,0,1,11-12.25c4.38-.35,8.81-.23,13.22-.16,1.57,0,2-.47,1.93-2-.1-3.57-.12-7.15,0-10.72a2,2,0,0,0-1.83-2.37,59,59,0,0,1-19.52-8.53A63.09,63.09,0,0,1,1.39,73.92,60.61,60.61,0,0,1,10,53.18,61.76,61.76,0,0,1,33.29,31.62,61.22,61.22,0,0,1,74,25.16l2.34.4c-2.13,1.35-4,2.51-5.89,3.72A77.16,77.16,0,0,0,49.27,50.19c-1,1.36-2.89,2.08-4.45,3-11.36,6.44-18.21,16-20,29A36.43,36.43,0,0,0,33.2,111.4c9.28,11.11,21.38,15.89,35.76,13.7,13.79-2.1,23.6-9.94,29.34-22.51a36.08,36.08,0,0,0,.73-29c-1-2.53-2.22-5-3.39-7.53a29.45,29.45,0,0,1,24.2-3.19A3,3,0,0,1,122,65a62.36,62.36,0,0,1,.38,43.13,61.46,61.46,0,0,1-20.67,28.62,63.38,63.38,0,0,1-25.85,12c-.54.12-1.06.29-1.7.46,0,4.34,0,8.63,0,12.93,0,1.11.71,1.05,1.47,1.05H88.48A12.19,12.19,0,0,1,100,170.1c3.87,7.34-1.56,17.1-9.84,17.49-4.4.2-8.82.07-13.23.11-3.19,0-2.78-.43-2.81,2.89,0,2.06,0,4.13,0,6.19-.07,6.55-3.12,10.63-9.4,12.6a5.58,5.58,0,0,0-.75.34Z"/></g></g></svg>