<svg xmlns="http://www.w3.org/2000/svg" viewBox="0 0 93.779 272">
  <defs>
    <style>
      .cls-1 {
        fill: #32b5a8;
      }

      .cls-2 {
        fill: #fff;
      }
    </style>
  </defs>
  <g id="Group_7600" data-name="Group 7600" transform="translate(-11480 -2154)">
    <g id="Group_7593" data-name="Group 7593" transform="translate(11479.961 2154.003)">
      <path id="Path_14384" data-name="Path 14384" class="cls-1" d="M19.065,102.484c-16.633-2.132-20.9-8.1-18.339-24.31S5.417,45.76,7.55,29.554C8.829,18.891,13.947,14.2,24.609,14.2H69.391c8.956,0,14.074,3.838,15.354,12.795,2.985,19.192,6.4,38.384,8.956,57.576.853,7.25-2.985,12.368-9.809,15.354-2.985,1.279-6.4,1.706-10.236,2.559-2.132,22.178-4.265,44.782-6.824,67.386-1.706,15.78-2.985,31.56-4.691,47.341a2.564,2.564,0,0,1-.426,1.706c-5.118,9.809-14.074,5.971-21.751,5.971-5.544,0-8.956-2.559-9.383-8.956-3.412-36.252-7.25-72.5-11.089-109.182C19.491,105.469,19.065,104.19,19.065,102.484Z" transform="translate(0 46.37)"/>
      <path id="Path_14385" data-name="Path 14385" class="cls-1" d="M55.326,25.172c0,13.648-11.515,25.59-25.163,25.59C16.089,50.761,5,39.672,5,25.172A25.116,25.116,0,0,1,29.737.008C42.958-.418,55.326,11.524,55.326,25.172Z" transform="translate(16.197 0)"/>
    </g>
    <g id="Group_7595" data-name="Group 7595" transform="translate(-263 30)">
      <circle id="Ellipse_359" data-name="Ellipse 359" class="cls-2" cx="22.5" cy="22.5" r="22.5" transform="translate(11767 2203)"/>
      <path id="like_selected" class="cls-1" d="M1,27.552H6.31V11.621H1Zm29.207-14.6a2.663,2.663,0,0,0-2.655-2.655H19.175l1.261-6.067.04-.425a2,2,0,0,0-.584-1.407L18.484,1,9.749,9.749a2.6,2.6,0,0,0-.783,1.872V24.9a2.663,2.663,0,0,0,2.655,2.655H23.569a2.637,2.637,0,0,0,2.443-1.62l4.009-9.36a2.623,2.623,0,0,0,.186-.969V13.068l-.013-.013Z" transform="translate(11774 2211)"/>
    </g>
  </g>
</svg>
