<svg xmlns="http://www.w3.org/2000/svg" viewBox="0 0 87.854 75.078">
  <defs>
    <style>
      .cls-1 {
        fill: #24ccbc;
      }

      .cls-2 {
        fill: #707070;
      }
    </style>
  </defs>
  <g id="Group_3256" data-name="Group 3256" transform="translate(-13775 -9359.668)">
    <path id="Subtraction_4" data-name="Subtraction 4" class="cls-1" d="M3.56,45.179h0l0,0C5.553,43.185,6.882,39.7,7.623,34.519A21.129,21.129,0,0,1,2.1,28.173,16.115,16.115,0,0,1,0,20.305a16.292,16.292,0,0,1,2.057-7.884,20.8,20.8,0,0,1,5.63-6.456A30.69,30.69,0,0,1,26.427,0a34.994,34.994,0,0,1,4.112.241c1.911,9.231,10.805,16.33,22.134,17.667a15.961,15.961,0,0,1,.181,2.4A16.292,16.292,0,0,1,50.8,28.189a20.8,20.8,0,0,1-5.63,6.456,30.691,30.691,0,0,1-18.74,5.965A56.339,56.339,0,0,1,17.3,39.6l-.016,0C13.941,42.374,8.4,45.178,3.56,45.179Z" transform="translate(13775 9389.567)"/>
    <path id="Path_781" data-name="Path 781" class="cls-2" d="M26.343,0C41.035,0,52.687,9.683,52.687,21.519a19.77,19.77,0,0,1-7.6,15.063c.507,3.766,1.52,8.607,4.053,11.3-5.066,0-10.639-3.228-13.678-5.918a52.7,52.7,0,0,1-9.119,1.076C11.652,43.037,0,33.354,0,21.519S11.652,0,26.343,0Zm0,0" transform="translate(13810.167 9359.668)"/>
  </g>
</svg>
