<svg id="Group_2557" data-name="Group 2557" xmlns="http://www.w3.org/2000/svg" viewBox="0 0 83.897 37.92">
  <defs>
    <style>
      .cls-1, .cls-2 {
        fill: #fff;
      }

      .cls-1 {
        fill-rule: evenodd;
      }
    </style>
  </defs>
  <path id="Path_4" data-name="Path 4" class="cls-1" d="M42.4,21.758l5.4-1.8c-2.4-5.2-6.2-8.8-12-10.2,7-.6,13.4,1.2,18.4,7a1.613,1.613,0,0,0,1.8.6c1.2-.4,2.4-.8,3.8-1.4-1.8,4-3.6,7.8-5.4,11.8l-12-6" transform="translate(-12.834 -9.645)"/>
  <path id="Path_5" data-name="Path 5" class="cls-1" d="M42.8,31.1c1.6-3.8,3.2-7.6,5-11.6,3.8,2,7.4,4,11.2,6-1.6.6-3.2,1.2-4.6,1.8,2.4,5.2,6,8.6,11.4,10.2a19.49,19.49,0,0,1-16.2-5.4A12.944,12.944,0,0,1,48,30.3c-.4-.4-.6-.6-1.2-.4a15.243,15.243,0,0,1-4,1.2h0" transform="translate(-5.83 0.215)"/>
  <path id="Path_11" data-name="Path 11" class="cls-2" d="M46.686,10.1c-1.2.4-2.6.8-3.8,1.2-6.6,3-10.4,7.8-11.4,15-.8,5.6,1.2,10.4,5.2,14.6a23.339,23.339,0,0,0,10.8,6.6h-5a19.04,19.04,0,0,1-18-16.6A18.713,18.713,0,0,1,40.084,9.9a19.409,19.409,0,0,1,3.4-.2,9.358,9.358,0,0,1,3.2.4h0" transform="translate(-24.32 -9.59)"/>
  <path id="Path_12" data-name="Path 12" class="cls-2" d="M55.1,47.071a19.385,19.385,0,0,0,15.6-18.8,19.038,19.038,0,0,0-16-18.2c8.6-1.4,16,1.8,20.205,8.6a19.01,19.01,0,0,1-.8,21.406,19.471,19.471,0,0,1-19.005,7" transform="translate(6.076 -9.552)"/>
</svg>
