<svg xmlns="http://www.w3.org/2000/svg" viewBox="0 0 205.05 205.26"><defs><style>.cls-1{fill:#32b5a8;}</style></defs><title>Impression Share</title><g id="Capa_2" data-name="Capa 2"><g id="Capa_1-2" data-name="Capa 1"><g id="afQ9TQ.tif"><path class="cls-1" d="M175.76,0V89.72a47.25,47.25,0,0,0-14.61-1.08V46.19H14.69V153.77h100c.26,1,.45,2.06.77,3,.73,2.28,1.51,4.53,2.31,6.78a.86.86,0,0,1-.2,1.06c-1.32,1.35-2.61,2.76-3.95,4.11a1.5,1.5,0,0,1-.94.39c-1.83,0-3.67,0-5.5,0H0V0ZM14.68,30.71H161.06V15.42H14.68Z"/><path class="cls-1" d="M141.93,177.14l-26.78,28.12-10.29-10.81,26.74-28.09c-6.78-10.88-8.84-22.53-5.74-35a40.79,40.79,0,0,1,16.45-24.2c16.76-11.8,39-8.86,52.44,6.82a44,44,0,0,1,1.13,55.21C183,185.49,159.94,189.9,141.93,177.14Zm22.84-8c14.09,0,25.63-12,25.62-26.87S179,115.41,164.78,115.36c-14.08-.06-25.63,12-25.62,26.85S150.52,169.06,164.77,169.17Z"/><path class="cls-1" d="M139.09,76.86H66V61.58h73.14Z"/><path class="cls-1" d="M137.24,92.33c-1.88,1.36-3.78,2.66-5.59,4.08A53.37,53.37,0,0,0,121.44,107a1.35,1.35,0,0,1-1.21.63q-26.73,0-53.46,0H66V92.33Z"/><path class="cls-1" d="M113.08,123.09a60.34,60.34,0,0,0-3,15.27H66V123.09Z"/><path class="cls-1" d="M36.65,76.84V61.56H51.21V76.84Z"/><path class="cls-1" d="M51.21,107.62H36.66V92.34H51.21Z"/><path class="cls-1" d="M36.65,138.36V123.07H51.2v15.29Z"/></g></g></g></svg>