<svg xmlns="http://www.w3.org/2000/svg" viewBox="0 0 205.05 272.53"><defs><style>.cls-1{fill:#32b5a8;}</style></defs><title>Clicks</title><g id="Capa_2" data-name="Capa 2"><g id="Capa_1-2" data-name="Capa 1"><path class="cls-1" d="M59.59,162.34V149.48c0-32.62.15-65.23,0-97.85-.07-16.8,12.28-24.19,22.47-24.92,14.46-1,25.62,9.39,25.65,23.94,0,16.15,0,32.31,0,48.47v3.44A27.41,27.41,0,0,1,128,103.83c6.55,3,11.07,8,12.93,15.16,13.94-2.74,25,.56,31.47,14.53a25.54,25.54,0,0,1,15.29-.31C198,136.34,204.28,144.3,204.61,155c.82,26.86.65,53.71-1.8,80.49A85.07,85.07,0,0,1,199.1,255c-3.94,11.56-13.36,17.5-25.6,17.49q-49.68,0-99.36,0c-7.21,0-12.17-2.93-15.53-9.38Q30.6,209.53,2.37,156c-4.21-8-2.8-15.17,4.09-21.09a26,26,0,0,1,38.44,5.21c3.21,4.87,5.76,10.17,8.74,15.2,1.5,2.53,3.29,4.9,4.94,7.34ZM74.93,107h-.45q0,28.17,0,56.33a14.22,14.22,0,0,1-10,14c-6.31,2.16-13.36.34-17.24-4.77-2.79-3.69-5.36-7.57-7.79-11.51s-4.5-8.36-7-12.35a10.84,10.84,0,0,0-14.91-3.23c-2,1.19-2.48,2.33-1.27,4.6q27.66,51.94,55.08,104a4.93,4.93,0,0,0,5.1,3.07q48-.14,96-.06c8.05,0,11.94-2.78,13.67-10.7a75.88,75.88,0,0,0,1.72-13.17q1.17-30.56,1.94-61.13c.15-5.94-.15-11.91-.55-17.85-.28-4.19-4.42-7.23-8.82-6.93s-7.24,3.13-7.35,7.59c-.06,2.72,0,5.45-.12,8.18a7.23,7.23,0,0,1-4.88,7c-5.2,1.94-10.12-1.66-10.22-7.63-.12-7.17,0-14.34-.05-21.51,0-3.67-1.5-5.85-4.6-7.06-6.3-2.48-11.72,1.12-11.89,8-.08,3.33.17,6.67-.07,10a11.18,11.18,0,0,1-1.58,5.05,7.07,7.07,0,0,1-8.06,2.62,7.58,7.58,0,0,1-5.37-7.58c0-9.19,0-18.38,0-27.56,0-4.66-4.12-8.07-9.49-8.08-5,0-8.83,3.28-8.95,7.86-.07,2.93,0,5.86-.05,8.79s.15,6.07-.16,9.07a7.49,7.49,0,0,1-14.91,0,33.17,33.17,0,0,1-.16-4.23q0-43.62,0-87.23c0-5.37-3.4-8.71-8.66-8.72S75,45.11,75,50.32C74.89,69.2,74.93,88.08,74.93,107Z"/><path class="cls-1" d="M119.39,88.94c0-5.9,0-11.34,0-16.79a8.93,8.93,0,0,1,1-3.11c6.67-15.69,4.78-30.41-6.2-43.29S88.81,8.39,72.46,12.84C56.26,17.26,46.35,28.3,43,44.81c-1.81,8.78-.42,17.22,3.42,25.34a17.14,17.14,0,0,1,1.43,6.3c.21,4.4.06,8.82.06,13.43C35.71,80.59,27.58,60.12,32.23,40.46,37.61,17.75,57.66.9,80.44,0c24.22-.91,45.39,13.76,52.65,36.61C139.73,57.54,131.71,79.31,119.39,88.94Z"/></g></g></svg>