<svg xmlns="http://www.w3.org/2000/svg" viewBox="0 0 24 24">
  <defs>
    <style>
      .cls-1 {
        fill: none;
      }

      .cls-2 {
        fill: #00B9BE;
      }
    </style>
  </defs>
  <g id="Group_4380" data-name="Group 4380" transform="translate(-3885 -1093)">
    <rect id="Rectangle_4622" data-name="Rectangle 4622" class="cls-1" width="24" height="24" transform="translate(3885 1093)"/>
    <g id="Group_4379" data-name="Group 4379" transform="translate(3889 1094)">
      <path id="Path_2581" data-name="Path 2581" class="cls-2" d="M7.711,0A7.712,7.712,0,0,0,1.152,11.768l6.122,9.866a.643.643,0,0,0,.544.3h0a.644.644,0,0,0,.548-.313l5.963-9.96A7.715,7.715,0,0,0,7.711,0Zm5.522,11L7.809,20.057l-5.565-8.97A6.428,6.428,0,1,1,13.233,11Z"/>
      <path id="Path_2582" data-name="Path 2582" class="cls-2" d="M93.855,90a3.855,3.855,0,1,0,3.855,3.855A3.861,3.861,0,0,0,93.855,90Zm0,6.434a2.579,2.579,0,1,1,2.575-2.579A2.579,2.579,0,0,1,93.855,96.434Z" transform="translate(-86.145 -86.145)"/>
    </g>
  </g>
</svg>
