<svg xmlns="http://www.w3.org/2000/svg" viewBox="0 0 143.62 205.05"><defs><style>.cls-1{fill:#32b5a8;}</style></defs><title>Leads por estado</title><g id="Capa_2" data-name="Capa 2"><g id="Capa_1-2" data-name="Capa 1"><path class="cls-1" d="M70.73,0h2.16a5.16,5.16,0,0,0,.67.1c2.38.18,4.76.27,7.13.52a67.22,67.22,0,0,1,16.59,4,71.16,71.16,0,0,1,46.06,61.83c.11,1.42.19,2.85.28,4.27V73c0,.33-.07.66-.11,1-.41,3.49-.64,7-1.25,10.44a118.93,118.93,0,0,1-7.62,24.5,250.83,250.83,0,0,1-17.28,33.46,492.37,492.37,0,0,1-42.49,59.06c-1,1.2-2,2.37-3.05,3.57-.2-.22-.35-.36-.48-.52-5.94-7.41-12-14.73-17.8-22.26a424.84,424.84,0,0,1-28.86-42.49A261.3,261.3,0,0,1,11,113.61,144.61,144.61,0,0,1,2.84,91.05a78.3,78.3,0,0,1-2.43-13C.26,76.41.13,74.72,0,73V70.73c0-.27.09-.54.11-.82.17-2.3.25-4.6.5-6.89A69,69,0,0,1,7.15,40.41,71.2,71.2,0,0,1,66.3.29C67.78.18,69.26.1,70.73,0Zm52.32,71.84c0-28.66-22.39-51.14-51.18-51.27C43.25,20.44,20.62,43,20.57,71.78S43,122.92,71.75,123.05C100.37,123.18,123,100.59,123.05,71.84Z"/><path class="cls-1" d="M80.84,42.12c-1.09.83-2.14,1.56-3.09,2.39a16.47,16.47,0,0,0-5.3,7.85c-1.66,5.84,0,10.82,4.2,15a14.65,14.65,0,0,0,20.91,0A59.22,59.22,0,0,0,101.5,63c.11.94.2,2,.38,3a32.9,32.9,0,0,1,.55,8.86A31.21,31.21,0,0,1,97,89.77a29.14,29.14,0,0,1-12.81,10.32,31.67,31.67,0,0,1-14.72,2.38,31.24,31.24,0,0,1-12-3.32A29,29,0,0,1,45.9,88.7a30.37,30.37,0,0,1-4.8-18.12C41.59,60.32,45.9,52,54.45,46.22a29.68,29.68,0,0,1,18.17-5.11c2,.07,4,.52,5.94.78C79.29,42,80,42,80.84,42.12Z"/></g></g></svg>