<svg xmlns="http://www.w3.org/2000/svg" viewBox="0 0 205.05 204.99"><defs><style>.cls-1{fill:#00B9BE;}</style></defs><title>Reporte de LEads</title><g id="Capa_2" data-name="Capa 2"><g id="Capa_1-2" data-name="Capa 1"><path class="cls-1" d="M0,205V66.46c6.36-4.09,12.5-8.6,19.16-12.14,7.12-3.78,11-8.69,9.17-17a7,7,0,0,1,0-2c.56-8,5.72-12.88,13.81-12.9,7.33,0,14.66.05,22-.05a8.06,8.06,0,0,0,4.1-1C78.91,14.3,89.49,7.13,100.09,0h4.81c10.6,7.14,21.18,14.31,31.85,21.34a8.72,8.72,0,0,0,4.5,1c7.47.1,14.94,0,22.41.07a12.5,12.5,0,0,1,12.48,12.43c.07,3.34-.24,6.7.13,10a6.71,6.71,0,0,0,2.38,4.36c7.64,5.35,15.42,10.5,23.25,15.56a6,6,0,0,1,3.15,5.73Q204.9,135.74,205,201c0,1.27-.11,2.55-.18,4ZM163.35,35.48H41.52c0,18.91,0,37.57,0,56.23a4.14,4.14,0,0,0,1.18,2.75C52.86,103.73,63,112.92,74.18,123c.92-1.44,1.67-2.72,2.53-3.92,2.28-3.24,5.4-4,9.31-3.89,9.2.29,18.43.42,27.61,0,7-.34,13.19.2,17.49,6.53.1.14.48.11.91.19,9.9-9,19.9-18,29.82-27.1a4.71,4.71,0,0,0,1.44-3C163.37,73.13,163.35,54.47,163.35,35.48ZM182,192c-.09-.44-.06-.75-.19-.89q-30.8-30.85-61.67-61.63a6.1,6.1,0,0,0-3.89-1.29c-8.93-.11-17.87-.2-26.8.05a9.4,9.4,0,0,0-5.78,2.44q-29.43,29.11-58.61,58.47c-.8.79-1.52,1.65-2.62,2.85ZM13.17,85.36v96l50.38-50.37ZM192,85.23l-50.14,45.36L192,180.72ZM176.45,63.55V81.7L188,71.23Zm-61.9-41.29c-4.16-2.76-7.41-5-10.74-7.06a2.8,2.8,0,0,0-2.42-.14c-3.43,2.12-6.75,4.41-11,7.2ZM28.07,63.85,17,71.25c3.83,3.44,7.19,6.48,11.1,10Z"/><path class="cls-1" d="M54.65,97.64V91.46h95.56v6.18Z"/><path class="cls-1" d="M54.65,108.66v-6.17h95.56v6.17Z"/><path class="cls-1" d="M99.5,84.45V79.19a23.2,23.2,0,0,1-9.41-2.38l1.66-6.48a19.44,19.44,0,0,0,9.18,2.44c3.21,0,5.37-1.27,5.37-3.43s-1.77-3.44-5.92-4.82c-5.92-2-10-4.76-10-10.13,0-4.92,3.43-8.74,9.35-9.85V39.28h5.43v4.87A20,20,0,0,1,113.28,46l-1.66,6.25a17.34,17.34,0,0,0-8-1.93c-3.6,0-4.76,1.6-4.76,3.15,0,1.77,1.93,3,6.69,4.71,6.59,2.32,9.19,5.36,9.19,10.4s-3.43,9.13-9.8,10.19v5.7Z"/></g></g></svg>