<svg xmlns="http://www.w3.org/2000/svg" viewBox="0 0 167.74 167.74"><defs><style>.cls-1{fill:#32b5a8;}</style></defs><title>soporte</title><g id="Capa_2" data-name="Capa 2"><g id="Capa_1-2" data-name="Capa 1"><path class="cls-1" d="M83.87,7A76.88,76.88,0,1,1,7,83.87,77,77,0,0,1,83.87,7m0-7a83.87,83.87,0,1,0,83.87,83.87A83.87,83.87,0,0,0,83.87,0Z"/><path class="cls-1" d="M72.47,109.18l-.36-4.54c-1-9.23,2.1-19.69,10.81-30.16,7.85-9.22,12.2-16,12.2-23.86,0-8.9-5.58-14.82-16.56-15-6.27,0-13.24,2.08-17.6,5.39l-4.18-11c5.93-4.19,15.69-7,24.92-7,20,0,29.11,12.36,29.11,25.61,0,11.86-6.62,20.4-15,30.33-7.66,9.07-10.46,16.9-9.93,25.8l.34,4.36ZM68.8,133.75c0-6.45,4.36-11,10.28-11,6.28,0,10.29,4.53,10.29,11,0,6.11-4,10.8-10.46,10.8C73,144.55,68.8,139.86,68.8,133.75Z"/></g></g></svg>