<svg xmlns="http://www.w3.org/2000/svg" viewBox="0 0 174.49 174.49"><defs><style>.cls-1{fill:#32b5a8;}</style></defs><title>upgrade</title><g id="Capa_2" data-name="Capa 2"><g id="Capa_1-2" data-name="Capa 1"><path class="cls-1" d="M87.24,7.27a80,80,0,1,1-80,80,80.07,80.07,0,0,1,80-80m0-7.27a87.25,87.25,0,1,0,87.25,87.24A87.24,87.24,0,0,0,87.24,0Z"/><path class="cls-1" d="M62.56,115.45a39.9,39.9,0,0,0,25.72,9.85c10.76,0,19.57-5.89,19.57-15.61,0-21.86-49.48-17.39-49.48-44.76,0-11.77,10.2-22,25.72-23.79V29h7.82v11.9c15.1.77,23.35,8.57,23.35,8.57l-4.76,7.42A35.52,35.52,0,0,0,89,49.2c-12.72,0-20.69,7.54-20.69,15.47,0,20.59,49.34,15.74,49.34,44.77,0,12.41-9.64,22.64-25.72,24.05v11.9H84.09v-11.9c-17.75-1.28-27.4-11.26-27.4-11.26Z"/></g></g></svg>