<svg xmlns="http://www.w3.org/2000/svg" viewBox="0 0 174.49 174.49"><defs><style>.cls-1{fill:#32b5a8;}</style></defs><title>usuario</title><g id="Capa_2" data-name="Capa 2"><g id="Capa_1-2" data-name="Capa 1"><path class="cls-1" d="M87.29,174.49C38.17,174.4-.08,135.46,0,85.66.08,38.93,40.07-.08,87.79,0c48.24.08,86.75,39.46,86.7,88.65C174.43,135.89,135.13,174.57,87.29,174.49ZM65,106.32C42.72,87,47.61,60.75,59.19,48.61c14.06-14.75,36.69-16.74,52.21-4.14A37.09,37.09,0,0,1,125.5,69.7c1.66,14.58-4,26.44-15.39,36.18,16.36,8.2,25.83,21.15,29.54,38.52,17.56-13.54,32.48-45.58,22.76-78.45C151.91,30.46,119.7,7.77,82,9.59,47.66,11.24,17.61,38.18,10.75,73.44c-4.94,25.44,8.13,63.22,24.81,70.75C39.38,127.18,48.76,114.32,65,106.32Zm22.16,59.14a85.35,85.35,0,0,0,37-9.2c4-2,4.82-4.57,4.19-8.56-3.16-20-18.61-34.65-40.62-34.78a40.55,40.55,0,0,0-40.94,36.43c-.33,2.91.37,4.84,3.15,6.35A82.71,82.71,0,0,0,87.11,165.46Zm.12-117.35c-15.32.71-27.16,13-26.43,27.44a27.07,27.07,0,0,0,28.57,25.72c13.7-.62,25.51-13.54,24.94-27.28C113.71,59.3,101.32,47.46,87.23,48.11Z"/></g></g></svg>