<svg xmlns="http://www.w3.org/2000/svg" viewBox="0 0 332.04 332.04"><defs><style>.cls-1{fill:#2eade4;}.cls-2{fill:#abdef4;}</style></defs><title>Desktop</title><g id="Capa_2" data-name="Capa 2"><g id="Capa_1-2" data-name="Capa 1"><circle class="cls-1" cx="166.02" cy="166.02" r="166.02"/><g id="fIXzFX.tif"><path class="cls-2" d="M65.64,255.21v-9.66c.09-.29.2-.58.27-.88q5.7-24.36,11.41-48.71a21.55,21.55,0,0,1,1.54-5.33.77.77,0,0,0-.11-.57,8.68,8.68,0,0,1-1.07-4.32V78.06a8.06,8.06,0,0,1,8.38-8.38H245.92A8.05,8.05,0,0,1,254.31,78V185.78a8.86,8.86,0,0,1-1.05,4.28,1.1,1.1,0,0,0,0,.78c.2.68.53,1.32.69,2q5.79,24.63,11.54,49.26a23.5,23.5,0,0,1,.84,4.1c.13,2.75.09,5.52,0,8.27a7.56,7.56,0,0,1-3.72,6.58,18.65,18.65,0,0,1-3.41,1.31H72.79a2,2,0,0,0-.35-.11,7.51,7.51,0,0,1-5.5-3.64A20.42,20.42,0,0,1,65.64,255.21ZM85.73,186H246.24V77.76H85.73Zm13.21,8.08H87.05c-1,0-1.09.06-1.31,1q-5.44,23.3-10.9,46.58c0,.18,0,.35-.07.57h68c.32.05.47-.1.58-.41.71-1.87,1.53-3.71,2.13-5.62a8.74,8.74,0,0,1,8.27-6q12.26-.09,24.52,0a8.72,8.72,0,0,1,8.08,5.47c.73,2,1.5,3.89,2.2,5.86a.91.91,0,0,0,1,.71h67.7c-.05-.27-.09-.48-.14-.68q-2.16-9.24-4.31-18.47-3.28-14-6.56-28c-.22-.91-.3-1-1.23-1H233.1a4.34,4.34,0,0,0,0,.44c.47,2.53,1,5.05,1.42,7.57q1.81,9.68,3.62,19.34a3.83,3.83,0,0,1-2.82,4.52,16.35,16.35,0,0,1-3.71.23H100.17c-.62,0-1.25-.11-1.86,0a4.06,4.06,0,0,1-4.43-5.08q2-10.83,4.06-21.67C98.27,197.69,98.6,196,98.94,194.12ZM73.69,254.28H258.28v-3.92H73.69Zm82.83-36.12h18.95l-.3-7.95H156.82Zm-27,0h18.93l.3-8H130.44Zm72-8H183.21c.1,2.67.2,5.31.3,7.94h18.93C202.14,215.47,201.84,212.84,201.55,210.21Zm8.07,0,.9,8h18.87c-.53-2.81-1-5.57-1.54-8.22a19,19,0,0,1-2.13.22c-5.11,0-10.23,0-15.35,0Zm-107,8h18.88l.89-8h-.77c-5.12,0-10.24,0-15.36,0a20.38,20.38,0,0,1-2.09-.22C103.64,212.59,103.13,215.33,102.59,218.17Zm72.28-16c-.1-2.7-.2-5.33-.3-8H157.41c-.09,2.67-.19,5.31-.29,8Zm7.74-8c.1,2.67.2,5.31.3,7.95h17.73c-.3-2.68-.6-5.31-.9-7.95Zm-33.23,0H132.25l-.9,8h17.73C149.18,199.45,149.28,196.83,149.38,194.15Zm59.34,8h17.66c-.5-2.68-1-5.31-1.49-8H207.82C208.13,196.83,208.42,199.47,208.72,202.12Zm-84.55-8H107.1l-1.49,8h17.66Zm56,48.11c-.47-1.23-.9-2.42-1.38-3.59a.92.92,0,0,0-.61-.36,3.07,3.07,0,0,0-.81,0H154.59a3.07,3.07,0,0,0-.81,0c-.23.05-.54.18-.61.36-.48,1.17-.91,2.36-1.38,3.59Z"/><path class="cls-2" d="M166,178.06H98.12A4,4,0,0,1,94,175.33a4.78,4.78,0,0,1-.25-1.6q0-41.86,0-83.73A4.07,4.07,0,0,1,98,85.73H233.78a4,4,0,0,1,3.75,1.83,9.45,9.45,0,0,1,.71,2.22,1.2,1.2,0,0,1,0,.38V173.7a4,4,0,0,1-2.75,4.11,6,6,0,0,1-1.85.24ZM101.81,93.79V170H230.19V93.79Z"/></g></g></g></svg>