<svg xmlns="http://www.w3.org/2000/svg" viewBox="0 0 332.04 332.04"><defs><style>.cls-1{fill:#32b5a8;}.cls-2{fill:#ade1dc;}</style></defs><title>Smartphone</title><g id="Capa_2" data-name="Capa 2"><g id="Capa_1-2" data-name="Capa 1"><circle class="cls-1" cx="166.02" cy="166.02" r="166.02"/><path class="cls-2" d="M208.2,49.79c-10.56-.06-21.13,0-31.69,0H164.77q-20.13,0-40.26,0A23,23,0,0,0,102,66.11,46.22,46.22,0,0,0,101,72.58a10.58,10.58,0,0,0,0,1.49q0,91.77,0,183.55c0,2,.16,3.95.25,6l3.79,9.12-3.79-9.12,3.74,9.3v0a2.24,2.24,0,0,1,1.38.86,22.63,22.63,0,0,0,17.25,8.38c6,.14,11.9,0,17.85,0h66.2a23.23,23.23,0,0,0,23-18.65c.18-.84.31-1.7.46-2.55V71a56.14,56.14,0,0,0-1.29-5.49A23,23,0,0,0,208.2,49.79ZM221.82,259a14,14,0,0,1-14.11,14q-41.64,0-83.3,0a14,14,0,0,1-14.17-14.13c0-7.38,0-14.75,0-22.13v-.89H221.78c0,.27,0,.51,0,.75C221.82,244,221.84,251.48,221.82,259ZM110.27,226.38V96.31H221.75V226.38ZM221.82,86.9H110.4c0-5.36-.34-10.68.09-15.94.53-6.61,6.7-11.86,13.37-11.88q22.88,0,45.74,0c12.81,0,25.61,0,38.41,0a13.92,13.92,0,0,1,13.81,13.81C221.85,77.54,221.82,82.18,221.82,86.9Z"/><path class="cls-2" d="M166.08,245.06a9.3,9.3,0,1,0,9.24,9.32A9.29,9.29,0,0,0,166.08,245.06Z"/><path class="cls-2" d="M184.48,68.37q-6.82,0-13.65,0a4.65,4.65,0,1,0,0,9.29c2.23,0,4.46,0,6.69,0s4.58,0,6.87,0a4.65,4.65,0,1,0,0-9.29Z"/><path class="cls-2" d="M152.17,68.38c-1.61,0-3.22,0-4.82,0a4.64,4.64,0,0,0,0,9.28c.78,0,1.55,0,2.32,0s1.61,0,2.42,0a4.64,4.64,0,0,0,0-9.28Z"/></g></g></svg>