<svg xmlns="http://www.w3.org/2000/svg" viewBox="0 0 332.04 332.04"><defs><style>.cls-1{fill:#754796;}.cls-2{fill:#c8b5d5;}</style></defs><title>Tablet</title><g id="Capa_2" data-name="Capa 2"><g id="Capa_1-2" data-name="Capa 1"><circle class="cls-1" cx="166.02" cy="166.02" r="166.02"/><path class="cls-2" d="M232,262.41H100a6,6,0,0,1-6-6V78.3a6,6,0,0,1,6-6H232a6,6,0,0,1,6,6V256.45A6,6,0,0,1,232,262.41ZM100,77.77a.55.55,0,0,0-.53.53V256.45a.54.54,0,0,0,.53.53H232a.54.54,0,0,0,.54-.53V78.3a.55.55,0,0,0-.54-.53Z"/><rect class="cls-2" x="154.65" y="57.18" width="22.74" height="7.13" rx="0.98" ry="0.98"/><circle class="cls-2" cx="139.43" cy="60.74" r="3.9"/><circle class="cls-2" cx="194.3" cy="60.74" r="3.9"/><circle class="cls-2" cx="166.02" cy="271.92" r="3.9"/><path class="cls-2" d="M105.07,242.84c0-1.08,0-2.16,0-3.24a3.24,3.24,0,1,1,6.48,0q0,3.24,0,6.48a3.24,3.24,0,0,1-6.48,0C105.05,245,105.07,243.92,105.07,242.84Z"/><path class="cls-2" d="M116.61,242.84c0-1.08,0-2.16,0-3.24a3.24,3.24,0,1,1,6.48,0q0,3.24,0,6.48a3.24,3.24,0,0,1-6.48,0C116.6,245,116.61,243.92,116.61,242.84Z"/><path class="cls-2" d="M128.15,242.84c0-1.08,0-2.16,0-3.24a3.24,3.24,0,1,1,6.48,0c0,2.16,0,4.32,0,6.48a3.24,3.24,0,0,1-6.48,0C128.14,245,128.15,243.92,128.15,242.84Z"/><path class="cls-2" d="M139.69,242.84c0-1.08,0-2.16,0-3.24a3.24,3.24,0,1,1,6.48,0c0,2.16,0,4.32,0,6.48a3.24,3.24,0,0,1-6.48,0C139.68,245,139.69,243.92,139.69,242.84Z"/><path class="cls-2" d="M151.23,242.84c0-1.08,0-2.16,0-3.24a3.25,3.25,0,1,1,6.49,0c0,2.16,0,4.32,0,6.48a3.24,3.24,0,0,1-6.48,0C151.22,245,151.23,243.92,151.23,242.84Z"/><path class="cls-2" d="M162.77,242.84c0-1.08,0-2.16,0-3.24a3.25,3.25,0,1,1,6.49,0q0,3.24,0,6.48a3.25,3.25,0,0,1-6.49,0C162.76,245,162.77,243.92,162.77,242.84Z"/><path class="cls-2" d="M174.31,242.84c0-1.08,0-2.16,0-3.24a3.25,3.25,0,1,1,6.49,0q0,3.24,0,6.48a3.24,3.24,0,0,1-6.48,0C174.3,245,174.31,243.92,174.31,242.84Z"/><path class="cls-2" d="M185.85,242.84c0-1.08,0-2.16,0-3.24a3.25,3.25,0,1,1,6.49,0q0,3.24,0,6.48a3.24,3.24,0,0,1-6.48,0C185.84,245,185.85,243.92,185.85,242.84Z"/><path class="cls-2" d="M197.39,242.84c0-1.08,0-2.16,0-3.24a3.24,3.24,0,1,1,6.48,0q0,3.24,0,6.48a3.24,3.24,0,0,1-6.48,0C197.38,245,197.39,243.92,197.39,242.84Z"/><path class="cls-2" d="M208.93,242.84c0-1.08,0-2.16,0-3.24a3.24,3.24,0,1,1,6.48,0q0,3.24,0,6.48a3.24,3.24,0,0,1-6.48,0C208.92,245,208.93,243.92,208.93,242.84Z"/><path class="cls-2" d="M220.47,242.84c0-1.08,0-2.16,0-3.24a3.24,3.24,0,1,1,6.48,0q0,3.24,0,6.48a3.24,3.24,0,0,1-6.48,0C220.46,245,220.47,243.92,220.47,242.84Z"/><path class="cls-2" d="M239.5,290.59h-147a21.07,21.07,0,0,1-21-21v-207a21.07,21.07,0,0,1,21-21h147a21.07,21.07,0,0,1,21.05,21V269.54A21.07,21.07,0,0,1,239.5,290.59ZM92.53,51A11.56,11.56,0,0,0,81,62.49V269.54a11.55,11.55,0,0,0,11.54,11.54h147A11.54,11.54,0,0,0,251,269.54v-207A11.55,11.55,0,0,0,239.5,51Z"/></g></g></svg>