<svg xmlns="http://www.w3.org/2000/svg" width="32" height="32" viewBox="0 0 32 32">
  <g id="list_alt" transform="translate(-746 -1260)">
    <rect id="Path" width="32" height="32" transform="translate(746 1260)" fill="rgba(0,0,0,0)"/>
    <path id="Icon" d="M24.7,26H1.3A1.39,1.39,0,0,1,0,24.7V1.3A1.3,1.3,0,0,1,1.3,0H24.7A1.39,1.39,0,0,1,26,1.3V24.7A1.521,1.521,0,0,1,24.7,26ZM2.889,2.89V23.111H23.111V2.89ZM20.223,20.223H11.556V17.334h8.667v2.887Zm-11.556,0H5.779V17.334H8.667v2.887Zm11.556-5.778H11.556V11.556h8.667v2.887Zm-11.556,0H5.779V11.556H8.667v2.887ZM20.223,8.667H11.556V5.778h8.667V8.666Zm-11.556,0H5.779V5.778H8.667V8.666Z" transform="translate(749 1263)" fill="#fff"/>
  </g>
</svg>
