<svg xmlns="http://www.w3.org/2000/svg" width="24.524" height="24.562" viewBox="0 0 24.524 24.562">
  <g id="Grupo_2752" data-name="Grupo 2752" transform="translate(-56.5 -566.5)">
    <path id="Trazado_4425" data-name="Trazado 4425" d="M30.924,19.581c0,1.457-1.249,2.669-1.779,3.937-.549,1.325-.53,3.047-1.533,4.032-.984.984-2.726.984-4.032,1.533-1.268.53-2.48,1.779-3.937,1.779s-2.669-1.249-3.937-1.779c-1.325-.549-3.047-.53-4.032-1.533-.984-.984-.984-2.726-1.533-4.032C9.649,22.231,8.4,21.038,8.4,19.581s1.249-2.669,1.779-3.937c.549-1.325.53-3.047,1.533-4.032.984-.984,2.726-.984,4.032-1.533,1.268-.53,2.48-1.779,3.937-1.779s2.669,1.249,3.937,1.779c1.325.549,3.047.53,4.032,1.533.984.984.984,2.726,1.533,4.032C29.675,16.912,30.924,18.124,30.924,19.581Z" transform="translate(49.1 559.2)" fill="none" stroke="#288ac1" stroke-miterlimit="10" stroke-width="2"/>
    <g id="Grupo_2751" data-name="Grupo 2751" transform="translate(19.484 8.069)">
      <path id="Trazado_4426" data-name="Trazado 4426" d="M59.718,26.9l1.071,3.04L64,30.009l-2.556,1.969.933,3.109-2.66-1.866-2.66,1.866.933-3.109L55.4,30.009l3.247-.069Z" transform="translate(-9.884 536.031)" fill="#288ac1"/>
      <text id="_KOOMKIN" data-name="
KOOMKIN" transform="translate(49.516 576.524)" fill="#288ac1" font-size="2" font-family="Roboto-Medium, Roboto" font-weight="500" letter-spacing="0.014em"><tspan x="0.014" y="0"></tspan><tspan x="-4.578" y="1">KOOMKIN</tspan></text>
      <text id="GARANTÍA_" data-name="GARANTÍA " transform="translate(49.516 574.384)" fill="#288ac1" font-size="2" font-family="Roboto-Bold, Roboto" font-weight="700" letter-spacing="0.014em"><tspan x="-5.315" y="0">GARANTÍA </tspan></text>
    </g>
  </g>
</svg>
