<svg xmlns="http://www.w3.org/2000/svg" width="32" height="32" viewBox="0 0 32 32">
  <g id="phone" transform="translate(-406 -1260)">
    <rect id="Path" width="32" height="32" transform="translate(406 1260)" fill="rgba(0,0,0,0)"/>
    <path id="Icon" d="M24.556,26A24.4,24.4,0,0,1,7.192,18.809,24.4,24.4,0,0,1,0,1.444,1.447,1.447,0,0,1,1.446,0H6.5A1.447,1.447,0,0,1,7.946,1.444,16.42,16.42,0,0,0,8.768,6.6a1.44,1.44,0,0,1-.361,1.473L5.23,11.253a22,22,0,0,0,9.519,9.518l3.177-3.178a1.472,1.472,0,0,1,1.026-.419,1.188,1.188,0,0,1,.448.073,16.4,16.4,0,0,0,5.156.823A1.446,1.446,0,0,1,26,19.514v5.041A1.446,1.446,0,0,1,24.556,26Zm-5.2-5.749h0L17.623,21.97a22.374,22.374,0,0,0,5.489,1.083V20.9a18.584,18.584,0,0,1-3.756-.65ZM2.933,2.889h0a21.469,21.469,0,0,0,1.1,5.474L5.764,6.63a17.72,17.72,0,0,1-.65-3.741Z" transform="translate(409 1263)" fill="#fff"/>
  </g>
</svg>
