<svg xmlns="http://www.w3.org/2000/svg" width="32" height="32" viewBox="0 0 32 32">
  <g id="perm_identity" transform="translate(-644 -374)">
    <rect id="Path" width="32" height="32" transform="translate(644 374)" fill="rgba(0,0,0,0)"/>
    <path id="Icon" d="M24,24H0V19.5C0,18.27.78,16.493,4.5,15A22.275,22.275,0,0,1,12,13.5,22.275,22.275,0,0,1,19.5,15C23.22,16.493,24,18.27,24,19.5V24ZM12,16.5c-4.049,0-8.7,1.934-9,3.015V21H21V19.5C20.7,18.424,16.045,16.5,12,16.5ZM12,12a6,6,0,1,1,6-6A6.008,6.008,0,0,1,12,12Zm0-9a3,3,0,1,0,3,3A3,3,0,0,0,12,3Z" transform="translate(648 378)" fill="#fff"/>
  </g>
</svg>
