<svg xmlns="http://www.w3.org/2000/svg" width="38" height="24" viewBox="0 0 38 24">
  <g id="Grupo_2696" data-name="Grupo 2696" transform="translate(-304 -515)">
    <rect id="Path" width="38" height="24" transform="translate(304 515)" fill="rgba(0,0,0,0)"/>
    <g id="Grupo_2689" data-name="Grupo 2689" transform="translate(1 0)">
      <path id="Icon" d="M153,4117H138v-2.812c0-.768.488-1.879,2.812-2.81a12.171,12.171,0,0,1,9.378,0c2.324.931,2.811,2.042,2.811,2.81V4117Zm-7.5-4.781c-2.788,0-5.719,1.366-5.719,1.969v1.031h11.437v-1.031C151.219,4113.584,148.288,4112.219,145.5,4112.219Zm0-2.719a3.75,3.75,0,1,1,3.75-3.75A3.754,3.754,0,0,1,145.5,4109.5Zm0-5.72a1.969,1.969,0,1,0,1.969,1.97A1.972,1.972,0,0,0,145.5,4103.78Z" transform="translate(182 -3582)" fill="#288ac1"/>
      <path id="Op_component_4" data-name="Op component 4" d="M142.5,1487H146v2h-3.5a4.5,4.5,0,1,0,0,9h.5v-2l3,3-3,3v-2h-.5a6.5,6.5,0,0,1,0-13Z" transform="translate(172 -967)" fill="#288ac1"/>
    </g>
  </g>
</svg>
