<svg xmlns="http://www.w3.org/2000/svg" width="24" height="24" viewBox="0 0 24 24">
  <g id="event_busy" transform="translate(-0.285)">
    <rect id="Path" width="24" height="24" transform="translate(0.285)" fill="rgba(0,0,0,0)"/>
    <path id="Icon" d="M17.778,22H2.222A2.214,2.214,0,0,1,0,19.8V4.4A2.214,2.214,0,0,1,2.222,2.2H3.334V0H5.555V2.2h8.889V0h2.222V2.2h1.112A2.214,2.214,0,0,1,20,4.4V19.8A2.214,2.214,0,0,1,17.778,22ZM2.222,8.8v11H17.778V8.8Zm0-4.4V6.6H17.778V4.4ZM6.988,18.117h0L5.811,16.951l2.712-2.683L5.811,11.583l1.179-1.166L9.7,13.1l2.712-2.684,1.177,1.166-2.711,2.684,2.711,2.683-1.177,1.165L9.7,15.433,6.989,18.116Z" transform="translate(2.285)" fill="#2ab4bc"/>
  </g>
</svg>
