<svg xmlns="http://www.w3.org/2000/svg" xmlns:xlink="http://www.w3.org/1999/xlink" width="69.187" height="69.187" viewBox="0 0 69.187 69.187">
  <defs>
    <linearGradient id="linear-gradient" x1="0.5" y1="1" x2="0.5" y2="0.046" gradientUnits="objectBoundingBox">
      <stop offset="0" stop-color="#3dcdbb"/>
      <stop offset="1" stop-color="#33a2bd"/>
    </linearGradient>
    <filter id="Trazado_2457" x="0" y="0" width="69.187" height="69.187" filterUnits="userSpaceOnUse">
      <feOffset dy="3" input="SourceAlpha"/>
      <feGaussianBlur stdDeviation="3" result="blur"/>
      <feFlood flood-opacity="0.161"/>
      <feComposite operator="in" in2="blur"/>
      <feComposite in="SourceGraphic"/>
    </filter>
  </defs>
  <g id="Grupo_11578" data-name="Grupo 11578" transform="translate(9 6)">
    <g transform="matrix(1, 0, 0, 1, -9, -6)" filter="url(#Trazado_2457)">
      <path id="Trazado_2457-2" data-name="Trazado 2457" d="M25.594,0A25.594,25.594,0,1,1,0,25.594,25.594,25.594,0,0,1,25.594,0Z" transform="translate(9 6)" fill="url(#linear-gradient)"/>
    </g>
    <g id="Grupo_2558" data-name="Grupo 2558" transform="translate(7.616 7.616)">
      <g id="Group_2537_3_" transform="translate(6.628 27.436)">
        <g id="Group_2442_3_" transform="translate(0 0)">
          <g id="Group_2434_3_" transform="translate(0 0)">
            <path id="Path_2443_3_" d="M-2473.9-4425.179a4.94,4.94,0,0,0-5.053-4.824h0a4.942,4.942,0,0,0-5.053,4.824,4.9,4.9,0,0,0,5.053,4.824,4.9,4.9,0,0,0,5.053-4.824Z" transform="translate(2484.001 4430.004)" fill="#d63232" opacity="0.5"/>
            <path id="Path_2444_3_" d="M-2474.611-4423.221a2.109,2.109,0,0,0-2.01-2.182,2.109,2.109,0,0,0-2.182,2.01,2.109,2.109,0,0,0,2.01,2.182h.115A2.084,2.084,0,0,0-2474.611-4423.221Z" transform="translate(2481.789 4428.045)" fill="#d63232"/>
          </g>
        </g>
        <text id="REC" transform="translate(12.742 4.67)" fill="#fff" font-size="3" font-family="Roboto-Regular, Roboto"><tspan x="0" y="0">REC</tspan></text>
      </g>
      <g id="Group_2540_1_" transform="translate(10.939 0)">
        <ellipse id="Ellipse_192_3_" cx="6.919" cy="6.919" rx="6.919" ry="6.919" transform="translate(0)" fill="#fff"/>
        <g id="Group_2538_3_" transform="translate(2.145 4.66)">
          <path id="Path_2501_3_" d="M-2475.816-4428.649c.214-.071.392-.143.606-.213a1.936,1.936,0,0,0-1.391-1.178,2.333,2.333,0,0,1,2.1.785.172.172,0,0,0,.214.072,2.034,2.034,0,0,1,.428-.144c-.214.464-.428.893-.606,1.356-.428-.215-.892-.43-1.355-.679" transform="translate(2479.221 4430.076)" fill="#57b3b9"/>
          <path id="Path_2502_3_" d="M-2472-4422.281c.178-.427.393-.892.571-1.32l1.284.678-.535.214a2.065,2.065,0,0,0,1.319,1.176,2.354,2.354,0,0,1-1.854-.606.957.957,0,0,1-.178-.214.108.108,0,0,0-.143-.036,2.791,2.791,0,0,1-.464.107h0" transform="translate(2476.261 4425.918)" fill="#f7c54d"/>
          <path id="Path_2503_3_" d="M-2481.363-4430.027a1.978,1.978,0,0,0-.428.142,2.183,2.183,0,0,0-1.32,1.712,2.075,2.075,0,0,0,.571,1.677,3.009,3.009,0,0,0,1.248.784h-.571a2.176,2.176,0,0,1-2.069-1.926,2.162,2.162,0,0,1,1.819-2.425,1.465,1.465,0,0,1,.392-.036.9.9,0,0,0,.357.072h0" transform="translate(2483.947 4430.1)" fill="#3b4d57"/>
          <path id="Path_2504_3_" d="M-2464.265-4425.708a2.215,2.215,0,0,0,1.783-2.175,2.207,2.207,0,0,0-1.819-2.1,2.2,2.2,0,0,1,2.6,1.676,2.068,2.068,0,0,1-.392,1.749,2.1,2.1,0,0,1-2.176.855" transform="translate(2471.308 4430.059)" fill="#3b4d57"/>
        </g>
      </g>
      <g id="Group_2683_3_" transform="translate(2.605 19.212)">
        <g id="Group_2682_3_">
          <line id="Line_17_3_" x2="0.713" fill="none" stroke="#fff" stroke-miterlimit="10" stroke-width="2" stroke-dasharray="3 5"/>
          <line id="Line_18_3_" x2="28.171" transform="translate(2.104)" fill="none" stroke="#fff" stroke-miterlimit="10" stroke-width="2" stroke-dasharray="3 5"/>
          <line id="Line_19_3_" x2="0.713" transform="translate(30.952)" fill="none" stroke="#fff" stroke-miterlimit="10" stroke-width="2" stroke-dasharray="3 5"/>
        </g>
      </g>
      <path id="Path_2499_3_" d="M9,51.356A3.655,3.655,0,0,1,10.355,48.5a.937.937,0,0,1,1.284.071c.036.036.071.071.071.107a21.952,21.952,0,0,1,1.177,1.962.916.916,0,0,1-.143,1.106c-.036.071-.107.107-.178.178-.5.5-.5.5-.178,1.141a6.63,6.63,0,0,0,2.853,2.746.5.5,0,0,0,.678-.107l.321-.321a.972.972,0,0,1,1.213-.143c.642.357,1.248.713,1.855,1.106a.891.891,0,0,1,.321,1.248.356.356,0,0,1-.143.178,3.572,3.572,0,0,1-4.28,1A11.457,11.457,0,0,1,9.285,52.64,3.077,3.077,0,0,1,9,51.356Z" transform="translate(-9 -34.32)" fill="#fff"/>
      <path id="Path_2500_3_" d="M84.156,59.678A3.655,3.655,0,0,1,81.3,58.323a.937.937,0,0,1,.071-1.284c.036-.036.071-.071.107-.071a21.956,21.956,0,0,1,1.962-1.177.916.916,0,0,1,1.106.143c.071.036.107.107.178.178.5.5.5.5,1.141.178a6.63,6.63,0,0,0,2.746-2.853.5.5,0,0,0-.107-.678l-.321-.321a.972.972,0,0,1-.143-1.213c.357-.642.713-1.248,1.106-1.855A.891.891,0,0,1,90.4,49.05a.356.356,0,0,1,.178.143,3.572,3.572,0,0,1,1,4.28,11.34,11.34,0,0,1-6.1,6.028A8.971,8.971,0,0,1,84.156,59.678Z" transform="translate(-55.374 -34.724)" fill="#fff"/>
    </g>
  </g>
</svg>
