<svg id="event_available" xmlns="http://www.w3.org/2000/svg" width="24" height="24" viewBox="0 0 24 24">
  <rect id="Path" width="24" height="24" fill="rgba(0,0,0,0)"/>
  <path id="Icon" d="M15.112,19H1.889A1.9,1.9,0,0,1,0,17.1V3.8A1.9,1.9,0,0,1,1.889,1.9h.944V0H4.722V1.9h7.556V0h1.889V1.9h.944A1.9,1.9,0,0,1,17,3.8V17.1A1.9,1.9,0,0,1,15.112,19ZM1.889,7.6v9.5H15.112V7.6Zm0-3.8V5.7H15.112V3.8ZM7.14,15.638h0L4.146,12.625l1-1.007L7.14,13.623,11.74,9l1,1.007-5.6,5.633Z" transform="translate(4 2)" fill="#2ab4bc"/>
</svg>
