<svg xmlns="http://www.w3.org/2000/svg" xmlns:xlink="http://www.w3.org/1999/xlink" width="91.586" height="82.492" viewBox="0 0 91.586 82.492">
  <defs>
    <linearGradient id="linear-gradient" x1="0.5" y1="0.944" x2="0.5" gradientUnits="objectBoundingBox">
      <stop offset="0" stop-color="#34a3bd"/>
      <stop offset="1" stop-color="#3dccbb"/>
    </linearGradient>
    <filter id="Elipse_515" x="0" y="14.273" width="68.219" height="68.219" filterUnits="userSpaceOnUse">
      <feOffset dy="3" input="SourceAlpha"/>
      <feGaussianBlur stdDeviation="3" result="blur"/>
      <feFlood flood-opacity="0.161"/>
      <feComposite operator="in" in2="blur"/>
      <feComposite in="SourceGraphic"/>
    </filter>
    <clipPath id="clip-path">
      <ellipse id="Elipse_514" data-name="Elipse 514" cx="25.109" cy="25.109" rx="25.109" ry="25.109" fill="#fff"/>
    </clipPath>
    <filter id="Trazado_14773" x="37.755" y="0" width="53.831" height="46.446" filterUnits="userSpaceOnUse">
      <feOffset dy="3" input="SourceAlpha"/>
      <feGaussianBlur stdDeviation="3" result="blur-2"/>
      <feFlood flood-opacity="0.161"/>
      <feComposite operator="in" in2="blur-2"/>
      <feComposite in="SourceGraphic"/>
    </filter>
  </defs>
  <g id="Grupo_11579" data-name="Grupo 11579" transform="translate(9 6)">
    <g id="Grupo_3068" data-name="Grupo 3068" transform="translate(0 14.273)">
      <g transform="matrix(1, 0, 0, 1, -9, -20.27)" filter="url(#Elipse_515)">
        <ellipse id="Elipse_515-2" data-name="Elipse 515" cx="25.109" cy="25.109" rx="25.109" ry="25.109" transform="translate(59.22 70.49) rotate(180)" fill="url(#linear-gradient)"/>
      </g>
      <g id="Enmascarar_grupo_74" data-name="Enmascarar grupo 74" clip-path="url(#clip-path)">
        <g id="Grupo_3056" data-name="Grupo 3056" transform="translate(6.949 9.28)">
          <path id="Trazado_14719" data-name="Trazado 14719" d="M36.487,274.826c-.846,1.116.09,2.934.09,2.934l3.852-.018.108-3.042Z" transform="translate(-29.711 -225.252)" fill="#f4f4f4"/>
          <path id="Trazado_14720" data-name="Trazado 14720" d="M64.209,273.9l-4.283.144-.126,3.024,4.5-.018Z" transform="translate(-49.118 -224.596)" fill="#f4f4f4"/>
          <g id="Grupo_3050" data-name="Grupo 3050" transform="translate(20.257 47.432)">
            <path id="Trazado_14721" data-name="Trazado 14721" d="M142.656,263.5c1.062.9.54,2.88.54,2.88l-3.762.792-.234-3.06Z" transform="translate(-134.485 -263.5)" fill="#f4f4f4"/>
            <path id="Trazado_14722" data-name="Trazado 14722" d="M113,267.982l4.715-.882.252,3.024-4.391.936Z" transform="translate(-113 -266.452)" fill="#f4f4f4"/>
          </g>
          <path id="Trazado_14723" data-name="Trazado 14723" d="M111.865,284.9a2,2,0,0,1-.576-1.26v-.45c-.054-1.062.792-1.638,1.854-1.692l3.672-.45,2.952-.36a1.927,1.927,0,0,1,2.016,1.818l.036.774a2.064,2.064,0,0,1-.018.342,1.853,1.853,0,0,1,.486,1.17l.036.774a1.927,1.927,0,0,1-1.818,2.016l-2.79.072-3.888.108a1.927,1.927,0,0,1-2.016-1.818v-.45A1.244,1.244,0,0,1,111.865,284.9Z" transform="translate(-91.338 -230.161)" fill="#f4f4f4"/>
          <ellipse id="Elipse_510" data-name="Elipse 510" cx="2.736" cy="2.736" rx="2.736" ry="2.736" transform="translate(1.413 34.204)" fill="#3a4c56"/>
          <path id="Trazado_14724" data-name="Trazado 14724" d="M37.022,214.84a26.756,26.756,0,0,1-9.341-.54l-3.312,7.739a3.832,3.832,0,0,0-.2.594c-.018.09-.054.2-.072.288,1.512.036,3.744.018,6.659-.108,1.926-.09,4.14-.234,6.623-.468Z" transform="translate(-19.843 -175.723)" fill="#e0e2e3"/>
          <path id="Trazado_14725" data-name="Trazado 14725" d="M109.352,213.811h.054c-.036-.09-.072-.162-.108-.252a2.681,2.681,0,0,0-.252-.432L104.493,206a34.582,34.582,0,0,1-8.693,2.034l.36,7.505C99.957,215.2,104.367,214.639,109.352,213.811Z" transform="translate(-78.639 -168.917)" fill="#f4f4f4"/>
          <path id="Trazado_14726" data-name="Trazado 14726" d="M98.272,260.732l.684-.054a111.844,111.844,0,0,0,11.681-1.242,3.826,3.826,0,0,0,.828-1.836c-4.535.846-9.143,1.386-13.264,1.746Z" transform="translate(-80.607 -211.23)" fill="#288ac1"/>
          <path id="Trazado_14727" data-name="Trazado 14727" d="M98.272,260.732l.684-.054a111.816,111.816,0,0,0,11.7-1.242,3.826,3.826,0,0,0,.828-1.836c-4.553.846-9.161,1.386-13.282,1.746Z" transform="translate(-80.607 -211.23)" fill="#3a4c56" opacity="0.2"/>
          <path id="Trazado_14728" data-name="Trazado 14728" d="M24.4,267.748a3.682,3.682,0,0,0,1.062,1.494,110.015,110.015,0,0,0,11.717-.684l.576-.054-.072-1.4C31.437,267.658,26.344,267.73,24.4,267.748Z" transform="translate(-20.089 -219.02)" fill="#288ac1"/>
          <path id="Trazado_14729" data-name="Trazado 14729" d="M24.4,267.748a3.682,3.682,0,0,0,1.062,1.494,110.015,110.015,0,0,0,11.717-.684l.576-.054-.072-1.4C31.437,267.658,26.344,267.73,24.4,267.748Z" transform="translate(-20.089 -219.02)" fill="#3a4c56" opacity="0.2"/>
          <path id="Trazado_14730" data-name="Trazado 14730" d="M36.958,260.4l-.072-1.3c-2.484.234-4.715.378-6.623.468-2.934.144-5.183.144-6.7.108a3.134,3.134,0,0,0,.054,1.368C25.565,261.026,30.677,260.936,36.958,260.4Z" transform="translate(-19.365 -212.46)" fill="#288ac1"/>
          <path id="Trazado_14731" data-name="Trazado 14731" d="M111.074,249.4c-4.985.846-9.395,1.386-13.174,1.746l.072,1.3c4.122-.36,8.729-.9,13.282-1.746,0,.054-.018.108-.018.162a.136.136,0,0,0,.072-.018v-.09A3.5,3.5,0,0,0,111.074,249.4Z" transform="translate(-80.361 -204.506)" fill="#288ac1"/>
          <path id="Trazado_14732" data-name="Trazado 14732" d="M97.9,251.146h0c3.78-.342,8.189-.9,13.174-1.746h0C106.089,250.228,101.68,250.786,97.9,251.146Z" transform="translate(-80.361 -204.506)" fill="#288ac1"/>
          <path id="Trazado_14733" data-name="Trazado 14733" d="M67.723,259.1h0c-2.484.234-4.7.378-6.623.468C63.008,259.478,65.222,259.334,67.723,259.1Z" transform="translate(-50.184 -212.46)" fill="#288ac1"/>
          <path id="Trazado_14734" data-name="Trazado 14734" d="M37.536,266.462V266.3c-6.281.54-11.393.63-13.336.63v.018c.018.054.036.09.054.144C26.18,267.074,31.273,267,37.536,266.462Z" transform="translate(-19.925 -218.364)" fill="#288ac1"/>
          <path id="Trazado_14735" data-name="Trazado 14735" d="M98.2,258.346v.162c4.1-.342,8.711-.9,13.264-1.746,0-.054.018-.108.018-.162C106.947,257.446,102.322,258,98.2,258.346Z" transform="translate(-80.607 -210.41)" fill="#288ac1"/>
          <path id="Trazado_14736" data-name="Trazado 14736" d="M57.7,197.08s8.711-.126,11.753-1.08v3.852s-4.931,4.9-11.609-.378Z" transform="translate(-47.396 -160.717)" fill="#3a4c56"/>
          <path id="Trazado_14737" data-name="Trazado 14737" d="M75.2,118.362s5.345-.216,6.929-1.062v2s-2.754,7.4-6.857,1.17Z" transform="translate(-61.746 -96.181)" fill="#3a4c56"/>
          <path id="Trazado_14738" data-name="Trazado 14738" d="M12.639,144.609A24.843,24.843,0,0,1,5.8,143.457S7.24,135.2,17.319,132.1A19.461,19.461,0,0,0,12.639,144.609Z" transform="translate(-4.837 -108.317)" fill="#f4f4f4"/>
          <path id="Trazado_14739" data-name="Trazado 14739" d="M11.919,197.67a27.747,27.747,0,0,0-6.119-.954v-1.638a18.342,18.342,0,0,1,6.839,1.152Z" transform="translate(-4.837 -159.957)" fill="#288ac1"/>
          <path id="Trazado_14740" data-name="Trazado 14740" d="M50,4.194S55.255-3.257,68.628,1.6c0,0-.432,4.247-8.873,4.733C59.755,6.336,53.51,7.686,50,4.194Z" transform="translate(-41.082 0.043)" fill="#3a4c56"/>
          <path id="Trazado_14741" data-name="Trazado 14741" d="M63.2,8.94s3.69-3.546,10.313-2.43" transform="translate(-51.906 -5.153)" fill="none"/>
          <path id="Trazado_14742" data-name="Trazado 14742" d="M22.9,14.252s.666,11.663,9.989,11.285c0,0,9.629.972,14.344-5.813,0,0,4.841-8.153.954-14.218,0,0-1.278-2.754-1.764-.486,0,0-.072,4.14-8.873,4.733,0,0-6.425,1.4-9.755-2.124,0,0,.126-2.232-1.782-.486C26,7.125,22.954,8.727,22.9,14.252Z" transform="translate(-18.859 -3.374)" fill="#f4f4f4"/>
          <path id="Trazado_14743" data-name="Trazado 14743" d="M36.326,30.411s-1.35-2.916-2.3.792c0,0-1.728,13.462,10.6,12.58,0,0,10.169.63,12.131-12.293,0,0,.72-6.029-2.394-2.142,0,0-2.736,2.844-9.035,3.816C45.325,33.147,39.926,34.191,36.326,30.411Z" transform="translate(-27.912 -22.988)" fill="#3a4c56"/>
          <ellipse id="Elipse_511" data-name="Elipse 511" cx="1.908" cy="1.908" rx="1.908" ry="1.908" transform="translate(10.718 12.3)" fill="#288ac1"/>
          <ellipse id="Elipse_512" data-name="Elipse 512" cx="1.908" cy="1.908" rx="1.908" ry="1.908" transform="translate(19.339 10.986)" fill="#288ac1"/>
          <path id="Trazado_14744" data-name="Trazado 14744" d="M79.2,90.9s4.068,1.872,6.965-1.3C86.165,89.6,84.149,95,79.2,90.9Z" transform="translate(-65.026 -73.466)" fill="#288ac1"/>
          <path id="Trazado_14745" data-name="Trazado 14745" d="M11.355,60.4S7.09,62.776,9.628,68.139c0,0,1.6,3.312,5.021.828C14.649,68.967,12.129,66.843,11.355,60.4Z" transform="translate(-7.314 -49.522)" fill="#288ac1"/>
          <path id="Trazado_14746" data-name="Trazado 14746" d="M1.987,78.1S-.461,79.684.817,83.175c0,0,1.242,2.448,3.384,1.116C4.219,84.273,1.555,82.6,1.987,78.1Z" transform="translate(-0.448 -64.036)" fill="#f4f4f4"/>
          <path id="Trazado_14747" data-name="Trazado 14747" d="M161.552,31.064s4.1-1.044,3.312,3.762c0,0-.936,8.891-5.363,6.479A16.348,16.348,0,0,0,161.552,31.064Z" transform="translate(-130.874 -25.387)" fill="#288ac1"/>
          <path id="Trazado_14748" data-name="Trazado 14748" d="M2.21,77.1S-.4,81.581,3.524,83.8c0,0-2.772.99-3.024-3.582A4.327,4.327,0,0,1,2.21,77.1Z" transform="translate(-0.491 -63.216)" fill="#3a4c56" opacity="0.1"/>
          <path id="Trazado_14749" data-name="Trazado 14749" d="M12.212,60.4s-5.057,5.183,1.494,9.431c0,0-4.193.918-3.816-6.425A4.867,4.867,0,0,1,12.212,60.4Z" transform="translate(-8.171 -49.522)" fill="#3a4c56" opacity="0.1"/>
          <path id="Trazado_14750" data-name="Trazado 14750" d="M170.9,31.151s5.723.324.072,10.547c0,0,2.124-.306,3.114-7.109C174.086,34.589,175.112,30.467,170.9,31.151Z" transform="translate(-140.222 -25.474)" fill="#3a4c56" opacity="0.1"/>
          <path id="Trazado_14751" data-name="Trazado 14751" d="M23.645,20.747s3.528-5.759,4.032-2.268c0,0-2.988,13.282,10.745,17.458,0,0-8.441,2.286-12.329-2.268C26.092,33.67,20.729,27.695,23.645,20.747Z" transform="translate(-18.758 -14.224)" fill="#3a4c56" opacity="0.05"/>
          <g id="Grupo_3051" data-name="Grupo 3051" transform="translate(7.053 23.005)">
            <path id="Trazado_14752" data-name="Trazado 14752" d="M45.7,128.6a19.456,19.456,0,0,0-4.949,7.649c-2.682,7.649.342,9.917.342,9.917,1.8,1.3,4.481-.99,4.481-.99,2.34-2.79,3.186-2.538,3.186-2.538l.72-.036-.342-12.832A4.878,4.878,0,0,1,45.7,128.6Z" transform="translate(-39.637 -128.452)" fill="#f4f4f4"/>
            <path id="Trazado_14753" data-name="Trazado 14753" d="M45.7,128.6a19.456,19.456,0,0,0-4.949,7.649c-2.682,7.649.342,9.917.342,9.917,1.8,1.3,4.481-.99,4.481-.99,2.34-2.79,3.186-2.538,3.186-2.538l.72-.036-.342-12.832A4.878,4.878,0,0,1,45.7,128.6Z" transform="translate(-39.637 -128.452)" fill="#3a4c56" opacity="0.1"/>
            <path id="Trazado_14754" data-name="Trazado 14754" d="M101.6,135.467s-4.032-8.333-4.949-7.649a5.922,5.922,0,0,1-3.834,1.314,3.049,3.049,0,0,1-.414-.018l.342,12.832.684-.036s1.4-.2,3.366,2.484c0,0,2.682,2.286,4.481.99C101.255,145.384,104.279,143.1,101.6,135.467Z" transform="translate(-82.904 -127.778)" fill="#f4f4f4"/>
          </g>
          <g id="Grupo_3052" data-name="Grupo 3052" transform="translate(12.191 28.107)">
            <path id="Trazado_14755" data-name="Trazado 14755" d="M81.82,157.818c.18-.072.36-.126.54-.2a1.816,1.816,0,0,0-1.26-1.026,2.047,2.047,0,0,1,1.908.666.129.129,0,0,0,.18.054c.126-.054.252-.09.4-.144-.18.414-.342.828-.522,1.224-.414-.2-.81-.378-1.242-.576" transform="translate(-78.775 -156.491)" fill="#288ac1" fill-rule="evenodd"/>
            <path id="Trazado_14756" data-name="Trazado 14756" d="M89.6,169.006c.162-.4.324-.792.486-1.206.4.2.774.4,1.17.594-.162.072-.324.126-.468.18a1.784,1.784,0,0,0,1.206,1.008,2.073,2.073,0,0,1-1.692-.5,1.7,1.7,0,0,1-.18-.18c-.036-.054-.072-.054-.126-.036a3.249,3.249,0,0,1-.378.144H89.6" transform="translate(-85.745 -165.699)" fill="#288ac1" fill-rule="evenodd"/>
            <path id="Trazado_14757" data-name="Trazado 14757" d="M70.453,156.736c-.126.054-.252.09-.378.144a1.88,1.88,0,0,0-1.134,1.566,1.785,1.785,0,0,0,.558,1.494,2.444,2.444,0,0,0,1.116.666h-.522a1.932,1.932,0,0,1-1.89-1.656,1.952,1.952,0,0,1,1.566-2.214,2.206,2.206,0,0,1,.342-.036,2.461,2.461,0,0,1,.342.036h0" transform="translate(-68.182 -156.597)" fill="#288ac1"/>
            <path id="Trazado_14758" data-name="Trazado 14758" d="M102.844,159.992a1.986,1.986,0,0,0,1.548-1.98,1.964,1.964,0,0,0-1.692-1.836,1.953,1.953,0,0,1,2.106.828,1.946,1.946,0,0,1-1.962,2.988" transform="translate(-96.488 -156.127)" fill="#288ac1"/>
          </g>
          <g id="Grupo_3053" data-name="Grupo 3053" transform="translate(22.463 19.373)">
            <ellipse id="Elipse_513" data-name="Elipse 513" cx="3.33" cy="3.33" rx="3.33" ry="3.33" transform="translate(6.613 0.594)" fill="#3a4c56"/>
            <path id="Trazado_14759" data-name="Trazado 14759" d="M136.349,117.485a12.413,12.413,0,0,1-4.193-8.585s-8.027,3.762-6.767,9.269C125.389,118.169,129.474,121.75,136.349,117.485Z" transform="translate(-125.255 -108.666)" fill="#f4f4f4"/>
            <path id="Trazado_14760" data-name="Trazado 14760" d="M165.346,107.6s-.81,3.042,3.654,7.541l-1.206,1.3a12.428,12.428,0,0,1-4.194-8.585C163.6,107.834,164.356,107.726,165.346,107.6Z" transform="translate(-156.699 -107.6)" fill="#288ac1"/>
          </g>
          <path id="Trazado_14761" data-name="Trazado 14761" d="M139.5,283.37l-.2-2.3,3.24-.378a2.027,2.027,0,0,1,2.2,1.818l.018.774a2.178,2.178,0,0,1-.018.342,1.743,1.743,0,0,1,.5,1.17l.018.774a2.038,2.038,0,0,1-2.016,2.034l-3.42.126-.378-4.337Z" transform="translate(-114.31 -230.161)" fill="#3a4c56" opacity="0.1"/>
          <path id="Trazado_14762" data-name="Trazado 14762" d="M32.571,288.052,29.26,287.8a2.162,2.162,0,0,0-2.16,2.142l.018.864a2.162,2.162,0,0,0,2.142,2.16l3.114-.072.45-.018.234-4.805Z" transform="translate(-22.303 -235.994)" fill="#f4f4f4"/>
          <path id="Trazado_14763" data-name="Trazado 14763" d="M65.029,291.47c0-1.188-.972-1.8-2.16-1.8l-3.636-.27L59,294.205l3.906-.09a2.162,2.162,0,0,0,2.16-2.142Z" transform="translate(-48.462 -237.307)" fill="#f4f4f4"/>
          <path id="Trazado_14764" data-name="Trazado 14764" d="M18.12,317.2a1.955,1.955,0,0,0-.126.612c-.072,1.818,3.06,3.42,6.965,3.564,3.924.144,7.145-1.224,7.217-3.042a2.532,2.532,0,0,0-.054-.5c-1.1,1.026-3.186,2.268-6.821,2.124A11,11,0,0,1,18.12,317.2Z" transform="translate(-14.835 -260.103)" fill="#f4f4f4"/>
          <path id="Trazado_14765" data-name="Trazado 14765" d="M25.845,294.378c-3.51-.126-6.515,2.286-7.145,4.1a10.817,10.817,0,0,0,7.181,2.754c3.654.126,5.741-1.1,6.821-2.124C32.288,297.24,29.427,294.5,25.845,294.378Z" transform="translate(-15.415 -241.385)" fill="#f4f4f4"/>
          <path id="Trazado_14766" data-name="Trazado 14766" d="M106.023,316.3a1.843,1.843,0,0,0-.054.612c.162,1.818,3.456,3.024,7.361,2.682s6.947-2.088,6.785-3.906a2.358,2.358,0,0,0-.108-.486c-.954,1.152-2.88,2.628-6.515,2.952A11,11,0,0,1,106.023,316.3Z" transform="translate(-86.972 -258.463)" fill="#f4f4f4"/>
          <path id="Trazado_14767" data-name="Trazado 14767" d="M112.905,293.677c-3.492.306-6.191,3.06-6.605,4.949a10.868,10.868,0,0,0,7.469,1.854c3.636-.306,5.561-1.8,6.515-2.952C119.636,295.729,116.469,293.371,112.905,293.677Z" transform="translate(-87.249 -240.792)" fill="#f4f4f4"/>
        </g>
      </g>
    </g>
    <g transform="matrix(1, 0, 0, 1, -9, -6)" filter="url(#Trazado_14773)">
      <path id="Trazado_14773-2" data-name="Trazado 14773" d="M29.915,0h-24A5.909,5.909,0,0,0,0,5.916v22.53L5.832,23.16H29.915a5.909,5.909,0,0,0,5.916-5.916V5.916A5.882,5.882,0,0,0,29.915,0Z" transform="translate(46.76 6)" fill="#f2680a"/>
    </g>
    <path id="Trazado_19895" data-name="Trazado 19895" d="M2.049-18.788h1l.137,4.18H1.912Zm1.168-1.278a.593.593,0,0,1-.191.454.677.677,0,0,1-.481.178.677.677,0,0,1-.481-.178.593.593,0,0,1-.191-.454.6.6,0,0,1,.184-.454.672.672,0,0,1,.487-.178.672.672,0,0,1,.487.178A.6.6,0,0,1,3.217-20.066Zm5.97,3.93H7.944v-2.585H5.521v2.585H4.278v-6.032H5.521v2.444H7.944v-2.444H9.187Zm.82-2.283a2.659,2.659,0,0,1,.257-1.189,1.88,1.88,0,0,1,.74-.808,2.158,2.158,0,0,1,1.121-.286,2.041,2.041,0,0,1,1.481.555,2.228,2.228,0,0,1,.64,1.508l.008.307a2.343,2.343,0,0,1-.576,1.655,2,2,0,0,1-1.545.624,2.012,2.012,0,0,1-1.547-.621,2.384,2.384,0,0,1-.578-1.69Zm1.2.085a1.676,1.676,0,0,0,.24.977.793.793,0,0,0,.688.338.8.8,0,0,0,.679-.334,1.834,1.834,0,0,0,.244-1.068,1.659,1.659,0,0,0-.244-.971.8.8,0,0,0-.688-.344.782.782,0,0,0-.679.342A1.864,1.864,0,0,0,11.205-18.334Zm5.05,2.2h-1.2V-22.5h1.2Zm3.584,0a1.33,1.33,0,0,1-.12-.4,1.449,1.449,0,0,1-1.131.485,1.592,1.592,0,0,1-1.092-.381,1.226,1.226,0,0,1-.433-.961,1.267,1.267,0,0,1,.528-1.094,2.606,2.606,0,0,1,1.527-.385h.551v-.257a.739.739,0,0,0-.16-.5.627.627,0,0,0-.5-.186.713.713,0,0,0-.474.145.493.493,0,0,0-.172.4h-1.2a1.2,1.2,0,0,1,.24-.721,1.588,1.588,0,0,1,.679-.52,2.476,2.476,0,0,1,.986-.189,1.956,1.956,0,0,1,1.315.416,1.457,1.457,0,0,1,.487,1.17v1.943a2.143,2.143,0,0,0,.178.965v.07Zm-.99-.833a1.031,1.031,0,0,0,.489-.118.776.776,0,0,0,.331-.317v-.771h-.447q-.9,0-.957.621l0,.07a.479.479,0,0,0,.157.369A.612.612,0,0,0,18.849-16.969Zm4.16-1.019h-.994l-.141-4.18h1.276Zm-.5.655a.671.671,0,0,1,.487.178.606.606,0,0,1,.184.456.6.6,0,0,1-.184.452.671.671,0,0,1-.487.178.665.665,0,0,1-.483-.178.6.6,0,0,1-.184-.452.608.608,0,0,1,.184-.454A.661.661,0,0,1,22.511-17.334Z" transform="translate(42.32 30.572)" fill="#fff" stroke="rgba(0,0,0,0)" stroke-width="1"/>
  </g>
</svg>
