<svg xmlns="http://www.w3.org/2000/svg" width="19.501" height="22.002" viewBox="0 0 19.501 22.002">
  <g id="hourglass" transform="translate(-2.671)">
    <g id="Layer_1_64_" transform="translate(2.671)">
      <g id="Grupo_11568" data-name="Grupo 11568">
        <path id="Trazado_26295" data-name="Trazado 26295" d="M19.612,16.209a.5.5,0,0,0,1,0,2.491,2.491,0,0,1,.586-1.6A10.273,10.273,0,0,0,23.064,11.4a.5.5,0,0,0-.471-.666H17.631a.5.5,0,0,0-.472.666,10.291,10.291,0,0,0,1.867,3.207A2.49,2.49,0,0,1,19.612,16.209Z" transform="translate(-10.362 -5.709)" fill="#00b9be"/>
        <path id="Trazado_26296" data-name="Trazado 26296" d="M17.75,26.142a.5.5,0,0,0-1,0,2.6,2.6,0,0,1-1.214,2.015,13.134,13.134,0,0,0-3.722,3.988.5.5,0,0,0,.436.745h10a.5.5,0,0,0,.435-.745,13.132,13.132,0,0,0-3.721-3.988A2.6,2.6,0,0,1,17.75,26.142Z" transform="translate(-7.5 -13.639)" fill="#00b9be"/>
        <path id="Trazado_26297" data-name="Trazado 26297" d="M21.171,20h-.3c-.344-3.891-2.622-6.879-4.394-9,1.772-2.121,4.05-5.109,4.395-9h.3a1,1,0,0,0,0-2H3.671a1,1,0,0,0,0,2h.3c.344,3.892,2.622,6.88,4.394,9-1.771,2.121-4.05,5.109-4.394,9h-.3a1,1,0,0,0,0,2h17.5a1,1,0,1,0,0-2Zm-15.2,0c.376-3.516,2.662-6.223,4.37-8.247l.091-.108a1,1,0,0,0,0-1.29l-.091-.108C8.637,8.226,6.35,5.519,5.974,2H18.868c-.376,3.516-2.663,6.224-4.37,8.248l-.09.108a1,1,0,0,0,0,1.29l.091.108c1.708,2.023,3.993,4.731,4.369,8.247H5.974Z" transform="translate(-2.671)" fill="#00b9be"/>
      </g>
    </g>
  </g>
</svg>
