<svg xmlns="http://www.w3.org/2000/svg" xmlns:xlink="http://www.w3.org/1999/xlink" width="60.658" height="60.658" viewBox="0 0 60.658 60.658">
  <defs>
    <linearGradient id="linear-gradient" x1="0.5" x2="0.5" y2="1" gradientUnits="objectBoundingBox">
      <stop offset="0" stop-color="#33a2bd"/>
      <stop offset="1" stop-color="#3dcdbb"/>
    </linearGradient>
    <filter id="Elipse_613" x="0" y="0" width="60.658" height="60.658" filterUnits="userSpaceOnUse">
      <feOffset dy="3" input="SourceAlpha"/>
      <feGaussianBlur stdDeviation="3" result="blur"/>
      <feFlood flood-opacity="0.161"/>
      <feComposite operator="in" in2="blur"/>
      <feComposite in="SourceGraphic"/>
    </filter>
  </defs>
  <g id="Grupo_11575" data-name="Grupo 11575" transform="translate(9 6)">
    <g transform="matrix(1, 0, 0, 1, -9, -6)" filter="url(#Elipse_613)">
      <circle id="Elipse_613-2" data-name="Elipse 613" cx="21.329" cy="21.329" r="21.329" transform="translate(9 6)" fill="url(#linear-gradient)"/>
    </g>
    <g id="Grupo_8703" data-name="Grupo 8703" transform="translate(11.503 10.922)">
      <path id="Trazado_469" data-name="Trazado 469" d="M8.349,15.391l-.7,2.693H5.071a9.415,9.415,0,0,1-1.171-4.8A10.66,10.66,0,0,1,5.071,8.6h0l2.342.468L8.467,11.41A5.47,5.47,0,0,0,8.115,13.4,4.044,4.044,0,0,0,8.349,15.391Z" transform="translate(-3.9 -3.097)" fill="#fff"/>
      <path id="Trazado_470" data-name="Trazado 470" d="M22.653,11a10.248,10.248,0,0,1,.234,1.873,12.9,12.9,0,0,1-.234,2.108,10.032,10.032,0,0,1-3.63,5.855h0L16.1,20.719l-.468-2.576A5.792,5.792,0,0,0,18.2,14.981H12.7V11h9.953Z" transform="translate(-2.396 -2.687)" fill="#fff"/>
      <path id="Trazado_471" data-name="Trazado 471" d="M20.256,20.255h0a10.223,10.223,0,0,1-6.44,2.225A10.4,10.4,0,0,1,4.8,17.093L8.079,14.4a5.992,5.992,0,0,0,5.737,3.981,6.181,6.181,0,0,0,3.044-.82Z" transform="translate(-3.746 -2.105)" fill="#fff"/>
      <path id="Trazado_472" data-name="Trazado 472" d="M20.49,6.242,17.212,8.935A5.889,5.889,0,0,0,14.05,8a6.094,6.094,0,0,0-5.737,4.1L4.8,9.4h0A10.337,10.337,0,0,1,20.49,6.242Z" transform="translate(-3.746 -3.9)" fill="#fff"/>
    </g>
  </g>
</svg>
