<svg xmlns="http://www.w3.org/2000/svg" xmlns:xlink="http://www.w3.org/1999/xlink" width="60.658" height="60.658" viewBox="0 0 60.658 60.658">
  <defs>
    <linearGradient id="linear-gradient" x1="0.5" x2="0.5" y2="1" gradientUnits="objectBoundingBox">
      <stop offset="0" stop-color="#33a2bd"/>
      <stop offset="1" stop-color="#3dcdbb"/>
    </linearGradient>
    <filter id="Elipse_610" x="0" y="0" width="60.658" height="60.658" filterUnits="userSpaceOnUse">
      <feOffset dy="3" input="SourceAlpha"/>
      <feGaussianBlur stdDeviation="3" result="blur"/>
      <feFlood flood-opacity="0.161"/>
      <feComposite operator="in" in2="blur"/>
      <feComposite in="SourceGraphic"/>
    </filter>
  </defs>
  <g id="Grupo_11577" data-name="Grupo 11577" transform="translate(9 6)">
    <g transform="matrix(1, 0, 0, 1, -9, -6)" filter="url(#Elipse_610)">
      <circle id="Elipse_610-2" data-name="Elipse 610" cx="21.329" cy="21.329" r="21.329" transform="translate(9 6)" fill="url(#linear-gradient)"/>
    </g>
    <g id="Grupo_8666" data-name="Grupo 8666" transform="translate(8.324 8.324)">
      <path id="Trazado_474" data-name="Trazado 474" d="M43.394,91H33.5a8.135,8.135,0,0,0-8.2,8.2v9.891a8.135,8.135,0,0,0,8.2,8.2h9.891a8.135,8.135,0,0,0,8.2-8.2V99.2C51.837,94.86,47.977,91,43.394,91Zm5.79,18.335a5.87,5.87,0,0,1-5.79,5.79H33.5a5.87,5.87,0,0,1-5.79-5.79V99.444a5.87,5.87,0,0,1,5.79-5.79h9.891a5.87,5.87,0,0,1,5.79,5.79Z" transform="translate(-25.3 -91)" fill="#fff"/>
      <path id="Trazado_475" data-name="Trazado 475" d="M34.755,93.8a6.755,6.755,0,1,0,6.755,6.755A6.9,6.9,0,0,0,34.755,93.8Zm0,10.615a4.1,4.1,0,1,1,4.1-4.1A4.066,4.066,0,0,1,34.755,104.415Z" transform="translate(-21.486 -87.045)" fill="#fff"/>
      <ellipse id="Elipse_60" data-name="Elipse 60" cx="0.965" cy="0.965" rx="0.965" ry="0.965" transform="translate(19.3 5.307)" fill="#fff"/>
    </g>
  </g>
</svg>
