<svg id="Grupo_11573" data-name="Grupo 11573" xmlns="http://www.w3.org/2000/svg" width="40.741" height="26.176" viewBox="0 0 40.741 26.176">
  <g id="Grupo_9146" data-name="Grupo 9146" transform="translate(0)">
    <path id="Trazado_4401" data-name="Trazado 4401" d="M37.948,25.651H2.253A2.171,2.171,0,0,1,0,23.666V1.985A2.171,2.171,0,0,1,2.253,0H38.034a2.171,2.171,0,0,1,2.253,1.985V23.666a2.319,2.319,0,0,1-2.339,1.985" fill="#2ab4bc"/>
    <path id="Intersección_1" data-name="Intersección 1" d="M3.389,15.12a6.289,6.289,0,0,1-2.972-3.3,6.036,6.036,0,0,1,3.29-7.8,4.11,4.11,0,0,1,1.039-.362A2.507,2.507,0,0,0,5.76,3.608h0A5.563,5.563,0,0,0,4.7,4.284a6.094,6.094,0,0,0-2.42,5.529A5.784,5.784,0,0,0,4.957,13.97a7.712,7.712,0,0,0,2.959,1.15ZM5.72,3.618Zm0,0h0Zm0,0h0Zm0,0,.025-.006Zm.025-.006h0Zm0,0h0Zm0,0h0ZM14.934,12a2.638,2.638,0,0,1-.628-.46c-.121-.072-.242-.145-.41,0a7.915,7.915,0,0,1-1.184.6c.194-1.281.461-2.68.655-3.961l3.937.968L16,10.088a5.764,5.764,0,0,0,4.371,2.3,6.849,6.849,0,0,1-.685.21,6.711,6.711,0,0,1-1.623.2A6.461,6.461,0,0,1,14.934,12Zm-2.222.144.018.072ZM24.073,8.184v2.842a5.874,5.874,0,0,1-3.342,1.166A6.236,6.236,0,0,0,24.073,8.184ZM12.711,12.139ZM8.9,6.725c.533-.338.968-.651,1.5-.989a5.408,5.408,0,0,0-4.563-2.25,6.517,6.517,0,0,1,6.231.706.48.48,0,0,0,.629.049,5.576,5.576,0,0,1,1.063-.676c-.267,1.4-.557,2.7-.727,4.082C11.723,7.355,10.323,7.089,8.9,6.725ZM17.743.62a6.172,6.172,0,0,1,6.33.564v3.84A6.162,6.162,0,0,0,17.743.62Z" transform="translate(16.668 11.056)" fill="#005999"/>
    <path id="Trazado_14770" data-name="Trazado 14770" d="M.707-3.666,1.15-2.489l.442-1.176h.345v1.535H1.67v-.506L1.7-3.314,1.243-2.131H1.053L.6-3.313l.026.676v.506H.361V-3.666ZM2.729-2.11a.53.53,0,0,1-.395-.153.556.556,0,0,1-.151-.408V-2.7a.684.684,0,0,1,.066-.305.5.5,0,0,1,.185-.209A.489.489,0,0,1,2.7-3.293a.448.448,0,0,1,.36.149.628.628,0,0,1,.127.421v.1H2.441a.342.342,0,0,0,.094.223.283.283,0,0,0,.208.082.347.347,0,0,0,.287-.142l.138.132a.461.461,0,0,1-.183.159A.572.572,0,0,1,2.729-2.11ZM2.7-3.087a.216.216,0,0,0-.17.074.382.382,0,0,0-.083.206h.488v-.019a.311.311,0,0,0-.069-.194A.214.214,0,0,0,2.7-3.087Zm.927-.184.007.119a.41.41,0,0,1,.329-.14.315.315,0,0,1,.313.175.4.4,0,0,1,.35-.175.356.356,0,0,1,.281.1A.459.459,0,0,1,5-2.88v.749H4.744v-.742A.227.227,0,0,0,4.7-3.032a.208.208,0,0,0-.157-.051.213.213,0,0,0-.143.047.247.247,0,0,0-.077.123v.782H4.064v-.75a.183.183,0,0,0-.206-.2.225.225,0,0,0-.218.125v.826H3.384v-1.14Zm2.638.582a.685.685,0,0,1-.119.423.386.386,0,0,1-.326.157.372.372,0,0,1-.312-.144l-.013.123H5.262V-3.75h.256v.588a.371.371,0,0,1,.3-.131.391.391,0,0,1,.328.155.7.7,0,0,1,.119.433Zm-.256-.022a.484.484,0,0,0-.065-.278.218.218,0,0,0-.19-.093.238.238,0,0,0-.234.145v.47a.24.24,0,0,0,.236.149.216.216,0,0,0,.185-.09.469.469,0,0,0,.067-.271Zm1.068-.326a.634.634,0,0,0-.1-.008.235.235,0,0,0-.237.135v.78H6.477v-1.14h.245l.006.128a.289.289,0,0,1,.257-.149.24.24,0,0,1,.091.015Zm.664.927a.53.53,0,0,1-.395-.153.556.556,0,0,1-.151-.408V-2.7a.684.684,0,0,1,.066-.305.5.5,0,0,1,.185-.209.489.489,0,0,1,.266-.075.448.448,0,0,1,.36.149.628.628,0,0,1,.127.421v.1H7.451a.342.342,0,0,0,.094.223.283.283,0,0,0,.208.082.347.347,0,0,0,.287-.142l.138.132A.461.461,0,0,1,8-2.166.572.572,0,0,1,7.739-2.11Zm-.031-.977a.216.216,0,0,0-.17.074.382.382,0,0,0-.083.206h.488v-.019a.311.311,0,0,0-.069-.194A.214.214,0,0,0,7.708-3.087Zm1.326.646a.116.116,0,0,0-.056-.1.6.6,0,0,0-.187-.063.962.962,0,0,1-.218-.07.291.291,0,0,1-.192-.269.3.3,0,0,1,.124-.247.492.492,0,0,1,.316-.1.512.512,0,0,1,.33.1.321.321,0,0,1,.126.262H9.022a.158.158,0,0,0-.055-.123A.21.21,0,0,0,8.821-3.1a.227.227,0,0,0-.138.039.123.123,0,0,0-.053.1.1.1,0,0,0,.05.092.681.681,0,0,0,.2.066.948.948,0,0,1,.237.079.335.335,0,0,1,.128.11.281.281,0,0,1,.042.156.3.3,0,0,1-.128.249.544.544,0,0,1-.334.1.59.59,0,0,1-.25-.051A.411.411,0,0,1,8.4-2.3a.329.329,0,0,1-.061-.191h.249a.18.18,0,0,0,.069.14.266.266,0,0,0,.168.049.259.259,0,0,0,.154-.038A.119.119,0,0,0,9.034-2.441Zm.75.31H9.529v-1.14h.256ZM9.736-3.743h.292l-.292.319H9.531Zm1.021,1.611a.4.4,0,0,1-.03-.106.4.4,0,0,1-.3.128.4.4,0,0,1-.28-.1.314.314,0,0,1-.109-.242.324.324,0,0,1,.135-.28.656.656,0,0,1,.387-.1h.157V-2.9a.2.2,0,0,0-.05-.142.2.2,0,0,0-.151-.053.226.226,0,0,0-.143.044.135.135,0,0,0-.056.111h-.256a.284.284,0,0,1,.062-.175.414.414,0,0,1,.169-.128.594.594,0,0,1,.239-.046.479.479,0,0,1,.319.1.359.359,0,0,1,.122.283v.514a.583.583,0,0,0,.043.246v.018Zm-.281-.184a.291.291,0,0,0,.143-.037.246.246,0,0,0,.1-.1v-.215h-.138a.378.378,0,0,0-.214.05.16.16,0,0,0-.072.14.15.15,0,0,0,.049.118A.19.19,0,0,0,10.476-2.316Z" transform="translate(3.349 7.079)" fill="#005999"/>
    <path id="Trazado_14769" data-name="Trazado 14769" d="M1.443-4.879l-.313.332v.861H.65V-6.448h.48v1.3L1.4-5.481,2.2-6.448h.581L1.758-5.225,2.843-3.686H2.274ZM5.245-5a1.7,1.7,0,0,1-.14.712,1.061,1.061,0,0,1-.4.47,1.1,1.1,0,0,1-.6.164,1.106,1.106,0,0,1-.6-.164A1.078,1.078,0,0,1,3.1-4.28a1.642,1.642,0,0,1-.145-.7v-.156A1.68,1.68,0,0,1,3.1-5.849a1.077,1.077,0,0,1,.4-.473,1.1,1.1,0,0,1,.6-.164,1.11,1.11,0,0,1,.6.162,1.063,1.063,0,0,1,.4.467,1.677,1.677,0,0,1,.144.709Zm-.48-.144a1.207,1.207,0,0,0-.174-.7A.568.568,0,0,0,4.1-6.088a.566.566,0,0,0-.487.244,1.184,1.184,0,0,0-.179.69V-5a1.2,1.2,0,0,0,.177.7.571.571,0,0,0,.492.249.564.564,0,0,0,.49-.243A1.224,1.224,0,0,0,4.765-5ZM7.928-5a1.7,1.7,0,0,1-.14.712,1.061,1.061,0,0,1-.4.47,1.1,1.1,0,0,1-.6.164,1.106,1.106,0,0,1-.6-.164,1.078,1.078,0,0,1-.406-.468,1.642,1.642,0,0,1-.145-.7v-.156a1.68,1.68,0,0,1,.143-.713,1.077,1.077,0,0,1,.4-.473,1.1,1.1,0,0,1,.6-.164,1.11,1.11,0,0,1,.6.162,1.063,1.063,0,0,1,.4.467,1.677,1.677,0,0,1,.144.709Zm-.48-.144a1.207,1.207,0,0,0-.174-.7.568.568,0,0,0-.492-.245.566.566,0,0,0-.487.244,1.184,1.184,0,0,0-.179.69V-5a1.2,1.2,0,0,0,.177.7.571.571,0,0,0,.492.249.564.564,0,0,0,.49-.243A1.224,1.224,0,0,0,7.448-5Zm1.58-1.309.8,2.117.795-2.117h.62v2.762h-.478V-4.6l.047-1.218L9.994-3.686H9.65L8.836-5.813,8.884-4.6v.911H8.406V-6.448ZM12.6-4.879l-.313.332v.861h-.48V-6.448h.48v1.3l.266-.328.808-.968h.581L12.915-5.225,14-3.686h-.569Zm2.163,1.193h-.478V-6.448h.478Zm2.781,0h-.48l-1.231-1.96v1.96h-.48V-6.448h.48l1.235,1.967V-6.448h.476Z" transform="translate(8.606 12.641)" fill="#005999"/>
    <path id="Trazado_14771" data-name="Trazado 14771" d="M.453-1.7a.392.392,0,0,1-.018.124.3.3,0,0,1-.063.1L.307-1.41a.188.188,0,0,0-.057.129.117.117,0,0,0,.031.089.122.122,0,0,0,.087.029.124.124,0,0,0,.089-.032.111.111,0,0,0,.034-.084H.645A.228.228,0,0,1,.568-1.1a.291.291,0,0,1-.2.066.293.293,0,0,1-.2-.064A.228.228,0,0,1,.1-1.279a.3.3,0,0,1,.1-.208l.058-.059a.176.176,0,0,0,.056-.118V-1.7Zm.013-.2a.082.082,0,0,1-.022.059.084.084,0,0,1-.064.024.085.085,0,0,1-.065-.024.082.082,0,0,1-.023-.059.081.081,0,0,1,.023-.058.085.085,0,0,1,.065-.024.084.084,0,0,1,.064.024A.081.081,0,0,1,.466-1.894Zm1.015.315a.332.332,0,0,1-.109.23.371.371,0,0,1-.252.083.359.359,0,0,1-.194-.052A.342.342,0,0,1,.8-1.466.535.535,0,0,1,.749-1.69v-.086A.539.539,0,0,1,.8-2.005a.348.348,0,0,1,.132-.153.37.37,0,0,1,.2-.054.356.356,0,0,1,.245.083.345.345,0,0,1,.108.234H1.322a.227.227,0,0,0-.058-.143.191.191,0,0,0-.136-.044.187.187,0,0,0-.16.076.381.381,0,0,0-.057.224V-1.7a.4.4,0,0,0,.053.228A.177.177,0,0,0,1.12-1.4a.207.207,0,0,0,.142-.042.221.221,0,0,0,.06-.141Zm.543.233a.238.238,0,0,1-.192.08.212.212,0,0,1-.169-.065.277.277,0,0,1-.057-.188v-.443h.154v.441q0,.13.108.13a.152.152,0,0,0,.151-.08v-.491h.154v.684H2.027Zm.714.067a.237.237,0,0,1-.018-.064.239.239,0,0,1-.18.077.241.241,0,0,1-.168-.059.188.188,0,0,1-.065-.145.194.194,0,0,1,.081-.168A.394.394,0,0,1,2.62-1.7h.094v-.045a.12.12,0,0,0-.03-.085.118.118,0,0,0-.09-.032.135.135,0,0,0-.086.026.081.081,0,0,0-.034.067H2.321a.171.171,0,0,1,.037-.105.249.249,0,0,1,.1-.077A.357.357,0,0,1,2.6-1.976a.287.287,0,0,1,.192.06.215.215,0,0,1,.073.17v.309a.35.35,0,0,0,.026.147v.011Zm-.169-.111a.175.175,0,0,0,.086-.022.148.148,0,0,0,.06-.059V-1.6H2.632a.227.227,0,0,0-.128.03.1.1,0,0,0-.043.084.09.09,0,0,0,.029.071A.114.114,0,0,0,2.569-1.389Zm.085-.861h.175l-.175.192H2.531Zm.518.287,0,.079a.246.246,0,0,1,.2-.092q.214,0,.218.245v.452H3.439v-.443a.141.141,0,0,0-.028-.1.118.118,0,0,0-.092-.031.148.148,0,0,0-.138.084v.487H3.027v-.684Zm.77-.166v.166h.121v.114H3.942v.382a.084.084,0,0,0,.015.057.072.072,0,0,0,.055.017A.237.237,0,0,0,4.067-1.4v.119a.378.378,0,0,1-.1.015q-.177,0-.177-.2v-.388H3.676v-.114h.113v-.166Zm.19.5a.4.4,0,0,1,.04-.181.291.291,0,0,1,.112-.124.315.315,0,0,1,.166-.043.3.3,0,0,1,.225.089.351.351,0,0,1,.093.237v.036a.407.407,0,0,1-.039.181.287.287,0,0,1-.111.123.318.318,0,0,1-.167.044.3.3,0,0,1-.232-.1.369.369,0,0,1-.087-.257Zm.154.013a.276.276,0,0,0,.044.165.142.142,0,0,0,.121.06.14.14,0,0,0,.121-.061.3.3,0,0,0,.043-.178.272.272,0,0,0-.045-.164.142.142,0,0,0-.121-.061.141.141,0,0,0-.12.06A.3.3,0,0,0,4.286-1.614Zm1,.149a.07.07,0,0,0-.034-.063.36.36,0,0,0-.112-.038.577.577,0,0,1-.131-.042.175.175,0,0,1-.115-.161.182.182,0,0,1,.075-.148.3.3,0,0,1,.19-.059.307.307,0,0,1,.2.061.193.193,0,0,1,.076.157H5.275a.1.1,0,0,0-.033-.074.126.126,0,0,0-.087-.029.136.136,0,0,0-.083.023.074.074,0,0,0-.032.063.062.062,0,0,0,.03.055.409.409,0,0,0,.12.04.569.569,0,0,1,.142.047.2.2,0,0,1,.077.066.169.169,0,0,1,.025.094.178.178,0,0,1-.077.15.326.326,0,0,1-.2.057.354.354,0,0,1-.15-.03.247.247,0,0,1-.1-.083.2.2,0,0,1-.037-.114h.149a.108.108,0,0,0,.041.084.16.16,0,0,0,.1.029A.155.155,0,0,0,5.251-1.4.071.071,0,0,0,5.282-1.465Zm.888.076a.139.139,0,0,0,.1-.034.115.115,0,0,0,.04-.083h.145a.226.226,0,0,1-.04.119.261.261,0,0,1-.1.088.3.3,0,0,1-.138.032.292.292,0,0,1-.228-.093.369.369,0,0,1-.084-.257v-.016a.363.363,0,0,1,.083-.25.289.289,0,0,1,.228-.094.281.281,0,0,1,.2.071.255.255,0,0,1,.081.187H6.307a.141.141,0,0,0-.04-.1.129.129,0,0,0-.1-.038.135.135,0,0,0-.115.054.276.276,0,0,0-.041.164v.025a.28.28,0,0,0,.04.166A.135.135,0,0,0,6.171-1.389Zm.56.11H6.577V-2.25h.154Zm.331,0H6.908v-.684h.154ZM6.9-2.141A.082.082,0,0,1,6.921-2.2a.085.085,0,0,1,.064-.023A.086.086,0,0,1,7.05-2.2a.081.081,0,0,1,.023.059.079.079,0,0,1-.023.058.087.087,0,0,1-.065.023.085.085,0,0,1-.064-.023A.08.08,0,0,1,6.9-2.141Zm.632.875a.318.318,0,0,1-.237-.092A.334.334,0,0,1,7.2-1.6v-.019a.411.411,0,0,1,.04-.183.3.3,0,0,1,.111-.126.293.293,0,0,1,.159-.045.269.269,0,0,1,.216.089.377.377,0,0,1,.076.252v.062H7.358a.205.205,0,0,0,.057.134.17.17,0,0,0,.125.049.208.208,0,0,0,.172-.085l.083.079a.277.277,0,0,1-.11.1A.343.343,0,0,1,7.53-1.266Zm-.018-.586a.129.129,0,0,0-.1.044.229.229,0,0,0-.05.123h.293V-1.7a.187.187,0,0,0-.041-.117A.128.128,0,0,0,7.512-1.852Zm.555-.111,0,.079a.246.246,0,0,1,.2-.092q.214,0,.218.245v.452H8.334v-.443a.141.141,0,0,0-.028-.1.118.118,0,0,0-.092-.031.148.148,0,0,0-.138.084v.487H7.922v-.684Zm.77-.166v.166h.121v.114H8.837v.382a.084.084,0,0,0,.015.057.072.072,0,0,0,.055.017A.237.237,0,0,0,8.961-1.4v.119a.378.378,0,0,1-.1.015q-.177,0-.177-.2v-.388H8.57v-.114h.113v-.166Zm.539.863a.318.318,0,0,1-.237-.092A.334.334,0,0,1,9.049-1.6v-.019a.411.411,0,0,1,.04-.183A.3.3,0,0,1,9.2-1.931a.293.293,0,0,1,.159-.045.269.269,0,0,1,.216.089.377.377,0,0,1,.076.252v.062H9.2a.205.205,0,0,0,.057.134.17.17,0,0,0,.125.049.208.208,0,0,0,.172-.085L9.64-1.4a.277.277,0,0,1-.11.1A.343.343,0,0,1,9.376-1.266Zm-.018-.586a.129.129,0,0,0-.1.044.229.229,0,0,0-.05.123H9.5V-1.7a.187.187,0,0,0-.041-.117A.128.128,0,0,0,9.358-1.852Zm.8.388a.07.07,0,0,0-.034-.063.36.36,0,0,0-.112-.038.577.577,0,0,1-.131-.042.175.175,0,0,1-.115-.161.182.182,0,0,1,.075-.148.3.3,0,0,1,.19-.059.307.307,0,0,1,.2.061.193.193,0,0,1,.076.157h-.154a.1.1,0,0,0-.033-.074.126.126,0,0,0-.087-.029.136.136,0,0,0-.083.023.074.074,0,0,0-.032.063.062.062,0,0,0,.03.055.409.409,0,0,0,.12.04.569.569,0,0,1,.142.047.2.2,0,0,1,.077.066.169.169,0,0,1,.025.094.178.178,0,0,1-.077.15.326.326,0,0,1-.2.057.354.354,0,0,1-.15-.03.247.247,0,0,1-.1-.083.2.2,0,0,1-.037-.114h.149a.108.108,0,0,0,.041.084.16.16,0,0,0,.1.029.155.155,0,0,0,.092-.023A.071.071,0,0,0,10.153-1.465ZM.276-.236l0,.079a.246.246,0,0,1,.2-.092Q.694-.249.7,0V.448H.544V0a.141.141,0,0,0-.028-.1A.118.118,0,0,0,.424-.123a.148.148,0,0,0-.138.084V.448H.131V-.236Zm.992.617a.238.238,0,0,1-.192.08A.212.212,0,0,1,.908.4.277.277,0,0,1,.85.207V-.236H1V.205q0,.13.108.13a.152.152,0,0,0,.151-.08V-.236h.154V.448H1.272Zm.606.08A.318.318,0,0,1,1.638.369.334.334,0,0,1,1.547.124V.1a.411.411,0,0,1,.04-.183A.3.3,0,0,1,1.7-.2a.293.293,0,0,1,.159-.045.269.269,0,0,1,.216.089.377.377,0,0,1,.076.252V.155H1.7a.205.205,0,0,0,.057.134.17.17,0,0,0,.125.049A.208.208,0,0,0,2.056.253l.083.079a.277.277,0,0,1-.11.1A.343.343,0,0,1,1.875.461ZM1.857-.125a.129.129,0,0,0-.1.044A.229.229,0,0,0,1.7.042H2V.031a.187.187,0,0,0-.041-.117A.128.128,0,0,0,1.857-.125ZM2.5.253l.145-.489h.159L2.568.448H2.435L2.2-.236h.159ZM2.863.1A.4.4,0,0,1,2.9-.081a.291.291,0,0,1,.112-.124A.315.315,0,0,1,3.18-.249.3.3,0,0,1,3.4-.16.351.351,0,0,1,3.5.077V.113A.407.407,0,0,1,3.46.294a.287.287,0,0,1-.111.123.318.318,0,0,1-.167.044.3.3,0,0,1-.232-.1A.369.369,0,0,1,2.863.107Zm.154.013A.276.276,0,0,0,3.06.278a.142.142,0,0,0,.121.06A.14.14,0,0,0,3.3.277.3.3,0,0,0,3.346.1.272.272,0,0,0,3.3-.065.142.142,0,0,0,3.18-.125a.141.141,0,0,0-.12.06A.3.3,0,0,0,3.016.113Zm1,.149A.07.07,0,0,0,3.978.2.36.36,0,0,0,3.866.162.577.577,0,0,1,3.735.12.175.175,0,0,1,3.62-.041a.182.182,0,0,1,.075-.148.3.3,0,0,1,.19-.059.307.307,0,0,1,.2.061.193.193,0,0,1,.076.157H4A.1.1,0,0,0,3.972-.1a.126.126,0,0,0-.087-.029A.136.136,0,0,0,3.8-.11a.074.074,0,0,0-.032.063A.062.062,0,0,0,3.8.007a.409.409,0,0,0,.12.04.569.569,0,0,1,.142.047A.2.2,0,0,1,4.138.16a.169.169,0,0,1,.025.094A.178.178,0,0,1,4.087.4a.326.326,0,0,1-.2.057.354.354,0,0,1-.15-.03.247.247,0,0,1-.1-.083A.2.2,0,0,1,3.6.232h.149a.108.108,0,0,0,.041.084.16.16,0,0,0,.1.029A.155.155,0,0,0,3.981.323.071.071,0,0,0,4.012.262ZM4.591.1a.4.4,0,0,1,.073-.255.238.238,0,0,1,.2-.094.224.224,0,0,1,.181.08l.009-.068H5.19V.711H5.036V.39a.229.229,0,0,1-.175.071.236.236,0,0,1-.2-.1A.423.423,0,0,1,4.591.1Zm.154.013a.286.286,0,0,0,.041.165A.132.132,0,0,0,4.9.338.146.146,0,0,0,5.036.26V-.051A.146.146,0,0,0,4.9-.125a.134.134,0,0,0-.115.059A.312.312,0,0,0,4.745.114ZM5.77.381a.238.238,0,0,1-.192.08A.212.212,0,0,1,5.409.4.277.277,0,0,1,5.352.207V-.236h.154V.205q0,.13.108.13a.152.152,0,0,0,.151-.08V-.236h.154V.448H5.773Zm.469.067H6.085V-.236h.154ZM6.075-.414A.082.082,0,0,1,6.1-.473.085.085,0,0,1,6.162-.5a.086.086,0,0,1,.065.023.081.081,0,0,1,.023.059.079.079,0,0,1-.023.058.087.087,0,0,1-.065.023A.085.085,0,0,1,6.1-.356.08.08,0,0,1,6.075-.414Zm.632.875A.318.318,0,0,1,6.47.369.334.334,0,0,1,6.379.124V.1a.411.411,0,0,1,.04-.183A.3.3,0,0,1,6.53-.2a.293.293,0,0,1,.159-.045.269.269,0,0,1,.216.089.377.377,0,0,1,.076.252V.155H6.534a.205.205,0,0,0,.057.134.17.17,0,0,0,.125.049A.208.208,0,0,0,6.888.253l.083.079a.277.277,0,0,1-.11.1A.343.343,0,0,1,6.707.461ZM6.689-.125a.129.129,0,0,0-.1.044.229.229,0,0,0-.05.123H6.83V.031a.187.187,0,0,0-.041-.117A.128.128,0,0,0,6.689-.125Zm.77.03A.38.38,0,0,0,7.4-.1a.141.141,0,0,0-.142.081V.448H7.1V-.236h.147l0,.077A.173.173,0,0,1,7.4-.249a.144.144,0,0,1,.054.009Zm.4.556A.318.318,0,0,1,7.62.369.334.334,0,0,1,7.53.124V.1a.411.411,0,0,1,.04-.183A.3.3,0,0,1,7.68-.2a.293.293,0,0,1,.159-.045.269.269,0,0,1,.216.089.377.377,0,0,1,.076.252V.155H7.685a.205.205,0,0,0,.057.134.17.17,0,0,0,.125.049A.208.208,0,0,0,8.038.253l.083.079a.277.277,0,0,1-.11.1A.343.343,0,0,1,7.857.461ZM7.839-.125a.129.129,0,0,0-.1.044.229.229,0,0,0-.05.123H7.98V.031a.187.187,0,0,0-.041-.117A.128.128,0,0,0,7.839-.125Zm.8.388A.07.07,0,0,0,8.6.2.36.36,0,0,0,8.488.162.577.577,0,0,1,8.357.12a.175.175,0,0,1-.115-.161.182.182,0,0,1,.075-.148.3.3,0,0,1,.19-.059.307.307,0,0,1,.2.061.193.193,0,0,1,.076.157H8.627A.1.1,0,0,0,8.594-.1a.126.126,0,0,0-.087-.029.136.136,0,0,0-.083.023.074.074,0,0,0-.032.063.062.062,0,0,0,.03.055.409.409,0,0,0,.12.04.569.569,0,0,1,.142.047A.2.2,0,0,1,8.76.16a.169.169,0,0,1,.025.094A.178.178,0,0,1,8.709.4a.326.326,0,0,1-.2.057.354.354,0,0,1-.15-.03.247.247,0,0,1-.1-.083A.2.2,0,0,1,8.219.232h.149A.108.108,0,0,0,8.41.316a.16.16,0,0,0,.1.029A.155.155,0,0,0,8.6.323.071.071,0,0,0,8.634.262Zm.759-.424a.241.241,0,0,1,.19-.087q.219,0,.222.25V.448H9.652V.007a.135.135,0,0,0-.031-.1.125.125,0,0,0-.09-.029.148.148,0,0,0-.138.082V.448H9.24V-.523h.154ZM9.932.1a.4.4,0,0,1,.04-.181.291.291,0,0,1,.112-.124.315.315,0,0,1,.166-.043.3.3,0,0,1,.225.089.351.351,0,0,1,.093.237V.113a.407.407,0,0,1-.039.181.287.287,0,0,1-.111.123.318.318,0,0,1-.167.044.3.3,0,0,1-.232-.1A.369.369,0,0,1,9.932.107Zm.154.013a.276.276,0,0,0,.044.165.142.142,0,0,0,.121.06.14.14,0,0,0,.121-.061A.3.3,0,0,0,10.415.1a.272.272,0,0,0-.045-.164.142.142,0,0,0-.121-.061.141.141,0,0,0-.12.06A.3.3,0,0,0,10.086.113Zm.852.115.139-.464h.164l-.272.788a.221.221,0,0,1-.212.173.274.274,0,0,1-.074-.011V.594l.029,0A.15.15,0,0,0,10.8.574.14.14,0,0,0,10.845.5l.022-.059-.24-.681h.166Zm.534-.05a.355.355,0,0,1,.021-.134.352.352,0,0,1,.083-.11.63.63,0,0,0,.078-.085.149.149,0,0,0,.025-.083.127.127,0,0,0-.029-.091.113.113,0,0,0-.086-.031.124.124,0,0,0-.088.031.107.107,0,0,0-.033.083h-.154a.226.226,0,0,1,.076-.177.291.291,0,0,1,.2-.065.284.284,0,0,1,.2.065.231.231,0,0,1,.071.18.3.3,0,0,1-.1.2l-.078.077a.209.209,0,0,0-.043.139Zm-.011.2a.081.081,0,0,1,.023-.06.1.1,0,0,1,.127,0,.081.081,0,0,1,.023.06.08.08,0,0,1-.023.058.086.086,0,0,1-.065.023.085.085,0,0,1-.064-.023A.08.08,0,0,1,11.46.374Z" transform="translate(2.766 18.258)" fill="#005999"/>
  </g>
</svg>
