<svg xmlns="http://www.w3.org/2000/svg" viewBox="0 0 24 24">
  <defs>
    <style>
      .cls-1 {
        fill: #fff;
      }

      .cls-2 {
        fill: none;
      }
    </style>
  </defs>
  <g id="Group_1098" data-name="Group 1098" transform="translate(-888 -299)">
    <g id="Group_48" data-name="Group 48" transform="translate(890 304)">
      <path id="Path_262" data-name="Path 262" class="cls-1" d="M9.843,6.543,7.343,4.4.2,10.471a2.538,2.538,0,0,0,1.071.357H18.414a1.364,1.364,0,0,0,.893-.357L12.343,4.4Zm0,0" transform="translate(0.157 3.457)"/>
      <path id="Path_263" data-name="Path 263" class="cls-1" d="M19.229.357A1.364,1.364,0,0,0,18.336,0H1.193A1.364,1.364,0,0,0,.3.357L9.764,8.571Zm0,0" transform="translate(0.236)"/>
      <path id="Path_264" data-name="Path 264" class="cls-1" d="M0,.7V12.486L6.964,6.593Zm0,0" transform="translate(0 0.55)"/>
      <path id="Path_265" data-name="Path 265" class="cls-1" d="M7.3,6.771l6.964,5.893V.7Zm0,0" transform="translate(5.736 0.55)"/>
    </g>
    <rect id="Rectangle_1357" data-name="Rectangle 1357" class="cls-2" width="24" height="24" transform="translate(888 299)"/>
  </g>
</svg>
