<svg xmlns="http://www.w3.org/2000/svg" viewBox="0 0 266.912 51.678">
  <defs>
    <style>
      .cls-1, .cls-2 {
        fill: #fff;
      }

      .cls-1 {
        fill-rule: evenodd;
      }
    </style>
  </defs>
  <g id="Group_1089" data-name="Group 1089" transform="translate(-468 14.366)">
    <path id="Path_252" data-name="Path 252" class="cls-1" d="M35.9,18.994c1.714-.643,3.213-1.071,4.713-1.714A15.461,15.461,0,0,0,29.9,8.069c6.212-.643,12,1.071,16.495,6.212.428.643.857.857,1.5.428,1.071-.428,2.142-.857,3.427-1.285-1.714,3.642-3.213,7.069-4.927,10.5a112,112,0,0,1-10.5-4.927" transform="translate(502.15 -4.869)"/>
    <path id="Path_253" data-name="Path 253" class="cls-1" d="M35.8,26.682,40.3,16.4c3.427,1.714,6.641,3.642,10.068,5.355-1.5.643-2.785,1.071-4.07,1.5,2.142,4.5,5.355,7.712,10.282,9-5.141.428-10.282-.643-14.567-4.713a5.774,5.774,0,0,1-1.5-1.714c-.214-.428-.643-.428-1.071-.214A23.406,23.406,0,0,1,35.8,26.682h0" transform="translate(508.889 4.793)"/>
    <path id="Path_254" data-name="Path 254" class="cls-2" d="M42.2,4.142a20.316,20.316,0,0,0-4.927,1.071,8.078,8.078,0,0,0-3.427,2.571,170,170,0,0,1-13.5,14.352s-.214.214,0,.214c1.071,1.285,2.356,2.571,3.427,3.856,4.07,4.927,7.926,9.854,12,14.567a13.562,13.562,0,0,0,6.641,4.713c.857.214,1.714.214,2.785.428V48.27H32.775a1.178,1.178,0,0,1-1.071-.643A172.533,172.533,0,0,0,14.138,25.564H13.067V41.415c0,2.356.643,3.213,3,3.856l3.213.643v2.142H0V45.914c1.071-.214,2.142-.214,3.213-.428a3.264,3.264,0,0,0,3-3.213V8A3.09,3.09,0,0,0,4.284,5.427C3,5,1.5,4.571,0,3.928V2H19.279V4.142c-1.285.214-2.571.428-3.642.643A2.907,2.907,0,0,0,13.067,8V24.064c0,.428.643.214.857,0A74.825,74.825,0,0,0,27.848,9.5a12.045,12.045,0,0,0,1.5-2.785c.214-.857,0-1.928-.857-2.142-1.285-.214-3.213-.428-3.642-.428V2H42.2Z" transform="translate(468 -11.654)"/>
    <path id="Path_255" data-name="Path 255" class="cls-2" d="M95.358,39.522c.643,0,1.071-.214,1.714-.214,1.928-.214,3-1.071,3-3V19.171a4.717,4.717,0,0,0-.214-1.714c-.857-4.07-3.856-6-7.926-4.713a8.883,8.883,0,0,0-5.141,4.07,2.717,2.717,0,0,0-.214,1.285V35.452c0,2.571.857,3.427,3.213,3.856.428,0,.857.214,1.5.214v2.142H75.865V39.522c.428,0,.857-.214,1.285-.214,2.356-.214,3.213-1.071,3.213-3.427V20.028a14.143,14.143,0,0,0-.214-3c-.857-3.642-3.642-5.355-7.283-4.5a9.68,9.68,0,0,0-6,4.5,1.288,1.288,0,0,0-.214.857v17.78c0,2.142,1.071,3.213,3.427,3.642.428,0,.857.214,1.285.214v2.142H55.728V39.522c.857,0,1.5-.214,2.356-.214a2.758,2.758,0,0,0,2.356-2.785V15.958a4.172,4.172,0,0,0-2.571-3.642L55.3,11.674V9.532c1.285,0,2.785-.214,4.07-.214,1.928-.214,4.07-.214,6-.428.857,0,1.071.214,1.071,1.071v3.856l1.285-1.285a16.57,16.57,0,0,1,6-4.07c4.5-1.285,8.569,0,11.139,3.427A11.958,11.958,0,0,1,85.933,13.6a13.858,13.858,0,0,1,1.928-1.714,12.458,12.458,0,0,1,9.211-3.856c4.5,0,7.5,2.356,8.569,6.855a21.1,21.1,0,0,1,.428,3.642V34.595c0,3,.857,3.856,3.856,4.284.428,0,.643.214,1.071.214v2.142H96.215c-.857,0-1.071-.214-.857-.857.214,0,0-.428,0-.857" transform="translate(531.161 -4.833)"/>
    <path id="Path_256" data-name="Path 256" class="cls-2" d="M101.627,30.861c3.427,4.5,7.283,9.854,10.925,14.567,1.5,1.928,3.213,3.427,6,3.213v2.142h-8.783a1.527,1.527,0,0,1-1.285-.643c-3.427-4.927-6.855-9.64-10.282-14.352a3.761,3.761,0,0,0-.857-1.071c-.857.857-1.714,1.5-2.571,2.356a.787.787,0,0,0-.214.643v6.855A3.1,3.1,0,0,0,96.914,48c.857.214,1.5.428,2.356.643v1.928H83.632V48.427c.857-.214,1.5-.214,2.356-.428,1.5-.214,2.142-1.071,2.356-2.785V7.726a7.612,7.612,0,0,0-.428-2.142A3.922,3.922,0,0,0,84.275,2.8c-.643,0-1.285-.214-1.928-.214a.568.568,0,0,1-.643-.643c0-1.928-.214-1.5,1.5-1.5C86.417.228,89.631.014,93.058-.2c1.071,0,1.071,0,1.071,1.071v33.2h.214c3.427-3.427,6.855-6.855,10.068-10.282,1.5-1.714,1.285-2.356-.857-3-.214,0-.428-.214-.643-.214-1.714-.428-1.714-.428-1.5-2.356H115.55v1.714a.461.461,0,0,1-.428.428,20.531,20.531,0,0,0-9.64,6c-.428,1.071-3.427,3.856-3.856,4.5" transform="translate(561.309 -14.166)"/>
    <path id="Path_257" data-name="Path 257" class="cls-2" d="M143.788,39.14v2.142H128.15V39.14c.857-.214,1.928-.214,2.785-.428a2.544,2.544,0,0,0,2.142-2.571V18.147a6.973,6.973,0,0,0-.857-3c-1.285-2.571-3.642-3.642-6.641-3a9.781,9.781,0,0,0-6.212,4.284,1.288,1.288,0,0,0-.214.857V35.5a2.8,2.8,0,0,0,2.142,3c.857.214,1.714.428,2.785.643v1.928H108.228V38.925c.428,0,1.071-.214,1.5-.214,2.356-.214,3.213-1.071,3.213-3.427V16.219a6.6,6.6,0,0,0-.643-2.785c-.643-1.5-2.142-1.928-3.642-1.928-.643,0-.857-.214-.857-.857V9.364c1.285,0,2.571-.214,3.856-.214,2.142-.214,4.07-.214,6.212-.428.857,0,1.071.214,1.071,1.071v4.07c.857-.857,1.714-1.5,2.356-2.142,3-3,6.855-3.856,10.925-3.213,3.642.643,5.57,3,6.426,6.212a13.183,13.183,0,0,1,.428,4.07V35.07c0,2.785.857,3.213,3.213,3.856a3.177,3.177,0,0,1,1.5.214" transform="translate(591.123 -4.451)"/>
    <path id="Path_258" data-name="Path 258" class="cls-2" d="M99.2,11.3V9.157c1.5-.214,3-.214,4.5-.428,1.928-.214,4.07-.214,6-.428,1.071,0,1.285,0,1.285,1.285V34.434c0,2.785.643,3.427,3.427,4.284.428,0,.643.214,1.071.214v2.142H100.057V38.933c.857-.214,1.714-.214,2.356-.428a2.26,2.26,0,0,0,2.142-2.571V16.012c0-2.571-1.071-3.856-3.642-4.5A6.891,6.891,0,0,1,99.2,11.3" transform="translate(581.301 -4.458)"/>
    <path id="Path_259" data-name="Path 259" class="cls-2" d="M40.515,8.314c-1.071.428-2.356.643-3.427,1.071a16.511,16.511,0,0,0-10.282,13.5,15.493,15.493,0,0,0,4.5,13.067,22.367,22.367,0,0,0,9.64,6h-4.5A16.928,16.928,0,0,1,34.517,8.314a14.142,14.142,0,0,1,3-.214c1.071,0,1.928.214,3,.214h0" transform="translate(491.107 -4.687)"/>
    <path id="Path_260" data-name="Path 260" class="cls-2" d="M46.128,41.774c9-2.142,14.138-9.64,13.924-16.923C59.838,17.354,54.7,10.285,45.7,8.357c7.712-1.285,14.352,1.714,17.994,7.712a17.17,17.17,0,0,1-.643,19.065,17.28,17.28,0,0,1-16.923,6.641" transform="translate(520.196 -4.729)"/>
    <path id="Path_261" data-name="Path 261" class="cls-2" d="M101.1,4.792c0-2.356,1.928-4.5,4.07-4.284a4.3,4.3,0,0,1,4.284,4.284c0,2.571-1.928,4.713-4.284,4.5a4.315,4.315,0,0,1-4.07-4.5" transform="translate(583.471 -13.375)"/>
  </g>
</svg>
