<svg xmlns="http://www.w3.org/2000/svg" width="48.016" height="43.31" viewBox="0 0 48.016 43.31">
  <g id="Grupo_11445" data-name="Grupo 11445" transform="translate(-142.698 -391.412)">
    <path id="Trazado_26176" data-name="Trazado 26176" d="M70.09,81.845a2.548,2.548,0,0,1-1.923.878H25.246a2.548,2.548,0,0,1-2.522-2.908l3.969-27.783a3.821,3.821,0,0,1-2.916-3.7v-5.1A3.821,3.821,0,0,1,27.6,39.412H65.813a3.821,3.821,0,0,1,3.821,3.821v5.1a3.821,3.821,0,0,1-2.916,3.7l3.969,27.783A2.548,2.548,0,0,1,70.09,81.845Z" transform="translate(120 352)" fill="#005999"/>
    <path id="Trazado_26173" data-name="Trazado 26173" d="M16.734,31.516l.553-3.872a1.274,1.274,0,0,1,1.261-1.1H54.215a1.274,1.274,0,0,1,1.261,1.093l.553,3.872a1.274,1.274,0,0,0,.734-1.144v-5.1A1.274,1.274,0,0,0,55.489,24H17.274A1.274,1.274,0,0,0,16,25.274v5.1A1.274,1.274,0,0,0,16.734,31.516Z" transform="translate(130.325 369.336)" fill="#fff"/>
    <path id="Trazado_26181" data-name="Trazado 26181" d="M15.5-5.174a4.676,4.676,0,0,0-1.339-3.5,9.8,9.8,0,0,0-4.3-2.119v-3.926a7.991,7.991,0,0,1,1.638.611,14.756,14.756,0,0,1,1.586.923l1.742-3.042a11.172,11.172,0,0,0-2.249-1.235,11.207,11.207,0,0,0-2.587-.689v-1.56H7.28V-18.2a8.451,8.451,0,0,0-2.236.533A5.5,5.5,0,0,0,3.315-16.6,4.648,4.648,0,0,0,2.21-15.054a4.844,4.844,0,0,0-.39,1.976,5.363,5.363,0,0,0,.351,2.015,4.255,4.255,0,0,0,1.04,1.521A6.37,6.37,0,0,0,4.953-8.411,16.7,16.7,0,0,0,7.41-7.54v4.134a7.878,7.878,0,0,1-2.171-.767A15.648,15.648,0,0,1,3.172-5.512L1.144-2.548A12.436,12.436,0,0,0,4.017-.923,12.832,12.832,0,0,0,7.28-.078V2.548h2.7V-.026a8.164,8.164,0,0,0,2.262-.546,5.687,5.687,0,0,0,1.729-1.079A4.812,4.812,0,0,0,15.093-3.2,4.71,4.71,0,0,0,15.5-5.174ZM7.41-11.44a3.386,3.386,0,0,1-1.43-.832,1.586,1.586,0,0,1-.364-1.04,1.475,1.475,0,0,1,.429-1.066A2.3,2.3,0,0,1,7.41-14.95ZM11.7-4.966q0,1.4-1.846,1.69v-3.64a3.642,3.642,0,0,1,1.456.832A1.628,1.628,0,0,1,11.7-4.966Z" transform="translate(156.557 422.951)" fill="#fff"/>
  </g>
</svg>
