<?xml version="1.0" encoding="utf-8"?>
<!-- Generator: Adobe Illustrator 22.1.0, SVG Export Plug-In . SVG Version: 6.00 Build 0)  -->
<svg version="1.2" baseProfile="tiny" id="Layer_1" xmlns="http://www.w3.org/2000/svg" xmlns:xlink="http://www.w3.org/1999/xlink"
	 x="0px" y="0px" viewBox="0 0 235 251" xml:space="preserve">
<ellipse fill="#E5E5E5" cx="117.6" cy="206.3" rx="108.5" ry="39.4"/>
<g>
	<g>
		<g>
			<polygon fill="#0C3A3F" points="102.4,142.7 93.3,137.7 93.5,82.3 102.6,87.2 			"/>
		</g>
		<g>
			<polygon fill="#072225" points="96.4,140 87.2,135 87.4,84 96.5,89 			"/>
		</g>
		<g>
			<polygon fill="#0A2F34" points="96.5,89 87.4,84 93.5,82.3 102.6,87.2 			"/>
		</g>
		<g>
			<polygon fill="#0C3A40" points="102.6,87.2 102.4,142.7 96.4,140 96.5,89 			"/>
		</g>
		<g>
			<polygon fill="#0F464C" points="63.1,98.8 54,93.8 112.3,9.2 121.4,14.1 			"/>
		</g>
		<g>
			<polygon fill="#0B3439" points="115.4,11.4 106.2,6.5 112.3,9.2 121.4,14.1 			"/>
		</g>
		<g>
			<polygon fill="#15646C" points="121.4,14.1 178.4,64 142.2,74.6 142,131.1 102.4,142.7 102.6,87.2 96.5,89 63.1,98.8 			"/>
		</g>
		<g>
			<polygon fill="#10484F" points="115.4,11.4 121.4,14.1 63.1,98.8 57,96 			"/>
		</g>
		<g>
			<polygon fill="#0B3337" points="57,96 47.9,91.1 106.2,6.5 115.4,11.4 			"/>
		</g>
	</g>
</g>
<g>
	<g>
		<g>
			<polygon fill="#115158" points="101.6,160.3 92.5,155.4 132.7,143.6 141.8,148.6 			"/>
		</g>
		<g>
			<polygon fill="#0D3B3F" points="135.7,145.9 126.6,140.9 132.7,143.6 141.8,148.6 			"/>
		</g>
		<g>
			<polygon fill="#0C3A3F" points="101.6,168.8 92.5,163.9 92.5,155.4 101.6,160.3 			"/>
		</g>
		<g>
			<polygon fill="#15646C" points="141.8,148.6 141.8,157.1 101.6,168.8 101.6,160.3 			"/>
		</g>
		<g>
			<polygon fill="#092A2E" points="95.6,157.6 86.5,152.6 92.5,155.4 101.6,160.3 			"/>
		</g>
		<g>
			<polygon fill="#115157" points="135.7,145.9 141.8,148.6 101.6,160.3 95.6,157.6 			"/>
		</g>
		<g>
			<polygon fill="#0E4247" points="95.6,157.6 86.5,152.6 126.6,140.9 135.7,145.9 			"/>
		</g>
		<g>
			<polygon fill="#0C3A40" points="95.6,157.6 101.6,160.3 101.6,168.8 95.5,166.1 			"/>
		</g>
		<g>
			<polygon fill="#072225" points="95.5,166.1 86.4,161.1 86.5,152.6 95.6,157.6 			"/>
		</g>
	</g>
</g>
<g>
	<g>
		<g>
			<polygon fill="#12354B" points="101.6,178.9 92.5,174 132.7,162.2 141.8,167.2 			"/>
		</g>
		<g>
			<polygon fill="#0D2636" points="135.7,164.5 126.6,159.5 132.7,162.2 141.8,167.2 			"/>
		</g>
		<g>
			<polygon fill="#0D2636" points="101.6,187.5 92.5,182.5 92.5,174 101.6,178.9 			"/>
		</g>
		<g>
			<polygon fill="#17415D" points="141.8,167.2 141.8,175.7 101.6,187.5 101.6,178.9 			"/>
		</g>
		<g>
			<polygon fill="#091C27" points="95.6,176.2 86.5,171.3 92.5,174 101.6,178.9 			"/>
		</g>
		<g>
			<polygon fill="#12354B" points="135.7,164.5 141.8,167.2 101.6,178.9 95.6,176.2 			"/>
		</g>
		<g>
			<polygon fill="#0F2B3D" points="95.6,176.2 86.5,171.3 126.6,159.5 135.7,164.5 			"/>
		</g>
		<g>
			<polygon fill="#0D2636" points="95.6,176.2 101.6,178.9 101.6,187.5 95.5,184.7 			"/>
		</g>
		<g>
			<polygon fill="#081620" points="95.5,184.7 86.4,179.8 86.5,171.3 95.6,176.2 			"/>
		</g>
	</g>
</g>
<g>
	<g>
		<g>
			<polygon fill="#092740" points="101.6,195.4 92.5,190.4 132.7,178.7 141.8,183.7 			"/>
		</g>
		<g>
			<polygon fill="#061C2E" points="135.7,180.9 126.6,176 132.7,178.7 141.8,183.7 			"/>
		</g>
		<g>
			<polygon fill="#061C2E" points="101.6,203.9 92.5,198.9 92.5,190.4 101.6,195.4 			"/>
		</g>
		<g>
			<polygon fill="#0A304F" points="141.8,183.7 141.8,192.1 101.6,203.9 101.6,195.4 			"/>
		</g>
		<g>
			<polygon fill="#041421" points="95.6,192.7 86.5,187.7 92.5,190.4 101.6,195.4 			"/>
		</g>
		<g>
			<polygon fill="#092740" points="135.7,180.9 141.8,183.7 101.6,195.4 95.6,192.7 			"/>
		</g>
		<g>
			<polygon fill="#072034" points="95.6,192.7 86.5,187.7 126.6,176 135.7,180.9 			"/>
		</g>
		<g>
			<polygon fill="#061C2E" points="95.6,192.7 101.6,195.4 101.6,203.9 95.5,201.2 			"/>
		</g>
		<g>
			<polygon fill="#04101B" points="95.5,201.2 86.4,196.2 86.5,187.7 95.6,192.7 			"/>
		</g>
	</g>
</g>
</svg>
